<?xml version="1.0"?><svg xmlns="http://www.w3.org/2000/svg" width="24" height="24" viewBox="0 0 24 24" version="1.1"><rect x="0" y="0" width="24" height="24" fill="#00000000"></rect><path fill-opacity="0.345" d="M12.7 6.2c-1.2 0.7-2.1 1.3-2.2 1.3 0 0 1.1 2 3.5 6l3.4 6.1 2.9 0 2.9 0-0.1-0.2c0 0-1.9-3.3-4.1-7.1-2.2-3.9-4.1-7.2-4.1-7.2-0.1-0.1-0.3 0-2.2 1.1m-5.1 5.3c-1.2 0.7-2.1 1.2-2.1 1.3 0 0 0.8 1.5 1.9 3.4l1.9 3.3 2.9 0c1.9 0 2.9 0 2.9 0 0-0.1-5.3-9.2-5.3-9.2-0.1 0-1 0.5-2.2 1.2m-5 5.2c-2.5 1.4-2.3 1.2-1.7 2.2l0.3 0.6 2.9 0c2.4 0 2.9 0 2.9 0 0-0.2-2.3-4-2.3-4-0.1 0-1 0.5-2.1 1.2" stroke="none" fill="black" fill-rule="evenodd"></path><path fill-opacity="0.240" d="M12.7 6.3c-1.2 0.6-2.1 1.2-2.2 1.2 0 0 6.4 11.2 6.8 11.9l0.2 0.2 2.8 0c1.9 0 2.9-0.1 2.9-0.1 0-0.1-8.4-14.4-8.4-14.4 0 0-1 0.5-2.1 1.2m-5.1 5.2c-1.2 0.7-2.1 1.2-2.1 1.3 0 0 0.8 1.5 1.9 3.4l1.9 3.3 2.9 0c1.6 0 2.9 0 2.9 0 0 0-5.3-9.2-5.3-9.2-0.1 0-1 0.5-2.2 1.2m-5 5.2c-2 1.2-2.1 1.2-2.1 1.3 0 0.2 0.1 0.3 0.4 0.9l0.4 0.7 2.8 0c1.6 0 2.9-0.1 2.9-0.1 0-0.1-2.3-4-2.3-4-0.1 0-1 0.5-2.1 1.2" stroke="none" fill="black" fill-rule="evenodd"></path><path fill-opacity="0.661" d="M12.6 6.3c-1.1 0.6-2.1 1.2-2.1 1.2 0 0 1.6 2.7 3.4 6l3.5 6 2.9 0c1.6 0 2.9 0 2.8 0 0-0.3-8.3-14.4-8.3-14.4-0.1 0-1 0.5-2.2 1.2m-5 5.2c-1.2 0.7-2.1 1.2-2.1 1.3 0 0 0.8 1.5 1.9 3.4l1.9 3.3 2.9 0c2.4 0 2.9 0 2.8-0.1 0-0.1-5.2-9.1-5.2-9.1-0.1 0-1 0.5-2.2 1.2m-5 5.2l-2 1.2 0 0.2c0 0.2 0 0.3 0.3 0.8 0.2 0.3 0.3 0.6 0.4 0.6 0 0 1.3 0 2.9 0l2.8 0-1.1-2c-0.7-1.1-1.2-2-1.2-2-0.1 0-1 0.5-2.1 1.2" stroke="none" fill="black" fill-rule="evenodd"></path><path fill-opacity="1.000" d="M12.6 6.3l-2.1 1.2 0.2 0.3c0.1 0.2 1.6 2.8 3.4 6l3.3 5.7 2.9 0 2.9 0-0.2-0.3c-0.9-1.6-8.2-14.1-8.2-14.1 0 0-1 0.5-2.2 1.2m-5 5.2c-1.2 0.7-2.1 1.3-2.1 1.3 0 0 0.9 1.6 1.9 3.4l1.9 3.3 2.9 0c1.7 0 2.9 0 2.8 0 0-0.2-5.2-9.2-5.3-9.2 0 0-1 0.6-2.1 1.2m-5 5.2l-2 1.2 0 0.2c0 0.1 0 0.3 0.3 0.8l0.3 0.6 2.9 0 2.9 0-0.7-1.3c-0.4-0.7-1-1.6-1.2-2-0.2-0.4-0.4-0.7-0.4-0.7 0 0-1 0.5-2.1 1.2" stroke="none" fill="black" fill-rule="evenodd"></path></svg>