<?xml version="1.0"?><svg xmlns="http://www.w3.org/2000/svg" width="24" height="24" viewBox="0 0 24 24" version="1.1"><rect x="0" y="0" width="24" height="24" fill="#00000000"></rect><path fill-opacity="0.498" d="M6 12l0 6 1 0 1 0 0-6 0-6-1 0-1 0 0 6m4-3l0 2 6 0 6 0 0-2 0-2-6 0-6 0 0 2m0 6l0 2 3 0 3 0 0-2 0-2-3 0-3 0 0 2" stroke="none" fill="black" fill-rule="evenodd"></path><path fill-opacity="1.000" d="M6 12l0 6 1 0 1 0 0-6 0-6-1 0-1 0 0 6m4-3l0 2 6 0 6 0 0-2 0-2-6 0-6 0 0 2" stroke="none" fill="black" fill-rule="evenodd"></path></svg>