<?xml version="1.0"?><svg xmlns="http://www.w3.org/2000/svg" width="24" height="24" viewBox="0 0 24 24" version="1.1"><rect x="0" y="0" width="24" height="24" fill="#00000000"></rect><path fill-opacity="0.298" d="M9.2 2.1c-0.4 0.1-0.9 0.4-1.3 0.7-0.6 0.6-0.9 1.4-0.9 2.3l0 0.4-0.3 0.2c-0.8 0.5-1.4 1.5-1.6 2.5-0.1 0.6-0.1 7 0 7.6 0.2 1 0.8 2 1.6 2.5l0.3 0.2 0 0.4c0 0.6 0.1 1 0.3 1.4 0.4 0.8 1.2 1.4 2 1.6 0.5 0.1 4.9 0.1 5.4 0 0.9-0.2 1.6-0.8 2-1.6 0.2-0.4 0.3-0.8 0.3-1.4l0-0.4 0.2-0.2c0.6-0.4 1.2-1 1.5-1.7 0.2-0.7 0.3-1 0.3-2.4l0-1.2 0.5 0 0.5 0 0-2 0-2-0.5 0-0.5 0 0-0.2c0-0.3-0.1-0.9-0.3-1.3-0.3-0.7-0.9-1.4-1.4-1.8l-0.3-0.2 0-0.4c0-0.3 0-0.6-0.1-0.8-0.2-1.1-1.1-1.9-2.1-2.2-0.4-0.1-0.6-0.1-2.8-0.1-2.2 0-2.5 0-2.8 0.1m0.6 1.9c-0.4 0.1-0.7 0.5-0.8 0.8l0 0.2 3 0 3 0 0-0.2c-0.1-0.4-0.4-0.7-0.8-0.8-0.2 0-4.2 0-4.4 0m-1.2 3.1c-0.8 0.1-1.4 0.8-1.6 1.6 0 0.4 0 6.2 0 6.6 0.2 0.9 0.9 1.5 1.7 1.7 0.2 0 1.5 0 3.5 0 2.9 0 3.2 0 3.5-0.1 0.5-0.2 1-0.7 1.2-1.3 0.1-0.2 0.1-0.5 0.1-3.5 0-2.7 0-3.4-0.1-3.6-0.1-0.6-0.6-1.1-1.2-1.4-0.3-0.1-0.3-0.1-3.5-0.1-1.9 0-3.4 0-3.6 0.1m0.4 12.1c0.1 0.3 0.3 0.5 0.6 0.7l0.2 0.1 2.2 0 2.2 0 0.2-0.1c0.3-0.2 0.5-0.4 0.6-0.7l0-0.2-3 0-3 0 0 0.2" stroke="none" fill="black" fill-rule="evenodd"></path><path fill-opacity="0.218" d="M9.3 2.1c-0.8 0.2-1.6 0.8-1.9 1.5-0.3 0.5-0.4 0.7-0.4 1.4 0 0.5 0 0.6-0.1 0.6-0.2 0.1-0.7 0.5-1 0.9-0.4 0.5-0.7 1.2-0.9 1.9 0 0.2 0 1.5 0 3.8l0 3.5 0.2 0.5c0.1 0.5 0.4 0.9 0.7 1.3 0.2 0.3 0.7 0.8 1 0.9 0.1 0 0.1 0.1 0.1 0.6 0 0.8 0.3 1.4 0.7 1.9 0.4 0.5 1.1 0.9 1.7 1 0.4 0.1 4.8 0.1 5.2 0 0.6-0.1 1.3-0.5 1.7-0.9 0.2-0.3 0.4-0.7 0.6-1.1 0-0.2 0.1-0.4 0.1-0.9 0-0.5 0-0.6 0.1-0.6 0.2-0.1 0.7-0.5 1-0.8 0.3-0.4 0.5-0.9 0.7-1.4 0.2-0.5 0.2-0.5 0.2-1.8l0-1.4 0.5 0 0.5 0 0-2 0-2-0.5 0-0.5 0 0-0.4c-0.1-0.7-0.4-1.6-0.9-2.2-0.3-0.3-0.8-0.7-1-0.8-0.1 0-0.1-0.1-0.1-0.6 0-0.6-0.1-0.9-0.3-1.4-0.4-0.7-1.2-1.4-2.1-1.5-0.4-0.1-4.8-0.1-5.3 0m0.4 1.9c-0.4 0.2-0.6 0.4-0.7 0.8l0 0.2 3 0 3 0 0-0.2c-0.1-0.3-0.3-0.5-0.5-0.7-0.2-0.1-0.2-0.1-2.4-0.1-1.2 0-2.3 0-2.4 0m-1.1 3.1c-0.8 0.1-1.4 0.8-1.6 1.6 0 0.1 0 1.4 0 3.5 0 3.2 0 3.2 0.1 3.5 0.3 0.5 0.7 1 1.2 1.2 0.3 0.1 0.5 0.1 3.7 0.1 3.2 0 3.4 0 3.7-0.1 0.5-0.2 0.9-0.7 1.2-1.2l0.1-0.3 0-3.4 0-3.4-0.1-0.3c-0.3-0.5-0.7-0.9-1.2-1.2-0.3-0.1-0.3-0.1-3.6-0.1-1.8 0-3.4 0-3.5 0.1m0.4 12c0 0.2 0.3 0.6 0.5 0.7l0.2 0.2 2.3 0c2.2 0 2.3 0 2.5-0.1 0.2-0.1 0.4-0.5 0.5-0.7l0-0.2-3 0c-2.9 0-3 0-3 0.1" stroke="none" fill="black" fill-rule="evenodd"></path><path fill-opacity="0.614" d="M9.3 2.1c-1.1 0.2-2 1.2-2.2 2.3-0.1 0.2-0.1 0.5-0.1 0.7l0 0.4-0.2 0.2c-0.3 0.2-0.8 0.7-1 1-0.3 0.3-0.5 0.8-0.7 1.3-0.1 0.4-0.1 0.4-0.1 4 0 3.6 0 3.6 0.1 4 0.2 0.5 0.4 1 0.7 1.3 0.2 0.3 0.7 0.8 1 1l0.2 0.2 0 0.4c0 0.9 0.3 1.6 0.9 2.2 0.4 0.4 0.9 0.7 1.5 0.8 0.5 0.1 4.7 0.1 5.2 0 1.4-0.3 2.4-1.5 2.4-3l0-0.4 0.3-0.2c0.5-0.4 1-0.9 1.3-1.5 0.3-0.8 0.4-1.2 0.4-2.6l0-1.2 0.5 0 0.5 0 0-2 0-2-0.5 0-0.5 0 0-0.3c-0.1-0.7-0.4-1.5-0.8-2-0.2-0.3-0.7-0.8-1-1l-0.2-0.2 0-0.4c0-1.5-1-2.7-2.4-3-0.5-0.1-4.8-0.1-5.3 0m0.3 2c-0.1 0-0.2 0.1-0.3 0.2-0.1 0.1-0.3 0.4-0.3 0.6l0 0.1 3 0 3 0 0-0.1c0-0.3-0.3-0.8-0.7-0.8-0.3-0.1-4.4-0.1-4.7 0m-1.1 3c-0.3 0-0.7 0.3-1 0.5-0.1 0.2-0.2 0.4-0.3 0.6l-0.2 0.3 0 3.5 0 3.5 0.2 0.3c0.2 0.4 0.6 0.8 1 1l0.3 0.2 3.5 0 3.5 0 0.3-0.2c0.4-0.2 0.8-0.6 1-1l0.2-0.3 0-3.5 0-3.5-0.2-0.3c-0.2-0.5-0.5-0.8-0.9-1l-0.4-0.2-3.4 0c-1.9 0-3.5 0-3.6 0.1m0.5 12.1c0.1 0.3 0.3 0.6 0.5 0.7 0.3 0.1 0.3 0.1 2.5 0.1l2.2 0 0.3-0.1c0.2-0.2 0.4-0.5 0.5-0.7l0-0.2-3 0-3 0 0 0.2" stroke="none" fill="black" fill-rule="evenodd"></path><path fill-opacity="0.963" d="M9.5 2.1c-1.5 0.3-2.4 1.3-2.5 2.9l0 0.6-0.3 0.2c-0.8 0.5-1.3 1.3-1.6 2.2-0.1 0.4-0.1 0.4-0.1 4 0 3.6 0 3.6 0.1 4 0.3 1 0.9 1.8 1.7 2.3l0.2 0.1 0 0.6c0.1 0.6 0.1 0.9 0.4 1.4 0.2 0.5 0.8 1 1.2 1.2 0.7 0.4 0.7 0.4 3.4 0.4l2.5 0 0.4-0.2c0.6-0.2 0.8-0.3 1.2-0.7 0.6-0.6 0.8-1.2 0.9-2.1l0-0.6 0.2-0.1c0.8-0.5 1.4-1.4 1.7-2.3 0-0.4 0.1-0.6 0.1-1.7l0-1.3 0.5 0 0.5 0 0-2 0-2-0.5 0c-0.5 0-0.5 0-0.5-0.4-0.1-0.3-0.2-0.9-0.4-1.3-0.3-0.6-0.8-1.2-1.4-1.6l-0.2-0.2 0-0.3c0-1.5-0.8-2.7-2.2-3.1-0.3-0.1-0.6-0.1-2.6-0.1-1.8 0-2.5 0-2.7 0.1m0.1 2c-0.1 0-0.3 0.1-0.3 0.2-0.2 0.1-0.3 0.5-0.3 0.6 0 0.1 0 0.1 3 0.1 3 0 3 0 3-0.1 0-0.1-0.1-0.5-0.3-0.6 0-0.1-0.2-0.2-0.3-0.2-0.2-0.1-0.3-0.1-2.4-0.1-2.1 0-2.2 0-2.4 0.1m-1.2 3c-0.4 0.1-0.6 0.3-0.9 0.5-0.2 0.3-0.3 0.5-0.4 0.8-0.1 0.4-0.1 6.8 0 7.2 0.2 0.6 0.7 1.2 1.4 1.3 0.3 0.1 6.7 0.1 7 0 0.5-0.1 0.9-0.4 1.2-0.9 0.3-0.4 0.3-0.4 0.3-4 0-3.5 0-3.5-0.2-4-0.1-0.2-0.5-0.6-0.8-0.7-0.4-0.3-0.4-0.3-4-0.3-3.1 0-3.4 0-3.6 0.1m0.6 12c0 0.1 0.1 0.5 0.3 0.6 0 0.1 0.2 0.2 0.3 0.2 0.1 0.1 0.3 0.1 2.4 0.1 2.1 0 2.3 0 2.4-0.1 0.1 0 0.3-0.1 0.3-0.2 0.2-0.1 0.3-0.5 0.3-0.6 0-0.1 0-0.1-3-0.1-3 0-3 0-3 0.1" stroke="none" fill="black" fill-rule="evenodd"></path></svg>