<?xml version="1.0"?><svg xmlns="http://www.w3.org/2000/svg" width="24" height="24" viewBox="0 0 24 24" version="1.1"><rect x="0" y="0" width="24" height="24" fill="#00000000"></rect><path fill-opacity="0.310" d="M8.7 1l-1 1 1.7 1.6 1.6 1.7 0 8 0 8.1-0.9-0.9-1-0.9-0.7 0.7-0.7 0.7 1.5 1.5 1.5 1.5 1.3 0 1.3 0 1.5-1.5 1.5-1.5-0.7-0.7-0.7-0.7-1 0.9-0.9 0.9 0-8.1 0-8.1 1.6-1.6 1.7-1.6-1-1-1-1-2.3 0-2.3 0-1 1m2.6 0.3l-0.7 0.7 0.7 0.7 0.7 0.7 0.7-0.7 0.7-0.7-0.7-0.7c-0.4-0.4-0.7-0.7-0.7-0.7 0 0-0.3 0.3-0.7 0.7" stroke="none" fill="black" fill-rule="evenodd"></path><path fill-opacity="0.074" d="M8.7 1l-1 1 1.7 1.6 1.6 1.6 0 8.1 0 8.1-0.9-0.9-0.9-0.9-0.7 0.7-0.8 0.7 1.6 1.5 1.5 1.5 1.2 0 1.2 0 1.5-1.5 1.5-1.5-0.7-0.7-0.7-0.7-0.9 0.9-0.9 0.9 0-8.1 0-8.1 1.6-1.6 1.7-1.6-1-1-1-1-2.3 0-2.3 0-1 1m2.6 0.3l-0.7 0.7 0.7 0.7 0.7 0.7 0.7-0.7 0.7-0.7-0.7-0.7c-0.4-0.4-0.7-0.7-0.7-0.7 0 0-0.3 0.3-0.7 0.7" stroke="none" fill="black" fill-rule="evenodd"></path><path fill-opacity="0.270" d="M8.8 1l-1 1 1.6 1.6 1.6 1.6 0 8.1 0 8.1-0.9-0.9-0.9-0.9-0.7 0.7-0.7 0.7 1.5 1.5 1.4 1.5 1.3 0 1.3 0 1.4-1.5 1.5-1.5-0.7-0.7-0.7-0.7-0.9 0.9-0.9 0.9 0-8.1 0-8.1 1.6-1.6 1.6-1.6-1-1-1-1-2.2 0-2.2 0-1 1m2.5 0.3l-0.7 0.7 0.7 0.7 0.7 0.7 0.7-0.7 0.7-0.7-0.7-0.7c-0.4-0.4-0.7-0.7-0.7-0.7 0 0-0.3 0.3-0.7 0.7" stroke="none" fill="black" fill-rule="evenodd"></path><path fill-opacity="0.983" d="M8.8 1l-1 1 1.6 1.6 1.6 1.6 0 8.1 0 8.1-0.9-0.9-0.9-0.9-0.7 0.7-0.7 0.7 1.5 1.5 1.5 1.5 1.2 0 1.2 0 1.5-1.5 1.5-1.5-0.7-0.7-0.7-0.7-0.9 0.9-0.9 0.9 0-8.1 0-8.1 1.6-1.6 1.6-1.6-1-1-1-1-2.2 0-2.2 0-1 1m2.5 0.3l-0.7 0.7 0.7 0.7 0.7 0.7 0.7-0.7 0.7-0.7-0.7-0.7c-0.4-0.4-0.7-0.7-0.7-0.7 0 0-0.3 0.3-0.7 0.7" stroke="none" fill="black" fill-rule="evenodd"></path></svg>