<?xml version="1.0"?><svg xmlns="http://www.w3.org/2000/svg" width="24" height="24" viewBox="0 0 24 24" version="1.1"><rect x="0" y="0" width="24" height="24" fill="#00000000"></rect><path fill-opacity="0.424" d="M4.2 1.1c-1.2 0.2-2.2 1-2.8 2.1-0.4 0.9-0.4 0.1-0.4 8.8l0 7.7 0.1 0.4c0.4 1.3 1.5 2.3 2.8 2.8l0.4 0.1 7.7 0 7.7 0 0.4-0.1c1.3-0.5 2.4-1.5 2.8-2.8l0.1-0.4 0-7.7c0-7.2 0-7.7-0.1-8-0.2-0.8-0.8-1.6-1.4-2.1-0.4-0.3-0.9-0.6-1.4-0.8l-0.4-0.1-7.6 0c-6.6 0-7.6 0-7.9 0.1m0.4 2c-0.8 0.1-1.4 0.8-1.6 1.6 0 0.2 0 3.1 0 7.5l0 7.2 0.1 0.3c0.3 0.5 0.7 1 1.3 1.2 0.2 0.1 0.6 0.1 7.6 0.1 7 0 7.4 0 7.7-0.1 0.5-0.2 0.9-0.7 1.2-1.2l0.1-0.3 0-7.4 0-7.4-0.1-0.3c-0.2-0.5-0.7-1-1.2-1.2l-0.3-0.1-7.2 0c-4.1 0-7.4 0-7.6 0.1m6.4 4.9l0 1 1.3 0 1.3 0-2.9 2.9-3 2.9 0.8 0.7 0.7 0.8 2.9-3 2.9-2.9 0 1.3 0 1.3 1 0 1 0 0-3 0-3-3 0-3 0 0 1" stroke="none" fill="black" fill-rule="evenodd"></path><path fill-opacity="0.455" d="M4.3 1.1c-0.7 0.1-1.3 0.4-1.6 0.7-0.6 0.4-1.1 1.1-1.4 1.7-0.3 0.8-0.3 0.5-0.3 8.5 0 8 0 7.7 0.3 8.4 0.3 1 1.2 1.9 2.2 2.3 0.7 0.3 0.2 0.3 8.5 0.3 8.3 0 7.8 0 8.5-0.3 1-0.4 1.9-1.3 2.2-2.3 0.3-0.7 0.3-0.4 0.3-8.4 0-8 0-7.7-0.3-8.5-0.3-0.6-0.8-1.3-1.4-1.7-0.2-0.2-0.7-0.5-1.2-0.6l-0.4-0.2-7.6 0c-6.3 0-7.6 0-7.8 0.1m0.2 2c-0.6 0.1-1.1 0.5-1.3 1.1l-0.2 0.3 0 7.5 0 7.5 0.2 0.3c0.2 0.4 0.6 0.8 1 1l0.3 0.2 7.5 0 7.5 0 0.3-0.2c0.4-0.2 0.8-0.6 1-1l0.2-0.3 0-7.5 0-7.5-0.2-0.3c-0.2-0.6-0.7-1-1.3-1.1-0.4-0.1-14.6-0.1-15 0m6.5 4.9l0 1 1.3 0 1.3 0-2.9 2.9-3 2.9 0.7 0.7c0.4 0.4 0.7 0.7 0.8 0.7 0 0 1.3-1.3 2.9-2.9l2.9-2.9 0 1.3 0 1.3 1 0 1 0 0-3 0-3-3 0-3 0 0 1" stroke="none" fill="black" fill-rule="evenodd"></path><path fill-opacity="0.188" d="M4.5 1c-0.5 0.2-0.8 0.2-1.1 0.3-0.8 0.4-1.5 1.1-1.9 1.9-0.5 0.9-0.5 0.2-0.5 8.8 0 8.6 0 7.9 0.5 8.8 0.5 1 1.4 1.7 2.5 2.1l0.4 0.1 7.6 0 7.6 0 0.4-0.1c1.1-0.4 2-1.1 2.5-2.1 0.5-0.9 0.5-0.2 0.5-8.8 0-8.6 0-7.9-0.5-8.8-0.2-0.4-0.3-0.6-0.6-0.9-0.5-0.6-1.1-0.9-1.9-1.2l-0.4-0.1-7.5 0c-4.1 0-7.5 0-7.6 0m-0.1 2.1c-0.3 0.1-0.6 0.3-0.9 0.6-0.2 0.3-0.3 0.4-0.4 0.7-0.1 0.4-0.1 14.8 0 15.2 0.2 0.6 0.7 1.2 1.4 1.3 0.4 0.1 14.6 0.1 15 0 0.5-0.1 0.9-0.4 1.2-0.9 0.3-0.4 0.3 0 0.3-8 0-8 0-7.6-0.3-8-0.3-0.5-0.7-0.8-1.2-0.9-0.3-0.1-14.7-0.1-15.1 0m6.6 4.9l0 1 1.3 0 1.3 0-2.9 2.9c-1.6 1.6-2.9 2.9-2.9 2.9 0 0.1 0.3 0.4 0.7 0.8l0.7 0.6 0.8-0.8c0.4-0.4 1.7-1.7 2.9-2.9l2.1-2.1 0 1.3 0 1.3 1 0 1 0 0-3 0-3-3 0-3 0 0 1" stroke="none" fill="black" fill-rule="evenodd"></path><path fill-opacity="0.969" d="M4.5 1.1c-0.9 0.1-1.8 0.5-2.4 1.2-0.6 0.6-1 1.4-1.1 2.3 0 0.4 0 3 0 7.8l0 7.2 0.1 0.4c0.5 1.6 1.8 2.8 3.4 2.9 0.6 0.1 14.4 0.1 15 0 1.6-0.1 2.9-1.3 3.4-2.9l0.1-0.4 0-7.2c0-4.8 0-7.4 0-7.8-0.1-0.9-0.5-1.7-1.1-2.3-0.5-0.6-1.1-0.9-1.9-1.2l-0.4-0.1-7.4 0c-4.1 0-7.5 0-7.7 0.1m-0.1 2c-0.5 0.1-1 0.6-1.2 1.1l-0.2 0.3 0 7.5 0 7.5 0.2 0.3c0.1 0.4 0.5 0.8 0.9 1l0.4 0.2 7.5 0 7.5 0 0.4-0.2c0.4-0.2 0.8-0.6 0.9-1l0.2-0.3 0-7.5 0-7.5-0.2-0.3c-0.1-0.4-0.6-0.9-1-1l-0.3-0.2-7.4 0c-5.9 0-7.5 0-7.7 0.1m6.6 4.9l0 1 1.3 0 1.3 0-2.9 2.9-2.9 2.9 0.7 0.7 0.7 0.7 2.9-2.9 2.9-2.9 0 1.3 0 1.3 1 0 1 0 0-3 0-3-3 0-3 0 0 1" stroke="none" fill="black" fill-rule="evenodd"></path></svg>