<?xml version="1.0"?><svg xmlns="http://www.w3.org/2000/svg" width="24" height="24" viewBox="0 0 24 24" version="1.1"><rect x="0" y="0" width="24" height="24" fill="#00000000"></rect><path fill-opacity="0.325" d="M11.4 0c-0.8 0.3-1.5 0.7-2 1.4-0.5 0.8-0.5 2-0.1 2.9 0.3 0.6 0.8 1.1 1.4 1.4l0.3 0.2 0 7.7 0 7.8-0.9-0.9-1-0.9-0.7 0.7-0.7 0.7 1.5 1.5 1.5 1.5 1.3 0 1.3 0 1.5-1.5 1.5-1.5-0.7-0.7-0.7-0.7-1 0.9-0.9 0.9 0-7.8 0-7.7 0.3-0.2c1.1-0.5 1.8-1.6 1.7-2.9-0.1-0.8-0.3-1.4-0.9-1.9-0.6-0.6-1.1-0.9-2-0.9-0.3 0-0.6 0-0.7 0m0.1 2.1c-0.2 0.2-0.2 0.2-0.4 0.5-0.1 0.2-0.1 0.3-0.1 0.5 0.1 0.3 0.2 0.6 0.5 0.7 0.1 0.2 0.2 0.2 0.5 0.2 0.3 0 0.4 0 0.5-0.2 0.7-0.4 0.6-1.3-0.1-1.7-0.3-0.1-0.5-0.1-0.9 0" stroke="none" fill="black" fill-rule="evenodd"></path><path fill-opacity="0.332" d="M11.3 0.1c-0.2 0-0.4 0.1-0.6 0.2-0.5 0.2-1.2 0.9-1.4 1.4-0.4 0.8-0.4 1.8 0 2.6 0.2 0.5 0.9 1.2 1.4 1.4l0.3 0.2 0 7.7 0 7.8-0.9-0.9-0.9-0.9-0.7 0.7-0.7 0.7 1.5 1.5 1.4 1.5 1.3 0 1.3 0 1.4-1.5 1.5-1.5-0.7-0.7-0.7-0.7-0.9 0.9-0.9 0.9 0-7.8 0-7.7 0.3-0.2c0.5-0.2 1.2-0.9 1.4-1.4 0.4-0.8 0.4-1.8 0-2.6-0.2-0.5-0.9-1.2-1.4-1.4-0.6-0.3-1.4-0.4-2-0.2m0.2 2c-0.3 0.2-0.5 0.5-0.5 0.9 0 0.3 0 0.4 0.2 0.6 0.4 0.5 1.2 0.5 1.6 0 0.2-0.2 0.2-0.3 0.2-0.6 0-0.4-0.2-0.7-0.6-0.9-0.3-0.1-0.6-0.1-0.9 0" stroke="none" fill="black" fill-rule="evenodd"></path><path fill-opacity="0.591" d="M11.4 0.1c-1.2 0.2-2.1 1.2-2.3 2.3-0.2 0.7-0.1 1.3 0.2 1.9 0.3 0.6 0.8 1.1 1.3 1.4l0.4 0.1 0 7.8 0 7.8-0.9-0.9-0.9-0.9-0.7 0.7-0.7 0.7 1.5 1.5 1.5 1.5 1.2 0 1.2 0 1.5-1.5 1.5-1.5-0.7-0.7-0.7-0.7-0.9 0.9-0.9 0.9 0-7.8 0-7.8 0.4-0.1c0.6-0.4 1.3-1.1 1.5-1.8 0.5-1.7-0.6-3.5-2.3-3.8-0.4-0.1-0.8-0.1-1.2 0m0.2 2c-0.8 0.3-0.8 1.4-0.1 1.8 1 0.5 2-0.7 1.3-1.6-0.3-0.3-0.8-0.4-1.2-0.2" stroke="none" fill="black" fill-rule="evenodd"></path><path fill-opacity="0.957" d="M11.6 0.1c-0.9 0.1-1.8 0.7-2.2 1.5-0.4 0.6-0.5 1.6-0.2 2.4 0.2 0.7 0.8 1.3 1.5 1.7l0.3 0.1 0 7.8 0 7.8-0.9-0.9-0.9-0.9-0.7 0.7-0.7 0.7 1.5 1.5 1.5 1.5 1.2 0 1.2 0 1.5-1.5 1.5-1.5-0.7-0.7-0.7-0.7-0.9 0.9-0.9 0.9 0-7.8 0-7.8 0.3-0.1c1.4-0.7 2-2.3 1.5-3.7-0.2-0.6-0.7-1.2-1.3-1.6-0.5-0.3-1.3-0.4-1.9-0.3m-0.1 2c-0.2 0.1-0.4 0.4-0.5 0.6 0 0.4 0 0.7 0.2 0.9 0.3 0.3 0.4 0.4 0.8 0.4 0.4 0 0.5-0.1 0.8-0.4 0.2-0.2 0.2-0.2 0.2-0.6 0-0.4 0-0.4-0.2-0.6-0.3-0.4-0.8-0.5-1.3-0.3" stroke="none" fill="black" fill-rule="evenodd"></path></svg>