<?xml version="1.0"?><svg xmlns="http://www.w3.org/2000/svg" width="24" height="24" viewBox="0 0 24 24" version="1.1"><rect x="0" y="0" width="24" height="24" fill="#00000000"></rect><path fill-opacity="0.318" d="M9.2 1.5l-1.5 1.5 0.7 0.7 0.7 0.7 1-0.9 0.9-0.9 0 10.2 0 10.2-1 0-1 0 0 0.5 0 0.5 3 0 3 0 0-0.5 0-0.5-1 0-1 0 0-10.2 0-10.2 0.9 0.9 1 0.9 0.7-0.7 0.7-0.7-1.5-1.5-1.5-1.5-1.3 0-1.3 0-1.5 1.5" stroke="none" fill="black" fill-rule="evenodd"></path><path fill-opacity="0.103" d="M9.2 1.5l-1.5 1.5 0.8 0.7 0.7 0.7 0.9-0.9 0.9-0.9 0 10.2 0 10.2-1 0-1 0 0 0.5 0 0.5 3 0 3 0 0-0.5 0-0.5-1 0-1 0 0-10.2 0-10.2 0.9 0.9 0.9 0.9 0.7-0.7 0.8-0.7-1.5-1.5-1.5-1.5-1.3 0-1.3 0-1.5 1.5" stroke="none" fill="black" fill-rule="evenodd"></path><path fill-opacity="0.378" d="M9.3 1.5l-1.5 1.5 0.7 0.7 0.7 0.7 0.9-0.9 0.9-0.9 0 10.2 0 10.2-1 0-1 0 0 0.5 0 0.5 3 0 3 0 0-0.5 0-0.5-1 0-1 0 0-10.2 0-10.2 0.9 0.9 0.9 0.9 0.7-0.7 0.7-0.7-1.5-1.5-1.4-1.5-1.3 0-1.3 0-1.4 1.5" stroke="none" fill="black" fill-rule="evenodd"></path><path fill-opacity="1.000" d="M9.3 1.5l-1.5 1.5 0.7 0.7 0.7 0.7 0.9-0.9 0.9-0.9 0 10.2 0 10.2-1 0-1 0 0 0.5 0 0.5 3 0 3 0 0-0.5 0-0.5-1 0-1 0 0-10.2 0-10.2 0.9 0.9 0.9 0.9 0.7-0.7 0.7-0.7-1.5-1.5-1.5-1.5-1.2 0-1.2 0-1.5 1.5" stroke="none" fill="black" fill-rule="evenodd"></path></svg>