<?xml version="1.0"?><svg xmlns="http://www.w3.org/2000/svg" width="24" height="24" viewBox="0 0 24 24" version="1.1"><rect x="0" y="0" width="24" height="24" fill="#00000000"></rect><path fill-opacity="0.325" d="M20.3 8.5c-0.4 0.3-0.7 0.6-0.7 0.7 0 0 0.4 0.4 0.9 0.9l0.9 0.9-7.8 0-7.7 0-0.2-0.3c-0.4-0.8-1.1-1.4-2-1.6-0.4-0.1-1.3-0.1-1.7 0-0.8 0.3-1.6 1.1-1.9 1.9-0.1 0.5-0.1 1.4 0 1.9 0.3 0.9 1.1 1.7 1.9 2 0.4 0.1 1.3 0.1 1.7 0 0.9-0.2 1.6-0.8 2-1.6l0.2-0.3 7.7 0 7.8 0-0.9 0.9c-0.5 0.5-0.9 0.9-0.9 0.9 0 0.1 0.3 0.4 0.7 0.7l0.7 0.7 1.5-1.4 1.5-1.5 0-0.7c0-0.4 0-1 0-1.3l0-0.6-1.5-1.4c-0.8-0.8-1.5-1.5-1.5-1.5 0 0-0.3 0.3-0.7 0.7m-17.8 2.6c-0.2 0.2-0.2 0.2-0.4 0.5-0.1 0.2-0.1 0.3-0.1 0.5 0.1 0.3 0.2 0.6 0.5 0.7 0.1 0.2 0.2 0.2 0.5 0.2 0.3 0 0.4 0 0.5-0.2 0.7-0.4 0.6-1.3-0.1-1.7-0.3-0.1-0.5-0.1-0.9 0m-2.5 0.9c0 0.3 0 0.4 0 0.2 0-0.1 0-0.3 0-0.4 0-0.2 0-0.1 0 0.2" stroke="none" fill="black" fill-rule="evenodd"></path><path fill-opacity="0.332" d="M20.3 8.5l-0.7 0.7 0.9 0.9 0.9 0.9-7.8 0-7.7 0-0.2-0.3c-0.1-0.3-0.3-0.5-0.6-0.8-0.6-0.6-1.1-0.8-1.9-0.9-0.6 0-1 0.1-1.5 0.3-0.5 0.2-1.2 0.9-1.4 1.4-0.4 0.8-0.4 1.8 0 2.6 0.2 0.5 0.8 1 1.2 1.3 0.9 0.5 2.1 0.5 3 0 0.4-0.3 1-0.8 1.2-1.3l0.2-0.3 7.7 0 7.8 0-0.9 0.9-0.9 0.9 0.7 0.7 0.7 0.7 1.5-1.5 1.5-1.4 0-0.6c0-0.3 0-0.9 0-1.3l0-0.6-1.5-1.5c-0.8-0.8-1.5-1.5-1.5-1.5 0 0-0.3 0.3-0.7 0.7m-17.8 2.6c-0.3 0.2-0.5 0.5-0.5 0.9 0 0.3 0 0.4 0.2 0.6 0.4 0.5 1.2 0.5 1.6 0 0.2-0.2 0.2-0.3 0.2-0.6 0-0.4-0.2-0.7-0.5-0.9-0.4-0.1-0.6-0.1-1 0m-2.5 0.9c0 0.2 0 0.3 0 0.2 0-0.1 0-0.3 0-0.4 0-0.1 0 0 0 0.2" stroke="none" fill="black" fill-rule="evenodd"></path><path fill-opacity="0.591" d="M20.3 8.5l-0.7 0.7 0.9 0.9 0.9 0.9-7.8 0-7.8 0-0.1-0.4c-0.3-0.5-0.8-1-1.4-1.3-1.1-0.6-2.5-0.3-3.4 0.6-1.2 1.2-1.2 3 0 4.2 0.9 0.9 2.2 1.2 3.5 0.6 0.5-0.3 1-0.8 1.3-1.3l0.1-0.4 7.8 0 7.8 0-0.9 0.9-0.9 0.9 0.7 0.7 0.7 0.7 1.5-1.5 1.5-1.5 0-1.2 0-1.2-1.5-1.5c-0.8-0.8-1.5-1.5-1.5-1.5 0 0-0.3 0.3-0.7 0.7m-17.7 2.6c-0.8 0.3-0.8 1.4-0.1 1.8 0.6 0.3 1.4-0.1 1.5-0.8 0-0.6-0.4-1.1-1-1.1-0.1 0-0.3 0-0.4 0.1m-2.6 0.9c0 0.2 0 0.3 0 0.2 0-0.1 0-0.3 0-0.4 0-0.1 0 0 0 0.2" stroke="none" fill="black" fill-rule="evenodd"></path><path fill-opacity="0.957" d="M20.3 8.5l-0.7 0.7 0.9 0.9 0.9 0.9-7.8 0-7.8 0-0.1-0.3c-0.8-1.6-2.9-2.2-4.4-1.1-0.9 0.6-1.4 1.7-1.3 2.8 0.1 0.5 0.3 0.9 0.5 1.3 0.6 0.8 1.4 1.3 2.5 1.3 0.8 0 1.4-0.3 2-0.8 0.2-0.2 0.7-0.8 0.8-1l0-0.2 7.8 0 7.8 0-0.9 0.9-0.9 0.9 0.7 0.7 0.7 0.7 1.5-1.5 1.5-1.5 0-1.2 0-1.2-1.5-1.5c-0.8-0.8-1.5-1.5-1.5-1.5 0 0-0.3 0.3-0.7 0.7m-17.8 2.6c-0.2 0.1-0.4 0.4-0.5 0.6 0 0.4 0 0.7 0.2 0.9 0.3 0.3 0.4 0.4 0.8 0.4 0.4 0 0.5-0.1 0.8-0.4 0.2-0.2 0.2-0.2 0.2-0.6 0-0.4 0-0.4-0.2-0.6-0.3-0.4-0.8-0.5-1.3-0.3m-2.5 0.9c0 0.1 0 0.1 0 0.1 0-0.1 0-0.1 0-0.2 0 0 0 0 0 0.1" stroke="none" fill="black" fill-rule="evenodd"></path></svg>