<?xml version="1.0"?><svg xmlns="http://www.w3.org/2000/svg" width="24" height="24" viewBox="0 0 24 24" version="1.1"><rect x="0" y="0" width="24" height="24" fill="#00000000"></rect><path fill-opacity="0.294" d="M1 8.8l-1 1 0 2.2 0 2.2 1 1 1 1 1.5-1.4c0.8-0.8 1.5-1.6 1.6-1.6l0.2-0.2 8 0 8.1 0-0.9 0.9c-0.5 0.5-0.9 0.9-0.9 0.9 0 0.1 0.3 0.4 0.7 0.7l0.7 0.7 1.5-1.4 1.5-1.5 0 0.5c0 0.2 0-0.6 0-1.8 0-1.3 0-2.1 0-1.8l0 0.5-0.1-0.1c-0.1-0.1-0.7-0.7-1.5-1.5l-1.4-1.3-0.7 0.7c-0.4 0.3-0.7 0.6-0.7 0.7 0 0 0.4 0.4 0.9 0.9l0.9 0.9-8 0-8.1 0-1.6-1.6c-0.9-0.9-1.7-1.6-1.7-1.6 0 0-0.5 0.4-1 1m-1 3.2c0 1.3 0 1.8 0 1.1 0-0.6 0-1.6 0-2.2 0-0.7 0-0.2 0 1.1m1.3-0.7l-0.7 0.7 0.7 0.7 0.7 0.7 0.7-0.7 0.7-0.7-0.7-0.7c-0.4-0.4-0.7-0.7-0.7-0.7 0 0-0.3 0.3-0.7 0.7" stroke="none" fill="black" fill-rule="evenodd"></path><path fill-opacity="0.056" d="M1 8.8l-1 1 0 2.2 0 2.2 1 1c0.5 0.6 1 1 1 1 0.1 0 0.8-0.8 1.7-1.6l1.6-1.6 8 0 8.1 0-0.9 0.9c-0.5 0.5-0.9 0.9-0.9 0.9 0 0.1 0.3 0.4 0.7 0.7l0.7 0.7 1.5-1.4 1.5-1.5 0 0.5c0 0.2 0-0.6 0-1.8 0-1.3 0-2.1 0-1.8l0 0.5-1.5-1.5-1.5-1.4-0.7 0.7c-0.4 0.3-0.7 0.6-0.7 0.7 0 0 0.4 0.4 0.9 0.9l0.9 0.9-8.1 0-8 0-1.7-1.6c-0.8-0.9-1.6-1.6-1.6-1.6 0 0-0.5 0.4-1 1m-1 3.2c0 1.3 0 1.8 0 1.1 0-0.6 0-1.6 0-2.2 0-0.7 0-0.2 0 1.1m1.3-0.7l-0.7 0.7 0.7 0.7 0.7 0.7 0.7-0.7 0.7-0.7-0.7-0.7c-0.4-0.4-0.7-0.7-0.7-0.7 0 0-0.3 0.3-0.7 0.7" stroke="none" fill="black" fill-rule="evenodd"></path><path fill-opacity="0.941" d="M1 8.8l-1 1 0 2.2 0 2.2 1 1 1 1 1.6-1.6 1.6-1.6 8.1 0 8.1 0-0.9 0.9-0.9 0.9 0.7 0.7 0.7 0.7 1.5-1.5 1.5-1.4 0 0.5c0 0.2 0-0.6 0-1.8 0-1.3 0-2.1 0-1.8l0 0.5-1.5-1.4-1.5-1.5-0.7 0.7-0.7 0.7 0.9 0.9 0.9 0.9-8.1 0-8.1 0-1.6-1.6c-0.9-0.9-1.6-1.6-1.6-1.6 0 0-0.5 0.4-1 1m-1 3.2c0 1.3 0 1.8 0 1.1 0-0.6 0-1.6 0-2.2 0-0.7 0-0.2 0 1.1m1.3-0.7l-0.7 0.7 0.7 0.7 0.7 0.7 0.7-0.7 0.7-0.7-0.7-0.7c-0.4-0.4-0.7-0.7-0.7-0.7 0 0-0.3 0.3-0.7 0.7" stroke="none" fill="black" fill-rule="evenodd"></path><path fill-opacity="0.900" d="M1 8.8l-1 1 0 2.2 0 2.2 1 1 1 1 1.6-1.6 1.6-1.6 8.1 0 8.1 0-0.9 0.9-0.9 0.9 0.7 0.7 0.7 0.7 1.5-1.5 1.5-1.5 0 0.5c0 0.3 0-0.5 0-1.7 0-1.3 0-2.1 0-1.8l0 0.6-1.5-1.5-1.5-1.5-0.7 0.7-0.7 0.7 0.9 0.9 0.9 0.9-8.1 0-8.1 0-1.6-1.6c-0.9-0.9-1.6-1.6-1.6-1.6 0 0-0.5 0.4-1 1m-1 3.2c0 1.3 0 1.8 0 1.1 0-0.6 0-1.6 0-2.2 0-0.7 0-0.2 0 1.1m1.3-0.7l-0.7 0.7 0.7 0.7 0.7 0.7 0.7-0.7 0.7-0.7-0.7-0.7c-0.4-0.4-0.7-0.7-0.7-0.7 0 0-0.3 0.3-0.7 0.7" stroke="none" fill="black" fill-rule="evenodd"></path></svg>