<?xml version="1.0"?><svg xmlns="http://www.w3.org/2000/svg" width="24" height="24" viewBox="0 0 24 24" version="1.1"><rect x="0" y="0" width="24" height="24" fill="#00000000"></rect><path fill-opacity="0.310" d="M20.3 8.5c-0.4 0.3-0.7 0.6-0.7 0.7 0 0 0.4 0.4 0.9 0.9l0.9 0.9-7.7 0-7.7 0 0-1 0-1-3 0-3 0 0 3 0 3 3 0 3 0 0-1 0-1 7.7 0 7.7 0-0.9 0.9c-0.5 0.5-0.9 0.9-0.9 0.9 0 0.1 0.3 0.4 0.7 0.7l0.7 0.7 1.5-1.4 1.5-1.5 0 0.8c0 0.5 0-0.5 0-2.1 0-1.7 0-2.7 0-2.2l0 0.9-1.5-1.4c-0.8-0.8-1.5-1.5-1.5-1.5 0 0-0.3 0.3-0.7 0.7m-20.3 3.5c0 1.7 0 2.3 0 1.5 0-0.8 0-2.2 0-3 0-0.8 0-0.2 0 1.5m2 0l0 1 1 0 1 0 0-1 0-1-1 0-1 0 0 1" stroke="none" fill="black" fill-rule="evenodd"></path><path fill-opacity="0.955" d="M20.3 8.5l-0.7 0.7 0.9 0.9 0.9 0.9-7.7 0-7.7 0 0-1 0-1-3 0-3 0 0 3 0 3 3 0 3 0 0-1 0-1 7.7 0 7.7 0-0.9 0.9-0.9 0.9 0.7 0.7 0.7 0.7 1.5-1.5 1.5-1.4 0 0.8c0 0.5 0-0.5 0-2.1 0-1.7 0-2.7 0-2.2l0 0.9-1.5-1.4c-0.8-0.8-1.5-1.5-1.5-1.5 0 0-0.3 0.3-0.7 0.7m-20.3 3.5c0 1.7 0 2.3 0 1.5 0-0.8 0-2.2 0-3 0-0.8 0-0.2 0 1.5m2 0l0 1 1 0 1 0 0-1 0-1-1 0-1 0 0 1" stroke="none" fill="black" fill-rule="evenodd"></path><path fill-opacity="0.116" d="M20.3 8.5l-0.7 0.7 0.9 0.9 0.9 0.9-7.7 0-7.7 0 0-1 0-1-3 0-3 0 0 3 0 3 3 0 3 0 0-1 0-1 7.7 0 7.7 0-0.9 0.9-0.9 0.9 0.7 0.7 0.7 0.7 1.5-1.5 1.5-1.5 0 0.9c0 0.5 0-0.5 0-2.1 0-1.7 0-2.7 0-2.2l0 1-1.5-1.5c-0.8-0.8-1.5-1.5-1.5-1.5 0 0-0.3 0.3-0.7 0.7m-20.3 3.5c0 1.7 0 2.3 0 1.5 0-0.8 0-2.2 0-3 0-0.8 0-0.2 0 1.5m2 0l0 1 1 0 1 0 0-1 0-1-1 0-1 0 0 1" stroke="none" fill="black" fill-rule="evenodd"></path><path fill-opacity="0.857" d="M20.3 8.5l-0.7 0.7 0.9 0.9 1 0.9-7.8 0-7.7 0 0-1 0-1-3 0-3 0 0 3 0 3 3 0 3 0 0-1 0-1 7.7 0 7.8 0-1 0.9-0.9 0.9 0.7 0.7 0.7 0.7 0.7-0.7c0.3-0.3 1-1 1.5-1.4l0.8-0.8 0 0.8c0 0.5 0-0.5 0-2.1 0-1.7 0-2.7 0-2.2l0 1-1.5-1.5c-0.8-0.8-1.5-1.4-1.5-1.4 0 0-0.3 0.2-0.7 0.6m-20.3 3.5c0 1.7 0 2.3 0 1.5 0-0.8 0-2.2 0-3 0-0.8 0-0.2 0 1.5m2 0l0 1 1 0 1 0 0-1 0-1-1 0-1 0 0 1" stroke="none" fill="black" fill-rule="evenodd"></path></svg>