<?xml version="1.0"?><svg xmlns="http://www.w3.org/2000/svg" width="24" height="24" viewBox="0 0 24 24" version="1.1"><rect x="0" y="0" width="24" height="24" fill="#00000000"></rect><path fill-opacity="0.439" d="M5 5.1l-0.7 0.7 4.2 4.1 4.1 4.1-2.3 0-2.3 0 0 1 0 1 4 0 4 0 0-4 0-4-1 0-1 0 0 2.3 0 2.3-4.1-4.1c-2.3-2.3-4.1-4.1-4.2-4.1 0 0-0.3 0.3-0.7 0.7" stroke="none" fill="black" fill-rule="evenodd"></path><path fill-opacity="0.210" d="M5 5.1l-0.7 0.7 4.2 4.1 4.1 4.1-2.3 0-2.3 0 0 1 0 1 4 0 4 0 0-4 0-4-1 0-1 0 0 2.3 0 2.3-4.1-4.1c-2.3-2.3-4.1-4.1-4.2-4.1 0 0-0.3 0.3-0.7 0.7" stroke="none" fill="black" fill-rule="evenodd"></path><path fill-opacity="0.062" d="M5 5.1l-0.6 0.7 4.1 4.1 4.1 4.1-2.3 0-2.3 0 0 1 0 1 4 0 4 0 0-4 0-4-1 0-1 0 0 2.3 0 2.3-4.1-4.1c-2.3-2.3-4.1-4.1-4.2-4.1 0 0-0.3 0.3-0.7 0.7" stroke="none" fill="black" fill-rule="evenodd"></path><path fill-opacity="1.000" d="M5.1 5.1l-0.8 0.7 4.2 4.1 4.1 4.1-2.3 0-2.3 0 0 1 0 1 4 0 4 0 0-4 0-4-1 0-1 0 0 2.3 0 2.3-4.1-4.1-4.1-4.2-0.7 0.8" stroke="none" fill="black" fill-rule="evenodd"></path></svg>