<?xml version="1.0"?><svg xmlns="http://www.w3.org/2000/svg" width="24" height="24" viewBox="0 0 24 24" version="1.1"><rect x="0" y="0" width="24" height="24" fill="#00000000"></rect><path fill-opacity="0.294" d="M1.5 9.3l-1.5 1.5 0 1.2 0 1.3 1.5 1.4 1.5 1.5 0.7-0.7 0.7-0.7-0.9-0.9-0.9-0.9 7.7 0 7.7 0 0 1 0 1 3 0 3 0 0-1.5c0-0.9 0-2.2 0-3l0-1.5-3 0-3 0 0 1 0 1-7.7 0-7.7 0 0.9-0.9 0.9-0.9-0.7-0.7c-0.4-0.4-0.7-0.7-0.7-0.7 0 0-0.7 0.7-1.5 1.5m-1.5 2.7c0 0.7 0 1 0 0.7 0-0.4 0-1 0-1.4 0-0.3 0 0 0 0.7m20 0l0 1 1 0 1 0 0-1 0-1-1 0-1 0 0 1" stroke="none" fill="black" fill-rule="evenodd"></path><path fill-opacity="0.272" d="M1.5 9.3l-1.5 1.5 0 1.2 0 1.3 1.5 1.4 1.5 1.5 0.7-0.7 0.7-0.7-0.9-0.9-0.9-0.9 7.7 0 7.7 0 0 1 0 1 3 0 3 0 0-1.5c0-0.9 0-2.2 0-3l0-1.5-3 0-3 0 0 1 0 1-7.7 0-7.7 0 0.9-0.9 0.9-0.9-0.7-0.7c-0.4-0.4-0.7-0.7-0.7-0.7 0 0-0.7 0.7-1.5 1.5m-1.5 2.7c0 0.7 0 1 0 0.7 0-0.4 0-1 0-1.4 0-0.3 0 0 0 0.7m20 0l0 1 1 0 1 0 0-1 0-1-1 0-1 0 0 1" stroke="none" fill="black" fill-rule="evenodd"></path><path fill-opacity="0.145" d="M1.5 9.3l-1.5 1.5 0 1.2 0 1.2 1.5 1.5c0.8 0.8 1.5 1.5 1.5 1.5 0 0 0.3-0.3 0.7-0.7l0.7-0.7-0.9-0.9-0.9-0.9 7.7 0 7.7 0 0 1 0 1 3 0 3 0 0-1.5c0-0.9 0-2.2 0-3l0-1.5-3 0-3 0 0 1 0 1-7.7 0-7.7 0 0.9-0.9 0.9-0.9-0.7-0.7c-0.4-0.4-0.7-0.7-0.7-0.7 0 0-0.7 0.7-1.5 1.5m-1.5 2.7c0 0.7 0 1 0 0.6 0-0.3 0-0.9 0-1.2 0-0.4 0-0.1 0 0.6m20 0l0 1 1 0 1 0 0-1 0-1-1 0-1 0 0 1" stroke="none" fill="black" fill-rule="evenodd"></path><path fill-opacity="1.000" d="M1.5 9.3l-1.5 1.5 0 1.2 0 1.2 1.5 1.5 1.5 1.5 0.7-0.7 0.7-0.7-0.9-0.9-0.9-0.9 7.7 0 7.7 0 0 1 0 1 3 0 3 0 0-1.5c0-0.9 0-2.2 0-3l0-1.5-3 0-3 0 0 1 0 1-7.7 0-7.7 0 0.9-0.9 0.9-0.9-0.7-0.7c-0.4-0.4-0.7-0.7-0.7-0.7 0 0-0.7 0.7-1.5 1.5m-1.5 2.7c0 0.7 0 1 0 0.6 0-0.3 0-0.9 0-1.2 0-0.4 0-0.1 0 0.6m20 0l0 1 1 0 1 0 0-1 0-1-1 0-1 0 0 1" stroke="none" fill="black" fill-rule="evenodd"></path></svg>