<?xml version="1.0"?><svg xmlns="http://www.w3.org/2000/svg" width="24" height="24" viewBox="0 0 24 24" version="1.1"><rect x="0" y="0" width="24" height="24" fill="#00000000"></rect><path fill-opacity="0.498" d="M14.1 8.5l-4.1 4.1 0-2.3 0-2.3-1 0-1 0 0 4 0 4 4 0 4 0 0-1 0-1-2.3 0-2.3 0 4.1-4.1 4.2-4.1-0.7-0.7c-0.4-0.4-0.7-0.7-0.7-0.7-0.1 0-1.9 1.8-4.2 4.1" stroke="none" fill="black" fill-rule="evenodd"></path><path fill-opacity="0.063" d="M14.1 8.5l-4.1 4.1 0-2.3 0-2.3-1 0-1 0 0 4 0 4 4 0 4 0 0-1 0-1-2.3 0-2.3 0 4.1-4.1 4.1-4.1-0.6-0.7c-0.4-0.4-0.7-0.7-0.7-0.7-0.1 0-1.9 1.8-4.2 4.1" stroke="none" fill="black" fill-rule="evenodd"></path><path fill-opacity="0.608" d="M14.1 8.5l-4.1 4.1 0-2.3 0-2.3-1 0-1 0 0 4 0 4 4 0 4 0 0-1 0-1-2.3 0-2.3 0 4.1-4.1 4.2-4.1-0.8-0.7-0.7-0.7-4.1 4.1" stroke="none" fill="black" fill-rule="evenodd"></path><path fill-opacity="0.979" d="M14.1 8.5l-4.1 4.1 0-2.3 0-2.3-1 0-1 0 0 4 0 4 4 0 4 0 0-1 0-1-2.3 0-2.3 0 4.1-4.1 4.1-4.1-0.6-0.7c-0.4-0.4-0.7-0.7-0.7-0.7-0.1 0-1.9 1.9-4.2 4.1" stroke="none" fill="black" fill-rule="evenodd"></path></svg>