<?xml version="1.0"?><svg xmlns="http://www.w3.org/2000/svg" width="24" height="24" viewBox="0 0 24 24" version="1.1"><rect x="0" y="0" width="24" height="24" fill="#00000000"></rect><path fill-opacity="0.380" d="M9.2 1.5l-1.5 1.5 0.7 0.7 0.7 0.7 1-0.9 0.9-0.9 0 7.8 0 7.7-0.2 0.1c-0.7 0.4-1.4 1.1-1.7 1.8-0.1 0.5-0.1 1.4 0 1.9 0.3 0.9 1.1 1.7 1.9 2 0.5 0.1 1.5 0.1 2 0 0.6-0.3 1.2-0.7 1.6-1.3 0.5-0.8 0.5-2.1 0.1-2.9-0.3-0.6-0.8-1.1-1.4-1.4l-0.3-0.2 0-7.7 0-7.8 0.9 0.9 1 0.9 0.7-0.7 0.7-0.7-1.5-1.5-1.5-1.5-1.3 0-1.3 0-1.5 1.5m2.3 18.6c-0.2 0.2-0.2 0.2-0.4 0.5-0.1 0.2-0.1 0.3-0.1 0.5 0.1 0.3 0.2 0.6 0.5 0.7 0.1 0.2 0.2 0.2 0.5 0.2 0.3 0 0.4 0 0.5-0.2 0.7-0.4 0.6-1.3-0.1-1.7-0.3-0.1-0.5-0.1-0.9 0" stroke="none" fill="black" fill-rule="evenodd"></path><path fill-opacity="0.330" d="M9.3 1.5l-1.5 1.5 0.7 0.7 0.7 0.7 0.9-0.9 0.9-0.9 0 7.8 0 7.8-0.2 0c-0.5 0.2-1.2 0.9-1.5 1.5-0.4 0.8-0.4 1.8 0 2.6 0.2 0.5 0.9 1.2 1.4 1.4 0.8 0.4 1.8 0.4 2.6 0 0.5-0.2 1.2-0.9 1.4-1.4 0.4-0.8 0.4-1.8 0-2.6-0.2-0.5-0.9-1.2-1.4-1.4l-0.3-0.1 0-7.8 0-7.8 0.9 0.9 0.9 0.9 0.7-0.7 0.7-0.7-1.5-1.5-1.4-1.5-1.3 0-1.3 0-1.4 1.5m2.2 18.6c-0.1 0.1-0.2 0.2-0.3 0.3-0.2 0.2-0.2 0.3-0.2 0.6 0 0.3 0 0.4 0.2 0.6 0.4 0.5 1.2 0.5 1.6 0 0.2-0.2 0.2-0.3 0.2-0.6 0-0.3 0-0.4-0.2-0.6-0.2-0.2-0.5-0.4-0.8-0.4-0.1 0-0.3 0-0.5 0.1" stroke="none" fill="black" fill-rule="evenodd"></path><path fill-opacity="0.556" d="M9.3 1.5l-1.5 1.5 0.7 0.7 0.7 0.7 0.9-0.9 0.9-0.9 0 7.8 0 7.8-0.4 0.1c-0.5 0.3-1 0.8-1.3 1.4-0.4 0.8-0.4 1.8 0.1 2.7 0.2 0.5 0.8 1 1.3 1.3 1.2 0.6 2.5 0.3 3.4-0.6 0.6-0.6 0.9-1.2 0.9-2.1 0-0.6-0.1-1-0.4-1.5-0.3-0.5-0.8-1-1.3-1.2l-0.3-0.1 0-7.8 0-7.8 0.9 0.9 0.9 0.9 0.7-0.7 0.7-0.7-1.5-1.5-1.5-1.5-1.2 0-1.2 0-1.5 1.5m2.3 18.6c-0.8 0.3-0.8 1.4 0 1.8 0.6 0.3 1.3-0.1 1.4-0.8 0.1-0.8-0.7-1.3-1.4-1" stroke="none" fill="black" fill-rule="evenodd"></path><path fill-opacity="0.957" d="M9.3 1.5l-1.5 1.5 0.7 0.7 0.7 0.7 0.9-0.9 0.9-0.9 0 7.8 0 7.8-0.2 0.1c-0.6 0.2-1.2 0.8-1.5 1.4-0.2 0.5-0.3 0.8-0.3 1.4 0 1.3 0.9 2.4 2.2 2.8 0.4 0.1 1.2 0.1 1.7 0 1.1-0.4 1.9-1.4 2-2.5 0.1-0.5 0-1-0.1-1.4-0.2-0.7-0.9-1.4-1.5-1.7l-0.3-0.1 0-7.8 0-7.8 0.9 0.9 0.9 0.9 0.7-0.7 0.7-0.7-1.5-1.5-1.5-1.5-1.2 0-1.2 0-1.5 1.5m2.2 18.6c-0.2 0.1-0.4 0.4-0.5 0.6 0 0.4 0 0.7 0.2 0.9 0.3 0.3 0.4 0.4 0.8 0.4 0.4 0 0.5-0.1 0.8-0.4 0.3-0.3 0.3-0.9 0-1.2-0.3-0.4-0.9-0.5-1.3-0.3" stroke="none" fill="black" fill-rule="evenodd"></path></svg>