<?xml version="1.0"?><svg xmlns="http://www.w3.org/2000/svg" width="24" height="24" viewBox="0 0 24 24" version="1.1"><rect x="0" y="0" width="24" height="24" fill="#00000000"></rect><path fill-opacity="0.294" d="M1.5 9.3l-1.5 1.5 0 1.2 0 1.3 1.5 1.4 1.5 1.5 0.7-0.7 0.7-0.7-0.9-0.9-0.9-0.9 8 0 8.1 0 1.6 1.6c0.9 0.9 1.7 1.6 1.7 1.6 0 0 0.5-0.5 1-1l1-1 0-2.2 0-2.2-1-1c-0.5-0.5-1-1-1-1 0 0-0.8 0.7-1.7 1.6l-1.6 1.6-8.1 0-8 0 0.9-0.9 0.9-0.9-0.7-0.7c-0.4-0.4-0.7-0.7-0.7-0.7 0 0-0.7 0.7-1.5 1.5m19.8 2l-0.7 0.7 0.7 0.7 0.7 0.7 0.7-0.7 0.7-0.7-0.7-0.7c-0.4-0.4-0.7-0.7-0.7-0.7 0 0-0.3 0.3-0.7 0.7m-21.3 0.7c0 0.7 0 1 0 0.7 0-0.4 0-1 0-1.4 0-0.3 0 0 0 0.7" stroke="none" fill="black" fill-rule="evenodd"></path><path fill-opacity="0.333" d="M1.5 9.3l-1.5 1.5 0 1.2 0 1.3 1.5 1.4 1.5 1.5 0.7-0.7 0.7-0.7-0.9-0.9-0.9-0.9 8.1 0 8.1 0 1.6 1.6 1.6 1.6 1-1 1-1 0-2.2 0-2.2-1-1-1-1-1.6 1.6-1.6 1.6-8.1 0-8.1 0 0.9-0.9 0.9-0.9-0.7-0.7c-0.4-0.4-0.7-0.7-0.7-0.7 0 0-0.7 0.7-1.5 1.5m19.8 2l-0.7 0.7 0.7 0.7 0.7 0.7 0.7-0.7 0.7-0.7-0.7-0.7c-0.4-0.4-0.7-0.7-0.7-0.7 0 0-0.3 0.3-0.7 0.7m-21.3 0.7c0 0.7 0 1 0 0.7 0-0.4 0-1 0-1.4 0-0.3 0 0 0 0.7" stroke="none" fill="black" fill-rule="evenodd"></path><path fill-opacity="0.950" d="M1.5 9.3l-1.5 1.5 0 1.2 0 1.2 1.5 1.5 1.5 1.5 0.7-0.7 0.7-0.7-0.9-0.9-0.9-0.9 8.1 0 8.1 0 1.6 1.6 1.6 1.6 1-1 1-1 0-2.2 0-2.2-1-1-1-1-1.6 1.6-1.6 1.6-8.1 0-8.1 0 0.9-0.9 0.9-0.9-0.7-0.7c-0.4-0.4-0.7-0.7-0.7-0.7 0 0-0.7 0.7-1.5 1.5m19.8 2l-0.7 0.7 0.7 0.7 0.7 0.7 0.7-0.7 0.7-0.7-0.7-0.7c-0.4-0.4-0.7-0.7-0.7-0.7 0 0-0.3 0.3-0.7 0.7m-21.3 0.7c0 0.7 0 1 0 0.6 0-0.3 0-0.9 0-1.2 0-0.4 0-0.1 0 0.6" stroke="none" fill="black" fill-rule="evenodd"></path><path fill-opacity="0.833" d="M20.4 9.4l-1.6 1.6-8.1 0-8.2 0 0.9-0.9 1-0.9-0.7-0.7c-0.4-0.4-0.7-0.7-0.7-0.6 0 0-0.7 0.6-1.5 1.4l-1.5 1.5 0 1.2 0 1.2 1.5 1.5c0.8 0.8 1.5 1.4 1.5 1.4 0 0.1 0.3-0.2 0.7-0.6l0.7-0.7-1-0.9-0.9-0.9 8.2 0 8.1 0 1.6 1.6 1.6 1.6 1-1 1-1.1 0-2.1 0-2.1-1-1.1-1-1-1.6 1.6m0.9 1.9l-0.8 0.7 0.8 0.7 0.7 0.8 0.7-0.8 0.8-0.7-0.8-0.7c-0.3-0.4-0.7-0.7-0.7-0.7 0 0-0.4 0.3-0.7 0.7m-21.3 0.7c0 0.7 0 1 0 0.6 0-0.3 0-0.9 0-1.2 0-0.4 0-0.1 0 0.6" stroke="none" fill="black" fill-rule="evenodd"></path></svg>