<?xml version="1.0"?><svg xmlns="http://www.w3.org/2000/svg" width="24" height="24" viewBox="0 0 24 24" version="1.1"><rect x="0" y="0" width="24" height="24" fill="#00000000"></rect><path fill-opacity="0.306" d="M4 7l0 3 1 0 1 0 0-2 0-2 2 0 2 0 0-1 0-1-3 0-3 0 0 3m10-2l0 1 2 0 2 0 0 2 0 2 1 0 1 0 0-3 0-3-3 0-3 0 0 1m-2.8 4.1c-1.3 0.3-2.2 1.5-2.2 2.9 0 1.7 1.3 3 3 3 2.2 0 3.7-2.3 2.7-4.3-0.6-1.3-2.1-2-3.5-1.6m-7.2 7.9l0 3 3 0 3 0 0-1 0-1-2 0-2 0 0-2 0-2-1 0-1 0 0 3m14-1l0 2-2 0-2 0 0 1 0 1 3 0 3 0 0-3 0-3-1 0-1 0 0 2" stroke="none" fill="black" fill-rule="evenodd"></path><path fill-opacity="0.542" d="M4 7l0 3 1 0 1 0 0-2 0-2 2 0 2 0 0-1 0-1-3 0-3 0 0 3m10-2l0 1 2 0 2 0 0 2 0 2 1 0 1 0 0-3 0-3-3 0-3 0 0 1m-2.6 4.1c-1.2 0.2-2.1 1.2-2.3 2.3-0.2 0.9 0 1.9 0.7 2.6 0.4 0.4 0.7 0.6 1.2 0.8 0.3 0.2 0.5 0.2 1 0.2 0.5 0 0.7 0 1-0.2 0.5-0.2 0.8-0.4 1.2-0.8 1.1-1.1 1.1-2.9-0.1-4.1-0.7-0.7-1.7-1-2.7-0.8m-7.4 7.9l0 3 3 0 3 0 0-1 0-1-2 0-2 0 0-2 0-2-1 0-1 0 0 3m14-1l0 2-2 0-2 0 0 1 0 1 3 0 3 0 0-3 0-3-1 0-1 0 0 2" stroke="none" fill="black" fill-rule="evenodd"></path><path fill-opacity="0.519" d="M4 7l0 3 1 0 1 0 0-2 0-2 2 0 2 0 0-1 0-1-3 0-3 0 0 3m10-2l0 1 2 0 2 0 0 2 0 2 1 0 1 0 0-3 0-3-3 0-3 0 0 1m-2.6 4.1c-1.1 0.2-1.9 1-2.2 2-0.1 0.3-0.2 0.5-0.2 0.9 0 0.5 0.1 0.6 0.2 1 0.3 0.9 1 1.5 1.9 1.9 0.3 0 0.4 0.1 0.9 0.1 0.5 0 0.6-0.1 0.9-0.1 0.9-0.4 1.6-1 1.9-1.9 0.1-0.4 0.2-0.5 0.2-1 0-0.5-0.1-0.6-0.2-1-0.1-0.2-0.2-0.5-0.3-0.7-0.4-0.6-1.2-1.1-1.9-1.2-0.5-0.1-0.8-0.1-1.2 0m-7.4 7.9l0 3 3 0 3 0 0-1 0-1-2 0-2 0 0-2 0-2-1 0-1 0 0 3m14-1l0 2-2 0-2 0 0 1 0 1 3 0 3 0 0-3 0-3-1 0-1 0 0 2" stroke="none" fill="black" fill-rule="evenodd"></path><path fill-opacity="0.974" d="M4 7l0 3 1 0 1 0 0-2 0-2 2 0 2 0 0-1 0-1-3 0-3 0 0 3m10-2l0 1 2 0 2 0 0 2 0 2 1 0 1 0 0-3 0-3-3 0-3 0 0 1m-2.4 4.1c-1.2 0.1-2.2 1-2.5 2.1-0.1 0.4-0.1 1.2 0 1.6 0.3 1 1.1 1.8 2.1 2.1 0.2 0 0.5 0.1 0.8 0.1 0.3 0 0.6-0.1 0.8-0.1 1-0.3 1.8-1.1 2.1-2.1 0.1-0.5 0.1-1.2 0-1.6-0.4-1.4-1.9-2.4-3.3-2.1m-7.6 7.9l0 3 3 0 3 0 0-1 0-1-2 0-2 0 0-2 0-2-1 0-1 0 0 3m14-1l0 2-2 0-2 0 0 1 0 1 3 0 3 0 0-3 0-3-1 0-1 0 0 2" stroke="none" fill="black" fill-rule="evenodd"></path></svg>