<?xml version="1.0"?><svg xmlns="http://www.w3.org/2000/svg" width="24" height="24" viewBox="0 0 24 24" version="1.1"><rect x="0" y="0" width="24" height="24" fill="#00000000"></rect><path fill-opacity="0.412" d="M2.5 7.5l-2.5 2.4 0 2.1 0 2.1 2.5 2.4 2.4 2.5 6.2 0c6.7 0 6.4 0 6.9-0.3 0.3-0.2 0.7-0.6 0.9-0.9l0.1-0.3 0-5.5 0-5.5-0.1-0.3c-0.2-0.3-0.6-0.8-0.9-1-0.5-0.2-0.4-0.2-6.9-0.2l-6.2 0-2.4 2.5m0.8 2l-2.5 2.5 2.5 2.5 2.5 2.5 5.6 0 5.6 0 0-5 0-5-5.6 0-5.6 0-2.5 2.5m4.9-0.3l-0.7 0.7 1 1 1.1 1.1-1.1 1.1-1 1 0.7 0.7 0.7 0.7 1-1 1.1-1.1 1.1 1.1 1 1 0.7-0.7 0.7-0.7-1-1-1.1-1.1 1.1-1.1 1-1-0.7-0.7-0.7-0.7-1 1-1.1 1.1-1.1-1.1-1-1-0.7 0.7" stroke="none" fill="black" fill-rule="evenodd"></path><path fill-opacity="0.460" d="M2.5 7.5l-2.5 2.4 0 2.1 0 2.1 2.5 2.4 2.4 2.5 6.2 0c6.8 0 6.4 0 7-0.3 0.3-0.2 0.5-0.5 0.7-0.9l0.2-0.3 0-5.5 0-5.5-0.2-0.3c-0.2-0.4-0.5-0.7-0.8-0.9-0.5-0.3-0.2-0.3-6.9-0.3l-6.2 0-2.4 2.5m0.7 2l-2.5 2.5 2.5 2.5 2.5 2.5 5.7 0 5.6 0 0-5 0-5-5.6 0-5.7 0-2.5 2.5m5-0.3c-0.4 0.3-0.7 0.6-0.7 0.7 0 0 0.5 0.5 1 1.1l1.1 1-1.1 1c-0.5 0.6-1 1.1-1 1.1 0 0.1 1.3 1.4 1.4 1.4 0 0 0.5-0.5 1.1-1l1-1.1 1 1.1c0.6 0.5 1.1 1 1.1 1 0.1 0 1.4-1.3 1.4-1.4 0 0-0.5-0.5-1-1.1l-1.1-1 1.1-1c0.5-0.6 1-1.1 1-1.1 0-0.1-1.3-1.4-1.4-1.4 0 0-0.5 0.5-1.1 1l-1 1.1-1-1.1c-0.6-0.5-1.1-1-1.1-1-0.1 0-0.4 0.3-0.7 0.7" stroke="none" fill="black" fill-rule="evenodd"></path><path fill-opacity="0.308" d="M2.5 7.5l-2.5 2.4 0 2.1 0 2.1 2.5 2.4 2.4 2.5 6.1 0c4.3 0 6.2 0 6.4-0.1 0.6-0.1 1.1-0.5 1.3-0.9 0.3-0.5 0.3-0.4 0.3-6 0-5.5 0-5.5-0.2-5.9-0.3-0.5-0.8-0.9-1.4-1-0.2-0.1-2.2-0.1-6.4-0.1l-6.1 0-2.4 2.5m0.7 2l-2.5 2.5 2.5 2.5 2.5 2.5 5.7 0 5.6 0 0-5 0-5-5.6 0-5.7 0-2.5 2.5m5-0.3l-0.7 0.7 1.1 1 1 1.1-1 1.1-1.1 1 0.7 0.7 0.7 0.7 1-1 1.1-1.1 1 1.1 1.1 1 0.7-0.7 0.7-0.7-1.1-1-1-1.1 1-1.1 1.1-1-0.7-0.7-0.7-0.7-1.1 1-1 1.1-1-1.1c-0.6-0.5-1.1-1-1.1-1 0 0-0.3 0.3-0.7 0.7" stroke="none" fill="black" fill-rule="evenodd"></path><path fill-opacity="0.964" d="M2.5 7.5l-2.5 2.5 0 2 0 2 2.5 2.5 2.5 2.5 6.2 0c5.8 0 6.2 0 6.5-0.1 0.5-0.2 1-0.7 1.2-1.3 0.1-0.2 0.1-0.6 0.1-5.6l0-5.4-0.1-0.3c-0.3-0.5-0.7-0.9-1.2-1.2l-0.3-0.1-6.2 0-6.2 0-2.5 2.5m0.7 2l-2.5 2.5 2.5 2.5 2.5 2.5 5.7 0 5.6 0 0-5 0-5-5.6 0-5.7 0-2.5 2.5m5-0.3l-0.7 0.7 1.1 1 1 1.1-1 1.1-1.1 1 0.7 0.7 0.7 0.7 1-1.1 1.1-1 1.1 1 1 1.1 0.7-0.7 0.7-0.7-1.1-1-1-1.1 1-1.1 1.1-1-0.7-0.7-0.7-0.7-1 1.1-1.1 1-1.1-1-1-1.1-0.7 0.7" stroke="none" fill="black" fill-rule="evenodd"></path></svg>