<?xml version="1.0"?><svg xmlns="http://www.w3.org/2000/svg" width="24" height="24" viewBox="0 0 24 24" version="1.1"><rect x="0" y="0" width="24" height="24" fill="#00000000"></rect><path fill-opacity="0.435" d="M11.4 3.1c-0.8 0.3-1.4 1-1.4 1.9l0 0.3-0.4 0.1c-2.2 0.8-3.8 2.7-4.4 4.9-0.2 0.8-0.2 1.1-0.2 5l0 3.7-0.5 0-0.5 0 0 1 0 1 8 0 8 0 0-1 0-1-0.5 0-0.5 0 0-4c0-4.4 0-4.1-0.4-5.2-0.6-2-2.3-3.7-4.2-4.4l-0.4-0.1 0-0.4c0-0.6-0.4-1.3-1-1.6-0.4-0.3-1.1-0.4-1.6-0.2m0 4c-2.3 0.2-4.1 2-4.3 4.3-0.1 0.3-0.1 1.9-0.1 4l0 3.6 5 0 5 0 0-3.6c0-2.1 0-3.7-0.1-4-0.2-2-1.6-3.6-3.5-4.2-0.7-0.2-1.3-0.2-2-0.1m-1.4 15.6c0 0.7 0 0.8 0.1 1l0.2 0.3 1.7 0 1.7 0 0.2-0.3c0.1-0.2 0.1-0.3 0.1-1l0-0.7-2 0-2 0 0 0.7" stroke="none" fill="black" fill-rule="evenodd"></path><path fill-opacity="0.230" d="M11.5 3.1c-0.9 0.2-1.5 1-1.5 2l0 0.2-0.3 0.1c-1.1 0.4-1.8 0.9-2.6 1.6-1.1 1.1-1.8 2.5-2 4.1-0.1 0.4-0.1 1.3-0.1 4.2l0 3.7-0.5 0-0.5 0 0 1 0 1 8 0 8 0 0-1 0-1-0.5 0-0.5 0 0-3.7c0-4 0-4.3-0.3-5.2-0.3-1.2-0.9-2.2-1.8-3.1-0.8-0.7-1.5-1.2-2.6-1.6l-0.3-0.1 0-0.4c0-0.4-0.2-0.8-0.5-1.2-0.2-0.2-0.6-0.5-0.9-0.6-0.3-0.1-0.8-0.1-1.1 0m-0.3 4c-1.1 0.2-2 0.6-2.7 1.3-0.8 0.8-1.2 1.7-1.4 2.8-0.1 0.3-0.1 1-0.1 4.1l0 3.7 5 0 5 0 0-3.7c0-4 0-4.1-0.3-4.9-0.4-1.3-1.4-2.4-2.7-3-0.8-0.3-2-0.5-2.8-0.3m-1.2 15.5c0 0.6 0 0.9 0.2 1.2l0.1 0.2 1.7 0 1.7 0 0.2-0.3c0-0.2 0.1-0.4 0.1-1l0-0.7-2 0-2 0 0 0.6" stroke="none" fill="black" fill-rule="evenodd"></path><path fill-opacity="0.441" d="M11.6 3.1c-0.6 0.1-1.1 0.5-1.4 1-0.1 0.2-0.1 0.5-0.2 0.8l0 0.4-0.5 0.2c-2.5 0.9-4.2 3.1-4.4 5.8-0.1 0.3-0.1 2-0.1 4.1l0 3.6-0.5 0-0.5 0 0 1 0 1 8 0 8 0 0-1 0-1-0.5 0-0.5 0 0-3.9c0-3.4 0-4-0.1-4.3-0.5-2.5-2.1-4.5-4.4-5.3l-0.5-0.2 0-0.4c-0.1-0.6-0.3-0.9-0.6-1.3-0.5-0.5-1.1-0.7-1.8-0.5m-0.6 4c-0.8 0.2-1.3 0.4-1.9 0.8-0.9 0.7-1.6 1.7-1.9 2.8l-0.2 0.5 0 3.9 0 3.9 5 0 5 0 0-3.9 0-3.9-0.2-0.5c-0.4-1.5-1.4-2.6-2.7-3.2-0.9-0.5-2.2-0.6-3.1-0.4m-1 15.6c0 0.6 0.1 0.8 0.1 1l0.2 0.3 1.7 0 1.7 0 0.2-0.3c0-0.2 0.1-0.4 0.1-1l0-0.7-2 0-2 0 0 0.7" stroke="none" fill="black" fill-rule="evenodd"></path><path fill-opacity="0.968" d="M11.7 3.1c-0.9 0.1-1.5 0.8-1.7 1.8l0 0.4-0.5 0.2c-2.2 0.8-3.8 2.7-4.3 4.9-0.2 0.8-0.2 1.5-0.2 5.1l0 3.5-0.5 0-0.5 0 0 1 0 1 8 0 8 0 0-1 0-1-0.5 0-0.5 0 0-3.5c0-3.6 0-4.3-0.2-5.1-0.5-2.2-2.1-4.1-4.3-4.9l-0.5-0.2 0-0.4c-0.1-0.8-0.5-1.3-1-1.6-0.4-0.2-0.9-0.3-1.3-0.2m-0.6 4c-1 0.2-1.8 0.6-2.5 1.2-0.7 0.7-1.1 1.4-1.5 2.5-0.1 0.3-0.1 0.4-0.1 4.3l0 3.9 5 0 5 0 0-3.9 0-4-0.2-0.4c-0.1-0.5-0.5-1.3-0.7-1.6-1-1.4-2.5-2.1-4.1-2.1-0.3 0-0.7 0-0.9 0.1m-1.1 15.6c0 0.7 0.1 1 0.2 1.2l0.1 0.1 1.7 0 1.7 0 0.1-0.1c0.1-0.3 0.2-0.6 0.2-1.2l0-0.7-2 0-2 0 0 0.7" stroke="none" fill="black" fill-rule="evenodd"></path></svg>