<?xml version="1.0"?><svg xmlns="http://www.w3.org/2000/svg" width="24" height="24" viewBox="0 0 24 24" version="1.1"><rect x="0" y="0" width="24" height="24" fill="#00000000"></rect><path fill-opacity="0.380" d="M11.2 4c-1.2 0.2-1.9 0.4-2.8 0.9-2.7 1.3-4.4 4.1-4.4 7.1 0 2.5 1.2 4.9 3.2 6.4 2.9 2.1 6.8 2.1 9.6 0 4-3 4.3-9.1 0.5-12.4-1.1-0.9-2.5-1.6-3.9-1.9-0.4-0.1-1.9-0.1-2.2-0.1m0.1 2.1c-2.3 0.2-4.3 1.9-5 4-0.2 0.7-0.3 1.1-0.3 1.9 0 1 0.2 1.8 0.7 2.7 0.6 1.2 1.5 2.1 2.7 2.7 1.7 0.8 3.5 0.8 5.2 0 1.8-0.9 2.9-2.4 3.3-4.3 0.1-0.5 0.1-1.6 0-2.1-0.4-2.3-2-4-4.1-4.7-0.8-0.2-1.7-0.3-2.5-0.2m3.3 2.1c-0.1 0-0.2 0.1-0.3 0.1-0.1 0.1-1.5 1.4-3.1 3.1-2.7 2.7-2.9 2.9-3 3.2-0.1 0.5 0.2 1 0.7 1.2 0.6 0.2 0.5 0.2 3.8-3.1 1.6-1.6 2.9-3 3-3 0.2-0.5 0.2-0.8-0.1-1.2-0.3-0.3-0.7-0.4-1-0.3" stroke="none" fill="black" fill-rule="evenodd"></path><path fill-opacity="0.424" d="M11.4 4c-0.1 0-0.4 0.1-0.6 0.1-0.6 0.1-1.5 0.3-2 0.6-1.8 0.8-3.3 2.2-4 3.9-1.7 3.6-0.5 7.9 2.8 10.1 2.6 1.7 6.2 1.7 8.8 0 2.5-1.7 3.9-4.7 3.5-7.7-0.3-2.8-2.1-5.1-4.6-6.3-0.7-0.3-1.4-0.5-2-0.6-0.4-0.1-1.7-0.1-1.9-0.1m-0.2 2.1c-2.3 0.3-4.1 1.8-4.9 4-0.2 0.6-0.3 1.1-0.3 1.9 0 1.4 0.4 2.6 1.2 3.6 1.3 1.7 3.6 2.7 5.7 2.3 2.6-0.4 4.6-2.4 5-5 0.4-2.7-1-5.3-3.6-6.4-0.7-0.3-1.3-0.5-2.1-0.5-0.4 0-0.9 0-1 0.1m3.2 2.2c-0.3 0.1-6 5.8-6.1 6.1-0.2 0.3-0.1 0.8 0.1 1.1 0.3 0.3 0.9 0.4 1.3 0.2 0.1-0.1 1.5-1.4 3.1-3 2.1-2.1 2.9-3 2.9-3.1 0.2-0.4 0.1-0.9-0.2-1.2-0.3-0.2-0.8-0.3-1.1-0.1" stroke="none" fill="black" fill-rule="evenodd"></path><path fill-opacity="0.253" d="M11.2 4.1c-1.8 0.1-3.6 1-4.8 2.2-2.8 2.8-3.2 7.2-0.9 10.4 1.6 2.2 4.4 3.5 7.1 3.3 2-0.2 3.7-1 5.1-2.4 3.1-3.1 3-8.1 0-11.2-0.9-0.9-2-1.6-3.2-2-1-0.3-2.2-0.5-3.3-0.3m-0.1 2c-1.3 0.2-2.6 0.8-3.5 1.8-2.7 2.9-1.9 7.6 1.6 9.4 1 0.5 1.7 0.7 2.8 0.7 1.1 0 1.8-0.2 2.8-0.7 3.3-1.8 4.2-5.9 2-8.9-0.9-1.2-2.1-1.9-3.5-2.3-0.4-0.1-1.7-0.1-2.2 0m3.3 2.2c-0.2 0.1-5.8 5.6-6 6-0.3 0.4-0.2 1.1 0.2 1.3 0.3 0.2 0.7 0.3 1 0.1 0.2-0.1 1.1-1 3.2-3 2.3-2.4 2.9-3 2.9-3.2 0.1-0.3 0.1-0.7-0.1-0.9-0.2-0.4-0.8-0.5-1.2-0.3" stroke="none" fill="black" fill-rule="evenodd"></path><path fill-opacity="0.971" d="M11.6 4c-2 0.2-3.7 0.9-5.1 2.3-3 2.8-3.3 7.4-0.8 10.6 1 1.3 2.4 2.2 3.9 2.7 1.1 0.4 2.6 0.5 3.8 0.3 2.9-0.6 5.3-2.6 6.2-5.5 0.5-1.5 0.5-3.3 0-4.8-0.8-2.7-3-4.7-5.7-5.3-0.6-0.2-1.7-0.3-2.3-0.3m-0.6 2.1c-0.5 0.1-0.9 0.2-1.4 0.4-1.6 0.7-2.9 2.2-3.4 3.8-0.3 1.3-0.3 2.8 0.2 4 0.3 0.7 0.7 1.2 1.3 1.9 0.8 0.8 1.7 1.3 3.1 1.7 0.4 0.1 2 0.1 2.5 0 1.2-0.4 2-0.8 2.8-1.6 0.7-0.6 1.1-1.2 1.5-2.1 0.5-1.2 0.5-2.6 0.2-3.9-0.5-1.6-1.8-3.1-3.4-3.8-0.8-0.4-1.3-0.5-2.2-0.5-0.6 0-1 0-1.2 0.1m3.4 2.2c-0.2 0.1-6.1 6-6.1 6.2-0.1 0.2-0.1 0.6 0.1 0.9 0.2 0.4 0.8 0.5 1.2 0.3 0.1-0.1 1.4-1.3 3.1-3.1 2.4-2.3 3-3 3.1-3.1 0.1-0.4-0.1-0.9-0.4-1.1-0.3-0.2-0.7-0.2-1-0.1" stroke="none" fill="black" fill-rule="evenodd"></path></svg>