<?xml version="1.0"?><svg xmlns="http://www.w3.org/2000/svg" width="24" height="24" viewBox="0 0 24 24" version="1.1"><rect x="0" y="0" width="24" height="24" fill="#00000000"></rect><path fill-opacity="0.451" d="M11 3c-2.4 0.4-4 1.2-5.5 2.8-0.7 0.7-1.1 1.3-1.5 2.2-0.7 1.3-1 2.6-1 4 0 3.1 1.5 5.8 4.1 7.5 2 1.3 4.5 1.8 6.8 1.3 1.1-0.2 2.4-0.8 3.3-1.4 0.6-0.5 1.7-1.6 2.2-2.2 0.1-0.3 0.5-0.8 0.6-1.2 0.7-1.3 1-2.6 1-3.9 0-4.6-3.3-8.4-7.8-9-0.5-0.1-1.9-0.1-2.2-0.1m1 5.5l0 3.5-3.5 0-3.5 0 0 0.4c0.2 1.8 0.8 3.3 2.1 4.5 0.9 1 2.1 1.6 3.4 1.9 0.2 0.1 1.2 0.2 1.4 0.2 0.1 0 0.1-0.1 0.1-3.5l0-3.5 3.5 0 3.5 0 0-0.4c-0.1-1.3-0.5-2.5-1.2-3.5-0.4-0.6-1.3-1.5-1.9-1.9-0.7-0.5-1.5-0.8-2.3-1-0.4-0.1-1.2-0.2-1.5-0.2-0.1 0-0.1 0-0.1 3.5" stroke="none" fill="black" fill-rule="evenodd"></path><path fill-opacity="0.250" d="M10.7 3.1c-2.2 0.4-3.8 1.2-5.2 2.7-2.4 2.5-3.1 5.9-2 9.1 0.3 0.8 0.7 1.7 1.2 2.3 0.4 0.7 1.4 1.7 2.1 2.1 1.1 0.8 2.5 1.4 3.9 1.6 0.6 0.1 2.1 0.1 2.6 0 2.1-0.3 3.8-1.3 5.2-2.7 2.4-2.5 3.1-6 2-9.2-1.1-3.1-3.8-5.3-7.2-5.9-0.2 0-0.7-0.1-1.2-0.1-0.7 0-1 0-1.4 0.1m1.3 5.4l0 3.5-3.5 0-3.5 0 0 0.2c0 0.4 0.2 1.3 0.3 1.7 0.6 2.3 2.5 4.2 4.8 4.8 0.5 0.2 1.2 0.3 1.6 0.3l0.3 0 0-3.5 0-3.5 3.5 0 3.5 0 0-0.2c0-0.7-0.2-1.8-0.6-2.5-0.5-1.2-1.3-2.3-2.4-3-1-0.7-2.3-1.2-3.5-1.3l-0.5 0 0 3.5" stroke="none" fill="black" fill-rule="evenodd"></path><path fill-opacity="0.410" d="M11 3.1c-0.5 0-1.3 0.2-1.8 0.4-0.7 0.2-1.9 0.8-2.4 1.2-3 2.2-4.4 5.9-3.5 9.5 0.9 3.5 3.8 6.2 7.5 6.7 0.7 0.1 2.1 0.1 2.8 0 2-0.4 3.8-1.4 5.2-3 2.3-2.6 2.8-6.5 1.3-9.8-1-2.1-2.9-3.8-5.2-4.6-1.2-0.4-2.7-0.6-3.9-0.4m1 5.4l0 3.5-3.5 0-3.5 0 0 0.5c0.1 0.9 0.4 1.9 0.8 2.7 1.1 2.2 3.4 3.7 5.7 3.8l0.5 0 0-3.5 0-3.5 3.5 0 3.5 0 0-0.5c-0.2-2.7-2-5.1-4.6-6.1-0.5-0.2-1.6-0.4-2.1-0.4l-0.3 0 0 3.5" stroke="none" fill="black" fill-rule="evenodd"></path><path fill-opacity="0.968" d="M11.2 3.1c-1.2 0.1-2.5 0.4-3.6 1.1-2.4 1.3-4.1 3.8-4.5 6.6-0.1 0.6-0.1 1.9 0 2.5 0.4 2.3 1.6 4.4 3.4 5.8 2.4 1.8 5.5 2.4 8.4 1.4 1.3-0.4 2.4-1.1 3.5-2.1 2-2.1 2.9-5 2.4-8-0.4-2.4-1.8-4.6-3.9-5.9-1.2-0.8-2.8-1.3-4.3-1.5-0.7 0-0.9 0-1.4 0.1m0.8 5.4l0 3.5-3.5 0-3.5 0 0 0.5c0.2 2.8 2.2 5.3 4.9 6.2 0.6 0.2 1.3 0.3 1.8 0.3l0.3 0 0-3.5 0-3.5 3.5 0 3.5 0 0-0.5c-0.1-1.5-0.7-2.9-1.7-4.1-1.2-1.4-3-2.3-4.8-2.4l-0.5 0 0 3.5" stroke="none" fill="black" fill-rule="evenodd"></path></svg>