<?xml version="1.0"?><svg xmlns="http://www.w3.org/2000/svg" width="24" height="24" viewBox="0 0 24 24" version="1.1"><rect x="0" y="0" width="24" height="24" fill="#00000000"></rect><path fill-opacity="0.298" d="M11 6.5c-2.2 2.3-4.2 4.3-4.3 4.4l-0.3 0.3 2.4 1.4c1.3 0.7 2.3 1.4 2.4 1.4 0 0-0.5 1.7-1.1 3.8-0.6 2.2-1.1 3.9-1.1 3.9 0 0 7.8-8 8.3-8.6l0.3-0.3-2.3-1.3c-1.3-0.8-2.4-1.4-2.4-1.4-0.1-0.1 0.1-0.8 1-3.9 0.6-2.1 1.1-3.8 1.1-3.8 0 0-1.8 1.8-4 4.1" stroke="none" fill="black" fill-rule="evenodd"></path><path fill-opacity="0.374" d="M11.2 6.3c-2.1 2.1-4 4.1-4.3 4.4l-0.5 0.5 2.4 1.4c1.3 0.8 2.4 1.4 2.4 1.4 0 0-1.5 5.4-2.1 7.5l-0.1 0.2 0.3-0.3c0.2-0.2 2-2 4-4.1 2-2.1 3.8-3.9 4-4.1l0.3-0.4-2.4-1.3c-1.3-0.8-2.4-1.4-2.4-1.5 0 0 1.5-5.4 2.1-7.4 0.1-0.1 0.1-0.2 0.1-0.2 0 0-1.7 1.7-3.8 3.9" stroke="none" fill="black" fill-rule="evenodd"></path><path fill-opacity="0.652" d="M10.7 6.8c-2.3 2.4-4.2 4.4-4.2 4.4 0 0 4.5 2.7 4.7 2.8 0 0-0.5 1.7-1.1 3.8-0.6 2.1-1.1 3.8-1 3.8 0 0 8.4-8.7 8.4-8.8 0 0-4.5-2.6-4.7-2.7 0 0 0.5-1.7 1.1-3.8 0.6-2.1 1.1-3.9 1-3.9 0 0-1.9 2-4.2 4.4" stroke="none" fill="black" fill-rule="evenodd"></path><path fill-opacity="0.949" d="M10.7 6.8c-2.3 2.4-4.2 4.4-4.2 4.4 0 0 1 0.7 2.3 1.4 1.5 0.9 2.4 1.4 2.4 1.5 0 0-0.5 1.7-1.1 3.8-0.6 2-1 3.7-1 3.7 0 0 8.5-8.7 8.5-8.8 0 0-1.1-0.6-2.4-1.4-1.3-0.7-2.4-1.4-2.4-1.4 0 0 2-7.3 2.1-7.5 0 0 0 0 0 0 0 0-1.9 1.9-4.2 4.3" stroke="none" fill="black" fill-rule="evenodd"></path></svg>