<?xml version="1.0"?><svg xmlns="http://www.w3.org/2000/svg" width="24" height="24" viewBox="0 0 24 24" version="1.1"><rect x="0" y="0" width="24" height="24" fill="#00000000"></rect><path fill-opacity="0.357" d="M7.2 4.1c-0.8 0.2-1.5 0.8-1.9 1.6-0.3 0.6-0.3 0.3-0.3 7.6l0 6.7 1.2 0 1.2 0 2-2c1.1-1.2 2.1-2.1 2.2-2.1 0.2-0.1 0.6-0.1 0.8 0 0.1 0 1.1 0.9 2.2 2.1l2 2 1.2 0 1.2 0 0-6.7c0-7.3 0-7-0.3-7.6-0.4-0.8-1.1-1.4-1.9-1.6-0.4-0.1-0.6-0.1-4.8-0.1-4.2 0-4.4 0-4.8 0.1m0.6 1.9c-0.3 0.1-0.5 0.3-0.7 0.5l-0.1 0.2 0 5.4 0 5.4 1.6-1.6c1.6-1.5 1.7-1.7 2.1-1.8 0.4-0.2 0.9-0.3 1.3-0.3 0.4 0 0.9 0.1 1.4 0.3 0.3 0.1 0.4 0.3 2 1.8l1.6 1.6 0-5.4 0-5.4-0.1-0.2c-0.2-0.2-0.4-0.4-0.7-0.5-0.2 0-8.2 0-8.4 0" stroke="none" fill="black" fill-rule="evenodd"></path><path fill-opacity="0.152" d="M7.4 4.1c-1.1 0.2-1.8 0.9-2.3 2-0.1 0.3-0.1 0.3-0.1 7.1l0 6.8 1.2 0 1.1 0 2-2c1.4-1.4 2.1-2.1 2.3-2.1 0.1-0.1 0.3-0.1 0.4-0.1 0.1 0 0.3 0 0.4 0.1 0.2 0 0.9 0.7 2.3 2.1l2 2 1.1 0 1.2 0 0-6.8c0-6.8 0-6.8-0.1-7.1-0.5-1.1-1.2-1.8-2.3-2-0.4-0.1-8.8-0.1-9.2 0m0.3 1.9c-0.2 0.1-0.4 0.3-0.5 0.5l-0.2 0.2 0 5.4 0 5.4 1.6-1.6c1.6-1.5 1.7-1.6 2.1-1.8 0.2-0.2 0.5-0.2 0.8-0.3 0.5-0.1 0.5-0.1 1 0 0.3 0.1 0.6 0.1 0.8 0.3 0.4 0.2 0.5 0.3 2.1 1.8l1.6 1.6 0-5.4 0-5.4-0.2-0.2c0-0.2-0.2-0.3-0.3-0.4l-0.2-0.1-4.2 0c-2.3 0-4.3 0-4.4 0" stroke="none" fill="black" fill-rule="evenodd"></path><path fill-opacity="0.381" d="M7.4 4.1c-1.2 0.2-2.1 1.2-2.3 2.3-0.1 0.3-0.1 1.3-0.1 7l0 6.6 1.2 0 1.1 0 2-2c1.1-1.1 2.1-2 2.2-2.1 0.2-0.1 0.3-0.1 0.5-0.1 0.2 0 0.3 0 0.5 0.1 0.1 0.1 1.1 1 2.2 2.1l2 2 1.1 0 1.2 0 0-6.6c0-7.4 0-7.1-0.3-7.7-0.4-0.9-1.2-1.4-2.1-1.6-0.5-0.1-8.7-0.1-9.2 0m0.2 2c-0.2 0.1-0.4 0.2-0.5 0.5-0.1 0.2-0.1 0.4-0.1 5.5l0 5.4 1.6-1.6c1.8-1.7 1.9-1.8 2.7-2 0.4-0.1 1-0.1 1.4 0 0.8 0.2 0.9 0.3 2.7 2l1.6 1.6 0-5.4c0-5.1 0-5.3-0.1-5.5-0.1-0.3-0.3-0.5-0.6-0.5-0.1-0.1-1.6-0.1-4.3-0.1-3.4 0-4.2 0-4.4 0.1" stroke="none" fill="black" fill-rule="evenodd"></path><path fill-opacity="0.977" d="M7.5 4.1c-0.7 0.1-1.3 0.4-1.7 0.9-0.3 0.3-0.5 0.6-0.6 1.1l-0.2 0.4 0 6.7 0 6.8 1.2 0 1.1 0 2.1-2.1c2.2-2.1 2.2-2.1 2.6-2.1 0.4 0 0.4 0 2.6 2.1l2.1 2.1 1.1 0 1.2 0 0-6.5c0-4.1 0-6.7-0.1-6.9-0.1-1-0.7-1.8-1.5-2.2-0.7-0.4-0.5-0.4-5.2-0.4-3.4 0-4.4 0-4.7 0.1m0.1 2c-0.3 0.1-0.4 0.3-0.5 0.5-0.1 0.2-0.1 0.8-0.1 5.6l0 5.3 1.6-1.6c1-1 1.7-1.6 1.9-1.7 0.9-0.6 2.1-0.6 3 0 0.2 0.1 0.9 0.7 1.9 1.7l1.6 1.6 0-5.3c0-4.8 0-5.4-0.1-5.6-0.1-0.2-0.2-0.4-0.5-0.5-0.2-0.1-0.4-0.1-4.4-0.1-4 0-4.2 0-4.4 0.1" stroke="none" fill="black" fill-rule="evenodd"></path></svg>