<?xml version="1.0"?><svg xmlns="http://www.w3.org/2000/svg" width="24" height="24" viewBox="0 0 24 24" version="1.1"><rect x="0" y="0" width="24" height="24" fill="#00000000"></rect><path fill-opacity="0.298" d="M5 6.5l0 1.5 7 0 7 0 0-1.5 0-1.5-7 0-7 0 0 1.5m0 8.5l0 5 7 0 7 0 0-5 0-5-1.5 0-1.5 0 0 3.5 0 3.5-4 0-4 0 0-3.5 0-3.5-1.5 0-1.5 0 0 5" stroke="none" fill="black" fill-rule="evenodd"></path><path fill-opacity="1.000" d="M5 6.5l0 1.5 7 0 7 0 0-1.5 0-1.5-7 0-7 0 0 1.5" stroke="none" fill="black" fill-rule="evenodd"></path></svg>