<?xml version="1.0"?><svg xmlns="http://www.w3.org/2000/svg" width="24" height="24" viewBox="0 0 24 24" version="1.1"><rect x="0" y="0" width="24" height="24" fill="#00000000"></rect><path fill-opacity="0.502" d="M0 11.5l0 1.1 12-0.1 12 0 0-1 0.1-1-12.1 0-12 0 0 1m0 0c0 0.6 0 0.8 0 0.5 0-0.3 0-0.7 0-1 0-0.3 0-0.1 0 0.5" stroke="none" fill="black" fill-rule="evenodd"></path><path fill-opacity="1.000" d="M0 11.5l0 1 12 0 12 0 0-1 0.1-1-12.1 0-12 0.1 0 0.9m0 0c0 0.6 0 0.8 0 0.5 0-0.2 0-0.7 0-1 0-0.2 0 0 0 0.5" stroke="none" fill="black" fill-rule="evenodd"></path></svg>