<?xml version="1.0"?><svg xmlns="http://www.w3.org/2000/svg" width="24" height="24" viewBox="0 0 24 24" version="1.1"><rect x="0" y="0" width="24" height="24" fill="#00000000"></rect><path fill-opacity="1.000" d="M0 11.5l0 1 0.5 0 0.5 0 0-1 0-0.9-0.5 0-0.5 0 0 0.9m3 0l0 1 1 0 1 0 0-1 0-0.9-1 0-1 0 0 0.9m4 0l0 1 1 0 1 0 0-1 0-0.9-1 0-1 0 0 0.9m4 0l0 1 1 0 1 0 0-1 0-0.9-1 0-1 0 0 0.9m4 0l0 1 1 0 1 0 0-1 0-0.9-1 0-1 0 0 0.9m4 0l0 1 1 0 1 0 0-1 0-0.9-1 0-1 0 0 0.9m4 0l0 1 0.5 0 0.5 0 0-1 0-0.9-0.5 0-0.5 0 0 0.9" stroke="none" fill="black" fill-rule="evenodd"></path></svg>