<?xml version="1.0"?><svg xmlns="http://www.w3.org/2000/svg" width="24" height="24" viewBox="0 0 24 24" version="1.1"><rect x="0" y="0" width="24" height="24" fill="#00000000"></rect><path fill-opacity="0.337" d="M5.8 5c-1.4 0.2-2.5 0.7-3.5 1.5-0.7 0.4-1.4 1.2-1.7 1.8-0.1 0.1-0.3 0.3-0.4 0.4l-0.2 0.2 0 3.1 0 3.1 0.2 0.2c0.1 0.1 0.3 0.3 0.4 0.4 0.3 0.6 1 1.4 1.7 1.9 0.9 0.7 2.2 1.2 3.4 1.3 0.6 0.1 12 0.1 12.6 0 1.2-0.1 2.5-0.6 3.4-1.3 0.7-0.5 1.4-1.3 1.8-1.9 0-0.1 0.2-0.3 0.3-0.4l0.3-0.2 0-3.2c0-1.7-0.1-3.1-0.1-3.1 0 0.1-0.4-0.2-0.5-0.5-0.5-0.8-1.5-1.8-2.4-2.3-0.6-0.4-1.4-0.7-2.1-0.9l-0.5-0.1-6.3 0c-3.5 0-6.3 0-6.4 0m0.1 2.1c-0.4 0-1.1 0.2-1.5 0.4-1.2 0.5-2.3 1.8-2.7 3.2-0.1 0.5-0.1 0.6-0.1 1.3 0 0.7 0 0.8 0.1 1.3 0.3 0.9 0.7 1.6 1.3 2.2 0.5 0.5 1 0.8 1.6 1.1 1 0.4 0.6 0.4 7.4 0.4 6.8 0 6.5 0 7.4-0.4 0.7-0.3 1.1-0.6 1.6-1.1 0.7-0.6 1.1-1.3 1.3-2.2 0.2-0.5 0.2-0.6 0.2-1.3 0-0.7 0-0.8-0.2-1.3-0.3-1.2-1-2.2-2-2.9-0.7-0.4-1.4-0.6-2.2-0.7-0.6-0.1-11.6-0.1-12.2 0m-0.1 1c-0.6 0.1-1.4 0.6-1.8 1.2-0.1 0.2-0.2 0.5-0.3 0.7-0.1 0.4-0.2 0.6-0.2 1 0 0.8 0.3 1.5 0.9 2.1 0.6 0.6 1.3 0.9 2.1 0.9 1.4 0 2.5-0.9 2.9-2.2 0.1-0.2 0.1-0.5 0.1-0.8 0-0.4 0-0.6-0.1-1-0.2-0.5-0.5-0.9-0.9-1.2-0.7-0.7-1.7-0.9-2.7-0.7m11 0c-0.6 0.1-1.4 0.6-1.8 1.2-0.1 0.2-0.2 0.5-0.3 0.7-0.1 0.4-0.2 0.6-0.2 1 0 0.8 0.3 1.5 0.9 2.1 0.6 0.6 1.3 0.9 2.1 0.9 1.4 0 2.5-0.9 2.9-2.2 0.1-0.2 0.1-0.5 0.1-0.8 0-0.4 0-0.6-0.1-1-0.2-0.5-0.5-0.9-0.9-1.2-0.7-0.7-1.7-0.9-2.7-0.7m-16.8 3.9c0 1.7 0 2.5 0 1.6 0-0.9 0-2.3 0-3.2 0-0.9 0-0.1 0 1.6m6.2-1.9c-0.9 0.3-0.9 1.6 0 1.8 0.3 0.1 0.4 0.1 0.6 0 0.9-0.2 0.9-1.6 0-1.8-0.3-0.1-0.3-0.1-0.6 0m11 0c-0.9 0.3-0.9 1.6 0 1.8 0.3 0.1 0.4 0.1 0.6 0 0.9-0.2 0.9-1.6 0-1.8-0.3-0.1-0.3-0.1-0.6 0m-7.7 4.9l0 1 2.5 0 2.6 0 0-1 0-1-2.6 0-2.5 0 0 1" stroke="none" fill="black" fill-rule="evenodd"></path><path fill-opacity="0.237" d="M5.9 5c-1.5 0.2-3 0.9-4.2 1.9-0.3 0.3-0.8 0.9-1.1 1.4-0.1 0.2-0.3 0.4-0.4 0.5l-0.2 0.1 0 3.1 0 3.1 0.2 0.1c0.1 0.1 0.3 0.3 0.4 0.5 0.9 1.4 2.2 2.5 3.8 2.9 1.1 0.4 0.6 0.4 7.6 0.4 7 0 6.6 0 7.7-0.4 1.5-0.5 2.8-1.5 3.7-2.9 0.2-0.2 0.3-0.3 0.3-0.4 0.1 0 0.2-0.1 0.2-0.1l0.2-0.1 0-3.1 0-3.1-0.2-0.1c-0.2-0.1-0.3-0.3-0.4-0.5-1-1.6-2.6-2.7-4.6-3.2l-0.5-0.1-6.1 0c-3.4 0-6.3 0-6.4 0m-0.2 2.1c-0.9 0.1-1.6 0.5-2.2 1-0.9 0.7-1.4 1.5-1.8 2.6-0.2 0.6-0.2 2 0 2.6 0.3 1.1 0.9 2 1.8 2.6 0.6 0.6 1.4 0.9 2.2 1 0.7 0.1 12 0.1 12.6 0 1.6-0.2 2.9-1.2 3.6-2.6 0.7-1.2 0.8-2.8 0.2-4.2-0.4-1-1.3-2-2.3-2.5-0.4-0.3-1.1-0.5-1.6-0.5-0.5-0.1-12-0.1-12.5 0m0.2 1c-1.1 0.2-2 1.1-2.3 2.1-0.1 0.5-0.1 1.1 0 1.6 0.3 1 1.1 1.8 2.2 2.1 1.3 0.4 2.8-0.3 3.4-1.6 0.2-0.5 0.3-0.8 0.3-1.3 0-0.8-0.3-1.5-0.9-2.1-0.7-0.8-1.7-1-2.7-0.8m11 0c-1.1 0.2-2 1.1-2.3 2.1-0.1 0.5-0.1 1.1 0 1.6 0.3 1 1.1 1.8 2.2 2.1 1.3 0.4 2.8-0.3 3.4-1.6 0.2-0.5 0.3-0.8 0.3-1.3 0-0.8-0.3-1.5-0.9-2.1-0.7-0.8-1.7-1-2.7-0.8m-16.9 3.9c0 1.7 0 2.4 0 1.6 0-0.9 0-2.3 0-3.2 0-0.8 0-0.1 0 1.6m6.2-1.9c-0.3 0.1-0.5 0.3-0.6 0.5 0 0.1-0.1 0.3 0 0.5 0 0.4 0.2 0.6 0.5 0.8 0.4 0.2 0.9 0.1 1.2-0.3 0.1-0.2 0.2-0.3 0.2-0.5 0-0.4-0.1-0.6-0.3-0.8-0.3-0.3-0.6-0.4-1-0.2m11 0c-0.3 0.1-0.5 0.3-0.6 0.5 0 0.1-0.1 0.3 0 0.5 0 0.4 0.2 0.6 0.5 0.8 0.4 0.2 0.9 0.1 1.2-0.3 0.1-0.2 0.2-0.3 0.2-0.5 0-0.4-0.1-0.6-0.3-0.8-0.3-0.3-0.6-0.4-1-0.2m-7.7 4.9l0 1 2.5 0 2.6 0 0-1 0-1-2.6 0-2.5 0 0 1" stroke="none" fill="black" fill-rule="evenodd"></path><path fill-opacity="0.581" d="M5.8 5.1c-2 0.2-3.9 1.3-5 3-0.3 0.3-0.5 0.6-0.6 0.7l-0.2 0.1 0 3.1 0 3.1 0.2 0.1c0.1 0.1 0.3 0.4 0.6 0.7 1.1 1.7 3 2.8 5.1 3 0.8 0.1 11.5 0.1 12.2 0 2.2-0.2 4-1.3 5.2-3 0.2-0.3 0.4-0.6 0.5-0.6 0.1-0.1 0.2-0.2 0.2-0.2 0 0 0-1.5 0-3.1l0-3.1-0.1-0.1c-0.2-0.1-0.4-0.3-0.6-0.7-1.1-1.7-3-2.8-5.1-3-0.7-0.1-11.8-0.1-12.4 0m-0.1 2c-0.7 0.1-1.5 0.4-2 0.8-0.4 0.2-1 0.9-1.3 1.3-0.3 0.4-0.6 1-0.7 1.6-0.1 0.3-0.1 0.5-0.1 1.2 0 0.7 0 0.9 0.1 1.3 0.1 0.4 0.4 1.1 0.7 1.5 0.2 0.4 0.8 0.9 1.2 1.2 0.4 0.3 1.2 0.7 1.7 0.9l0.5 0.1 6.2 0 6.3 0 0.4-0.1c0.5-0.2 1.3-0.5 1.6-0.8 0.4-0.2 0.9-0.7 1.2-1.1 1.1-1.4 1.3-3.5 0.5-5.2-0.4-0.7-1-1.5-1.7-1.9-0.5-0.4-1.2-0.7-1.9-0.8-0.6-0.1-12.2-0.1-12.7 0m0.2 1c-0.5 0.1-1.1 0.4-1.4 0.7-0.4 0.4-0.7 0.8-0.8 1.2-0.2 0.5-0.2 1.5 0 2 0.4 1.1 1.4 1.9 2.6 2 1.3 0.1 2.6-0.8 3.1-2 0.1-0.5 0.1-1.5 0-2-0.3-0.7-0.8-1.3-1.5-1.6-0.7-0.4-1.3-0.5-2-0.3m11 0c-0.5 0.1-1.1 0.4-1.4 0.7-0.4 0.4-0.7 0.8-0.8 1.2-0.2 0.5-0.2 1.5 0 2 0.4 1.1 1.4 1.9 2.6 2 1.3 0.1 2.6-0.8 3.1-2 0.1-0.5 0.1-1.5 0-2-0.3-0.7-0.8-1.3-1.5-1.6-0.7-0.4-1.3-0.5-2-0.3m-16.9 3.9c0 1.7 0 2.4 0 1.6 0-0.9 0-2.3 0-3.2 0-0.8 0-0.1 0 1.6m6.1-1.9c-1 0.5-0.6 1.9 0.4 1.9 0.8 0 1.3-0.9 0.8-1.6-0.1-0.2-0.5-0.4-0.8-0.4-0.1 0-0.3 0.1-0.4 0.1m11 0c-1 0.5-0.6 1.9 0.4 1.9 0.8 0 1.3-0.9 0.8-1.6-0.1-0.2-0.5-0.4-0.8-0.4-0.1 0-0.3 0.1-0.4 0.1m-7.5 4.9l0 1 2.4 0 2.5 0 0-1 0-1-2.5 0-2.4 0 0 1" stroke="none" fill="black" fill-rule="evenodd"></path><path fill-opacity="0.963" d="M5.9 5.1c-1.4 0.1-3 0.7-4 1.7-0.6 0.5-1 1-1.3 1.6-0.1 0.1-0.3 0.3-0.4 0.4l-0.2 0.1 0 3.1 0 3.1 0.2 0.1c0.1 0.1 0.3 0.3 0.4 0.4 0.5 0.9 1.4 1.8 2.4 2.4 0.6 0.4 1.5 0.7 2.4 0.9 0.4 0.1 1 0.1 6.6 0.1 5.6 0 6.2 0 6.6-0.1 1-0.2 1.8-0.5 2.5-0.9 0.9-0.6 1.9-1.5 2.4-2.4 0-0.1 0.2-0.3 0.3-0.3 0.1-0.1 0.2-0.2 0.2-0.2 0.1-0.1 0.1-6.3 0-6.3-0.1 0-0.4-0.2-0.5-0.4-0.5-0.9-1.5-1.8-2.4-2.4-0.4-0.2-1.1-0.5-1.6-0.7-1-0.3-0.7-0.3-7.1-0.3-3.3 0-6.2 0-6.5 0.1m-0.3 2c-1.4 0.3-2.4 1-3.2 2.1-1.3 1.9-1.1 4.4 0.4 6.1 0.8 0.9 1.7 1.4 2.8 1.6 0.6 0.1 12.2 0.1 12.8 0 1.2-0.2 2.1-0.7 2.9-1.6 1.7-2 1.6-5-0.3-6.8-0.6-0.7-1.3-1.1-2.1-1.3l-0.5-0.2-6.2 0c-5.2 0-6.3 0-6.6 0.1m0.5 1c-1.5 0.2-2.5 1.4-2.5 2.9 0 0.8 0.3 1.7 1 2.3 0.2 0.2 0.7 0.5 1 0.6 0.5 0.1 1.3 0.1 1.8 0 1.2-0.4 2-1.5 2.1-2.7 0-0.5-0.1-1-0.3-1.5-0.4-0.8-1.2-1.4-1.9-1.6-0.4-0.1-0.9-0.1-1.2 0m11 0c-1.5 0.2-2.5 1.4-2.5 2.9 0 0.8 0.3 1.7 1 2.3 0.2 0.2 0.7 0.5 1 0.6 0.5 0.1 1.3 0.1 1.8 0 1.2-0.4 2-1.5 2.1-2.7 0-0.5-0.1-1-0.3-1.5-0.4-0.8-1.2-1.4-1.9-1.6-0.4-0.1-0.9-0.1-1.2 0m-17.1 3.9c0 1.7 0 2.4 0 1.6 0-0.9 0-2.3 0-3.2 0-0.8 0-0.1 0 1.6m6.1-1.9c-0.3 0.1-0.4 0.2-0.5 0.5-0.2 0.5 0 1 0.5 1.3 0.3 0.2 0.7 0.1 1-0.1 0.2-0.1 0.5-0.5 0.4-0.8 0-0.2-0.1-0.6-0.3-0.8-0.3-0.2-0.8-0.3-1.1-0.1m11 0c-0.3 0.1-0.4 0.2-0.5 0.5-0.2 0.5 0 1 0.5 1.3 0.3 0.2 0.7 0.1 1-0.1 0.2-0.1 0.5-0.5 0.4-0.8 0-0.2-0.1-0.6-0.3-0.8-0.3-0.2-0.8-0.3-1.1-0.1m-7.5 4.9l0 1 2.4 0 2.5 0 0-1 0-1-2.5 0-2.4 0 0 1" stroke="none" fill="black" fill-rule="evenodd"></path></svg>