<?xml version="1.0"?><svg xmlns="http://www.w3.org/2000/svg" width="24" height="24" viewBox="0 0 24 24" version="1.1"><rect x="0" y="0" width="24" height="24" fill="#00000000"></rect><path fill-opacity="0.424" d="M10.6 2.1c-2.7 0.4-5.3 2-6.9 4.3-2 3-2.3 6.8-0.7 10 1.4 2.7 3.7 4.6 6.6 5.3 1.5 0.4 3.3 0.4 4.8 0 1.7-0.4 3.5-1.4 4.7-2.6 1.6-1.7 2.6-3.8 2.9-6.1 0.1-1 0-2.4-0.3-3.4-0.5-1.9-1.5-3.7-2.9-5-1.6-1.4-3.5-2.3-5.5-2.5-0.7-0.1-2-0.1-2.7 0m-1.6 2.5c-0.5 0.2-0.7 0.3-1.2 0.6-2.8 1.7-4.3 5.1-3.6 8.4 0.4 2 1.6 3.9 3.3 5 3.4 2.2 7.8 1.7 10.5-1.3 0.8-1 1.6-2.4 1.8-3.7 0.3-1.4 0.2-2.9-0.3-4.3l-0.1-0.3-1.1 0c-0.8 0-1.1 0-1.6-0.1-2.2-0.3-4.2-1.3-5.7-2.7-0.4-0.4-1-1.2-1.2-1.5-0.1-0.2-0.2-0.3-0.3-0.3 0 0-0.2 0.1-0.5 0.2m-0.4 7.5c-0.8 0.4-0.8 1.5 0 1.8 0.4 0.2 0.8 0.1 1.1-0.2 0.4-0.3 0.4-1.1 0-1.4-0.3-0.3-0.8-0.4-1.1-0.2m6 0c-0.8 0.4-0.8 1.5 0 1.8 0.4 0.2 0.8 0.1 1.1-0.2 0.4-0.3 0.4-1.1 0-1.4-0.3-0.3-0.8-0.4-1.1-0.2" stroke="none" fill="black" fill-rule="evenodd"></path><path fill-opacity="0.231" d="M10.7 2.1c-1.8 0.2-3.7 1-5.1 2.2-3.5 3-4.6 7.9-2.6 12.1 1.5 2.9 4.2 4.9 7.6 5.5 0.5 0.1 2.3 0.1 2.9 0 2.9-0.5 5.2-2 6.8-4.4 1.3-1.8 1.9-4.2 1.6-6.5-0.2-2.6-1.5-5-3.5-6.7-1.1-0.9-2.6-1.7-4-2-1.1-0.3-2.6-0.4-3.7-0.2m-1.5 2.4c-1.1 0.4-2.1 1.1-2.8 1.8-2.6 2.6-3.1 6.6-1.3 9.8 1.6 2.6 4.5 4.1 7.6 3.9 3.2-0.3 5.8-2.4 6.9-5.5 0.5-1.6 0.5-3.4 0-5.1-0.2-0.5-0.2-0.5-0.3-0.5-0.3 0.1-2.3 0.1-2.7 0-2.2-0.4-4-1.3-5.5-2.6-0.4-0.5-1-1.2-1.3-1.6-0.1-0.2-0.2-0.3-0.3-0.3 0 0-0.2 0.1-0.3 0.1m-0.6 7.6c-0.5 0.2-0.8 1-0.4 1.5 0.4 0.5 1.2 0.5 1.6 0 0.2-0.2 0.2-0.3 0.2-0.6 0-0.3 0-0.4-0.2-0.6-0.1-0.1-0.2-0.2-0.3-0.3-0.2-0.1-0.6-0.1-0.9 0m6 0c-0.5 0.2-0.8 1-0.4 1.5 0.4 0.5 1.2 0.5 1.6 0 0.2-0.2 0.2-0.3 0.2-0.6 0-0.3 0-0.4-0.2-0.6-0.1-0.1-0.2-0.2-0.3-0.3-0.2-0.1-0.6-0.1-0.9 0" stroke="none" fill="black" fill-rule="evenodd"></path><path fill-opacity="0.469" d="M10.8 2.1c-3.5 0.4-6.6 2.7-8 5.9-1.5 3.5-0.9 7.5 1.6 10.4 2 2.5 5.2 3.8 8.3 3.6 2.3-0.2 4.6-1.2 6.2-2.8 3.7-3.5 4.1-9.2 1.1-13.3-0.4-0.4-1.2-1.3-1.8-1.7-2-1.7-4.7-2.4-7.4-2.1m-1.5 2.4c-0.1 0-0.3 0.1-0.6 0.2-1.7 0.8-3.2 2.2-3.9 3.9-0.6 1.1-0.8 2.2-0.8 3.4 0 3.9 2.8 7.2 6.6 7.9 0.6 0.1 2.2 0.1 2.8 0 4.2-0.8 7.1-4.7 6.5-9-0.1-0.6-0.1-1-0.4-1.6-0.1-0.4-0.1-0.4-0.3-0.4-0.4 0.1-1.4 0.1-2 0.1-2.3-0.2-4.4-1.2-6-2.7-0.5-0.5-1.1-1.1-1.4-1.6-0.2-0.3-0.3-0.3-0.5-0.2m-0.6 7.5c-0.4 0.2-0.7 0.7-0.7 1.1 0.1 0.3 0.3 0.6 0.6 0.8 0.1 0 0.3 0.1 0.4 0.1 0.1 0 0.3-0.1 0.4-0.1 0.9-0.5 0.7-1.8-0.3-1.9-0.1 0-0.3 0-0.4 0m6 0c-0.4 0.2-0.7 0.7-0.7 1.1 0.1 0.3 0.3 0.6 0.6 0.8 0.1 0 0.3 0.1 0.4 0.1 0.1 0 0.3-0.1 0.4-0.1 0.9-0.5 0.7-1.8-0.3-1.9-0.1 0-0.3 0-0.4 0" stroke="none" fill="black" fill-rule="evenodd"></path><path fill-opacity="0.967" d="M11.2 2c-1.1 0.1-1.9 0.3-2.7 0.7-1.8 0.7-3.3 1.8-4.4 3.2-2.5 3.3-2.8 7.8-0.6 11.3 1.5 2.5 4.1 4.2 7 4.7 0.7 0.1 2.3 0.1 3 0 1.7-0.3 3.2-1 4.6-2 0.8-0.6 1.8-1.7 2.4-2.7 2.5-4 1.8-9.2-1.6-12.4-1.5-1.4-3.4-2.4-5.4-2.7-0.5-0.1-1.9-0.1-2.3-0.1m-2 2.5c-1.6 0.6-3.1 1.8-4 3.3-0.8 1.3-1.2 2.7-1.2 4.2 0 4 3 7.4 7 7.9 0.6 0.1 1.5 0.1 2.1 0 4-0.6 6.9-3.9 6.9-7.9 0-1-0.2-1.9-0.5-2.8l-0.1-0.3-0.3 0c-0.4 0.1-2 0.1-2.6 0-2.3-0.4-4.4-1.5-5.9-3.2-0.2-0.3-0.5-0.7-0.7-0.9l-0.3-0.4-0.4 0.1m-0.5 7.6c-0.8 0.2-0.9 1.3-0.2 1.8 0.4 0.2 1 0.1 1.3-0.3 0.5-0.8-0.2-1.8-1.1-1.5m6 0c-0.8 0.2-0.9 1.3-0.2 1.8 0.4 0.2 1 0.1 1.3-0.3 0.5-0.8-0.2-1.8-1.1-1.5" stroke="none" fill="black" fill-rule="evenodd"></path></svg>