<?xml version="1.0"?><svg xmlns="http://www.w3.org/2000/svg" width="24" height="24" viewBox="0 0 24 24" version="1.1"><rect x="0" y="0" width="24" height="24" fill="#00000000"></rect><path fill-opacity="0.310" d="M10.9 4.1c-3.3 0.5-5.9 2.8-6.6 5.9-0.7 2.4-0.1 4.9 1.3 6.8 0.2 0.2 0.4 0.5 0.5 0.6 0.3 0.5 0.5 0.6 1.3 0.6l0.6 0 0 1.2c0 1.3 0 1.3 0.4 1.7 0.7 0.7 2 1.1 3.6 1.1 1.8 0 3.3-0.5 3.8-1.4l0.2-0.2 0-1.2 0-1.2 0.6 0c0.8 0 1-0.1 1.3-0.6 0.1-0.1 0.3-0.4 0.5-0.6 1-1.3 1.6-3.1 1.6-4.8 0-3.4-2.1-6.3-5.3-7.5-1.1-0.4-2.7-0.6-3.8-0.4m0.6 1.9c-0.8 0.1-1.4 0.3-2.2 0.6-1.8 1-3 2.7-3.3 4.9-0.1 1.5 0.4 3.2 1.4 4.3l0.2 0.2 1.2 0 1.2 0 0 1.9c0 1.1 0 1.9 0 1.9 0.2 0.1 1.2 0.2 2 0.2 0.8 0 1.8-0.1 2-0.2 0 0 0-0.8 0-1.9l0-1.9 1.2 0 1.2 0 0.2-0.2c1-1.1 1.5-2.8 1.4-4.3-0.1-0.9-0.4-1.8-0.8-2.4-0.4-0.7-1-1.4-1.6-1.9-0.5-0.3-1.4-0.8-2-1-0.6-0.1-1.5-0.2-2.1-0.2m-1.5 17.7l0 0.3 0.8 0 0.8 0-0.4-0.1c-0.3-0.1-0.6-0.2-0.8-0.3l-0.4-0.1 0 0.2m3.6-0.1c-0.2 0.1-0.5 0.2-0.8 0.3l-0.4 0.1 0.8 0 0.8 0 0-0.3c0-0.1 0-0.2 0-0.2 0 0-0.2 0-0.4 0.1" stroke="none" fill="black" fill-rule="evenodd"></path><path fill-opacity="0.341" d="M11.1 4.1c-1.8 0.2-3.5 1-4.7 2.3-2.2 2.1-2.9 5.2-2 8.1 0.3 0.8 0.7 1.7 1.2 2.3 0.2 0.2 0.4 0.5 0.5 0.7 0.3 0.4 0.5 0.5 1.3 0.5l0.6 0 0 1.1c0 1 0 1.2 0.1 1.3 0.4 1 2 1.6 3.9 1.6 1.8 0 3.4-0.6 3.9-1.5 0.1-0.3 0.1-0.3 0.1-1.4l0-1.1 0.6 0c0.8 0 1-0.1 1.3-0.5 0.1-0.2 0.3-0.5 0.5-0.7 1.5-2 2-4.7 1.2-7.2-0.8-2.7-3-4.7-5.7-5.4-1-0.2-1.9-0.2-2.8-0.1m0.3 1.9c-1.1 0.2-1.6 0.4-2.2 0.7-1.6 0.9-2.7 2.3-3.1 4.2-0.1 0.5-0.1 1.7 0 2.3 0.2 0.9 0.6 1.7 1.1 2.4l0.3 0.4 1.3 0 1.2 0 0 1.9 0 1.9 0.2 0c1.3 0.3 2.3 0.3 3.6 0l0.2 0 0-1.9 0-1.9 1.2 0 1.3 0 0.3-0.4c0.5-0.7 0.9-1.5 1.1-2.4 0.1-0.6 0.1-1.8 0-2.3-0.5-2.5-2.3-4.2-4.7-4.8-0.4-0.1-1.6-0.1-1.8-0.1m-1.4 17.7l0 0.3 0.8 0 0.8 0-0.4-0.1c-0.3-0.1-0.8-0.2-1-0.4l-0.2 0 0 0.2m3.9-0.2c-0.2 0.1-0.8 0.3-1.1 0.4l-0.4 0.1 0.8 0 0.8 0 0-0.3c0-0.1 0-0.2 0-0.2 0 0-0.1 0-0.1 0" stroke="none" fill="black" fill-rule="evenodd"></path><path fill-opacity="0.577" d="M11.2 4.1c-0.8 0-2 0.4-2.7 0.7-2.4 1.3-4 3.4-4.4 6.1-0.1 0.4-0.1 1.8 0 2.3 0.3 1.5 0.8 2.7 1.7 3.9 0.2 0.2 0.4 0.4 0.4 0.5 0.1 0.1 0.2 0.2 0.4 0.3 0.2 0.1 0.3 0.1 0.8 0.1l0.6 0 0 1.1c0 1.1 0 1.1 0.1 1.4 0.6 1.1 2.8 1.7 4.9 1.4 0.7-0.1 1.2-0.2 1.8-0.5 0.5-0.2 0.9-0.6 1.1-0.9 0.1-0.3 0.1-0.3 0.1-1.4l0-1.1 0.6 0c0.5 0 0.6 0 0.8-0.1 0.2-0.1 0.3-0.2 0.4-0.3 0-0.1 0.2-0.3 0.4-0.5 0.9-1.2 1.5-2.4 1.7-3.9 0.1-0.5 0.1-1.8 0-2.3-0.1-0.9-0.4-1.8-0.8-2.6-1.3-2.4-3.7-4-6.4-4.2-0.6-0.1-0.8-0.1-1.5 0m-0.2 2c-1.3 0.2-2.5 0.9-3.4 1.8-2 2.1-2.2 5.3-0.4 7.7l0.3 0.4 1.2 0 1.3 0 0 1.9 0 1.9 0.5 0.1c0.7 0.1 2.3 0.1 3 0l0.5-0.1 0-1.9 0-1.9 1.3 0 1.2 0 0.3-0.4c1.8-2.4 1.6-5.6-0.4-7.7-0.9-1-2.1-1.6-3.4-1.8-0.6-0.1-1.5-0.1-2 0m-1 17.7l0 0.2 0.7 0c0.7 0 0.8 0 0.5-0.1-0.4-0.1-0.6-0.1-0.9-0.3-0.1 0-0.3-0.1-0.3-0.1 0 0 0 0.1 0 0.3m3.8-0.2c-0.2 0.1-0.7 0.3-1 0.3l-0.3 0.1 0.7 0 0.8 0 0-0.2c0-0.3 0-0.3-0.2-0.2" stroke="none" fill="black" fill-rule="evenodd"></path><path fill-opacity="0.959" d="M11.6 4c-0.8 0.1-1.6 0.2-2.3 0.5-2.5 0.9-4.3 2.8-5 5.3-0.3 1.3-0.4 2.8 0 4.1 0.2 1.1 0.7 2.1 1.4 3 0.2 0.2 0.4 0.5 0.5 0.6 0.2 0.4 0.4 0.5 1.2 0.5l0.6 0 0 1.1c0 1.1 0 1.2 0.1 1.4 0.3 0.6 1.3 1.1 2.6 1.4 0.3 0 0.7 0.1 1.3 0.1 1.9 0 3.4-0.6 3.8-1.5l0.2-0.3 0-1.1 0-1.1 0.6 0c0.8 0 1-0.1 1.2-0.5 0.1-0.1 0.3-0.4 0.5-0.6 0.8-1.1 1.4-2.4 1.6-3.8 0.1-0.5 0.1-1.7 0-2.2-0.3-2.4-1.7-4.4-3.7-5.7-0.4-0.2-1.2-0.6-1.6-0.8-0.8-0.2-2.1-0.4-3-0.4m-0.7 2.1c-0.6 0.1-1.3 0.4-2 0.7-1.2 0.7-2.1 1.9-2.6 3.3-0.4 1.3-0.4 2.9 0.1 4.2 0.2 0.5 0.6 1 0.9 1.4l0.2 0.3 1.3 0 1.2 0 0 1.9 0 1.9 0.3 0c1 0.3 2.4 0.3 3.4 0l0.3 0 0-1.9 0-1.9 1.3 0 1.2 0 0.3-0.4c1.6-2 1.6-5.1 0-7.1-0.7-1.1-1.7-1.8-3-2.2-0.8-0.3-2-0.4-2.9-0.2m-0.9 17.7l0 0.2 0.7 0c0.7 0 0.7 0 0.5-0.1-0.4 0-1-0.3-1.1-0.4 0-0.1-0.1 0-0.1 0.3m3.9-0.3c-0.1 0.1-0.7 0.4-1 0.4-0.3 0.1-0.3 0.1 0.4 0.1l0.7 0 0-0.2c0-0.3-0.1-0.4-0.1-0.3" stroke="none" fill="black" fill-rule="evenodd"></path></svg>