<?xml version="1.0"?><svg xmlns="http://www.w3.org/2000/svg" width="24" height="24" viewBox="0 0 24 24" version="1.1"><rect x="0" y="0" width="24" height="24" fill="#00000000"></rect><path fill-opacity="0.435" d="M10.9 4.1c-3.3 0.5-5.9 2.8-6.6 5.9-0.9 3.4 0.5 6.9 3.5 8.8 1.6 1 3.7 1.4 5.6 1.1 1-0.2 2.2-0.7 3-1.2 0.5-0.3 1.3-1 1.3-1.1 0 0-0.5-0.5-1-1.1l-1.1-1-0.2 0.2c-0.7 0.5-1.3 0.9-2 1.1-2.3 0.7-4.8-0.4-5.9-2.6-1-2.2-0.4-4.8 1.6-6.2 0.9-0.7 2.2-1.1 3.4-1 1.1 0.2 2 0.5 2.9 1.3l0.2 0.2 1.1-1c0.5-0.6 1-1.1 1-1.1 0 0-0.2-0.2-0.4-0.4-0.9-0.8-2.1-1.5-3.3-1.7-1-0.3-2.2-0.4-3.1-0.2m6.1 5.9l0 1-1 0-1 0 0 1 0 1 1 0 1 0 0 1 0 1 1 0 1 0 0-1 0-1 1 0 1 0 0-1 0-1-1 0-1 0 0-1 0-1-1 0-1 0 0 1m5 2l0 1 1 0 1 0 0-1 0-1-1 0-1 0 0 1" stroke="none" fill="black" fill-rule="evenodd"></path><path fill-opacity="0.125" d="M11.1 4.1c-2.8 0.3-5.2 2.1-6.4 4.6-0.4 0.9-0.6 1.6-0.7 2.6-0.2 2.8 1 5.5 3.2 7.1 3.2 2.3 7.4 2.1 10.2-0.5l0.3-0.3-1-1.1-1.1-1-0.3 0.3c-0.7 0.5-1.5 0.9-2.2 1.1-0.6 0.1-1.6 0.1-2.1 0-1.7-0.4-3.2-1.7-3.7-3.3-0.6-1.8-0.2-3.8 1.2-5.1 0.6-0.7 1.3-1.1 2.3-1.3 0.7-0.2 1.7-0.2 2.3-0.1 0.9 0.3 1.5 0.6 2.2 1.1l0.3 0.3 1.1-1 1-1.1-0.2-0.2c-1.8-1.7-4.1-2.4-6.4-2.1m5.9 5.9l0 1-1 0-1 0 0 1 0 1 1 0 1 0 0 1 0 1 1 0 1 0 0-1 0-1 1 0 1 0 0-1 0-1-1 0-1 0 0-1 0-1-1 0-1 0 0 1m5 2l0 1 1 0 1 0 0-1 0-1-1 0-1 0 0 1" stroke="none" fill="black" fill-rule="evenodd"></path><path fill-opacity="0.357" d="M11.2 4.1c-2.1 0.2-4.3 1.3-5.5 3-1.7 2.2-2.1 4.9-1.3 7.5 0.7 1.9 2.1 3.5 3.9 4.5 0.8 0.4 1.7 0.7 2.5 0.8 0.5 0.1 1.9 0.1 2.4 0 1.5-0.2 3-0.9 4.1-1.9l0.4-0.4-1.1-1-1-1.1-0.4 0.3c-2.1 1.8-5.2 1.5-7-0.5-2.1-2.5-1.4-6.2 1.5-7.7 0.6-0.4 1.6-0.6 2.3-0.6 1.2 0 2.5 0.5 3.4 1.3l0.2 0.2 1-1.1 1.1-1-0.4-0.4c-1.7-1.5-3.9-2.2-6.1-1.9m5.8 5.9l0 1-1 0-1 0 0 1 0 1 1 0 1 0 0 1 0 1 1 0 1 0 0-1 0-1 1 0 1 0 0-1 0-1-1 0-1 0 0-1 0-1-1 0-1 0 0 1m5 2l0 1 1 0 1 0 0-1 0-1-1 0-1 0 0 1" stroke="none" fill="black" fill-rule="evenodd"></path><path fill-opacity="0.975" d="M11.6 4c-3.1 0.2-5.8 2.1-6.9 4.8-0.5 1.1-0.7 2-0.7 3.2 0 1.2 0.2 2.1 0.7 3.2 0.9 2.1 2.6 3.7 4.9 4.4 0.6 0.2 1.1 0.3 1.8 0.3 2 0.2 3.8-0.3 5.4-1.5 0.4-0.3 0.9-0.7 0.9-0.8 0 0-0.5-0.5-1.1-1.1l-1-1-0.2 0.1c-0.3 0.4-1 0.9-1.6 1.1-0.8 0.3-1.9 0.4-2.8 0.2-1.9-0.4-3.4-1.8-3.9-3.7-0.1-0.6-0.1-1.8 0-2.3 0.6-2.3 2.6-3.9 4.9-3.9 1.3 0 2.5 0.5 3.4 1.3l0.2 0.2 1-1.1 1.1-1-0.4-0.3c-0.8-0.8-2.2-1.6-3.4-1.8-0.7-0.2-1.7-0.3-2.3-0.3m5.4 6l0 1-1 0-1 0 0 1 0 1 1 0 1 0 0 1 0 1 1 0 1 0 0-1 0-1 1 0 1 0 0-1 0-1-1 0-1 0 0-1 0-1-1 0-1 0 0 1m5 2l0 1 1 0 1 0 0-1 0-1-1 0-1 0 0 1" stroke="none" fill="black" fill-rule="evenodd"></path></svg>