<?xml version="1.0"?><svg xmlns="http://www.w3.org/2000/svg" width="24" height="24" viewBox="0 0 24 24" version="1.1"><rect x="0" y="0" width="24" height="24" fill="#00000000"></rect><path fill-opacity="0.314" d="M5.2 3.1c-1 0.3-1.9 1.2-2.1 2.2-0.1 0.5-0.1 12.9 0 13.4 0.2 1.1 1.1 2 2.2 2.2 0.5 0.1 12.9 0.1 13.4 0 1.1-0.2 2-1.1 2.2-2.2 0.1-0.5 0.1-12.9 0-13.4-0.2-1.1-1.1-1.9-2.1-2.2-0.4-0.1-0.7-0.1-6.8-0.1-6.2 0-6.4 0-6.8 0.1m0.6 1.9c-0.3 0.1-0.5 0.3-0.7 0.5l-0.1 0.2 0 6.3 0 6.3 0.2 0.2c0.1 0.2 0.2 0.3 0.4 0.4l0.2 0.1 6.2 0 6.2 0 0.2-0.1c0.2-0.1 0.3-0.2 0.4-0.4l0.2-0.2 0-6.3 0-6.3-0.2-0.2c0-0.1-0.2-0.3-0.3-0.4l-0.2-0.1-6.2 0c-3.4 0-6.2 0-6.3 0m1.8 2.1c-0.8 0.4-0.8 1.5 0 1.8 0.2 0.1 0.7 0.1 4.4 0.1 4 0 4.2 0 4.4-0.1 0.3-0.1 0.4-0.3 0.5-0.5 0.2-0.5 0-1.1-0.5-1.3-0.2-0.1-0.4-0.1-4.4-0.1-4 0-4.2 0-4.4 0.1m4.4 4.9l0 1-2 0-2 0 0 1 0 1 2 0 2 0 0 1 0 1 2.5-1.5c1.4-0.8 2.5-1.5 2.5-1.5 0 0-3.8-2.3-4.8-2.9l-0.2-0.1 0 1" stroke="none" fill="black" fill-rule="evenodd"></path><path fill-opacity="0.314" d="M5.3 3.1c-1 0.2-1.8 1-2.2 2.1-0.1 0.2-0.1 0.5-0.1 6.8l0 6.6 0.1 0.3c0.2 0.4 0.4 0.8 0.7 1.1 0.3 0.4 1 0.8 1.6 0.9 0.4 0.1 12.8 0.1 13.2 0 0.5 0 1-0.3 1.4-0.7 0.4-0.4 0.6-0.7 0.8-1.2l0.2-0.4 0-6.6c0-6.3 0-6.6-0.1-6.8-0.2-0.6-0.4-0.9-0.8-1.3-0.4-0.4-0.9-0.7-1.5-0.8-0.4-0.1-12.8-0.1-13.3 0m0.4 1.9c-0.2 0.1-0.4 0.3-0.5 0.5l-0.2 0.2 0 6.2 0 6.3 0.1 0.2c0.1 0.2 0.2 0.4 0.4 0.4l0.2 0.2 6.3 0c6.3 0 6.3 0 6.5-0.1 0.1-0.1 0.2-0.2 0.3-0.4l0.2-0.2 0-6.3 0-6.3-0.2-0.2c0-0.2-0.2-0.3-0.3-0.4l-0.2-0.1-6.2 0c-3.4 0-6.3 0-6.4 0m1.9 2.1c-0.8 0.3-0.8 1.4-0.1 1.8l0.3 0.1 4.2 0 4.2 0 0.3-0.1c0.1-0.1 0.2-0.2 0.3-0.3 0.2-0.2 0.2-0.3 0.2-0.6 0-0.3 0-0.4-0.2-0.6-0.1-0.1-0.2-0.2-0.3-0.3-0.2-0.1-0.2-0.1-4.4-0.1-3.5 0-4.3 0-4.5 0.1m4.4 4.9l0 1-2 0-2 0 0 1 0 1 2 0 2 0 0 1 0 1 2.5-1.5c1.3-0.8 2.4-1.5 2.4-1.5 0 0-1-0.7-2.3-1.5-1.3-0.7-2.4-1.4-2.5-1.4l-0.1-0.1 0 1" stroke="none" fill="black" fill-rule="evenodd"></path><path fill-opacity="0.350" d="M5.4 3.1c-1.2 0.2-2.1 1.2-2.3 2.3-0.1 0.5-0.1 12.7 0 13.2 0.2 1.1 1.2 2.1 2.3 2.3 0.5 0.1 12.7 0.1 13.2 0 1.1-0.2 2.1-1.2 2.3-2.3 0.1-0.5 0.1-12.7 0-13.2-0.2-1.2-1.2-2.1-2.3-2.3-0.5-0.1-12.7-0.1-13.2 0m0.2 2c-0.1 0-0.2 0.1-0.3 0.2-0.3 0.3-0.3-0.1-0.3 6.8l0 6.2 0.2 0.3c0.1 0.1 0.2 0.2 0.3 0.3l0.3 0.1 6.2 0 6.2 0 0.3-0.1c0.1-0.1 0.2-0.2 0.3-0.3l0.2-0.3 0-6.2c0-7 0-6.5-0.3-6.8-0.1-0.1-0.3-0.2-0.4-0.2-0.1-0.1-2.2-0.1-6.3-0.1-5.1 0-6.2 0-6.4 0.1m2.1 1.9c-0.4 0.2-0.6 0.5-0.7 0.9 0 0.2 0 0.3 0.1 0.5 0.2 0.3 0.2 0.3 0.4 0.5l0.3 0.1 4.2 0 4.2 0 0.3-0.1c0.2-0.2 0.2-0.2 0.4-0.4 0.1-0.4 0.1-0.6 0-0.9-0.1-0.2-0.2-0.3-0.4-0.4l-0.2-0.2-4.2 0c-2.3 0-4.3 0-4.4 0m4.3 5l0 1-2 0-2 0 0 1 0 1 2 0 2 0 0 1 0 1 2.5-1.5c1.3-0.8 2.4-1.5 2.4-1.5 0 0-1.1-0.7-2.4-1.5l-2.5-1.5 0 1" stroke="none" fill="black" fill-rule="evenodd"></path><path fill-opacity="0.974" d="M5.5 3.1c-0.7 0.1-1.3 0.4-1.7 0.9-0.3 0.3-0.5 0.6-0.6 1.1l-0.2 0.4 0 6.5c0 6.1 0 6.5 0.1 6.8 0.2 0.5 0.4 1 0.8 1.3 0.4 0.4 0.6 0.5 1.2 0.7l0.4 0.2 6.5 0 6.5 0 0.4-0.2c0.6-0.2 0.8-0.3 1.2-0.7 0.3-0.3 0.6-0.8 0.8-1.3 0.1-0.3 0.1-0.6 0.1-6.5 0-4.1 0-6.4 0-6.7-0.2-1.2-1-2.1-2.2-2.5-0.3-0.1-0.7-0.1-6.6-0.1-5.1 0-6.4 0-6.7 0.1m0.1 2c-0.3 0.1-0.4 0.3-0.5 0.5-0.1 0.2-0.1 0.9-0.1 6.4 0 5.5 0 6.2 0.1 6.4 0.1 0.2 0.2 0.4 0.5 0.5 0.1 0.1 0.4 0.1 6.4 0.1 6 0 6.3 0 6.4-0.1 0.3-0.1 0.4-0.3 0.5-0.5 0.1-0.2 0.1-0.9 0.1-6.4 0-5.9 0-6.2-0.1-6.4-0.1-0.3-0.3-0.4-0.5-0.5-0.2-0.1-0.9-0.1-6.4-0.1-5.9 0-6.2 0-6.4 0.1m2.3 1.9c-0.1 0-0.2 0.1-0.2 0.1-0.2 0-0.5 0.3-0.6 0.4-0.2 0.5 0 1.1 0.4 1.4l0.2 0.1 4.3 0 4.3 0 0.2-0.1c0.8-0.5 0.6-1.7-0.3-1.8-0.2-0.1-8.1-0.1-8.3-0.1m4.1 5l0 1-2 0-2 0 0 1 0 1 2 0 2 0 0 1c0 0.6 0 1 0 0.9 0.1 0 4.9-2.9 4.9-2.9 0 0-4.8-2.9-4.9-2.9 0-0.1 0 0.3 0 0.9" stroke="none" fill="black" fill-rule="evenodd"></path></svg>