<?xml version="1.0"?><svg xmlns="http://www.w3.org/2000/svg" width="24" height="24" viewBox="0 0 24 24" version="1.1"><rect x="0" y="0" width="24" height="24" fill="#00000000"></rect><path fill-opacity="0.412" d="M7 4l0 1 4 0 4 0 0 0.5 0 0.5-4.8 0-4.9 0-0.3 0.1c-0.8 0.4-1.6 1.1-1.9 1.9l-0.1 0.4 0 3.6c0 3.6 0 3.6 0.1 3.9 0.3 0.9 1.1 1.7 1.9 2l0.4 0.1 6.6 0 6.6 0 0.4-0.1c0.8-0.3 1.5-1 1.8-1.8l0.1-0.3 1.5 0.3c0.8 0.2 1.5 0.3 1.5 0.3 0.1 0 0.1-0.2 0.1-4.4 0-4.2 0-4.4-0.1-4.4 0 0-0.7 0.1-1.5 0.3l-1.5 0.3-0.1-0.3c-0.3-0.7-1-1.5-1.8-1.8-0.3 0-0.5-0.1-1.2-0.1l-0.8 0 0-0.7c0-0.7 0-0.8-0.1-1.1-0.2-0.3-0.6-0.8-0.9-1-0.5-0.2-0.4-0.2-4.8-0.2l-4.2 0 0 1m-1.5 4.1c-0.2 0.2-0.2 0.2-0.4 0.4l-0.1 0.3 0 3.2 0 3.3 0.1 0.2c0.1 0.1 0.3 0.3 0.4 0.3l0.2 0.2 6.3 0 6.3 0 0.2-0.2c0.1 0 0.3-0.2 0.4-0.3l0.1-0.2 0-3.3 0-3.3-0.2-0.2c-0.1-0.2-0.2-0.3-0.4-0.4l-0.2-0.1-6.2 0-6.2 0-0.3 0.1m17.8 1.8c-0.1 0-0.6 0-1.2 0.1l-1.1 0.1 0 1.9 0 1.9 1.3 0.1c0.7 0.1 1.2 0.2 1.3 0.2 0 0 0-1 0-2.2l0-2.1-0.1 0c-0.1 0-0.2 0-0.2 0" stroke="none" fill="black" fill-rule="evenodd"></path><path fill-opacity="0.286" d="M7 4l0 1 4 0 4 0 0 0.5 0 0.5-4.6 0c-3.2 0-4.8 0-5 0.1-0.1 0-0.5 0.1-0.7 0.2-0.3 0.2-0.5 0.3-0.8 0.6-0.5 0.5-0.7 0.9-0.8 1.4-0.1 0.5-0.1 6.9 0 7.4 0.1 0.5 0.3 0.9 0.8 1.4 0.5 0.5 0.9 0.7 1.4 0.8 0.5 0.1 12.9 0.1 13.4 0 0.9-0.2 1.8-1 2.2-2l0-0.1 1.5 0.3c0.8 0.2 1.5 0.3 1.5 0.3 0.1 0 0.1-0.2 0.1-4.4 0-4.2 0-4.4-0.1-4.4 0 0-0.7 0.1-1.5 0.3l-1.5 0.3-0.1-0.3c-0.3-0.7-0.9-1.3-1.5-1.6-0.5-0.2-0.9-0.3-1.7-0.3l-0.6 0 0-0.6c0-0.8-0.1-1.1-0.3-1.5-0.3-0.4-0.7-0.7-1.1-0.8-0.3-0.1-0.8-0.1-4.5-0.1l-4.1 0 0 1m-1.5 4.1c-0.1 0.1-0.2 0.2-0.3 0.3l-0.2 0.3 0 3.3 0 3.3 0.2 0.3c0.1 0.1 0.2 0.2 0.3 0.3l0.3 0.1 6.2 0 6.2 0 0.3-0.1c0.1-0.1 0.2-0.2 0.3-0.3l0.2-0.3 0-3.3 0-3.3-0.2-0.3c-0.1-0.1-0.2-0.2-0.3-0.3l-0.3-0.1-6.2 0-6.2 0-0.3 0.1m16.7 1.9c-0.6 0-1.1 0.1-1.1 0.1-0.1 0-0.1 0.1-0.1 1.9 0 1.5 0 1.9 0.1 1.9 0 0 0.5 0.1 1.2 0.1 0.6 0.1 1.1 0.1 1.2 0.1l0.1 0.1 0-2.2 0-2.1-0.2 0c-0.1 0-0.6 0-1.2 0.1" stroke="none" fill="black" fill-rule="evenodd"></path><path fill-opacity="0.561" d="M7 4l0 1 4 0 4 0 0 0.5 0 0.5-4.6 0c-5.2 0-5.1 0-5.7 0.3-0.6 0.3-1.1 0.8-1.4 1.4-0.3 0.6-0.3 0.7-0.3 4.5 0 3.7 0 3.6 0.4 4.2 0.2 0.5 0.8 1 1.3 1.3 0.7 0.3 0.3 0.3 7.3 0.3 6.9 0 6.6 0 7.3-0.3 0.7-0.3 1.3-1 1.5-1.7 0.1-0.2 0.1-0.2 0.2-0.2 0.1 0 2.9 0.6 3 0.6 0 0 0-1.9 0-4.4 0-4.2 0-4.4-0.1-4.4 0 0-0.7 0.1-1.5 0.3-1.5 0.3-1.5 0.3-1.5 0.2-0.3-0.6-0.4-0.8-0.8-1.2-0.7-0.7-1.3-0.9-2.5-0.9l-0.6 0 0-0.6c0-0.9-0.1-1.3-0.5-1.8-0.2-0.1-0.4-0.3-0.6-0.4l-0.4-0.2-4.3 0-4.2 0 0 1m-1.4 4.1c-0.3 0.1-0.5 0.3-0.6 0.6 0 0.1 0 1.2 0 3.4l0 3.2 0.2 0.3c0.1 0.1 0.2 0.2 0.3 0.3l0.2 0.1 6.3 0 6.3 0 0.2-0.1c0.1-0.1 0.2-0.2 0.3-0.3l0.2-0.3 0-3.2c0-2.2 0-3.3 0-3.4-0.1-0.3-0.3-0.5-0.6-0.6-0.2-0.1-0.5-0.1-6.4-0.1-5.9 0-6.2 0-6.4 0.1m16.7 1.9c-0.7 0-1.2 0.1-1.3 0.1 0 0 0 0.9 0 1.9 0 1 0 1.9 0 1.9 0.1 0 0.6 0.1 1.3 0.1l1.3 0.2 0-2.2c0-1.2 0-2.2 0-2.2 0 0-0.6 0.1-1.3 0.2" stroke="none" fill="black" fill-rule="evenodd"></path><path fill-opacity="0.957" d="M7 4l0 1 4 0 4 0 0 0.5 0 0.5-4.8 0-4.8 0-0.4 0.2c-0.2 0.1-0.5 0.2-0.6 0.3-0.3 0.2-0.8 0.7-1 1.1-0.4 0.6-0.4 0.5-0.4 4.1 0 3.3 0 3.8 0.2 4.3 0.2 0.6 0.8 1.3 1.4 1.6 0.7 0.4 0.1 0.4 7.4 0.4 7.3 0 6.7 0 7.4-0.4 0.6-0.3 1.2-1 1.4-1.5 0-0.2 0.1-0.3 0.1-0.3 0 0 0.7 0.1 1.5 0.3 0.9 0.2 1.6 0.3 1.6 0.3 0 0 0-2 0-4.4 0-3.7 0-4.4-0.1-4.4 0 0-0.7 0.1-1.5 0.3-0.7 0.2-1.4 0.3-1.4 0.3-0.1 0-0.1-0.1-0.2-0.2-0.3-0.8-1-1.5-1.8-1.8-0.4-0.1-0.5-0.2-1.2-0.2l-0.8 0 0-0.7c0-0.8-0.1-1.1-0.4-1.5-0.3-0.3-0.5-0.5-0.9-0.7-0.3-0.1-0.3-0.1-4.5-0.1l-4.2 0 0 1m-1.5 4.1c-0.1 0.1-0.2 0.2-0.3 0.3l-0.2 0.2 0 3.4 0 3.4 0.2 0.2c0.1 0.1 0.2 0.2 0.3 0.3 0.1 0.1 0.1 0.1 6.4 0.1 3.4 0 6.3 0 6.4 0 0.2-0.1 0.5-0.3 0.6-0.6 0.1-0.1 0.1-0.3 0.1-3.5l0-3.3-0.2-0.2c-0.1-0.1-0.2-0.2-0.3-0.3l-0.2-0.1-6.3 0-6.3 0-0.2 0.1m16.8 1.9c-0.7 0-1.3 0.1-1.3 0.1 0 0 0 0.9 0 1.9l0 1.9 0.2 0c0.1 0 0.6 0.1 1.1 0.2 0.5 0 1 0.1 1.1 0.1l0.2 0 0-2.2c0-1.7 0-2.2-0.1-2.2 0 0-0.6 0.1-1.2 0.2" stroke="none" fill="black" fill-rule="evenodd"></path></svg>