<?xml version="1.0"?><svg xmlns="http://www.w3.org/2000/svg" width="24" height="24" viewBox="0 0 24 24" version="1.1"><rect x="0" y="0" width="24" height="24" fill="#00000000"></rect><path fill-opacity="0.451" d="M11.4 4.1c-0.8 0.3-1.4 1-1.4 1.9 0 0.2 0 0.3-0.1 0.3-0.1 0-1 0.2-1.5 0.4-2.3 1.1-4.1 3-4.9 5.5-0.4 0.9-0.5 1.6-0.5 2.9l0 1-0.3 0.2c-0.8 0.4-1.4 1.1-1.6 2-0.1 0.3-0.1 0.8-0.1 2.8 0 1.9 0 2.6 0.1 2.7l0.1 0.2 1.3 0 1.3 0-0.2-0.1c-0.2-0.1-0.3-0.2-0.4-0.4l-0.2-0.2 0-2.3 0-2.3 0.1-0.2c0.1-0.1 0.3-0.3 0.4-0.3l0.2-0.2 8.3 0 8.3 0 0.2 0.2c0.1 0 0.3 0.2 0.4 0.3l0.1 0.2 0 2.3 0 2.3-0.2 0.2c-0.1 0.2-0.2 0.3-0.4 0.4l-0.2 0.1 1.3 0 1.3 0 0.1-0.2c0.1-0.1 0.1-0.8 0.1-2.7 0-2.7 0-2.8-0.3-3.4-0.3-0.6-0.8-1.1-1.4-1.4l-0.3-0.2 0-1c0-1.3-0.1-2-0.5-2.9-0.9-2.8-3-4.9-5.8-5.8-0.3-0.1-0.6-0.1-0.6-0.1-0.1 0-0.1-0.1-0.1-0.4-0.1-0.7-0.4-1.3-1-1.6-0.4-0.3-1.1-0.4-1.6-0.2m0 4c-2.8 0.2-5.2 2.1-6 4.7-0.3 0.8-0.3 1.3-0.4 2.3l0 0.9 7 0 7 0 0-0.9c-0.1-1-0.1-1.3-0.3-2-0.3-1.2-1-2.3-1.9-3.2-1.4-1.3-3.5-2-5.4-1.8m-4.4 12.9l0 1 5 0 5 0 0-1 0-1-5 0-5 0 0 1" stroke="none" fill="black" fill-rule="evenodd"></path><path fill-opacity="0.107" d="M11.5 4.1c-0.5 0.1-1 0.5-1.3 1-0.1 0.2-0.2 0.7-0.2 0.9l0 0.2-0.4 0.1c-0.8 0.2-2 0.8-2.8 1.4-1.2 0.8-2.2 2-2.9 3.3-0.6 1.3-0.9 2.6-0.9 4.5l0 0.7-0.4 0.1c-0.5 0.3-1 0.8-1.3 1.4-0.3 0.6-0.3 0.8-0.3 3.3 0 1.9 0 2.4 0.1 2.7l0.1 0.3 1.3 0 1.3 0-0.3-0.1c-0.1-0.1-0.2-0.2-0.3-0.3l-0.2-0.3 0-2.3 0-2.3 0.2-0.3c0.1-0.1 0.2-0.2 0.3-0.3 0.2-0.1 0.2-0.1 8.5-0.1 8.2 0 8.3 0 8.5 0.1 0.1 0.1 0.2 0.2 0.3 0.3l0.2 0.3 0 2.3 0 2.3-0.2 0.3c-0.1 0.1-0.2 0.2-0.3 0.3l-0.3 0.1 1.3 0 1.3 0 0.1-0.3c0.1-0.3 0.1-0.8 0.1-2.7 0-2.5 0-2.7-0.3-3.3-0.3-0.6-0.8-1.1-1.3-1.4l-0.4-0.1 0-0.7c0-1.9-0.3-3.2-1-4.5-0.6-1.3-1.6-2.5-2.8-3.3-0.8-0.6-2-1.2-2.8-1.4l-0.4-0.1 0-0.3c-0.1-0.8-0.7-1.6-1.4-1.8-0.3-0.1-0.8-0.1-1.1 0m-0.3 4c-1.1 0.1-2.2 0.5-3.1 1.1-0.3 0.2-0.6 0.5-0.9 0.7-0.8 0.8-1.3 1.5-1.7 2.4-0.3 1-0.5 1.9-0.5 3l0 0.7 7 0 7 0 0-0.6c0-2.3-0.7-4-2.2-5.5-1-0.9-2.1-1.5-3.4-1.7-0.6-0.2-1.6-0.2-2.2-0.1m-4.2 12.9l0 1 5 0 5 0 0-1 0-1-5 0-5 0 0 1" stroke="none" fill="black" fill-rule="evenodd"></path><path fill-opacity="0.696" d="M11.6 4c-0.9 0.2-1.5 1-1.6 1.9l0 0.3-0.5 0.2c-2.8 0.8-5.1 3-6 5.8-0.3 0.9-0.4 1.7-0.5 2.9l0 1.1-0.4 0.1c-0.2 0.2-0.4 0.3-0.7 0.6-0.4 0.4-0.6 0.7-0.8 1.2-0.1 0.3-0.1 0.3-0.1 2.9 0 2.2 0 2.6 0.1 2.8l0.1 0.2 1.3 0 1.3 0-0.2-0.1c-0.3-0.1-0.4-0.3-0.5-0.5-0.1-0.3-0.1-4.5 0-4.8 0.1-0.2 0.2-0.4 0.5-0.5 0.2-0.1 0.5-0.1 8.4-0.1 7.9 0 8.2 0 8.4 0.1 0.3 0.1 0.4 0.3 0.5 0.5 0.1 0.3 0.1 4.5 0 4.8-0.1 0.2-0.2 0.4-0.5 0.5l-0.2 0.1 1.3 0 1.3 0 0.1-0.2c0.1-0.2 0.1-0.6 0.1-2.8 0-2.6 0-2.6-0.1-2.9-0.2-0.5-0.4-0.8-0.8-1.2-0.3-0.3-0.5-0.4-0.7-0.6l-0.4-0.1 0-1.1c-0.1-1.6-0.3-2.8-0.9-4-1.1-2.3-3.1-4-5.5-4.7l-0.6-0.2 0-0.3c-0.1-1.2-1.2-2.1-2.4-1.9m-0.6 4.1c-2.8 0.4-5.1 2.4-5.8 5.2-0.1 0.5-0.2 1.2-0.2 1.9l0 0.8 7 0 7 0 0-0.8c0-1.3-0.2-2.4-0.8-3.4-1.2-2.4-3.6-3.8-6.3-3.8-0.3 0-0.7 0-0.9 0.1m-4 12.9l0 1 5 0 5 0 0-1 0-1-5 0-5 0 0 1" stroke="none" fill="black" fill-rule="evenodd"></path><path fill-opacity="0.947" d="M11.8 4c-1 0.1-1.7 1-1.8 1.9l0 0.3-0.2 0.1c-0.8 0.2-2 0.7-2.7 1.2-1.8 1.1-3.2 3-3.7 5.1-0.2 0.7-0.3 1.5-0.4 2.6l0 1-0.4 0.2c-0.7 0.3-1.2 1-1.5 1.8-0.1 0.3-0.1 0.5-0.1 2.8 0 2.1 0 2.6 0.1 2.8l0.1 0.2 1.3 0c1 0 1.2 0 1.1-0.1-0.2-0.1-0.4-0.2-0.5-0.5-0.1-0.1-0.1-0.3-0.1-2.4 0-2.1 0-2.3 0.1-2.4 0.1-0.3 0.3-0.4 0.5-0.5 0.2-0.1 1.1-0.1 8.4-0.1 7.3 0 8.2 0 8.4 0.1 0.2 0.1 0.4 0.2 0.5 0.5 0.1 0.1 0.1 0.3 0.1 2.4 0 2.1 0 2.3-0.1 2.4-0.1 0.3-0.3 0.4-0.5 0.5-0.1 0.1 0.1 0.1 1.1 0.1l1.3 0 0.1-0.2c0.1-0.2 0.1-0.7 0.1-2.8 0-2.3 0-2.5-0.1-2.8-0.3-0.8-0.8-1.5-1.5-1.8l-0.4-0.2 0-0.5c0-2.6-0.5-4.4-1.9-6.1-0.4-0.6-1.1-1.3-1.7-1.8-0.9-0.6-2.2-1.3-3.2-1.5l-0.2-0.1 0-0.3c0-0.6-0.5-1.3-1-1.6-0.3-0.2-0.8-0.3-1.2-0.3m-0.8 4.1c-0.5 0.1-0.8 0.1-1.2 0.3-2.1 0.7-3.7 2.3-4.4 4.4-0.3 0.8-0.4 1.1-0.4 2.2l0 1 7 0 7 0 0-1c0-0.7-0.1-1.1-0.1-1.4-0.6-2.5-2.2-4.4-4.6-5.2-0.5-0.2-0.7-0.2-1.2-0.3-0.5-0.1-1.7-0.1-2.1 0m-4 12.9l0 1 5 0 5 0 0-1 0-1-5 0-5 0 0 1" stroke="none" fill="black" fill-rule="evenodd"></path></svg>