<?xml version="1.0"?><svg xmlns="http://www.w3.org/2000/svg" width="24" height="24" viewBox="0 0 24 24" version="1.1"><rect x="0" y="0" width="24" height="24" fill="#00000000"></rect><path fill-opacity="0.482" d="M3.4 4.1c-0.5 0.1-0.8 0.4-1.1 0.9-0.3 0.4-0.3 0.6-0.3 1.9l0 1.1 1 0 1 0 0-1 0-1 8 0 8 0 0 6 0 6-3 0-3 0 0 1 0 1 3.1 0c3.5 0 3.5 0 4-0.3 0.3-0.2 0.5-0.5 0.7-0.9l0.2-0.3 0-6.5 0-6.5-0.2-0.3c-0.3-0.6-0.7-0.9-1.2-1.1-0.3-0.1-1.1-0.1-8.6-0.1-7.8 0-8.3 0-8.6 0.1m-1.4 6.9l0 1 0.3 0c0.7 0.1 1.2 0.2 1.7 0.3 2.8 0.7 5 2.9 5.7 5.8 0.1 0.4 0.2 0.9 0.3 1.6l0 0.3 1 0 1 0 0-0.3c0-0.2 0-0.5-0.1-0.8-0.3-3-1.9-5.6-4.4-7.3-0.9-0.6-2.1-1.1-3.1-1.3-0.6-0.2-1.6-0.3-2.1-0.3l-0.3 0 0 1m0 4l0 1 0.3 0c0.5 0.1 1 0.2 1.5 0.5 0.5 0.2 0.6 0.3 1 0.7 0.4 0.4 0.5 0.6 0.7 0.9 0.2 0.4 0.4 1.1 0.5 1.6l0 0.3 1 0 1 0 0-0.3c0-0.3-0.1-1-0.3-1.4-0.5-1.9-2-3.4-3.8-4-0.5-0.2-1.2-0.3-1.6-0.3l-0.3 0 0 1m0 4l0 1 1 0 1 0 0-0.3c-0.1-0.5-0.5-1.1-1-1.4-0.2-0.2-0.7-0.3-0.9-0.3l-0.1 0 0 1" stroke="none" fill="black" fill-rule="evenodd"></path><path fill-opacity="0.152" d="M3.5 4.1c-0.5 0.1-1 0.5-1.3 1-0.2 0.4-0.2 0.7-0.2 1.8l0 1.1 1 0 1 0 0-1 0-1 8 0 8 0 0 6 0 6-3 0-3 0 0 1 0 1 3.1 0c2.1 0 3.1 0 3.3-0.1 0.8-0.1 1.4-0.7 1.5-1.5 0.1-0.2 0.1-2.4 0.1-6.5l0-6.3-0.1-0.3c-0.3-0.6-0.7-1-1.3-1.2-0.3-0.1-16.7-0.1-17.1 0m-1.5 6.9l0 1 0.7 0c1.9 0.2 3.6 1 4.9 2.3 0.9 0.9 1.6 2 2 3.1 0.2 0.7 0.3 1.2 0.4 2l0 0.6 1 0 1 0 0-0.6c-0.3-3.7-2.4-6.9-5.7-8.4-1.2-0.6-2.4-0.9-3.8-1l-0.5 0 0 1m0 4l0 1 0.4 0c1.9 0.2 3.4 1.7 3.6 3.7l0 0.3 1 0 1 0 0-0.4c-0.1-1.2-0.5-2.3-1.3-3.2-1-1.4-2.6-2.3-4.3-2.4l-0.4 0 0 1m0 4l0 1 1 0c1.1 0 1.1 0 0.9-0.5-0.1-0.4-0.2-0.6-0.5-0.9-0.3-0.3-0.6-0.5-1-0.5-0.4-0.1-0.4-0.2-0.4 0.9" stroke="none" fill="black" fill-rule="evenodd"></path><path fill-opacity="0.446" d="M3.6 4.1c-0.8 0.1-1.4 0.8-1.6 1.6 0 0.1 0 0.7 0 1.3l0 1 1 0 1 0 0-1 0-1 8 0 8 0 0 6 0 6-3 0-3 0 0 1 0 1 3.2 0c3.6 0 3.4 0 3.9-0.4 0.3-0.2 0.7-0.6 0.8-1 0.1-0.2 0.1-0.6 0.1-6.6l0-6.4-0.1-0.3c-0.2-0.5-0.7-1-1.2-1.2l-0.3-0.1-8.2 0c-4.6 0-8.4 0-8.6 0.1m-1.6 6.9l0 1 0.3 0c0.6 0 1.7 0.2 2.4 0.5 2.4 0.9 4.1 2.6 4.9 5.1 0.2 0.6 0.4 1.6 0.4 2.2l0 0.2 1 0 1 0 0-0.5c-0.2-3.2-1.8-6-4.4-7.8-1.6-1-3.2-1.5-5.1-1.7l-0.5 0 0 1m0 4l0 1 0.4 0c1.9 0.2 3.4 1.8 3.6 3.7l0 0.3 1 0 1 0 0-0.3c-0.2-1.7-0.7-2.9-1.8-3.9-0.7-0.7-1.4-1.2-2.4-1.5-0.4-0.1-1.3-0.3-1.7-0.3l-0.1 0 0 1m0 4l0 1 1 0 1 0 0-0.2c-0.2-1-0.8-1.6-1.8-1.8l-0.2 0 0 1" stroke="none" fill="black" fill-rule="evenodd"></path><path fill-opacity="0.968" d="M3.8 4c-0.7 0.1-1.3 0.5-1.6 1.1-0.2 0.4-0.2 0.8-0.2 1.9l0 1 1 0 1 0 0-1 0-1 8 0 8 0 0 6 0 6-3 0-3 0 0 1 0 1 3.2 0c3.4 0 3.3 0 3.8-0.3 0.5-0.2 0.9-0.8 1-1.5 0-0.4 0-12 0-12.4-0.1-0.7-0.5-1.3-1-1.5-0.5-0.3 0-0.3-8.8-0.3-4.6 0-8.3 0-8.4 0m-1.8 7l0 1 0.3 0c0.7 0 1.7 0.2 2.4 0.5 1.2 0.4 2.1 1 3 1.9 1.2 1.2 2 2.7 2.2 4.5 0.1 0.2 0.1 0.6 0.1 0.8l0 0.3 1 0 1 0 0-0.4c-0.2-2.9-1.5-5.5-3.5-7.2-1.8-1.5-3.7-2.2-6.1-2.4l-0.4 0 0 1m0 4l0 1 0.2 0c0.8 0 1.9 0.4 2.5 1.1 0.7 0.6 1.2 1.6 1.3 2.5l0 0.4 1 0 1 0 0-0.3c-0.1-0.9-0.3-1.7-0.7-2.5-0.3-0.5-0.6-0.9-1.1-1.5-0.9-0.9-2.3-1.5-3.4-1.6-0.2 0-0.5-0.1-0.6-0.1l-0.2 0 0 1m0 4l0 1 1 0 1 0-0.1-0.3c0-0.4-0.2-0.8-0.5-1.1-0.4-0.4-0.7-0.5-1.2-0.6l-0.2 0 0 1" stroke="none" fill="black" fill-rule="evenodd"></path></svg>