<?xml version="1.0"?><svg xmlns="http://www.w3.org/2000/svg" width="24" height="24" viewBox="0 0 24 24" version="1.1"><rect x="0" y="0" width="24" height="24" fill="#00000000"></rect><path fill-opacity="0.302" d="M11 9l0 4 4 0 4 0 0-0.3c0-0.4-0.1-1.1-0.2-1.7-0.7-2.5-2.6-4.6-5.1-5.5-0.7-0.3-1.7-0.5-2.4-0.5l-0.3 0 0 4m-4.1-2c-0.1 0.1-0.4 0.1-0.6 0.2-1.1 0.2-2.4 0.7-3.3 1.3-1.1 0.7-2 1.7-2.7 2.9l-0.3 0.4 0 4.2 0 4.2 0.3 0.4c0.4 0.7 0.7 1.1 1.3 1.8 0.7 0.6 1.1 0.9 1.8 1.3l0.4 0.3 4.2 0 4.2 0 0.4-0.2c1.9-1.2 3.3-2.9 4-5 0.3-1 0.4-1.6 0.4-2.8l0-1-4 0-4 0 0-4 0-4-1 0c-0.5 0-1 0-1.1 0m6.1 2.2l0 1.8 1.8 0 1.8 0 0-0.1c-0.1-0.2-0.4-0.9-0.6-1.2-0.3-0.5-0.9-1.1-1.5-1.5-0.2-0.2-1.3-0.8-1.4-0.8-0.1 0-0.1 0.2-0.1 1.8m-6.7 0c-0.6 0.2-0.9 0.3-1.5 0.6-1.9 0.9-3.3 2.9-3.7 5-0.1 0.6-0.1 1.8 0 2.4 0.5 2.6 2.4 4.8 4.9 5.5 1.9 0.5 3.9 0.3 5.6-0.7 0.4-0.2 1.1-0.8 1.5-1.2 0.8-0.9 1.4-2 1.7-3.2 0.1-0.2 0.1-0.5 0.1-0.5 0-0.1-0.2-0.1-3.9-0.1l-4 0 0-3.9c0-3.8 0-4-0.1-4 0 0-0.3 0.1-0.6 0.1" stroke="none" fill="black" fill-rule="evenodd"></path><path fill-opacity="0.371" d="M11 9l0 4 4 0 4 0 0-0.3c0-0.4-0.1-1.2-0.3-1.7-0.6-2.5-2.5-4.6-5-5.5-0.7-0.3-1.8-0.5-2.4-0.5l-0.3 0 0 4m-4.1-1.9c-0.1 0-0.4 0-0.7 0.1-0.8 0.1-1.4 0.4-2.2 0.8-1 0.4-1.6 0.9-2.3 1.6-0.6 0.6-1.1 1.2-1.5 1.9l-0.2 0.4 0 4.1 0 4.1 0.2 0.4c0.7 1.3 2 2.5 3.2 3.2l0.5 0.3 4.1 0 4.1 0 0.5-0.3c0.6-0.3 1.2-0.8 1.8-1.3 1.3-1.4 2.1-2.9 2.5-4.8 0-0.4 0.1-0.8 0.1-1.6l0-1-4 0-4 0 0-4 0-4-1 0c-0.5 0-1 0-1.1 0.1m6.1 2.1l0 1.8 1.8 0 1.9 0-0.1-0.2c-0.1-0.1-0.1-0.2-0.2-0.3-0.2-0.5-0.7-1.2-1.2-1.7-0.5-0.6-1.1-1-1.9-1.3l-0.3-0.1 0 1.8m-6.7 0c-1.2 0.3-2.2 0.9-3.1 1.7-1.3 1.3-2 2.7-2.2 4.5-0.1 1.4 0.3 3 1 4.2 0.7 1.1 1.9 2.2 3 2.7 1.1 0.5 1.9 0.7 3 0.7 1.1 0 1.9-0.2 3-0.7 1.3-0.6 2.7-2 3.3-3.3 0.3-0.7 0.6-1.6 0.6-1.9l0-0.1-3.9 0-4 0 0-3.9 0-4-0.1 0c-0.1 0-0.3 0.1-0.6 0.1" stroke="none" fill="black" fill-rule="evenodd"></path><path fill-opacity="0.553" d="M11 9l0 4 4 0 4 0 0-0.2c0-0.1 0-0.4-0.1-0.6-0.2-2.2-1.3-4.2-3-5.5-0.9-0.7-1.9-1.2-2.9-1.5-0.5-0.1-1.4-0.2-1.8-0.2l-0.2 0 0 4m-4-2c0 0.1-0.3 0.1-0.6 0.2-1 0.1-2 0.5-2.9 1-0.8 0.5-1.2 0.8-1.9 1.5-0.6 0.6-0.9 1.1-1.4 1.8l-0.2 0.4 0 4.1 0 4.1 0.2 0.4c0.9 1.4 1.9 2.5 3.2 3.2l0.5 0.3 4.1 0 4.1 0 0.5-0.3c1.4-0.8 2.7-2.2 3.4-3.6 0.4-0.9 0.8-2 0.9-2.8 0-0.1 0-0.3 0.1-0.3 0 0 0-0.5 0-1l0-1-4 0-4 0 0-4 0-4-1 0c-0.5 0-1 0-1 0m6 2.2l0 1.8 1.8 0 1.8 0 0-0.2c-0.3-0.9-1.2-2.1-2.1-2.7-0.3-0.2-1.1-0.6-1.3-0.7l-0.2 0 0 1.8m-6.7 0c-3.3 0.9-5.4 3.8-5.3 7.1 0.1 2.4 1.4 4.4 3.4 5.7 0.7 0.4 1.6 0.8 2.5 0.9 0.4 0.1 1.8 0.1 2.2 0 2.2-0.4 4.1-1.7 5.1-3.6 0.3-0.7 0.7-1.8 0.7-2.2l0-0.1-3.9 0-4 0 0-3.9 0-4-0.2 0c-0.1 0-0.3 0.1-0.5 0.1" stroke="none" fill="black" fill-rule="evenodd"></path><path fill-opacity="0.960" d="M11 9l0 4 4 0 4 0 0-0.4c-0.1-1.5-0.5-2.6-1.2-3.8-1.1-1.8-3.1-3.2-5.1-3.6-0.4-0.1-1.4-0.2-1.6-0.2-0.1 0-0.1 0.2-0.1 4m-4-2c0 0.1-0.1 0.1-0.3 0.1-0.8 0.1-2 0.5-2.8 0.9-1.5 0.8-2.8 2-3.6 3.4l-0.3 0.5 0 4.1 0 4.1 0.3 0.4c0.3 0.7 0.7 1.2 1.3 1.7 0.6 0.7 1.1 1.1 1.8 1.5l0.5 0.3 4.1 0 4.1 0 0.5-0.3c0.3-0.2 0.7-0.4 0.9-0.6 0.6-0.4 1.5-1.4 1.9-2 0.7-1 1.3-2.6 1.5-3.8 0-0.2 0-0.3 0.1-0.3 0 0 0-0.4 0-1l0-1-4 0-4 0 0-4 0-4-1 0c-0.5 0-1 0-1 0m6 2.2l0 1.8 1.8 0 1.9 0-0.1-0.1c0-0.2-0.5-1.1-0.7-1.4-0.4-0.4-0.9-1-1.3-1.3-0.4-0.3-1-0.7-1.4-0.8l-0.2 0 0 1.8m-6.1-0.1c-0.3 0-0.9 0.2-1.3 0.3-2.3 0.9-4 2.8-4.5 5.3-0.1 0.6-0.1 2.1 0 2.7 0.6 2.9 2.9 5.1 5.9 5.5 2.4 0.4 4.7-0.5 6.3-2.3 0.8-1 1.4-2.2 1.6-3.4l0-0.2-3.9 0-4 0 0-4 0-3.9-0.1 0" stroke="none" fill="black" fill-rule="evenodd"></path></svg>