<?xml version="1.0"?><svg xmlns="http://www.w3.org/2000/svg" width="24" height="24" viewBox="0 0 24 24" version="1.1"><rect x="0" y="0" width="24" height="24" fill="#00000000"></rect><path fill-opacity="0.333" d="M13 10.6l-2.8 2.8-1.4-1.4-1.4-1.4-0.7 0.7-0.7 0.7 2.1 2.1 2.1 2.2 3.6-3.6 3.5-3.5-0.7-0.7c-0.4-0.4-0.7-0.7-0.7-0.7 0 0-1.3 1.3-2.9 2.8" stroke="none" fill="black" fill-rule="evenodd"></path><path fill-opacity="0.253" d="M13.1 10.6l-2.8 2.8-1.5-1.4-1.4-1.4-0.7 0.7-0.7 0.7 2.1 2.1 2.1 2.2 3.6-3.6 3.5-3.5-0.7-0.7c-0.4-0.4-0.7-0.7-0.7-0.7 0 0-1.3 1.3-2.8 2.8" stroke="none" fill="black" fill-rule="evenodd"></path><path fill-opacity="0.811" d="M13.1 10.6l-2.8 2.8-1.5-1.4-1.4-1.4-0.7 0.7-0.7 0.7 2.1 2.1 2.1 2.1 3.6-3.5 3.5-3.5-0.7-0.7c-0.4-0.4-0.7-0.7-0.7-0.7 0 0-1.3 1.3-2.8 2.8" stroke="none" fill="black" fill-rule="evenodd"></path><path fill-opacity="1.000" d="M13.1 10.6l-2.8 2.8-1.5-1.4-1.4-1.4-0.7 0.7-0.7 0.7 2.1 2.1 2.1 2.1 3.6-3.5 3.5-3.5-0.7-0.7c-0.4-0.4-0.7-0.7-0.7-0.7 0 0-1.3 1.3-2.8 2.8" stroke="none" fill="black" fill-rule="evenodd"></path></svg>