<?xml version="1.0"?><svg xmlns="http://www.w3.org/2000/svg" width="24" height="24" viewBox="0 0 24 24" version="1.1"><rect x="0" y="0" width="24" height="24" fill="#00000000"></rect><path fill-opacity="0.314" d="M11 1c-1.6 0.2-2.7 0.6-3.9 1.2-1.7 0.8-3.2 2.1-4.3 3.7-0.4 0.7-1 1.9-1.2 2.6-1.3 3.9-0.3 8.3 2.6 11.2 1.3 1.4 2.9 2.3 4.8 2.9 1 0.3 1.7 0.4 3 0.4 1 0 1.3 0 1.8-0.1 3.1-0.6 5.7-2.3 7.4-4.8 0.4-0.7 1-1.9 1.2-2.6 1-2.8 0.7-5.7-0.5-8.3-1-1.9-2.4-3.5-4.2-4.6-1.1-0.7-2.6-1.3-4-1.5-0.5-0.1-2.3-0.1-2.7-0.1m0.4 2c-3.7 0.3-6.7 2.7-7.9 6.2-1.2 3.4-0.1 7.3 2.7 9.6 1.1 1 2.3 1.6 3.8 1.9 1.2 0.3 2.8 0.3 4 0 2.3-0.5 4.2-1.8 5.5-3.7 1.5-2.3 1.9-5.3 1-8-1.1-3.1-3.9-5.4-7.2-5.9-0.4-0.1-1.5-0.1-1.9-0.1m-2.6 6.9l-2.1 2.1 1.3 1.3c0.7 0.7 1.7 1.7 2.2 2.1l0.8 0.8 0.7-0.7 0.7-0.7-1.4-1.4-1.4-1.4 1.4-1.4 1.4-1.4-0.7-0.7c-0.4-0.4-0.7-0.7-0.7-0.7 0 0-1 0.9-2.2 2.1m4 0l-2.1 2.1 1.3 1.3c0.7 0.7 1.7 1.7 2.2 2.1l0.8 0.8 0.7-0.7 0.7-0.7-1.4-1.4-1.4-1.4 1.4-1.4 1.4-1.4-0.7-0.7c-0.4-0.4-0.7-0.7-0.7-0.7 0 0-1 0.9-2.2 2.1" stroke="none" fill="black" fill-rule="evenodd"></path><path fill-opacity="0.331" d="M11.2 1c0 0-0.3 0.1-0.6 0.1-0.3 0-0.9 0.1-1.2 0.2-6.3 1.6-9.9 8.1-7.8 14.2 0.9 2.7 2.9 5.1 5.5 6.3 1.1 0.6 2.1 0.9 3.3 1.1 0.8 0.1 2.4 0.1 3.2 0 2.4-0.4 4.6-1.5 6.3-3.3 0.8-0.8 1.4-1.7 2-2.8 3-6.2-0.4-13.7-7.2-15.5-0.3 0-0.8-0.1-1.1-0.2-0.4 0-2.1-0.1-2.4-0.1m0.1 2c-3.3 0.4-5.9 2.1-7.3 5-0.7 1.3-1 2.5-1 4 0 1.2 0.2 1.9 0.5 3 1.4 3.8 5.2 6.3 9.2 6 3.9-0.4 7.1-3.1 8-6.8 0.2-0.8 0.3-1.3 0.3-2.2 0-0.9-0.1-1.4-0.3-2.2-0.9-3.5-3.8-6.2-7.4-6.7-0.4-0.1-1.6-0.1-2-0.1m-2.4 6.9l-2.2 2.1 0.6 0.6c0.3 0.3 1.3 1.2 2.1 2.1l1.6 1.5 0.7-0.7 0.7-0.7-1.4-1.4-1.4-1.4 1.4-1.4 1.4-1.4-0.7-0.7c-0.4-0.4-0.7-0.7-0.7-0.7 0 0-1 0.9-2.1 2.1m4 0l-2.2 2.1 0.6 0.6c0.3 0.3 1.3 1.2 2.1 2.1l1.6 1.5 0.7-0.7 0.7-0.7-1.4-1.4-1.4-1.4 1.4-1.4 1.4-1.4-0.7-0.7c-0.4-0.4-0.7-0.7-0.7-0.7 0 0-1 0.9-2.1 2.1" stroke="none" fill="black" fill-rule="evenodd"></path><path fill-opacity="0.675" d="M11.2 1c-2.7 0.3-5 1.3-6.8 3.1-2 1.9-3.1 4.3-3.4 7.2-0.2 2.6 0.7 5.5 2.5 7.6 0.4 0.6 1.3 1.5 1.9 1.9 2.1 1.6 4.8 2.4 7.4 2.2 2.1-0.2 4.1-1 5.8-2.2 0.6-0.4 1.5-1.3 1.9-1.9 0.4-0.4 0.9-1.2 1.1-1.6 0.6-1.1 1.1-2.6 1.3-3.9 0.1-0.6 0.1-2.2 0-2.8-0.3-1.9-0.9-3.6-2-5.1-0.5-0.6-1.7-1.8-2.3-2.3-1.5-1.1-3.2-1.8-5-2.1-0.5-0.1-2-0.1-2.4-0.1m-0.4 2.1c-3.7 0.5-6.6 3.1-7.5 6.6-0.7 2.6-0.2 5.3 1.4 7.6 0.4 0.6 1.4 1.6 2.1 2 1.1 0.8 2.3 1.3 3.7 1.6 0.7 0.1 2.3 0.1 3 0 2.5-0.5 4.6-1.8 6-3.9 2-3 2-7 0.1-9.9-1.5-2.2-3.7-3.6-6.5-4-0.6-0.1-1.7-0.1-2.3 0m-1.9 6.8l-2.1 2.1 2.1 2.1 2.1 2.1 0.7-0.7 0.7-0.7-1.4-1.4-1.4-1.4 1.4-1.4 1.4-1.4-0.7-0.7c-0.4-0.4-0.7-0.7-0.7-0.7 0 0-1 0.9-2.1 2.1m4 0l-2.1 2.1 2.1 2.1 2.1 2.1 0.7-0.7 0.7-0.7-1.4-1.4-1.4-1.4 1.4-1.4 1.4-1.4-0.7-0.7c-0.4-0.4-0.7-0.7-0.7-0.7 0 0-1 0.9-2.1 2.1" stroke="none" fill="black" fill-rule="evenodd"></path><path fill-opacity="0.947" d="M11.2 1c-3.4 0.3-6.5 2.1-8.4 5-0.4 0.6-0.9 1.7-1.1 2.3-1.1 3.2-0.8 6.6 0.9 9.4 0.9 1.4 2.3 2.9 3.8 3.7 3.4 2.1 7.6 2.1 11.1 0.1 1.5-0.9 3-2.3 3.9-3.8 1.6-2.6 2-5.8 1.1-8.7-1-3.8-4-6.7-7.8-7.6-1.1-0.3-2.4-0.4-3.5-0.4m-0.5 2.1c-1.5 0.2-3 0.8-4.2 1.7-0.4 0.4-1.2 1.1-1.5 1.5-0.8 1-1.4 2.3-1.8 3.6-0.2 0.9-0.3 2.4-0.1 3.4 0.3 2.2 1.4 4.2 3.2 5.7 1.1 0.8 2.4 1.5 3.8 1.8 2.5 0.6 5.3 0 7.4-1.6 0.4-0.3 1.1-1.1 1.5-1.5 0.8-1 1.4-2.3 1.8-3.6 0.3-1.2 0.3-3 0-4.2-0.6-2.3-2-4.3-4.1-5.6-1-0.6-2.2-1-3.5-1.2-0.5-0.1-1.9-0.1-2.5 0m-1.8 6.8l-2.1 2.1 2.1 2.1 2.1 2.1 0.7-0.7 0.7-0.7-1.4-1.4-1.4-1.4 1.4-1.4 1.4-1.4-0.7-0.7c-0.4-0.4-0.7-0.7-0.7-0.7 0 0-1 0.9-2.1 2.1m4 0l-2.1 2.1 2.1 2.1 2.1 2.1 0.7-0.7 0.7-0.7-1.4-1.4-1.4-1.4 1.4-1.4 1.4-1.4-0.7-0.7c-0.4-0.4-0.7-0.7-0.7-0.7 0 0-1 0.9-2.1 2.1" stroke="none" fill="black" fill-rule="evenodd"></path></svg>