<?xml version="1.0"?><svg xmlns="http://www.w3.org/2000/svg" width="24" height="24" viewBox="0 0 24 24" version="1.1"><rect x="0" y="0" width="24" height="24" fill="#00000000"></rect><path fill-opacity="0.561" d="M9.3 5.7l-0.7 0.7 2.8 2.8 2.8 2.8-2.8 2.8-2.8 2.8 0.7 0.8 0.7 0.7 3.5-3.6 3.6-3.5-3.5-3.5c-2-2-3.6-3.5-3.6-3.5 0 0-0.3 0.3-0.7 0.7" stroke="none" fill="black" fill-rule="evenodd"></path><path fill-opacity="0.705" d="M9.3 5.6l-0.7 0.7 2.8 2.9 2.9 2.8-2.9 2.8-2.8 2.9 0.7 0.7 0.7 0.7 3.5-3.6 3.6-3.5-3.5-3.5c-2-2-3.6-3.5-3.6-3.5 0 0-0.3 0.3-0.7 0.6" stroke="none" fill="black" fill-rule="evenodd"></path><path fill-opacity="0.092" d="M9.3 5.6l-0.7 0.7 2.8 2.9 2.9 2.8-2.9 2.8-2.8 2.9 0.7 0.7 0.7 0.7 3.5-3.6 3.5-3.5-3.5-3.5c-1.9-2-3.5-3.5-3.5-3.5 0 0-0.3 0.3-0.7 0.6" stroke="none" fill="black" fill-rule="evenodd"></path><path fill-opacity="0.933" d="M9.3 5.7l-0.7 0.7 2.9 2.8 2.8 2.8-2.8 2.8-2.9 2.8 0.7 0.7c0.4 0.4 0.7 0.7 0.7 0.7 0 0 1.6-1.6 3.5-3.5l3.6-3.5-3.6-3.5c-1.9-1.9-3.5-3.5-3.5-3.5 0 0-0.3 0.3-0.7 0.7" stroke="none" fill="black" fill-rule="evenodd"></path></svg>