<?xml version="1.0"?><svg xmlns="http://www.w3.org/2000/svg" width="24" height="24" viewBox="0 0 24 24" version="1.1"><rect x="0" y="0" width="24" height="24" fill="#00000000"></rect><path fill-opacity="0.314" d="M11 1c-1.6 0.2-2.7 0.6-3.9 1.2-1.7 0.8-3.2 2.1-4.3 3.7-0.4 0.7-1 1.9-1.2 2.6-1.3 3.9-0.3 8.3 2.6 11.2 1.3 1.4 2.9 2.3 4.8 2.9 1 0.3 1.7 0.4 3 0.4 1 0 1.3 0 1.8-0.1 3.1-0.6 5.7-2.3 7.4-4.8 0.4-0.7 1-1.9 1.2-2.6 1-2.8 0.7-5.7-0.5-8.3-1-1.9-2.4-3.5-4.2-4.6-1.1-0.7-2.6-1.3-4-1.5-0.5-0.1-2.3-0.1-2.7-0.1m0.4 2c-3.7 0.3-6.7 2.7-7.9 6.2-1.2 3.4-0.1 7.3 2.7 9.6 1.1 1 2.3 1.6 3.8 1.9 1.2 0.3 2.8 0.3 4 0 2.3-0.5 4.2-1.8 5.5-3.7 1.5-2.3 1.9-5.3 1-8-1.1-3.1-3.9-5.4-7.2-5.9-0.4-0.1-1.5-0.1-1.9-0.1m-3 5.3l-0.7 0.7 2.2 2.1 2.1 2.2 2.1-2.2 2.2-2.1-0.7-0.7-0.7-0.7-1.5 1.4-1.4 1.4-1.4-1.4c-0.8-0.8-1.4-1.4-1.5-1.4 0 0-0.3 0.3-0.7 0.7m0 4l-0.7 0.7 2.2 2.1 2.1 2.2 2.1-2.2 2.2-2.1-0.7-0.7-0.7-0.7-1.5 1.4-1.4 1.4-1.4-1.4c-0.8-0.8-1.4-1.4-1.5-1.4 0 0-0.3 0.3-0.7 0.7" stroke="none" fill="black" fill-rule="evenodd"></path><path fill-opacity="0.228" d="M10.7 1.1c-3.7 0.4-6.9 2.7-8.6 6.1-0.7 1.4-1 2.8-1.1 4.4-0.1 3.8 1.8 7.5 5 9.6 4.5 3 10.5 2.2 14.2-1.8 2-2.3 3.1-5.4 2.7-8.5-0.4-4.3-3.4-8-7.5-9.4-1.5-0.4-3.2-0.6-4.7-0.4m0.6 1.9c-0.5 0.1-1 0.2-1.5 0.3-3.5 0.9-6.1 3.7-6.7 7.4 0 0.2-0.1 0.8-0.1 1.3 0 1.5 0.3 2.6 0.9 3.9 1.8 3.7 5.8 5.7 9.9 4.9 3.7-0.7 6.5-3.7 7.1-7.5 0.1-0.6 0.1-2 0-2.5-0.2-1.7-0.9-3.3-2-4.6-1.4-1.6-3.4-2.8-5.6-3.1-0.4-0.1-1.6-0.1-2-0.1m-2.8 5.3l-0.7 0.7 2.1 2.1c1.1 1.2 2.1 2.2 2.1 2.2 0 0 1-1 2.1-2.2l2.1-2.1-0.7-0.7-0.7-0.7-1.4 1.4-1.4 1.4-1.4-1.4-1.4-1.4-0.7 0.7m0 4l-0.7 0.7 2.1 2.1c1.1 1.2 2.1 2.2 2.1 2.2 0 0 1-1 2.1-2.2l2.1-2.1-0.7-0.7-0.7-0.7-1.4 1.4-1.4 1.4-1.4-1.4-1.4-1.4-0.7 0.7" stroke="none" fill="black" fill-rule="evenodd"></path><path fill-opacity="0.719" d="M11.2 1c-2.7 0.3-5 1.3-6.8 3.1-1.8 1.7-2.9 3.9-3.3 6.4-0.1 0.7-0.1 2.3 0 3.1 0.4 2.5 1.5 4.6 3.3 6.3 1.9 1.8 4.2 2.9 6.8 3.1 2.6 0.2 5.3-0.6 7.4-2.2 0.6-0.4 1.5-1.3 1.9-1.9 2.5-3.1 3.2-7.3 1.7-10.9-0.6-1.6-1.4-2.8-2.6-3.9-1.7-1.6-3.8-2.7-6-3-0.5-0.1-2-0.1-2.4-0.1m-0.3 2.1c-4.2 0.5-7.3 3.7-7.8 7.8-0.6 4.1 1.9 8.2 5.9 9.6 3.3 1.1 6.8 0.3 9.2-2 2.1-2 3.1-4.8 2.7-7.6-0.5-4.1-3.7-7.3-7.8-7.8-0.6-0.1-1.6-0.1-2.2 0m-2.4 5.2l-0.7 0.7 2.1 2.1 2.1 2.1 2.1-2.1 2.1-2.1-0.7-0.7-0.7-0.7-1.4 1.4-1.4 1.4-1.4-1.4-1.4-1.4-0.7 0.7m0 4l-0.7 0.7 2.1 2.1 2.1 2.1 2.1-2.1 2.1-2.1-0.7-0.7-0.7-0.7-1.4 1.4-1.4 1.4-1.4-1.4-1.4-1.4-0.7 0.7" stroke="none" fill="black" fill-rule="evenodd"></path><path fill-opacity="0.947" d="M11.5 1c-1.6 0.1-3 0.5-4.3 1.1-5.4 2.7-7.7 9.2-5.1 14.6 0.6 1.2 1.2 2.1 2.1 3 1.1 1.2 2.3 1.9 3.8 2.5 3 1.2 6.5 1 9.3-0.6 5.1-2.8 7.1-9.1 4.6-14.3-1.4-3-4.1-5.1-7.2-5.9-1-0.3-2.4-0.4-3.2-0.4m-0.8 2.1c-1.5 0.2-3 0.8-4.2 1.7-0.4 0.4-1.2 1.1-1.5 1.5-0.8 1-1.4 2.3-1.8 3.6-0.3 1.2-0.3 3 0 4.2 0.4 1.3 1 2.6 1.8 3.6 0.4 0.4 1.1 1.2 1.5 1.5 3.3 2.4 7.8 2.4 11.1-0.1 0.5-0.4 1.4-1.3 1.8-1.9 0.5-0.8 1.1-2.1 1.4-3.1 0.3-1.3 0.3-2.9 0-4.2-0.4-1.3-1-2.6-1.8-3.6-0.3-0.4-1.1-1.1-1.5-1.5-1.2-0.9-2.7-1.5-4.3-1.7-0.6-0.1-1.9-0.1-2.5 0m-2.2 5.2l-0.7 0.7 2.1 2.1 2.1 2.1 2.1-2.1 2.1-2.1-0.7-0.7-0.7-0.7-1.4 1.4-1.4 1.4-1.4-1.4-1.4-1.4-0.7 0.7m0 4l-0.7 0.7 2.1 2.1 2.1 2.1 2.1-2.1 2.1-2.1-0.7-0.7-0.7-0.7-1.4 1.4-1.4 1.4-1.4-1.4-1.4-1.4-0.7 0.7" stroke="none" fill="black" fill-rule="evenodd"></path></svg>