<?xml version="1.0"?><svg xmlns="http://www.w3.org/2000/svg" width="24" height="24" viewBox="0 0 24 24" version="1.1"><rect x="0" y="0" width="24" height="24" fill="#00000000"></rect><path fill-opacity="0.667" d="M9.2 8.2l-2.9 2.8 0.7 0.7 0.8 0.7 2.1-2.1 2.1-2.1 2.1 2.1 2.2 2.1 0.7-0.7 0.7-0.7-2.9-2.8c-1.5-1.6-2.8-2.8-2.8-2.8 0 0-1.3 1.2-2.8 2.8m0 5l-2.9 2.8 0.7 0.7 0.8 0.7 2.1-2.1 2.1-2.1 2.1 2.1 2.2 2.1 0.7-0.7 0.7-0.7-2.9-2.8c-1.5-1.6-2.8-2.8-2.8-2.8 0 0-1.3 1.2-2.8 2.8" stroke="none" fill="black" fill-rule="evenodd"></path><path fill-opacity="0.058" d="M9.6 7.7c-1.3 1.4-2.6 2.6-2.8 2.9l-0.4 0.4 0.7 0.7 0.7 0.7 2.1-2.1 2.1-2.1 2.1 2.1 2.1 2.1 0.7-0.7 0.7-0.7-0.7-0.7c-1.5-1.6-4.9-4.9-4.9-4.9 0 0-1.1 1-2.4 2.3m0 5c-1.3 1.4-2.6 2.6-2.8 2.9l-0.4 0.4 0.7 0.7 0.7 0.7 2.1-2.1 2.1-2.1 2.1 2.1 2.1 2.1 0.7-0.7 0.7-0.7-0.7-0.7c-1.5-1.6-4.9-4.9-4.9-4.9 0 0-1.1 1-2.4 2.3" stroke="none" fill="black" fill-rule="evenodd"></path><path fill-opacity="0.512" d="M9.2 8.2l-2.8 2.8 0.7 0.7 0.7 0.7 2.1-2.1 2.1-2.1 2.1 2.1 2.1 2.1 0.7-0.7 0.7-0.7-2.8-2.8c-1.5-1.6-2.8-2.8-2.8-2.8 0 0-1.3 1.2-2.8 2.8m0 5l-2.8 2.8 0.7 0.7 0.7 0.7 2.1-2.1 2.1-2.1 2.1 2.1 2.1 2.1 0.7-0.7 0.7-0.7-2.8-2.8c-1.5-1.6-2.8-2.8-2.8-2.8 0 0-1.3 1.2-2.8 2.8" stroke="none" fill="black" fill-rule="evenodd"></path><path fill-opacity="1.000" d="M9.2 8.2l-2.8 2.8 0.7 0.7 0.6 0.7 2.2-2.1c1.1-1.2 2.1-2.1 2.1-2.1 0 0 1 1 2.2 2.1l2.1 2.1 0.6-0.7 0.7-0.7-2.8-2.8c-1.5-1.6-2.8-2.8-2.8-2.8 0 0-1.3 1.2-2.8 2.8m0 5l-2.8 2.8 0.7 0.7 0.6 0.7 2.2-2.1c1.1-1.2 2.1-2.1 2.1-2.1 0 0 1 1 2.2 2.1l2.1 2.1 0.6-0.7 0.7-0.7-2.8-2.8c-1.5-1.6-2.8-2.8-2.8-2.8 0 0-1.3 1.2-2.8 2.8" stroke="none" fill="black" fill-rule="evenodd"></path></svg>