<?xml version="1.0"?><svg xmlns="http://www.w3.org/2000/svg" width="24" height="24" viewBox="0 0 24 24" version="1.1"><rect x="0" y="0" width="24" height="24" fill="#00000000"></rect><path fill-opacity="0.365" d="M11 0c-0.1 0-0.4 0.1-0.6 0.1-1.6 0.2-3.3 0.8-4.7 1.7-3 1.8-5 4.9-5.6 8.5-0.1 0.8-0.1 2.7 0 3.4 0.4 2.3 1.3 4.3 2.7 6 1.1 1.3 2.4 2.3 3.9 3.1 3.4 1.6 7.2 1.6 10.6 0 1.2-0.6 2.1-1.2 3-2.1 1.6-1.6 2.8-3.6 3.3-5.7 0.2-0.7 0.4-1.6 0.4-1.9 0-0.1 0-0.2 0-0.2 0 0 0-0.4 0-1 0-0.6 0-0.8 0-0.8 0 0.1 0 0 0-0.1-0.1-0.7-0.4-2.2-0.7-3.1-1.5-4.2-5.1-7.1-9.5-7.8-0.5-0.1-2.5-0.1-2.8-0.1m0.5 4c-2 0.2-3.8 1-5.2 2.4-1 1-1.7 2.3-2.1 3.8 0 0.3-0.1 0.6-0.1 0.7l0 0.1 1.5 0 1.5 0 0.1-0.4c0.5-1.7 1.8-3 3.6-3.5 0.3 0 0.5-0.1 1.2-0.1 0.7 0 0.9 0.1 1.2 0.1 0.9 0.3 1.7 0.7 2.3 1.4 1.6 1.5 1.9 3.8 0.9 5.8-1.1 2.2-3.8 3.3-6.2 2.4-0.6-0.3-1.2-0.6-1.7-1.1-0.4-0.5-0.9-1.1-1-1.4l-0.1-0.2-1.5 0c-1.5 0-1.6 0-1.6 0.1 0 0.2 0.4 1.1 0.7 1.6 0.5 1.1 1.4 2.1 2.3 2.8 0.8 0.6 2.1 1.1 3.1 1.3 0.7 0.2 1.5 0.2 2.2 0.2 1.1-0.1 1.9-0.4 2.9-0.9 3.3-1.5 5-5.1 4.3-8.7-0.3-1.5-1.1-3-2.1-4-1.2-1.2-2.9-2-4.4-2.3-0.5-0.1-1.4-0.1-1.8-0.1m0.1 6.1c-0.8 0.1-1.4 0.8-1.6 1.6-0.2 1.3 1 2.5 2.3 2.3 1.6-0.3 2.2-2.3 1.1-3.4-0.3-0.3-0.7-0.5-1.1-0.6-0.3 0-0.3 0-0.7 0.1m-11.6 1.9c0 0.5 0 0.7 0 0.5 0-0.3 0-0.7 0-1 0-0.2 0 0 0 0.5" stroke="none" fill="black" fill-rule="evenodd"></path><path fill-opacity="0.475" d="M10.9 0.1c-1.2 0.1-2.5 0.4-3.6 0.9-2.6 1-4.9 3.2-6.1 5.8-1.3 2.6-1.5 5.7-0.7 8.4 1.3 4.7 5 8 9.8 8.7 0.8 0.1 2.6 0.1 3.4 0 2.3-0.4 4.4-1.3 6.2-2.9 0.8-0.7 1.5-1.5 2.1-2.4 0.5-0.7 0.6-0.9 0.9-1.6 0.6-1.2 1-2.7 1-3.8 0.1-0.3 0.1-0.5 0.1-0.5 0 0 0.1-0.3 0.1-0.8 0-0.4-0.1-0.7-0.1-0.7 0 0-0.1-0.2-0.1-0.4-0.1-1.7-0.8-3.8-1.9-5.4-0.9-1.4-2.1-2.6-3.5-3.5-2.2-1.4-5-2.1-7.6-1.8m0.2 4c-2.7 0.2-5.2 2-6.4 4.5-0.2 0.7-0.5 1.5-0.6 2.1l0 0.3 1.5 0 1.5 0 0.1-0.4c0.5-1.5 1.5-2.6 3-3.2 0.6-0.3 1-0.4 1.8-0.4 0.9 0 1.5 0.2 2.3 0.6 2.1 1.1 3.2 3.6 2.5 5.9-0.4 1.3-1.4 2.4-2.6 3-1.4 0.7-3 0.7-4.4 0-0.9-0.4-1.8-1.3-2.2-2.2l-0.2-0.3-1.6 0c-1.2 0-1.5 0-1.5 0.1 0.4 1.3 0.9 2.3 1.7 3.2 3 3.4 8.4 3.6 11.6 0.3 2.2-2.1 3-5.4 1.9-8.3-1-2.9-3.6-4.9-6.7-5.2-0.6-0.1-1.1-0.1-1.7 0m0.5 6c-0.6 0.1-1.1 0.5-1.4 1.1-0.2 0.3-0.2 0.4-0.2 0.8 0 0.4 0 0.5 0.2 0.8 0.3 0.6 0.8 1 1.5 1.2 0.9 0.1 1.7-0.4 2.1-1.2 0.2-0.3 0.2-0.4 0.2-0.8 0-0.4 0-0.5-0.2-0.8-0.4-0.9-1.3-1.3-2.2-1.1m-11.6 1.9c0 0.4 0 0.6 0 0.4 0-0.2 0-0.6 0-0.8 0-0.2 0 0 0 0.4" stroke="none" fill="black" fill-rule="evenodd"></path><path fill-opacity="0.435" d="M11 0.1c-2.9 0.2-5.5 1.5-7.5 3.4-1.9 2-3 4.3-3.4 7.1-0.1 0.6-0.1 2.2 0 2.9 0.6 4 3 7.4 6.6 9.2 2.9 1.5 6.2 1.7 9.3 0.6 3.2-1.1 5.8-3.7 7.1-6.8 0.5-1.2 0.8-2.8 0.8-3.6 0-0.2 0.1-0.3 0.1-0.3 0 0 0.1-0.3 0.1-0.7 0-0.3-0.1-0.5-0.1-0.5 0 0 0-0.2-0.1-0.5-0.1-1.8-0.8-3.9-1.9-5.5-1.9-2.9-4.9-4.7-8.3-5.3-0.7-0.1-2.1-0.1-2.7 0m0.2 3.9c-1.1 0.2-1.8 0.4-2.6 0.7-1.4 0.7-2.7 1.9-3.5 3.3-0.5 0.8-0.9 2-1 2.8l0 0.2 1.5 0 1.5 0 0.1-0.4c0.5-1.6 1.8-3 3.6-3.4 0.4-0.1 0.6-0.2 1.2-0.2 0.6 0 0.8 0.1 1.2 0.2 0.9 0.2 1.7 0.6 2.3 1.3 2 1.9 2 5.1 0 7-0.6 0.6-1.3 1-2.1 1.3-1.8 0.5-3.6 0-4.9-1.3-0.4-0.3-0.8-0.8-1-1.3l-0.1-0.2-1.6 0c-0.8 0-1.5 0-1.5 0 0 0.1 0.2 0.8 0.4 1.2 1.4 3.2 4.7 5.1 8.2 4.7 1.8-0.1 3.4-0.9 4.8-2.2 3.1-3.2 3.1-8.2-0.1-11.4-1.1-1.1-2.6-1.9-4.2-2.2-0.4-0.1-1.9-0.1-2.2-0.1m0.3 6.1c-0.4 0.1-0.6 0.2-0.8 0.4-0.8 0.7-0.9 1.7-0.4 2.6 0.8 1.2 2.6 1.2 3.4 0 0.6-1 0.3-2.3-0.7-2.8-0.4-0.3-1.1-0.4-1.5-0.2m-11.5 1.9c0 0.3 0 0.5 0 0.3 0-0.2 0-0.4 0-0.6 0-0.2 0 0 0 0.3" stroke="none" fill="black" fill-rule="evenodd"></path><path fill-opacity="0.958" d="M11.2 0c-2.5 0.2-4.9 1.2-6.7 2.7-0.5 0.4-1.5 1.4-1.9 1.9-2.3 2.8-3.1 6.7-2.2 10.3 0.5 2.2 1.6 4.1 3.3 5.7 1.5 1.5 3.2 2.4 5.4 3 0.5 0.2 1.4 0.3 2.1 0.3 2.7 0.2 5.2-0.5 7.4-1.9 1.9-1.3 3.5-3.2 4.4-5.3 0.6-1.3 1-2.9 1-4 0-0.2 0-0.4 0-0.4 0 0 0-0.2 0-0.4 0-0.2 0-0.3 0-0.3 0 0.1 0-0.1-0.1-0.5-0.1-2.2-1-4.7-2.5-6.5-0.4-0.5-1.4-1.5-1.9-1.9-2-1.7-4.5-2.6-7.1-2.7-0.4 0-1 0-1.2 0m-0.1 4c-0.1 0-0.3 0.1-0.6 0.1-0.6 0.1-1.4 0.4-2.1 0.8-2.2 1.1-3.7 3.1-4.2 5.5-0.1 0.3-0.2 0.5-0.2 0.5 0 0.1 0.5 0.1 1.6 0.1l1.5 0 0.1-0.4c0.7-2.3 2.9-3.8 5.3-3.5 1.1 0.1 2.1 0.5 2.9 1.3 2.3 2.1 2 5.7-0.4 7.6-1.1 0.8-2.7 1.2-4.1 0.9-0.6-0.2-1.4-0.5-1.9-0.9-0.6-0.5-1.3-1.3-1.5-1.8l-0.1-0.2-1.6 0c-0.9 0-1.5 0-1.5 0 0 0.2 0.3 1.2 0.5 1.6 1.8 3.6 6 5.3 9.8 4 3.9-1.4 6.1-5.4 5.2-9.5-0.7-3-3.3-5.4-6.3-6-0.5-0.1-2.1-0.1-2.4-0.1m0.3 6.1c-0.5 0.1-1 0.6-1.2 1.1-0.2 0.2-0.2 0.3-0.2 0.8 0 0.5 0 0.5 0.2 0.9 0.2 0.4 0.6 0.8 1 0.9 0.2 0.2 0.3 0.2 0.8 0.2 0.5 0 0.5 0 0.9-0.2 0.4-0.2 0.8-0.6 0.9-1 0.2-0.2 0.2-0.3 0.2-0.8 0-0.5 0-0.6-0.2-0.8-0.2-0.4-0.6-0.9-1-1-0.2-0.1-0.4-0.2-0.7-0.2-0.3 0-0.6 0-0.7 0.1m-11.4 1.9c0 0.2 0 0.2 0 0.1 0-0.1 0-0.2 0-0.3 0-0.1 0 0 0 0.2" stroke="none" fill="black" fill-rule="evenodd"></path></svg>