<?xml version="1.0"?><svg xmlns="http://www.w3.org/2000/svg" width="24" height="24" viewBox="0 0 24 24" version="1.1"><rect x="0" y="0" width="24" height="24" fill="#00000000"></rect><path fill-opacity="0.435" d="M6.6 6.1c-0.5 0.3-0.7 0.8-0.5 1.3 0.1 0.2 0.8 0.9 2.3 2.4l2.2 2.2-2.2 2.2c-1.5 1.5-2.2 2.2-2.3 2.4-0.1 0.3 0 0.8 0.3 1.1 0.2 0.2 0.7 0.3 1 0.2 0.2-0.1 0.9-0.8 2.4-2.3l2.2-2.2 2.2 2.2c1.5 1.5 2.2 2.2 2.4 2.3 0.3 0.1 0.8 0 1.1-0.3 0.2-0.2 0.3-0.7 0.2-1-0.1-0.2-0.8-0.9-2.3-2.4l-2.2-2.2 2.2-2.2c1.5-1.5 2.2-2.2 2.3-2.4 0.1-0.3 0-0.8-0.2-1-0.3-0.3-0.8-0.4-1.1-0.3-0.2 0.1-0.9 0.8-2.4 2.3l-2.2 2.2-2.2-2.2c-1.5-1.5-2.2-2.2-2.4-2.3-0.2-0.1-0.5-0.1-0.8 0" stroke="none" fill="black" fill-rule="evenodd"></path><path fill-opacity="0.195" d="M6.7 6.1c-0.3 0.1-0.6 0.6-0.6 1 0 0.4 0 0.4 2.3 2.7l2.2 2.2-2.2 2.2c-2 2-2.2 2.2-2.3 2.4-0.2 0.9 0.6 1.6 1.3 1.3 0.2-0.1 0.9-0.8 2.4-2.3l2.2-2.2 2.2 2.2c1.5 1.5 2.2 2.2 2.4 2.3 0.7 0.3 1.5-0.4 1.3-1.3-0.1-0.2-0.3-0.4-2.3-2.4l-2.2-2.2 2.2-2.2c2-2 2.2-2.2 2.3-2.4 0.2-0.8-0.5-1.5-1.3-1.3-0.2 0.1-0.4 0.3-2.4 2.3l-2.2 2.2-2.2-2.2c-1.9-1.9-2.3-2.2-2.4-2.3-0.3-0.1-0.5-0.1-0.7 0" stroke="none" fill="black" fill-rule="evenodd"></path><path fill-opacity="0.638" d="M6.8 6.1c-0.4 0.1-0.7 0.5-0.7 1 0 0.1 0 0.3 0.1 0.4 0 0.1 1 1.1 2.2 2.3l2.2 2.2-2.2 2.2c-1.2 1.2-2.2 2.2-2.2 2.3-0.2 0.3-0.2 0.7 0 1 0.2 0.2 0.6 0.5 0.8 0.4 0.5 0 0.6-0.1 2.8-2.3l2.2-2.2 2.2 2.2c2.2 2.2 2.3 2.3 2.8 2.3 0.2 0.1 0.6-0.2 0.8-0.4 0.2-0.3 0.2-0.7 0-1 0-0.1-1-1.1-2.2-2.3l-2.2-2.2 2.2-2.2c1.2-1.2 2.2-2.2 2.2-2.3 0.3-0.4 0.1-1-0.3-1.3-0.3-0.1-0.7-0.2-1 0-0.1 0-1.1 1-2.3 2.2l-2.2 2.2-2.2-2.2c-1.2-1.2-2.2-2.2-2.3-2.2-0.2-0.1-0.5-0.2-0.7-0.1" stroke="none" fill="black" fill-rule="evenodd"></path><path fill-opacity="0.952" d="M6.8 6.1c-0.5 0.2-0.8 0.7-0.7 1.2 0.1 0.2 0.1 0.3 2.3 2.5l2.2 2.2-2.2 2.2c-2.2 2.2-2.2 2.3-2.3 2.5-0.1 0.5 0.1 0.9 0.5 1.1 0.2 0.1 0.5 0.1 0.8 0.1 0.1 0 0.8-0.7 2.4-2.3l2.2-2.2 2.2 2.2c1.6 1.6 2.3 2.3 2.4 2.3 0.3 0 0.6 0 0.8-0.1 0.4-0.2 0.6-0.6 0.5-1.1-0.1-0.2-0.1-0.3-2.3-2.5l-2.2-2.2 2.2-2.2c2.2-2.2 2.2-2.3 2.3-2.5 0.1-0.7-0.5-1.3-1.2-1.2-0.2 0.1-0.3 0.1-2.5 2.3l-2.2 2.2-2.2-2.2c-1.9-1.9-2.3-2.2-2.4-2.3-0.1 0-0.3 0-0.3 0 0 0-0.2 0-0.3 0" stroke="none" fill="black" fill-rule="evenodd"></path></svg>