<?xml version="1.0"?><svg xmlns="http://www.w3.org/2000/svg" width="24" height="24" viewBox="0 0 24 24" version="1.1"><rect x="0" y="0" width="24" height="24" fill="#00000000"></rect><path fill-opacity="0.388" d="M13 4.3c-0.1 0.6-4 15-4 15.1 0 0.1 0.1 0.1 0.9 0.3 0.5 0.2 1 0.3 1 0.3 0-0.1 4.1-15.2 4.1-15.4 0-0.1-0.1-0.1-0.9-0.3-0.5-0.2-1-0.3-1-0.3 0 0 0 0.1-0.1 0.3m-8.9 4.5l-2.8 2.9 2.8 2.8 2.8 2.8 0.7-0.7 0.7-0.7-2.1-2.1-2.1-2.1 2.1-2.1c1.2-1.2 2.1-2.1 2.1-2.2 0 0-0.3-0.3-0.7-0.7l-0.7-0.7-2.8 2.8m12.3-1.4l-0.7 0.7 2.1 2.1 2.1 2.1-2.1 2.1c-1.2 1.2-2.1 2.1-2.1 2.2 0 0 0.3 0.3 0.7 0.7l0.7 0.7 2.8-2.8 2.9-2.9-2.9-2.8c-1.5-1.5-2.8-2.8-2.8-2.8 0 0-0.3 0.3-0.7 0.7" stroke="none" fill="black" fill-rule="evenodd"></path><path fill-opacity="0.302" d="M13.1 4.2c-0.1 0.1-1 3.5-2.1 7.6-1.1 4.1-2 7.5-2 7.6 0 0.1 0.2 0.1 0.9 0.3 0.5 0.2 1 0.3 1 0.3 0 0 4.1-15.3 4.1-15.4 0-0.1-0.1-0.1-1.4-0.4l-0.5-0.2 0 0.2m-9 4.7l-2.8 2.8 2.8 2.8 2.8 2.8 0.7-0.7 0.7-0.7-2.1-2.1-2.1-2.1 2.1-2.1c1.2-1.2 2.1-2.1 2.1-2.2 0 0-1.3-1.3-1.4-1.3 0 0-1.3 1.2-2.8 2.8m12.3-1.5l-0.7 0.7 2.1 2.1 2.1 2.1-2.1 2.1c-1.2 1.2-2.1 2.1-2.1 2.2 0 0 1.3 1.3 1.4 1.3 0 0 1.3-1.2 2.8-2.8l2.9-2.8-2.9-2.8c-1.5-1.5-2.8-2.8-2.8-2.8 0 0-0.3 0.3-0.7 0.7" stroke="none" fill="black" fill-rule="evenodd"></path><path fill-opacity="0.449" d="M13.1 4.1c-0.2 0.7-4.1 15.3-4.1 15.3 0 0.1 1.8 0.6 1.9 0.5 0 0 4.1-15.3 4.1-15.3 0-0.1-1.7-0.6-1.8-0.6-0.1 0-0.1 0.1-0.1 0.1m-9 4.8l-2.8 2.8 2.8 2.8 2.8 2.8 0.7-0.7 0.7-0.7-2.1-2.1-2.1-2.1 2.1-2.2 2.1-2.1-0.7-0.7c-0.4-0.3-0.7-0.6-0.7-0.6 0 0-1.3 1.2-2.8 2.8m12.3-1.5l-0.7 0.7 2.1 2.1 2.1 2.2-2.1 2.1-2.1 2.1 0.7 0.7 0.7 0.7 2.8-2.9 2.9-2.8-2.9-2.8c-1.5-1.5-2.8-2.8-2.8-2.8 0 0-0.3 0.3-0.7 0.7" stroke="none" fill="black" fill-rule="evenodd"></path><path fill-opacity="0.967" d="M13 4.3c-0.9 3.5-4 15.1-4 15.1 0.1 0.1 1.9 0.6 1.9 0.5 0 0 4.1-15.3 4.1-15.3-0.1-0.1-1.8-0.6-1.9-0.6 0 0 0 0.2-0.1 0.3m-8.9 4.6l-2.8 2.8 2.8 2.8 2.8 2.8 0.7-0.7 0.7-0.7-2.1-2.1c-1.2-1.1-2.1-2.1-2.1-2.1 0-0.1 0.9-1 2.1-2.2l2.1-2.1-0.7-0.7c-0.4-0.3-0.7-0.6-0.7-0.6 0 0-1.3 1.2-2.8 2.8m12.3-1.5l-0.7 0.7 2.1 2.1c1.2 1.1 2.1 2.1 2.1 2.1 0 0.1-0.9 1-2.1 2.2l-2.1 2.1 0.7 0.7 0.7 0.7 2.8-2.9 2.8-2.8-2.8-2.8-2.8-2.8-0.7 0.7" stroke="none" fill="black" fill-rule="evenodd"></path></svg>