<?xml version="1.0"?><svg xmlns="http://www.w3.org/2000/svg" width="24" height="24" viewBox="0 0 24 24" version="1.1"><rect x="0" y="0" width="24" height="24" fill="#00000000"></rect><path fill-opacity="0.294" d="M13.7 6.8c-1.1 1.1-2 2.1-2 2.1 0 0 0.6 0.7 1.3 1.4l1.4 1.4 0.8-0.7 0.7-0.7 2.8 2.8 2.8 2.8 1.3-1.2 1.2-1.2 0-0.4 0-0.3-4-4.1c-2.2-2.2-4.1-4-4.1-4-0.1 0-1 0.9-2.2 2.1m-9.7 4.7l-4 4 0 0.5 0 0.5 1.2 1.2 1.2 1.1 2.8-2.8 2.8-2.8 2.8 2.8 2.9 2.8 1.4-1.4 1.4-1.4-4.3-4.2c-2.3-2.4-4.2-4.3-4.2-4.3 0 0-1.8 1.8-4 4" stroke="none" fill="black" fill-rule="evenodd"></path><path fill-opacity="0.256" d="M13.8 6.8l-2.2 2.1 1.1 1c0.6 0.6 1.2 1.2 1.4 1.4l0.3 0.4 0.8-0.7 0.7-0.7 2.8 2.8 2.8 2.8 1.3-1.2 1.2-1.2 0-0.4 0-0.3-4-4.1c-2.3-2.2-4.1-4-4.1-4 0 0-1 0.9-2.1 2.1m-9.8 4.7l-4 4 0 0.5 0 0.5 1.2 1.2 1.2 1.1 2.8-2.8 2.8-2.8 2.8 2.8 2.9 2.8 1.4-1.4 1.4-1.4-4.3-4.2c-2.3-2.4-4.2-4.3-4.2-4.3 0 0-1.8 1.8-4 4" stroke="none" fill="black" fill-rule="evenodd"></path><path fill-opacity="0.552" d="M13.8 6.8l-2.2 2.1 1.5 1.4 1.4 1.4 0.7-0.7 0.7-0.7 2.8 2.8 2.8 2.9 1.3-1.3 1.2-1.2 0-0.4 0-0.3-4.1-4.1-4-4.1-2.1 2.2m-9.8 4.7l-4 4 0 0.5 0 0.5 1.2 1.2 1.2 1.1 2.8-2.8 2.8-2.8 2.8 2.8 2.9 2.8 1.4-1.4 1.4-1.4-4.2-4.2c-2.4-2.3-4.3-4.2-4.3-4.2 0 0-1.8 1.7-4 3.9" stroke="none" fill="black" fill-rule="evenodd"></path><path fill-opacity="1.000" d="M13.8 6.8l-2.2 2.1 1.5 1.4 1.4 1.4 0.7-0.7 0.7-0.7 2.8 2.8 2.8 2.8 1.3-1.2 1.2-1.2 0-0.4 0-0.3-4.1-4.1-4-4.1-2.1 2.2m-9.8 4.7l-4 4 0 0.5 0 0.5 1.2 1.1 1.1 1.2 2.9-2.8 2.8-2.9 2.8 2.9 2.9 2.8 1.4-1.4 1.4-1.4-4.3-4.2c-2.3-2.3-4.2-4.2-4.2-4.2 0 0-1.8 1.7-4 3.9" stroke="none" fill="black" fill-rule="evenodd"></path></svg>