<?xml version="1.0"?><svg xmlns="http://www.w3.org/2000/svg" width="24" height="24" viewBox="0 0 24 24" version="1.1"><rect x="0" y="0" width="24" height="24" fill="#00000000"></rect><path fill-opacity="0.486" d="M7.6 0.1c-0.3 0.1-0.4 0.3-0.5 0.5-0.1 0.2-0.1 0.4-0.1 1.4 0 1.3 0 1.4 0.3 1.7 0.3 0.4 1.1 0.4 1.4 0 0.3-0.3 0.3-0.4 0.3-1.7 0-1.1 0-1.2-0.1-1.4-0.2-0.5-0.8-0.7-1.3-0.5m4 0c-0.3 0.1-0.4 0.3-0.5 0.5-0.1 0.2-0.1 0.4-0.1 1.4 0 1.3 0 1.4 0.3 1.7 0.3 0.4 1.1 0.4 1.4 0 0.3-0.3 0.3-0.4 0.3-1.7 0-1.1 0-1.2-0.1-1.4-0.2-0.5-0.8-0.7-1.3-0.5m4 0c-0.3 0.1-0.4 0.3-0.5 0.5-0.1 0.2-0.1 0.4-0.1 1.4 0 1.3 0 1.4 0.3 1.7 0.3 0.4 1.1 0.4 1.4 0 0.3-0.3 0.3-0.4 0.3-1.7 0-1.1 0-1.2-0.1-1.4-0.2-0.5-0.8-0.7-1.3-0.5m-12.6 9.2c0 3.5 0 4.3 0.1 4.7 0.4 2.5 2.4 4.5 4.9 4.9 0.7 0.1 7.3 0.1 8 0 1.9-0.3 3.5-1.5 4.4-3.2 0.2-0.5 0.4-1.1 0.5-1.5l0-0.2 0.4 0c0.8-0.1 1.6-0.4 2.3-1l0.4-0.3 0-2.7 0-2.6-0.1-0.2c-0.2-0.2-0.7-0.6-1.1-0.8-0.4-0.2-1-0.3-1.4-0.4l-0.4 0 0-0.5 0-0.5-9 0-9 0 0 4.3m2 1c0 3.2 0 3.3 0.1 3.7 0.4 1.4 1.5 2.5 2.9 2.9 0.4 0.1 0.4 0.1 4 0.1 3.6 0 3.6 0 4-0.1 1.4-0.4 2.5-1.5 2.9-2.9 0.1-0.4 0.1-0.5 0.1-3.7l0-3.3-7 0-7 0 0 3.3m16-0.3l0 2 0.2 0c0.8-0.1 1.4-0.6 1.7-1.3 0.1-0.4 0.1-1 0-1.4-0.3-0.7-0.9-1.2-1.7-1.3l-0.2 0 0 2" stroke="none" fill="black" fill-rule="evenodd"></path><path fill-opacity="0.237" d="M7.6 0.1c-0.2 0.1-0.5 0.4-0.6 0.6 0 0.1 0 0.7 0 1.4l0 1.2 0.2 0.3c0.4 0.5 1.2 0.5 1.6 0l0.2-0.3 0-1.3 0-1.3-0.2-0.3c-0.1-0.1-0.2-0.2-0.3-0.3-0.2-0.1-0.6-0.1-0.9 0m4 0c-0.2 0.1-0.5 0.4-0.6 0.6 0 0.1 0 0.7 0 1.4l0 1.2 0.2 0.3c0.4 0.5 1.2 0.5 1.6 0l0.2-0.3 0-1.3 0-1.3-0.2-0.3c-0.1-0.1-0.2-0.2-0.3-0.3-0.2-0.1-0.6-0.1-0.9 0m4 0c-0.2 0.1-0.5 0.4-0.6 0.6 0 0.1 0 0.7 0 1.4l0 1.2 0.2 0.3c0.4 0.5 1.2 0.5 1.6 0l0.2-0.3 0-1.3 0-1.3-0.2-0.3c-0.1-0.1-0.2-0.2-0.3-0.3-0.2-0.1-0.6-0.1-0.9 0m-12.6 9.1c0 4.5 0 4.6 0.3 5.5 0.1 0.5 0.5 1.4 0.9 1.9 0.9 1.2 2.3 2.1 3.9 2.3 0.7 0.1 7.1 0.1 7.8 0 1.2-0.2 2.3-0.7 3.2-1.5 0.8-0.8 1.4-1.8 1.7-2.9l0.1-0.5 0.4 0c0.9-0.1 1.8-0.5 2.5-1.1l0.2-0.3 0-2.6 0-2.6-0.3-0.3c-0.3-0.3-0.4-0.4-0.8-0.6-0.4-0.2-1.1-0.4-1.6-0.5l-0.3 0 0-0.5 0-0.5-9 0-9 0 0 4.2m2 1c0 3.4 0 3.5 0.3 4.3 0.4 1.1 1.5 2 2.7 2.4 0.3 0.1 0.6 0.1 4 0.1 3.4 0 3.7 0 4-0.1 1.2-0.4 2.3-1.3 2.7-2.5 0.3-0.7 0.3-0.8 0.3-4.2l0-3.2-7 0-7 0 0 3.2m16-0.2c0 1.1 0 2 0 2 0.1 0 0.2 0 0.4-0.1 0.6-0.1 1.1-0.5 1.4-1.1 0.2-0.3 0.2-0.4 0.2-0.8 0-0.4 0-0.5-0.2-0.8-0.3-0.7-0.8-1.1-1.6-1.2l-0.2 0 0 2" stroke="none" fill="black" fill-rule="evenodd"></path><path fill-opacity="0.410" d="M7.8 0c-0.3 0.1-0.5 0.3-0.7 0.5-0.1 0.2-0.1 0.2-0.1 1.5l0 1.3 0.2 0.2c0.1 0.3 0.5 0.5 0.8 0.5 0.3 0 0.7-0.2 0.8-0.5l0.2-0.2 0-1.3c0-1.3 0-1.3-0.1-1.5-0.3-0.3-0.7-0.6-1.1-0.5m4 0c-0.3 0.1-0.5 0.3-0.7 0.5-0.1 0.2-0.1 0.2-0.1 1.5l0 1.3 0.2 0.2c0.1 0.3 0.5 0.5 0.8 0.5 0.3 0 0.7-0.2 0.8-0.5l0.2-0.2 0-1.3c0-1.3 0-1.3-0.1-1.5-0.3-0.3-0.7-0.6-1.1-0.5m4 0c-0.3 0.1-0.5 0.3-0.7 0.5-0.1 0.2-0.1 0.2-0.1 1.5l0 1.3 0.2 0.2c0.1 0.3 0.5 0.5 0.8 0.5 0.3 0 0.7-0.2 0.8-0.5l0.2-0.2 0-1.3c0-1.3 0-1.3-0.1-1.5-0.3-0.3-0.7-0.6-1.1-0.5m-12.8 9.1c0 2.5 0 4.3 0.1 4.5 0.3 2.7 2.2 4.8 4.9 5.3 0.3 0.1 1.3 0.1 4 0.1 2.7 0 3.7 0 4-0.1 2.1-0.4 3.8-1.7 4.5-3.6 0.1-0.3 0.2-0.6 0.3-0.9l0.1-0.4 0.4 0c0.9-0.1 1.8-0.5 2.4-1.1l0.3-0.3 0-2.6 0-2.6-0.3-0.3c-0.6-0.6-1.4-1-2.4-1.1l-0.3 0 0-0.5 0-0.5-9 0-9 0 0 4.1m2 1.3c0 3.3 0 3.3 0.1 3.7 0.4 1.3 1.5 2.3 2.8 2.8l0.4 0.1 3.7 0 3.7 0 0.4-0.1c1.3-0.5 2.4-1.5 2.8-2.8 0.1-0.4 0.1-0.4 0.1-3.7l0-3.4-7 0-7 0 0 3.4m16-0.4l0 2 0.1 0c0.2 0 0.7-0.1 0.9-0.3 1.2-0.7 1.3-2.2 0.4-3.2-0.4-0.3-0.9-0.5-1.3-0.5l-0.1 0 0 2" stroke="none" fill="black" fill-rule="evenodd"></path><path fill-opacity="0.966" d="M7.7 0.1c-0.3 0.1-0.5 0.3-0.6 0.6-0.1 0.3-0.1 2.1 0 2.5 0.1 0.5 0.4 0.8 0.9 0.8 0.5 0 0.8-0.3 0.9-0.8 0.1-0.3 0.1-2.1 0-2.4-0.1-0.6-0.6-0.9-1.2-0.7m4 0c-0.3 0.1-0.5 0.3-0.6 0.6-0.1 0.3-0.1 2.1 0 2.5 0.1 0.5 0.4 0.8 0.9 0.8 0.5 0 0.8-0.3 0.9-0.8 0.1-0.3 0.1-2.1 0-2.4-0.1-0.6-0.6-0.9-1.2-0.7m4 0c-0.3 0.1-0.5 0.3-0.6 0.6-0.1 0.3-0.1 2.1 0 2.5 0.1 0.5 0.4 0.8 0.9 0.8 0.5 0 0.8-0.3 0.9-0.8 0.1-0.3 0.1-2.1 0-2.4-0.1-0.6-0.6-0.9-1.2-0.7m-12.7 9.3c0 4.2 0 4.3 0.1 4.8 0.6 2.5 2.4 4.2 5 4.7 0.2 0.1 1.2 0.1 3.9 0.1 3.8 0 3.8 0 4.7-0.3 1.6-0.4 2.9-1.6 3.6-3 0.2-0.4 0.5-1.3 0.6-1.5 0-0.2 0-0.2 0.5-0.2 0.9-0.1 1.7-0.5 2.3-1.1l0.3-0.3 0-2.6 0-2.6-0.3-0.3c-0.7-0.6-1.4-0.9-2.5-1.1l-0.2 0 0-0.5 0-0.5-9 0-9 0 0 4.4m2 1l0 3.4 0.2 0.4c0.4 1.1 1 1.9 2 2.4 0.8 0.4 0.5 0.4 4.6 0.4 4 0 4.1 0 4.7-0.3 1.2-0.5 1.9-1.3 2.4-2.6l0.1-0.3 0-3.4 0-3.4-7 0-7 0 0 3.4m16-0.4l0 2 0.3 0c0.6-0.1 1.3-0.6 1.5-1.2 0.2-0.2 0.2-0.3 0.2-0.8 0-0.5 0-0.6-0.2-0.8-0.2-0.6-0.9-1.1-1.5-1.2l-0.3 0 0 2" stroke="none" fill="black" fill-rule="evenodd"></path></svg>