<?xml version="1.0"?><svg xmlns="http://www.w3.org/2000/svg" width="24" height="24" viewBox="0 0 24 24" version="1.1"><rect x="0" y="0" width="24" height="24" fill="#00000000"></rect><path fill-opacity="0.404" d="M11.2 7.1c-0.8 0.2-1.5 0.8-1.9 1.6-0.3 0.6-0.3 0.6-0.3 4.1l0 3.3-1.5 1.5c-0.9 0.9-1.7 1.7-1.8 1.9-0.8 1.2-0.9 2.8-0.2 4.1l0.2 0.4 1.4 0 1.4 0-0.5-0.6c-0.7-0.6-0.8-0.9-0.9-1.4-0.1-0.4 0-0.8 0.2-1.2 0.1-0.2 0.5-0.6 2.9-3.1l2.8-2.8 0 1.1 0 1 1 0 1 0 0-1.7 0-1.8 3.4 3.4 3.4 3.4-1.9 1.8-1.8 1.9 1.4 0 1.4 0 1.6-1.5 1.5-1.6 0-0.6 0-0.6-4.5-4.5-4.5-4.5 0-0.5c0-0.7-0.1-1.1-0.3-1.5-0.6-1.3-2.1-2-3.5-1.6m0.6 1.9c-0.3 0.1-0.5 0.3-0.7 0.5-0.1 0.2-0.1 0.2-0.1 2.4l0 2.2 1-1 1-1 0-1.2c0-1.3 0-1.3-0.3-1.6-0.3-0.2-0.6-0.3-0.9-0.3m11.6 14.3c-0.3 0.4-0.6 0.6-0.6 0.7 0 0 0.3 0 0.6 0l0.6 0 0-0.6c0-0.4 0-0.6 0-0.6 0 0-0.3 0.2-0.6 0.5" stroke="none" fill="black" fill-rule="evenodd"></path><path fill-opacity="0.335" d="M11.4 7.1c-0.9 0.2-1.7 0.8-2.1 1.6-0.3 0.6-0.3 0.7-0.3 4.2l0 3.2-1.5 1.5c-1.6 1.6-1.9 2-2.1 2.5-0.5 1.2-0.4 2.5 0.2 3.6l0.2 0.3 1.3 0 1.4 0-0.5-0.6c-0.7-0.6-0.8-0.8-0.9-1.2-0.1-0.4 0-0.9 0.2-1.3 0.1-0.3 0.3-0.6 2.9-3.2l2.8-2.8 0 1.1 0 1 1 0 1 0 0-1.7 0-1.8 3.4 3.4 3.4 3.4-1.9 1.8-1.8 1.9 1.4 0 1.4 0 1.5-1.6 1.6-1.5 0-0.6 0-0.6-4.5-4.5-4.5-4.5 0-0.5c0-0.6-0.1-1.1-0.3-1.5-0.6-1.2-2-1.9-3.3-1.6m0.2 2c-0.2 0.1-0.5 0.3-0.5 0.6-0.1 0.1-0.1 1-0.1 2.3l0 2.1 1-1 1-1 0-1.2 0-1.2-0.2-0.3c-0.1-0.1-0.2-0.2-0.3-0.3-0.2-0.1-0.6-0.1-0.9 0m11.8 14.3l-0.6 0.6 0.6 0 0.6 0 0-0.6c0-0.3 0-0.6 0-0.6 0 0-0.3 0.3-0.6 0.6" stroke="none" fill="black" fill-rule="evenodd"></path><path fill-opacity="0.535" d="M11.4 7.1c-1 0.2-1.9 1-2.2 2l-0.2 0.4 0 3.3 0 3.3-1.6 1.6-1.6 1.7-0.3 0.5c-0.3 0.7-0.4 1.1-0.4 1.8 0 0.8 0.2 1.5 0.5 2.1l0.2 0.2 1.3 0 1.4 0-0.6-0.6c-0.3-0.3-0.6-0.7-0.6-0.7-0.3-0.7-0.3-1.5 0-2 0.1-0.2 1.4-1.5 2.9-3l2.8-2.8 0 1.1 0 1 1 0 1 0 0-1.7 0-1.8 3.4 3.4 3.4 3.4-1.9 1.8-1.8 1.9 1.4 0 1.4 0 1.5-1.6 1.6-1.5 0-0.6 0-0.6-4.5-4.5-4.5-4.5 0-0.6c0-0.5-0.1-0.7-0.2-1-0.3-1-1.2-1.8-2.2-2-0.5-0.1-0.8-0.1-1.2 0m0.2 2c-0.3 0.1-0.4 0.3-0.5 0.5-0.1 0.2-0.1 0.5-0.1 2.4l0 2.1 1-1 1-1 0-1.1c0-1.1 0-1.2-0.1-1.4-0.2-0.5-0.8-0.7-1.3-0.5m11.8 14.3l-0.6 0.6 0.6 0 0.6 0 0-0.6c0-0.3 0-0.6 0-0.6 0 0-0.3 0.3-0.6 0.6" stroke="none" fill="black" fill-rule="evenodd"></path><path fill-opacity="0.957" d="M11.6 7.1c-1.2 0.1-2.1 0.9-2.5 2.1-0.1 0.3-0.1 0.6-0.1 3.6l0 3.3-1.5 1.6c-0.9 0.8-1.7 1.6-1.7 1.8-0.5 0.6-0.7 1.4-0.7 2.2 0 0.7 0.1 1.2 0.4 1.8l0.3 0.5 1.3 0 1.4 0-0.6-0.6c-0.7-0.7-0.8-1-0.8-1.7 0-0.9-0.2-0.7 3.1-4l2.8-2.8 0 1.1 0 1 1 0 1 0 0-1.8 0-1.7 3.4 3.4 3.4 3.4-1.9 1.8-1.8 1.9 1.4 0 1.4 0 1.5-1.6 1.6-1.5 0-0.6 0-0.6-4.5-4.5-4.5-4.5 0-0.6c-0.1-0.7-0.1-1-0.4-1.5-0.5-1.1-1.8-1.7-3-1.5m0 2c-0.2 0.1-0.4 0.2-0.5 0.5-0.1 0.1-0.1 0.3-0.1 2.3l0 2.2 1-1 1-1 0-1.2c0-1 0-1.2-0.1-1.3-0.2-0.5-0.8-0.7-1.3-0.5m11.8 14.3l-0.6 0.6 0.6 0 0.6 0 0-0.6c0-0.3 0-0.6 0-0.6 0 0-0.3 0.3-0.6 0.6" stroke="none" fill="black" fill-rule="evenodd"></path></svg>