<?xml version="1.0"?><svg xmlns="http://www.w3.org/2000/svg" width="24" height="24" viewBox="0 0 24 24" version="1.1"><rect x="0" y="0" width="24" height="24" fill="#00000000"></rect><path fill-opacity="0.310" d="M19.8 0.1c-0.4 0.2-0.6 0.4-1.8 1.6l-1 1.1-0.4-0.4c-0.5-0.4-0.6-0.5-0.9-0.6-0.8-0.1-1.4 0.7-1.1 1.4 0.1 0.2 5.7 5.8 6 6.1 0.3 0.2 0.7 0.2 1 0.1 0.5-0.3 0.7-0.8 0.5-1.3 0-0.1-0.3-0.4-0.5-0.6l-0.4-0.4 1.2-1.3c1-1 1.3-1.4 1.4-1.6l0.2-0.3 0-1.1 0-1.1-0.2-0.3c-0.2-0.4-0.7-1-1.2-1.2l-0.3-0.2-1.1 0c-1.1 0-1.1 0-1.4 0.1m-9.1 9c-2.3 2.3-4.3 4.3-4.4 4.5-0.5 0.6-0.9 1.5-1.1 2.2-0.1 0.2-0.1 0.5-0.1 1l0 0.7-0.8 0.8-0.8 0.8 0.7 0.7 0.7 0.7 0.8-0.8 0.8-0.8 0.7 0c0.8 0 1.2-0.1 2-0.4 0.5-0.3 0.8-0.5 1.2-0.8 0.2-0.1 2.2-2.1 4.5-4.4l4.1-4.1-2-2.1c-1.2-1.2-2.1-2.1-2.1-2.1-0.1 0-1.9 1.8-4.2 4.1m0.6 2.2c-2.9 2.9-3.5 3.6-3.8 4-0.3 0.5-0.5 0.9-0.5 1.2-0.1 0.3-0.1 0.3 0.1 0.4 0.1 0.2 0.1 0.2 0.4 0.1 0.3 0 0.9-0.3 1.5-0.7 0.3-0.3 1.5-1.4 3.8-3.7 1.9-1.9 3.4-3.4 3.4-3.4 0-0.1-1.3-1.4-1.4-1.4 0 0-1.6 1.6-3.5 3.5" stroke="none" fill="black" fill-rule="evenodd"></path><path fill-opacity="0.210" d="M19.8 0.2c-0.3 0.1-0.6 0.4-1.6 1.4l-1.2 1.2-0.5-0.4c-0.4-0.4-0.5-0.5-0.7-0.6-0.3 0-0.7 0.1-0.9 0.2-0.3 0.3-0.4 0.9-0.2 1.3 0.1 0.2 5.8 5.9 6.1 6.1 0.2 0.1 0.6 0.1 0.9-0.1 0.2-0.1 0.4-0.4 0.5-0.7 0-0.4-0.1-0.6-0.6-1.1l-0.4-0.5 1.2-1.2c1-1 1.3-1.3 1.4-1.6l0.2-0.3 0-1.1 0-1.1-0.2-0.3c-0.2-0.4-0.7-1-1.2-1.2l-0.3-0.2-1.1 0-1.1 0-0.3 0.2m-9.2 9c-4.6 4.6-4.5 4.5-5.1 5.7-0.3 0.7-0.4 1.1-0.4 1.9l0 0.7-0.8 0.8-0.8 0.8 0.7 0.7 0.7 0.7 0.8-0.8 0.8-0.8 0.7 0c0.5 0 0.8 0 1.1-0.1 0.5-0.1 1.2-0.5 1.8-0.9 0.5-0.3 0.9-0.7 4.7-4.5l4.3-4.2-2.2-2.1-2.1-2.2-4.2 4.3m0.9 1.9c-1.8 1.8-3.4 3.4-3.5 3.6-0.6 0.6-1 1.4-1 1.8-0.1 0.3 0 0.3 0.1 0.4 0.1 0.2 0.1 0.2 0.4 0.1 0.4 0 0.9-0.3 1.5-0.7 0.3-0.3 1.5-1.4 3.8-3.7 1.9-1.9 3.4-3.4 3.4-3.4 0-0.1-1.3-1.4-1.4-1.4 0 0-1.5 1.5-3.3 3.3" stroke="none" fill="black" fill-rule="evenodd"></path><path fill-opacity="0.482" d="M19.8 0.2c-0.3 0.1-0.5 0.3-1.6 1.4l-1.2 1.2-0.5-0.4c-0.4-0.4-0.5-0.5-0.7-0.5-0.6-0.2-1.2 0.2-1.2 0.8-0.1 0.5-0.2 0.4 3 3.6 2 2 3 3 3.2 3.1 0.7 0.3 1.6-0.4 1.3-1.2 0-0.2-0.1-0.3-0.5-0.7l-0.4-0.5 1.2-1.1c0.6-0.7 1.2-1.3 1.3-1.5 0.3-0.4 0.3-0.5 0.3-1.6l0-1.1-0.2-0.3c-0.2-0.5-0.7-1-1.2-1.2l-0.3-0.2-1.1 0-1.1 0-0.3 0.2m-9.1 8.9c-2.5 2.5-4.3 4.3-4.4 4.5-0.9 1.3-1.4 2.7-1.2 3.6l0 0.2-0.8 0.8c-0.4 0.5-0.7 0.8-0.7 0.9 0 0 1.3 1.4 1.3 1.4 0.1 0 0.4-0.4 0.9-0.8l0.8-0.8 0.3 0c0.9 0.2 2.5-0.4 3.7-1.3 0.2-0.2 2.2-2.2 4.4-4.4l4.1-4-2.2-2.1-2.1-2.2-4.1 4.2m0.7 2.1c-2.3 2.3-3.5 3.5-3.7 3.8-0.7 0.9-0.9 1.6-0.6 1.9 0.2 0.3 1 0.1 1.9-0.6 0.3-0.2 1.4-1.3 3.8-3.7l3.5-3.4-0.8-0.7-0.7-0.8-3.4 3.5" stroke="none" fill="black" fill-rule="evenodd"></path><path fill-opacity="0.972" d="M19.8 0.2c-0.3 0.1-0.6 0.4-1.6 1.4l-1.3 1.2-0.4-0.4c-0.2-0.2-0.5-0.4-0.6-0.5-0.2-0.1-0.5-0.1-0.7 0-0.3 0.1-0.6 0.5-0.6 0.9-0.1 0.4-0.1 0.4 3 3.5 2 2 3 3 3.2 3.1 0.3 0.1 0.5 0.1 0.8-0.1 0.4-0.1 0.5-0.4 0.5-0.8 0.1-0.4 0-0.5-0.5-1l-0.4-0.5 1.1-1.1c1.2-1.2 1.4-1.4 1.6-1.8 0.1-0.2 0.1-0.3 0.1-1.3l0-1-0.1-0.3c-0.3-0.6-0.8-1-1.4-1.3l-0.2-0.2-1.1 0-1.1 0-0.3 0.2m-9.1 8.9c-4.6 4.6-4.6 4.6-5.1 5.7-0.4 0.9-0.6 1.7-0.5 2.4l0 0.3-0.8 0.8-0.7 0.8 0.6 0.7 0.7 0.6 0.8-0.8 0.8-0.8 0.3 0.1c0.6 0.1 1.5-0.1 2.4-0.5 1.1-0.5 1.1-0.5 5.7-5.1l4.2-4.1-2.2-2.1-2.1-2.2-4.1 4.2m0.7 2.1c-3.6 3.6-3.9 3.9-4.3 4.7-0.3 0.6-0.2 1 0.1 1.1 0.4 0.1 1.1-0.1 1.9-0.8 0.3-0.2 1.6-1.5 3.8-3.7l3.4-3.3-0.8-0.7-0.7-0.8-3.4 3.5" stroke="none" fill="black" fill-rule="evenodd"></path></svg>