<?xml version="1.0"?><svg xmlns="http://www.w3.org/2000/svg" width="24" height="24" viewBox="0 0 24 24" version="1.1"><rect x="0" y="0" width="24" height="24" fill="#00000000"></rect><path fill-opacity="0.302" d="M2 13l0 9 3.2 0 3.1 0 0.2 0.3c0.1 0.4 0.4 1 0.8 1.4l0.2 0.3 2.1 0c1.5 0 2.1 0 1.8-0.1-0.8-0.1-1.6-0.5-2.2-1.1-0.6-0.6-1-1.4-1.2-2.4l0-0.4-3 0-3 0 0-7 0-7 8 0 8 0 0 7 0 7-3 0-3 0 0 2 0 2 1 0 1 0 0-1 0-1 3 0 3 0 0-9 0-9-10 0-10 0 0 9m6-2l0 1 4 0 4 0 0-1 0-1-4 0-4 0 0 1m0 4l0 1 4 0 4 0 0-1 0-1-4 0-4 0 0 1" stroke="none" fill="black" fill-rule="evenodd"></path><path fill-opacity="0.393" d="M2 13l0 9 3.2 0 3.1 0 0.2 0.4c0.2 0.4 0.7 1.2 0.9 1.5l0.1 0.1 2.1 0 2 0-0.4-0.1c-1.3-0.3-2.4-1.2-2.9-2.4-0.2-0.4-0.3-1-0.3-1.3l0-0.2-3 0-3 0 0-7 0-7 8 0 8 0 0 7 0 7-3 0-3 0 0 2 0 2 1 0 1 0 0-1 0-1 3 0 3 0 0-9 0-9-10 0-10 0 0 9m6-2l0 1 4 0 4 0 0-1 0-1-4 0-4 0 0 1m0 4l0 1 4 0 4 0 0-1 0-1-4 0-4 0 0 1" stroke="none" fill="black" fill-rule="evenodd"></path><path fill-opacity="0.445" d="M2 13l0 9 3.2 0 3.1 0 0.3 0.6c0.2 0.3 0.4 0.8 0.6 1l0.3 0.4 2 0c1.9 0 2 0 1.8-0.1-1.1-0.2-2-0.8-2.6-1.7-0.4-0.5-0.7-1.4-0.7-2l0-0.2-3 0-3 0 0-7 0-7 8 0 8 0 0 7 0 7-3 0-3 0 0 2 0 2 1 0 1 0 0-1 0-1 3 0 3 0 0-9 0-9-10 0-10 0 0 9m6-2l0 1 4 0 4 0 0-1 0-1-4 0-4 0 0 1m0 4l0 1 4 0 4 0 0-1 0-1-4 0-4 0 0 1" stroke="none" fill="black" fill-rule="evenodd"></path><path fill-opacity="0.967" d="M2 13l0 9 3.2 0 3.2 0 0 0.1c0.1 0.3 0.5 1.1 0.8 1.5l0.3 0.4 2 0c1.8 0 2 0 1.7-0.1-1.7-0.3-3.1-1.8-3.2-3.5l0-0.4-3 0-3 0 0-7 0-7 8 0 8 0 0 7 0 7-3 0-3 0 0 2 0 2 1 0 1 0 0-1 0-1 3 0 3 0 0-9 0-9-10 0-10 0 0 9m6-2l0 1 4 0 4 0 0-1 0-1-4 0-4 0 0 1m0 4l0 1 4 0 4 0 0-1 0-1-4 0-4 0 0 1" stroke="none" fill="black" fill-rule="evenodd"></path></svg>