<?xml version="1.0"?><svg xmlns="http://www.w3.org/2000/svg" width="24" height="24" viewBox="0 0 24 24" version="1.1"><rect x="0" y="0" width="24" height="24" fill="#00000000"></rect><path fill-opacity="0.329" d="M6.3 8.5c-0.4 0.3-0.7 0.6-0.7 0.7 0 0 0.4 0.4 0.9 0.9l0.9 0.9-3.7 0-3.7 0 0 1 0 1 3.7 0 3.7 0-0.9 0.9c-0.5 0.5-0.9 0.9-0.9 0.9 0 0.1 0.3 0.4 0.7 0.7l0.7 0.7 1.5-1.4c0.8-0.8 1.8-1.8 2.1-2.2l0.7-0.6-2.1-2.1c-1.2-1.2-2.2-2.1-2.2-2.1 0 0-0.3 0.3-0.7 0.7m8.5 1.4l-2.1 2.1 1.3 1.3c0.7 0.7 1.7 1.7 2.2 2.1l0.8 0.8 0.7-0.7 0.7-0.7-0.9-0.9-0.9-0.9 3.7 0 3.7 0 0-1 0-1-3.7 0-3.7 0 0.9-0.9 0.9-0.9-0.7-0.7c-0.4-0.4-0.7-0.7-0.7-0.7 0 0-1 0.9-2.2 2.1" stroke="none" fill="black" fill-rule="evenodd"></path><path fill-opacity="0.310" d="M6.3 8.5l-0.7 0.7 0.9 0.9 0.9 0.9-3.7 0-3.7 0 0 1 0 1 3.7 0 3.7 0-0.9 0.9-0.9 0.9 0.7 0.7 0.7 0.7 2.1-2.1c1.2-1.1 2.2-2.1 2.2-2.1 0 0-4.3-4.2-4.3-4.2 0 0-0.3 0.3-0.7 0.7m8.6 1.4l-2.2 2.1 0.6 0.6c0.3 0.3 1.3 1.2 2.1 2.1l1.6 1.5 0.7-0.7 0.7-0.7-0.9-0.9-0.9-0.9 3.7 0 3.7 0 0-1 0-1-3.7 0-3.7 0 0.9-0.9 0.9-0.9-0.7-0.7c-0.4-0.4-0.7-0.7-0.7-0.7 0 0-1 0.9-2.1 2.1" stroke="none" fill="black" fill-rule="evenodd"></path><path fill-opacity="0.153" d="M6.3 8.5l-0.7 0.7 0.9 0.9 0.9 0.9-3.7 0-3.7 0 0 1 0 1 3.7 0 3.7 0-0.9 0.9-0.9 0.9 0.7 0.7 0.7 0.7 2.1-2.1c1.2-1.1 2.1-2.1 2.1-2.1 0 0-4.2-4.2-4.2-4.2 0 0-0.3 0.3-0.7 0.7m8.6 1.4l-2.2 2.1 0.2 0.1c0 0.1 1 1 2.1 2.1l2 2 0.7-0.7 0.7-0.7-0.9-0.9-0.9-0.9 3.7 0 3.7 0 0-1 0-1-3.7 0-3.7 0 0.9-0.9 0.9-0.9-0.7-0.7c-0.4-0.4-0.7-0.7-0.7-0.7 0 0-1 1-2.1 2.1" stroke="none" fill="black" fill-rule="evenodd"></path><path fill-opacity="1.000" d="M6.3 8.5l-0.7 0.7 0.9 0.9 0.9 0.9-3.7 0-3.7 0 0 1 0 1 3.7 0 3.7 0-0.9 0.9-0.9 0.9 0.7 0.7 0.7 0.7 2.1-2.1 2.1-2.1-2.1-2.1c-1.1-1.2-2.1-2.1-2.1-2.1 0 0-0.3 0.3-0.7 0.7m8.6 1.4l-2.1 2.1 2.1 2.1 2.1 2.1 0.7-0.7 0.7-0.7-0.9-0.9-0.9-0.9 3.7 0 3.7 0 0-1 0-1-3.7 0-3.7 0 0.9-0.9 0.9-0.9-0.7-0.7c-0.4-0.4-0.7-0.7-0.7-0.7 0 0-1 0.9-2.1 2.1" stroke="none" fill="black" fill-rule="evenodd"></path></svg>