<?xml version="1.0"?><svg xmlns="http://www.w3.org/2000/svg" width="24" height="24" viewBox="0 0 24 24" version="1.1"><rect x="0" y="0" width="24" height="24" fill="#00000000"></rect><path fill-opacity="0.420" d="M9.5 1.8l-1.7 1.7 0.7 0.7 0.7 0.7 1.4-1.4 1.4-1.4 1.4 1.4 1.4 1.5 0.7-0.8 0.7-0.7-1.7-1.7-1.8-1.8-0.7 0-0.7 0-1.8 1.8m-7.7 7.7l-1.8 1.8 0 0.7 0 0.7 1.8 1.8 1.7 1.7 0.7-0.7 0.8-0.7-1.5-1.4-1.4-1.4 1.4-1.4 1.5-1.4-0.8-0.7-0.7-0.7-1.7 1.7m18-1l-0.7 0.7 1.4 1.4 1.4 1.4-1.4 1.4-1.5 1.4 0.8 0.7 0.7 0.7 1.7-1.7 1.8-1.8 0-0.7 0-0.7-1.8-1.8-1.7-1.7-0.7 0.7m-8.6-0.4c-1.2 0.2-2.2 1-2.8 2.1-0.3 0.7-0.4 1-0.4 1.8 0 0.6 0 0.7 0.1 1.1 0.4 1.3 1.5 2.3 2.8 2.8 0.3 0.1 0.5 0.1 1.1 0.1 0.6 0 0.8 0 1.1-0.1 1.3-0.5 2.4-1.5 2.8-2.8 0.1-0.5 0.1-1.6 0-2.1-0.2-0.8-0.8-1.6-1.4-2.1-0.4-0.3-0.9-0.6-1.4-0.8-0.5-0.1-1.4-0.1-1.9 0m0.4 2c-0.8 0.1-1.4 0.8-1.6 1.6-0.2 1.3 1 2.5 2.3 2.3 1.6-0.3 2.2-2.3 1.1-3.4-0.3-0.3-0.7-0.5-1.1-0.6-0.3 0-0.3 0-0.7 0.1m-3.1 9.7l-0.7 0.7 1.7 1.7 1.8 1.8 0.7 0 0.7 0 1.8-1.8 1.7-1.7-0.7-0.7-0.7-0.8-1.4 1.5-1.4 1.4-1.4-1.4-1.4-1.5-0.7 0.8" stroke="none" fill="black" fill-rule="evenodd"></path><path fill-opacity="0.263" d="M9.5 1.8l-1.7 1.7 0.7 0.7 0.7 0.7 1.4-1.4 1.4-1.4 1.4 1.4 1.4 1.5 0.7-0.8 0.7-0.7-1.7-1.7-1.8-1.8-0.7 0-0.7 0-1.8 1.8m-7.8 7.7l-1.7 1.8 0 0.7 0 0.7 1.7 1.8c1 0.9 1.8 1.7 1.8 1.7 0.1 0 0.4-0.3 0.8-0.7l0.7-0.7-1.5-1.4-1.4-1.4 1.4-1.4 1.5-1.4-0.7-0.7c-0.4-0.4-0.7-0.7-0.8-0.7 0 0-0.8 0.8-1.8 1.7m18-1l-0.6 0.7 1.4 1.4 1.4 1.4-1.4 1.4-1.5 1.4 0.7 0.7c0.4 0.4 0.7 0.7 0.8 0.7 0 0 0.8-0.8 1.8-1.7l1.7-1.8 0-0.7 0-0.7-1.7-1.8c-1-0.9-1.8-1.7-1.8-1.7-0.1 0-0.4 0.3-0.8 0.7m-8.4-0.4c-1.2 0.2-2.1 0.9-2.7 1.8-0.7 1.1-0.8 2.4-0.3 3.6 0.4 1.1 1.5 2 2.7 2.4 0.2 0 0.5 0.1 1 0.1 0.9 0 1.5-0.2 2.2-0.7 2.1-1.4 2.4-4.3 0.6-6.1-0.4-0.4-0.5-0.5-0.9-0.7-0.7-0.4-1.9-0.6-2.6-0.4m0.3 2c-0.6 0.1-1.1 0.5-1.4 1.1-0.2 0.3-0.2 0.4-0.2 0.8 0 0.4 0 0.5 0.2 0.8 0.3 0.6 0.8 1 1.5 1.2 0.9 0.1 1.7-0.4 2.1-1.2 0.2-0.3 0.2-0.4 0.2-0.8 0-0.4 0-0.5-0.2-0.8-0.4-0.9-1.3-1.3-2.2-1.1m-3.1 9.7l-0.7 0.7 1.7 1.7 1.8 1.8 0.7 0 0.7 0 1.8-1.8 1.7-1.7-0.7-0.7-0.7-0.8-1.4 1.5-1.4 1.4-1.4-1.4-1.4-1.5-0.7 0.8" stroke="none" fill="black" fill-rule="evenodd"></path><path fill-opacity="0.422" d="M9.5 1.8l-1.7 1.7 0.7 0.7 0.7 0.7 1.4-1.4 1.4-1.4 1.4 1.4 1.4 1.4 0.7-0.7 0.7-0.7-1.7-1.7-1.8-1.8-0.7 0-0.7 0-1.8 1.8m-7.8 7.7l-1.7 1.8 0 0.7 0 0.7 1.8 1.8 1.7 1.7 0.7-0.7 0.7-0.7-1.4-1.4-1.4-1.4 1.4-1.4 1.4-1.4-0.7-0.7c-0.4-0.4-0.7-0.7-0.7-0.7 0 0-0.8 0.8-1.8 1.7m18.1-1l-0.7 0.7 1.4 1.4 1.4 1.4-1.4 1.4-1.4 1.4 0.7 0.7 0.7 0.7 1.8-1.7 1.7-1.8 0-0.7 0-0.7-1.7-1.8c-1-0.9-1.8-1.7-1.8-1.7 0 0-0.3 0.3-0.7 0.7m-8.6-0.4c-0.9 0.2-1.5 0.5-2.1 1.2-0.4 0.5-0.8 1-1 1.7 0 0.3-0.1 0.5-0.1 1 0 0.7 0.1 1.2 0.4 1.8 0.5 1 1.5 1.7 2.6 2.1 0.5 0.1 1.5 0.1 2 0 1.4-0.4 2.5-1.5 2.9-2.9 0.1-0.5 0.1-1.5 0-2-0.4-1.2-1.3-2.2-2.3-2.7-0.5-0.2-1.2-0.3-1.6-0.3-0.2 0-0.6 0-0.8 0.1m0.2 2c-0.6 0.1-1.2 0.7-1.3 1.4-0.4 1.4 0.8 2.7 2.2 2.5 1.7-0.3 2.3-2.3 1.1-3.5-0.5-0.4-1.3-0.6-2-0.4m-2.9 9.7l-0.7 0.7 1.7 1.8 1.8 1.7 0.7 0 0.7 0 1.8-1.7 1.7-1.8-0.7-0.7-0.7-0.7-1.4 1.4-1.4 1.4-1.4-1.4c-0.8-0.8-1.4-1.4-1.4-1.4 0 0-0.3 0.3-0.7 0.7" stroke="none" fill="black" fill-rule="evenodd"></path><path fill-opacity="0.968" d="M9.5 1.8l-1.7 1.7 0.7 0.7 0.7 0.7 1.4-1.4 1.4-1.4 1.4 1.4 1.4 1.4 0.7-0.7 0.7-0.7-1.7-1.7-1.8-1.8-0.7 0-0.7 0-1.8 1.8m-7.8 7.7l-1.7 1.8 0 0.7 0 0.7 1.8 1.8 1.7 1.7 0.7-0.7 0.7-0.7-1.4-1.4-1.4-1.4 1.4-1.4 1.4-1.4-0.7-0.7c-0.4-0.4-0.7-0.7-0.7-0.7 0 0-0.8 0.8-1.8 1.7m18.1-1l-0.7 0.7 1.4 1.4 1.4 1.4-1.4 1.4-1.4 1.4 0.7 0.7 0.7 0.7 1.8-1.7 1.7-1.8 0-0.7 0-0.7-1.7-1.8c-1-0.9-1.8-1.7-1.8-1.7 0 0-0.3 0.3-0.7 0.7m-8.3-0.4c-1.4 0.2-2.5 1-3.1 2.2-0.5 1.1-0.5 2.3 0 3.4 0.5 1 1.5 1.9 2.6 2.2 0.5 0.1 1.4 0.1 1.9 0 1.2-0.3 2.2-1.1 2.7-2.2 0.5-1.1 0.5-2.3 0-3.4-0.6-1.3-1.9-2.2-3.4-2.3-0.2 0-0.6 0-0.7 0.1m-0.1 2c-0.5 0.1-1 0.6-1.2 1.1-0.2 0.2-0.2 0.3-0.2 0.8 0 0.5 0 0.5 0.2 0.9 0.2 0.4 0.6 0.8 1 0.9 0.2 0.2 0.3 0.2 0.8 0.2 0.5 0 0.5 0 0.9-0.2 0.4-0.2 0.8-0.6 0.9-1 0.2-0.2 0.2-0.3 0.2-0.8 0-0.5 0-0.6-0.2-0.8-0.2-0.4-0.6-0.9-1-1-0.2-0.1-0.4-0.2-0.7-0.2-0.3 0-0.6 0-0.7 0.1m-2.9 9.7l-0.7 0.7 1.7 1.8 1.8 1.7 0.7 0 0.7 0 1.8-1.7 1.7-1.8-0.7-0.7-0.7-0.7-1.4 1.4-1.4 1.4-1.4-1.4c-0.8-0.8-1.4-1.4-1.4-1.4 0 0-0.3 0.3-0.7 0.7" stroke="none" fill="black" fill-rule="evenodd"></path></svg>