<?xml version="1.0"?><svg xmlns="http://www.w3.org/2000/svg" width="24" height="24" viewBox="0 0 24 24" version="1.1"><rect x="0" y="0" width="24" height="24" fill="#00000000"></rect><path fill-opacity="1.000" d="M5 12l0 9 2 0 2 0 0 1.5 0 1.5 7 0 7 0 0-8.5 0-8.5-2 0-2 0 0-2 0-2-7 0-7 0 0 9m2 0l0 7 5 0 5 0 0-7 0-7-5 0-5 0 0 7m2-4l0 1 3 0 3 0 0-1 0-1-3 0-3 0 0 1m10 7l0 6-4 0-4 0 0 1 0 1 5 0 5 0 0-7 0-7-1 0-1 0 0 6m-10-3l0 1 3 0 3 0 0-1 0-1-3 0-3 0 0 1m0 4l0 1 3 0 3 0 0-1 0-1-3 0-3 0 0 1" stroke="none" fill="black" fill-rule="evenodd"></path></svg>