<?xml version="1.0"?><svg xmlns="http://www.w3.org/2000/svg" width="24" height="24" viewBox="0 0 24 24" version="1.1"><rect x="0" y="0" width="24" height="24" fill="#00000000"></rect><path fill-opacity="0.302" d="M10.8 3.1c-4.5 0.6-7.8 4.4-7.8 8.9 0 3.1 1.5 5.9 4.1 7.5 1 0.7 2.3 1.2 3.6 1.4 0.5 0.1 2.1 0.1 2.6 0 1.3-0.2 2.6-0.7 3.6-1.4 3.3-2.1 4.8-6 3.8-9.8-0.9-3.5-3.9-6.1-7.5-6.6-0.6-0.1-1.8-0.1-2.4 0m0.5 2c-3.2 0.3-5.6 2.6-6.2 5.7-0.1 0.6-0.1 1.8 0 2.4 0.3 1.4 0.9 2.7 2 3.7 0.8 0.8 1.6 1.3 2.6 1.7 1.5 0.5 3.1 0.5 4.6 0 1-0.4 1.8-0.9 2.6-1.7 1.4-1.3 2.1-3 2.1-4.9 0-1.5-0.4-2.7-1.2-3.9-0.4-0.6-1.3-1.5-1.9-1.9-1.4-0.9-3-1.3-4.6-1.1m0 2.9c-1.3 0.3-2.4 1.1-2.9 2.3-0.3 0.6-0.4 0.9-0.4 1.7 0 0.8 0.1 1.1 0.4 1.8 0.4 0.8 1 1.3 1.8 1.7 0.6 0.4 1 0.5 1.8 0.5 0.8 0 1.2-0.1 1.8-0.5 0.4-0.2 1.1-0.6 1.1-0.7 0-0.1-0.4-0.4-0.7-0.8l-0.7-0.6-0.2 0.1c-0.9 0.7-2 0.6-2.7-0.1-0.8-0.8-0.8-2 0-2.8 0.7-0.7 1.8-0.8 2.6-0.2l0.3 0.2 0.7-0.6c0.3-0.4 0.7-0.8 0.7-0.8 0-0.1-0.6-0.5-1.1-0.7-0.5-0.3-1-0.5-1.6-0.5-0.4 0-0.7 0-0.9 0" stroke="none" fill="black" fill-rule="evenodd"></path><path fill-opacity="0.275" d="M11 3.1c-1 0.1-2.1 0.4-3 0.9-2.6 1.2-4.3 3.6-4.9 6.4-0.1 0.9-0.1 2.3 0 3.2 0.7 3.8 3.7 6.7 7.6 7.3 0.5 0.1 2.1 0.1 2.6 0 3.4-0.6 6.1-2.8 7.2-6.1 1.2-3.5 0.1-7.4-2.8-9.8-0.6-0.5-1.1-0.8-1.8-1.1-1.6-0.7-3.3-1-4.9-0.8m0 2c-1.2 0.2-2.2 0.6-3.1 1.3-0.5 0.3-1.1 0.9-1.4 1.4-1.1 1.3-1.6 3.1-1.5 4.8 0.3 2.6 1.9 4.8 4.2 5.8 4 1.8 8.6-0.6 9.6-4.8 0.6-2.4-0.2-4.9-1.9-6.6-0.8-0.8-1.6-1.3-2.6-1.6-1-0.4-2.3-0.5-3.3-0.3m0.4 3c-0.7 0.1-1.5 0.4-2 0.8-0.6 0.6-0.9 1.1-1.2 1.9-0.2 0.5-0.2 0.5-0.2 1.2 0 0.7 0 0.8 0.2 1.2 0.3 0.8 0.6 1.3 1.3 1.9 0.3 0.3 1 0.7 1.5 0.8 0.7 0.2 1.8 0.1 2.5-0.2 0.5-0.2 1.4-0.8 1.4-0.9 0-0.1-0.4-0.4-0.7-0.8l-0.7-0.6-0.3 0.2c-0.8 0.6-1.9 0.5-2.6-0.2-0.8-0.8-0.8-2 0-2.8 0.7-0.7 1.8-0.8 2.6-0.2l0.3 0.2 0.7-0.6c0.4-0.4 0.7-0.8 0.6-0.8 0 0-0.1-0.1-0.2-0.3-0.7-0.5-1.5-0.8-2.4-0.9-0.3 0-0.7 0-0.8 0.1" stroke="none" fill="black" fill-rule="evenodd"></path><path fill-opacity="0.520" d="M11.1 3.1c-2.7 0.2-5.3 1.8-6.7 4.2-0.7 1-1.1 2.2-1.3 3.5-0.1 0.6-0.1 1.8 0 2.4 0.5 3.4 2.8 6.2 6 7.3 3.7 1.3 7.8 0 10.2-3.2 0.8-1.2 1.4-2.6 1.6-4.1 0.1-0.6 0.1-1.8 0-2.4-0.4-3-2.3-5.6-5-6.9-1.5-0.7-3.1-1-4.8-0.8m-0.1 2c-1.6 0.2-2.9 0.9-4 2-2 2-2.5 5.1-1.4 7.7 0.4 0.8 0.8 1.5 1.5 2.2 1 0.9 2.1 1.6 3.5 1.9 0.7 0.1 2.1 0.1 2.8 0 2.6-0.6 4.6-2.5 5.3-5 0.8-2.7-0.2-5.8-2.5-7.5-1-0.7-2.1-1.2-3.3-1.3-0.5-0.1-1.5-0.1-1.9 0m0.4 3c-1.6 0.2-3 1.5-3.3 3.2-0.1 0.6-0.1 0.9 0 1.5 0.1 0.5 0.4 1.2 0.7 1.6 0.9 1.2 2.5 1.8 3.9 1.5 0.8-0.1 1.6-0.5 2-1l0.1-0.1-0.6-0.7-0.7-0.7-0.2 0.1c-0.2 0.1-0.4 0.3-0.5 0.3-0.3 0.2-0.4 0.2-0.8 0.2-0.4 0-0.5 0-0.8-0.2-0.4-0.2-0.8-0.6-1-1-0.2-0.3-0.2-0.4-0.2-0.8 0-0.4 0-0.5 0.2-0.8 0.4-0.8 1.1-1.2 1.9-1.2 0.4 0 1 0.3 1.2 0.5l0.2 0.1 0.7-0.7 0.7-0.7-0.3-0.2c-0.8-0.8-2-1.1-3.2-0.9" stroke="none" fill="black" fill-rule="evenodd"></path><path fill-opacity="0.968" d="M11.3 3.1c-1.7 0.1-3.4 0.7-4.7 1.7-1.9 1.5-3.2 3.6-3.5 6-0.1 0.5-0.1 1.9 0 2.4 0.3 2 1.2 3.7 2.5 5.1 1.7 1.7 4 2.7 6.4 2.7 2.4 0 4.7-1 6.4-2.7 0.7-0.7 1.4-1.7 1.8-2.6 0.3-0.7 0.6-1.7 0.7-2.5 0.1-0.5 0.1-1.9 0-2.4-0.1-0.9-0.4-1.9-0.8-2.7-1.6-3.3-5.1-5.3-8.8-5m-0.4 2c-3.1 0.5-5.3 2.8-5.8 5.9-0.1 0.6-0.1 1.8 0 2.4 0.7 2.9 2.9 5 5.7 5.5 0.7 0.1 1.7 0.1 2.4 0 2.9-0.5 5.3-2.8 5.7-5.9 0.1-0.6 0.1-1.8 0-2.4-0.6-2.8-2.7-4.8-5.5-5.5-0.5-0.1-2-0.1-2.5 0m0.6 3c-1.3 0.1-2.5 1-3.1 2.2-0.5 1.1-0.5 2.3 0 3.4 0.5 1.1 1.6 1.9 2.8 2.2 0.4 0.1 1.2 0.1 1.6 0 0.6-0.1 1.4-0.5 1.8-0.9l0.3-0.2-0.7-0.7-0.7-0.7-0.2 0.1c-0.6 0.6-1.6 0.7-2.3 0.2-0.3-0.1-0.6-0.5-0.8-0.7-0.3-0.7-0.3-1.4 0.1-2 0.1-0.3 0.5-0.7 0.7-0.8 0.8-0.3 1.8-0.2 2.3 0.3l0.2 0.1 0.6-0.7 0.7-0.7-0.1-0.1c-0.1-0.2-0.7-0.5-1-0.7-0.6-0.3-1.5-0.4-2.2-0.3" stroke="none" fill="black" fill-rule="evenodd"></path></svg>