<?xml version="1.0"?><svg xmlns="http://www.w3.org/2000/svg" width="24" height="24" viewBox="0 0 24 24" version="1.1"><rect x="0" y="0" width="24" height="24" fill="#00000000"></rect><path fill-opacity="0.447" d="M18 9c0 2.4 0 4.1 0 4.3-0.2 0.8-0.9 1.5-1.7 1.7-0.2 0-2.2 0-5.2 0l-4.9 0 1.6-1.6 1.6-1.7-0.7-0.7-0.7-0.7-2.8 2.9-2.9 2.8 2.9 2.8 2.8 2.9 0.7-0.7 0.7-0.7-1.6-1.7-1.6-1.6 5.3 0 5.3 0 0.3-0.1c1.1-0.4 2-1.2 2.5-2.2 0.4-0.8 0.4-0.5 0.4-5.3l0-4.4-1 0-1 0 0 4" stroke="none" fill="black" fill-rule="evenodd"></path><path fill-opacity="0.333" d="M18 9.1c0 4.4 0 4.4-0.3 4.9-0.1 0.2-0.5 0.6-0.8 0.8-0.1 0-0.4 0.1-0.5 0.1-0.2 0.1-1.9 0.1-5.3 0.1l-4.9 0 1.6-1.6 1.6-1.7-0.7-0.7-0.7-0.7-2.8 2.9-2.9 2.8 2.9 2.8 2.8 2.9 0.7-0.7 0.7-0.7-1.6-1.7-1.6-1.6 5.1 0c3.2 0 5.1 0 5.3-0.1 1.6-0.2 2.8-1.3 3.3-2.8l0.1-0.4 0-4.4 0-4.3-1 0-1 0 0 4.1" stroke="none" fill="black" fill-rule="evenodd"></path><path fill-opacity="0.139" d="M18 9.2l0 4.3-0.2 0.3c-0.2 0.4-0.6 0.8-1 1l-0.3 0.2-5.2 0-5.1 0 1.6-1.6 1.6-1.6-0.7-0.7-0.7-0.8-2.8 2.9-2.9 2.8 2.9 2.8 2.8 2.9 0.7-0.7 0.7-0.8-1.6-1.6-1.6-1.6 5.1 0c4.4 0 5.1 0 5.4-0.1 1.3-0.2 2.3-1 2.9-2.2 0.4-0.8 0.4-0.5 0.4-5.4l0-4.3-1 0-1 0 0 4.2" stroke="none" fill="black" fill-rule="evenodd"></path><path fill-opacity="0.975" d="M18 9.2c0 4 0 4.1-0.1 4.4-0.2 0.5-0.5 0.8-0.9 1.1-0.4 0.3-0.3 0.3-5.8 0.3l-5 0 1.6-1.6 1.6-1.6-0.7-0.7-0.7-0.7-2.8 2.8c-1.6 1.5-2.8 2.8-2.8 2.8 0 0 1.2 1.3 2.8 2.8l2.8 2.8 0.7-0.7 0.7-0.7-1.6-1.6-1.6-1.6 5 0c5.5 0 5.5 0 6.3-0.3 1.2-0.5 2-1.4 2.4-2.7 0.1-0.4 0.1-0.4 0.1-4.7l0-4.3-1 0-1 0 0 4.2" stroke="none" fill="black" fill-rule="evenodd"></path></svg>