<?xml version="1.0"?><svg xmlns="http://www.w3.org/2000/svg" width="24" height="24" viewBox="0 0 24 24" version="1.1"><rect x="0" y="0" width="24" height="24" fill="#00000000"></rect><path fill-opacity="0.478" d="M4 9.4c0 4.9 0 4.5 0.4 5.4 0.1 0.2 0.4 0.6 0.5 0.7 0.5 0.6 1.2 1.1 2 1.4l0.3 0.1 5.3 0 5.3 0-1.6 1.6-1.6 1.7 0.7 0.7 0.7 0.7 2.8-2.9 2.9-2.8-2.9-2.8-2.8-2.9-0.7 0.7-0.7 0.7 1.6 1.7 1.6 1.6-4.9 0c-3 0-5 0-5.2 0-0.8-0.2-1.5-0.9-1.7-1.7 0-0.2 0-1.9 0-4.3l0-4-1 0-1 0 0 4.4" stroke="none" fill="black" fill-rule="evenodd"></path><path fill-opacity="0.286" d="M4 9.3l0 4.4 0.1 0.4c0.5 1.5 1.7 2.6 3.3 2.8 0.2 0.1 2.1 0.1 5.3 0.1l5.1 0-1.6 1.6-1.6 1.7 0.7 0.7 0.7 0.7 2.8-2.9 2.9-2.8-2.9-2.8-2.8-2.9-0.7 0.7-0.7 0.7 1.6 1.7 1.6 1.6-4.9 0c-3.4 0-5.1 0-5.3-0.1-0.8-0.1-1.4-0.7-1.5-1.5-0.1-0.2-0.1-1.5-0.1-4.3l0-4.1-1 0-1 0 0 4.3" stroke="none" fill="black" fill-rule="evenodd"></path><path fill-opacity="0.095" d="M4 9.2c0 4.8 0 4.7 0.4 5.6 0.6 1 1.4 1.7 2.6 2.1l0.3 0.1 5.3 0 5.2 0-1.6 1.6-1.6 1.6 0.7 0.8 0.7 0.7 2.8-2.9 2.9-2.8-2.9-2.8-2.8-2.9-0.7 0.8-0.7 0.7 1.6 1.6 1.6 1.6-5.1 0-5.2 0-0.3-0.2c-0.4-0.2-0.8-0.6-1-1l-0.2-0.3 0-4.3 0-4.2-1 0-1 0 0 4.2" stroke="none" fill="black" fill-rule="evenodd"></path><path fill-opacity="0.977" d="M4 9.3c0 4.2 0 4.3 0.1 4.7 0.2 0.5 0.5 1.2 0.8 1.6 0.4 0.4 0.9 0.7 1.4 1 0.8 0.4 0.4 0.4 6.3 0.4l5.2 0-1.6 1.6-1.6 1.6 0.7 0.7 0.7 0.7 2.8-2.8c1.6-1.5 2.8-2.8 2.8-2.8 0 0-1.2-1.3-2.8-2.8l-2.8-2.8-0.7 0.7-0.7 0.7 1.6 1.6 1.6 1.6-5 0c-5.4 0-5.4 0-5.8-0.3-0.2-0.1-0.5-0.4-0.7-0.7-0.3-0.4-0.3-0.3-0.3-4.8l0-4.2-1 0-1 0 0 4.3" stroke="none" fill="black" fill-rule="evenodd"></path></svg>