<?xml version="1.0"?><svg xmlns="http://www.w3.org/2000/svg" width="24" height="24" viewBox="0 0 24 24" version="1.1"><rect x="0" y="0" width="24" height="24" fill="#00000000"></rect><path fill-opacity="0.478" d="M10.3 4.1c-1.2 0.2-2.4 1-2.9 2.2-0.4 0.8-0.4 0.4-0.4 6.2l0 5.3-1.6-1.6-1.7-1.6-0.7 0.7-0.7 0.7 2.9 2.8 2.8 2.9 2.8-2.9 2.9-2.8-0.7-0.7-0.7-0.7-1.7 1.6-1.6 1.6 0-5.1c0-4.8 0-5.1 0.1-5.3 0.2-0.6 0.7-1 1.2-1.3 0.3-0.1 0.3-0.1 4.5-0.1l4.2 0 0-1 0-1-4.2 0c-2.3 0-4.3 0-4.5 0.1" stroke="none" fill="black" fill-rule="evenodd"></path><path fill-opacity="0.354" d="M10.4 4.1c-1.3 0.1-2.5 1.1-3.1 2.3-0.3 0.8-0.3 0.4-0.3 6.2l0 5.2-1.6-1.6-1.7-1.6-0.7 0.7-0.7 0.7 2.9 2.8 2.8 2.9 2.8-2.9 2.9-2.8-0.7-0.7-0.7-0.7-1.7 1.6-1.6 1.6 0-5c0-3.5 0-5 0.1-5.2 0.1-0.8 0.7-1.3 1.4-1.5 0.2-0.1 1.1-0.1 4.4-0.1l4.1 0 0-1 0-1-4.2 0c-2.3 0-4.2 0-4.4 0.1" stroke="none" fill="black" fill-rule="evenodd"></path><path fill-opacity="0.593" d="M10.5 4.1c-0.6 0-1.2 0.3-1.8 0.7-0.9 0.6-1.5 1.6-1.6 2.7-0.1 0.3-0.1 2.2-0.1 5.4l0 4.9-1.6-1.6-1.6-1.6-0.7 0.7-0.7 0.7 2.8 2.8c1.5 1.6 2.8 2.8 2.8 2.8 0 0 1.3-1.2 2.8-2.8l2.8-2.8-0.7-0.7-0.7-0.7-1.6 1.6-1.6 1.6 0-5c0-4.5 0-5.1 0.1-5.4 0.1-0.4 0.5-0.9 0.9-1.1 0.4-0.3 0.4-0.3 4.8-0.3l4.2 0 0-1 0-1-4.1 0c-2.2 0-4.2 0-4.4 0.1" stroke="none" fill="black" fill-rule="evenodd"></path><path fill-opacity="0.943" d="M10.6 4.1c-1.9 0.1-3.4 1.6-3.6 3.5 0 0.3 0 2.6 0 5.4l0 4.9-1.6-1.7-1.7-1.6-0.6 0.7-0.7 0.7 2.8 2.8c1.5 1.6 2.8 2.8 2.8 2.8 0 0 1.3-1.2 2.8-2.8l2.8-2.8-0.7-0.7-0.6-0.7-1.7 1.6-1.6 1.7 0-5.1c0-5.5 0-5.3 0.2-5.8 0.2-0.3 0.6-0.7 1-0.8l0.3-0.2 4.2 0 4.3 0 0-1 0-1-4 0c-2.3 0-4.2 0-4.4 0.1" stroke="none" fill="black" fill-rule="evenodd"></path></svg>