<?xml version="1.0"?><svg xmlns="http://www.w3.org/2000/svg" width="24" height="24" viewBox="0 0 24 24" version="1.1"><rect x="0" y="0" width="24" height="24" fill="#00000000"></rect><path fill-opacity="0.467" d="M5.1 5.2l-2.8 2.8 2.9 2.8 2.8 2.9 0.7-0.7 0.7-0.7-1.6-1.7-1.6-1.6 5.1 0c4.8 0 5.1 0 5.4 0.1 0.5 0.2 0.9 0.7 1.2 1.2 0.1 0.3 0.1 0.3 0.1 4.5l0 4.2 1 0 1 0 0-4.4c0-4.8 0-4.5-0.4-5.3-0.4-1-1.4-1.8-2.5-2.2l-0.4-0.1-5.2 0-5.3 0 1.6-1.6 1.6-1.6-0.7-0.7c-0.4-0.4-0.7-0.7-0.7-0.7 0 0-1.3 1.2-2.9 2.8" stroke="none" fill="black" fill-rule="evenodd"></path><path fill-opacity="0.308" d="M5.1 5.2l-2.8 2.8 2.9 2.8 2.8 2.9 0.7-0.7 0.7-0.7-1.6-1.7-1.6-1.6 5 0c3.5 0 5 0 5.2 0.1 0.6 0.1 1.1 0.5 1.3 0.9 0.3 0.5 0.3 0.5 0.3 4.9l0 4.1 1 0 1 0 0-4.3 0-4.4-0.1-0.3c-0.5-1.4-1.4-2.4-2.7-2.8l-0.5-0.2-5.2 0-5.3 0 1.6-1.6 1.6-1.6-0.7-0.7c-0.4-0.4-0.7-0.7-0.7-0.7 0 0-1.3 1.2-2.9 2.8" stroke="none" fill="black" fill-rule="evenodd"></path><path fill-opacity="0.149" d="M5.1 5.2l-2.8 2.8 2.9 2.8 2.8 2.9 0.7-0.7 0.7-0.8-1.6-1.6-1.6-1.6 5.1 0 5.2 0 0.3 0.2c0.5 0.2 0.8 0.5 1 1l0.2 0.3 0 4.3 0 4.2 1 0 1 0 0-4.1c0-4.6 0-4.7-0.3-5.4-0.3-0.7-0.8-1.4-1.5-1.8-0.4-0.3-0.7-0.4-1.2-0.6-0.3-0.1-0.4-0.1-5.6-0.1l-5.2 0 1.6-1.6 1.6-1.6-0.7-0.7c-0.4-0.4-0.7-0.7-0.7-0.7 0 0-1.3 1.2-2.9 2.8" stroke="none" fill="black" fill-rule="evenodd"></path><path fill-opacity="0.975" d="M5.2 5.2l-2.9 2.8 0.6 0.5c0.2 0.3 1.5 1.6 2.8 2.8l2.3 2.3 0.7-0.7 0.7-0.7-1.6-1.6-1.6-1.6 5.1 0c5.3 0 5.2 0 5.7 0.2 0.2 0.1 0.5 0.5 0.7 0.7 0.1 0.1 0.2 0.3 0.2 0.5 0.1 0.3 0.1 0.5 0.1 4.4l0 4.2 1 0 1 0 0-4.3c0-4.2 0-4.3-0.1-4.7-0.4-1.4-1.5-2.5-2.9-2.9-0.4-0.1-0.5-0.1-5.6-0.1l-5.2 0 1.6-1.6 1.6-1.6-0.7-0.7c-0.4-0.4-0.7-0.7-0.7-0.7 0 0-1.3 1.3-2.8 2.8" stroke="none" fill="black" fill-rule="evenodd"></path></svg>