<?xml version="1.0"?><svg xmlns="http://www.w3.org/2000/svg" width="24" height="24" viewBox="0 0 24 24" version="1.1"><rect x="0" y="0" width="24" height="24" fill="#00000000"></rect><path fill-opacity="0.478" d="M15.3 3.1l-0.7 0.7 1.6 1.6 1.6 1.6-5.3 0-5.2 0-0.4 0.1c-1.1 0.4-2.1 1.2-2.5 2.2-0.4 0.8-0.4 0.5-0.4 5.3l0 4.4 1 0 1 0 0-4.2c0-4.2 0-4.2 0.1-4.5 0.3-0.5 0.7-1 1.3-1.2 0.2-0.1 0.5-0.1 5.3-0.1l5.1 0-1.6 1.6-1.6 1.7 0.7 0.7 0.7 0.7 2.8-2.9 2.9-2.8-2.8-2.8c-1.6-1.6-2.9-2.8-2.9-2.8 0 0-0.3 0.3-0.7 0.7" stroke="none" fill="black" fill-rule="evenodd"></path><path fill-opacity="0.286" d="M15.3 3.1l-0.7 0.7 1.6 1.6 1.6 1.6-5.3 0-5.2 0-0.5 0.2c-0.8 0.2-1.3 0.6-1.9 1.3-0.3 0.4-0.5 0.7-0.7 1.3l-0.2 0.5 0 4.3 0 4.4 1 0 1 0 0-4.2 0-4.2 0.1-0.3c0.3-0.6 0.8-1 1.3-1.2 0.1-0.1 1.4-0.1 5.3-0.1l5.1 0-1.6 1.6-1.6 1.7 0.7 0.7 0.7 0.7 2.8-2.9 2.9-2.8-2.8-2.8c-1.6-1.6-2.9-2.8-2.9-2.8 0 0-0.3 0.3-0.7 0.7" stroke="none" fill="black" fill-rule="evenodd"></path><path fill-opacity="0.106" d="M15.3 3.1l-0.7 0.7 1.6 1.6 1.6 1.6-5.2 0-5.3 0-0.3 0.1c-1.6 0.5-2.7 1.7-2.9 3.2-0.1 0.4-0.1 1.1-0.1 4.6l0 4.1 1 0 1 0 0-4.2 0-4.3 0.2-0.3c0.3-0.6 0.7-0.9 1.3-1.1 0.2-0.1 0.9-0.1 5.3-0.1l5 0-1.6 1.6-1.6 1.6 0.7 0.8 0.7 0.7 2.8-2.9 2.9-2.8-2.9-2.8c-1.5-1.6-2.8-2.8-2.8-2.8 0 0-0.3 0.3-0.7 0.7" stroke="none" fill="black" fill-rule="evenodd"></path><path fill-opacity="0.976" d="M15.3 3.1l-0.7 0.7 1.6 1.6 1.6 1.6-5.2 0c-5.1 0-5.2 0-5.6 0.1-1.4 0.4-2.5 1.5-2.9 2.9-0.1 0.4-0.1 0.5-0.1 4.7l0 4.3 1 0 1 0 0-4.2 0-4.3 0.1-0.3c0.2-0.3 0.6-0.7 0.9-0.9 0.5-0.3 0.2-0.3 5.7-0.3l5.1 0-1.6 1.6-1.6 1.6 0.7 0.7 0.7 0.7 2.3-2.3c1.3-1.2 2.6-2.5 2.8-2.8l0.6-0.5-2.8-2.8c-1.6-1.5-2.9-2.8-2.9-2.8 0 0-0.3 0.3-0.7 0.7" stroke="none" fill="black" fill-rule="evenodd"></path></svg>