<?xml version="1.0"?><svg xmlns="http://www.w3.org/2000/svg" width="24" height="24" viewBox="0 0 24 24" version="1.1"><rect x="0" y="0" width="24" height="24" fill="#00000000"></rect><path fill-opacity="0.447" d="M13.2 5.2l-2.9 2.8 0.7 0.7 0.7 0.7 1.7-1.6 1.6-1.6 0 4.9c0 3 0 5 0 5.2-0.2 0.8-0.9 1.5-1.7 1.7-0.2 0-1.9 0-4.3 0l-4 0 0 1 0 1 4.4 0 4.4 0 0.3-0.1c1.1-0.4 2-1.2 2.5-2.2 0.4-0.8 0.4-0.3 0.4-6.2l0-5.3 1.6 1.6 1.7 1.6 0.7-0.7 0.7-0.7-2.9-2.8c-1.5-1.6-2.8-2.8-2.8-2.8 0 0-1.3 1.2-2.8 2.8" stroke="none" fill="black" fill-rule="evenodd"></path><path fill-opacity="0.426" d="M13.2 5.2l-2.9 2.8 0.7 0.7 0.7 0.7 1.7-1.6 1.6-1.6 0 5c0 4 0 5.1-0.1 5.3-0.2 0.7-0.7 1.3-1.5 1.4-0.2 0.1-1.5 0.1-4.3 0.1l-4.1 0 0 1 0 1 4.3 0c4.8 0 4.5 0 5.3-0.3 0.5-0.3 1.3-0.9 1.7-1.4 0.2-0.3 0.4-0.8 0.6-1.3l0.1-0.3 0-5.3 0-5.2 1.6 1.6 1.7 1.6 0.7-0.7 0.7-0.7-2.9-2.8c-1.5-1.6-2.8-2.8-2.8-2.8 0 0-1.3 1.2-2.8 2.8" stroke="none" fill="black" fill-rule="evenodd"></path><path fill-opacity="0.555" d="M13.2 5.2l-2.8 2.8 0.7 0.7 0.7 0.7 1.6-1.6 1.6-1.6 0 5.1c0 4.6 0 5.1-0.1 5.3-0.1 0.5-0.4 0.8-0.8 1.1-0.5 0.3-0.4 0.3-5 0.3l-4.1 0 0 1 0 1 4.2 0c3.9 0 4.2 0 4.6-0.1 1-0.2 1.9-0.8 2.4-1.6 0.3-0.4 0.5-0.7 0.6-1.2l0.2-0.5 0-5.2 0-5.2 1.6 1.6 1.6 1.6 0.7-0.7 0.7-0.7-2.8-2.8c-1.5-1.6-2.8-2.8-2.8-2.8 0 0-1.3 1.2-2.8 2.8" stroke="none" fill="black" fill-rule="evenodd"></path><path fill-opacity="0.944" d="M13.2 5.2l-2.8 2.8 0.7 0.7 0.6 0.7 1.7-1.6 1.6-1.7 0 5.1c0 5.5 0 5.3-0.3 5.8-0.1 0.3-0.6 0.7-0.9 0.8l-0.3 0.2-4.2 0-4.3 0 0 1 0 1 4.3 0c4.2 0 4.3 0 4.7-0.1 1.6-0.5 2.8-1.8 2.9-3.5 0.1-0.3 0.1-2.5 0.1-5.4l0-4.9 1.6 1.7 1.7 1.6 0.6-0.7 0.7-0.7-2.8-2.8c-1.5-1.6-2.8-2.8-2.8-2.8 0 0-1.3 1.2-2.8 2.8" stroke="none" fill="black" fill-rule="evenodd"></path></svg>