<?xml version="1.0"?><svg xmlns="http://www.w3.org/2000/svg" width="24" height="24" viewBox="0 0 24 24" version="1.1"><rect x="0" y="0" width="24" height="24" fill="#00000000"></rect><path fill-opacity="0.424" d="M3.2 3.1c-1.2 0.2-2.2 1-2.8 2.1-0.4 0.9-0.4 0.4-0.4 6.8l0 5.7 0.1 0.4c0.4 1.3 1.5 2.3 2.8 2.8l0.4 0.1 8.7 0 8.7 0 0.4-0.1c1.4-0.5 2.5-1.6 2.8-2.9 0-0.3 0.1-0.5 0.1-0.5 0.1-0.1 0.1-11.1 0-11 0 0-0.1-0.1-0.1-0.3 0-0.5-0.4-1.2-0.9-1.8-0.4-0.6-1.1-1-1.9-1.3l-0.4-0.1-8.6 0c-7.5 0-8.6 0-8.9 0.1m0.4 2c-0.8 0.1-1.4 0.8-1.6 1.6 0 0.1 0 1.8 0 3.8l0 3.5 10 0 10 0 0-3.7 0-3.7-0.1-0.3c-0.2-0.5-0.7-1-1.2-1.2l-0.3-0.1-8.2 0c-4.6 0-8.4 0-8.6 0.1m-3.6 6.9c0 3 0 4.3 0 2.8 0-1.6 0-4 0-5.6 0-1.5 0-0.2 0 2.8m4.6-3.9c-0.8 0.4-0.8 1.5 0 1.8 0.2 0.1 0.5 0.1 2.4 0.1 2.1 0 2.2 0 2.4-0.1 0.8-0.3 0.8-1.5 0-1.8-0.2-0.1-0.3-0.1-2.4-0.1-2.1 0-2.2 0-2.4 0.1m-2.6 8.6c0 0.8 0.1 1.1 0.4 1.5 0.2 0.3 0.6 0.6 1 0.7 0.2 0.1 0.6 0.1 8.6 0.1 8 0 8.4 0 8.7-0.1 0.3-0.1 0.7-0.4 0.9-0.7 0.3-0.4 0.4-0.7 0.4-1.5l0-0.7-10 0-10 0 0 0.7" stroke="none" fill="black" fill-rule="evenodd"></path><path fill-opacity="0.319" d="M3.3 3.1c-0.2 0-0.5 0.1-0.7 0.1-1 0.4-1.9 1.3-2.3 2.4-0.3 0.7-0.3 0.6-0.3 6.4 0 5.8 0 5.7 0.3 6.5 0.4 1.1 1.5 2 2.7 2.4 0.3 0.1 0.8 0.1 9 0.1 8.2 0 8.7 0 9-0.1 1.3-0.4 2.3-1.3 2.7-2.5 0.1-0.3 0.2-0.6 0.2-0.7 0-0.1 0.1-0.3 0.1-0.3 0 0 0.1-2.4 0.1-5.5 0-3.1-0.1-5.4-0.1-5.4 0 0-0.1-0.1-0.1-0.2 0-0.4-0.3-1-0.5-1.4-0.2-0.3-0.7-0.9-1.1-1.1-0.2-0.2-0.7-0.5-1.2-0.6l-0.4-0.2-8.6 0c-7.2 0-8.6 0-8.8 0.1m0.3 2c-0.6 0.1-1.1 0.5-1.4 1.1l-0.2 0.3 0 3.8 0 3.7 10 0 10 0 0-3.7 0-3.8-0.2-0.3c-0.3-0.6-0.8-1-1.4-1.1-0.3-0.1-16.5-0.1-16.8 0m-3.6 6.9c0 3 0 4.2 0 2.7 0-1.5 0-3.9 0-5.4 0-1.5 0-0.3 0 2.7m4.6-3.9c-0.1 0-0.2 0.1-0.3 0.2-0.5 0.5-0.3 1.3 0.2 1.6l0.3 0.1 2.2 0 2.2 0 0.3-0.1c0.1-0.1 0.2-0.2 0.3-0.3 0.2-0.2 0.2-0.3 0.2-0.6 0-0.3 0-0.4-0.2-0.6-0.3-0.4-0.2-0.4-2.7-0.4-1.9 0-2.3 0-2.5 0.1m-2.6 8.6c0 0.7 0 0.8 0.2 1.1 0.3 0.6 0.8 1 1.4 1.1 0.4 0.1 16.4 0.1 16.8 0 0.6-0.1 1.1-0.5 1.4-1.1 0.2-0.3 0.2-0.4 0.2-1.1l0-0.7-10 0-10 0 0 0.7" stroke="none" fill="black" fill-rule="evenodd"></path><path fill-opacity="0.370" d="M3.2 3.1c-1.2 0.3-2.2 1-2.7 2.1-0.5 0.9-0.5 0.5-0.5 6.8 0 5.2 0 5.6 0.1 5.9 0.4 1.4 1.5 2.5 2.9 3l0.4 0.1 8.6 0 8.6 0 0.4-0.1c1.1-0.4 2.1-1.1 2.6-2.1 0.1-0.4 0.2-0.7 0.3-0.9 0-0.3 0.1-0.5 0.1-0.6 0.1-0.1 0.1-10.7 0-10.6 0 0 0-0.1 0-0.2 0-0.6-0.5-1.6-1.1-2.2-0.5-0.6-1.1-0.9-1.9-1.2l-0.4-0.1-8.5 0c-8.1 0-8.5 0-8.9 0.1m0.2 2c-0.4 0.1-0.8 0.4-1.1 0.9-0.3 0.4-0.3 0.4-0.3 4.4l0 3.6 10 0 10 0 0-3.6c0-4 0-4-0.3-4.4-0.3-0.5-0.7-0.8-1.2-0.9-0.3-0.1-16.7-0.1-17.1 0m-3.4 6.9c0 3 0 4.2 0 2.7 0-1.5 0-3.9 0-5.4 0-1.4 0-0.2 0 2.7m4.7-4c-0.4 0.2-0.7 0.6-0.7 1.1 0.1 0.3 0.3 0.6 0.6 0.8l0.2 0.1 2.2 0 2.2 0 0.2-0.1c0.7-0.4 0.8-1.4 0.1-1.7l-0.2-0.2-2.2 0c-1.2 0-2.3 0-2.4 0m-2.7 8.7c0 0.7 0.1 1 0.3 1.3 0.3 0.5 0.7 0.8 1.2 0.9 0.4 0.1 16.6 0.1 17 0 0.5-0.1 0.9-0.4 1.2-0.9 0.2-0.3 0.3-0.7 0.3-1.4l0-0.6-10 0-10 0 0 0.7" stroke="none" fill="black" fill-rule="evenodd"></path><path fill-opacity="0.968" d="M3.5 3.1c-1.5 0.2-2.8 1.2-3.3 2.7-0.2 0.7-0.2 1-0.2 6.6l0 5.2 0.1 0.4c0.5 1.6 1.8 2.8 3.4 2.9 0.6 0.1 16.4 0.1 17 0 1.3-0.1 2.5-1 3.1-2.2 0.2-0.4 0.4-1 0.4-1.3 0-0.1 0-0.3 0-0.3 0 0 0-1.8 0-5.2 0-2.8 0-5.1 0-5.1 0 0.1 0 0-0.1-0.3 0-0.7-0.4-1.6-1-2.2-0.5-0.6-1.1-0.9-1.9-1.2l-0.4-0.1-8.4 0c-4.6 0-8.5 0-8.7 0.1m-0.1 2c-0.5 0.1-1 0.6-1.2 1.1l-0.2 0.3 0 3.7 0 3.8 10 0 10 0 0-3.8 0-3.7-0.2-0.3c-0.1-0.4-0.6-0.9-1-1l-0.3-0.2-8.4 0c-6.8 0-8.5 0-8.7 0.1m-3.4 6.9c0 2.8 0 4 0 2.6 0-1.4 0-3.8 0-5.2 0-1.4 0-0.2 0 2.6m4.7-3.9c-0.8 0.2-0.9 1.3-0.2 1.8l0.2 0.1 2.3 0 2.3 0 0.2-0.1c0.7-0.5 0.6-1.7-0.3-1.8-0.4-0.1-4.1-0.1-4.5 0m-2.7 8.7c0 0.7 0 0.7 0.2 1.1 0.2 0.4 0.6 0.8 1 0.9l0.3 0.2 8.5 0 8.5 0 0.3-0.2c0.4-0.1 0.8-0.5 1-0.9 0.2-0.4 0.2-0.4 0.2-1.1l0-0.8-10 0-10 0 0 0.8" stroke="none" fill="black" fill-rule="evenodd"></path></svg>