<?xml version="1.0"?><svg xmlns="http://www.w3.org/2000/svg" width="24" height="24" viewBox="0 0 24 24" version="1.1"><rect x="0" y="0" width="24" height="24" fill="#00000000"></rect><path fill-opacity="0.439" d="M10.7 2.1c-1.1 0.1-2.1 0.4-3.1 1-2 0.9-3.6 2.5-4.6 4.5-1.3 2.8-1.3 6 0 8.8 0.6 1.1 1.2 1.9 2.1 2.8 0.6 0.6 0.8 0.7 1.4 1.1 1.2 0.8 2.7 1.4 4.2 1.6 0.6 0.1 2 0.1 2.6 0 2.9-0.4 5.5-2 7-4.4 1.1-1.5 1.7-3.6 1.7-5.2l0-0.4-1 0-1 0 0-3.9 0-4-3.9 0-4 0 0-1 0-1-0.4 0c-0.3 0-0.7 0-1 0.1m0.8 3.9c-1.1 0.1-2 0.5-2.9 1.1-1.8 1.2-2.8 3.3-2.6 5.4 0.3 2.9 2.5 5.1 5.4 5.5 1.2 0.1 2.6-0.2 3.7-0.9 1.7-1 2.7-2.7 2.9-4.7l0-0.4-1 0-1 0 0-2 0-2-2 0-2 0 0-1 0-1-0.2 0c-0.1 0-0.2 0-0.3 0" stroke="none" fill="black" fill-rule="evenodd"></path><path fill-opacity="0.126" d="M10.8 2.1c-3 0.3-5.8 2.1-7.3 4.7-1.8 2.9-2 6.5-0.5 9.6 1.3 2.7 3.7 4.6 6.6 5.3 1 0.2 1.3 0.3 2.4 0.3 1.1 0 1.4-0.1 2.4-0.3 2.9-0.7 5.3-2.6 6.6-5.3 0.6-1.3 1-2.9 1-4.2l0-0.3-1 0-1 0 0-3.9 0-4-4 0-3.9 0 0-1 0-1-0.4 0c-0.2 0-0.6 0-0.9 0.1m0.6 3.9c-1.6 0.3-2.7 0.8-3.7 1.8-1.1 1.2-1.7 2.6-1.7 4.2 0 1.1 0.2 1.8 0.7 2.8 1.1 2.2 3.7 3.5 6.2 3.1 2.8-0.4 4.8-2.6 5.1-5.5l0-0.4-1 0-1 0 0-2 0-2-2 0-2 0 0-1 0-1-0.3 0c-0.1 0-0.3 0-0.3 0" stroke="none" fill="black" fill-rule="evenodd"></path><path fill-opacity="0.616" d="M11.3 2c-2.5 0.2-4.5 1.2-6.3 2.8-2 2-3.2 5.1-3 7.9 0.3 3.6 2.4 6.7 5.6 8.3 1.6 0.7 3.4 1.1 5.1 1 0.9-0.1 1.6-0.2 2.4-0.5 3.8-1.3 6.4-4.6 6.8-8.6 0.1-0.3 0.1-0.6 0.1-0.7l0-0.2-1 0-1 0 0-4 0-4-4 0-3.9 0 0-1 0-1-0.3 0c-0.2 0-0.4 0-0.5 0m-0.3 4.1c-1.2 0.2-2.5 0.8-3.3 1.7-0.5 0.5-0.7 0.9-1 1.5-1.7 3.3-0.1 7.2 3.4 8.4 3.5 1.2 7.2-1.1 7.8-4.8 0.1-0.2 0.1-0.5 0.1-0.7l0-0.2-1 0-1 0 0-2 0-2-2 0-2 0 0-1 0-1-0.3 0c-0.2 0-0.5 0-0.7 0.1" stroke="none" fill="black" fill-rule="evenodd"></path><path fill-opacity="0.958" d="M11.2 2.1c-2.3 0.1-4.4 1.1-6.1 2.7-0.8 0.7-1.5 1.7-2.1 2.8-1.5 3.1-1.3 6.7 0.5 9.6 1.3 2.2 3.5 3.8 6 4.4 0.9 0.3 1.4 0.4 2.5 0.4 1.1 0 1.6-0.1 2.5-0.4 2.8-0.7 5.1-2.6 6.4-5.2 0.6-1.2 1-2.4 1.1-4l0-0.4-1 0-1 0 0-4 0-4-4 0-3.9 0 0-1 0-1-0.2 0c-0.1 0-0.4 0-0.7 0.1m-0.3 4c-1 0.2-2.1 0.7-2.9 1.4-1.3 1.2-2 2.7-2 4.5 0 2.3 1.3 4.4 3.3 5.4 0.9 0.4 1.8 0.6 2.7 0.6 1.2 0 2.3-0.3 3.4-1 0.4-0.3 1.3-1.2 1.6-1.6 0.6-1 1-2.2 1-3.1l0-0.3-1 0-1 0 0-2 0-2-2 0-2 0 0-1 0-1-0.3 0c-0.2 0-0.6 0-0.8 0.1" stroke="none" fill="black" fill-rule="evenodd"></path></svg>