<?xml version="1.0"?><svg xmlns="http://www.w3.org/2000/svg" width="24" height="24" viewBox="0 0 24 24" version="1.1"><rect x="0" y="0" width="24" height="24" fill="#00000000"></rect><path fill-opacity="0.431" d="M3.8 4.7c-0.8 0.9-1.3 1.6-1.7 2.6-2 4-1.2 8.8 1.8 12.1l0.3 0.4 0.7-0.7 0.7-0.7-0.3-0.4c-1-1.1-1.7-2.4-2-3.7-0.4-1.5-0.4-3.1 0-4.6 0.3-1.3 1-2.6 2-3.7l0.3-0.4-0.6-0.7c-0.4-0.3-0.8-0.6-0.8-0.6 0 0-0.2 0.2-0.4 0.4m15.2 0.2l-0.6 0.7 0.3 0.5c1.2 1.3 1.9 2.8 2.2 4.6 0.1 0.6 0.1 2 0 2.7-0.3 1.7-1 3.2-2.2 4.6l-0.3 0.4 0.6 0.7c0.4 0.3 0.8 0.7 0.8 0.7 0.1 0 0.6-0.7 1-1.2 2.5-3.3 2.9-7.7 1.1-11.3-0.3-0.7-0.7-1.3-1.1-1.9-0.4-0.5-1-1.1-1-1.1-0.1 0-0.4 0.3-0.8 0.6m-12.2 2.4c-2 2.2-2.4 5.3-1 7.9 0.2 0.5 0.6 1.1 1 1.5l0.3 0.3 0.7-0.7 0.7-0.7-0.1-0.2c-0.9-1.1-1.2-1.8-1.4-2.9 0-0.4 0-0.6 0-1 0.2-1.1 0.5-1.9 1.3-2.9l0.2-0.2-0.7-0.7c-0.4-0.3-0.7-0.6-0.7-0.6-0.1 0-0.2 0.1-0.3 0.2m9.4 0.4l-0.7 0.7 0.2 0.2c0.4 0.5 0.6 0.8 0.8 1.2 0.4 0.9 0.6 1.8 0.5 2.7-0.2 1.1-0.5 1.8-1.4 2.9l-0.1 0.2 0.7 0.7 0.7 0.7 0.3-0.3c1.2-1.4 1.9-3.1 1.8-4.9-0.1-1.4-0.4-2.6-1.2-3.7-0.2-0.3-0.8-1-0.8-1-0.1 0-0.4 0.3-0.8 0.6m-4.8 1.3c-0.8 0.3-1.5 0.7-2 1.4-0.5 0.8-0.5 2-0.1 2.9 0.3 0.6 0.8 1.1 1.4 1.4l0.3 0.2 0 3 0 3.1 1 0 1 0 0-3.1 0-3 0.3-0.2c1.1-0.5 1.8-1.6 1.7-2.9-0.1-0.8-0.3-1.4-0.9-1.9-0.6-0.6-1.1-0.9-2-0.9-0.3 0-0.6 0-0.7 0m0.1 2.1c-0.2 0.2-0.2 0.2-0.4 0.5-0.1 0.2-0.1 0.3-0.1 0.5 0.1 0.3 0.2 0.6 0.5 0.7 0.1 0.2 0.2 0.2 0.5 0.2 0.3 0 0.4 0 0.5-0.2 0.7-0.4 0.6-1.3-0.1-1.7-0.3-0.1-0.5-0.1-0.9 0" stroke="none" fill="black" fill-rule="evenodd"></path><path fill-opacity="0.145" d="M3.9 4.6c-1.6 1.8-2.6 4-2.8 6.3-0.3 2.7 0.5 5.6 2.1 7.8 0.3 0.4 1 1.1 1 1.1 0.1 0 1.4-1.4 1.4-1.4 0 0-0.2-0.2-0.4-0.5-1.1-1.3-1.8-2.8-2.1-4.6-0.1-0.6-0.1-2.1 0-2.7 0.3-1.7 1-3.2 2.1-4.4 0.2-0.3 0.3-0.5 0.4-0.5 0-0.1-0.1-0.3-0.6-0.8-0.4-0.3-0.7-0.6-0.8-0.6 0 0-0.1 0.1-0.3 0.3m15.1 0.3c-0.5 0.5-0.6 0.7-0.6 0.8 0.1 0 0.2 0.2 0.4 0.5 1.1 1.2 1.8 2.7 2.1 4.3 0.1 0.8 0.1 2.1 0 2.9-0.3 1.7-1 3.2-2.1 4.5-0.2 0.3-0.4 0.5-0.4 0.5 0 0 1.3 1.4 1.4 1.4 0 0 0.7-0.7 1-1.1 0.6-0.9 1.2-2.1 1.6-3.1 1.3-3.8 0.4-8.1-2.3-11.1-0.2-0.1-0.3-0.2-0.3-0.2-0.1 0-0.4 0.3-0.8 0.6m-12.2 2.4c-0.9 1-1.6 2.4-1.7 3.9-0.3 2 0.4 4.1 1.8 5.5l0.2 0.3 0.7-0.7 0.7-0.7-0.4-0.5c-1.5-1.9-1.5-4.5 0.1-6.4l0.3-0.3-0.7-0.7-0.7-0.7-0.3 0.3m9.4 0.4l-0.7 0.7 0.4 0.5c1.5 1.8 1.5 4.4 0 6.2l-0.4 0.5 0.7 0.7 0.7 0.6 0.2-0.1c0.1-0.1 0.3-0.3 0.4-0.5 2-2.6 2-6 0-8.5-0.1-0.3-0.3-0.5-0.4-0.6l-0.2-0.1-0.7 0.6m-4.8 1.4c-0.6 0.1-1.1 0.4-1.6 0.9-0.9 0.9-1 2.2-0.5 3.3 0.2 0.5 0.9 1.2 1.4 1.4l0.3 0.2 0 3 0 3.1 1 0 1 0 0-3.1 0-3 0.3-0.2c0.5-0.2 1.2-0.9 1.4-1.4 0.4-0.8 0.4-1.8 0-2.6-0.1-0.3-0.3-0.5-0.6-0.8-0.4-0.4-0.7-0.6-1.2-0.8-0.3-0.1-1.2-0.1-1.5 0m0.2 2c-0.2 0.1-0.3 0.2-0.4 0.3-0.2 0.2-0.2 0.3-0.2 0.6 0 0.3 0 0.4 0.2 0.6 0.4 0.5 1.2 0.5 1.6 0 0.2-0.2 0.2-0.3 0.2-0.6 0-0.3 0-0.4-0.2-0.6-0.3-0.4-0.8-0.5-1.2-0.3" stroke="none" fill="black" fill-rule="evenodd"></path><path fill-opacity="0.581" d="M3.9 4.5c-1.4 1.6-2.4 3.7-2.8 6-0.1 0.7-0.1 2.3 0 3.1 0.4 2.2 1.4 4.3 2.8 5.8l0.3 0.4 0.7-0.7 0.7-0.7-0.2-0.3c-0.5-0.5-1.1-1.4-1.5-2.2-1.6-3.3-1-7.4 1.5-10l0.2-0.3-0.7-0.7-0.7-0.7-0.3 0.3m15.2 0.5l-0.7 0.6 0.2 0.3c1.7 1.8 2.6 4.5 2.3 7-0.2 2-1 3.9-2.3 5.2l-0.2 0.3 0.7 0.7 0.7 0.6 0.2-0.2c0.5-0.5 1.3-1.6 1.8-2.5 0.8-1.6 1.2-3.2 1.2-5 0-1.8-0.4-3.4-1.2-5-0.5-0.9-1.3-2-1.8-2.6l-0.2-0.1-0.7 0.7m-12.3 2.4c-0.4 0.3-0.8 1-1.1 1.5-0.9 2-0.9 4.2 0 6.2 0.3 0.5 0.8 1.2 1.1 1.5l0.2 0.3 0.7-0.7 0.7-0.7-0.3-0.4c-0.4-0.5-0.8-1.2-0.9-1.8-0.2-0.5-0.2-0.6-0.2-1.3 0-0.6 0-0.8 0.1-1.2 0.3-0.8 0.5-1.3 1.1-2l0.2-0.3-0.6-0.7c-0.4-0.4-0.7-0.7-0.8-0.7 0 0-0.1 0.1-0.2 0.3m9.4 0.4l-0.6 0.7 0.2 0.3c0.5 0.6 0.8 1.2 1.1 2 0.1 0.6 0.1 1.8 0 2.4-0.3 0.8-0.5 1.4-1.1 2l-0.2 0.3 0.7 0.7 0.6 0.7 0.2-0.1c0.3-0.3 0.9-1.1 1.2-1.7 1.1-2.3 0.9-4.9-0.5-7-0.3-0.4-0.8-1-0.8-1-0.1 0-0.4 0.3-0.8 0.7m-4.8 1.3c-1.2 0.2-2.1 1.2-2.3 2.3-0.2 0.7-0.1 1.3 0.2 1.9 0.3 0.6 0.8 1.1 1.3 1.4l0.4 0.1 0 3.1 0 3.1 1 0 1 0 0-3.1 0-3.1 0.4-0.1c0.5-0.3 1-0.8 1.3-1.4 0.6-1.1 0.3-2.5-0.6-3.4-0.7-0.7-1.7-1-2.7-0.8m0.2 2c-0.8 0.3-0.8 1.4-0.1 1.8 0.7 0.3 1.4-0.1 1.5-0.8 0-0.6-0.4-1.1-1-1.1-0.1 0-0.3 0-0.4 0.1" stroke="none" fill="black" fill-rule="evenodd"></path><path fill-opacity="0.962" d="M3.9 4.5c-1.2 1.4-2.1 3.1-2.6 4.9-0.2 0.9-0.3 1.5-0.3 2.6 0 1.4 0.2 2.4 0.6 3.6 0.3 0.7 0.8 1.8 1.2 2.4 0.3 0.5 1 1.3 1.3 1.6l0.1 0.1 0.7-0.6 0.7-0.7-0.3-0.4c-2-2.2-2.8-5.3-2-8.3 0.3-1.3 1.1-2.7 2-3.7l0.3-0.4-0.7-0.7-0.7-0.7-0.3 0.3m15.2 0.4l-0.7 0.7 0.3 0.3c0.9 1 1.7 2.5 2 3.8 0.8 3 0 6.1-2 8.3l-0.3 0.4 0.7 0.7 0.7 0.7 0.3-0.4c1.4-1.5 2.4-3.7 2.8-5.9 0.1-0.7 0.1-2.2 0-2.8-0.3-2.3-1.3-4.5-2.8-6.1l-0.3-0.4-0.7 0.7m-12.3 2.5c-2.4 2.7-2.3 6.6 0 9.3l0.2 0.2 0.7-0.7 0.7-0.7-0.2-0.2c-0.5-0.6-0.9-1.4-1.1-2.1-0.1-0.6-0.1-1.9 0-2.3 0.3-0.9 0.8-1.9 1.2-2.3l0.2-0.1-0.7-0.7c-0.4-0.4-0.7-0.7-0.8-0.7 0 0-0.1 0.1-0.2 0.3m9.4 0.4l-0.7 0.7 0.2 0.1c0.4 0.3 0.9 1.3 1.1 2.1 0.2 0.4 0.2 0.5 0.2 1.3 0 0.8 0 0.9-0.2 1.3-0.2 0.8-0.6 1.5-1 2l-0.2 0.2 0.7 0.7 0.7 0.7 0.2-0.2c2.1-2.4 2.4-6 0.6-8.6-0.3-0.4-0.8-1-0.8-1-0.1 0-0.4 0.3-0.8 0.7m-4.6 1.2c-0.4 0.1-0.9 0.3-1.2 0.5-0.3 0.2-0.8 0.7-1 1.1-0.5 0.9-0.5 2.1 0.1 3.1 0.3 0.4 0.7 0.7 1.2 1l0.3 0.1 0 3.1 0 3.1 1 0 1 0 0-3.1 0-3.1 0.3-0.1c1.8-0.9 2.2-3.4 0.8-4.8-0.3-0.4-0.6-0.5-1.1-0.7-0.4-0.2-1-0.2-1.4-0.2m0 2.1c-0.4 0.2-0.6 0.5-0.6 1 0 0.2 0.1 0.3 0.2 0.5 0.2 0.3 0.4 0.4 0.6 0.4 0.4 0 0.6 0 0.8-0.2 0.8-0.7 0.3-1.8-0.6-1.8-0.2 0-0.3 0-0.4 0.1" stroke="none" fill="black" fill-rule="evenodd"></path></svg>