<?xml version="1.0"?><svg xmlns="http://www.w3.org/2000/svg" width="24" height="24" viewBox="0 0 24 24" version="1.1"><rect x="0" y="0" width="24" height="24" fill="#00000000"></rect><path fill-opacity="0.502" d="M5.5 5.6c0 0 0 0.7 0 1.5l0 1.4 1.5 0 1.5 0 0-1.5 0-1.5-1.5 0c-1.1 0-1.5 0-1.5 0.1m5 0c0 0 0 0.7 0 1.5l0 1.4 1.5 0 1.5 0 0-1.5 0-1.5-1.5 0c-1.1 0-1.5 0-1.5 0.1m5 0c0 0 0 0.7 0 1.5l0 1.4 1.5 0 1.5 0 0-1.5 0-1.5-1.5 0c-1.1 0-1.5 0-1.5 0.1m-10 5c0 0 0 0.7 0 1.5l0 1.4 1.5 0 1.5 0 0-1.5 0-1.5-1.5 0c-1.1 0-1.5 0-1.5 0.1m5 0c0 0 0 0.7 0 1.5l0 1.4 1.5 0 1.5 0 0-1.5 0-1.5-1.5 0c-1.1 0-1.5 0-1.5 0.1m5 0c0 0 0 0.7 0 1.5l0 1.4 1.5 0 1.5 0 0-1.5 0-1.5-1.5 0c-1.1 0-1.5 0-1.5 0.1m-10 5c0 0 0 0.7 0 1.5l0 1.4 1.5 0 1.5 0 0-1.5 0-1.5-1.5 0c-1.1 0-1.5 0-1.5 0.1m5 0c0 0 0 0.7 0 1.5l0 1.4 1.5 0 1.5 0 0-1.5 0-1.5-1.5 0c-1.1 0-1.5 0-1.5 0.1m5 0c0 0 0 0.7 0 1.5l0 1.4 1.5 0 1.5 0 0-1.5 0-1.5-1.5 0c-1.1 0-1.5 0-1.5 0.1m-5 5c0 0 0 0.7 0 1.5l0 1.4 1.5 0 1.5 0 0-1.5 0-1.5-1.5 0c-1.1 0-1.5 0-1.5 0.1" stroke="none" fill="black" fill-rule="evenodd"></path><path fill-opacity="1.000" d="M5.6 7l0 1.5 1.4 0 1.5 0 0-1.5 0-1.4-1.5 0-1.4 0 0 1.4m5 0l0 1.5 1.4 0 1.5 0 0-1.5 0-1.4-1.5 0-1.4 0 0 1.4m5 0l0 1.5 1.4 0 1.5 0 0-1.5 0-1.4-1.5 0-1.4 0 0 1.4m-10 5l0 1.5 1.4 0 1.5 0 0-1.5 0-1.4-1.5 0-1.4 0 0 1.4m5 0l0 1.5 1.4 0 1.5 0 0-1.5 0-1.4-1.5 0-1.4 0 0 1.4m5 0l0 1.5 1.4 0 1.5 0 0-1.5 0-1.4-1.5 0-1.4 0 0 1.4m-10 5l0 1.5 1.4 0 1.5 0 0-1.5 0-1.4-1.5 0-1.4 0 0 1.4m5 0l0 1.5 1.4 0 1.5 0 0-1.5 0-1.4-1.5 0-1.4 0 0 1.4m5 0l0 1.5 1.4 0 1.5 0 0-1.5 0-1.4-1.5 0-1.4 0 0 1.4m-5 5l0 1.5 1.4 0 1.5 0 0-1.5 0-1.4-1.5 0-1.4 0 0 1.4" stroke="none" fill="black" fill-rule="evenodd"></path></svg>