<?xml version="1.0"?><svg xmlns="http://www.w3.org/2000/svg" width="24" height="24" viewBox="0 0 24 24" version="1.1"><rect x="0" y="0" width="24" height="24" fill="#00000000"></rect><path fill-opacity="0.333" d="M10.8 1.1c-4.4 0.5-8.1 3.6-9.4 7.9-1.2 4.3 0.3 9.1 4 11.8 1.4 1.1 3.1 1.8 4.9 2.1 0.7 0.1 2.7 0.1 3.4 0 3.1-0.6 5.8-2.3 7.5-4.9 0.4-0.6 1-1.8 1.2-2.5 1.2-3.5 0.6-7.2-1.6-10.1-1.8-2.5-4.6-4-7.7-4.3-0.6-0.1-1.8-0.1-2.3 0m0.3 2c-0.9 0.1-2 0.4-2.9 0.8-1.9 0.8-3.4 2.4-4.3 4.3-1.6 3.4-0.9 7.5 1.8 10.2 2.7 2.6 6.7 3.3 10.1 1.7 1.9-0.8 3.5-2.4 4.3-4.3 1.2-2.4 1.2-5.2 0-7.6-0.7-1.6-2-3-3.5-3.9-1.6-1-3.6-1.4-5.5-1.2m-0.1 2c-1.6 0.2-2.9 0.9-4 2-0.8 0.8-1.3 1.7-1.6 2.7-0.2 0.6-0.4 1.2-0.4 1.7l0 0.5 1 0 1 0 0-0.3c0.1-0.9 0.3-1.6 0.7-2.2 0.8-1.4 2.2-2.3 3.7-2.4 0.3-0.1 0.5-0.1 0.5-0.1 0.1 0 0.1-0.2 0.1-1l0-1-0.3 0c-0.2 0-0.5 0-0.7 0.1m0.4 3.9c-1.1 0.3-1.9 1-2.3 2-0.1 0.5-0.1 1.4 0 1.9 0.3 0.9 1.1 1.7 1.9 2 0.3 0.1 0.5 0.1 1 0.1 0.5 0 0.7 0 1-0.1 0.8-0.3 1.6-1.1 1.9-2 0.1-0.5 0.1-1.3 0-1.8-0.3-0.9-1.1-1.7-1.9-2-0.2 0-0.5-0.1-0.9-0.1-0.3 0-0.6 0-0.7 0m0.1 2.1c-0.2 0.2-0.2 0.2-0.4 0.5-0.1 0.2-0.1 0.3-0.1 0.5 0.1 0.3 0.2 0.6 0.5 0.7 0.1 0.2 0.2 0.2 0.5 0.2 0.3 0 0.4 0 0.5-0.2 0.7-0.4 0.6-1.3-0.1-1.7-0.3-0.1-0.5-0.1-0.9 0m5.5 1.2c0 0.2-0.1 0.5-0.1 0.7-0.4 1.8-1.8 3.3-3.5 3.8-0.3 0.1-1.1 0.2-1.3 0.2-0.1 0-0.1 0.2-0.1 1l0 1 0.2 0c0.7 0 1.8-0.3 2.6-0.6 1.4-0.6 2.8-1.9 3.5-3.3 0.4-0.8 0.7-2 0.7-2.8l0-0.3-1 0-1 0 0 0.3" stroke="none" fill="black" fill-rule="evenodd"></path><path fill-opacity="0.383" d="M10.8 1.1c-1.4 0.1-2.6 0.5-3.8 1.1-3.8 2-6.2 6-6 10.2 0.2 4.1 2.5 7.7 6.2 9.5 3 1.5 6.6 1.5 9.6 0 3.2-1.6 5.5-4.6 6.1-8.1 0.1-0.9 0.1-2.6 0-3.4-0.4-2.4-1.5-4.5-3.2-6.2-0.8-0.8-1.6-1.4-2.6-1.9-1.9-1.1-4.2-1.5-6.3-1.2m0.2 2c-2.7 0.2-5.3 1.9-6.7 4.2-2.1 3.6-1.6 8.1 1.3 11.1 1.3 1.2 2.8 2 4.7 2.4 0.6 0.2 0.7 0.2 1.7 0.2 1 0 1.1 0 1.7-0.2 1.9-0.4 3.4-1.2 4.6-2.4 3.6-3.6 3.6-9.2 0.1-12.8-2-1.9-4.6-2.8-7.4-2.5m0.1 2c-1.5 0.2-2.9 0.8-3.9 1.8-1 1-1.6 2-1.9 3.2-0.2 0.5-0.3 1.4-0.3 1.7l0 0.2 1 0 1 0 0-0.2c0-0.3 0.1-1 0.3-1.4 0.4-1.3 1.4-2.4 2.7-3 0.4-0.2 1.1-0.3 1.6-0.4l0.4 0 0-1 0-1-0.2 0c-0.2 0-0.5 0-0.7 0.1m0.3 4c-0.2 0-0.5 0.1-0.7 0.2-0.3 0.2-0.5 0.3-0.8 0.6-0.6 0.6-0.9 1.3-0.9 2.1 0 0.8 0.3 1.5 0.9 2.1 0.5 0.5 0.9 0.7 1.4 0.8 1.1 0.2 2 0 2.8-0.8 0.6-0.6 0.9-1.3 0.9-2.1 0-0.8-0.3-1.5-0.9-2.1-0.3-0.3-0.5-0.4-0.8-0.6-0.6-0.3-1.3-0.4-1.9-0.2m0.1 2c-0.1 0.1-0.2 0.2-0.3 0.3-0.2 0.2-0.2 0.3-0.2 0.6 0 0.3 0 0.4 0.2 0.6 0.4 0.5 1.2 0.5 1.6 0 0.2-0.2 0.2-0.3 0.2-0.6 0-0.3 0-0.4-0.2-0.6-0.2-0.2-0.5-0.4-0.8-0.4-0.1 0-0.3 0-0.5 0.1m5.5 1.1c0 0.3-0.1 1-0.3 1.3-0.1 0.6-0.5 1.2-0.8 1.6-0.9 1.1-2.1 1.7-3.5 1.9l-0.4 0 0 1c0 0.9 0 1 0.1 1 0.3 0 1.2-0.1 1.6-0.2 1.3-0.4 2.4-1 3.3-1.9 0.8-0.9 1.4-1.8 1.7-3 0.2-0.4 0.3-1.3 0.3-1.7l0-0.2-1 0-1 0 0 0.2" stroke="none" fill="black" fill-rule="evenodd"></path><path fill-opacity="0.466" d="M11 1.1c-2.2 0.2-4.2 1-5.8 2.3-0.9 0.7-1.9 1.8-2.5 2.7-1.1 1.9-1.7 3.7-1.7 5.9 0 1.8 0.4 3.3 1.2 4.9 0.5 1.1 1.2 2.1 2.2 3 1.6 1.6 3.7 2.6 6 3 0.8 0.1 2.4 0.1 3.2 0 2.3-0.4 4.4-1.4 6-3 0.7-0.6 1.1-1.1 1.6-1.8 0.8-1.3 1.4-2.9 1.7-4.5 0.1-0.8 0.1-2.4 0-3.1-0.4-2.4-1.4-4.5-3-6.1-0.6-0.7-1.1-1.1-1.8-1.6-2.1-1.3-4.7-2-7.1-1.7m0 1.9c-1.6 0.2-3.1 0.9-4.4 1.8-0.8 0.6-1.8 1.7-2.3 2.5-0.9 1.6-1.4 3.2-1.3 5 0 0.9 0.1 1.5 0.4 2.3 0.9 3.2 3.5 5.5 6.8 6.2 0.6 0.2 0.8 0.2 1.8 0.2 1 0 1.2 0 1.8-0.2 3.9-0.8 6.7-3.9 7.2-7.8 0-0.7 0-1.9-0.1-2.5-0.2-1.1-0.7-2.4-1.3-3.4-1.4-2-3.5-3.5-5.9-3.9-0.6-0.2-2.1-0.2-2.7-0.2m0.3 2.1c-0.9 0-1.7 0.3-2.5 0.7-0.8 0.4-1.3 0.8-1.8 1.4-1.2 1.2-1.8 2.6-2 4.4l0 0.4 1 0 1 0 0-0.4c0.2-1.8 1.3-3.4 2.9-4.1 0.4-0.2 1.2-0.4 1.7-0.5l0.4 0 0-1 0-1-0.1 0c-0.1 0-0.4 0-0.6 0.1m0.1 4c-0.9 0.2-1.7 0.8-2.1 1.6-0.4 0.8-0.4 1.8 0.1 2.7 0.2 0.5 0.8 1 1.3 1.3 1.2 0.6 2.5 0.3 3.4-0.6 0.6-0.6 0.9-1.2 0.9-2.1 0-0.9-0.3-1.6-1-2.2-0.7-0.7-1.7-0.9-2.6-0.7m0.2 2c-1 0.4-0.7 1.9 0.4 1.9 0.8 0 1.3-1 0.8-1.7-0.2-0.2-0.5-0.3-0.8-0.3-0.1 0-0.3 0-0.4 0.1m5.4 1.3c-0.2 1.9-1.5 3.7-3.4 4.3-0.4 0.2-1.1 0.3-1.4 0.3l-0.2 0 0 1 0 1 0.4 0c2.6-0.2 4.7-1.6 5.8-3.8 0.5-0.9 0.7-1.7 0.8-2.8l0-0.4-1 0-1 0 0 0.4" stroke="none" fill="black" fill-rule="evenodd"></path><path fill-opacity="0.964" d="M11.5 1c-1.4 0.1-2 0.3-3 0.6-3.5 1.1-6.3 4.1-7.2 7.8-0.2 0.9-0.3 1.5-0.3 2.6 0 1.8 0.4 3.2 1.1 4.8 1.6 3.3 4.7 5.5 8.4 6.1 0.3 0 0.8 0.1 1.5 0.1 0.7 0 1.2-0.1 1.6-0.1 2.3-0.4 4.3-1.4 6-3 1.8-1.6 2.9-3.9 3.3-6.4 0.1-0.7 0.1-2.3 0-3-0.4-2.8-1.8-5.2-3.9-6.9-1.5-1.4-3.7-2.3-5.7-2.5-0.5-0.1-1.5-0.1-1.8-0.1m-0.7 2.1c-3.8 0.5-6.9 3.4-7.7 7.2-0.1 0.5-0.1 0.7-0.1 1.7 0 1 0 1.2 0.1 1.7 0.3 1.4 0.9 2.7 1.8 3.8 0.3 0.5 1.2 1.3 1.6 1.7 1.1 0.8 2.4 1.4 3.8 1.7 0.5 0.1 0.7 0.1 1.7 0.1 1 0 1.2 0 1.7-0.1 2.9-0.6 5.2-2.5 6.5-5.1 0.5-1.2 0.7-2.1 0.8-3.5 0-1.1 0-1.6-0.3-2.5-0.7-2.9-3-5.4-5.8-6.3-1-0.4-1.6-0.5-2.7-0.5-0.6 0-1.2 0-1.4 0.1m0.6 2c-2.7 0.2-5 1.9-5.9 4.4-0.2 0.5-0.4 1.3-0.4 1.7 0 0.3-0.1 0.5-0.1 0.6l0 0.2 1 0 1 0 0-0.4c0.1-1.8 1.2-3.4 2.9-4.1 0.5-0.3 1.1-0.4 1.7-0.5l0.4 0 0-1c0-0.8 0-1-0.1-1 0 0-0.2 0-0.5 0.1m0.2 3.9c-0.4 0.1-0.9 0.3-1.2 0.5-0.3 0.2-0.8 0.7-1 1.1-0.4 0.7-0.5 1.6-0.2 2.4 0.2 0.6 0.8 1.3 1.4 1.6 0.4 0.3 0.8 0.4 1.4 0.4 0.6 0 1-0.1 1.4-0.4 1.8-0.9 2.1-3.3 0.7-4.7-0.3-0.4-0.6-0.5-1.1-0.7-0.4-0.2-1-0.2-1.4-0.2m-0.1 2.1c-0.1 0.1-0.2 0.2-0.3 0.3-0.2 0.2-0.2 0.2-0.2 0.6 0 0.4 0 0.4 0.2 0.6 0.2 0.3 0.4 0.4 0.6 0.4 0.4 0 0.6 0 0.8-0.2 0.3-0.3 0.4-0.5 0.4-0.9 0-0.2-0.1-0.3-0.2-0.5-0.2-0.3-0.5-0.4-0.8-0.4-0.2 0-0.3 0-0.5 0.1m5.5 1.3c-0.1 1.1-0.6 2.2-1.3 3-0.5 0.5-0.9 0.8-1.5 1.1-0.6 0.3-1.1 0.4-1.8 0.5l-0.4 0 0 1 0 1 0.3 0c3.2-0.2 5.7-2.3 6.5-5.4 0-0.2 0.1-0.6 0.1-0.8 0-0.3 0.1-0.5 0.1-0.6l0-0.2-1 0-1 0 0 0.4" stroke="none" fill="black" fill-rule="evenodd"></path></svg>