<?xml version="1.0"?><svg xmlns="http://www.w3.org/2000/svg" width="24" height="24" viewBox="0 0 24 24" version="1.1"><rect x="0" y="0" width="24" height="24" fill="#00000000"></rect><path fill-opacity="0.333" d="M0 12l0 8 12 0 12 0 0-8 0.1-8-12.1 0-12 0 0 8m0 0c0 4.4 0 6.2 0 4 0-2.2 0-5.8 0-8 0-2.2 0-0.4 0 4m4 0l0 4 1.3 0c1.2 0 1.4 0 1.7-0.1 1.4-0.5 2.5-1.5 2.9-2.9 0.1-0.5 0.1-1.5 0-2-0.3-1.2-1.2-2.2-2.3-2.6-0.6-0.3-0.9-0.4-2.3-0.4l-1.3 0 0 4m13.5-4c-0.5 0.1-0.8 0.2-1.1 0.3-1 0.5-1.9 1.5-2.3 2.7-0.1 0.5-0.1 1.5 0 2 0.4 1.4 1.5 2.4 2.9 2.9 0.3 0.1 0.5 0.1 1.7 0.1l1.3 0 0-4 0-4-1.2 0c-0.6 0-1.2 0-1.3 0" stroke="none" fill="black" fill-rule="evenodd"></path><path fill-opacity="0.430" d="M0 12l0 8 12 0 12 0 0-8 0.1-8-12.1 0-12 0 0 8m0 0c0 4.4 0 6.2 0 4 0-2.2 0-5.8 0-8 0-2.2 0-0.4 0 4m4 0l0 4 1.4 0c1 0 1.4-0.1 1.6-0.1 1.5-0.5 2.6-1.6 2.9-3.2 0.3-1.2-0.2-2.6-1.1-3.5-0.2-0.2-0.4-0.4-0.5-0.4-0.2-0.2-0.7-0.5-1.2-0.6-0.4-0.2-0.5-0.2-1.8-0.2l-1.3 0 0 4m13.3-3.9c-0.5 0.1-0.8 0.2-1.2 0.4-0.4 0.2-0.5 0.3-0.9 0.7-1.6 1.5-1.6 4.1 0 5.6 0.5 0.5 1.1 0.9 1.9 1.1 0.1 0 0.7 0.1 1.5 0.1l1.4 0 0-4 0-4-1.2 0c-0.8 0-1.3 0-1.5 0.1" stroke="none" fill="black" fill-rule="evenodd"></path><path fill-opacity="0.340" d="M0 12l0 8 12 0 12 0 0-8 0.1-8-12.1 0-12 0 0 8m0 0c0 4.4 0 6.2 0 4 0-2.2 0-5.8 0-8 0-2.2 0-0.4 0 4m4 0l0 4 1.4 0c1.3 0 1.4 0 1.7-0.1 1.4-0.5 2.4-1.5 2.8-2.8 0.1-0.6 0.1-1.6 0-2.2-0.4-1.3-1.5-2.4-2.8-2.8-0.3-0.1-0.5-0.1-1.7-0.1l-1.4 0 0 4m13.4-4c-0.7 0.1-1.4 0.5-1.9 0.9-0.6 0.5-1.1 1.3-1.4 2-0.1 0.6-0.1 1.6 0 2.2 0.4 1.3 1.4 2.3 2.8 2.8 0.3 0.1 0.4 0.1 1.7 0.1l1.4 0 0-4 0-4-1.2 0c-0.7 0-1.3 0-1.4 0" stroke="none" fill="black" fill-rule="evenodd"></path><path fill-opacity="0.969" d="M0 12l0 8 12 0 12 0 0-8 0.1-8-12.1 0-12 0 0 8m0 0c0 4.4 0 6.2 0 4 0-2.2 0-5.8 0-8 0-2.2 0-0.4 0 4m4 0l0 4 1.2 0c1.5 0 1.8 0 2.5-0.4 1.1-0.5 1.8-1.3 2.1-2.4 0.2-0.4 0.2-0.5 0.2-1.2 0-0.6 0-0.8-0.1-1.1-0.5-1.5-1.6-2.5-3.1-2.8-0.3-0.1-0.7-0.1-1.6-0.1l-1.2 0 0 4m13.2-3.9c-1.5 0.3-2.6 1.3-3.1 2.8-0.1 0.3-0.1 0.5-0.1 1.1 0 0.6 0 0.8 0.1 1.1 0.4 1.2 1.1 2 2.3 2.6 0.6 0.3 0.9 0.3 2.3 0.3l1.3 0 0-4 0-4-1.3 0c-0.8 0-1.3 0-1.5 0.1" stroke="none" fill="black" fill-rule="evenodd"></path></svg>