<?xml version="1.0"?><svg xmlns="http://www.w3.org/2000/svg" width="24" height="24" viewBox="0 0 24 24" version="1.1"><rect x="0" y="0" width="24" height="24" fill="#00000000"></rect><path fill-opacity="0.294" d="M11 3.5l0 1.5-1.4 0c-1.2 0-1.4 0-1.7 0.1-1.3 0.4-2.4 1.5-2.8 2.9-0.1 0.5-0.1 1.5 0 2 0.1 0.5 0.5 1.2 0.8 1.5 0.5 0.6 1.2 1.1 2 1.4 0.3 0.1 0.4 0.1 1.7 0.1l1.4 0 0 2 0 2-1 0-1 0 0-1 0-1-1 0-1 0 0 2 0 2 2 0 2 0 0 1.5 0 1.5 1 0 1 0 0-1.5 0-1.5 1.4 0c1.3 0 1.4 0 1.7-0.1 1.4-0.5 2.4-1.6 2.8-2.9 0.1-0.5 0.1-1.5 0-2-0.4-1.4-1.5-2.5-2.8-2.9-0.3-0.1-0.5-0.1-1.7-0.1l-1.4 0 0-2 0-2 1 0 1 0 0 1 0 1 1 0 1 0 0-2 0-2-2 0-2 0 0-1.5 0-1.5-1 0-1 0 0 1.5m-2.4 3.6c-0.8 0.1-1.4 0.8-1.6 1.6-0.1 1 0.6 2.1 1.7 2.3 0.1 0 0.7 0 1.3 0l1 0 0-2 0-2-1.1 0c-0.5 0-1.1 0-1.3 0.1m4.4 7.9l0 2 1 0c0.6 0 1.2 0 1.3 0 0.8-0.2 1.5-0.9 1.7-1.7 0.1-1.1-0.6-2.1-1.7-2.3-0.1 0-0.7 0-1.3 0l-1 0 0 2" stroke="none" fill="black" fill-rule="evenodd"></path><path fill-opacity="0.250" d="M11 3.5l0 1.5-1.1 0c-0.7 0-1.3 0-1.5 0.1-1.4 0.2-2.7 1.2-3.2 2.6-0.6 1.9 0.2 4 2 4.9 0.8 0.3 0.9 0.4 2.4 0.4l1.4 0 0 2 0 2-1 0-1 0 0-1 0-1-1 0-1 0 0 2 0 2 2 0 2 0 0 1.5 0 1.5 1 0 1 0 0-1.5 0-1.5 1.4 0c1.5 0 1.6-0.1 2.4-0.4 1-0.5 1.7-1.3 2-2.4 0.2-0.4 0.2-0.5 0.2-1.2 0-0.7 0-0.8-0.2-1.2-0.4-1.3-1.3-2.2-2.6-2.6-0.5-0.2-0.5-0.2-1.8-0.2l-1.4 0 0-2 0-2 1 0 1 0 0 1 0 1 1 0 1 0 0-2 0-2-2 0-2 0 0-1.5 0-1.5-1 0-1 0 0 1.5m-2.4 3.6c-1 0.2-1.7 1.2-1.6 2.2 0.2 0.9 0.8 1.5 1.6 1.6 0.2 0.1 0.8 0.1 1.4 0.1l1 0 0-2 0-2-1.1 0c-0.6 0-1.2 0-1.3 0.1m4.4 7.9l0 2 1.2 0c1.4 0 1.5-0.1 1.9-0.4 0.6-0.4 0.9-0.9 0.9-1.6 0-0.9-0.5-1.5-1.3-1.9-0.2-0.1-0.4-0.1-1.5-0.1l-1.2 0 0 2" stroke="none" fill="black" fill-rule="evenodd"></path><path fill-opacity="0.474" d="M11 3.5l0 1.5-1.3 0c-1.5 0-1.7 0.1-2.3 0.3-0.6 0.3-1.3 0.8-1.6 1.4-0.3 0.3-0.5 0.8-0.7 1.3-0.1 0.5-0.1 1.5 0 2 0.2 0.5 0.4 1 0.7 1.3 0.4 0.6 1.1 1.2 1.7 1.4 0.7 0.3 1 0.3 2.3 0.3l1.2 0 0 2 0 2-1 0-1 0 0-1 0-1-1 0-1 0 0 2 0 2 2 0 2 0 0 1.5 0 1.5 1 0 1 0 0-1.5 0-1.5 1.2 0c1.3 0 1.6 0 2.3-0.3 1.2-0.5 2.1-1.6 2.4-2.9 0.5-2.2-1.1-4.5-3.4-4.8-0.2 0-0.8 0-1.4 0l-1.1 0 0-2 0-2 1 0 1 0 0 1 0 1 1 0 1 0 0-2 0-2-2 0-2 0 0-1.5 0-1.5-1 0-1 0 0 1.5m-2.5 3.6c-0.3 0-0.7 0.3-1 0.5-0.1 0.2-0.2 0.4-0.3 0.6-0.2 0.3-0.2 0.4-0.2 0.8 0 0.4 0 0.5 0.2 0.8 0.2 0.4 0.6 0.8 1 1l0.3 0.2 1.3 0 1.2 0 0-2 0-2-1.1 0c-0.7 0-1.3 0-1.4 0.1m4.5 7.9l0 2 1.2 0 1.3 0 0.3-0.2c0.4-0.2 0.8-0.6 1-1 0.2-0.3 0.2-0.4 0.2-0.8 0-0.4 0-0.5-0.2-0.8-0.2-0.5-0.5-0.8-0.9-1l-0.4-0.2-1.3 0-1.2 0 0 2" stroke="none" fill="black" fill-rule="evenodd"></path><path fill-opacity="0.972" d="M11 3.5l0 1.5-1.3 0c-1.1 0-1.3 0.1-1.7 0.1-1.8 0.5-3 2-3 3.9 0 1.6 0.9 2.9 2.3 3.6 0.7 0.3 0.9 0.4 2.4 0.4l1.3 0 0 2 0 2-1 0-1 0 0-1 0-1-1 0-1 0 0 2 0 2 2 0 2 0 0 1.5 0 1.5 1 0 1 0 0-1.5 0-1.5 1.3 0c1.5 0 1.7-0.1 2.3-0.4 1.5-0.6 2.4-2 2.4-3.6 0-1.9-1.2-3.4-3-3.9-0.4 0-0.6-0.1-1.7-0.1l-1.3 0 0-2 0-2 1 0 1 0 0 1 0 1 1 0 1 0 0-2 0-2-2 0-2 0 0-1.5 0-1.5-1 0-1 0 0 1.5m-2.6 3.6c-0.4 0.1-0.6 0.3-0.9 0.5-0.3 0.4-0.5 0.9-0.5 1.4 0 0.7 0.4 1.4 1 1.7 0.4 0.3 0.6 0.3 1.9 0.3l1.1 0 0-2 0-2-1.2 0c-1 0-1.2 0-1.4 0.1m4.6 7.9l0 2 1.1 0c1.5 0 1.8-0.1 2.3-0.6 0.6-0.5 0.8-1.4 0.5-2.2-0.2-0.3-0.6-0.7-0.9-0.9-0.4-0.3-0.6-0.3-1.8-0.3l-1.2 0 0 2" stroke="none" fill="black" fill-rule="evenodd"></path></svg>