<?xml version="1.0"?><svg xmlns="http://www.w3.org/2000/svg" width="24" height="24" viewBox="0 0 24 24" version="1.1"><rect x="0" y="0" width="24" height="24" fill="#00000000"></rect><path fill-opacity="0.365" d="M10.7 1.1c-1.3 0.1-2.3 0.4-3.5 1-1.2 0.6-2 1.2-3 2.1-2.8 2.9-3.9 7-2.8 10.9 0.4 1.2 1 2.4 1.8 3.4 1.2 1.7 2.8 2.9 4.7 3.7 2 0.8 4.3 1 6.5 0.5 2-0.4 3.9-1.4 5.4-2.9 1.4-1.5 2.4-3.3 2.9-5.3 0.4-1.6 0.4-3.5 0-5.2-0.5-1.7-1.4-3.5-2.6-4.8-1.5-1.6-3.7-2.8-5.7-3.2-1.1-0.3-2.6-0.4-3.7-0.2m0.4 2c-0.6 0-1.3 0.2-1.6 0.3l-0.1 0 0.4 0.7c1.1 1.5 2.2 3.2 2.8 4.4l0.4 0.8 0.2-0.1c1.1-0.6 2.5-1.5 3.6-2.4 0.6-0.5 1.4-1.2 1.4-1.3 0 0-0.2-0.2-0.4-0.4-1.4-1.2-3.2-1.9-5-2-0.8-0.1-1-0.1-1.7 0m-4.4 1.6c-0.6 0.5-0.9 0.7-1.4 1.3-1 1.2-1.7 2.5-2.1 4.1-0.1 0.5-0.2 1.6-0.2 1.7 0.1 0.1 1.9 0 2.8-0.2 1.5-0.2 2.7-0.5 4.1-1 1-0.4 1.2-0.4 1.2-0.5 0-0.2-1.4-2.4-2.2-3.5-0.5-0.8-1.6-2.2-1.7-2.2 0 0-0.2 0.1-0.5 0.3m12.3 2.8c-1.4 1.3-3.1 2.5-4.8 3.4-0.2 0.1-0.3 0.2-0.3 0.3 0 0 0.2 0.5 0.5 1.1l0.5 1.2 0.2-0.1c0.1 0 0.4 0 0.7-0.1 1.4-0.2 3.3-0.2 4.6 0 0.2 0.1 0.5 0.1 0.5 0.1 0 0 0-0.3 0.1-0.7 0.1-1.8-0.4-3.8-1.3-5.4l-0.2-0.2-0.5 0.4m-7.4 4.6c-2.3 1-4.7 1.5-7.8 1.7l-0.6 0.1 0.1 0.4c0.3 1.3 1.1 2.7 2 3.7l0.3 0.3 0.4-0.4c1.8-1.6 3.8-2.8 6.2-3.7 0.5-0.2 0.7-0.3 0.7-0.3-0.1-0.1-0.2-0.5-0.4-0.9-0.2-0.4-0.3-0.8-0.4-0.9 0-0.1-0.1-0.1-0.5 0m5.8 3.1c-0.7 0-1.6 0.1-1.7 0.2 0 0 0.1 0.4 0.2 0.8 0.3 0.8 0.7 2.4 0.9 3 0 0.3 0.1 0.3 0.1 0.3 0.5-0.2 1.8-1.4 2.2-2.1 0.4-0.4 0.8-1 1-1.6l0.2-0.4-0.1-0.1c-0.4-0.1-1.8-0.1-2.8-0.1m-4.5 0.9c-2 0.7-3.8 1.8-5.3 3.1l-0.4 0.4 0.1 0.1c1 0.6 2.3 1 3.5 1.2 0.6 0.1 1.9 0.1 2.5 0 0.7-0.1 1.4-0.3 1.4-0.4 0.1-0.1-0.3-1.9-0.6-2.9-0.4-1.5-0.5-1.7-0.6-1.7 0 0-0.3 0.1-0.6 0.2" stroke="none" fill="black" fill-rule="evenodd"></path><path fill-opacity="0.234" d="M10.9 1.1c-3 0.3-5.8 1.8-7.6 4.2-1.5 1.9-2.3 4.3-2.3 6.8 0 3.4 1.8 7 4.7 8.9 2 1.4 4.3 2.1 6.6 2 1.7-0.1 3-0.4 4.4-1 2.6-1.3 4.5-3.4 5.6-6.1 0.9-2.2 0.9-5 0.2-7.3-1.3-3.7-4.3-6.5-8.1-7.3-1-0.3-2.4-0.4-3.5-0.2m0.1 2c-0.6 0-1.2 0.2-1.5 0.3l-0.2 0 0.4 0.6c1 1.3 2.3 3.3 2.9 4.6 0.2 0.4 0.4 0.7 0.4 0.7 0 0 0.3-0.2 0.7-0.4 1-0.6 2.1-1.3 2.9-2 0.7-0.5 1.6-1.3 1.6-1.4 0-0.1-0.7-0.7-1.2-1-1.8-1.2-3.9-1.7-6-1.4m-4.3 1.6c-1.7 1.2-2.9 3.1-3.5 5.2 0 0.4-0.2 1.5-0.2 1.8l0 0.2 0.8-0.1c1.3 0 3.1-0.3 4.2-0.6 1.2-0.3 3-0.9 3.1-1 0.1-0.1-1.1-2.2-2.1-3.6-0.6-0.8-1.7-2.2-1.8-2.2 0 0-0.2 0.1-0.5 0.3m12.5 2.6c-1.1 1.1-3.1 2.6-5.2 3.8l-0.2 0 0.5 1.2 0.6 1.2 0.2-0.1c0.1 0 0.4 0 0.8-0.1 1.3-0.2 3.2-0.2 4.4 0 0.3 0.1 0.6 0.1 0.6 0.1 0 0 0-0.3 0.1-0.7 0.1-1.5-0.2-3.3-0.9-4.6-0.3-0.5-0.6-1-0.6-1 0 0-0.1 0.1-0.3 0.2m-7.5 4.8c-0.6 0.3-2.5 0.9-3.2 1-1.5 0.4-3.1 0.6-4.3 0.7-1 0-1 0-1 0.2 0 0.1 0.1 0.4 0.3 0.8 0.3 1.1 1 2.2 1.7 3.1 0.4 0.5 0.3 0.5 0.9 0 1.6-1.5 3.7-2.8 6.1-3.7l0.7-0.3-0.2-0.5c-0.4-0.9-0.6-1.4-0.6-1.4-0.1 0-0.2 0-0.4 0.1m5.7 3.1c-0.5 0-1.7 0.2-1.7 0.2 0 0 0.1 0.4 0.2 0.8 0.3 0.8 0.7 2.5 0.9 3.1 0 0.1 0 0.2 0.1 0.2 0 0 0.5-0.3 1-0.7 0.9-0.8 1.6-1.7 2.2-2.8 0.2-0.5 0.2-0.6 0.2-0.7-0.2 0-2.1-0.2-2.9-0.1m-4.4 0.8c-2 0.8-4 1.9-5.6 3.4l-0.3 0.2 0.4 0.2c1.7 1 3.6 1.3 5.4 1.1 0.7-0.1 1.8-0.3 1.9-0.3 0.1-0.1-0.5-2.6-0.9-4-0.1-0.3-0.2-0.6-0.2-0.7-0.1 0-0.1 0-0.1 0 0 0-0.3 0-0.6 0.1" stroke="none" fill="black" fill-rule="evenodd"></path><path fill-opacity="0.395" d="M11 1.1c-1.3 0.1-2.6 0.4-3.8 1-2.8 1.4-5 4-5.8 7-0.4 1.5-0.5 3.2-0.3 4.6 0.4 2.4 1.5 4.4 3.2 6.1 1.8 1.9 4.5 3 7.3 3.2 1.3 0 3.1-0.2 4.3-0.7 3-1.2 5.3-3.5 6.4-6.5 0.5-1.2 0.7-2.4 0.7-3.8 0-1.8-0.4-3.2-1.1-4.8-1.1-2.1-2.5-3.7-4.6-4.8-1.8-1.1-4.1-1.5-6.3-1.3m0.1 2c-0.4 0-1.3 0.2-1.6 0.3-0.2 0-0.3 0.1-0.2 0.2 0.1 0 1.2 1.6 1.7 2.3 0.7 1.1 1.8 3 1.9 3.4 0 0 0.3-0.1 1.3-0.7 0.9-0.5 1.7-1.1 2.5-1.7 0.6-0.5 1.5-1.3 1.5-1.4 0-0.1-0.8-0.7-1.2-1-1.7-1.2-3.9-1.7-5.9-1.4m-4.2 1.5c-2.1 1.5-3.5 3.7-3.8 6.2-0.1 0.3-0.1 0.7-0.1 0.8l0 0.3 0.8-0.1c1.8 0 3.8-0.4 5.6-1 0.7-0.2 1.6-0.6 1.7-0.6 0.2-0.1-1.4-2.8-2.6-4.3-0.5-0.7-1.2-1.5-1.2-1.5-0.1 0-0.2 0-0.4 0.2m12.4 2.7c-0.7 0.6-2.3 1.9-3.4 2.6-0.6 0.4-1.9 1.2-2.1 1.2 0 0 0.8 1.9 1 2.3 0.1 0.1 0.1 0.1 0.5 0 1.6-0.3 3.5-0.3 5.4 0l0.2 0 0-0.2c0.1-0.2 0.1-0.7 0.1-1.2 0-0.9-0.1-1.1-0.1-1.6-0.2-0.7-0.5-1.6-0.7-2.2-0.2-0.4-0.6-1.1-0.7-1.1 0 0-0.1 0-0.2 0.2m-8.2 5c-2.3 0.9-4.8 1.4-7.1 1.5l-0.8 0 0 0.2c0.1 0.4 0.4 1.4 0.7 1.9 0.4 0.8 1.2 1.9 1.6 2.3l0.1 0.1 0.3-0.3c0.7-0.6 1.5-1.2 2.6-2 1-0.6 3-1.6 4.1-1.9 0.2-0.1 0.3-0.1 0.3-0.2 0 0-0.1-0.4-0.3-0.8-0.2-0.4-0.3-0.9-0.4-1 0-0.1-0.1-0.1-0.1-0.1-0.1 0-0.5 0.1-1 0.3m5.8 2.9c-0.8 0.1-1.3 0.2-1.3 0.2 0 0.1 0.2 0.6 0.4 1.2 0.2 0.6 0.4 1.5 0.6 2 0.1 0.5 0.2 1 0.2 1 0 0 0.6-0.3 1-0.7 0.8-0.7 1.4-1.4 1.9-2.2 0.3-0.5 0.7-1.3 0.6-1.4-0.1-0.1-2.4-0.2-3.4-0.1m-4 0.9c-1.9 0.7-3.7 1.7-5.2 3-0.6 0.5-0.6 0.5-0.3 0.7 1.6 0.9 3.6 1.4 5.5 1.1 0.6 0 1.6-0.2 1.8-0.3l0.1-0.1-0.1-0.6c-0.3-1.5-1-4.1-1.1-4 0 0-0.3 0.1-0.7 0.2" stroke="none" fill="black" fill-rule="evenodd"></path><path fill-opacity="0.973" d="M11.2 1.1c-1.4 0.1-2.8 0.4-4.1 1.1-1.8 0.8-3.5 2.4-4.5 4.1-1.4 2.3-1.9 5.2-1.4 7.7 0.5 2.3 1.5 4.2 3.1 5.8 0.7 0.7 1.1 1.1 2 1.6 2.6 1.5 5.5 2 8.5 1.2 1.4-0.3 2.9-1.1 4.1-2.1 2.1-1.7 3.5-4.1 3.9-6.7 0.4-2.3 0.1-4.5-0.9-6.6-0.8-1.5-1.7-2.7-3-3.7-1.3-1.1-3-1.9-4.5-2.2-1.1-0.2-2.3-0.3-3.2-0.2m-0.1 1.9c-0.3 0.1-1.2 0.2-1.6 0.3-0.1 0.1-0.2 0.1-0.2 0.2 0 0 0.2 0.3 0.4 0.6 1 1.3 2.1 3.1 2.9 4.5 0.2 0.4 0.3 0.7 0.3 0.7 0.1 0.1 1.4-0.7 2.4-1.4 0.7-0.5 1.5-1.1 2.4-1.8l0.6-0.6-0.2-0.1c-0.4-0.4-1.4-1.1-2.2-1.5-1.2-0.6-2.3-0.9-3.6-0.9-0.6 0-1.1 0-1.2 0m-4.2 1.5c-1.5 1-2.8 2.7-3.4 4.4-0.3 1-0.5 2-0.5 2.7l0 0.3 0.8-0.1c1.7 0 3.4-0.3 5.1-0.8 0.9-0.3 2.3-0.8 2.3-0.9 0.1-0.2-1.5-2.7-2.6-4.1-0.6-0.9-1.2-1.6-1.3-1.6 0 0-0.2 0-0.4 0.1m12.4 2.7c-0.1 0.2-1.1 1-1.5 1.4-1 0.7-2.2 1.5-3.3 2.2-0.4 0.2-0.7 0.3-0.7 0.3 0 0 0.2 0.6 0.5 1.2 0.5 1.1 0.6 1.2 0.7 1.2 0.2-0.1 1.1-0.2 1.7-0.2 1.1-0.2 3-0.1 4 0.1l0.2 0 0-0.2c0.1-0.1 0.1-0.7 0.1-1.2 0-0.9 0-1.2-0.1-1.6-0.2-0.7-0.4-1.6-0.7-2.1-0.2-0.5-0.6-1.2-0.7-1.2 0 0-0.1 0-0.2 0.1m-7.7 4.9c-0.5 0.2-2 0.7-2.7 0.9-1.7 0.5-3.9 0.8-5.3 0.8-0.5 0-0.5 0-0.3 0.7 0.3 0.9 0.6 1.6 1.1 2.4 0.3 0.4 0.8 1 1 1.3l0.2 0.1 0.4-0.3c1.7-1.6 3.7-2.9 6.2-3.8 0.4-0.1 0.8-0.3 0.8-0.3 0 0-0.6-1.5-0.8-1.8-0.1-0.2-0.1-0.2-0.6 0m5.5 3.1c-0.5 0-1.4 0.2-1.5 0.2 0 0 0 0.1 0.2 0.6 0.2 0.8 0.6 2.1 0.8 2.9 0.1 0.4 0.2 0.7 0.2 0.7 0.1 0 0.5-0.3 1-0.7 0.5-0.5 1.2-1.1 1.6-1.7 0.3-0.4 1-1.7 1-1.8 0-0.1-0.9-0.2-2-0.2-0.6 0-1.2 0-1.3 0m-4 0.8c-1.7 0.6-3.2 1.4-4.4 2.3-0.5 0.4-1.3 1-1.5 1.2-0.1 0.1-0.1 0.1 0.2 0.2 0.3 0.3 1.3 0.7 1.8 0.9 1 0.3 1.5 0.4 2.8 0.4 0.8 0 1.1 0 1.5-0.1 0.8-0.2 1.3-0.3 1.3-0.4 0.1-0.2-0.4-2.6-0.9-3.9-0.1-0.6-0.2-0.7-0.3-0.7 0 0-0.3 0-0.5 0.1" stroke="none" fill="black" fill-rule="evenodd"></path></svg>