<?xml version="1.0"?><svg xmlns="http://www.w3.org/2000/svg" width="24" height="24" viewBox="0 0 24 24" version="1.1"><rect x="0" y="0" width="24" height="24" fill="#00000000"></rect><path fill-opacity="0.408" d="M0.4 7.1c-0.1 0-0.2 0.1-0.3 0.1l-0.1 0.1 0 4.7 0 4.8 0.2 0.1 0.3 0.1 11.3 0c12.2 0 11.8 0 12.1-0.2l0.2-0.1 0-4.7c0-3.8-0.1-4.8-0.1-4.8 0 0-0.2 0-0.3-0.1-0.2-0.1-0.7-0.1-11.6-0.1-9.1 0-11.5 0-11.7 0.1m-0.4 4.9c0 2.6 0 3.7 0 2.4 0-1.3 0-3.5 0-4.8 0-1.3 0-0.2 0 2.4m1 0l0 3 11 0 11 0 0-3 0-3-11 0-11 0 0 3m14.6-0.9c-0.8 0.4-0.8 1.5 0 1.8 0.4 0.2 0.8 0.1 1.1-0.2 0.4-0.3 0.4-1.1 0-1.4-0.3-0.3-0.8-0.4-1.1-0.2m4 0c-0.8 0.4-0.8 1.5 0 1.8 0.4 0.2 0.8 0.1 1.1-0.2 0.4-0.3 0.4-1.1 0-1.4-0.3-0.3-0.8-0.4-1.1-0.2" stroke="none" fill="black" fill-rule="evenodd"></path><path fill-opacity="0.251" d="M0.4 7.1l-0.4 0.1 0 4.8 0 4.8 0.4 0.1 0.3 0.1 11.2 0c8.1 0 11.3 0 11.5-0.1 0.2 0 0.4-0.1 0.5-0.1l0.2-0.1 0-4.8c0-3.2-0.1-4.7-0.1-4.7 0 0-0.1 0-0.1 0-0.1 0-0.2-0.1-0.4-0.1-0.2-0.1-1.6-0.1-11.5-0.1l-11.3 0-0.3 0.1m-0.4 4.9c0 2.6 0 3.7 0 2.4 0-1.3 0-3.5 0-4.8 0-1.3 0-0.2 0 2.4m1 0l0 3 11 0 11 0 0-3 0-3-11 0-11 0 0 3m14.6-0.9c-0.5 0.2-0.8 1-0.4 1.5 0.4 0.5 1.2 0.5 1.6 0 0.2-0.2 0.2-0.3 0.2-0.6 0-0.3 0-0.4-0.2-0.6-0.1-0.1-0.2-0.2-0.3-0.3-0.2-0.1-0.6-0.1-0.9 0m4 0c-0.5 0.2-0.8 1-0.4 1.5 0.4 0.5 1.2 0.5 1.6 0 0.2-0.2 0.2-0.3 0.2-0.6 0-0.3 0-0.4-0.2-0.6-0.1-0.1-0.2-0.2-0.3-0.3-0.2-0.1-0.6-0.1-0.9 0" stroke="none" fill="black" fill-rule="evenodd"></path><path fill-opacity="0.637" d="M0.6 7c-0.1 0.1-0.3 0.1-0.4 0.2l-0.2 0.1 0 4.7 0 4.7 0.3 0.2 0.2 0.1 11.5 0 11.4 0 0.3-0.2 0.3-0.1 0-4.7c0-2.7 0-4.8 0-4.8 0 0-0.2 0-0.3-0.1l-0.3-0.1-11.3 0c-6.3 0-11.5 0-11.5 0m-0.6 5c0 2.6 0 3.7 0 2.4 0-1.3 0-3.5 0-4.8 0-1.3 0-0.2 0 2.4m1 0l0 3 11 0 11 0 0-3 0-3-11 0-11 0 0 3m14.7-1c-0.4 0.2-0.7 0.7-0.7 1.1 0.1 0.3 0.3 0.6 0.6 0.8 0.3 0.1 0.5 0.1 0.8 0 0.9-0.5 0.7-1.8-0.3-1.9-0.1 0-0.3 0-0.4 0m4 0c-0.4 0.2-0.7 0.7-0.7 1.1 0.1 0.3 0.3 0.6 0.6 0.8 0.3 0.1 0.5 0.1 0.8 0 0.9-0.5 0.7-1.8-0.3-1.9-0.1 0-0.3 0-0.4 0" stroke="none" fill="black" fill-rule="evenodd"></path><path fill-opacity="0.951" d="M0.7 7.1c-0.2 0-0.4 0-0.5 0.1l-0.2 0.1 0 4.7 0 4.7 0.3 0.2 0.3 0.1 11.1 0c7.5 0 11.3 0 11.5 0 0.2-0.1 0.5-0.1 0.6-0.2l0.3-0.1-0.1-4.8c0-2.6 0-4.7 0-4.7 0 0.1-0.1 0.1-0.2 0-0.1-0.1-0.3-0.1-0.5-0.1-0.4-0.1-22.3-0.1-22.6 0m-0.7 4.9c0 2.6 0 3.7 0 2.4 0-1.3 0-3.5 0-4.8 0-1.3 0-0.2 0 2.4m1 0l0 3 11 0 11 0 0-3 0-3-11 0-11 0 0 3m14.7-0.9c-0.8 0.2-0.9 1.3-0.2 1.8 0.4 0.2 1 0.1 1.3-0.3 0.5-0.8-0.2-1.8-1.1-1.5m4 0c-0.8 0.2-0.9 1.3-0.2 1.8 0.4 0.2 1 0.1 1.3-0.3 0.5-0.8-0.2-1.8-1.1-1.5" stroke="none" fill="black" fill-rule="evenodd"></path></svg>