<?xml version="1.0"?><svg xmlns="http://www.w3.org/2000/svg" width="24" height="24" viewBox="0 0 24 24" version="1.1"><rect x="0" y="0" width="24" height="24" fill="#00000000"></rect><path fill-opacity="0.435" d="M8.2 3.1c-1.8 1.8-3.2 3.3-3.4 3.5-0.9 1.2-1.4 2.4-1.7 3.8-0.1 0.9-0.1 2.3 0 3.2 0.2 1 0.7 2.2 1.2 3.1 1.4 2.2 3.6 3.7 6.1 4.2 0.8 0.1 2.3 0.1 3.1 0 3.3-0.6 6-2.9 7.1-6.1 0.3-1 0.4-1.6 0.4-2.8 0-0.8-0.1-1.1-0.1-1.6-0.3-1.4-1-2.9-1.9-4-0.1-0.2-1.5-1.7-3.2-3.3l-3.1-3.1-0.7 0-0.7 0-3.1 3.1m1.1 1.7c-1.7 1.7-2.7 2.8-2.9 3.1-0.6 0.8-1.1 1.9-1.3 2.9-0.1 0.6-0.1 1.8 0 2.4 0.4 2.3 2 4.3 4.1 5.2 1.9 0.8 3.9 0.8 5.8-0.1 0.6-0.3 1.5-0.9 2-1.5 1-0.9 1.6-2.3 1.9-3.6 0.1-0.6 0.1-1.8 0-2.4-0.2-1-0.7-2.1-1.3-2.9-0.2-0.3-1.2-1.4-2.9-3.1-1.5-1.5-2.7-2.7-2.7-2.7 0 0-1.2 1.2-2.7 2.7" stroke="none" fill="black" fill-rule="evenodd"></path><path fill-opacity="0.195" d="M8.2 3.1c-1.7 1.7-3.2 3.2-3.3 3.4-1.9 2.4-2.4 5.5-1.4 8.4 1 3.1 3.7 5.4 6.9 6 0.9 0.1 2.3 0.1 3.2 0 1.2-0.3 2.4-0.7 3.4-1.4 3-2 4.5-5.7 3.8-9.4-0.3-1.2-0.9-2.6-1.7-3.6-0.2-0.2-1.6-1.8-3.3-3.4l-3.1-3.1-0.7 0-0.7 0-3.1 3.1m1.1 1.7c-1.5 1.5-2.8 2.9-2.9 3-1 1.4-1.5 3.2-1.4 4.8 0.2 1.7 0.8 3.1 2 4.3 1 1 2.2 1.6 3.7 2 0.7 0.1 1.9 0.1 2.6 0 1.5-0.4 2.7-1 3.8-2.1 1.3-1.4 2-3.5 1.9-5.4-0.2-1.4-0.6-2.5-1.4-3.6-0.2-0.2-5.5-5.7-5.6-5.7 0 0-1.2 1.3-2.7 2.7" stroke="none" fill="black" fill-rule="evenodd"></path><path fill-opacity="0.595" d="M8.2 3.1c-1.7 1.6-3.1 3.2-3.3 3.3-1.6 2.2-2.2 4.8-1.7 7.4 0.5 2.7 2.3 5 4.7 6.2 2.6 1.3 5.6 1.3 8.2 0 2-1 3.5-2.7 4.3-4.8 0.4-1.1 0.6-2 0.6-3.2 0-2-0.6-3.6-1.7-5.3-0.3-0.4-1-1.2-3.5-3.6l-3.1-3.1-0.7 0-0.7 0-3.1 3.1m1.1 1.7c-1.8 1.8-2.8 2.8-3 3.1-0.9 1.3-1.4 2.8-1.3 4.4 0 0.8 0.1 1.2 0.4 2 0.6 1.8 2 3.4 3.8 4.1 2.7 1.1 5.7 0.6 7.7-1.4 2.5-2.5 2.8-6.4 0.7-9.2-0.3-0.4-5.5-5.7-5.6-5.7 0 0-1.2 1.2-2.7 2.7" stroke="none" fill="black" fill-rule="evenodd"></path><path fill-opacity="1.000" d="M8.2 3.2c-1.8 1.8-3.3 3.3-3.4 3.5-1.2 1.6-1.8 3.3-1.8 5.3 0 1.9 0.6 3.7 1.6 5.1 0.4 0.6 1.3 1.5 1.9 2 2.3 1.8 5.5 2.4 8.3 1.4 1.5-0.5 2.5-1.1 3.7-2.3 0.7-0.7 1.1-1.3 1.5-2.2 0.7-1.3 1-2.5 1-4 0-2-0.6-3.8-1.8-5.4-0.2-0.2-1.7-1.7-3.4-3.5l-3.1-3.1-0.7 0-0.7 0-3.1 3.2m1.1 1.6c-2.9 2.9-3.2 3.2-3.7 4.3-0.2 0.5-0.4 1-0.5 1.6-0.1 0.5-0.1 2 0 2.7 0.5 2.4 2.2 4.4 4.5 5.2 0.5 0.2 0.8 0.2 1.4 0.3 1.6 0.3 3.3-0.1 4.6-0.9 1.7-1 2.9-2.7 3.3-4.6 0.1-0.7 0.1-2.2 0-2.7-0.2-1.1-0.6-2-1.3-2.9-0.2-0.3-5.5-5.7-5.6-5.7 0 0-1.2 1.2-2.7 2.7" stroke="none" fill="black" fill-rule="evenodd"></path></svg>