<?xml version="1.0"?><svg xmlns="http://www.w3.org/2000/svg" width="24" height="24" viewBox="0 0 24 24" version="1.1"><rect x="0" y="0" width="24" height="24" fill="#00000000"></rect><path fill-opacity="0.369" d="M10.7 2.1c-2.8 0.3-5.4 1.9-7 4.3-2 3-2.3 6.8-0.7 10 1.4 2.7 3.7 4.6 6.6 5.3 1.5 0.4 3.3 0.4 4.8 0 1.4-0.4 3-1.1 4.1-2.1 3.5-2.9 4.5-7.9 2.5-12-0.7-1.4-1.6-2.4-2.7-3.4-1.1-0.9-2.6-1.6-3.9-1.9-1.1-0.3-2.6-0.4-3.7-0.2m0.8 1.9c-2.5 0.2-4.5 1.3-5.9 3.2-1.8 2.5-2.1 5.8-0.7 8.5 1.3 2.5 3.7 4 6.5 4.3 2.8 0.2 5.6-1.2 7.2-3.5 1.3-1.9 1.7-4.2 1.1-6.4-0.7-3.1-3.4-5.5-6.5-6-0.4-0.1-1.4-0.1-1.7-0.1m-0.2 2c-0.1 0-0.3 0.1-0.6 0.2-1.8 0.4-3.3 1.5-4.1 3.2-0.8 1.7-0.8 3.5 0 5.2 0.6 1.2 1.5 2.1 2.6 2.7 0.7 0.4 1.9 0.7 2.6 0.7l0.2 0 0-6 0-6-0.3 0c-0.1 0-0.3 0-0.4 0" stroke="none" fill="black" fill-rule="evenodd"></path><path fill-opacity="0.354" d="M11 2.1c-2 0.2-3.9 1-5.4 2.2-3.5 3-4.6 7.9-2.6 12.1 1.3 2.6 3.6 4.5 6.5 5.3 1 0.2 1.4 0.3 2.5 0.3 1.1 0 1.5-0.1 2.5-0.3 2.9-0.8 5.2-2.7 6.5-5.3 1.5-3.2 1.3-6.9-0.7-9.9-0.7-1.2-1.8-2.2-3.1-3-1.8-1.1-4.1-1.7-6.2-1.4m0.1 2c-1.7 0.1-3.5 1-4.7 2.3-2.2 2.1-2.9 5.3-2 8.1 0.4 1.3 1.1 2.3 2 3.2 1.3 1.3 3.1 2.1 4.9 2.3 2.3 0.2 4.7-0.7 6.3-2.3 2.2-2.2 2.9-5.4 2-8.2-0.4-1.2-1.1-2.3-2-3.2-1.7-1.7-4-2.5-6.5-2.2m0.3 2c-0.8 0-1.5 0.2-2.2 0.7-2.7 1.4-3.9 4.7-2.7 7.5 0.4 0.9 0.8 1.6 1.6 2.2 0.9 0.8 2.1 1.3 3.2 1.4 0.1 0 0.4 0.1 0.5 0.1l0.2 0 0-6c0-5.7 0-6-0.1-6 0 0-0.3 0-0.5 0.1" stroke="none" fill="black" fill-rule="evenodd"></path><path fill-opacity="0.423" d="M11.3 2c-1.4 0.2-2.2 0.4-3.1 0.8-2.8 1.2-4.9 3.4-5.8 6.4-1 3.5 0 7.5 2.8 10.1 2 1.9 4.8 2.9 7.5 2.7 2.3-0.2 4.5-1.2 6.2-2.8 2-1.9 3.2-4.8 3.1-7.6-0.2-3.2-1.8-6.1-4.4-7.9-1.3-0.8-2.7-1.4-4.1-1.6-0.6-0.1-1.8-0.1-2.2-0.1m-0.4 2.1c-1.7 0.2-3.3 1-4.5 2.2-1.6 1.6-2.4 3.6-2.4 5.7 0 3.9 2.8 7.2 6.6 7.9 0.7 0.1 2.2 0.1 2.8 0 1.8-0.3 3.5-1.3 4.6-2.6 2.1-2.4 2.6-5.6 1.3-8.5-0.9-2.2-3-4-5.3-4.6-1-0.2-2.2-0.3-3.1-0.1" stroke="none" fill="black" fill-rule="evenodd"></path><path fill-opacity="0.967" d="M11.2 2c-2.8 0.3-5.4 1.7-7.1 3.9-2.5 3.3-2.8 7.8-0.6 11.3 1.5 2.5 4.1 4.2 7 4.7 0.7 0.1 2.3 0.1 3 0 2.1-0.4 4.1-1.4 5.6-2.8 2.9-3.1 3.7-7.6 1.9-11.4-1-2-2.5-3.6-4.5-4.6-1.6-0.8-3.5-1.2-5.3-1.1m-0.4 2.1c-3.2 0.5-5.8 2.8-6.6 5.9-0.3 1.3-0.3 2.7 0 4 0.4 1.3 1 2.5 2 3.5 2.6 2.7 6.7 3.3 9.9 1.4 3-1.8 4.5-5.5 3.7-8.9-0.3-0.9-0.7-1.9-1.3-2.6-0.5-0.8-1.5-1.7-2.4-2.3-0.6-0.3-1.5-0.7-2.1-0.9-0.9-0.2-2.3-0.3-3.2-0.1" stroke="none" fill="black" fill-rule="evenodd"></path></svg>