<?xml version="1.0"?><svg xmlns="http://www.w3.org/2000/svg" width="24" height="24" viewBox="0 0 24 24" version="1.1"><rect x="0" y="0" width="24" height="24" fill="#00000000"></rect><path fill-opacity="0.388" d="M11.8 11.8c-0.2 0.3-0.3 0.3-0.2 0.4 0.1 0.1 0.1 0.2 0 0.2-0.1 0-0.1 0-0.1 0 0 0 0.2 0.1 0.5 0.1 0.2 0 0.4-0.1 0.4-0.1 0 0-0.1 0-0.2 0l-0.2 0 0.2-0.3c0.2-0.1 0.3-0.2 0.3-0.2 0-0.1-0.3-0.3-0.4-0.3 0 0-0.2 0.1-0.3 0.2m0.2 0c-0.1 0.1-0.1 0.1 0 0.2 0.1 0.1 0.1 0.1 0.2 0 0.1-0.1 0.1-0.2 0.1-0.2-0.1-0.1-0.2-0.1-0.3 0m-0.3 0.3c0 0.1 0.1 0.2 0.2 0.2 0.1-0.1 0.1-0.1 0-0.2-0.1-0.1-0.1-0.1-0.2 0" stroke="none" fill="black" fill-rule="evenodd"></path><path fill-opacity="0.391" d="M11.8 11.8c-0.1 0.2-0.2 0.3-0.2 0.3 0 0 0 0.1 0 0.2 0.1 0 0.1 0.1 0 0.1-0.1 0-0.1 0-0.1 0 0 0 0.2 0.1 0.5 0.1 0.2 0 0.4-0.1 0.4-0.1 0 0-0.1 0-0.2 0l-0.2 0 0.2-0.3c0.2-0.1 0.3-0.2 0.3-0.2 0-0.1-0.3-0.3-0.4-0.3 0 0-0.1 0.1-0.3 0.2m0.2 0l-0.1 0.1 0.1 0.1 0.1 0.1 0.1-0.1 0.2-0.1-0.2-0.1-0.1-0.2-0.1 0.2m-0.3 0.3c0 0 0 0 0 0.1 0.1 0.1 0.1 0.1 0.2 0.1 0.1 0 0.1-0.1 0-0.2-0.1-0.1-0.1-0.1-0.2 0" stroke="none" fill="black" fill-rule="evenodd"></path><path fill-opacity="0.337" d="M11.8 11.8c-0.3 0.3-0.3 0.3-0.2 0.4 0.1 0.1 0.1 0.2 0 0.2 0 0 0 0 0 0 0 0 0.1 0.1 0.4 0.1 0.2 0 0.4-0.1 0.4-0.1 0 0-0.1 0-0.2 0-0.1 0-0.1-0.1-0.1-0.1 0 0 0-0.1 0.2-0.2l0.2-0.2-0.2-0.2c-0.1-0.1-0.1-0.1-0.1-0.1-0.1 0-0.2 0.1-0.4 0.2m0.2 0l-0.1 0.1 0.1 0.1 0.1 0.1 0.1-0.1c0.2-0.1 0.2-0.1 0.1-0.2-0.1-0.2-0.2-0.2-0.3 0m-0.3 0.3c-0.1 0.1-0.1 0.1 0 0.2 0.2 0 0.2 0 0.2 0 0.1-0.1 0.1-0.1 0-0.2-0.1-0.1-0.1-0.1-0.2 0" stroke="none" fill="black" fill-rule="evenodd"></path><path fill-opacity="1.000" d="M11.8 11.8c-0.3 0.3-0.3 0.3-0.2 0.4 0.1 0.1 0.1 0.2 0 0.2 0 0 0 0 0.1 0 0.1 0 0.3 0 0.4 0 0.3 0 0.3 0 0.1 0l-0.2 0 0.2-0.3 0.3-0.2-0.2-0.2c-0.1-0.1-0.1-0.1-0.1-0.1-0.1 0-0.2 0.1-0.4 0.2m0.2 0l-0.1 0.1 0.1 0.1 0.1 0.1 0.1-0.1c0.2-0.1 0.2-0.1 0.1-0.2-0.1-0.2-0.2-0.2-0.3 0m-0.3 0.3c-0.1 0 0 0.1 0 0.2 0.1 0.1 0.2 0.1 0.2 0 0.1-0.1 0.1-0.1 0-0.2-0.1-0.1-0.1-0.1-0.2 0" stroke="none" fill="black" fill-rule="evenodd"></path></svg>