<?xml version="1.0"?><svg xmlns="http://www.w3.org/2000/svg" width="24" height="24" viewBox="0 0 24 24" version="1.1"><rect x="0" y="0" width="24" height="24" fill="#00000000"></rect><path fill-opacity="0.408" d="M2.4 3c-1 0.3-1.9 1-2.3 2l-0.1 0.4 0 6.6 0 6.6 0.1 0.3c0.3 0.9 1.1 1.7 1.9 2l0.4 0.1 9.6 0 9.6 0 0.4-0.1c0.9-0.4 1.7-1.2 1.9-2 0-0.2 0.1-0.4 0.1-0.5 0.1-0.1 0.1-12.9 0-12.9 0 0-0.1-0.1-0.1-0.3-0.3-1-1.1-1.9-2.2-2.1-0.2-0.1-1.4-0.1-9.7-0.1-5.2 0-9.5 0-9.6 0m0.1 2.1c-0.2 0.2-0.2 0.2-0.4 0.4l-0.1 0.3 0 6.2 0 6.3 0.1 0.2c0.1 0.1 0.3 0.3 0.4 0.3l0.2 0.2 4.1 0 4.2 0 0-7 0-7-4.1 0-4.1 0-0.3 0.1m10.5 6.9l0 7 4.2 0 4.1 0 0.2-0.2c0.1 0 0.3-0.2 0.4-0.3l0.1-0.2 0-6.3 0-6.3-0.2-0.2c-0.1-0.2-0.2-0.3-0.4-0.4l-0.2-0.1-4.1 0-4.1 0 0 7m-13 0c0 3.6 0 5 0 3.2 0-1.7 0-4.7 0-6.4 0-1.8 0-0.4 0 3.2m15.6-4.9c-0.8 0.4-0.8 1.5 0 1.8 0.2 0.1 0.5 0.1 1.9 0.1 1.8 0 1.9 0 2.2-0.3 0.4-0.3 0.4-1.1 0-1.4-0.3-0.3-0.4-0.3-2.2-0.3-1.6 0-1.7 0-1.9 0.1m0 4c-0.8 0.4-0.8 1.5 0 1.8 0.2 0.1 0.5 0.1 1.9 0.1 1.8 0 1.9 0 2.2-0.3 0.4-0.3 0.4-1.1 0-1.4-0.3-0.3-0.4-0.3-2.2-0.3-1.6 0-1.7 0-1.9 0.1m0 4c-0.8 0.4-0.8 1.5 0 1.8 0.2 0.1 0.5 0.1 1.9 0.1 1.8 0 1.9 0 2.2-0.3 0.2-0.1 0.3-0.4 0.3-0.7 0-0.3-0.1-0.6-0.3-0.7-0.3-0.3-0.4-0.3-2.2-0.3-1.6 0-1.7 0-1.9 0.1" stroke="none" fill="black" fill-rule="evenodd"></path><path fill-opacity="0.238" d="M2.4 3.1c-0.2 0-0.5 0.1-0.7 0.2-0.3 0.2-0.5 0.3-0.8 0.6-0.3 0.3-0.5 0.5-0.6 0.8-0.3 0.6-0.3 0.3-0.3 7.3 0 6.9 0 6.7 0.3 7.3 0.2 0.5 0.9 1.2 1.4 1.4 0.6 0.3 0.1 0.3 10.3 0.3 10.2 0 9.7 0 10.3-0.3 0.6-0.3 1.1-0.8 1.4-1.4 0.1-0.2 0.2-0.5 0.2-0.7 0-0.1 0.1-0.2 0.1-0.2 0 0 0.1-2.9 0.1-6.5 0-3.5-0.1-6.4-0.1-6.3 0 0 0-0.1-0.1-0.3-0.1-0.5-0.3-0.9-0.8-1.4-0.3-0.3-0.5-0.4-0.8-0.6-0.2-0.1-0.6-0.2-0.7-0.2-0.4-0.1-18.9-0.1-19.2 0m0.1 2c-0.1 0.1-0.2 0.2-0.3 0.3l-0.2 0.3 0 6.3 0 6.3 0.2 0.3c0.1 0.1 0.2 0.2 0.3 0.3l0.3 0.1 4.1 0 4.1 0 0-7 0-7-4.1 0-4.1 0-0.3 0.1m10.5 6.9l0 7 4.1 0 4.1 0 0.3-0.1c0.1-0.1 0.2-0.2 0.3-0.3l0.2-0.3 0-6.3 0-6.3-0.2-0.3c-0.1-0.1-0.2-0.2-0.3-0.3l-0.3-0.1-4.1 0-4.1 0 0 7m-13 0c0 3.5 0 5 0 3.2 0-1.8 0-4.6 0-6.4 0-1.8 0-0.3 0 3.2m15.6-4.9c-0.1 0-0.2 0.1-0.3 0.2-0.5 0.5-0.3 1.3 0.2 1.6 0.3 0.1 0.3 0.1 2 0.1 1.7 0 1.7 0 2-0.1 0.1-0.1 0.2-0.2 0.3-0.3 0.2-0.2 0.2-0.3 0.2-0.6 0-0.3 0-0.4-0.2-0.6-0.3-0.4-0.2-0.4-2.2-0.4-1.4 0-1.8 0-2 0.1m0 4c-0.1 0-0.2 0.1-0.3 0.2-0.5 0.5-0.3 1.3 0.2 1.6 0.3 0.1 0.3 0.1 2 0.1 1.7 0 1.7 0 2-0.1 0.1-0.1 0.2-0.2 0.3-0.3 0.2-0.2 0.2-0.3 0.2-0.6 0-0.3 0-0.4-0.2-0.6-0.3-0.4-0.2-0.4-2.2-0.4-1.4 0-1.8 0-2 0.1m0 4c-0.1 0-0.2 0.1-0.3 0.2-0.5 0.5-0.3 1.3 0.2 1.6 0.3 0.1 0.3 0.1 2 0.1 1.7 0 1.7 0 2-0.1 0.1-0.1 0.2-0.2 0.3-0.3 0.2-0.2 0.2-0.3 0.2-0.6 0-0.3 0-0.4-0.2-0.6-0.3-0.4-0.2-0.4-2.2-0.4-1.4 0-1.8 0-2 0.1" stroke="none" fill="black" fill-rule="evenodd"></path><path fill-opacity="0.644" d="M2.4 3.1c-0.9 0.2-1.7 0.8-2.1 1.6-0.3 0.7-0.3 0.3-0.3 7.5 0 6 0 6.4 0.1 6.7 0.3 0.7 0.9 1.4 1.6 1.8 0.7 0.3 0 0.3 10.3 0.3 10.3 0 9.6 0 10.4-0.3 0.7-0.4 1.4-1.3 1.5-2 0-0.2 0.1-0.4 0.1-0.4 0.1-0.1 0.1-12.7 0-12.6 0 0 0 0-0.1-0.1 0-0.1 0-0.4-0.1-0.6-0.3-0.9-1.2-1.7-2.2-1.9-0.5-0.1-18.8-0.1-19.2 0m0.2 2c-0.3 0.1-0.4 0.3-0.5 0.5-0.1 0.2-0.1 0.9-0.1 6.4 0 5.5 0 6.2 0.1 6.4 0.1 0.2 0.2 0.4 0.5 0.5 0.1 0.1 0.3 0.1 4.3 0.1l4.1 0 0-7 0-7-4.1 0c-3.9 0-4.1 0-4.3 0.1m10.4 6.9l0 7 4.1 0 4.2 0 0.2-0.1c0.1-0.1 0.2-0.2 0.3-0.3l0.2-0.3 0-6.2c0-4.3 0-6.3 0-6.4-0.1-0.3-0.3-0.5-0.6-0.6-0.2-0.1-0.4-0.1-4.3-0.1l-4.1 0 0 7m-13 0c0 3.5 0 4.9 0 3.1 0-1.7 0-4.6 0-6.3 0-1.8 0-0.3 0 3.2m15.7-5c-0.4 0.2-0.7 0.7-0.7 1.1 0.1 0.3 0.3 0.6 0.6 0.8l0.2 0.1 1.7 0 1.7 0 0.2-0.1c0.7-0.4 0.8-1.4 0.1-1.8l-0.2-0.1-1.7 0c-1 0-1.8 0-1.9 0m0 4c-0.4 0.2-0.7 0.7-0.7 1.1 0.1 0.3 0.3 0.6 0.6 0.8l0.2 0.1 1.7 0 1.7 0 0.2-0.1c0.7-0.4 0.8-1.4 0.1-1.8l-0.2-0.1-1.7 0c-1 0-1.8 0-1.9 0m0 4c-0.4 0.2-0.7 0.7-0.7 1.1 0.1 0.3 0.3 0.6 0.6 0.8l0.2 0.1 1.7 0 1.7 0 0.2-0.1c0.7-0.4 0.8-1.4 0.1-1.8l-0.2-0.1-1.7 0c-1 0-1.8 0-1.9 0" stroke="none" fill="black" fill-rule="evenodd"></path><path fill-opacity="0.951" d="M2.6 3.1c-0.4 0-0.9 0.2-1.2 0.4-0.4 0.2-0.9 0.7-1 1.1-0.4 0.7-0.4 0.2-0.4 7.1 0 3.9 0 6.4 0 6.6 0.1 0.6 0.3 1 0.5 1.4 0.4 0.6 1 1 1.7 1.2 0.3 0.1 0.8 0.1 9.8 0.1 9 0 9.5 0 9.8-0.1 1.1-0.3 2-1.4 2.1-2.5 0.1-0.1 0.1-0.3 0.1-0.3 0 0 0.1-2.8 0.1-6.2 0-4-0.1-6.1-0.1-6.1 0 0-0.1 0-0.1-0.1 0-0.3-0.1-0.7-0.3-1.1-0.3-0.6-0.9-1.2-1.7-1.4l-0.4-0.2-9.3 0c-5.1 0-9.5 0-9.6 0.1m-0.1 2c-0.1 0.1-0.2 0.2-0.3 0.3l-0.2 0.2 0 6.4 0 6.4 0.2 0.2c0.1 0.1 0.2 0.2 0.3 0.3 0.1 0.1 0.2 0.1 4.3 0.1l4.2 0 0-7 0-7-4.1 0-4.2 0-0.2 0.1m10.5 6.9l0 7 4.2 0c4.1 0 4.2 0 4.3-0.1 0.1-0.1 0.2-0.2 0.3-0.3l0.2-0.2 0-6.4 0-6.4-0.2-0.2c-0.1-0.1-0.2-0.2-0.3-0.3l-0.2-0.1-4.2 0-4.1 0 0 7m-13 0c0 3.4 0 4.8 0 3.1 0-1.7 0-4.5 0-6.2 0-1.7 0-0.3 0 3.1m15.7-4.9c-0.8 0.2-0.9 1.3-0.2 1.8 0.2 0.1 0.2 0.1 2 0.1 1.8 0 1.8 0 2-0.1 0.7-0.5 0.6-1.7-0.3-1.8-0.4-0.1-3.2-0.1-3.5 0m0 4c-0.8 0.2-0.9 1.3-0.2 1.8 0.2 0.1 0.2 0.1 2 0.1 1.8 0 1.8 0 2-0.1 0.7-0.5 0.6-1.7-0.3-1.8-0.4-0.1-3.2-0.1-3.5 0m0 4c-0.8 0.2-0.9 1.3-0.2 1.8 0.2 0.1 0.2 0.1 2 0.1 1.8 0 1.8 0 2-0.1 0.7-0.5 0.6-1.7-0.3-1.8-0.4-0.1-3.2-0.1-3.5 0" stroke="none" fill="black" fill-rule="evenodd"></path></svg>