<?xml version="1.0"?><svg xmlns="http://www.w3.org/2000/svg" width="24" height="24" viewBox="0 0 24 24" version="1.1"><rect x="0" y="0" width="24" height="24" fill="#00000000"></rect><path fill-opacity="0.447" d="M11 5.1c-2.3 0.3-4.2 1.7-5.2 3.7-0.2 0.3-0.3 0.7-0.4 0.9l-0.1 0.3-0.7 0-0.7 0-0.4 1c-0.1 0.5-0.3 0.9-0.3 1 0 0 0.4 0 0.9 0l0.9 0 0 0.3c0 0.1 0 0.3 0 0.5l0.1 0.2-1.2 0c-0.6 0-1.1 0-1.1 0 0 0-0.2 0.5-0.3 1-0.2 0.5-0.4 0.9-0.4 1 0 0 0.8 0 1.8 0l1.8 0 0.1 0.2c0.3 0.7 1 1.5 1.6 2.1 2 1.7 4.9 2.2 7.4 1.1 0.7-0.3 1.3-0.7 1.9-1.2l0.3-0.3-0.7-0.7-0.7-0.7-0.2 0.2c-1 0.8-1.8 1.1-2.9 1.3-1.6 0.1-3.2-0.5-4.2-1.7l-0.3-0.3 1.6 0 1.5 0 0.4-1c0.1-0.5 0.3-0.9 0.3-1 0 0-1.1 0-2.3 0l-2.4 0 0-0.2c0-0.1-0.1-0.4-0.1-0.5l0-0.3 2.6 0 2.6 0 0-0.1c0.1-0.1 0.2-0.6 0.4-1 0.2-0.5 0.3-0.9 0.3-0.9 0 0-1.2 0-2.7 0-1.5 0-2.7 0-2.7 0 0-0.1 0.4-0.9 0.7-1.2 1-1.2 2.7-1.9 4.3-1.8 1.1 0.2 2 0.5 2.9 1.3l0.2 0.2 0.7-0.7 0.7-0.7-0.2-0.2c-1.1-1-2.4-1.6-3.8-1.8-0.6-0.1-1.5-0.1-2 0" stroke="none" fill="black" fill-rule="evenodd"></path><path fill-opacity="0.092" d="M11.1 5.1c-0.9 0.1-1.9 0.4-2.6 0.9-1.4 0.8-2.5 2-3 3.5l-0.2 0.5-0.7 0-0.7 0 0 0.1c-0.1 0.1-0.2 0.6-0.4 1-0.2 0.5-0.3 0.9-0.3 0.9 0 0 0.4 0 0.9 0l0.9 0 0 0.2c0 0.1 0 0.3 0 0.5l0.1 0.3-1.2 0-1.1 0-0.3 0.9c-0.2 0.6-0.4 1-0.4 1 0 0.1 0.4 0.1 1.8 0.1l1.8 0 0.2 0.4c0.8 1.4 2.1 2.5 3.5 3.1 2.3 0.9 4.8 0.5 6.8-0.9 0.2-0.2 0.5-0.4 0.6-0.5l0.2-0.2-0.7-0.7-0.7-0.7-0.3 0.3c-1 0.8-2 1.2-3.3 1.2-1.1 0-1.9-0.3-2.7-0.8-0.4-0.3-1.2-1-1.2-1.2 0 0 0.6 0 1.5 0l1.5 0 0-0.1c0.1-0.1 0.2-0.6 0.4-1 0.2-0.5 0.3-0.9 0.3-0.9 0 0-1.1 0-2.3 0l-2.4 0 0-0.2c0 0-0.1-0.3-0.1-0.5l0-0.3 2.6 0 2.6 0 0.3-0.9c0.2-0.6 0.4-1 0.4-1 0-0.1-0.6-0.1-2.7-0.1-1.5 0-2.7 0-2.7 0 0 0 0-0.2 0.1-0.3 0.5-1 1.4-1.8 2.4-2.3 0.7-0.3 1.2-0.4 2-0.4 0.5 0 0.8 0.1 1.1 0.1 0.9 0.3 1.5 0.6 2.2 1.1l0.3 0.3 0.7-0.7 0.7-0.7-0.3-0.3c-1.4-1.3-3.6-2-5.6-1.7" stroke="none" fill="black" fill-rule="evenodd"></path><path fill-opacity="0.414" d="M11.3 5.1c-1.2 0.1-2.6 0.6-3.5 1.3-1.1 0.8-1.9 2-2.4 3.4l-0.1 0.2-0.7 0-0.7 0-0.3 0.9c-0.2 0.6-0.4 1-0.4 1 0 0.1 0.2 0.1 0.9 0.1l0.9 0 0 0.4c0 0.2 0.1 0.5 0.1 0.5 0 0.1-0.1 0.1-1.1 0.1l-1.2 0-0.3 1c-0.2 0.5-0.4 0.9-0.4 1 0 0 0.8 0 1.8 0l1.8 0 0.1 0.1c0.2 0.5 0.7 1.3 1.2 1.8 1 1 2.3 1.7 3.8 2 0.6 0.1 1.8 0.1 2.4 0 0.8-0.2 1.7-0.5 2.4-0.9 0.3-0.2 1-0.7 1.2-0.9l0.2-0.2-0.7-0.7-0.7-0.7-0.4 0.3c-2 1.7-5.1 1.6-6.9-0.4l-0.3-0.4 1.5 0 1.6 0 0.3-0.9c0.2-0.6 0.4-1 0.4-1 0-0.1-0.5-0.1-2.3-0.1-2.1 0-2.4 0-2.4-0.1 0 0-0.1-0.2-0.1-0.5l0-0.4 2.6 0 2.6 0 0.3-1 0.4-1-2.7 0c-2.1 0-2.7 0-2.7-0.1 0 0 0-0.2 0.2-0.4 0.7-1.2 1.7-2 3-2.3 0.5-0.2 0.6-0.2 1.3-0.2 0.7 0 0.8 0 1.3 0.2 0.8 0.2 1.5 0.6 2 1.1l0.3 0.2 0.7-0.7 0.7-0.7-0.2-0.2c-0.8-0.8-2.3-1.6-3.6-1.8-0.5-0.1-1.4-0.1-1.9 0" stroke="none" fill="black" fill-rule="evenodd"></path><path fill-opacity="0.973" d="M11.4 5.1c-2.7 0.2-5 1.9-5.9 4.4l-0.2 0.5-0.7 0-0.7 0-0.3 1-0.4 1 0.9 0 0.9 0 0 0.2c0 0.1 0.1 0.4 0.1 0.5l0 0.3-1.1 0-1.2 0-0.3 1-0.4 1 1.8 0 1.8 0 0.2 0.3c0.4 0.8 1.2 1.7 1.9 2.3 0.4 0.3 1.1 0.7 1.7 0.9 0.9 0.3 1.6 0.5 2.5 0.5 1.8 0 3.4-0.7 4.7-1.9l0.3-0.2-0.7-0.7-0.7-0.7-0.2 0.2c-0.5 0.4-1 0.8-1.6 1-0.5 0.2-1.2 0.3-1.8 0.3-1.4 0-2.7-0.5-3.7-1.6l-0.3-0.4 1.5 0 1.6 0 0.3-1 0.4-1-2.4 0-2.3 0-0.1-0.2c0-0.2 0-0.4 0-0.5l0-0.3 2.6 0 2.6 0 0.3-1 0.4-1-2.8 0-2.7 0 0.2-0.4c0.9-1.6 2.6-2.6 4.4-2.6 1.3 0 2.5 0.5 3.4 1.3l0.2 0.2 0.7-0.7 0.7-0.7-0.2-0.1c0-0.1-0.3-0.3-0.5-0.5-1.4-1.1-3.2-1.6-4.9-1.4" stroke="none" fill="black" fill-rule="evenodd"></path></svg>