<?xml version="1.0"?><svg xmlns="http://www.w3.org/2000/svg" width="24" height="24" viewBox="0 0 24 24" version="1.1"><rect x="0" y="0" width="24" height="24" fill="#00000000"></rect><path fill-opacity="0.475" d="M9.9 2.5c-0.5 0.1-1.5 0.3-2 0.4-3.4 1.2-5.7 4-6.2 7.5-0.1 1-0.1 1.9 0.2 3.1 0.1 0.7 0.3 1.1 0.9 2.5 0.5 1 0.6 1.1 0.7 1.1 0 0 0.1 0 0.2 0.1 0.9 1.2 2.3 2.2 3.8 2.7 1.1 0.5 2.1 0.6 3.5 0.6 1.4-0.1 2.3-0.3 3.6-0.9 1.6-0.8 2.7-1.7 3.6-3.2 0.4-0.6 1-1.8 0.9-1.9 0 0-1.4-0.5-3.5-1.3l-0.2 0-0.2 0.4c-0.3 0.6-0.6 1.1-1.1 1.5-1.7 1.7-4.4 1.8-6.4 0.4-0.2-0.1-0.3-0.2-0.3-0.3 0.1 0 2.8-1.3 6.2-2.8 3.3-1.6 6.1-2.9 6.1-2.9 0-0.1-1.2-2.5-1.5-2.9-1.4-2.2-3.7-3.6-6.3-4-0.6-0.1-1.4-0.1-2-0.1m-0.1 4.1c-1.9 0.4-3.5 1.9-4 3.8-0.1 0.4-0.1 1.2-0.1 1.2 0.1 0 1.9-0.9 4.2-1.9l4.1-1.9-0.2-0.2c-0.6-0.4-1.4-0.8-2.2-1-0.5-0.1-1.3-0.1-1.8 0" stroke="none" fill="black" fill-rule="evenodd"></path><path fill-opacity="0.290" d="M9.7 2.6c-0.8 0.1-1.3 0.2-1.9 0.4-0.5 0.2-1.5 0.6-2 0.9-0.8 0.5-1.7 1.4-2.3 2.2-1.3 1.7-2 4-1.8 6.1 0.1 1.3 0.3 2.1 1.1 3.8 0.5 1 0.5 1.1 0.7 1.1 0 0 0.2 0.1 0.4 0.4 0.8 0.9 2 1.8 3.2 2.3 1.3 0.5 2.4 0.7 3.9 0.7 1.4-0.1 2.3-0.3 3.7-0.9 1.6-0.8 2.9-2.1 3.8-3.7 0.3-0.4 0.7-1.3 0.6-1.4 0 0-0.8-0.3-1.8-0.7l-1.9-0.6-0.1 0.1c-0.5 1.5-1.9 2.7-3.5 3.1-0.5 0.1-1.8 0.1-2.3 0-0.7-0.2-1.5-0.6-1.9-1l-0.2-0.1 0.3-0.2c1.5-0.7 11.9-5.6 11.9-5.6 0.1 0-1-2.3-1.3-2.7-0.6-1-1.5-2-2.4-2.6-1-0.7-2.5-1.3-3.7-1.6-0.7-0.1-1.8-0.1-2.5 0m0.6 4c-2.3 0.2-4.1 1.8-4.5 4-0.1 0.5-0.1 1-0.1 1 0.1 0 7.9-3.6 8.1-3.8 0.2 0 0.2 0-0.1-0.3-0.6-0.4-1.7-0.9-2.5-0.9-0.1 0-0.3-0.1-0.4-0.1-0.1 0-0.3 0-0.5 0.1" stroke="none" fill="black" fill-rule="evenodd"></path><path fill-opacity="0.495" d="M9.7 2.6c-1.2 0.1-1.9 0.3-2.9 0.8-1.1 0.5-1.8 1.1-2.6 1.9-1.2 1.2-2 2.8-2.3 4.4-0.3 1.2-0.3 2.4 0 3.7 0.1 0.8 0.3 1.3 0.9 2.6 0.5 1 0.5 1.1 0.7 1.1 0.1 0 0.2 0.1 0.5 0.4 1.1 1.3 2.7 2.3 4.4 2.7 2 0.5 4.2 0.3 6.2-0.6 1-0.5 1.7-1 2.6-2 0.8-0.7 1.4-1.7 1.8-2.7l0.1-0.4-0.1 0c-0.2-0.1-3.5-1.3-3.6-1.3 0 0-0.1 0.2-0.2 0.5-0.7 1.3-1.8 2.3-3.3 2.7-0.3 0.1-0.5 0.1-1.2 0.1-0.9 0-1 0-1.4-0.2-0.2 0-0.6-0.2-0.8-0.3-0.5-0.2-1.1-0.6-1.1-0.7 0-0.1 2.8-1.4 6.1-2.9 3.4-1.6 6.1-2.9 6.1-2.9 0.1 0-1-2.2-1.2-2.6-1.2-2-3.3-3.6-5.6-4.1-1.1-0.3-2.1-0.3-3.1-0.2m0.5 4c-1.8 0.2-3.3 1.2-4 2.8-0.3 0.5-0.4 1.1-0.5 1.7 0 0.5 0 0.6 0.1 0.5 0.1 0 7.5-3.5 7.9-3.7 0.3-0.1 0.3-0.1 0.2-0.2-0.2-0.2-0.7-0.5-1.1-0.7-0.5-0.2-1-0.4-1.6-0.4-0.4-0.1-0.5-0.1-1 0" stroke="none" fill="black" fill-rule="evenodd"></path><path fill-opacity="0.958" d="M9.8 2.6c-2.3 0.2-4.1 1.2-5.7 2.7-0.6 0.7-1 1.3-1.4 2.2-1 1.8-1.2 3.6-0.9 5.6 0.2 1 0.4 1.5 1.2 3.2 0.3 0.7 0.4 0.8 0.5 0.8 0 0 0.3 0.2 0.7 0.6 1.1 1.2 2.4 2 3.9 2.4 0.9 0.3 1.6 0.4 2.7 0.4 0.8 0 1.1-0.1 1.6-0.2 2.6-0.5 4.7-2 6-4.3 0.3-0.4 0.7-1.3 0.7-1.4 0-0.1-2.3-0.9-3.6-1.4-0.1 0-0.2 0.2-0.3 0.4-0.3 0.6-0.6 1-1 1.5-1.8 1.7-4.5 1.9-6.5 0.4l-0.4-0.2 0.2-0.1c0.1 0 2.9-1.3 6.2-2.9 3.2-1.5 5.9-2.8 5.9-2.8 0.1 0-0.6-1.4-0.9-2-1.4-2.8-4.1-4.7-7.3-4.9-0.7-0.1-1-0.1-1.6 0m0.5 3.9c-0.1 0-0.3 0.1-0.5 0.1-1.2 0.2-2.4 0.9-3.1 1.9-0.7 0.9-1 2-1 2.8l0 0.3 4.2-1.9 4.1-1.9-0.1-0.1c-0.3-0.2-0.8-0.6-1.1-0.7-0.7-0.4-1.8-0.6-2.5-0.5" stroke="none" fill="black" fill-rule="evenodd"></path></svg>