<?xml version="1.0"?><svg xmlns="http://www.w3.org/2000/svg" width="24" height="24" viewBox="0 0 24 24" version="1.1"><rect x="0" y="0" width="24" height="24" fill="#00000000"></rect><path fill-opacity="0.318" d="M8.4 0.7l0.8 0.7 0.7-0.7 0.7-0.7-1.4 0-1.5 0 0.7 0.7m2.6 5.3l0 6 1 0 1 0 0-6 0-6-1 0-1 0 0 6m3.1-5.3l0.8 0.7 0.7-0.7 0.7-0.7-1.4 0-1.5 0 0.7 0.7m-11.1 10.3l0 8 9 0 9 0 0-8 0-8-3 0-3 0 0 1 0 1 2 0 2 0 0 6 0 6-7 0-7 0 0-6 0-6 2 0 2 0 0-1 0-1-3 0-3 0 0 8" stroke="none" fill="black" fill-rule="evenodd"></path><path fill-opacity="0.155" d="M7.8 0c0 0 0.3 0.3 0.7 0.7l0.7 0.7 0.7-0.7 0.7-0.7-1.4 0c-0.8 0-1.4 0-1.4 0m3.2 6l0 6 1 0 1 0 0-6 0-6-1 0-1 0 0 6m3.1-5.3l0.7 0.7 0.7-0.6c0.3-0.4 0.7-0.7 0.7-0.7 0.1-0.1-0.2-0.1-1.4-0.1l-1.4 0 0.7 0.7m-11.1 10.3l0 8 9 0 9 0 0-8 0-8-3 0-3 0 0 1 0 1 2 0 2 0 0 6 0 6-7 0-7 0 0-6 0-6 2 0 2 0 0-1 0-1-3 0-3 0 0 8" stroke="none" fill="black" fill-rule="evenodd"></path><path fill-opacity="0.918" d="M8.5 0.7l0.7 0.7 0.7-0.7c0.3-0.4 0.7-0.7 0.7-0.7 0 0-0.7 0-1.4 0l-1.4 0 0.7 0.7m2.5 5.3l0 6 1 0 1 0 0-6 0-6-1 0-1 0 0 6m3.1-5.3l0.7 0.7 0.7-0.7c0.4-0.4 0.7-0.7 0.7-0.7 0 0-0.6 0-1.4 0l-1.4 0 0.7 0.7m-11.1 10.3l0 8 9 0 9 0 0-8 0-8-3 0-3 0 0 1 0 1 2 0 2 0 0 6 0 6-7 0-7 0 0-6 0-6 2 0 2 0 0-1 0-1-3 0-3 0 0 8" stroke="none" fill="black" fill-rule="evenodd"></path><path fill-opacity="0.917" d="M8.5 0.7l0.7 0.7 0.6-0.7 0.7-0.7-1.3 0-1.4 0 0.7 0.7m2.5 5.3l0 6 1 0 1 0 0-6 0-6-1 0-1 0 0 6m3.2-5.3l0.7 0.7 0.6-0.7 0.7-0.7-1.3 0-1.4 0 0.7 0.7m-11.2 10.3l0 8 9 0 9 0 0-8 0-8-3 0-3 0 0 1 0 1 2 0 2 0 0 6 0 6-7 0-7 0 0-6 0-6 2 0 2 0 0-1 0-1-3 0-3 0 0 8" stroke="none" fill="black" fill-rule="evenodd"></path></svg>