<?xml version="1.0"?><svg xmlns="http://www.w3.org/2000/svg" width="24" height="24" viewBox="0 0 24 24" version="1.1"><rect x="0" y="0" width="24" height="24" fill="#00000000"></rect><path fill-opacity="0.718" d="M14 3l0 1 2.3 0 2.3 0-3.8 3.8-3.8 3.7 0.8 0.7 0.7 0.8 3.7-3.8 3.8-3.8 0 2.3 0 2.3 1 0 1 0 0-4 0-4-4 0-4 0 0 1m-10 9l0 8 8 0 8 0 0-4 0-4-1 0-1 0 0 3 0 3-6 0-6 0 0-6 0-6 3 0 3 0 0-1 0-1-4 0-4 0 0 8" stroke="none" fill="black" fill-rule="evenodd"></path><path fill-opacity="0.235" d="M14 3l0 1 2.3 0 2.3 0-3.8 3.8-3.7 3.8 0.7 0.6c0.3 0.4 0.6 0.7 0.7 0.7 0 0 1.7-1.7 3.8-3.8l3.7-3.7 0 2.3 0 2.3 1 0 1 0 0-4 0-4-4 0-4 0 0 1m-10 9l0 8 8 0 8 0 0-4 0-4-1 0-1 0 0 3 0 3-6 0-6 0 0-6 0-6 3 0 3 0 0-1 0-1-4 0-4 0 0 8" stroke="none" fill="black" fill-rule="evenodd"></path><path fill-opacity="0.836" d="M14 3l0 1 2.3 0 2.3 0-3.7 3.8-3.8 3.7 0.7 0.7 0.7 0.7 3.7-3.8 3.8-3.7 0 2.3 0 2.3 1 0 1 0 0-4 0-4-4 0-4 0 0 1m-10 9l0 8 8 0 8 0 0-4 0-4-1 0-1 0 0 3 0 3-6 0-6 0 0-6 0-6 3 0 3 0 0-1 0-1-4 0-4 0 0 8" stroke="none" fill="black" fill-rule="evenodd"></path><path fill-opacity="1.000" d="M14 3l0 1 2.3 0 2.3 0-3.8 3.8-3.7 3.8 0.7 0.6 0.7 0.7 3.7-3.8 3.8-3.7 0 2.3 0 2.3 1 0 1 0 0-4 0-4-4 0-4 0 0 1m-10 9l0 8 8 0 8 0 0-4 0-4-1 0-1 0 0 3 0 3-6 0-6 0 0-6 0-6 3 0 3 0 0-1 0-1-4 0-4 0 0 8" stroke="none" fill="black" fill-rule="evenodd"></path></svg>