<?xml version="1.0"?><svg xmlns="http://www.w3.org/2000/svg" width="24" height="24" viewBox="0 0 24 24" version="1.1"><rect x="0" y="0" width="24" height="24" fill="#00000000"></rect><path fill-opacity="0.467" d="M10.6 5.1c-3.5 0.4-6.6 2.3-8.6 5.3-0.4 0.6-1 1.8-1.2 2.3-0.1 0.3-0.1 0.3 0 0.6 0 0.1 0.2 0.6 0.4 1 1.5 3.1 4.4 5.4 7.7 6.3 1.2 0.3 1.7 0.4 3.1 0.4 1.1 0 1.4 0 1.9-0.1 3.5-0.7 6.2-2.4 8.1-5.3 0.4-0.6 1-1.8 1.2-2.3 0.1-0.3 0.1-0.3 0-0.6 0-0.1-0.2-0.6-0.4-1-1.5-2.9-4.1-5.2-7.3-6.2-1.5-0.4-3.3-0.6-4.9-0.4m0.5 2c-2.3 0.2-4.4 1.1-6 2.7-0.8 0.8-1.5 1.8-2 2.7l-0.3 0.5 0.3 0.5c1.5 3.1 4.6 5.2 8.2 5.5 3.9 0.3 7.8-1.9 9.6-5.5l0.3-0.5-0.3-0.5c-0.3-0.6-0.9-1.5-1.4-2.1-2.1-2.4-5.2-3.6-8.4-3.3m0.1 2c-1.2 0.2-2.2 1-2.8 2.1-0.3 0.7-0.4 1-0.4 1.8 0 0.6 0 0.7 0.1 1.1 0.4 1.3 1.5 2.3 2.8 2.8 0.3 0.1 0.5 0.1 1.1 0.1 0.6 0 0.8 0 1.1-0.1 1.3-0.5 2.4-1.5 2.8-2.8 0.1-0.5 0.1-1.6 0-2.1-0.2-0.8-0.8-1.6-1.4-2.1-0.4-0.3-0.9-0.6-1.4-0.8-0.5-0.1-1.4-0.1-1.9 0m0.4 2c-0.8 0.1-1.4 0.8-1.6 1.6-0.2 1.3 1 2.5 2.3 2.3 1.6-0.3 2.2-2.3 1.1-3.4-0.3-0.3-0.7-0.5-1.1-0.6-0.3 0-0.3 0-0.7 0.1" stroke="none" fill="black" fill-rule="evenodd"></path><path fill-opacity="0.360" d="M10.7 5.1c-2.3 0.2-4.5 1.1-6.3 2.6-0.9 0.7-1.9 1.9-2.6 2.9-0.4 0.7-1.1 2.2-1.1 2.4 0 0.2 0.5 1.3 0.9 1.9 1.8 3.2 4.9 5.4 8.7 6 0.4 0.1 0.8 0.1 1.7 0.1 1.2 0 1.7-0.1 2.7-0.3 1.8-0.4 3.7-1.4 5.1-2.6 1.1-1 2.3-2.4 2.9-3.7 0.2-0.4 0.6-1.3 0.6-1.4 0-0.2-0.7-1.7-1.1-2.4-0.7-1-1.7-2.2-2.6-2.9-2.5-2-5.7-3-8.9-2.6m0.2 2c-1.2 0.1-2.2 0.4-3.3 0.9-2 1-3.6 2.6-4.6 4.7l-0.2 0.3 0.2 0.3c1.3 2.7 3.6 4.6 6.5 5.4 1 0.2 1.4 0.3 2.5 0.3 1.1 0 1.5-0.1 2.5-0.3 1.1-0.3 2-0.7 3-1.3 1.4-1 2.7-2.4 3.5-4.1l0.2-0.3-0.3-0.5c-0.5-1.1-1.1-1.9-1.9-2.7-2.2-2.1-5.2-3.1-8.1-2.7m0.4 2c-1 0.2-1.7 0.6-2.3 1.3-1.4 1.5-1.3 3.9 0.2 5.4 1.6 1.6 4 1.6 5.6 0 2.2-2.1 1.2-5.8-1.7-6.6-0.5-0.2-1.4-0.2-1.8-0.1m0.2 2c-0.6 0.1-1.1 0.5-1.3 1.1-0.2 0.3-0.2 0.4-0.2 0.8 0 0.4 0 0.5 0.2 0.8 0.3 0.6 0.8 1 1.5 1.2 0.9 0.1 1.7-0.4 2.1-1.2 0.2-0.3 0.2-0.4 0.2-0.8 0-0.4 0-0.5-0.2-0.8-0.2-0.4-0.5-0.7-0.8-0.9-0.5-0.3-1-0.4-1.5-0.2" stroke="none" fill="black" fill-rule="evenodd"></path><path fill-opacity="0.264" d="M10.8 5.1c-3.7 0.4-6.9 2.4-9 5.5-0.3 0.5-0.7 1.3-0.9 1.9l-0.2 0.5 0.1 0.4c0.8 2 2.3 3.9 4.1 5.3 1.6 1.1 3.5 1.9 5.4 2.2 0.9 0.1 2.5 0.1 3.4 0 1.3-0.2 2.4-0.6 3.6-1.2 1.9-0.9 3.4-2.2 4.6-4 0.7-0.9 1.4-2.3 1.4-2.7 0-0.1-0.1-0.4-0.3-0.8-1.4-3.2-4.3-5.7-7.7-6.7-1.5-0.4-3-0.6-4.5-0.4m0.4 1.9c-0.1 0-0.4 0.1-0.6 0.1-0.6 0.1-1.5 0.3-2.1 0.5-2.4 0.9-4.3 2.7-5.4 4.9l-0.3 0.5 0.3 0.5c1.4 2.8 4.1 4.8 7.4 5.4 0.5 0.1 2.5 0.1 3 0 1.7-0.3 3.5-1.1 4.7-2.1 1.1-0.8 2.1-2.1 2.7-3.3l0.3-0.5-0.3-0.5c-0.9-1.9-2.5-3.5-4.4-4.4-1.5-0.8-2.6-1-4.3-1.1-0.5 0-1 0-1 0m0 2.1c-0.9 0.2-1.5 0.5-2.1 1.2-0.4 0.5-0.8 1-1 1.7 0 0.3-0.1 0.5-0.1 1 0 0.7 0.1 1.2 0.4 1.8 0.5 1 1.5 1.7 2.6 2.1 0.5 0.1 1.5 0.1 2 0 1.4-0.4 2.5-1.5 2.9-2.9 0.1-0.5 0.1-1.5 0-2-0.4-1.2-1.3-2.2-2.3-2.7-0.5-0.2-1.2-0.3-1.6-0.3-0.2 0-0.6 0-0.8 0.1m0.2 2c-0.8 0.2-1.4 1-1.4 1.9 0 1.2 1.1 2.2 2.3 2 1.7-0.3 2.3-2.3 1.1-3.5-0.5-0.4-1.3-0.6-2-0.4" stroke="none" fill="black" fill-rule="evenodd"></path><path fill-opacity="0.969" d="M11.2 5.1c-4.7 0.3-8.7 3.2-10.3 7.5l-0.2 0.4 0.2 0.4c0.6 1.7 1.7 3.2 3.1 4.5 1.7 1.6 3.9 2.6 6.4 3 0.7 0.1 2.5 0.1 3.2 0 2.1-0.3 4-1.1 5.7-2.4 0.2-0.2 0.8-0.6 1.2-1 1.2-1.3 2-2.6 2.6-4.1l0.2-0.4-0.2-0.5c-1.2-2.9-3.4-5.2-6.3-6.5-1.3-0.5-2.5-0.8-4-0.9-0.8-0.1-0.9-0.1-1.6 0m-0.7 2c-3.2 0.5-6 2.5-7.5 5.4-0.2 0.5-0.2 0.6 0.3 1.4 1.4 2.6 3.8 4.3 6.8 4.9 0.6 0.2 0.7 0.2 1.9 0.2 0.9 0 1.3 0 1.7-0.1 3-0.6 5.5-2.4 7-5 0.5-0.8 0.5-0.9 0.3-1.4-1.2-2.3-3.2-4.1-5.7-4.9-1.4-0.6-3.2-0.7-4.8-0.5m1 2c-1 0.1-1.8 0.5-2.4 1.2-1.7 1.8-1.3 4.9 0.9 6.1 0.5 0.3 1 0.5 1.5 0.6 1.9 0.2 3.7-1 4.3-2.8 0.6-1.9-0.3-4-2.1-4.8-0.7-0.3-1.6-0.4-2.2-0.3m-0.1 2c-0.5 0.1-1 0.6-1.2 1.1-0.2 0.2-0.2 0.3-0.2 0.8 0 0.5 0 0.5 0.2 0.9 0.2 0.4 0.6 0.8 1 0.9 0.2 0.2 0.3 0.2 0.8 0.2 0.5 0 0.5 0 0.9-0.2 0.4-0.2 0.8-0.6 0.9-1 0.2-0.2 0.2-0.3 0.2-0.8 0-0.5 0-0.6-0.2-0.8-0.2-0.4-0.6-0.9-1-1-0.2-0.1-0.4-0.2-0.7-0.2-0.3 0-0.6 0-0.7 0.1" stroke="none" fill="black" fill-rule="evenodd"></path></svg>