<?xml version="1.0"?><svg xmlns="http://www.w3.org/2000/svg" width="24" height="24" viewBox="0 0 24 24" version="1.1"><rect x="0" y="0" width="24" height="24" fill="#00000000"></rect><path fill-opacity="0.416" d="M9.2 8.6c-0.2 0-0.4 0.2-0.6 0.5-0.1 0.2-0.1 0.2-0.1 2.8 0 2.9 0 3 0.3 3.3 0.1 0.1 0.3 0.3 0.4 0.3 0.2 0 0.9 0 2.9 0l2.6 0 0.2-0.1c0.3-0.1 0.5-0.3 0.6-0.6 0-0.2 0-1.1 0-2.9 0-2.6 0-2.6-0.1-2.8-0.1-0.3-0.4-0.5-0.7-0.5-0.3-0.1-5.2-0.1-5.5 0m9.1 0.9c-0.5 0.2-0.8 0.5-0.8 1 0 0.5 0.3 0.9 0.8 1 0.1 0 1.2 0 2.9 0l2.8 0.1 0-1.1 0-1-2.8 0c-1.5 0-2.8 0-2.9 0m-0.2 3.2c-0.2 0-0.3 0.1-0.4 0.3-0.1 0.1-0.1 0.2-0.1 0.5 0 0.3 0 0.4 0.1 0.6 0.1 0.1 0.2 0.2 0.4 0.3 0.2 0.1 0.2 0.1 3 0.1l2.9 0 0-1 0-0.9-2.9 0c-2.8 0-2.8 0-3 0.1m-8.9 5.9c-0.2 0-0.4 0.2-0.6 0.5-0.1 0.2-0.1 0.2-0.1 2.5l0 2.4 3.5 0 3.6 0-0.1-2.4c0-2.3 0-2.3-0.1-2.5-0.1-0.3-0.4-0.5-0.7-0.5-0.3-0.1-5.2-0.1-5.5 0m9.1 0.9c-0.5 0.2-0.8 0.5-0.8 1 0 0.5 0.3 0.9 0.8 1 0.1 0 1.2 0 2.9 0l2.8 0.1 0-1.1 0-1-2.8 0c-1.5 0-2.8 0-2.9 0m-0.2 3.2c-0.3 0.1-0.5 0.4-0.5 0.7 0 0.2 0 0.4 0 0.5l0 0.1 3.2 0 3.2 0 0-0.7 0-0.7-2.9 0c-2.8 0-2.8 0-3 0.1" stroke="none" fill="black" fill-rule="evenodd"></path><path fill-opacity="0.140" d="M9.3 8.6c-0.3 0.1-0.5 0.2-0.6 0.5l-0.2 0.2 0 2.7c0 2.7 0 2.8 0.1 3 0.2 0.2 0.3 0.3 0.5 0.4 0.2 0.1 0.3 0.1 2.9 0.1 2.7 0 2.8 0 3-0.1 0.2-0.1 0.3-0.2 0.4-0.4 0.1-0.2 0.1-0.4 0.1-3l0-2.7-0.1-0.2c-0.2-0.3-0.4-0.5-0.7-0.5-0.4-0.1-5.1-0.1-5.4 0m8.8 1.1c-0.3 0.1-0.5 0.4-0.5 0.7-0.1 0.5 0.1 0.7 0.4 0.9l0.2 0.2 2.9 0 2.9 0 0-1 0-0.9-2.9 0c-2.8 0-2.8 0-3 0.1m0 2.9c-0.7 0.4-0.7 1.4 0 1.8l0.2 0.1 2.9 0 2.8 0 0-1 0-0.9-2.8 0c-2.7 0-2.9 0-3.1 0m-8.8 6c-0.3 0.1-0.5 0.2-0.6 0.5l-0.2 0.2 0 2.3 0 2.4 3.5 0 3.6 0-0.1-2.4 0-2.3-0.1-0.2c-0.2-0.3-0.4-0.5-0.7-0.5-0.4-0.1-5.1-0.1-5.4 0m8.8 1.1c-0.3 0.1-0.5 0.4-0.5 0.7-0.1 0.5 0.1 0.7 0.4 0.9l0.2 0.2 2.9 0 2.9 0 0-1 0-0.9-2.9 0c-2.8 0-2.8 0-3 0.1m0 2.9c-0.4 0.2-0.6 0.6-0.5 1.1 0 0.1 0 0.2 0 0.3 0 0 1.2 0 3.2 0l3.2 0 0-0.7 0-0.7-2.8 0c-2.7 0-2.9 0-3.1 0" stroke="none" fill="black" fill-rule="evenodd"></path><path fill-opacity="0.336" d="M9.1 8.7c-0.2 0-0.3 0.1-0.4 0.3l-0.1 0.2 0 2.8 0 2.9 0.1 0.2c0.1 0.1 0.2 0.2 0.4 0.3 0.2 0.1 0.2 0.1 2.9 0.1 2.7 0 2.8 0 3-0.1 0.1-0.1 0.3-0.2 0.3-0.3l0.2-0.2 0-2.9 0-2.8-0.2-0.2c0-0.2-0.2-0.3-0.3-0.3-0.2-0.1-0.3-0.1-3-0.1-2.7 0-2.7 0-2.9 0.1m9.1 0.9c-0.4 0.1-0.7 0.6-0.6 1 0 0.3 0.1 0.6 0.4 0.8l0.2 0.1 2.9 0 2.9 0 0-1 0-0.9-2.8 0c-1.6 0-2.9 0-3 0m-9.1 9.1c-0.2 0-0.3 0.1-0.4 0.3l-0.1 0.2 0 2.4-0.1 2.4 3.5 0 3.5 0 0-2.4 0-2.4-0.2-0.2c0-0.2-0.2-0.3-0.3-0.3-0.2-0.1-0.3-0.1-3-0.1-2.7 0-2.7 0-2.9 0.1m9.1 0.9c-0.4 0.1-0.7 0.6-0.6 1 0 0.3 0.1 0.6 0.4 0.8l0.2 0.1 2.9 0 2.9 0 0-1 0-0.9-2.8 0c-1.6 0-2.9 0-3 0" stroke="none" fill="black" fill-rule="evenodd"></path><path fill-opacity="1.000" d="M9.2 8.6c-0.2 0.1-0.5 0.3-0.6 0.5 0 0.2-0.1 0.5 0 3l0 2.8 0.1 0.2c0.1 0.1 0.2 0.2 0.3 0.3l0.2 0.1 2.8 0 2.9 0 0.2-0.1c0.1-0.1 0.2-0.2 0.3-0.3l0.1-0.2 0-2.9 0-2.8-0.1-0.2c-0.1-0.1-0.2-0.2-0.3-0.3l-0.2-0.1-2.8 0c-1.5 0-2.8 0-2.9 0m8.9 1c-0.8 0.4-0.7 1.5 0.1 1.8 0.1 0.1 0.5 0.1 3 0.1l2.8 0 0-1 0-0.9-2.8 0c-2.7 0-2.9 0-3.1 0m-8.9 9c-0.2 0.1-0.5 0.3-0.6 0.5 0 0.2 0 0.5 0 2.5l0 2.4 3.4 0 3.5 0 0-2.4 0-2.4-0.1-0.2c-0.1-0.1-0.2-0.2-0.3-0.3l-0.2-0.1-2.8 0c-1.5 0-2.8 0-2.9 0m8.9 1c-0.8 0.4-0.7 1.5 0.1 1.8 0.1 0.1 0.5 0.1 3 0.1l2.8 0 0-1 0-0.9-2.8 0c-2.7 0-2.9 0-3.1 0" stroke="none" fill="black" fill-rule="evenodd"></path></svg>