<?xml version="1.0"?><svg xmlns="http://www.w3.org/2000/svg" width="24" height="24" viewBox="0 0 24 24" version="1.1"><rect x="0" y="0" width="24" height="24" fill="#00000000"></rect><path fill-opacity="0.451" d="M5.2 2.1c-1 0.3-1.9 1.2-2.1 2.2-0.1 0.5-0.1 14.9 0 15.4 0.2 1.1 1.1 2 2.2 2.2 0.5 0.1 12.9 0.1 13.4 0 1.1-0.2 2-1.1 2.2-2.2 0.1-0.5 0.1-12 0-12.7-0.4-2.2-1.9-4-4-4.7-0.9-0.3-0.9-0.3-6.3-0.3-4.8 0-5 0-5.4 0.1m0.6 1.9c-0.3 0.1-0.5 0.3-0.7 0.5l-0.1 0.2 0 7.3 0 7.3 0.2 0.2c0.1 0.2 0.2 0.3 0.4 0.4l0.2 0.1 6.2 0 6.2 0 0.2-0.1c0.2-0.1 0.3-0.2 0.4-0.4l0.2-0.2 0-5.2 0-5.1-2.5 0-2.5 0 0-2.5 0-2.5-4 0c-2.3 0-4.1 0-4.2 0m10.2 1.6l0 1.4 1.4 0c0.8 0 1.5 0 1.5 0 0-0.1-0.3-0.7-0.4-1-0.2-0.2-0.4-0.5-0.7-0.8-0.4-0.4-0.5-0.5-1-0.7-0.3-0.2-0.6-0.3-0.7-0.3l-0.1-0.1 0 1.5m-9 3.4l0 1 2 0 2 0 0-1 0-1-2 0-2 0 0 1m0 4l0 1 5 0 5 0 0-1 0-1-5 0-5 0 0 1m0 4l0 1 5 0 5 0 0-1 0-1-5 0-5 0 0 1" stroke="none" fill="black" fill-rule="evenodd"></path><path fill-opacity="0.457" d="M5.4 2.1c-1.2 0.2-2.1 1.2-2.3 2.3-0.1 0.5-0.1 14.7 0 15.2 0.2 1 0.9 1.8 1.9 2.2l0.4 0.2 6.6 0 6.6 0 0.4-0.2c1-0.4 1.7-1.2 1.9-2.2 0.1-0.3 0.1-1.1 0.1-6.4 0-5.6 0-6.1-0.1-6.4-0.5-2.1-2-3.8-3.9-4.4-1-0.4-0.6-0.4-6.2-0.4-4.3 0-5.2 0-5.4 0.1m0.2 2c-0.2 0.1-0.5 0.4-0.6 0.6 0 0.1 0 2.7 0 7.4l0 7.2 0.2 0.3c0.1 0.1 0.2 0.2 0.3 0.3l0.3 0.1 6.2 0 6.2 0 0.3-0.1c0.1-0.1 0.2-0.2 0.3-0.3l0.2-0.3 0-5.1 0-5.2-2.5 0-2.5 0 0-2.5 0-2.5-4.1 0c-3.4 0-4.1 0-4.3 0.1m10.4 1.5l0 1.4 1.4 0c0.9 0 1.5 0 1.5 0 0-0.1-0.3-0.8-0.4-1-0.2-0.3-0.6-0.7-0.8-1-0.5-0.3-1.1-0.7-1.6-0.8l-0.1-0.1 0 1.5m-9 3.4l0 1 2 0 2 0 0-1 0-1-2 0-2 0 0 1m0 4l0 1 5 0 5 0 0-1 0-1-5 0-5 0 0 1m0 4l0 1 5 0 5 0 0-1 0-1-5 0-5 0 0 1" stroke="none" fill="black" fill-rule="evenodd"></path><path fill-opacity="0.461" d="M5.4 2.1c-1 0.2-1.9 1-2.2 2l-0.2 0.4 0 7.5 0 7.5 0.2 0.4c0.3 1 1 1.7 2 2 0.3 0.1 0.6 0.1 6.8 0.1 6.2 0 6.5 0 6.8-0.1 1-0.3 1.7-1 2-2l0.2-0.4 0-6c0-6.5 0-6.3-0.3-7.2-0.6-2.3-2.7-4-5.1-4.2-0.3-0.1-2.2-0.1-5.2-0.1-3.9 0-4.7 0-5 0.1m0.2 2c-0.3 0.1-0.4 0.3-0.5 0.5-0.1 0.2-0.1 1-0.1 7.4 0 6.4 0 7.2 0.1 7.4 0.1 0.2 0.2 0.4 0.5 0.5 0.2 0.1 0.5 0.1 6.4 0.1 5.9 0 6.2 0 6.4-0.1 0.3-0.1 0.4-0.3 0.5-0.5 0.1-0.2 0.1-0.8 0.1-5.3l0-5.1-2.5 0-2.5 0 0-2.5 0-2.5-4.1 0c-3.9 0-4.1 0-4.3 0.1m10.4 1.5l0 1.4 1.4 0 1.5 0-0.1-0.2c0-0.2-0.4-0.9-0.6-1.2-0.2-0.3-0.5-0.5-0.7-0.7-0.4-0.3-1.1-0.7-1.3-0.7l-0.2-0.1 0 1.5m-9 3.4l0 1 2 0 2 0 0-1 0-1-2 0-2 0 0 1m0 4l0 1 5 0 5 0 0-1 0-1-5 0-5 0 0 1m0 4l0 1 5 0 5 0 0-1 0-1-5 0-5 0 0 1" stroke="none" fill="black" fill-rule="evenodd"></path><path fill-opacity="0.951" d="M5.6 2.1c-1.2 0.1-2.1 0.9-2.5 2.1-0.1 0.3-0.1 0.7-0.1 7.8 0 7.1 0 7.5 0.1 7.8 0.3 1 1.1 1.8 2.1 2.1 0.3 0.1 0.7 0.1 6.8 0.1 6.1 0 6.5 0 6.8-0.1 1-0.3 1.8-1.1 2.1-2.1 0.1-0.3 0.1-0.6 0.1-6.4 0-5.6 0-6.1-0.1-6.5-0.5-2.3-2.2-4.1-4.5-4.7-0.2-0.1-0.6-0.1-0.9-0.1-0.7-0.1-9.5-0.1-9.9 0m0 2c-0.2 0.1-0.3 0.2-0.4 0.3l-0.2 0.2 0 7.3c0 8.1 0 7.5 0.3 7.8 0.3 0.3-0.1 0.3 6.7 0.3 6.8 0 6.4 0 6.7-0.3 0.3-0.3 0.3 0.1 0.3-5.6l0-5.1-2.5 0-2.5 0 0-2.5 0-2.5-4.1 0-4.1 0-0.2 0.1m9.6-0.1c0.1 0 0.2 0 0.3 0 0 0 0 0-0.1 0-0.2 0-0.2 0-0.2 0m0.5 0.1c0 0 0.1 0 0.1 0 0 0 0 0 0 0-0.1 0-0.1 0-0.1 0m0.2 0c0.1 0.1 0.1 0.4 0.1 1.5l0 1.4 1.4 0c1.1 0 1.5 0 1.5 0.1 0 0 0 0 0 0 0-0.1-0.1-0.5-0.3-0.9-0.4-0.8-1.2-1.6-2.1-1.9-0.2-0.1-0.8-0.3-0.6-0.2m3 3.2c0 0 0 0 0 0 0 0 0-0.1 0-0.1 0 0 0 0 0 0.1m0.1 0.4c0 0.1 0 0.1 0 0.1 0-0.1 0-0.2 0-0.3 0 0 0 0 0 0.2m-12 1.3l0 1 2 0 2 0 0-1 0-1-2 0-2 0 0 1m0 4l0 1 5 0 5 0 0-1 0-1-5 0-5 0 0 1m0 4l0 1 5 0 5 0 0-1 0-1-5 0-5 0 0 1" stroke="none" fill="black" fill-rule="evenodd"></path></svg>