<?xml version="1.0"?><svg xmlns="http://www.w3.org/2000/svg" width="24" height="24" viewBox="0 0 24 24" version="1.1"><rect x="0" y="0" width="24" height="24" fill="#00000000"></rect><path fill-opacity="0.412" d="M4.4 1.1c-0.3 0.1-0.6 0.2-0.8 0.5-0.5 0.5-0.6 0.8-0.6 1.8l0 0.7-0.2 0.1c-0.7 0.4-1.4 1.1-1.7 1.8l-0.1 0.4 0 5.6 0 5.6 0.1 0.3c0.3 0.9 1.1 1.7 1.9 2l0.4 0.1 8.6 0 8.6 0 0.4-0.1c0.8-0.3 1.6-1.1 1.9-2l0.1-0.3 0-5.6 0-5.6-0.1-0.3c-0.3-0.9-1-1.6-1.9-2l-0.3-0.1-3.9 0-3.9 0-0.1-0.2c0-0.2-0.4-0.9-0.6-1.2-0.5-0.7-1.3-1.2-2.1-1.5-0.4-0.1-0.4-0.1-2.9-0.1-2 0-2.6 0-2.8 0.1m0.6 2.4l0 0.5 2.9 0 2.8 0-0.1-0.1c-0.1-0.2-0.4-0.5-0.7-0.7-0.2 0-0.4-0.1-0.6-0.2-0.1 0-1.2 0-2.3 0l-2 0 0 0.5m-1.5 2.6c-0.2 0.2-0.2 0.2-0.4 0.4l-0.1 0.3 0 5.2 0 5.3 0.1 0.2c0.1 0.1 0.3 0.3 0.4 0.3l0.2 0.2 8.3 0 8.3 0 0.2-0.2c0.1 0 0.3-0.2 0.4-0.3l0.1-0.2 0-5.3 0-5.3-0.2-0.2c-0.1-0.2-0.2-0.3-0.4-0.4l-0.2-0.1-8.2 0-8.2 0-0.3 0.1" stroke="none" fill="black" fill-rule="evenodd"></path><path fill-opacity="0.200" d="M4.4 1.1c-0.7 0.2-1.2 0.8-1.3 1.5-0.1 0.1-0.1 0.6-0.1 0.9l0 0.7-0.2 0c-0.5 0.2-1.2 0.9-1.5 1.5-0.3 0.6-0.3 0.4-0.3 6.3 0 5.9 0 5.7 0.3 6.3 0.2 0.5 0.9 1.2 1.4 1.4 0.6 0.3 0.2 0.3 9.3 0.3 9.2 0 8.7 0 9.3-0.3 0.5-0.2 1.2-0.9 1.4-1.4 0.3-0.6 0.3-0.4 0.3-6.3 0-5.9 0-5.7-0.3-6.3-0.1-0.3-0.3-0.5-0.6-0.8-0.3-0.3-0.5-0.4-0.8-0.6-0.2-0.1-0.6-0.2-0.7-0.2-0.2-0.1-1.6-0.1-4-0.1l-3.7 0-0.1-0.2c-0.1-0.4-0.4-0.9-0.7-1.3-0.5-0.6-1.1-1-1.9-1.3l-0.5-0.2-2.5 0c-2.4 0-2.6 0-2.8 0.1m0.6 2.4l0 0.5 2.9 0c1.5 0 2.8 0 2.8 0 0-0.1-0.5-0.6-0.8-0.8-0.4-0.2-0.6-0.2-2.8-0.2l-2.1 0 0 0.5m-1.5 2.6c-0.1 0.1-0.2 0.2-0.3 0.3l-0.2 0.3 0 5.3 0 5.3 0.2 0.3c0.1 0.1 0.2 0.2 0.3 0.3l0.3 0.1 8.2 0 8.2 0 0.2-0.1c0.2-0.1 0.3-0.2 0.4-0.3l0.2-0.3 0-5.3 0-5.3-0.2-0.3c-0.1-0.1-0.2-0.2-0.3-0.3l-0.3-0.1-8.2 0-8.2 0-0.3 0.1" stroke="none" fill="black" fill-rule="evenodd"></path><path fill-opacity="0.608" d="M4.5 1.1c-0.3 0-0.8 0.3-1 0.6-0.4 0.5-0.5 0.7-0.5 1.7l0 0.8-0.4 0.1c-0.7 0.4-1.3 1.2-1.5 2.1-0.1 0.5-0.1 10.7 0 11.2 0.2 1.1 1.2 2.1 2.3 2.3 0.5 0.1 16.7 0.1 17.2 0 1.1-0.2 1.9-1 2.3-2 0.1-0.3 0.1-0.6 0.1-5.7 0-6.1 0-5.8-0.3-6.5-0.3-0.6-0.8-1.1-1.4-1.4-0.6-0.3-0.6-0.3-4.7-0.3l-3.7 0-0.2-0.4c-0.5-1.3-1.5-2.1-2.8-2.5-0.2-0.1-0.6-0.1-2.7-0.1-1.5 0-2.6 0-2.7 0.1m0.5 2.4l0 0.5 2.9 0c1.5 0 2.8 0 2.8 0 0-0.1-0.5-0.6-0.7-0.7-0.5-0.3-0.5-0.3-2.9-0.3l-2.1 0 0 0.5m-1.4 2.6c-0.3 0.1-0.5 0.3-0.6 0.6 0 0.1 0 1.8 0 5.4l0 5.2 0.2 0.3c0.1 0.1 0.2 0.2 0.3 0.3l0.3 0.1 8.2 0 8.2 0 0.3-0.1c0.1-0.1 0.2-0.2 0.3-0.3l0.2-0.3 0-5.2c0-3.6 0-5.3 0-5.4-0.1-0.3-0.3-0.5-0.6-0.6-0.2-0.1-0.5-0.1-8.4-0.1-7.9 0-8.2 0-8.4 0.1" stroke="none" fill="black" fill-rule="evenodd"></path><path fill-opacity="0.957" d="M4.6 1.1c-0.6 0.1-1.1 0.5-1.4 1-0.1 0.4-0.2 0.8-0.2 1.5l0 0.6-0.4 0.1c-0.4 0.3-1 0.8-1.2 1.3-0.4 0.6-0.4 0.3-0.4 6.1 0 3.2 0 5.4 0 5.6 0.1 0.6 0.3 1 0.5 1.4 0.4 0.6 1 1 1.7 1.2 0.3 0.1 0.6 0.1 8.8 0.1 8.2 0 8.5 0 8.8-0.1 0.7-0.2 1.3-0.6 1.7-1.2 0.2-0.4 0.4-0.8 0.5-1.4 0-0.2 0-2.3 0-5.6 0-5.8 0-5.4-0.4-6.1-0.1-0.4-0.6-0.9-1-1.1-0.1-0.1-0.4-0.2-0.6-0.3l-0.4-0.2-3.9 0-3.8 0-0.1-0.3c-0.5-1.4-1.8-2.5-3.4-2.7-0.6 0-4.5 0-4.8 0.1m0.4 2.4l0 0.5 2.9 0c2.7 0 2.9 0 2.8-0.1-0.2-0.2-0.5-0.6-0.7-0.7-0.5-0.2-0.6-0.2-2.8-0.2l-2.2 0 0 0.5m-1.5 2.6c-0.1 0.1-0.2 0.2-0.3 0.3l-0.2 0.2 0 5.4 0 5.4 0.2 0.2c0.1 0.1 0.2 0.2 0.3 0.3 0.1 0.1 0.1 0.1 8.4 0.1 4.5 0 8.3 0 8.4 0 0.2-0.1 0.5-0.3 0.6-0.6 0.1-0.1 0.1-0.3 0.1-5.5l0-5.3-0.2-0.2c-0.1-0.1-0.2-0.2-0.3-0.3l-0.2-0.1-8.3 0-8.3 0-0.2 0.1" stroke="none" fill="black" fill-rule="evenodd"></path></svg>