<?xml version="1.0"?><svg xmlns="http://www.w3.org/2000/svg" width="24" height="24" viewBox="0 0 24 24" version="1.1"><rect x="0" y="0" width="24" height="24" fill="#00000000"></rect><path fill-opacity="0.502" d="M7 9.5l0 1.1 2 0 2 0 0 1.5 0 1.5 1 0 1 0 0-1.5 0-1.5 2 0 2 0 0-1.1 0-1-5 0-5 0 0 1m-2 6l0 1.1 7 0 7 0 0-1.1 0-1-7 0-7 0 0 1m6 4l0 2.1 1 0 1 0 0-2.1 0-2-1 0-1 0 0 2" stroke="none" fill="black" fill-rule="evenodd"></path><path fill-opacity="1.000" d="M7 9.6l0 1 2 0 2 0 0 1.4 0 1.5 1 0 1 0 0-1.5 0-1.4 2 0 2 0 0-1 0-1-5 0-5 0 0 1m-2 5.9l0 1 7 0 7 0 0-1 0-0.9-7 0-7 0 0 0.9m6 4l0 2 1 0 1 0 0-2 0-1.9-1 0-1 0 0 1.9" stroke="none" fill="black" fill-rule="evenodd"></path></svg>