<?xml version="1.0"?><svg xmlns="http://www.w3.org/2000/svg" width="24" height="24" viewBox="0 0 24 24" version="1.1"><rect x="0" y="0" width="24" height="24" fill="#00000000"></rect><path fill-opacity="0.353" d="M11.6 3.6c-0.3 0.2-0.5 0.4-0.6 0.7-0.1 0.3-3.1 6.9-3.3 7.1 0 0.1-0.1 0.3-0.2 0.4 0 0.1-0.3 0.9-0.7 1.7-0.7 1.4-0.8 1.6-0.8 1.9 0 0.3 0 0.3 0.1 0.5 0.4 0.6 1.1 0.7 1.6 0.2 0.1-0.1 0.4-0.6 0.8-1.6l0.7-1.5 2.8 0 2.8 0 0.7 1.5c0.4 0.8 0.7 1.5 0.8 1.6 0 0 0.2 0.2 0.3 0.2 0.4 0.2 0.7 0.2 1 0 0.3-0.2 0.5-0.6 0.4-0.9 0-0.3-0.1-0.5-0.7-1.9-0.4-0.8-0.8-1.6-0.8-1.7 0-0.1-0.1-0.3-0.2-0.4-0.2-0.3-3.2-6.8-3.3-7.1-0.2-0.6-0.8-0.9-1.4-0.7m-0.5 5.4c-0.5 1.1-0.9 2-0.9 2 0 0 0.8 0 1.8 0 1 0 1.9 0 1.9 0 0-0.1-1.7-3.5-1.8-3.8l-0.1-0.2-0.9 2m-5 10.1c-0.3 0.1-0.6 0.5-0.6 0.9 0 0.4 0.3 0.8 0.6 0.9 0.3 0.1 11.6 0.1 11.8 0 0.4-0.1 0.6-0.5 0.6-0.9 0-0.4-0.3-0.8-0.6-0.9-0.2-0.1-2.1-0.1-5.9-0.1-4.6 0-5.7 0-5.9 0.1" stroke="none" fill="black" fill-rule="evenodd"></path><path fill-opacity="0.339" d="M11.7 3.6c-0.3 0.1-0.6 0.4-0.7 0.8-0.1 0.3-3.1 6.7-3.3 7 0 0.1-0.1 0.2-0.1 0.3 0 0.1-0.4 0.9-0.8 1.8-0.7 1.4-0.8 1.7-0.8 1.9 0 0.9 1 1.3 1.6 0.8 0.2-0.2 0.4-0.5 0.9-1.7l0.7-1.5 2.8 0 2.8 0 0.7 1.5c0.6 1.2 0.8 1.5 0.9 1.7 0.6 0.5 1.7 0.1 1.7-0.8 0-0.2-0.2-0.5-0.8-1.9-0.4-0.9-0.8-1.7-0.8-1.8 0-0.1-0.1-0.2-0.2-0.3-0.2-0.3-3.1-6.7-3.3-7-0.2-0.7-0.7-1-1.3-0.8m0.2 3.7c0 0.1-0.5 1-0.9 1.9-0.4 0.9-0.8 1.7-0.8 1.8 0 0 0.8 0 1.8 0 1 0 1.9 0 1.9 0 0-0.1-1.8-3.9-1.9-3.9 0 0 0 0-0.1 0.2m-5.7 11.8c-0.4 0.1-0.6 0.5-0.6 0.9 0 0.4 0.1 0.7 0.5 0.9 0.2 0.1 0.5 0.1 5.9 0.1 5.5 0 5.7 0 5.9-0.1 0.3-0.1 0.5-0.3 0.5-0.5 0.1-0.2 0.1-0.6 0-0.8-0.1-0.2-0.4-0.5-0.6-0.5-0.1-0.1-2-0.1-5.8-0.1-4.6 0-5.7 0-5.8 0.1" stroke="none" fill="black" fill-rule="evenodd"></path><path fill-opacity="0.633" d="M11.7 3.6c-0.3 0.1-0.6 0.4-0.7 0.7-0.1 0.3-3.1 6.9-3.3 7.1 0 0.1-0.1 0.2-0.1 0.4-0.1 0.2-0.5 1-0.9 1.8-0.4 0.9-0.7 1.6-0.7 1.7 0 0.4 0.2 0.8 0.6 1 0.3 0.2 0.9 0.1 1.2-0.3 0-0.1 0.4-0.8 0.8-1.6l0.6-1.4 2.8 0 2.8 0 0.7 1.4c0.4 0.8 0.7 1.5 0.8 1.6 0.2 0.4 0.8 0.5 1.2 0.3 0.3-0.2 0.6-0.6 0.5-1 0-0.1-0.3-0.8-0.7-1.7-0.4-0.9-0.8-1.7-0.8-1.8-0.1-0.2-0.1-0.3-0.2-0.4-0.1-0.2-3.2-6.8-3.3-7.1-0.1-0.4-0.6-0.8-1-0.7-0.1 0-0.2 0-0.3 0m-0.6 5.4l-0.9 2 0.9 0c0.5 0 1.4 0 1.9 0l0.9 0-0.9-1.8c-0.4-1-0.8-1.9-0.9-2l-0.1-0.2-0.9 2m-4.7 10c-0.1 0-0.1 0.1-0.2 0.1-0.2 0-0.5 0.2-0.6 0.5-0.1 0.4 0 0.9 0.3 1.1 0.3 0.3 0 0.3 6.1 0.3 5.5 0 5.7 0 5.9-0.1 0.6-0.3 0.8-1.1 0.3-1.6-0.3-0.3-0.1-0.3-6.2-0.3-3.1 0-5.6 0-5.6 0" stroke="none" fill="black" fill-rule="evenodd"></path><path fill-opacity="0.950" d="M11.7 3.6c-0.3 0.1-0.6 0.4-0.7 0.7 0 0.3-3 6.7-3.2 7.1-0.1 0.1-0.2 0.3-0.2 0.4 0 0.1-0.4 0.8-0.8 1.6-0.7 1.6-0.8 1.8-0.8 2 0 0.4 0.3 0.8 0.6 1 0.3 0 0.7 0 1-0.2 0.2-0.1 0.2-0.2 0.9-1.7l0.7-1.5 2.8 0 2.8 0 0.7 1.5c0.8 1.6 0.9 1.7 1.2 1.9 0.7 0.2 1.3-0.3 1.3-0.9 0-0.3 0-0.5-0.7-1.9-0.4-0.9-0.8-1.7-0.8-1.8 0-0.1-0.1-0.3-0.2-0.4-0.3-0.4-3.2-6.8-3.3-7.1-0.1-0.3-0.4-0.6-0.7-0.7-0.3-0.1-0.3-0.1-0.6 0m-0.6 5.4l-0.9 2 0.9 0c0.5 0 1.4 0 1.9 0l0.9 0-0.9-2c-0.5-1.1-1-2-1-2 0 0-0.4 0.9-0.9 2m-4.8 10c-0.2 0.1-0.4 0.2-0.6 0.5-0.1 0.1-0.1 0.2-0.1 0.5 0 0.3 0 0.4 0.1 0.5 0.1 0.2 0.2 0.3 0.4 0.4l0.2 0.1 5.7 0 5.8 0 0.2-0.1c0.1-0.1 0.3-0.2 0.3-0.4 0.2-0.1 0.2-0.2 0.2-0.5 0-0.3 0-0.4-0.2-0.5 0-0.2-0.2-0.3-0.3-0.4l-0.2-0.1-5.7 0c-3.1 0-5.7 0-5.8 0" stroke="none" fill="black" fill-rule="evenodd"></path></svg>