<?xml version="1.0"?><svg xmlns="http://www.w3.org/2000/svg" width="24" height="24" viewBox="0 0 24 24" version="1.1"><rect x="0" y="0" width="24" height="24" fill="#00000000"></rect><path fill-opacity="0.294" d="M6 0.2c0.1 0.2 0.3 0.6 0.5 0.7 0.2 0.1 0.2 0.1 5.5 0.1 5.3 0 5.3 0 5.5-0.1 0.2-0.1 0.4-0.5 0.5-0.7l0-0.2-6 0-6 0 0 0.2m0.7 2.8c-0.2 0.1-0.4 0.3-0.5 0.5-0.1 0.1-0.2 0.2-0.2 0.5 0 0.2 0.1 0.3 0.2 0.5 0.1 0.2 0.2 0.3 0.3 0.4 0.2 0.1 0.2 0.1 5.5 0.1 5.3 0 5.3 0 5.5-0.1 0.1-0.1 0.2-0.2 0.3-0.4 0.3-0.5 0.2-1.1-0.3-1.4l-0.2-0.1-5.2 0c-2.9 0-5.3 0-5.4 0m0 4c-0.2 0.1-0.4 0.3-0.5 0.5-0.1 0.1-0.2 0.2-0.2 0.5 0 0.2 0.1 0.3 0.2 0.5 0.1 0.2 0.2 0.3 0.3 0.4 0.2 0.1 0.2 0.1 5.5 0.1 5.3 0 5.3 0 5.5-0.1 0.1-0.1 0.2-0.2 0.3-0.4 0.3-0.5 0.2-1.1-0.3-1.4l-0.2-0.1-5.2 0c-2.9 0-5.3 0-5.4 0m-3.1 4.1c-0.8 0.4-0.8 1.5 0 1.8 0.2 0.1 1.1 0.1 8.4 0.1 8.9 0 8.4 0 8.7-0.3 0.4-0.3 0.4-1.1 0-1.4-0.3-0.3 0.2-0.3-8.7-0.3-7.9 0-8.2 0-8.4 0.1m3.1 3.9c-0.2 0.1-0.4 0.3-0.5 0.5-0.1 0.1-0.2 0.2-0.2 0.5 0 0.2 0.1 0.3 0.2 0.5 0.1 0.2 0.2 0.3 0.3 0.4 0.2 0.1 0.2 0.1 5.5 0.1 5.3 0 5.3 0 5.5-0.1 0.1-0.1 0.2-0.2 0.3-0.4 0.3-0.5 0.2-1.1-0.3-1.4l-0.2-0.1-5.2 0c-2.9 0-5.3 0-5.4 0" stroke="none" fill="black" fill-rule="evenodd"></path><path fill-opacity="0.283" d="M6.1 0.2c0 0.3 0.2 0.5 0.4 0.7l0.2 0.1 5.3 0 5.3 0 0.2-0.1c0.2-0.2 0.4-0.4 0.4-0.7l0.1-0.2-6 0-6 0 0.1 0.2m0.6 2.9c-0.8 0.2-0.9 1.3-0.2 1.8l0.2 0.1 5.3 0 5.3 0 0.2-0.1c0.7-0.5 0.6-1.7-0.3-1.8-0.4-0.1-10.1-0.1-10.5 0m0 4c-0.8 0.2-0.9 1.3-0.2 1.8l0.2 0.1 5.3 0 5.3 0 0.2-0.1c0.7-0.5 0.6-1.7-0.3-1.8-0.4-0.1-10.1-0.1-10.5 0m-3.1 4c-0.8 0.3-0.8 1.4-0.1 1.8l0.3 0.1 8.2 0 8.2 0 0.3-0.1c0.1-0.1 0.2-0.2 0.3-0.3 0.2-0.2 0.2-0.3 0.2-0.6 0-0.3 0-0.4-0.2-0.6-0.1-0.1-0.2-0.2-0.3-0.3-0.2-0.1-0.2-0.1-8.4-0.1-6.9 0-8.3 0-8.5 0.1m3.1 4c-0.8 0.2-0.9 1.3-0.2 1.8l0.2 0.1 5.3 0 5.3 0 0.2-0.1c0.7-0.5 0.6-1.7-0.3-1.8-0.4-0.1-10.1-0.1-10.5 0" stroke="none" fill="black" fill-rule="evenodd"></path><path fill-opacity="0.682" d="M3.7 11c-0.2 0.1-0.4 0.3-0.6 0.6-0.1 0.3-0.1 0.5 0 0.9 0.2 0.2 0.2 0.2 0.4 0.4l0.3 0.1 8.2 0 8.2 0 0.3-0.1c0.2-0.2 0.2-0.2 0.4-0.4 0.1-0.4 0.1-0.6 0-0.9-0.1-0.2-0.2-0.3-0.4-0.4l-0.2-0.2-8.2 0c-4.5 0-8.3 0-8.4 0" stroke="none" fill="black" fill-rule="evenodd"></path><path fill-opacity="0.951" d="M3.7 11.1c-0.8 0.2-0.9 1.3-0.2 1.8l0.2 0.1 8.3 0 8.3 0 0.2-0.1c0.7-0.5 0.6-1.7-0.3-1.8-0.4-0.1-16.1-0.1-16.5 0" stroke="none" fill="black" fill-rule="evenodd"></path></svg>