<?xml version="1.0"?><svg xmlns="http://www.w3.org/2000/svg" width="24" height="24" viewBox="0 0 24 24" version="1.1"><rect x="0" y="0" width="24" height="24" fill="#00000000"></rect><path fill-opacity="0.341" d="M14.2 5.6c-0.2 0.1-0.4 0.3-0.6 0.6-0.3 0.5-5 10.7-5.1 10.9-0.1 0.4 0 0.8 0.3 1.1 0.5 0.4 1.3 0.3 1.6-0.4 0.3-0.5 5-10.7 5.1-10.9 0.1-0.4 0-0.7-0.2-1-0.3-0.3-0.7-0.4-1.1-0.3" stroke="none" fill="black" fill-rule="evenodd"></path><path fill-opacity="0.274" d="M14.1 5.7c-0.2 0.1-0.3 0.2-0.4 0.3 0 0.1-1.2 2.7-2.7 5.7-2.4 5.2-2.5 5.5-2.5 5.8 0 0.2 0 0.3 0.1 0.5 0.4 0.5 1 0.6 1.5 0.2 0.2-0.1 0.7-1.3 2.8-5.8 2.5-5.3 2.6-5.6 2.6-5.8 0-0.4-0.1-0.6-0.3-0.8-0.3-0.3-0.7-0.3-1.1-0.1" stroke="none" fill="black" fill-rule="evenodd"></path><path fill-opacity="0.672" d="M14.3 5.6c-0.2 0.1-0.4 0.2-0.6 0.4-0.1 0.2-5 10.7-5.2 11.1-0.2 0.5 0.2 1.2 0.8 1.3 0.3 0.1 0.8-0.1 1-0.4 0 0 1.2-2.5 2.6-5.6 2.3-5 2.6-5.5 2.6-5.8 0-0.5-0.3-0.9-0.8-1-0.1 0-0.2 0-0.2 0 0 0-0.1 0-0.2 0" stroke="none" fill="black" fill-rule="evenodd"></path><path fill-opacity="0.950" d="M14.1 5.7c-0.1 0-0.2 0.1-0.3 0.2-0.1 0.1-1.3 2.6-2.7 5.7l-2.6 5.5 0 0.3c0 0.3 0 0.4 0.2 0.6 0.3 0.5 1.1 0.5 1.5 0.1 0.1-0.1 1.1-2.3 2.7-5.7l2.6-5.5 0-0.3c0-0.3 0-0.4-0.2-0.6 0-0.1-0.2-0.2-0.3-0.3-0.3-0.1-0.7-0.1-0.9 0" stroke="none" fill="black" fill-rule="evenodd"></path></svg>