<?xml version="1.0"?><svg xmlns="http://www.w3.org/2000/svg" width="24" height="24" viewBox="0 0 24 24" version="1.1"><rect x="0" y="0" width="24" height="24" fill="#00000000"></rect><path fill-opacity="0.376" d="M4 6l0 1 8 0 8 0 0-1 0-1-8 0-8 0 0 1m3 4.5c-1.1 0.8-2 1.5-2 1.5 0 0 0.9 0.7 2 1.5l2 1.5 0-1.5c0-0.8 0-2.2 0-3l0-1.5-2 1.5m5-0.5l0 1 4 0 4 0 0-1 0-1-4 0-4 0 0 1m0 4l0 1 4 0 4 0 0-1 0-1-4 0-4 0 0 1m-8 4l0 1 8 0 8 0 0-1 0-1-8 0-8 0 0 1" stroke="none" fill="black" fill-rule="evenodd"></path><path fill-opacity="0.428" d="M4 6l0 1 8 0 8 0 0-1 0-1-8 0-8 0 0 1m3 4.5c-1 0.8-1.9 1.5-1.9 1.5 0 0 0.8 0.7 1.9 1.5l2 1.5 0-3c0-1.6 0-3 0-3 0 0-0.9 0.7-2 1.5m5-0.5l0 1 4 0 4 0 0-1 0-1-4 0-4 0 0 1m0 4l0 1 4 0 4 0 0-1 0-1-4 0-4 0 0 1m-8 4l0 1 8 0 8 0 0-1 0-1-8 0-8 0 0 1" stroke="none" fill="black" fill-rule="evenodd"></path><path fill-opacity="0.550" d="M4 6l0 1 8 0 8 0 0-1 0-1-8 0-8 0 0 1m8 4l0 1 4 0 4 0 0-1 0-1-4 0-4 0 0 1m-5 0.5c-1.1 0.8-1.9 1.5-1.9 1.5 0 0 3.8 3 3.9 3 0 0 0-1.4 0-3 0-1.6 0-2.9 0-2.9-0.1 0-0.9 0.6-2 1.4m5 3.5l0 1 4 0 4 0 0-1 0-1-4 0-4 0 0 1m-8 4l0 1 8 0 8 0 0-1 0-1-8 0-8 0 0 1" stroke="none" fill="black" fill-rule="evenodd"></path><path fill-opacity="1.000" d="M4 6l0 1 8 0 8 0 0-1 0-1-8 0-8 0 0 1m8 4l0 1 4 0 4 0 0-1 0-1-4 0-4 0 0 1m-5 0.5c-1.1 0.8-1.9 1.5-1.9 1.5 0 0 0.8 0.7 1.9 1.5l2 1.5 0-1.5c0-0.8 0-2.2 0-3l0-1.5-2 1.5m5 3.5l0 1 4 0 4 0 0-1 0-1-4 0-4 0 0 1m-8 4l0 1 8 0 8 0 0-1 0-1-8 0-8 0 0 1" stroke="none" fill="black" fill-rule="evenodd"></path></svg>