<?xml version="1.0"?><svg xmlns="http://www.w3.org/2000/svg" width="24" height="24" viewBox="0 0 24 24" version="1.1"><rect x="0" y="0" width="24" height="24" fill="#00000000"></rect><path fill-opacity="0.376" d="M4 6l0 1 8 0 8 0 0-1 0-1-8 0-8 0 0 1m1 6l0 3 0.2-0.1c1.3-1 3.8-2.9 3.8-2.9 0 0-2.5-1.9-3.8-2.9l-0.2-0.1 0 3m7-2l0 1 4 0 4 0 0-1 0-1-4 0-4 0 0 1m0 4l0 1 4 0 4 0 0-1 0-1-4 0-4 0 0 1m-8 4l0 1 8 0 8 0 0-1 0-1-8 0-8 0 0 1" stroke="none" fill="black" fill-rule="evenodd"></path><path fill-opacity="0.428" d="M4 6l0 1 8 0 8 0 0-1 0-1-8 0-8 0 0 1m1 6l0 3 2-1.5c1.1-0.8 2-1.5 2-1.5 0 0-0.9-0.7-2-1.5l-2-1.5 0 3m7-2l0 1 4 0 4 0 0-1 0-1-4 0-4 0 0 1m0 4l0 1 4 0 4 0 0-1 0-1-4 0-4 0 0 1m-8 4l0 1 8 0 8 0 0-1 0-1-8 0-8 0 0 1" stroke="none" fill="black" fill-rule="evenodd"></path><path fill-opacity="0.550" d="M4 6l0 1 8 0 8 0 0-1 0-1-8 0-8 0 0 1m8 4l0 1 4 0 4 0 0-1 0-1-4 0-4 0 0 1m-7 2c0 1.6 0 3 0 3 0.1 0 3.9-3 3.9-3 0 0-3.8-2.9-3.9-2.9 0 0 0 1.3 0 2.9m7 2l0 1 4 0 4 0 0-1 0-1-4 0-4 0 0 1m-8 4l0 1 8 0 8 0 0-1 0-1-8 0-8 0 0 1" stroke="none" fill="black" fill-rule="evenodd"></path><path fill-opacity="1.000" d="M4 6l0 1 8 0 8 0 0-1 0-1-8 0-8 0 0 1m8 4l0 1 4 0 4 0 0-1 0-1-4 0-4 0 0 1m-7 2c0 2.5 0 2.9 0.1 2.9 0.1-0.1 3.8-2.9 3.8-2.9 0 0-3.7-2.8-3.8-2.9-0.1 0-0.1 0.4-0.1 2.9m7 2l0 1 4 0 4 0 0-1 0-1-4 0-4 0 0 1m-8 4l0 1 8 0 8 0 0-1 0-1-8 0-8 0 0 1" stroke="none" fill="black" fill-rule="evenodd"></path></svg>