<?xml version="1.0"?><svg xmlns="http://www.w3.org/2000/svg" width="24" height="24" viewBox="0 0 24 24" version="1.1"><rect x="0" y="0" width="24" height="24" fill="#00000000"></rect><path fill-opacity="0.376" d="M10.8 7c-0.2 0.5-0.3 0.9-0.3 1-0.1 0 0.4 0 0.9 0l1 0-1.4 4-1.5 4-1 0-1 0-0.2 0.5c-0.1 0.3-0.2 0.7-0.3 1l-0.2 0.5 3 0 3 0 0.4-1c0.2-0.5 0.3-0.9 0.3-1 0.1 0-0.4 0-0.9 0l-1 0 1.4-4 1.5-4 1 0 1 0 0.2-0.5c0.1-0.3 0.2-0.7 0.3-1l0.2-0.5-3 0-3 0-0.4 1" stroke="none" fill="black" fill-rule="evenodd"></path><path fill-opacity="0.403" d="M10.8 7l-0.3 1 1 0c0.9 0 1 0 0.9 0.1 0 0-0.6 1.8-1.4 3.9-0.8 2.1-1.4 3.9-1.4 3.9-0.1 0.1-0.2 0.1-1.1 0.1l-1 0-0.3 1-0.4 1 3 0 3 0 0.4-1 0.3-1-1 0c-0.9 0-1 0-0.9-0.1 0 0 0.6-1.8 1.4-3.9 0.8-2.1 1.4-3.9 1.4-3.9 0.1-0.1 0.2-0.1 1.1-0.1l1 0 0.3-1 0.4-1-3 0-3 0-0.4 1" stroke="none" fill="black" fill-rule="evenodd"></path><path fill-opacity="0.632" d="M11.1 6.1c0 0.1-0.1 0.6-0.3 1l-0.3 0.9 1 0c0.9 0 1 0 0.9 0.1 0 0-0.6 1.8-1.4 4l-1.4 3.9-1 0-1.1 0-0.3 1c-0.2 0.5-0.3 0.9-0.3 1 0 0 1.3 0 2.9 0l3 0 0.4-1 0.3-1-1 0c-0.9 0-1 0-0.9-0.1 0 0 0.6-1.8 1.4-4l1.4-3.9 1 0 1 0 0.2-0.3c0.2-0.8 0.6-1.6 0.6-1.7 0 0-1.4 0-3 0l-3 0-0.1 0.1" stroke="none" fill="black" fill-rule="evenodd"></path><path fill-opacity="0.971" d="M11.2 6.1c0 0-0.2 0.4-0.4 0.9-0.2 0.5-0.3 0.9-0.3 1 0 0 0.4 0 1 0 0.5 0 0.9 0 0.9 0 0 0.1-0.6 1.9-1.4 4l-1.4 4-1 0-1 0-0.1 0.1c0 0.1-0.2 0.6-0.3 1-0.2 0.5-0.3 0.9-0.3 0.9 0 0 1.3 0 2.9 0l3 0 0.4-1c0.1-0.5 0.3-0.9 0.3-1 0 0-0.4 0-1 0-0.5 0-0.9 0-0.9 0 0-0.1 0.6-1.9 1.4-4l1.4-4 1 0 1 0 0.4-1c0.2-0.5 0.4-1 0.4-1 0 0-1.4 0-3 0-2.4 0-3 0-3 0.1" stroke="none" fill="black" fill-rule="evenodd"></path></svg>