<?xml version="1.0"?><svg xmlns="http://www.w3.org/2000/svg" width="24" height="24" viewBox="0 0 24 24" version="1.1"><rect x="0" y="0" width="24" height="24" fill="#00000000"></rect><path fill-opacity="0.424" d="M8 15l0 7 3.4 0 3.4 0 0.3-0.1c1.4-0.5 2.4-1.5 2.8-2.8 0.1-0.5 0.1-1.6 0-2.1-0.2-0.8-0.8-1.6-1.4-2.1-0.2-0.2-1-0.6-1.1-0.7 0 0 0-0.1 0.1-0.4 0.4-0.6 0.5-1 0.5-1.8 0-0.5-0.1-0.8-0.1-1-0.2-0.8-0.8-1.6-1.4-2.1-0.4-0.3-0.9-0.6-1.4-0.8-0.4-0.1-0.5-0.1-2.7-0.1l-2.4 0 0 7m2-3l0 2 1.2 0c1.4 0 1.5-0.1 1.9-0.4 0.6-0.4 0.9-0.9 0.9-1.6 0-0.9-0.5-1.5-1.3-1.9-0.2-0.1-0.4-0.1-1.5-0.1l-1.2 0 0 2m0 6l0 2 2.2 0c2.5 0 2.4 0 2.9-0.4 0.6-0.4 0.9-0.9 0.9-1.6 0-0.9-0.5-1.5-1.3-1.9-0.3-0.1-0.3-0.1-2.5-0.1l-2.2 0 0 2" stroke="none" fill="black" fill-rule="evenodd"></path><path fill-opacity="0.176" d="M8 15l0 7 3.4 0c3 0 3.4 0 3.6-0.1 1.5-0.5 2.6-1.7 2.9-3.2 0.3-1.3-0.2-2.6-1.1-3.5-0.4-0.4-0.7-0.6-1.1-0.8-0.2-0.1-0.3-0.2-0.3-0.2-0.1 0 0-0.1 0.1-0.2 0.7-1.3 0.7-2.9-0.1-4.1-0.2-0.3-0.7-0.9-1.1-1.1-0.2-0.2-0.7-0.5-1.2-0.6l-0.4-0.2-2.4 0-2.3 0 0 7m2-3l0 2 1 0c0.6 0 1.2 0 1.4-0.1 0.6-0.1 1.1-0.5 1.4-1.1 0.2-0.3 0.2-0.4 0.2-0.8 0-0.4 0-0.5-0.2-0.8-0.2-0.4-0.6-0.8-0.9-1-0.4-0.2-0.7-0.2-1.8-0.2l-1.1 0 0 2m0 6l0 2 2 0c1.3 0 2.2 0 2.4-0.1 0.6-0.1 1.1-0.5 1.4-1.1 0.2-0.3 0.2-0.4 0.2-0.8 0-0.4 0-0.5-0.2-0.8-0.3-0.6-0.8-1-1.4-1.1-0.1-0.1-1.2-0.1-2.3-0.1l-2.1 0 0 2" stroke="none" fill="black" fill-rule="evenodd"></path><path fill-opacity="0.496" d="M8 15l0 7 3.3 0c3.3 0 3.4 0 3.7-0.1 1.4-0.5 2.5-1.5 2.9-2.9 0.1-0.5 0.1-1.5 0-2-0.3-1.1-1.3-2.2-2.3-2.7-0.1 0-0.2-0.1-0.2-0.1 0 0 0-0.2 0.2-0.4 0.3-0.6 0.4-1.1 0.4-1.8 0-0.8-0.1-1.2-0.5-1.9-0.4-0.7-1.1-1.4-1.9-1.7-0.1-0.1-0.4-0.2-0.6-0.3-0.4-0.1-0.5-0.1-2.7-0.1l-2.3 0 0 7m2-3l0 2 1.1 0c1.3 0 1.5 0 2-0.3 1.2-0.8 1.2-2.7-0.1-3.4-0.4-0.3-0.6-0.3-1.9-0.3l-1.1 0 0 2m0 6l0 2 2.1 0c1.7 0 2.2 0 2.4-0.1 1.1-0.3 1.7-1.4 1.4-2.4-0.1-0.5-0.5-1-0.9-1.2-0.4-0.3-0.6-0.3-2.9-0.3l-2.1 0 0 2" stroke="none" fill="black" fill-rule="evenodd"></path><path fill-opacity="0.967" d="M8 15l0 7 3 0c1.7 0 3.2 0 3.5-0.1 2.1-0.2 3.7-2.2 3.4-4.3-0.1-1.4-1.1-2.7-2.3-3.3l-0.3-0.1 0.2-0.3c0.8-1.5 0.6-3.4-0.6-4.6-0.5-0.6-1.1-0.9-1.9-1.2-0.4-0.1-0.5-0.1-2.7-0.1l-2.3 0 0 7m2-3l0 2 1.3 0 1.2 0 0.4-0.2c0.4-0.2 0.8-0.6 0.9-1 0.2-0.2 0.2-0.3 0.2-0.8 0-0.5 0-0.6-0.2-0.8-0.1-0.4-0.6-0.9-1-1l-0.3-0.2-1.2 0-1.3 0 0 2m0 6l0 2 2.3 0 2.2 0 0.3-0.2c0.4-0.1 0.8-0.5 1-0.9 0.2-0.4 0.2-0.4 0.2-0.9 0-0.5 0-0.6-0.2-0.8-0.1-0.4-0.6-0.9-1-1l-0.3-0.2-2.2 0-2.3 0 0 2" stroke="none" fill="black" fill-rule="evenodd"></path></svg>