<?xml version="1.0"?><svg xmlns="http://www.w3.org/2000/svg" width="24" height="24" viewBox="0 0 24 24" version="1.1"><rect x="0" y="0" width="24" height="24" fill="#00000000"></rect><path fill-opacity="0.376" d="M2.5 6l-1.5 2 1 0 1 0 0 4 0 4-1 0-1 0 1.5 2c0.8 1.1 1.5 2 1.5 2 0 0 0.7-0.9 1.5-2l1.5-2-1 0-1 0 0-4 0-4 1 0 1 0-1.5-2c-0.8-1.1-1.5-2-1.5-2 0 0-0.7 0.9-1.5 2m6.5 0l0 1 5 0 5 0 0-1 0-1-5 0-5 0 0 1m0 4l0 1 5 0 5 0 0-1 0-1-5 0-5 0 0 1m0 4l0 1 5 0 5 0 0-1 0-1-5 0-5 0 0 1m0 4l0 1 5 0 5 0 0-1 0-1-5 0-5 0 0 1" stroke="none" fill="black" fill-rule="evenodd"></path><path fill-opacity="0.434" d="M2.5 6l-1.5 2 1 0 1 0 0 4 0 4-1 0-1 0 1.5 2c0.8 1.1 1.5 2 1.5 2 0 0 0.7-0.9 1.5-2l1.5-2-1 0-1 0 0-4 0-4 1 0 1 0-1.5-2c-0.8-1.1-1.5-2-1.5-2 0 0-0.7 0.9-1.5 2m6.5 0l0 1 5 0 5 0 0-1 0-1-5 0-5 0 0 1m0 4l0 1 5 0 5 0 0-1 0-1-5 0-5 0 0 1m0 4l0 1 5 0 5 0 0-1 0-1-5 0-5 0 0 1m0 4l0 1 5 0 5 0 0-1 0-1-5 0-5 0 0 1" stroke="none" fill="black" fill-rule="evenodd"></path><path fill-opacity="0.567" d="M2.5 6c-0.8 1-1.4 1.9-1.4 2-0.1 0 0.4 0 0.9 0l1 0 0 4 0 4-1 0c-0.5 0-0.9 0-0.9 0 0 0.1 2.9 3.9 2.9 3.9 0 0 3-3.8 3-3.9 0 0-0.5 0-1 0l-1 0 0-4 0-4 1 0c0.5 0 1 0 1 0 0-0.1-3-3.9-3-3.9 0 0-0.7 0.8-1.5 1.9m6.5 0l0 1 5 0 5 0 0-1 0-1-5 0-5 0 0 1m0 4l0 1 5 0 5 0 0-1 0-1-5 0-5 0 0 1m0 4l0 1 5 0 5 0 0-1 0-1-5 0-5 0 0 1m0 4l0 1 5 0 5 0 0-1 0-1-5 0-5 0 0 1" stroke="none" fill="black" fill-rule="evenodd"></path><path fill-opacity="1.000" d="M2.5 6l-1.5 2 1 0 1 0 0 4 0 4-1 0-1 0 1.5 2c0.8 1.1 1.5 1.9 1.5 1.9 0 0 0.7-0.8 1.5-1.9l1.5-2-1 0-1 0 0-4 0-4 1 0 1 0-1.5-2c-0.8-1.1-1.5-1.9-1.5-1.9 0 0-0.7 0.8-1.5 1.9m6.5 0l0 1 5 0 5 0 0-1 0-1-5 0-5 0 0 1m0 4l0 1 5 0 5 0 0-1 0-1-5 0-5 0 0 1m0 4l0 1 5 0 5 0 0-1 0-1-5 0-5 0 0 1m0 4l0 1 5 0 5 0 0-1 0-1-5 0-5 0 0 1" stroke="none" fill="black" fill-rule="evenodd"></path></svg>