<?xml version="1.0"?><svg xmlns="http://www.w3.org/2000/svg" width="24" height="24" viewBox="0 0 24 24" version="1.1"><rect x="0" y="0" width="24" height="24" fill="#00000000"></rect><path fill-opacity="0.412" d="M4.9 4.1c-1.1 0.1-2.1 0.5-3 1-0.6 0.4-0.9 0.6-1.4 1.1l-0.5 0.5 0 2.5c0 1.6 0 2.4 0.1 2.1 0.1-1.7 1.1-3.3 2.5-4.2 0.6-0.5 1.6-0.9 2.3-1 0.5-0.1 12.9-0.1 13.7 0 0.7 0 1.3 0.2 2 0.5 1.7 0.9 2.9 2.4 3.3 4.3 0 0.2 0.1 0.4 0.1 0.6 0 0.1 0 0.2 0 0.2 0 0 0-1 0-2.6 0-1.4 0-2.5 0-2.5 0 0.1 0 0.1-0.1 0-0.1-0.2-1-1-1.5-1.3-0.7-0.4-1.6-0.8-2.4-1-1-0.3-0.9-0.3-8.1-0.3-5.2 0-6.7 0-7 0.1m-4.9 5.1c0 1.4 0 2 0 1.3 0-0.7 0-1.9 0-2.6 0-0.7 0-0.1 0 1.3m6 0.8l0 1-1 0-1 0 0 1 0 1 1 0 1 0 0 1 0 1 1 0 1 0 0-1 0-1 1 0 1 0 0-1 0-1-1 0-1 0 0-1 0-1-1 0-1 0 0 1m11.6-0.9c-0.8 0.4-0.8 1.5 0 1.8 0.4 0.2 0.8 0.1 1.1-0.2 0.4-0.3 0.4-1.1 0-1.4-0.3-0.3-0.8-0.4-1.1-0.2m-2 2c-0.8 0.4-0.8 1.5 0 1.8 0.4 0.2 0.8 0.1 1.1-0.2 0.4-0.3 0.4-1.1 0-1.4-0.3-0.3-0.8-0.4-1.1-0.2m4 0c-0.8 0.4-0.8 1.5 0 1.8 0.4 0.2 0.8 0.1 1.1-0.2 0.4-0.3 0.4-1.1 0-1.4-0.3-0.3-0.8-0.4-1.1-0.2m-19.6 3.7l0 2.5 0.4 0.4c1.3 1.3 2.9 2.1 4.7 2.2 0.4 0.1 2.5 0.1 7.2 0.1 7.5 0 7 0 8.1-0.4 1.3-0.4 2.2-1 3.2-1.9l0.5-0.4 0-2.5c0-2.4-0.1-3.1-0.2-2.1 0 0.5-0.2 1.2-0.4 1.8-0.6 1.3-1.8 2.4-3.2 3-0.6 0.3-1.1 0.4-1.7 0.4-0.6 0.1-12.6 0.1-13.2 0-1.5-0.1-2.7-0.7-3.7-1.8-0.9-0.9-1.5-2.2-1.6-3.4-0.1-0.3-0.1 0.3-0.1 2.1m0 0c0 1.4 0 2 0 1.3 0-0.7 0-1.8 0-2.5 0-0.7 0-0.2 0 1.2m17.6-1.7c-0.8 0.4-0.8 1.5 0 1.8 0.4 0.2 0.8 0.1 1.1-0.2 0.4-0.3 0.4-1.1 0-1.4-0.3-0.3-0.8-0.4-1.1-0.2" stroke="none" fill="black" fill-rule="evenodd"></path><path fill-opacity="0.246" d="M5.1 4.1c-1.7 0.1-3.4 0.9-4.7 2.2l-0.4 0.4 0 2.4c0 2.2 0 2.4 0.1 2 0.4-2.5 2.2-4.4 4.8-5 0.3-0.1 0.8-0.1 7.1-0.1 7.5 0 7 0 8 0.4 2 0.6 3.5 2.4 3.9 4.4 0 0.2 0.1 0.5 0.1 0.6 0 0 0 0.1 0 0.1 0.1-0.1 0.1-4.9 0-4.8 0 0-0.2-0.2-0.4-0.4-1.3-1.3-3-2.1-4.8-2.2-0.6-0.1-13.1-0.1-13.7 0m-5.1 5c0 1.3 0 1.9 0 1.2 0-0.7 0-1.7 0-2.4 0-0.7 0-0.1 0 1.2m6 0.9l0 1-1 0-1 0 0 1 0 1 1 0 1 0 0 1 0 1 1 0 1 0 0-1 0-1 1 0 1 0 0-1 0-1-1 0-1 0 0-1 0-1-1 0-1 0 0 1m11.6-0.9c-0.5 0.2-0.8 1-0.4 1.5 0.4 0.5 1.2 0.5 1.6 0 0.2-0.2 0.2-0.3 0.2-0.6 0-0.3 0-0.4-0.2-0.6-0.1-0.1-0.2-0.2-0.3-0.3-0.2-0.1-0.6-0.1-0.9 0m-2 2c-0.5 0.2-0.8 1-0.4 1.5 0.4 0.5 1.2 0.5 1.6 0 0.2-0.2 0.2-0.3 0.2-0.6 0-0.3 0-0.4-0.2-0.6-0.1-0.1-0.2-0.2-0.3-0.3-0.2-0.1-0.6-0.1-0.9 0m4 0c-0.5 0.2-0.8 1-0.4 1.5 0.4 0.5 1.2 0.5 1.6 0 0.2-0.2 0.2-0.3 0.2-0.6 0-0.3 0-0.4-0.2-0.6-0.1-0.1-0.2-0.2-0.3-0.3-0.2-0.1-0.6-0.1-0.9 0m-19.6 3.8l0 2.4 0.4 0.4c1.3 1.3 3 2.1 4.8 2.2 0.8 0.1 12.8 0.1 13.6 0 1.8-0.1 3.5-0.9 4.8-2.2l0.5-0.4 0-2.5c0-1.5-0.1-2.3-0.1-2.3 0 0 0 0.1 0 0.2 0 0-0.1 0.3-0.1 0.5-0.5 2.4-2.5 4.3-5 4.7-0.7 0.1-13.1 0.1-13.8 0-2.6-0.4-4.6-2.4-5-5-0.1-0.4-0.1-0.2-0.1 2m0 0c0 1.3 0 1.9 0 1.2 0-0.7 0-1.7 0-2.4 0-0.7 0-0.1 0 1.2m17.6-1.8c-0.5 0.2-0.8 1-0.4 1.5 0.4 0.5 1.2 0.5 1.6 0 0.2-0.2 0.2-0.3 0.2-0.6 0-0.3 0-0.4-0.2-0.6-0.1-0.1-0.2-0.2-0.3-0.3-0.2-0.1-0.6-0.1-0.9 0" stroke="none" fill="black" fill-rule="evenodd"></path><path fill-opacity="0.637" d="M5.5 4c-1.9 0.2-3.8 1-5.1 2.3l-0.4 0.4 0 2.3c0 2.2 0 2.3 0.1 2 0.2-1.2 0.7-2.3 1.5-3.1 0.7-0.7 1.6-1.3 2.5-1.6 1-0.3 0.7-0.3 7.9-0.3 7.2 0 6.9 0 7.9 0.3 1.9 0.6 3.3 2.1 3.9 4.1 0 0.2 0.1 0.5 0.1 0.7 0 0.1 0.1 0.2 0.1 0.2 0.1 0 0.1-4.7 0-4.6 0 0-0.2-0.2-0.4-0.3-0.9-1-2.3-1.8-3.5-2.1-1.1-0.3-0.7-0.3-7.8-0.3-3.6 0-6.7 0-6.8 0m-5.5 5c0 1.3 0 1.9 0 1.2 0-0.6 0-1.7 0-2.3 0-0.7 0-0.2 0 1.1m6 1l0 1-1 0-1 0 0 1 0 1 1 0 1 0 0 1 0 1 1 0 1 0 0-1 0-1 1 0 1 0 0-1 0-1-1 0-1 0 0-1 0-1-1 0-1 0 0 1m11.8-1c-0.9 0.3-1.1 1.5-0.2 1.9 0.3 0.1 0.5 0.1 0.8 0 0.9-0.5 0.7-1.7-0.3-1.9-0.1 0-0.2 0-0.3 0m-2 2c-0.9 0.3-1.1 1.5-0.2 1.9 0.3 0.1 0.5 0.1 0.8 0 0.9-0.5 0.7-1.7-0.3-1.9-0.1 0-0.2 0-0.3 0m4 0c-0.9 0.3-1.1 1.5-0.2 1.9 0.3 0.1 0.5 0.1 0.8 0 0.9-0.5 0.7-1.7-0.3-1.9-0.1 0-0.2 0-0.3 0m-19.8 4l0 2.3 0.4 0.4c1.3 1.3 3.1 2.1 5 2.2 0.8 0.1 12.4 0.1 13.2 0 1.9-0.1 3.7-0.9 5-2.2l0.5-0.5 0-2.3c0-1.3-0.1-2.3-0.1-2.3 0 0.1-0.1 0.2-0.1 0.4-0.2 1.2-0.8 2.4-1.8 3.3-0.6 0.7-1.3 1.1-2.2 1.4-1 0.3-0.7 0.3-7.9 0.3-7.2 0-6.9 0-7.9-0.3-0.9-0.3-1.6-0.7-2.3-1.4-0.9-0.9-1.5-2-1.7-3.3-0.1-0.3-0.1-0.1-0.1 2m0 0c0 1.3 0 1.8 0 1.2 0-0.7 0-1.7 0-2.4 0-0.6 0-0.1 0 1.2m17.8-2c-0.9 0.3-1.1 1.5-0.2 1.9 0.3 0.1 0.5 0.1 0.8 0 0.9-0.5 0.7-1.7-0.3-1.9-0.1 0-0.2 0-0.3 0" stroke="none" fill="black" fill-rule="evenodd"></path><path fill-opacity="0.951" d="M5.6 4c-2 0.2-3.7 0.9-5.2 2.3l-0.4 0.4 0 2.3c0 2.2 0 2.3 0.1 1.9 0.4-2.4 2.4-4.4 4.9-4.8 0.6-0.1 13.4-0.1 14 0 2.3 0.4 4.1 2 4.8 4.2 0 0.3 0.1 0.6 0.1 0.7 0.1 0.7 0.2 0.1 0.2-2.1 0-1.2-0.1-2.3-0.1-2.2 0 0-0.2-0.2-0.4-0.4-1.3-1.2-2.6-1.9-4.3-2.2-0.4-0.1-1.4-0.1-6.9-0.1-3.6 0-6.6 0-6.8 0m-5.6 5c0 1.3 0 1.8 0 1.2 0-0.7 0-1.7 0-2.4 0-0.6 0-0.1 0 1.2m6 1l0 1-1 0-1 0 0 1 0 1 1 0 1 0 0 1 0 1 1 0 1 0 0-1 0-1 1 0 1 0 0-1 0-1-1 0-1 0 0-1 0-1-1 0-1 0 0 1m11.7-0.9c-0.8 0.2-0.9 1.3-0.2 1.8 0.4 0.2 1 0.1 1.3-0.3 0.5-0.8-0.2-1.8-1.1-1.5m-2 2c-0.8 0.2-0.9 1.3-0.2 1.8 0.4 0.2 1 0.1 1.3-0.3 0.5-0.8-0.2-1.8-1.1-1.5m4 0c-0.8 0.2-0.9 1.3-0.2 1.8 0.4 0.2 1 0.1 1.3-0.3 0.5-0.8-0.2-1.8-1.1-1.5m-19.7 3.9l0 2.3 0.5 0.5c1.2 1.1 2.7 1.8 4.4 2.1 0.6 0.1 13.6 0.1 14.2 0 1.7-0.3 3.2-1 4.4-2.2l0.6-0.5 0-2.3c0-2.1-0.1-2.6-0.2-1.9-0.1 1-0.8 2.4-1.7 3.2-0.7 0.8-1.3 1.1-2.3 1.5-0.9 0.3-0.7 0.3-8.1 0.3-6.8 0-6.8 0-7.2-0.1-1.2-0.4-2.1-0.9-2.9-1.7-0.8-0.9-1.4-2-1.6-3.1-0.1-0.4-0.1-0.3-0.1 1.9m0 0c0 1.3 0 1.8 0 1.2 0-0.7 0-1.7 0-2.4 0-0.6 0-0.1 0 1.2m17.7-1.9c-0.8 0.2-0.9 1.3-0.2 1.8 0.4 0.2 1 0.1 1.3-0.3 0.5-0.8-0.2-1.8-1.1-1.5" stroke="none" fill="black" fill-rule="evenodd"></path></svg>