<?xml version="1.0"?><svg xmlns="http://www.w3.org/2000/svg" width="24" height="24" viewBox="0 0 24 24" version="1.1"><rect x="0" y="0" width="24" height="24" fill="#00000000"></rect><path fill-opacity="0.459" d="M11.1 7.1c-1.6 0.3-3.1 1.4-3.7 2.9-0.3 0.8-0.4 1.1-0.4 2 0 0.9 0.1 1.3 0.4 2 0.6 1.4 1.9 2.5 3.4 2.9l0.2 0 0 1.1 0 1-1.5 0-1.5 0 0 1 0 1 1.5 0 1.5 0 0 1.5 0 1.5 1 0 1 0 0-1.5 0-1.5 1.5 0 1.5 0 0-1 0-1-1.5 0-1.5 0 0-1 0-1.1 0.3-0.1c1.9-0.5 3.4-2.1 3.7-4.1 0-0.5 0-1.4-0.1-1.9-0.5-1.8-1.9-3.2-3.7-3.7-0.5-0.1-1.6-0.1-2.1 0m0.4 2c-0.7 0.1-1.3 0.4-1.7 0.9-0.5 0.6-0.8 1.2-0.8 2 0 0.8 0.3 1.4 0.8 2 0.6 0.7 1.3 1 2.2 1 0.9 0 1.6-0.3 2.2-1 0.5-0.6 0.8-1.2 0.8-2 0-0.9-0.3-1.5-0.9-2.1-0.4-0.4-0.6-0.6-1.1-0.7-0.4-0.2-1.1-0.2-1.5-0.1" stroke="none" fill="black" fill-rule="evenodd"></path><path fill-opacity="0.181" d="M11.5 7c-0.1 0-0.3 0.1-0.5 0.1-0.9 0.2-2.1 0.9-2.8 1.6-1.9 2.3-1.5 5.7 1 7.5 0.4 0.2 0.8 0.4 1.4 0.6l0.4 0.1 0 1.1 0 1-1.5 0-1.5 0 0 1 0 1 1.5 0 1.5 0 0 1.5 0 1.5 1 0 1 0 0-1.5 0-1.5 1.5 0 1.5 0 0-1 0-1-1.5 0-1.5 0 0-1 0-1.1 0.4-0.1c1-0.3 1.8-0.8 2.5-1.7 1.2-1.5 1.4-3.6 0.6-5.3-0.7-1.3-1.9-2.3-3.4-2.7-0.3-0.1-1.4-0.1-1.6-0.1m-0.1 2.1c-0.2 0-0.5 0.1-0.7 0.2-0.3 0.2-0.5 0.3-0.8 0.6-0.6 0.6-0.9 1.3-0.9 2.1 0 0.8 0.3 1.5 0.9 2.1 0.5 0.5 0.9 0.7 1.4 0.8 1.1 0.2 2 0 2.8-0.8 0.6-0.6 0.9-1.3 0.9-2.1 0-0.8-0.3-1.5-0.9-2.1-0.3-0.3-0.5-0.4-0.8-0.6-0.6-0.3-1.3-0.4-1.9-0.2" stroke="none" fill="black" fill-rule="evenodd"></path><path fill-opacity="0.602" d="M11.4 7.1c-1.1 0.1-2.1 0.6-2.9 1.4-2 1.9-2 5.1 0 7 0.6 0.6 1.4 1.1 2.1 1.3l0.4 0.1 0 1 0 1.1-1.5 0-1.5 0 0 1 0 1 1.5 0 1.5 0 0 1.5 0 1.5 1 0 1 0 0-1.5 0-1.5 1.5 0 1.5 0 0-1 0-1-1.5 0-1.5 0 0-1.1 0-1 0.4-0.1c1-0.3 2-1 2.6-1.8 0.7-1 1.1-2.4 1-3.5-0.2-1.2-0.7-2.2-1.5-3-0.8-0.8-1.8-1.3-2.9-1.4-0.5-0.1-0.7-0.1-1.2 0m0 1.9c-1.1 0.3-1.9 1-2.3 2-0.1 0.5-0.1 1.5 0 2 0.3 0.8 1.1 1.6 1.9 1.9 0.3 0.1 0.5 0.1 1 0.1 0.5 0 0.7 0 1-0.1 0.8-0.3 1.6-1.1 1.9-2 0.1-0.5 0.1-1.3 0-1.8-0.3-0.9-1.1-1.7-1.9-2-0.2 0-0.5-0.1-0.9-0.1-0.3 0-0.6 0-0.7 0" stroke="none" fill="black" fill-rule="evenodd"></path><path fill-opacity="0.956" d="M11.5 7.1c-1.2 0.1-2.3 0.6-3.1 1.5-1.3 1.4-1.7 3.4-1 5.3 0.6 1.4 1.9 2.6 3.4 2.9l0.2 0.1 0 1 0 1.1-1.5 0-1.5 0 0 1 0 1 1.5 0 1.5 0 0 1.5 0 1.5 1 0 1 0 0-1.5 0-1.5 1.5 0 1.5 0 0-1 0-1-1.5 0-1.5 0 0-1.1 0-1 0.2-0.1c0.7-0.1 1.6-0.6 2.2-1.2 2.5-2.4 1.9-6.5-1.2-8-0.4-0.3-1.1-0.5-1.6-0.5-0.6-0.1-0.7-0.1-1.1 0m-0.3 2c-1 0.3-1.9 1.1-2.1 2.1-0.1 0.4-0.1 1.1 0 1.5 0.2 1.1 1.1 2 2.1 2.2 0.4 0.1 1.2 0.1 1.6 0 1-0.2 1.9-1.1 2.1-2.2 0.1-0.4 0.1-1 0-1.4-0.2-1.1-1.1-1.9-2.1-2.2-0.4-0.1-1.2-0.1-1.6 0" stroke="none" fill="black" fill-rule="evenodd"></path></svg>