<?xml version="1.0"?><svg xmlns="http://www.w3.org/2000/svg" width="24" height="24" viewBox="0 0 24 24" version="1.1"><rect x="0" y="0" width="24" height="24" fill="#00000000"></rect><path fill-opacity="0.475" d="M14 4l0 1 1.8 0 1.8 0-1.4 1.4-1.4 1.4-0.4-0.2c-1.6-0.9-3.6-0.8-5.1 0.2-1.1 0.7-1.8 1.7-2.2 3-0.1 0.5-0.1 1.9 0 2.4 0.3 1 0.7 1.7 1.4 2.4 1.5 1.4 3.6 1.8 5.5 1 1.5-0.6 2.6-2.1 2.9-3.7 0.2-1.1 0-2.2-0.5-3.2l-0.2-0.5 1.4-1.4 1.4-1.4 0 1.8 0 1.8 1 0 1 0 0-3.5 0-3.5-3.5 0-3.5 0 0 1m-2.5 5.1c-0.7 0.1-1.3 0.4-1.7 0.9-0.5 0.6-0.8 1.2-0.8 2 0 0.8 0.3 1.4 0.8 2 0.6 0.7 1.3 1 2.2 1 0.9 0 1.6-0.3 2.2-1 0.5-0.6 0.8-1.2 0.8-2 0-0.9-0.3-1.5-0.9-2.1-0.4-0.4-0.6-0.6-1.1-0.7-0.4-0.2-1.1-0.2-1.5-0.1" stroke="none" fill="black" fill-rule="evenodd"></path><path fill-opacity="0.156" d="M14 4l0 1 1.8 0 1.8 0-1.4 1.4c-0.8 0.8-1.4 1.4-1.5 1.4 0 0-0.1-0.1-0.2-0.1-0.4-0.2-1-0.5-1.4-0.6-0.6-0.1-1.6-0.1-2.2 0-2.2 0.5-3.8 2.4-3.9 4.7-0.1 1.9 1.1 3.9 2.8 4.7 1.4 0.7 3 0.7 4.4 0 1.7-0.8 2.9-2.8 2.8-4.8-0.1-0.7-0.3-1.7-0.7-2.2 0-0.1-0.1-0.2-0.1-0.2 0-0.1 0.6-0.7 1.4-1.5l1.4-1.4 0 1.8 0 1.8 1 0 1 0 0-3.5 0-3.5-3.5 0-3.5 0 0 1m-2.6 5.1c-0.2 0-0.5 0.1-0.7 0.2-0.5 0.3-1.1 0.8-1.4 1.4-0.4 0.8-0.4 1.8 0 2.7 0.3 0.5 0.9 1.1 1.4 1.3 1.2 0.6 2.5 0.3 3.4-0.6 0.8-0.7 1-1.7 0.8-2.8-0.1-0.5-0.3-0.9-0.8-1.4-0.3-0.3-0.5-0.4-0.8-0.6-0.6-0.3-1.3-0.4-1.9-0.2" stroke="none" fill="black" fill-rule="evenodd"></path><path fill-opacity="0.398" d="M14 4l0 1 1.8 0 1.8 0-1.4 1.4-1.4 1.4-0.6-0.2c-0.7-0.4-1.3-0.6-2.2-0.6-0.6 0-0.8 0.1-1.2 0.2-1.8 0.4-3.2 1.8-3.6 3.6-0.1 0.4-0.2 0.6-0.2 1.2 0 0.6 0.1 0.8 0.2 1.2 0.4 1.7 1.7 3.1 3.4 3.6 2.4 0.7 4.9-0.5 5.9-2.7 0.3-0.7 0.5-1.3 0.5-2.1 0-0.6-0.1-0.8-0.2-1.2 0-0.3-0.2-0.8-0.4-1l-0.2-0.6 1.4-1.4 1.4-1.4 0 1.8 0 1.8 1 0 1 0 0-3.5 0-3.5-3.5 0-3.5 0 0 1m-2.7 5.1c-0.8 0.2-1.6 0.8-2 1.6-0.4 0.8-0.4 2.1 0.1 2.9 0.4 0.6 1 1.1 1.7 1.3 0.3 0.1 0.4 0.1 0.9 0.1 0.5 0 0.6 0 0.9-0.1 0.9-0.3 1.7-1.1 2-2 0.1-0.3 0.1-0.4 0.1-0.9 0-0.9-0.2-1.5-0.9-2.1-0.6-0.6-1.1-0.9-2-0.9-0.3 0-0.6 0-0.8 0.1" stroke="none" fill="black" fill-rule="evenodd"></path><path fill-opacity="0.971" d="M14 4l0 1 1.8 0 1.8 0-1.4 1.4-1.4 1.5-0.3-0.2c-1.2-0.7-3-0.9-4.4-0.3-1 0.4-1.9 1.2-2.5 2.2-0.5 1.1-0.7 2.4-0.4 3.6 0.1 0.4 0.4 1.1 0.7 1.6 0.2 0.4 0.7 0.9 1.2 1.2 1.6 1.3 4.2 1.3 5.9 0 0.4-0.3 0.9-0.8 1.1-1.2 1-1.5 1.1-3.4 0.3-5.1l-0.2-0.5 1.4-1.4 1.4-1.4 0 1.8 0 1.8 1 0 1 0 0-3.5 0-3.5-3.5 0-3.5 0 0 1m-2.9 5.1c-0.5 0.2-0.8 0.4-1.2 0.8-0.7 0.6-0.9 1.3-0.9 2.3 0 0.8 0.3 1.3 0.9 2 0.6 0.5 1.3 0.8 2.1 0.8 0.8 0 1.5-0.3 2.1-0.9 0.6-0.6 0.9-1.1 0.9-1.9 0-1-0.2-1.7-0.9-2.3-0.6-0.6-1.3-0.9-2.1-0.9-0.4 0-0.6 0-0.9 0.1" stroke="none" fill="black" fill-rule="evenodd"></path></svg>