<?xml version="1.0"?><svg xmlns="http://www.w3.org/2000/svg" width="24" height="24" viewBox="0 0 24 24" version="1.1"><rect x="0" y="0" width="24" height="24" fill="#00000000"></rect><path fill-opacity="0.310" d="M5.3 0.5c0.1 0.8 0.3 1.3 1 2.1l0.4 0.4-2.8 0-2.9 0 0 3 0 3 1 0 1 0 0 4 0 4 9 0 9 0 0-4 0-4 1 0 1 0 0-3 0-3-2.9 0-2.8 0 0.4-0.4c0.7-0.8 0.9-1.3 1-2.1l0-0.5-1 0-1 0 0 0.2c0 0.4-0.1 0.6-0.9 1.4-0.4 0.4-0.8 0.8-0.9 0.9-0.3 0.2-0.3 0.2-0.6 0.2-0.3 0-0.4 0-0.5-0.2-0.4-0.2-0.6-0.7-0.4-1.1 0-0.2 0.2-0.4 0.6-0.8l0.6-0.6-2.6 0-2.6 0 0.6 0.5c0.6 0.7 0.7 0.9 0.7 1.3-0.1 0.3-0.2 0.6-0.5 0.8-0.1 0-0.2 0.1-0.5 0.1-0.3 0-0.3 0-0.6-0.2-0.1-0.1-0.5-0.5-0.9-0.9-0.8-0.8-0.9-1-0.9-1.4l0-0.2-1 0-1 0 0 0.5m-2.3 5.5l0 1 9 0 9 0 0-1 0-1-9 0-9 0 0 1m2 6l0 3 3 0 3 0 0-3 0-3-3 0-3 0 0 3m8 0l0 3 3 0 3 0 0-3 0-3-3 0-3 0 0 3" stroke="none" fill="black" fill-rule="evenodd"></path><path fill-opacity="0.216" d="M5.3 0.3c0 0.5 0.2 1.1 0.4 1.4 0 0.2 0.3 0.5 0.6 0.8l0.5 0.5-2.9 0-2.9 0 0 3 0 3 1 0 1 0 0 4 0 4 9 0 9 0 0-4 0-4 1 0 1 0 0-3 0-3-2.9 0-2.9 0 0.5-0.5c0.3-0.3 0.6-0.6 0.6-0.8 0.2-0.3 0.4-0.9 0.4-1.4l0-0.3-1 0-1 0 0 0.2c0 0.4-0.1 0.7-1.1 1.6-0.9 0.9-1 0.9-1.4 0.9-0.5-0.1-0.9-0.5-0.9-0.9 0-0.4 0.1-0.6 0.7-1.2l0.6-0.6-2.6 0-2.6 0 0.6 0.6c0.6 0.6 0.7 0.8 0.7 1.2 0 0.4-0.4 0.8-0.9 0.9-0.4 0-0.5 0-1.4-0.9-0.9-0.9-1.1-1.2-1.1-1.6l0-0.2-1 0-1 0 0 0.3m-2.3 5.7l0 1 9 0 9 0 0-1 0-1-9 0-9 0 0 1m2 6l0 3 3 0 3 0 0-3 0-3-3 0-3 0 0 3m8 0l0 3 3 0 3 0 0-3 0-3-3 0-3 0 0 3" stroke="none" fill="black" fill-rule="evenodd"></path><path fill-opacity="0.333" d="M5.3 0.5c0.1 0.8 0.3 1.3 1 2l0.5 0.5-2.9 0-2.9 0 0 3 0 3 1 0 1 0 0 4 0 4 9 0 9 0 0-4 0-4 1 0 1 0 0-3 0-3-2.9 0-2.9 0 0.5-0.5c0.7-0.7 0.9-1.2 1-2l0-0.5-1 0-1 0 0 0.3c0 0.4-0.1 0.6-1 1.4-0.9 0.9-1 1-1.4 1-0.6 0-1-0.4-1-1 0-0.3 0.1-0.5 0.7-1.1l0.6-0.6-2.6 0-2.6 0 0.6 0.6c0.3 0.3 0.6 0.6 0.6 0.7 0.2 0.4 0.1 0.8-0.2 1.1-0.2 0.3-0.8 0.4-1.1 0.2-0.3-0.1-1.8-1.7-1.9-1.9-0.1-0.1-0.1-0.3-0.1-0.4l0-0.3-1 0-1 0 0 0.5m-2.3 5.5l0 1 9 0 9 0 0-1 0-1-9 0-9 0 0 1m2 6l0 3 3 0 3 0 0-3 0-3-3 0-3 0 0 3m8 0l0 3 3 0 3 0 0-3 0-3-3 0-3 0 0 3" stroke="none" fill="black" fill-rule="evenodd"></path><path fill-opacity="0.978" d="M5.3 0.4c0.1 0.9 0.3 1.4 1.1 2.2l0.4 0.4-2.9 0-2.9 0 0 3 0 3 1 0 1 0 0 4 0 4 9 0 9 0 0-4 0-4 1 0 1 0 0-3 0-3-2.9 0-2.9 0 0.4-0.4c0.8-0.8 1-1.3 1.1-2.2l0-0.4-1 0-1 0 0 0.3c0 0.2 0 0.3-0.1 0.4 0 0.1-0.5 0.6-1 1.1-0.8 0.8-0.8 0.8-1.1 0.9-0.4 0.1-0.9-0.2-1.1-0.6-0.1-0.2-0.1-0.6 0-0.8 0-0.1 0.3-0.4 0.6-0.7l0.6-0.6-2.6 0-2.6 0 0.6 0.6c0.3 0.3 0.6 0.6 0.6 0.7 0.1 0.2 0.1 0.6 0 0.8-0.2 0.4-0.7 0.7-1.1 0.6-0.3-0.1-0.3-0.1-1.1-0.9-0.5-0.5-1-1-1-1.1-0.1-0.1-0.1-0.2-0.1-0.4l0-0.3-1 0-1 0 0 0.4m-2.3 5.6l0 1 9 0 9 0 0-1 0-1-9 0-9 0 0 1m2 6l0 3 3 0 3 0 0-3 0-3-3 0-3 0 0 3m8 0l0 3 3 0 3 0 0-3 0-3-3 0-3 0 0 3" stroke="none" fill="black" fill-rule="evenodd"></path></svg>