<?xml version="1.0"?><svg xmlns="http://www.w3.org/2000/svg" width="24" height="24" viewBox="0 0 24 24" version="1.1"><rect x="0" y="0" width="24" height="24" fill="#00000000"></rect><path fill-opacity="0.424" d="M10.7 2.1c-2.2 0.3-4.2 1.3-5.8 2.8-3 3.1-3.8 7.7-1.9 11.5 1.4 2.7 3.7 4.6 6.6 5.3 1.5 0.4 3.3 0.4 4.8 0 1.7-0.4 3.5-1.4 4.7-2.6 1.3-1.4 2.3-3.2 2.7-5.1 0.4-1.8 0.2-3.9-0.5-5.6-1.3-3.4-4.4-5.9-8-6.3-0.7-0.1-2-0.1-2.6 0m-2.7 4.9c-0.4 0.5-0.9 1.1-1.4 1.5-0.5 0.4-1.4 1.1-2 1.4-0.2 0.1-0.3 0.2-0.4 0.2 0 0 0 0.1 0 0.3-0.2 1-0.2 2.2 0 3.2 0.4 2 1.6 3.9 3.3 5 3.4 2.2 7.8 1.7 10.5-1.3 1.4-1.6 2.1-3.8 2-5.9-0.1-0.6-0.2-1.1-0.3-1.5 0-0.2-0.1-0.2-0.8 0-0.8 0.1-2.4 0.1-3.3 0-1.9-0.2-3.6-0.8-5.2-1.7-0.6-0.3-1.4-0.9-1.8-1.3-0.4-0.3-0.3-0.3-0.6 0.1m0.6 5.1c-0.8 0.4-0.8 1.5 0 1.8 0.4 0.2 0.8 0.1 1.1-0.2 0.4-0.3 0.4-1.1 0-1.4-0.3-0.3-0.8-0.4-1.1-0.2m6 0c-0.8 0.4-0.8 1.5 0 1.8 0.4 0.2 0.8 0.1 1.1-0.2 0.4-0.3 0.4-1.1 0-1.4-0.3-0.3-0.8-0.4-1.1-0.2" stroke="none" fill="black" fill-rule="evenodd"></path><path fill-opacity="0.258" d="M10.7 2.1c-2.4 0.3-4.8 1.6-6.4 3.5-0.4 0.5-0.9 1.3-1.3 2-1.3 2.8-1.3 6 0 8.8 1.5 2.9 4.2 4.9 7.6 5.5 0.5 0.1 2.3 0.1 2.9 0 2.1-0.4 3.9-1.3 5.4-2.7 2.9-2.8 3.8-6.8 2.5-10.6-0.3-0.9-1-2.1-1.6-2.9-1.4-1.7-3.4-2.9-5.4-3.4-1.1-0.3-2.5-0.4-3.7-0.2m-2.7 4.9c-0.4 0.5-1.2 1.4-1.7 1.8-0.5 0.3-1.1 0.7-1.6 1-0.3 0.2-0.5 0.3-0.5 0.3 0 0.1 0 0.3-0.1 0.5-0.4 2.6 0.4 5.2 2.3 7 2.6 2.7 6.6 3.1 9.8 1.2 2.4-1.5 3.9-4.3 3.8-7.2-0.1-0.8-0.3-1.9-0.4-1.8 0 0-0.3 0-0.7 0.1-1 0.1-2.8 0.1-3.8 0-1.5-0.3-2.5-0.6-3.8-1.2-1.1-0.6-1.9-1.1-2.8-1.8-0.1-0.2-0.2-0.2-0.2-0.2 0 0-0.2 0.1-0.3 0.3m0.6 5.1c-0.5 0.2-0.8 1-0.4 1.5 0.4 0.5 1.2 0.5 1.6 0 0.2-0.2 0.2-0.3 0.2-0.6 0-0.3 0-0.4-0.2-0.6-0.1-0.1-0.2-0.2-0.3-0.3-0.2-0.1-0.6-0.1-0.9 0m6 0c-0.5 0.2-0.8 1-0.4 1.5 0.4 0.5 1.2 0.5 1.6 0 0.2-0.2 0.2-0.3 0.2-0.6 0-0.3 0-0.4-0.2-0.6-0.1-0.1-0.2-0.2-0.3-0.3-0.2-0.1-0.6-0.1-0.9 0" stroke="none" fill="black" fill-rule="evenodd"></path><path fill-opacity="0.651" d="M11.2 2c-0.1 0-0.5 0.1-0.8 0.1-2.6 0.4-5.2 2.1-6.7 4.4-2.7 4-2.1 9.5 1.5 12.8 2 1.9 4.8 2.9 7.5 2.7 2.3-0.2 4.5-1.2 6.2-2.8 3.1-3 4-7.8 2-11.7-0.4-0.9-1-1.6-1.7-2.4-1.6-1.7-3.7-2.8-6-3-0.6-0.1-1.6-0.1-2-0.1m-3.2 5c-0.8 1.1-1.9 2.1-3.3 2.8-0.5 0.3-0.5 0.3-0.6 1.1-0.6 4.2 2.3 8.2 6.5 9 0.6 0.1 2.2 0.1 2.8 0 4.2-0.8 7.1-4.7 6.5-9-0.1-0.6-0.2-1.2-0.3-1.2-0.8 0.2-1.6 0.3-2.6 0.3-1.2 0-2-0.1-3.1-0.4-1.8-0.4-3.7-1.4-5.1-2.5-0.3-0.3-0.5-0.4-0.5-0.4-0.1 0-0.2 0.1-0.3 0.3m0.7 5c-0.4 0.2-0.7 0.7-0.7 1.1 0.1 0.3 0.3 0.6 0.6 0.8 0.1 0 0.3 0.1 0.4 0.1 0.1 0 0.3-0.1 0.4-0.1 0.9-0.5 0.7-1.8-0.3-1.9-0.1 0-0.3 0-0.4 0m6 0c-0.4 0.2-0.7 0.7-0.7 1.1 0.1 0.3 0.3 0.6 0.6 0.8 0.1 0 0.3 0.1 0.4 0.1 0.1 0 0.3-0.1 0.4-0.1 0.9-0.5 0.7-1.8-0.3-1.9-0.1 0-0.3 0-0.4 0" stroke="none" fill="black" fill-rule="evenodd"></path><path fill-opacity="0.947" d="M11.3 2c-1.2 0.1-2 0.3-2.9 0.7-1 0.4-1.6 0.7-2.4 1.3-3.1 2.3-4.5 6.2-3.8 10 0.4 1.9 1.3 3.6 2.7 5.1 1.5 1.4 3.5 2.4 5.6 2.8 0.7 0.1 2.3 0.1 3 0 2.9-0.5 5.5-2.2 7-4.7 2.5-4 1.8-9.2-1.6-12.4-1.5-1.4-3.4-2.4-5.4-2.7-0.5 0-1.8-0.1-2.2-0.1m-3.4 5.1c-0.4 0.5-1.2 1.4-1.8 1.8-0.4 0.3-1.3 0.9-1.6 1-0.2 0.1-0.3 0.1-0.3 0.3-0.2 0.7-0.3 2.2-0.1 3 0.4 2.7 2 4.8 4.4 6 1 0.5 2.3 0.8 3.5 0.8 4.4 0 8-3.6 8-8 0-0.7 0-1.1-0.2-1.8-0.1-0.5-0.1-0.5-0.2-0.5-0.7 0.2-2.3 0.3-3.1 0.3-3.1-0.2-5.7-1.2-7.9-3.1l-0.3-0.3-0.4 0.5m0.8 5c-0.8 0.2-0.9 1.3-0.2 1.8 0.4 0.2 1 0.1 1.3-0.3 0.5-0.8-0.2-1.8-1.1-1.5m6 0c-0.8 0.2-0.9 1.3-0.2 1.8 0.4 0.2 1 0.1 1.3-0.3 0.5-0.8-0.2-1.8-1.1-1.5" stroke="none" fill="black" fill-rule="evenodd"></path></svg>