<?xml version="1.0"?><svg xmlns="http://www.w3.org/2000/svg" width="24" height="24" viewBox="0 0 24 24" version="1.1"><rect x="0" y="0" width="24" height="24" fill="#00000000"></rect><path fill-opacity="0.369" d="M11.4 4.1c-0.7 0.2-1.1 0.7-1.3 1.4-0.2 0.7 0 1.5 0.6 2 0.1 0.1 0.2 0.2 0.3 0.2 0 0 0 1.8 0 4.3 0 2.8 0 4.3 0 4.3-0.1 0-0.5 0.4-0.7 0.6-0.9 1.5 0.3 3.4 2 3.1 0.7-0.1 1.2-0.5 1.5-1.1 0.2-0.4 0.2-0.4 0.2-0.9 0-0.4 0-0.5-0.2-0.8-0.1-0.4-0.5-0.8-0.7-0.9-0.1 0-0.1-0.1-0.1-3.7l0-3.6 1.2 0c1.4 0 1.5 0.1 1.9 0.4 0.3 0.2 0.6 0.5 0.8 0.9 0 0.2 0.1 0.4 0.1 1.1 0 0.7 0 0.9 0 0.9-0.1 0-0.5 0.4-0.7 0.6-0.9 1.5 0.3 3.4 2 3.1 0.7-0.1 1.2-0.5 1.5-1.1 0.2-0.4 0.2-0.4 0.2-0.9 0-0.4 0-0.5-0.2-0.8-0.1-0.4-0.5-0.8-0.7-0.9-0.1 0-0.1-0.1-0.1-1 0-1.1-0.1-1.3-0.4-2-0.4-1-1.4-1.8-2.5-2.2-0.3 0-0.5-0.1-1.4-0.1-0.9 0-1 0-0.9-0.1 0.3-0.6 0.3-1.2 0-1.7-0.4-1-1.4-1.4-2.4-1.1" stroke="none" fill="black" fill-rule="evenodd"></path><path fill-opacity="0.279" d="M11.5 4.1c-1 0.2-1.6 1.1-1.5 2.1 0.1 0.5 0.4 1.1 0.8 1.4l0.2 0.1 0 4.3 0 4.3-0.1 0.1c-0.1 0-0.3 0.1-0.4 0.2-0.9 1.1-0.6 2.6 0.7 3.2 0.3 0.2 0.4 0.2 0.8 0.2 0.4 0 0.5 0 0.8-0.2 1.3-0.6 1.6-2.1 0.7-3.2-0.1-0.1-0.3-0.2-0.4-0.2l-0.1-0.1 0-3.7 0-3.6 1.2 0c1.1 0 1.2 0 1.5 0.1 0.5 0.3 0.9 0.7 1.2 1.2 0 0.2 0.1 0.4 0.1 1.1l0 0.9-0.1 0.1c-0.1 0-0.3 0.1-0.4 0.2-0.9 1.1-0.6 2.6 0.7 3.2 0.3 0.2 0.4 0.2 0.8 0.2 0.4 0 0.5 0 0.8-0.2 1.3-0.6 1.6-2.1 0.7-3.2-0.1-0.1-0.3-0.2-0.4-0.2l-0.1-0.1 0-1c0-0.8-0.1-1-0.1-1.3-0.2-0.6-0.5-1.1-0.8-1.5-0.5-0.6-1.1-1-1.9-1.3-0.4-0.2-0.5-0.2-1.5-0.2-0.9 0-1 0-0.9-0.1 0.2-0.5 0.2-0.8 0.2-1.3-0.3-1.1-1.4-1.8-2.5-1.5" stroke="none" fill="black" fill-rule="evenodd"></path><path fill-opacity="0.371" d="M11.6 4.1c-0.8 0.1-1.4 0.8-1.6 1.6-0.1 0.7 0.2 1.5 0.8 1.9l0.2 0.1 0 4.3 0 4.3-0.2 0.1c-0.2 0.2-0.5 0.6-0.7 0.9-0.1 0.4-0.1 1 0 1.4 0.2 0.4 0.4 0.7 0.8 0.9 0.3 0.3 0.6 0.4 1.1 0.4 0.5 0 0.8-0.1 1.1-0.4 0.3-0.2 0.6-0.5 0.8-0.9 0.1-0.4 0.1-1 0-1.4-0.2-0.3-0.5-0.7-0.7-0.9l-0.2-0.1 0-3.7 0-3.6 1.2 0 1.3 0 0.3 0.2c0.5 0.2 0.8 0.5 1 1 0.2 0.3 0.2 0.3 0.2 1.2l0 0.9-0.2 0.1c-0.2 0.2-0.5 0.6-0.7 0.9-0.1 0.4-0.1 1 0 1.4 0.2 0.5 0.7 1 1.3 1.2 0.3 0.1 1 0.1 1.3 0 0.5-0.2 1-0.7 1.2-1.2 0.1-0.4 0.1-1.1 0-1.4-0.2-0.3-0.5-0.7-0.7-0.9l-0.2-0.1 0-1c0-0.8-0.1-1-0.1-1.3-0.4-1.3-1.4-2.4-2.6-2.8-0.5-0.1-1-0.2-1.8-0.2-0.4 0-0.7 0-0.7 0 0 0 0-0.1 0.1-0.3 0.1-0.4 0.1-1 0-1.4-0.2-0.3-0.5-0.7-0.7-0.9-0.5-0.3-1.1-0.4-1.6-0.3" stroke="none" fill="black" fill-rule="evenodd"></path><path fill-opacity="0.973" d="M11.7 4.1c-1.1 0.1-1.8 1.2-1.6 2.2 0 0.5 0.3 1 0.7 1.3l0.2 0.1 0 4.3 0 4.3-0.1 0.1c-0.4 0.2-0.8 0.8-0.8 1.3-0.2 1.1 0.5 2.1 1.6 2.2 1.3 0.3 2.4-0.9 2.2-2.2 0-0.5-0.4-1.1-0.8-1.3l-0.1-0.1 0-3.7 0-3.6 1.2 0c1.2 0 1.4 0 1.8 0.3 0.3 0.2 0.7 0.6 0.9 0.9 0.1 0.3 0.1 0.4 0.1 1.2l0 0.9-0.1 0.1c-0.4 0.2-0.8 0.8-0.8 1.3-0.2 1.1 0.5 2.1 1.6 2.2 1.3 0.3 2.4-0.9 2.2-2.2 0-0.5-0.4-1.1-0.8-1.3-0.1-0.1-0.1-0.1-0.1-1 0-0.8-0.1-1.1-0.1-1.4-0.4-1.4-1.5-2.5-2.9-2.9-0.3 0-0.6-0.1-1.4-0.1l-0.9 0 0.1-0.1c0-0.1 0.1-0.4 0.2-0.7 0-0.3-0.1-0.7-0.2-1.1-0.4-0.8-1.3-1.2-2.1-1" stroke="none" fill="black" fill-rule="evenodd"></path></svg>