<?xml version="1.0"?><svg xmlns="http://www.w3.org/2000/svg" width="24" height="24" viewBox="0 0 24 24" version="1.1"><rect x="0" y="0" width="24" height="24" fill="#00000000"></rect><path fill-opacity="0.337" d="M7 8.4l0 3 0.2 0.4c0.3 1.2 0.9 2.1 1.8 2.8 0.5 0.3 1.1 0.6 1.9 0.8 0.1 0 0.1 0.4 0.1 1.6l0 1.6-1 0-1 0 0 1 0 1 3 0 3 0 0-1 0-1-1 0-1 0 0-1.6 0-1.6 0.4-0.1c0.4-0.1 1.2-0.4 1.6-0.8 0.9-0.6 1.5-1.5 1.8-2.7l0.2-0.4 0-3 0-2.9-5 0-5 0 0 2.9m2 0.9c0 1.8 0 1.8 0.2 2.2 0.5 1.7 2.4 2.5 4.1 1.7 0.7-0.3 1.3-0.9 1.5-1.7l0.2-0.4 0-1.8 0-1.7-3 0-3 0 0 1.7" stroke="none" fill="black" fill-rule="evenodd"></path><path fill-opacity="0.243" d="M7 8.2c0 3 0 3.2 0.3 4 0.3 0.8 0.7 1.4 1.3 2 0.6 0.5 1.4 1 2.2 1.2l0.2 0 0 1.6 0 1.6-1 0-1 0 0 1 0 1 3 0 3 0 0-1 0-1-1 0-1 0 0-1.6c0-1.5 0-1.6 0.1-1.6 0 0 0.2-0.1 0.4-0.1 1.6-0.6 2.7-1.6 3.2-3.1 0.3-0.8 0.3-1 0.3-4l0-2.7-5 0-5 0 0 2.7m2 1.1c0 1.7 0 1.8 0.1 2.2 0.3 0.6 0.9 1.3 1.5 1.7 0.4 0.2 0.8 0.3 1.4 0.3 0.6 0 1-0.1 1.4-0.3 0.6-0.4 1.2-1.1 1.5-1.7 0.1-0.4 0.1-0.5 0.1-2.2l0-1.7-3 0-3 0 0 1.7" stroke="none" fill="black" fill-rule="evenodd"></path><path fill-opacity="0.633" d="M7 8.4c0 2.7 0 2.9 0.1 3.3 0.3 0.9 0.8 1.8 1.4 2.4 0.7 0.6 1.4 1 2.2 1.2l0.3 0.1 0 1.6 0 1.5 1 0 1 0 0-1.5 0-1.6 0.3-0.1c0.5-0.1 1.3-0.5 1.7-0.8 0.7-0.5 1.3-1.3 1.6-2.1 0.4-0.9 0.4-0.8 0.4-4l0-2.8-5 0-5 0 0 2.8m2 0.8c0 1.5 0 1.7 0.1 2.1 0.3 1 1 1.8 2 2.1 0.5 0.2 1.3 0.2 1.8 0 1-0.3 1.7-1.1 2-2.1 0.1-0.4 0.1-0.6 0.1-2.1l0-1.7-3 0-3 0 0 1.7m0 10.3l0 1 3 0 3 0 0-1 0-0.9-3 0-3 0 0 0.9" stroke="none" fill="black" fill-rule="evenodd"></path><path fill-opacity="0.957" d="M7 8c0 1.4 0 2.7 0.1 3 0 0.9 0.4 1.8 0.9 2.5 0.7 0.9 1.6 1.5 2.7 1.8l0.3 0.1 0 1.6 0 1.5 1 0 1 0 0-1.5 0-1.6 0.3-0.1c2-0.5 3.4-2.2 3.6-4.3 0.1-0.3 0.1-1.6 0.1-3l0-2.4-5 0-5 0 0 2.4m2 1.2c0 1.6 0 1.8 0.1 2.2 0.1 0.4 0.3 0.8 0.7 1.2 0.6 0.6 1.3 0.9 2.2 0.9 0.6 0 0.9-0.1 1.4-0.3 0.5-0.2 1.1-0.9 1.3-1.3 0.3-0.6 0.3-0.8 0.3-2.7l0-1.7-3 0-3 0 0 1.7m0 10.3l0 1 3 0 3 0 0-1 0-0.9-3 0-3 0 0 0.9" stroke="none" fill="black" fill-rule="evenodd"></path></svg>