<?xml version="1.0"?><svg xmlns="http://www.w3.org/2000/svg" width="24" height="24" viewBox="0 0 24 24" version="1.1"><rect x="0" y="0" width="24" height="24" fill="#00000000"></rect><path fill-opacity="0.467" d="M17.6 6.6c-0.1 0.2-0.2 0.7-0.3 1.3-0.1 0.6-0.2 1.1-0.2 1.1 0 0.1 0 0.1 0 0.1 0.2 0 0.7 1.1 0.9 1.8 0.2 0.7 0.3 1.1 0.2 1.9 0 1-0.2 1.7-0.6 2.5-1 2-3.1 3.2-5.3 3.2-0.3 0-0.7 0-0.9 0-0.9-0.2-1.8-0.6-2.5-1.1-0.7-0.4-1.6-1.3-1.5-1.4 0-0.1-0.6-0.2-2.2-0.5-0.3 0-0.6-0.1-0.6 0 0 0 0.5 0.8 1.3 1.9 0.8 1.1 2.1 2.1 3.5 2.6 0.5 0.2 1.4 0.4 2 0.5l0.6 0.1 0 0.7 0 0.7-1 0-1 0 0 1 0 1 3 0 3 0 0-1 0-1-1 0-1 0 0-0.8 0-0.8 0.3-0.1c2.6-0.7 4.8-2.8 5.6-5.3 0.6-2 0.5-4.1-0.5-6-0.2-0.6-1.6-2.6-1.7-2.6-0.1 0-0.1 0-0.1 0.2m-6.5 0.5c-1.9 0.3-3.4 1.7-4 3.7-0.1 0.5-0.1 1.9 0 2.4 0.2 0.5 0.4 1.1 0.7 1.6 0.4 0.5 1.1 1.2 1.6 1.5 1.7 1 3.7 0.9 5.3-0.1 2.1-1.4 2.9-4 1.9-6.2-0.6-1.4-1.9-2.5-3.4-2.9-0.5-0.1-1.6-0.1-2.1 0m0.4 2c-0.7 0.1-1.3 0.4-1.7 0.9-0.5 0.6-0.8 1.2-0.8 2 0 0.8 0.3 1.4 0.8 2 0.6 0.7 1.3 1 2.2 1 0.9 0 1.6-0.3 2.2-1 0.5-0.6 0.8-1.2 0.8-2 0-0.9-0.3-1.5-0.9-2.1-0.4-0.4-0.6-0.6-1.1-0.7-0.4-0.2-1.1-0.2-1.5-0.1" stroke="none" fill="black" fill-rule="evenodd"></path><path fill-opacity="0.375" d="M17.6 6.4c0 0-0.4 2.5-0.5 2.7 0 0 0 0 0 0 0.1 0 0.6 0.8 0.8 1.3 0.5 1.4 0.5 2.9 0 4.2-0.5 1.5-1.8 2.8-3.2 3.4-2.2 1-4.8 0.5-6.5-1.1-0.4-0.4-0.8-0.9-0.8-0.9 0-0.1-0.4-0.2-1.4-0.3-0.7-0.2-1.4-0.3-1.4-0.2 0 0 1.2 1.8 1.6 2.3 1.3 1.4 3.4 2.5 5.2 2.7 0.7 0 0.6-0.1 0.6 0.8l0 0.7-1 0-1 0 0 1 0 1 3 0 3 0 0-1 0-1-1 0-1 0 0-0.8 0-0.8 0.2-0.1c2.7-0.7 4.7-2.6 5.6-5.1 0.3-1 0.5-1.6 0.5-2.7 0-1-0.2-1.9-0.6-2.9-0.2-0.7-0.5-1.1-1.3-2.2-0.6-0.9-0.8-1.1-0.8-1m-6.2 0.6c-2.5 0.4-4.3 2.3-4.4 4.8-0.1 1.9 1.1 3.9 2.8 4.7 1.4 0.7 3 0.7 4.4 0 1.7-0.8 2.9-2.8 2.8-4.8-0.1-2.2-1.7-4-3.9-4.6-0.3-0.1-1.4-0.1-1.7-0.1m0 2.1c-0.2 0-0.5 0.1-0.7 0.2-0.5 0.3-1.1 0.8-1.4 1.4-0.4 0.8-0.4 1.8 0 2.7 0.3 0.5 0.9 1.1 1.4 1.3 0.8 0.4 1.8 0.4 2.6 0 0.5-0.2 1.1-0.8 1.4-1.3 0.4-0.9 0.4-1.9 0-2.7-0.1-0.3-0.3-0.5-0.6-0.8-0.3-0.3-0.5-0.4-0.8-0.6-0.6-0.3-1.3-0.4-1.9-0.2" stroke="none" fill="black" fill-rule="evenodd"></path><path fill-opacity="0.447" d="M17.6 6.4c0 0-0.1 0.6-0.2 1.3l-0.3 1.3 0.2 0.3c0.9 1.3 1.2 3.1 0.8 4.7-0.4 1.7-1.6 3.1-3.1 3.9-1 0.5-1.6 0.6-2.7 0.6-0.7 0-0.9 0-1.3-0.1-0.8-0.2-1.5-0.5-2.2-1-0.5-0.3-1.5-1.3-1.4-1.4 0-0.1-2.7-0.6-2.8-0.5 0 0 1 1.5 1.4 1.9 0.5 0.7 1.1 1.3 1.8 1.7 1.1 0.8 2.6 1.3 3.7 1.4l0.5 0 0 0.8 0 0.7-1 0-1 0 0 1 0 1 3 0 3 0 0-1 0-1-1 0-1 0 0-0.8 0-0.9 0.4-0.1c2.3-0.6 4.1-2.1 5.1-4.2 0.6-1.3 0.8-2.3 0.7-3.8 0-1.8-0.5-2.9-1.8-4.9-0.6-0.8-0.8-1-0.8-0.9m-6.2 0.7c-2.1 0.2-3.7 1.7-4.2 3.7-0.1 0.4-0.2 0.6-0.2 1.2 0 0.6 0.1 0.8 0.2 1.2 0.4 1.7 1.7 3.1 3.4 3.6 1.8 0.5 3.6 0 4.9-1.3 1.7-1.7 2-4.3 0.6-6.3-0.4-0.7-1.2-1.3-2-1.7-0.8-0.4-1.9-0.6-2.7-0.4m0 1.9c-1 0.3-2 1.1-2.3 2.1-0.1 0.5-0.1 1.3 0 1.8 0.3 0.9 1.1 1.7 1.9 2 0.3 0.1 0.5 0.1 1 0.1 0.5 0 0.7 0 1-0.1 0.8-0.3 1.6-1.1 1.9-2 0.1-0.5 0.1-1.3 0-1.8-0.3-0.9-1-1.6-1.9-1.9-0.3-0.1-0.4-0.2-0.9-0.2-0.3 0-0.6 0-0.7 0" stroke="none" fill="black" fill-rule="evenodd"></path><path fill-opacity="0.957" d="M17.6 6.4c0 0.2-0.4 2.7-0.4 2.7 0.1 0.1 0.6 1 0.8 1.5 0.2 0.7 0.3 1.2 0.3 2 0 1.5-0.5 2.8-1.6 4-0.9 1-2.2 1.7-3.6 1.9-0.6 0.1-1.6 0-2.1-0.1-1.1-0.2-1.9-0.7-2.8-1.4-0.3-0.3-0.8-0.9-0.8-1 0-0.1-2.7-0.6-2.8-0.5 0 0 0.2 0.3 1.1 1.6 0.9 1.2 1.8 2 3.1 2.6 0.8 0.4 1.8 0.7 2.8 0.8l0.4 0 0 0.8 0 0.7-1 0-1 0 0 1 0 1 3 0 3 0 0-1 0-1-1 0-1 0 0-0.8 0-0.9 0.5-0.1c1.2-0.3 2.2-0.9 3.1-1.7 2.4-2.1 3.2-5.4 2.2-8.5-0.2-0.7-0.6-1.5-1.4-2.6-0.4-0.6-0.7-1-0.7-1 0-0.1-0.1 0-0.1 0m-5.9 0.6c-1.5 0.2-2.8 0.9-3.7 2-0.7 0.9-1.1 2.3-0.9 3.5 0 0.6 0.1 0.8 0.3 1.4 0.8 1.9 2.6 3.1 4.6 3.1 2 0 3.8-1.2 4.6-3.1 0.9-2.2 0.1-4.8-1.9-6.1-0.9-0.5-2.1-0.8-3-0.8m-0.5 2.1c-1 0.3-1.9 1.2-2.1 2.2-0.1 0.4-0.1 1 0 1.4 0.2 1.1 1.1 2 2.1 2.2 0.2 0.1 0.5 0.1 0.8 0.1 0.3 0 0.6 0 0.8-0.1 0.9-0.2 1.7-1 2.1-1.9 0.1-0.4 0.1-1.3 0-1.7-0.2-1.1-1.1-1.9-2.1-2.2-0.4-0.1-1.2-0.1-1.6 0" stroke="none" fill="black" fill-rule="evenodd"></path></svg>