<?xml version="1.0"?><svg xmlns="http://www.w3.org/2000/svg" width="24" height="24" viewBox="0 0 24 24" version="1.1"><rect x="0" y="0" width="24" height="24" fill="#00000000"></rect><path fill-opacity="0.306" d="M21 4.7c-0.3 0.1-0.6 0.2-0.8 0.5-0.3 0.2-9.2 10.8-9.4 11.1-0.2 0.3-0.3 0.6-0.3 1.1 0 0.4 0 0.5 0.2 0.8 0.2 0.4 0.6 0.8 1 1 0.2 0.1 0.3 0.1 0.8 0.1 0.5 0 0.5 0 0.9-0.1 0.1-0.1 0.4-0.3 0.6-0.5 0.2-0.2 8.1-9.7 8.9-10.6 0.5-0.6 0.6-0.9 0.6-1.5 0-0.4 0-0.5-0.2-0.8-0.1-0.3-0.6-0.8-0.9-1-0.3-0.1-0.4-0.1-0.8-0.1-0.2 0-0.5 0-0.6 0m-13.8 4.4c-1.3 0.3-2.2 1.5-2.2 2.9 0 1.7 1.3 3 3 3 2.2 0 3.7-2.3 2.7-4.3-0.6-1.3-2.1-2-3.5-1.6" stroke="none" fill="black" fill-rule="evenodd"></path><path fill-opacity="0.525" d="M21 4.7c-0.4 0.1-0.7 0.3-0.9 0.6-0.1 0.1-2.3 2.6-4.7 5.5-2.9 3.5-4.6 5.5-4.7 5.7-0.5 1-0.1 2.2 0.9 2.7 0.4 0.1 0.4 0.1 0.9 0.1 0.5 0 0.6 0 0.8-0.1 0.2-0.1 0.4-0.3 0.6-0.4 0.5-0.5 9.2-11 9.4-11.3 0.4-0.8 0.2-1.7-0.4-2.3-0.4-0.3-0.8-0.5-1.3-0.5-0.2 0-0.5 0-0.6 0m-13.6 4.4c-0.8 0.1-1.7 0.8-2 1.5-0.6 1.2-0.5 2.5 0.4 3.4 0.4 0.4 0.7 0.7 1.2 0.8 0.3 0.2 0.5 0.2 1 0.2 0.5 0 0.7 0 1-0.2 0.5-0.1 0.8-0.4 1.2-0.8 0.8-0.9 1-2.2 0.5-3.3-0.3-0.6-0.8-1.1-1.4-1.4-0.6-0.3-1.3-0.4-1.9-0.2" stroke="none" fill="black" fill-rule="evenodd"></path><path fill-opacity="0.536" d="M21 4.7c-0.4 0.1-0.6 0.2-0.9 0.5-0.4 0.4-9.2 11-9.4 11.3-0.2 0.4-0.2 0.8-0.2 1.2 0.2 0.7 0.6 1.2 1.2 1.5 0.3 0.1 0.4 0.1 0.8 0.1 0.5 0 0.8-0.1 1.2-0.3 0.2-0.2 8.9-10.5 9.3-11.1 0.3-0.4 0.4-0.6 0.5-1 0.1-0.8-0.4-1.8-1.2-2.1-0.4-0.1-0.9-0.2-1.3-0.1m-13.6 4.4c-0.8 0.1-1.6 0.7-2 1.4-0.3 0.5-0.4 0.9-0.4 1.5 0 0.6 0.1 1 0.4 1.5 0.3 0.6 1.1 1.2 1.8 1.4 0.4 0.1 1.2 0.1 1.6 0 1-0.3 1.7-1 2-2 0.2-0.5 0.2-1.3 0.1-1.8-0.4-1.1-1.3-1.8-2.3-2-0.5-0.1-0.8-0.1-1.2 0" stroke="none" fill="black" fill-rule="evenodd"></path><path fill-opacity="0.949" d="M21 4.7c-0.7 0.2-0.5 0-5.5 6-2.8 3.3-4.6 5.6-4.7 5.8-0.2 0.3-0.2 0.3-0.2 0.9 0 0.5 0 0.5 0.1 0.8 0.2 0.4 0.6 0.8 1 1 0.3 0.1 0.4 0.1 0.8 0.1 0.5 0 0.8-0.1 1.2-0.3 0.3-0.3 9.3-11 9.5-11.5 0.2-0.3 0.2-0.4 0.2-0.8 0.1-0.5 0-0.8-0.3-1.2-0.4-0.6-1.3-1-2.1-0.8m-13.4 4.4c-1.2 0.1-2.1 1-2.5 2.1-0.1 0.4-0.1 1.2 0 1.6 0.2 0.8 0.8 1.5 1.5 1.8 0.5 0.3 0.8 0.4 1.4 0.4 0.3 0 0.6-0.1 0.8-0.1 1-0.3 1.8-1.1 2.1-2.1 0.1-0.4 0.1-1.2 0-1.6-0.4-1.4-1.9-2.4-3.3-2.1" stroke="none" fill="black" fill-rule="evenodd"></path></svg>