<?xml version="1.0"?><svg xmlns="http://www.w3.org/2000/svg" width="24" height="24" viewBox="0 0 24 24" version="1.1"><rect x="0" y="0" width="24" height="24" fill="#00000000"></rect><path fill-opacity="0.306" d="M10.7 2.1c-2.8 0.3-5.4 1.9-7 4.3-2 3-2.3 6.8-0.7 10 1.4 2.7 3.7 4.6 6.6 5.3 1.6 0.4 3.5 0.4 5.1 0 3.2-1 5.7-3.4 6.8-6.5 0.4-1.2 0.5-2 0.5-3.8l0-1.4-5 0-5 0 0 2 0 2 2.8 0 2.8 0-0.1 0.4c-0.4 0.8-0.6 1.2-1.2 1.7-0.8 0.9-1.8 1.4-3 1.7-0.1 0.1-0.5 0.1-0.8 0.1-2.9 0.3-5.5-1.6-6.3-4.3-0.2-1.1-0.2-2.1 0-3.1 0.3-1.1 0.8-2 1.6-2.8 1.2-1.2 3-1.8 4.8-1.7 0.7 0.1 1.3 0.3 2 0.6 0.6 0.3 0.9 0.5 1.4 1l0.3 0.2 1.4-1.4c0.8-0.7 1.4-1.4 1.4-1.4 0-0.1-0.7-0.7-1.1-1-0.7-0.5-1.7-1.1-2.6-1.4-1.4-0.5-3.2-0.7-4.7-0.5" stroke="none" fill="black" fill-rule="evenodd"></path><path fill-opacity="0.299" d="M10.8 2.1c-2.9 0.3-5.6 2-7.2 4.4-2.6 4-2 9.3 1.5 12.7 0.7 0.7 1.5 1.3 2.5 1.8 1.4 0.7 2.6 0.9 4.2 1 0.8 0 1.1 0 1.5-0.1 2.2-0.3 4.3-1.3 5.8-2.8 1.3-1.4 2.2-3 2.6-4.8 0.2-0.8 0.3-1.5 0.3-3l0-1.3-5 0-5 0 0 2 0 2 2.8 0 2.8 0-0.1 0.5c-0.6 1.2-1.6 2.2-2.8 2.8-0.8 0.4-1.4 0.6-2.3 0.7-0.6 0-0.8 0-1.2-0.1-2.6-0.4-4.6-2.2-5.1-4.7 0-0.3-0.1-0.7-0.1-1.2 0-0.5 0.1-0.9 0.1-1.1 0.5-2.5 2.3-4.3 4.8-4.8 0.5-0.1 1.7-0.1 2.2 0 1.1 0.3 2.1 0.8 2.9 1.5l0.3 0.2 1.4-1.4 1.4-1.4-0.2-0.2c-0.8-0.9-2.3-1.8-3.7-2.3-1.4-0.4-2.9-0.6-4.4-0.4" stroke="none" fill="black" fill-rule="evenodd"></path><path fill-opacity="0.508" d="M11.3 2c-1.2 0.2-2.2 0.4-3 0.7-2.7 1.1-4.8 3.3-5.7 6.1-1.2 3.3-0.5 6.9 1.8 9.6 1.1 1.4 2.7 2.5 4.5 3.1 3 1 6 0.6 8.7-1.2 2.4-1.6 4-4.3 4.3-7.3 0.1-0.2 0.1-1 0.1-1.7l0-1.3-5 0-5 0 0 2 0 2 2.8 0 2.8 0 0 0.2c-0.4 1.1-1.4 2.3-2.6 3-1.1 0.6-2.7 0.9-4 0.7-4-0.7-6.2-5-4.3-8.6 1.3-2.7 4.4-3.9 7.2-3 0.8 0.3 1.6 0.7 2.2 1.3l0.2 0.2 1.4-1.4 1.4-1.4-0.2-0.3c-1.5-1.3-3.4-2.3-5.4-2.6-0.5-0.1-1.8-0.1-2.2-0.1" stroke="none" fill="black" fill-rule="evenodd"></path><path fill-opacity="0.967" d="M11.2 2c-2.8 0.3-5.4 1.7-7.1 3.9-2.5 3.3-2.8 7.8-0.6 11.3 1.5 2.5 4.1 4.2 7 4.7 0.7 0.1 2.4 0.1 3 0 0.2 0 0.6-0.1 0.9-0.2 2.5-0.6 4.5-2.1 6-4.3 0.6-0.9 1.1-2.2 1.4-3.3 0.1-0.9 0.2-1.6 0.2-2.9l0-1.2-5 0-5 0 0 2 0 2 2.8 0 2.9 0-0.1 0.1c0 0.1-0.1 0.3-0.3 0.6-1 2-3.1 3.3-5.4 3.3-1.1 0-2.3-0.4-3.2-1-0.5-0.3-1.2-1-1.6-1.5-1.3-1.7-1.5-4.1-0.5-6.1 0.3-0.7 0.6-1 1.2-1.6 0.6-0.6 0.9-0.8 1.5-1.2 1.2-0.5 2.5-0.7 3.7-0.5 1.1 0.2 2.2 0.7 3 1.4 0.1 0.1 0.3 0.3 0.3 0.3 0 0 0.7-0.7 1.4-1.4l1.4-1.4-0.4-0.4c-1.5-1.4-3.3-2.2-5.2-2.5-0.7-0.1-1.7-0.1-2.3-0.1" stroke="none" fill="black" fill-rule="evenodd"></path></svg>