<?xml version="1.0"?><svg xmlns="http://www.w3.org/2000/svg" width="24" height="24" viewBox="0 0 24 24" version="1.1"><rect x="0" y="0" width="24" height="24" fill="#00000000"></rect><path fill-opacity="0.376" d="M10.9 3.1c-1 0.1-1.8 0.3-2.5 0.6-2.7 1.2-4.7 3.7-5.3 6.7-0.1 0.5-0.1 0.6-0.1 5.6l0 5 2.1 0c1.7 0 2.2 0 2.4-0.1 0.7-0.1 1.2-0.7 1.4-1.3 0.1-0.4 0.1-4.7 0-5.1-0.1-0.4-0.3-0.7-0.6-1-0.5-0.4-0.7-0.5-2.2-0.5l-1.1 0 0-0.9c0.1-1 0.1-1.5 0.4-2.3 0.9-2.9 3.6-4.8 6.6-4.8 2.7 0 5.1 1.5 6.2 3.9 0.3 0.6 0.6 1.4 0.7 2 0 0.2 0.1 0.7 0.1 1.2l0 0.9-1.2 0c-1.2 0-1.4 0-1.8 0.3-0.3 0.1-0.7 0.5-0.8 0.8-0.2 0.4-0.2 0.5-0.2 2.9 0 2.5 0 2.6 0.3 3 0.3 0.5 0.7 0.8 1.2 0.9 0.2 0.1 0.7 0.1 2.4 0.1l2.1 0 0-5c0-5 0-5.1-0.1-5.6-0.9-4.3-4.6-7.4-8.9-7.4-0.5 0-0.9 0-1.1 0.1m-5.9 13.9l0 2 1 0 1 0 0-2 0-2-1 0-1 0 0 2m12 0l0 2 1 0 1 0 0-2 0-2-1 0-1 0 0 2" stroke="none" fill="black" fill-rule="evenodd"></path><path fill-opacity="0.214" d="M11 3.1c-0.5 0-1.3 0.2-1.8 0.4-0.6 0.2-1.9 0.8-2.4 1.2-1.8 1.3-3.2 3.3-3.6 5.4-0.2 1-0.2 1.5-0.2 6.3l0 4.6 2.1 0c1.3 0 2.1 0 2.3-0.1 0.6-0.1 1.1-0.5 1.4-1.1l0.2-0.3 0-2.5 0-2.5-0.2-0.3c-0.1-0.4-0.4-0.7-0.7-0.9-0.5-0.3-0.7-0.3-2-0.3l-1.1 0 0-0.7c0-2.2 0.7-3.9 2.2-5.4 0.9-0.9 2.1-1.5 3.5-1.8 0.7-0.1 1.9-0.1 2.6 0 1.4 0.3 2.6 0.9 3.5 1.8 1.5 1.5 2.2 3.2 2.2 5.5l0 0.6-1.1 0c-1.3 0-1.5 0-2 0.3-0.3 0.2-0.6 0.5-0.7 0.9l-0.2 0.3 0 2.5 0 2.5 0.2 0.3c0.2 0.4 0.6 0.8 1 1l0.3 0.2 2.3 0 2.2 0 0-4.6c0-4.8 0-5.3-0.2-6.3-0.4-2.1-1.8-4.1-3.6-5.4-0.5-0.4-1.8-1-2.4-1.2-1.2-0.4-2.5-0.6-3.8-0.4m-6 13.9l0 2 1 0 1 0 0-2 0-2-1 0-1 0 0 2m12 0l0 2 1 0 1 0 0-2 0-2-1 0-1 0 0 2" stroke="none" fill="black" fill-rule="evenodd"></path><path fill-opacity="0.704" d="M11.2 3c-2.3 0.3-4.5 1.4-5.9 3-1.1 1.3-1.9 2.8-2.2 4.5-0.1 0.6-0.1 0.6-0.1 5.5l0 5 2.2 0c2.5 0 2.4 0 2.9-0.4 0.4-0.2 0.6-0.5 0.8-0.9 0.1-0.3 0.1-0.3 0.1-2.7 0-2.4 0-2.4-0.1-2.7-0.3-0.5-0.7-0.9-1.2-1.2-0.2-0.1-0.4-0.1-1.5-0.1l-1.2 0 0-0.8c0-1.3 0.2-2.4 0.8-3.4 1.7-3.3 5.5-4.7 8.9-3.2 1.5 0.6 2.7 1.7 3.5 3.2 0.6 1 0.8 2.1 0.8 3.4l0 0.8-1 0c-1.1 0-1.5 0-1.9 0.2-0.3 0.2-0.7 0.6-0.9 0.9-0.2 0.4-0.2 0.7-0.2 3.1 0 2.2 0 2.2 0.1 2.5 0.2 0.4 0.4 0.7 0.8 0.9 0.5 0.4 0.4 0.4 2.9 0.4l2.2 0 0-5c0-4.9 0-4.9-0.1-5.5-0.7-3.8-3.6-6.7-7.4-7.3-0.6-0.2-1.7-0.2-2.3-0.2m-6.2 14l0 2 1 0 1 0 0-2 0-2-1 0-1 0 0 2m12 0l0 2 1 0 1 0 0-2 0-2-1 0-1 0 0 2" stroke="none" fill="black" fill-rule="evenodd"></path><path fill-opacity="0.946" d="M11.4 3.1c-2.2 0.1-4.2 1-5.8 2.6-1.3 1.3-2.1 2.9-2.5 4.8-0.1 0.6-0.1 0.7-0.1 5.6l0 4.9 2 0c1 0 2.1 0 2.3-0.1 0.4 0 0.8-0.2 1.1-0.5 0.3-0.4 0.5-0.7 0.5-1.1 0.1-0.5 0.1-4.1 0-4.6 0-0.4-0.2-0.7-0.5-1.1-0.5-0.5-0.9-0.6-2.4-0.6l-1 0 0-1c0-1.1 0.1-1.4 0.4-2.2 0.6-1.8 1.8-3.2 3.5-4.1 1-0.5 2-0.7 3.1-0.7 3.3 0 6.1 2.3 6.9 5.6 0 0.3 0.1 0.7 0.1 1.4l0 1-1 0c-0.5 0-1.1 0-1.3 0.1-0.8 0.1-1.5 0.7-1.6 1.6-0.1 0.4-0.1 4.2 0 4.6 0.1 0.9 0.8 1.5 1.6 1.6 0.2 0.1 1.3 0.1 2.3 0.1l2 0 0-4.4c0-2.5 0-4.8 0-5.1-0.2-2.3-1.1-4.3-2.7-5.8-1.1-1.2-2.6-2-4.1-2.4-0.9-0.2-1.9-0.3-2.8-0.2m-6.4 13.9l0 2 1 0 1 0 0-2 0-2-1 0-1 0 0 2m12 0l0 2 1 0 1 0 0-2 0-2-1 0-1 0 0 2" stroke="none" fill="black" fill-rule="evenodd"></path></svg>