<?xml version="1.0"?><svg xmlns="http://www.w3.org/2000/svg" width="24" height="24" viewBox="0 0 24 24" version="1.1"><rect x="0" y="0" width="24" height="24" fill="#00000000"></rect><path fill-opacity="0.310" d="M7 4.8c-0.4 0-1.1 0.2-1.5 0.4-1.3 0.7-2.4 2-2.7 3.4-0.1 0.7-0.1 1.7 0.1 2.4 0.1 0.6 0.4 1.2 0.8 1.7 0.2 0.2 1.9 2 4.3 4.4l4 3.9 4-4.1c3.2-3.2 4.2-4.2 4.4-4.4 0.3-0.5 0.6-1.2 0.7-1.8 0.5-2.5-1-5-3.4-5.8-1.1-0.3-2.3-0.3-3.3 0.1-0.7 0.3-1.2 0.7-1.9 1.3l-0.5 0.6-0.6-0.6c-0.9-0.8-1.6-1.2-2.5-1.5-0.5-0.1-1.5-0.1-1.9 0m0.4 2c-0.4 0-0.7 0.1-1 0.2-1.1 0.6-1.7 1.5-1.7 2.7 0 0.5 0.1 0.9 0.4 1.4 0.2 0.3 0.5 0.7 3.5 3.7l3.4 3.4 3.3-3.4c3-3 3.3-3.4 3.5-3.7 0.3-0.5 0.4-0.8 0.4-1.4 0-1.2-0.6-2.1-1.7-2.7-0.5-0.2-1.5-0.3-2.1-0.2-0.7 0.2-0.9 0.4-2.2 1.7l-1.2 1.2-1.3-1.2c-1-1-1.3-1.3-1.6-1.4-0.5-0.3-1.1-0.4-1.7-0.3" stroke="none" fill="black" fill-rule="evenodd"></path><path fill-opacity="0.449" d="M7.1 4.8c-1.6 0.1-3.1 1.2-3.9 2.7-0.3 0.7-0.5 1.8-0.5 2.5 0.1 0.9 0.4 1.9 0.9 2.6 0.2 0.2 1.9 1.9 4.3 4.4l4.1 4 4-4c2.2-2.2 4.1-4.2 4.2-4.3 1.1-1.5 1.3-3.5 0.5-5.1-0.4-0.9-1.2-1.8-2.1-2.2-1.4-0.8-3.2-0.9-4.6-0.1-0.5 0.2-0.9 0.5-1.5 1.1l-0.5 0.5-0.6-0.5c-0.2-0.3-0.6-0.6-0.8-0.7-0.6-0.5-1.5-0.9-2.4-0.9-0.5-0.1-0.6-0.1-1.1 0m0 2c-1.3 0.3-2.3 1.3-2.4 2.7 0 0.5 0.1 1 0.3 1.6 0.2 0.3 0.4 0.5 3.6 3.7l3.3 3.4 3.4-3.4c3.5-3.5 3.5-3.5 3.8-4.2 0.1-0.5 0.1-1.3-0.1-1.8-0.3-1-0.9-1.6-1.9-1.9-0.7-0.3-1.5-0.2-2.2 0.1-0.4 0.2-0.5 0.3-1.7 1.5l-1.2 1.2-1.3-1.2c-1.2-1.2-1.3-1.3-1.6-1.5-0.7-0.3-1.4-0.4-2-0.2" stroke="none" fill="black" fill-rule="evenodd"></path><path fill-opacity="0.567" d="M7.2 4.8c-1.1 0.1-2.2 0.6-3.1 1.5-0.9 0.9-1.4 2.1-1.4 3.4 0 1.4 0.5 2.4 1.5 3.5 0.3 0.3 2.1 2.2 4.1 4.2l3.7 3.6 3.9-4c2.2-2.2 4.1-4.1 4.3-4.3 1.1-1.4 1.3-3.3 0.6-5-0.7-1.6-2.4-2.8-4.1-2.9-0.7-0.1-1.4 0-2 0.2-0.9 0.2-1.3 0.5-2.2 1.3l-0.5 0.6-0.7-0.6c-0.8-0.8-1.2-1.1-2.1-1.3-0.3-0.1-0.7-0.2-0.9-0.2-0.2 0-0.5-0.1-0.5-0.1-0.1 0-0.3 0-0.6 0.1m-0.1 2c-0.6 0.1-1.1 0.4-1.5 0.8-0.4 0.4-0.7 0.8-0.8 1.4-0.2 0.7-0.1 1.3 0.2 2 0.2 0.4 0.3 0.5 2.7 2.9 1.3 1.4 2.8 2.9 3.3 3.4l1 0.9 0.9-0.9c0.5-0.5 2-2 3.3-3.4 2.4-2.4 2.5-2.5 2.7-2.9 0.3-0.7 0.4-1.3 0.2-2-0.1-0.6-0.4-1-0.8-1.4-0.9-0.9-2.2-1.1-3.4-0.6-0.4 0.2-0.7 0.4-1.9 1.6l-1 1.1-1.2-1.2c-1.3-1.3-1.6-1.5-2.2-1.7-0.4-0.1-1.1-0.1-1.5 0" stroke="none" fill="black" fill-rule="evenodd"></path><path fill-opacity="0.952" d="M7.2 4.8c-1 0-2.1 0.5-2.8 1.2-1.6 1.5-2.1 3.7-1.2 5.7 0.3 0.8 0.4 1 4.7 5.3l4 4 4.1-4c4.3-4.3 4.4-4.4 4.7-5.3 0.4-0.8 0.5-1.6 0.4-2.5-0.1-1.4-0.9-2.8-2.1-3.6-1.7-1.1-3.8-1.2-5.5-0.1-0.2 0.2-0.6 0.5-1 0.8l-0.5 0.6-0.6-0.6c-0.4-0.3-0.8-0.6-1-0.8-0.9-0.6-2-0.8-3.2-0.7m-0.2 2c-1.1 0.2-2 1.2-2.3 2.3-0.1 0.7 0.1 1.6 0.4 2.2 0.1 0.1 1.3 1.4 3.5 3.6l3.3 3.3 3.3-3.3c1.8-1.8 3.4-3.3 3.4-3.4 0.4-0.5 0.6-1.2 0.6-1.8 0-0.5-0.1-0.8-0.3-1.3-0.3-0.6-0.8-1.1-1.4-1.4-1-0.5-2-0.4-2.9 0.2-0.2 0.1-0.8 0.7-1.5 1.3l-1.1 1.2-1.2-1.2c-1.2-1.1-1.5-1.4-2-1.6-0.5-0.2-1.2-0.3-1.8-0.1" stroke="none" fill="black" fill-rule="evenodd"></path></svg>