<?xml version="1.0"?><svg xmlns="http://www.w3.org/2000/svg" width="24" height="24" viewBox="0 0 24 24" version="1.1"><rect x="0" y="0" width="24" height="24" fill="#00000000"></rect><path fill-opacity="0.455" d="M7 2.1c-2.2 0.4-4.1 2-4.7 4.1-0.3 0.9-0.3 0.6-0.3 8.5l0 7.3 7.3 0c6.3 0 7.3 0 7.7-0.1 2.2-0.4 4-2 4.7-4.1 0.3-0.9 0.3-0.9 0.3-5.8 0-4.8 0-4.9-0.3-5.7-0.5-1.9-2-3.4-3.8-4-0.9-0.3-0.9-0.3-5.9-0.3-3.8 0-4.7 0-5 0.1m4.3 3c-3.2 0.3-5.6 2.6-6.2 5.7-0.1 0.6-0.1 1.8 0 2.4 0.3 1.4 0.9 2.7 2 3.7 0.8 0.8 1.6 1.3 2.6 1.7 1.5 0.5 3.1 0.5 4.6 0 1-0.4 1.8-0.9 2.6-1.7 1.4-1.3 2.1-3 2.1-4.9 0-1.5-0.4-2.7-1.2-3.9-0.4-0.6-1.3-1.5-1.9-1.9-1.4-0.9-3-1.3-4.6-1.1m-4.3 7.1c0 0.3 0.1 1 0.3 1.4 0.5 1.5 1.7 2.6 3.1 3.1 1.3 0.5 2.8 0.4 3.9-0.3 1.6-0.8 2.6-2.3 2.7-4l0-0.4-5 0-5 0 0 0.2" stroke="none" fill="black" fill-rule="evenodd"></path><path fill-opacity="0.050" d="M7 2.1c-1.4 0.2-2.8 1.1-3.8 2.3-0.4 0.5-0.8 1.3-0.9 1.9-0.3 0.9-0.3 0.8-0.3 8.5l0 7.2 7.2 0c5 0 7.4 0 7.6-0.1 1.6-0.2 3.1-1.1 4-2.3 0.4-0.5 0.8-1.4 0.9-1.9 0.3-0.9 0.3-1 0.3-5.7 0-4.7 0-4.8-0.3-5.7 0-0.2-0.2-0.6-0.3-0.9-0.9-1.8-2.6-3-4.5-3.3-0.6-0.1-9.2-0.1-9.9 0m4 3c-1.6 0.2-2.7 0.8-3.8 1.8-1.2 1.2-1.9 2.5-2.1 4.2-0.3 1.7 0.2 3.7 1.3 5.1 1.8 2.3 4.8 3.3 7.5 2.5 2.4-0.7 4.3-2.6 4.9-5 0.6-2.5-0.1-5-2-6.8-1-0.9-2-1.5-3.4-1.8-0.6-0.1-1.8-0.1-2.4 0m-4 7.1c0 0.3 0.1 1 0.3 1.4 0.3 1.1 1.1 2 2 2.6 1.4 0.9 3.2 1 4.7 0.4 1.3-0.6 2.3-1.7 2.7-3 0.2-0.4 0.3-1.1 0.3-1.4l0-0.2-5 0-5 0 0 0.2" stroke="none" fill="black" fill-rule="evenodd"></path><path fill-opacity="0.493" d="M7.2 2.1c-0.2 0-0.5 0.1-0.8 0.1-2.3 0.7-4 2.6-4.3 5-0.1 0.4-0.1 1.8-0.1 7.7l0 7.1 7.2 0c7.8 0 7.7 0 8.6-0.3 1-0.3 1.7-0.8 2.4-1.5 0.9-0.9 1.5-2 1.7-3.2 0.1-0.5 0.1-9.5 0-10-0.2-1.2-0.8-2.3-1.7-3.2-0.7-0.7-1.4-1.2-2.4-1.5-0.9-0.3-1-0.3-5.8-0.3-2.5 0-4.6 0-4.8 0.1m3.8 3c-1.3 0.2-2.4 0.6-3.3 1.4-0.1 0.1-0.5 0.4-0.7 0.6-1.8 1.8-2.4 4.4-1.7 6.8 0.3 1.2 0.9 2.2 1.8 3.1 1 0.9 2.1 1.6 3.5 1.9 0.7 0.1 2.1 0.1 2.8 0 1.4-0.3 2.5-1 3.5-1.9 2.8-2.8 2.8-7.2 0-10-1.1-1.1-2.4-1.7-4-1.9-0.4-0.1-1.5-0.1-1.9 0m-4 7.3c0.2 2 1.6 3.7 3.5 4.3 0.3 0.2 1.1 0.3 1.5 0.3 0.4 0 1.2-0.1 1.6-0.3 1.8-0.6 3.2-2.3 3.4-4.3l0-0.4-5 0-5 0 0 0.4" stroke="none" fill="black" fill-rule="evenodd"></path><path fill-opacity="0.970" d="M7.4 2.1c-0.8 0-1.5 0.2-2.2 0.7-1.8 0.9-3 2.6-3.1 4.7-0.1 0.3-0.1 3.1-0.1 7.5l0 7 7 0c4.4 0 7.2 0 7.5-0.1 1.8-0.1 3.2-0.9 4.3-2.4 0.4-0.5 0.8-1.3 1-2 0.2-0.7 0.2-1.4 0.2-5.5 0-4.1 0-4.8-0.2-5.4-0.4-1.7-1.5-3-2.9-3.8-0.8-0.5-1.5-0.7-2.4-0.7-0.6-0.1-8.5-0.1-9.1 0m3.5 3c-3.1 0.5-5.3 2.8-5.8 5.9-0.1 0.6-0.1 1.8 0 2.4 0.5 2.2 1.9 3.9 3.8 4.9 1 0.5 2 0.7 3.1 0.7 0.8 0 1.4-0.1 2.1-0.3 2.6-0.8 4.4-3 4.8-5.7 0.1-0.6 0.1-1.8 0-2.4-0.6-2.8-2.7-4.8-5.5-5.5-0.5-0.1-2-0.1-2.5 0m-3.9 7.2c0.2 1.5 0.9 2.9 2.1 3.8 0.4 0.2 1.1 0.6 1.6 0.7 1.2 0.3 2.4 0.2 3.5-0.3 0.5-0.3 0.9-0.5 1.3-1 0.8-0.7 1.3-1.8 1.4-2.8 0-0.2 0.1-0.4 0.1-0.5l0-0.2-5 0-5 0 0 0.3" stroke="none" fill="black" fill-rule="evenodd"></path></svg>