<?xml version="1.0"?><svg xmlns="http://www.w3.org/2000/svg" width="24" height="24" viewBox="0 0 24 24" version="1.1"><rect x="0" y="0" width="24" height="24" fill="#00000000"></rect><path fill-opacity="0.439" d="M6.5 2.7c-2.4 2.4-2.7 2.7-2.8 3-0.1 0.1-0.2 0.4-0.3 0.6 0 0.1-0.1 0.4-0.1 0.5-0.3 0.6-0.3 0.4-0.3 6.5l0 5.7 3.5 0 3.5 0 0-3.2c0-3.6 0-3.4 0.4-3.9 0.4-0.6 0.9-0.9 1.6-0.9 0.7 0 1.2 0.3 1.6 0.9 0.4 0.5 0.4 0.3 0.4 3.9l0 3.2 3.5 0 3.5 0 0-5.7c0-6.1 0-5.9-0.3-6.5 0-0.1-0.1-0.4-0.1-0.5-0.1-0.2-0.2-0.5-0.3-0.6-0.1-0.3-0.4-0.6-2.8-3l-2.6-2.7-2.9 0-2.9 0-2.6 2.7m5.1-2.2c-0.2 0.1-1 0.8-3.4 3.2-1.7 1.7-3.1 3.1-3.1 3.2-0.1 0.1-0.1 1-0.1 5.1l0 5 1.5 0 1.5 0 0-2.4c0-2.6 0-2.5 0.4-3.3 0.4-1 1.4-1.8 2.5-2.2 0.6-0.1 1.6-0.1 2.2 0 1.1 0.4 2 1.2 2.5 2.2 0.4 0.8 0.4 0.7 0.4 3.3l0 2.4 1.5 0 1.5 0 0-5c0-4.1 0-5-0.1-5.1 0-0.1-1.4-1.5-3.1-3.2-3.3-3.2-3.4-3.3-3.8-3.3-0.1 0-0.3 0-0.4 0.1" stroke="none" fill="black" fill-rule="evenodd"></path><path fill-opacity="0.077" d="M6.5 2.7c-2.9 2.9-2.8 2.8-3.1 3.6 0 0.2-0.2 0.5-0.2 0.8l-0.2 0.3 0 5.8 0 5.8 3.5 0 3.5 0 0-3.2 0-3.2 0.1-0.3c0.4-0.8 1.1-1.3 1.9-1.3 0.8 0 1.5 0.5 1.9 1.3l0.1 0.3 0 3.2 0 3.2 3.5 0 3.5 0 0-5.8 0-5.8-0.2-0.3c0-0.3-0.2-0.6-0.2-0.8-0.3-0.8-0.2-0.7-3.1-3.6l-2.6-2.7-2.9 0-2.9 0-2.6 2.7m5.2-2.3c-0.2 0.1-1 0.8-3.3 3.1-1.7 1.7-3.2 3.2-3.2 3.3l-0.2 0.2 0 5 0 5 1.5 0 1.5 0 0-2.4 0-2.3 0.2-0.5c0.2-0.6 0.4-1 0.7-1.4 0.6-0.6 1.1-1 1.9-1.2 0.4-0.2 0.5-0.2 1.2-0.2 0.7 0 0.8 0 1.2 0.2 1.3 0.4 2.2 1.4 2.7 2.8 0.1 0.3 0.1 0.4 0.1 2.7l0 2.3 1.5 0 1.5 0 0-5c0-4.1 0-5-0.1-5.1-0.1-0.2-6.3-6.3-6.4-6.4-0.3-0.1-0.6-0.2-0.8-0.1" stroke="none" fill="black" fill-rule="evenodd"></path><path fill-opacity="0.576" d="M6.5 2.6c-2.9 2.9-2.8 2.9-3 3.6-0.1 0.2-0.2 0.5-0.2 0.6-0.3 0.6-0.3 0.5-0.3 6.6l0 5.6 3.5 0 3.5 0 0-3.2 0-3.3 0.2-0.3c0.2-0.5 0.5-0.8 0.9-1 0.4-0.2 0.4-0.2 0.9-0.2 0.5 0 0.5 0 0.9 0.2 0.4 0.2 0.7 0.5 0.9 1l0.2 0.3 0 3.3 0 3.2 3.5 0 3.5 0 0-5.6c0-6.1 0-6-0.3-6.6 0-0.1-0.1-0.4-0.2-0.6-0.2-0.7-0.1-0.7-3-3.6l-2.6-2.6-2.9 0-2.9 0-2.6 2.6m5.1-2.2c-0.2 0.1-1.2 1.1-3.4 3.3l-3.1 3.2-0.1 0.3c0 0.2 0 2.4 0 5.1l0 4.7 1.5 0 1.5 0 0-2.3c0-2.3 0-2.4 0.1-2.7 0.5-1.5 1.5-2.5 3-2.9 0.4-0.1 1.4-0.1 1.8 0 0.8 0.2 1.4 0.6 1.9 1.1 0.5 0.5 0.8 1 1.1 1.8 0.1 0.3 0.1 0.4 0.1 2.7l0 2.3 1.5 0 1.5 0 0-4.7c0-2.7 0-4.9 0-5.1l-0.1-0.3-3.1-3.2c-2.2-2.2-3.2-3.2-3.4-3.3-0.2-0.1-0.6-0.1-0.8 0" stroke="none" fill="black" fill-rule="evenodd"></path><path fill-opacity="0.964" d="M6.5 2.6c-2.5 2.6-2.6 2.7-2.8 3.1-0.1 0.2-0.2 0.4-0.3 0.6 0 0.2-0.1 0.5-0.2 0.7l-0.2 0.5 0 5.7 0 5.8 3.5 0 3.5 0 0-3.2c0-3.3 0-3.3 0.2-3.8 0.1-0.2 0.5-0.6 0.8-0.7 0.6-0.4 1.3-0.4 2-0.1 0.2 0.1 0.5 0.5 0.7 0.7 0.1 0.1 0.2 0.3 0.2 0.5 0.1 0.2 0.1 0.5 0.1 3.4l0 3.2 3.5 0 3.5 0 0-5.8 0-5.7-0.1-0.3c-0.3-0.7-0.3-0.9-0.4-1.1-0.2-0.7-0.3-0.8-3-3.5l-2.6-2.6-2.9 0-2.9 0-2.6 2.6m5.1-2.2c-0.1 0.1-1.6 1.6-3.4 3.3l-3.1 3.2-0.1 0.2c0 0.2 0 2.4 0 5.1l0 4.8 1.5 0 1.5 0 0-2.3c0-2.2 0-2.3 0.1-2.7 0.5-1.8 2-3 3.9-3 1.9 0 3.4 1.2 3.9 3 0.1 0.4 0.1 0.5 0.1 2.7l0 2.3 1.5 0 1.5 0 0-4.8c0-2.7 0-4.9 0-5.1l-0.1-0.2-3.1-3.2c-1.8-1.8-3.3-3.2-3.4-3.3-0.2-0.1-0.6-0.1-0.8 0" stroke="none" fill="black" fill-rule="evenodd"></path></svg>