<?xml version="1.0"?><svg xmlns="http://www.w3.org/2000/svg" width="24" height="24" viewBox="0 0 24 24" version="1.1"><rect x="0" y="0" width="24" height="24" fill="#00000000"></rect><path fill-opacity="0.408" d="M7.4 1c-1 0.3-1.9 1-2.3 2l-0.1 0.4 0 8.6 0 8.6 0.1 0.3c0.3 0.9 1.1 1.7 1.9 2l0.4 0.1 4.6 0 4.6 0 0.4-0.1c0.8-0.3 1.6-1.1 1.9-2l0.1-0.3 0-8.6 0-8.6-0.1-0.3c-0.3-0.9-1-1.6-1.9-2l-0.3-0.1-4.6 0c-2.5 0-4.6 0-4.7 0m0.1 2.1c-0.2 0.2-0.2 0.2-0.4 0.4l-0.1 0.3 0 8.2 0 8.3 0.1 0.2c0.1 0.1 0.3 0.3 0.4 0.3l0.2 0.2 4.3 0 4.3 0 0.2-0.2c0.1 0 0.3-0.2 0.4-0.3l0.1-0.2 0-8.3 0-8.3-0.2-0.2c-0.1-0.2-0.2-0.3-0.4-0.4l-0.2-0.1-4.2 0-4.2 0-0.3 0.1m1.1 1c-0.8 0.4-0.8 1.5 0 1.8 0.4 0.2 0.8 0.1 1.1-0.2 0.4-0.3 0.4-1.1 0-1.4-0.3-0.3-0.8-0.4-1.1-0.2m3 0c-0.8 0.4-0.8 1.5 0 1.8 0.4 0.2 0.8 0.1 1.1-0.2 0.4-0.3 0.4-1.1 0-1.4-0.3-0.3-0.8-0.4-1.1-0.2m3 0c-0.8 0.4-0.8 1.5 0 1.8 0.4 0.2 0.8 0.1 1.1-0.2 0.4-0.3 0.4-1.1 0-1.4-0.3-0.3-0.8-0.4-1.1-0.2m-6 3c-0.8 0.4-0.8 1.5 0 1.8 0.5 0.2 1.1 0 1.3-0.5 0.2-0.4 0.1-0.9-0.2-1.1-0.3-0.3-0.8-0.4-1.1-0.2m3 0c-0.8 0.4-0.8 1.5 0 1.8 0.4 0.2 0.8 0.1 1.1-0.2 0.4-0.3 0.4-1.1 0-1.4-0.3-0.3-0.8-0.4-1.1-0.2m3 0c-0.8 0.4-0.8 1.5 0 1.8 0.4 0.2 0.8 0.1 1.1-0.2 0.4-0.3 0.4-1.1 0-1.4-0.3-0.3-0.8-0.4-1.1-0.2m-6 3c-0.8 0.4-0.8 1.5 0 1.8 0.5 0.2 1.1 0 1.3-0.5 0.2-0.4 0.1-0.9-0.2-1.1-0.3-0.3-0.8-0.4-1.1-0.2m0 8c-0.8 0.4-0.8 1.5 0 1.8 0.5 0.2 1.1 0 1.3-0.5 0.2-0.4 0.1-0.9-0.2-1.1-0.3-0.3-0.8-0.4-1.1-0.2m3 0c-0.8 0.4-0.8 1.5 0 1.8 0.4 0.2 0.8 0.1 1.1-0.2 0.4-0.3 0.4-1.1 0-1.4-0.3-0.3-0.8-0.4-1.1-0.2m3 0c-0.8 0.4-0.8 1.5 0 1.8 0.4 0.2 0.8 0.1 1.1-0.2 0.4-0.3 0.4-1.1 0-1.4-0.3-0.3-0.8-0.4-1.1-0.2" stroke="none" fill="black" fill-rule="evenodd"></path><path fill-opacity="0.238" d="M7.4 1.1c-0.2 0-0.5 0.1-0.7 0.2-0.3 0.2-0.5 0.3-0.8 0.6-0.5 0.5-0.7 0.9-0.8 1.4-0.1 0.5-0.1 16.9 0 17.4 0.1 0.5 0.3 0.9 0.8 1.4 0.5 0.5 0.9 0.7 1.4 0.8 0.5 0.1 8.9 0.1 9.4 0 0.5-0.1 0.9-0.3 1.4-0.8 0.4-0.4 0.7-0.9 0.8-1.4 0.1-0.5 0.1-16.9 0-17.4-0.1-0.5-0.3-0.9-0.8-1.4-0.3-0.3-0.5-0.4-0.8-0.6-0.2-0.1-0.6-0.2-0.7-0.2-0.4-0.1-8.9-0.1-9.2 0m0.1 2c-0.1 0.1-0.2 0.2-0.3 0.3l-0.2 0.3 0 8.3 0 8.3 0.2 0.3c0.1 0.1 0.2 0.2 0.3 0.3l0.3 0.1 4.2 0 4.2 0 0.3-0.1c0.1-0.1 0.2-0.2 0.3-0.3l0.2-0.3 0-8.2 0-8.3-0.1-0.3c-0.1-0.1-0.2-0.2-0.3-0.3l-0.3-0.2-4.2 0-4.3 0-0.3 0.1m1.1 1c-0.5 0.2-0.8 1-0.4 1.5 0.4 0.5 1.2 0.5 1.6 0 0.2-0.2 0.2-0.3 0.2-0.6 0-0.3 0-0.4-0.2-0.6-0.1-0.1-0.2-0.2-0.3-0.3-0.2-0.1-0.6-0.1-0.9 0m3 0c-0.5 0.2-0.8 1-0.4 1.5 0.4 0.5 1.2 0.5 1.6 0 0.2-0.2 0.2-0.3 0.2-0.6 0-0.3 0-0.4-0.2-0.6-0.1-0.1-0.2-0.2-0.3-0.3-0.2-0.1-0.6-0.1-0.9 0m3 0c-0.5 0.2-0.8 1-0.4 1.5 0.4 0.5 1.2 0.5 1.6 0 0.2-0.2 0.2-0.3 0.2-0.6 0-0.3 0-0.4-0.2-0.6-0.1-0.1-0.2-0.2-0.3-0.3-0.2-0.1-0.6-0.1-0.9 0m-6 3c-0.5 0.2-0.8 1-0.4 1.5 0.4 0.5 1.2 0.5 1.6 0 0.2-0.2 0.2-0.3 0.2-0.6 0-0.3 0-0.4-0.2-0.6-0.1-0.1-0.2-0.2-0.3-0.3-0.2-0.1-0.6-0.1-0.9 0m3 0c-0.5 0.2-0.8 1-0.4 1.5 0.4 0.5 1.2 0.5 1.6 0 0.2-0.2 0.2-0.3 0.2-0.6 0-0.3 0-0.4-0.2-0.6-0.1-0.1-0.2-0.2-0.3-0.3-0.2-0.1-0.6-0.1-0.9 0m3 0c-0.5 0.2-0.8 1-0.4 1.5 0.4 0.5 1.2 0.5 1.6 0 0.2-0.2 0.2-0.3 0.2-0.6 0-0.3 0-0.4-0.2-0.6-0.1-0.1-0.2-0.2-0.3-0.3-0.2-0.1-0.6-0.1-0.9 0m-6 3c-0.5 0.2-0.8 1-0.4 1.5 0.4 0.5 1.2 0.5 1.6 0 0.2-0.2 0.2-0.3 0.2-0.6 0-0.3 0-0.4-0.2-0.6-0.1-0.1-0.2-0.2-0.3-0.3-0.2-0.1-0.6-0.1-0.9 0m0 8c-0.5 0.2-0.8 1-0.4 1.5 0.4 0.5 1.2 0.5 1.6 0 0.2-0.2 0.2-0.3 0.2-0.6 0-0.3 0-0.4-0.2-0.6-0.1-0.1-0.2-0.2-0.3-0.3-0.2-0.1-0.6-0.1-0.9 0m3 0c-0.5 0.2-0.8 1-0.4 1.5 0.4 0.5 1.2 0.5 1.6 0 0.2-0.2 0.2-0.3 0.2-0.6 0-0.3 0-0.4-0.2-0.6-0.1-0.1-0.2-0.2-0.3-0.3-0.2-0.1-0.6-0.1-0.9 0m3 0c-0.5 0.2-0.8 1-0.4 1.5 0.4 0.5 1.2 0.5 1.6 0 0.2-0.2 0.2-0.3 0.2-0.6 0-0.3 0-0.4-0.2-0.6-0.1-0.1-0.2-0.2-0.3-0.3-0.2-0.1-0.6-0.1-0.9 0" stroke="none" fill="black" fill-rule="evenodd"></path><path fill-opacity="0.644" d="M7.4 1.1c-1.1 0.2-1.9 1-2.3 2l-0.1 0.4 0 8.5c0 8.1 0 8.5 0.1 8.8 0.3 0.8 0.9 1.5 1.6 1.9 0.6 0.3 0.6 0.3 5.3 0.3 3.6 0 4.3 0 4.6-0.1 1.1-0.2 2-1 2.3-2.1 0.1-0.3 0.1-0.7 0.1-8.8 0-8.1 0-8.5-0.1-8.8-0.3-0.8-0.9-1.5-1.6-1.9-0.6-0.3-0.5-0.3-5.3-0.3-3.5 0-4.4 0-4.6 0.1m0.2 2c-0.3 0.1-0.4 0.3-0.5 0.5-0.1 0.2-0.1 1.1-0.1 8.4 0 7.3 0 8.2 0.1 8.4 0.1 0.2 0.2 0.4 0.5 0.5 0.1 0.1 0.3 0.1 4.4 0.1 4.1 0 4.3 0 4.4-0.1 0.3-0.1 0.4-0.3 0.5-0.5 0.1-0.2 0.1-1.1 0.1-8.4 0-7.3 0-8.2-0.1-8.4-0.1-0.2-0.2-0.4-0.5-0.5-0.2-0.1-0.4-0.1-4.4-0.1-4 0-4.2 0-4.4 0.1m1.2 0.9c-0.9 0.3-1.1 1.5-0.2 1.9 0.3 0.1 0.5 0.1 0.8 0 0.9-0.5 0.7-1.7-0.3-1.9-0.1 0-0.2 0-0.3 0m3 0c-0.9 0.3-1.1 1.5-0.2 1.9 0.3 0.1 0.5 0.1 0.8 0 0.9-0.5 0.7-1.7-0.3-1.9-0.1 0-0.2 0-0.3 0m3 0c-0.9 0.3-1.1 1.5-0.2 1.9 0.3 0.1 0.5 0.1 0.8 0 0.9-0.5 0.7-1.7-0.3-1.9-0.1 0-0.2 0-0.3 0m-6 3c-0.9 0.3-1.1 1.5-0.2 1.9 0.3 0.1 0.5 0.1 0.8 0 0.9-0.5 0.7-1.7-0.3-1.9-0.1 0-0.2 0-0.3 0m3 0c-0.9 0.3-1.1 1.5-0.2 1.9 0.3 0.1 0.5 0.1 0.8 0 0.9-0.5 0.7-1.7-0.3-1.9-0.1 0-0.2 0-0.3 0m3 0c-0.9 0.3-1.1 1.5-0.2 1.9 0.3 0.1 0.5 0.1 0.8 0 0.9-0.5 0.7-1.7-0.3-1.9-0.1 0-0.2 0-0.3 0m-6 3c-0.9 0.3-1.1 1.5-0.2 1.9 0.3 0.1 0.5 0.1 0.8 0 0.9-0.5 0.7-1.7-0.3-1.9-0.1 0-0.2 0-0.3 0m0 8c-0.9 0.3-1.1 1.5-0.2 1.9 0.3 0.1 0.5 0.1 0.8 0 0.9-0.5 0.7-1.7-0.3-1.9-0.1 0-0.2 0-0.3 0m3 0c-0.9 0.3-1.1 1.5-0.2 1.9 0.3 0.1 0.5 0.1 0.8 0 0.9-0.5 0.7-1.7-0.3-1.9-0.1 0-0.2 0-0.3 0m3 0c-0.9 0.3-1.1 1.5-0.2 1.9 0.3 0.1 0.5 0.1 0.8 0 0.9-0.5 0.7-1.7-0.3-1.9-0.1 0-0.2 0-0.3 0" stroke="none" fill="black" fill-rule="evenodd"></path><path fill-opacity="0.951" d="M7.6 1.1c-0.9 0.1-1.8 0.7-2.2 1.5-0.4 0.7-0.4 0-0.4 9.1 0 5.2 0 8.4 0 8.6 0.1 0.6 0.3 1 0.5 1.4 0.4 0.6 1 1 1.7 1.2 0.3 0.1 0.6 0.1 4.8 0.1 4.2 0 4.5 0 4.8-0.1 0.9-0.3 1.7-1 2-2l0.2-0.4 0-8.4c0-7.1 0-8.6-0.1-8.8-0.2-1-1-1.8-2-2.1l-0.4-0.2-4.3 0c-2.4 0-4.5 0-4.6 0.1m-0.1 2c-0.2 0.1-0.4 0.4-0.5 0.6 0 0.1 0 3.9 0 8.4l0 8.3 0.2 0.2c0.1 0.1 0.2 0.2 0.3 0.3 0.1 0.1 0.1 0.1 4.5 0.1 4.4 0 4.4 0 4.5-0.1 0.1-0.1 0.2-0.2 0.3-0.3l0.2-0.2 0-8.4 0-8.4-0.2-0.2c-0.1-0.1-0.2-0.2-0.3-0.3l-0.2-0.1-4.3 0c-4.1 0-4.3 0-4.5 0.1m1.2 1c-0.6 0.1-0.9 0.9-0.5 1.5 0.4 0.5 1.2 0.5 1.6 0 0.5-0.8-0.2-1.8-1.1-1.5m3 0c-0.6 0.1-0.9 0.9-0.5 1.5 0.4 0.5 1.2 0.5 1.6 0 0.5-0.8-0.2-1.8-1.1-1.5m3 0c-0.6 0.1-0.9 0.9-0.5 1.5 0.4 0.5 1.2 0.5 1.6 0 0.5-0.8-0.2-1.8-1.1-1.5m-6 3c-0.8 0.2-0.9 1.3-0.2 1.8 0.4 0.2 1 0.1 1.3-0.3 0.5-0.8-0.2-1.8-1.1-1.5m3 0c-0.8 0.2-0.9 1.3-0.2 1.8 0.4 0.2 1 0.1 1.3-0.3 0.5-0.8-0.2-1.8-1.1-1.5m3 0c-0.8 0.2-0.9 1.3-0.2 1.8 0.4 0.2 1 0.1 1.3-0.3 0.5-0.8-0.2-1.8-1.1-1.5m-6 3c-0.8 0.2-0.9 1.3-0.2 1.8 0.4 0.2 1 0.1 1.3-0.3 0.5-0.8-0.2-1.8-1.1-1.5m0 8c-0.8 0.2-0.9 1.3-0.2 1.8 0.4 0.2 1 0.1 1.3-0.3 0.5-0.8-0.2-1.8-1.1-1.5m3 0c-0.8 0.2-0.9 1.3-0.2 1.8 0.4 0.2 1 0.1 1.3-0.3 0.5-0.8-0.2-1.8-1.1-1.5m3 0c-0.8 0.2-0.9 1.3-0.2 1.8 0.4 0.2 1 0.1 1.3-0.3 0.5-0.8-0.2-1.8-1.1-1.5" stroke="none" fill="black" fill-rule="evenodd"></path></svg>