<?xml version="1.0"?><svg xmlns="http://www.w3.org/2000/svg" width="24" height="24" viewBox="0 0 24 24" version="1.1"><rect x="0" y="0" width="24" height="24" fill="#00000000"></rect><path fill-opacity="0.451" d="M11 4.1c-3.2 0.5-5.5 2.9-5.9 6-0.1 0.3-0.1 2.1-0.1 5.2l0 4.7 2 0 2 0 0 1.8c0 1.3 0 1.9 0.1 2l0.1 0.2 1.3 0 1.3 0-0.2-0.1c-0.2-0.1-0.3-0.2-0.4-0.4l-0.2-0.2 0-2.7 0-2.6-2 0-2 0 0-3.6c0-2.1 0-3.7 0.1-4 0.1-1.4 0.8-2.6 2-3.4 0.9-0.7 2.2-1.1 3.4-1 2.4 0.3 4.2 2.1 4.4 4.4 0.1 0.3 0.1 1.9 0.1 4l0 3.6-2 0-2 0 0 2.6 0 2.7-0.2 0.2c-0.1 0.2-0.2 0.3-0.4 0.4l-0.2 0.1 1.3 0 1.3 0 0.1-0.2c0.1-0.1 0.1-0.7 0.1-2l0-1.8 2 0 2 0 0-5c0-5.5 0-5.1-0.4-6.2-0.5-1.6-1.7-3-3.1-3.9-1.4-0.7-3.1-1.1-4.5-0.8" stroke="none" fill="black" fill-rule="evenodd"></path><path fill-opacity="0.343" d="M11.1 4.1c-1 0.1-2 0.4-2.8 0.9-0.5 0.4-0.7 0.5-1.2 1-0.9 0.9-1.5 1.9-1.8 3.1-0.3 0.9-0.3 1.1-0.3 6.2l0 4.7 2 0 2 0 0 1.7c0 1.3 0 1.7 0.1 2l0.1 0.3 1.3 0 1.3 0-0.3-0.1c-0.1-0.1-0.2-0.2-0.3-0.3l-0.2-0.3 0-2.6 0-2.7-2 0-2 0 0-3.7c0-3.9 0-4.1 0.3-4.9 0.4-1.3 1.4-2.4 2.7-3 0.7-0.3 1.2-0.4 2-0.4 0.8 0 1.3 0.1 2 0.4 1.3 0.6 2.3 1.7 2.7 3 0.3 0.8 0.3 0.9 0.3 4.9l0 3.7-2 0-2 0 0 2.7 0 2.6-0.2 0.3c-0.1 0.1-0.2 0.2-0.3 0.3l-0.3 0.1 1.3 0 1.3 0 0.1-0.3c0.1-0.3 0.1-0.7 0.1-2l0-1.7 2 0 2 0 0-4.7c0-5.1 0-5.3-0.3-6.2-0.3-1.2-0.9-2.2-1.8-3.1-0.5-0.5-0.7-0.6-1.2-1-1.4-0.8-3.1-1.1-4.6-0.9" stroke="none" fill="black" fill-rule="evenodd"></path><path fill-opacity="0.174" d="M11.3 4.1c-0.9 0.1-1.7 0.3-2.6 0.7-2.1 1.1-3.4 3.2-3.6 5.5-0.1 0.4-0.1 2.3-0.1 5.1l0 4.6 2 0 2 0 0 1.8c0 1.2 0.1 1.8 0.1 2l0.1 0.2 1.3 0 1.3 0-0.3-0.1c-0.1-0.1-0.2-0.2-0.3-0.3l-0.2-0.3 0-2.6 0-2.7-2 0-2 0 0-3.9 0-3.9 0.2-0.5c0.3-1.2 1-2.2 2-2.8 0.5-0.4 0.9-0.6 1.5-0.7 0.5-0.2 0.6-0.2 1.3-0.2 0.7 0 0.8 0 1.3 0.2 0.6 0.1 1 0.3 1.5 0.7 1 0.6 1.7 1.6 2 2.8l0.2 0.5 0 3.9 0 3.9-2 0-2 0 0 2.7 0 2.6-0.2 0.3c-0.1 0.1-0.2 0.2-0.3 0.3l-0.3 0.1 1.3 0 1.3 0 0.1-0.2c0-0.2 0.1-0.7 0.1-2l0-1.8 2 0 2 0 0-4.9c0-5.4 0-5.2-0.4-6.2-0.6-2.2-2.3-3.8-4.4-4.5-0.9-0.3-2-0.4-2.9-0.3" stroke="none" fill="black" fill-rule="evenodd"></path><path fill-opacity="0.974" d="M11.4 4.1c-1.9 0.1-3.8 1.1-5 2.7-0.8 1-1.2 2.3-1.3 3.7-0.1 0.3-0.1 2.4-0.1 5l0 4.5 2 0 2 0 0 1.8c0 1.3 0.1 1.8 0.1 2l0.1 0.2 1.3 0c1.1 0 1.2 0 1.1-0.1-0.3-0.1-0.4-0.3-0.5-0.5-0.1-0.2-0.1-0.4-0.1-2.8l0-2.6-2 0-2 0 0-3.9c0-3.8 0-4 0.1-4.3 0.7-2.3 2.6-3.8 4.9-3.8 2.3 0 4.1 1.4 4.8 3.7l0.2 0.4 0 4 0 3.9-2 0-2 0 0 2.6c0 2.4 0 2.6-0.1 2.8-0.1 0.2-0.2 0.4-0.5 0.5-0.1 0.1 0 0.1 1.1 0.1l1.3 0 0.1-0.2c0-0.2 0.1-0.7 0.1-2l0-1.8 2 0 2 0 0-4.5c0-4.6 0-5.3-0.2-6.1-0.8-3.4-3.9-5.6-7.4-5.3" stroke="none" fill="black" fill-rule="evenodd"></path></svg>