<?xml version="1.0"?><svg xmlns="http://www.w3.org/2000/svg" width="24" height="24" viewBox="0 0 24 24" version="1.1"><rect x="0" y="0" width="24" height="24" fill="#00000000"></rect><path fill-opacity="0.447" d="M3.3 2.1c-1.2 0.2-2.4 1-2.9 2.2-0.4 0.8-0.4 0.2-0.4 7.7 0 6.3 0 6.7 0.1 7 0.1 0.5 0.5 1.2 0.8 1.5 0.5 0.6 1.2 1.1 2 1.4l0.4 0.1 8.7 0 8.7 0 0.4-0.1c1.4-0.5 2.5-1.6 2.8-2.9 0-0.3 0.1-0.5 0.1-0.5 0.1-0.1 0.1-13.1 0-13 0 0 0 0 0-0.1 0-0.2-0.2-0.7-0.4-1.1-0.4-1-1.4-1.8-2.5-2.2l-0.4-0.1-8.5 0c-4.8 0-8.7 0-8.9 0.1m0.3 2c-0.8 0.1-1.4 0.8-1.6 1.6 0 0.4 0 12.2 0 12.6 0.2 0.8 0.9 1.5 1.7 1.7 0.1 0 0.7 0 1.3 0l1.1 0 0.1-0.4c0.2-0.3 0.4-0.5 4.1-4.2 4.1-4.2 4.1-4.1 4.8-4.4 0.5-0.1 1.3-0.1 1.8 0.1 0.2 0 0.5 0.2 0.7 0.3 0.1 0 1.1 1 2.3 2.2l2.1 2.1 0-5.1c0-4.7 0-5-0.1-5.2-0.2-0.6-0.7-1-1.2-1.3l-0.3-0.1-8.2 0c-4.6 0-8.4 0-8.6 0.1m-3.6 7.9c0 3.6 0 5.1 0 3.3 0-1.8 0-4.8 0-6.6 0-1.8 0-0.3 0 3.3m6.4-6c-1.1 0.3-1.9 1-2.3 2-0.1 0.5-0.1 1.4 0 1.9 0.3 0.9 1.1 1.7 1.9 2 0.3 0.1 0.5 0.1 1 0.1 0.5 0 0.7 0 1-0.1 0.8-0.3 1.6-1.1 1.9-2 0.1-0.5 0.1-1.3 0-1.8-0.3-0.9-1.1-1.7-1.9-2-0.2 0-0.5-0.1-0.9-0.1-0.3 0-0.6 0-0.7 0m0.1 2.1c-0.2 0.2-0.2 0.2-0.4 0.5-0.1 0.2-0.1 0.3-0.1 0.5 0.1 0.3 0.2 0.6 0.5 0.7 0.1 0.2 0.2 0.2 0.5 0.2 0.3 0 0.4 0 0.5-0.2 0.3-0.1 0.4-0.4 0.5-0.7 0-0.2 0-0.3-0.1-0.5-0.2-0.3-0.2-0.3-0.4-0.5-0.2 0-0.4-0.1-0.5-0.1-0.1 0-0.3 0.1-0.5 0.1m9.1 4.9c-0.1 0.1-1.8 1.7-3.6 3.6l-3.5 3.4 5.8 0c3.5 0 5.8 0 6 0 0.7-0.2 1.3-0.7 1.6-1.3l0-0.2-2.6-2.7c-1.5-1.5-2.8-2.7-2.9-2.8-0.2-0.1-0.6-0.1-0.8 0" stroke="none" fill="black" fill-rule="evenodd"></path><path fill-opacity="0.142" d="M3.4 2.1c-0.7 0.1-1.5 0.5-2 0.9-0.6 0.5-0.9 1-1.2 1.8l-0.2 0.5 0 6.7 0 6.6 0.1 0.4c0.5 1.6 1.7 2.7 3.3 2.9 0.4 0.1 16.8 0.1 17.2 0 0.8-0.1 1.6-0.5 2.2-1.1 0.6-0.6 0.9-1.1 1.1-1.8 0-0.3 0.1-0.5 0.1-0.6 0.1-0.1 0.1-12.9 0-12.9 0 0 0 0 0-0.1 0 0-0.1-0.2-0.2-0.5-0.3-1.3-1.3-2.3-2.6-2.7l-0.5-0.2-8.5 0c-4.7 0-8.7 0-8.8 0.1m0.1 2c-0.5 0.1-1 0.5-1.3 1-0.2 0.5-0.2 0.3-0.2 6.9 0 4.4 0 6.2 0.1 6.4 0.1 0.8 0.7 1.4 1.5 1.5 0.2 0.1 0.8 0.1 1.4 0.1l1.1 0 0.2-0.4c0.2-0.4 0.3-0.5 4-4.3 3.6-3.5 4-3.8 4.3-4 0.5-0.3 0.8-0.3 1.4-0.3 0.6 0 0.9 0 1.4 0.3 0.3 0.1 0.6 0.4 2.5 2.3l2.1 2.1 0-5c0-5.2 0-5.2-0.3-5.7-0.2-0.4-0.7-0.8-1.3-0.9-0.4-0.1-16.5-0.1-16.9 0m-3.5 7.9c0 3.6 0 5 0 3.2 0-1.7 0-4.7 0-6.4 0-1.8 0-0.4 0 3.2m6.4-5.9c-0.2 0-0.5 0.1-0.7 0.2-0.3 0.2-0.5 0.3-0.8 0.6-0.6 0.6-0.9 1.3-0.9 2.1 0 0.8 0.3 1.5 0.9 2.1 0.6 0.6 1.3 0.9 2.1 0.9 0.8 0 1.5-0.3 2.1-0.9 0.6-0.6 0.9-1.3 0.9-2.1 0-0.8-0.3-1.5-0.9-2.1-0.3-0.3-0.5-0.4-0.8-0.6-0.6-0.3-1.3-0.4-1.9-0.2m0.2 2c-0.2 0.1-0.3 0.2-0.4 0.3-0.2 0.2-0.2 0.3-0.2 0.6 0 0.3 0 0.4 0.2 0.6 0.5 0.7 1.7 0.4 1.8-0.5 0-0.3 0-0.4-0.1-0.5-0.3-0.5-0.9-0.7-1.3-0.5m9 4.9c-0.1 0.1-1.7 1.6-3.6 3.5l-3.5 3.5 5.8 0c4 0 5.9 0 6.1-0.1 0.7-0.1 1.2-0.5 1.4-1.2l0.1-0.2-2.7-2.7c-1.5-1.5-2.7-2.8-2.8-2.8-0.2-0.1-0.6-0.1-0.8 0" stroke="none" fill="black" fill-rule="evenodd"></path><path fill-opacity="0.545" d="M3.5 2.1c-1 0.1-1.7 0.5-2.4 1.2-0.3 0.3-0.5 0.5-0.7 0.9-0.4 1-0.4 0.3-0.4 7.8 0 7.5 0 6.8 0.5 7.8 0.2 0.5 0.3 0.6 0.7 1 0.5 0.5 1.1 0.9 1.8 1.1l0.4 0.1 8.6 0 8.6 0 0.4-0.1c0.8-0.3 1.4-0.6 1.9-1.2 0.3-0.3 0.5-0.5 0.7-0.9 0.2-0.5 0.3-1 0.3-1.3 0-0.1 0.1-0.2 0.1-0.2 0 0 0.1-2.1 0.1-6.3 0-4.2-0.1-6.3-0.1-6.3 0 0-0.1-0.1-0.1-0.2 0-0.3-0.1-0.8-0.3-1.3-0.5-1-1.5-1.7-2.6-2.1l-0.4-0.1-8.4 0c-4.6 0-8.6 0-8.7 0.1m-0.1 2c-0.5 0.2-0.9 0.5-1.2 1.1l-0.2 0.3 0 6.5 0 6.5 0.2 0.3c0.2 0.4 0.4 0.7 0.7 0.9 0.5 0.3 0.7 0.3 2 0.3l1.2 0 0.1-0.3c0.1-0.2 0.3-0.5 0.5-0.7 0.2-0.2 1.9-2 3.9-3.9 2.6-2.6 3.7-3.6 3.9-3.7 0.4-0.3 0.8-0.4 1.4-0.4 0.5-0.1 0.6 0 1 0.1 0.2 0 0.5 0.2 0.7 0.3 0.2 0.1 1 0.9 2.4 2.2l2 2.1 0-5.1 0-5.1-0.2-0.3c-0.3-0.6-0.7-0.9-1.3-1.1-0.3-0.1-16.7-0.1-17.1 0m-3.4 7.9c0 3.5 0 4.9 0 3.2 0-1.8 0-4.6 0-6.4 0-1.7 0-0.3 0 3.2m6.4-5.9c-0.9 0.2-1.7 0.8-2.1 1.6-0.4 0.8-0.4 1.8 0.1 2.7 0.2 0.5 0.8 1 1.3 1.3 1.2 0.6 2.5 0.3 3.4-0.6 0.6-0.6 0.9-1.2 0.9-2.1 0-0.9-0.3-1.6-1-2.2-0.7-0.7-1.7-0.9-2.6-0.7m0.2 2c-1 0.4-0.7 1.9 0.4 1.9 0.8 0 1.3-1 0.8-1.7-0.2-0.2-0.5-0.3-0.8-0.3-0.1 0-0.3 0-0.4 0.1m9.1 4.9c-0.2 0-1 0.8-3.7 3.5l-3.5 3.5 5.9 0c6.4 0 6.1 0 6.7-0.3 0.3-0.2 0.5-0.5 0.7-0.9l0.2-0.3-2.7-2.7c-1.5-1.5-2.8-2.7-2.9-2.8-0.2-0.1-0.5-0.1-0.7 0" stroke="none" fill="black" fill-rule="evenodd"></path><path fill-opacity="0.964" d="M3.6 2.1c-1.7 0.1-3 1.3-3.5 2.9l-0.1 0.4 0 6.3c0 4 0 6.3 0 6.7 0.2 1.5 1.2 2.8 2.6 3.3 0.7 0.3 0.3 0.3 9.4 0.3 9.1 0 8.7 0 9.4-0.3 1.4-0.5 2.4-1.8 2.5-3.2 0.1-0.2 0.1-0.4 0.1-0.4 0 0 0-2.8 0-6.2 0-4 0-6.1 0-6 0 0 0 0 0-0.2 0-0.2-0.1-0.5-0.2-0.7-0.4-1.6-1.7-2.8-3.4-3-0.6 0-16.3 0-16.8 0.1m-0.2 2c-0.5 0.1-1 0.5-1.2 1-0.2 0.4-0.2 0.3-0.2 7l0 6.4 0.2 0.4c0.2 0.5 0.7 0.9 1.3 1 0.2 0.1 0.6 0.1 1.4 0.1l1.2 0 0.2-0.3c0.1-0.4 0.4-0.7 4-4.2 2.1-2.2 3.9-4 4.1-4.1 0.8-0.5 2-0.6 2.9-0.1 0.3 0.1 0.6 0.3 2.5 2.3l2.2 2.1 0-5c0-5.3 0-5.2-0.2-5.7-0.2-0.2-0.6-0.6-0.8-0.8-0.5-0.2-0.1-0.2-9-0.2-6.7 0-8.4 0-8.6 0.1m-3.4 7.9c0 3.4 0 4.8 0 3.1 0-1.7 0-4.5 0-6.2 0-1.7 0-0.3 0 3.1m6.6-6c-0.4 0.1-0.9 0.3-1.2 0.5-0.3 0.2-0.8 0.7-1 1.1-0.4 0.7-0.5 1.6-0.2 2.4 0.3 0.9 1.1 1.6 2 1.9 0.4 0.1 1.2 0.1 1.6 0 0.7-0.2 1.3-0.6 1.7-1.2 0.6-1 0.6-2.2 0.1-3.2-0.2-0.3-0.7-0.8-1-1-0.5-0.4-1.4-0.5-2-0.5m-0.1 2.1c-0.1 0.1-0.2 0.2-0.3 0.3-0.2 0.2-0.2 0.2-0.2 0.6 0 0.4 0 0.4 0.2 0.6 0.2 0.3 0.4 0.4 0.6 0.4 0.4 0 0.6 0 0.8-0.2 0.3-0.3 0.4-0.5 0.4-0.9 0-0.2-0.1-0.3-0.2-0.5-0.2-0.3-0.5-0.4-0.8-0.4-0.2 0-0.3 0-0.5 0.1m9.1 4.9c-0.2 0.1-1.1 1-3.7 3.6l-3.4 3.4 5.9 0c4.8 0 5.9 0 6.1-0.1 0.7-0.1 1.2-0.7 1.4-1.3 0.1-0.2 0.1-0.4 0.1-0.4 0-0.1 0-0.1 0 0 0 0.2-0.1 0.2-2.7-2.4-2.8-2.8-2.9-2.9-3.3-2.9-0.1 0-0.3 0.1-0.4 0.1" stroke="none" fill="black" fill-rule="evenodd"></path></svg>