<?xml version="1.0"?><svg xmlns="http://www.w3.org/2000/svg" width="24" height="24" viewBox="0 0 24 24" version="1.1"><rect x="0" y="0" width="24" height="24" fill="#00000000"></rect><path fill-opacity="0.329" d="M11 5.2l0 5.2-0.9-0.9-1-0.9-0.7 0.7-0.7 0.7 2.2 2.1 2.1 2.2 2.1-2.2 2.2-2.1-0.7-0.7-0.7-0.7-1 0.9-0.9 0.9 0-5.2 0-5.2-1 0-1 0 0 5.2m-8 5.8l0 8 9 0 9 0 0-8 0-8-3 0-3 0 0 1 0 1 2 0 2 0 0 6 0 6-7 0-7 0 0-6 0-6 2 0 2 0 0-1 0-1-3 0-3 0 0 8" stroke="none" fill="black" fill-rule="evenodd"></path><path fill-opacity="0.199" d="M11 5.2l0 5.2-0.9-0.9-0.9-0.9-0.7 0.7-0.8 0.7 2.2 2.1 2.1 2.2 2.1-2.2 2.1-2.1-0.7-0.7-0.7-0.7-0.9 0.9-0.9 0.9 0-5.2 0-5.2-1 0-1 0 0 5.2m-8 5.8l0 8 9 0 9 0 0-8 0-8-3 0-3 0 0 1 0 1 2 0 2 0 0 6 0 6-7 0-7 0 0-6 0-6 2 0 2 0 0-1 0-1-3 0-3 0 0 8" stroke="none" fill="black" fill-rule="evenodd"></path><path fill-opacity="0.095" d="M11 5.2l0 5.2-0.9-0.9-0.9-0.9-0.7 0.7-0.7 0.7 2.1 2.1c1.1 1.2 2.1 2.2 2.1 2.2 0 0 1-1 2.1-2.2l2.1-2.1-0.7-0.7-0.7-0.7-0.9 0.9-0.9 0.9 0-5.2 0-5.2-1 0-1 0 0 5.2m-8 5.8l0 8 9 0 9 0 0-8 0-8-3 0-3 0 0 1 0 1 2 0 2 0 0 6 0 6-7 0-7 0 0-6 0-6 2 0 2 0 0-1 0-1-3 0-3 0 0 8" stroke="none" fill="black" fill-rule="evenodd"></path><path fill-opacity="1.000" d="M11 5.2l0 5.2-0.9-0.9-0.9-0.9-0.7 0.7-0.7 0.7 2.1 2.1 2.1 2.1 2.1-2.1 2.1-2.1-0.7-0.7-0.7-0.7-0.9 0.9-0.9 0.9 0-5.2 0-5.2-1 0-1 0 0 5.2m-8 5.8l0 8 9 0 9 0 0-8 0-8-3 0-3 0 0 1 0 1 2 0 2 0 0 6 0 6-7 0-7 0 0-6 0-6 2 0 2 0 0-1 0-1-3 0-3 0 0 8" stroke="none" fill="black" fill-rule="evenodd"></path></svg>