<?xml version="1.0"?><svg xmlns="http://www.w3.org/2000/svg" width="24" height="24" viewBox="0 0 24 24" version="1.1"><rect x="0" y="0" width="24" height="24" fill="#00000000"></rect><path fill-opacity="0.376" d="M5.4 3c-1 0.3-1.9 1-2.3 2l-0.1 0.4 0 7 0 7.1 0.2 0.3c0.3 0.6 0.7 1 1.3 1.1 0.4 0.1 14.6 0.1 15 0 0.6-0.1 1-0.5 1.3-1.1l0.2-0.3 0-7 0-7.1-0.1-0.3c-0.3-0.9-1-1.6-1.9-2l-0.3-0.1-6.6 0c-3.6 0-6.6 0-6.7 0m0.1 2.1c-0.2 0.2-0.2 0.2-0.4 0.4l-0.1 0.3 0 4.1 0 4.1 1.6 0c1.4 0 1.7 0 2 0.1 0.5 0.2 0.9 0.5 1.2 1.1 0.2 0.3 0.2 0.4 0.2 1.1l0 0.7 2 0 2 0 0-0.6c0-0.8 0.1-1.1 0.3-1.5 0.3-0.4 0.7-0.7 1.1-0.8 0.3-0.1 0.6-0.1 2-0.1l1.6 0 0-4.1 0-4.2-0.2-0.2c-0.1-0.2-0.2-0.3-0.4-0.4l-0.2-0.1-6.2 0-6.2 0-0.3 0.1" stroke="none" fill="black" fill-rule="evenodd"></path><path fill-opacity="0.277" d="M5.4 3.1c-0.3 0-0.7 0.2-1 0.4-0.4 0.2-0.9 0.8-1.1 1.2-0.3 0.6-0.3 0.3-0.3 7.9l0 6.9 0.2 0.3c0.2 0.4 0.6 0.8 1 1l0.3 0.2 7.3 0c5.3 0 7.4 0 7.6-0.1 0.7-0.1 1.3-0.7 1.5-1.4 0.1-0.2 0.1-1.6 0.1-7 0-7.5 0-7.2-0.3-7.8-0.2-0.5-0.9-1.2-1.3-1.4-0.7-0.3-0.1-0.3-7.3-0.3-3.6 0-6.6 0-6.7 0.1m0.2 2c-0.2 0.1-0.3 0.2-0.4 0.3l-0.2 0.3 0 4.1 0 4.2 1.6 0c1.2 0 1.7 0 1.9 0.1 0.7 0.2 1.3 0.7 1.4 1.5 0.1 0.1 0.1 0.5 0.1 0.8l0 0.6 2 0 2 0 0-0.6c0-0.3 0-0.7 0.1-0.8 0.1-0.8 0.7-1.3 1.4-1.5 0.2-0.1 0.7-0.1 1.9-0.1l1.6 0 0-4.2 0-4.1-0.2-0.3c-0.1-0.1-0.2-0.2-0.4-0.3l-0.2-0.1-6.2 0-6.2 0-0.2 0.1" stroke="none" fill="black" fill-rule="evenodd"></path><path fill-opacity="0.644" d="M5.4 3.1c-1.2 0.2-2.1 1.2-2.3 2.3-0.1 0.3-0.1 1.3-0.1 7.2 0 6.4 0 6.8 0.1 7.1 0.2 0.5 0.7 1 1.3 1.2 0.2 0.1 0.6 0.1 7.6 0.1 7 0 7.4 0 7.6-0.1 0.6-0.2 1.1-0.7 1.3-1.2 0.1-0.3 0.1-0.7 0.1-7.1 0-5.9 0-6.9-0.1-7.2-0.2-1.1-1.1-2.1-2.3-2.3-0.5-0.1-12.8-0.1-13.2 0m0.2 2c-0.3 0.1-0.4 0.3-0.5 0.5-0.1 0.2-0.1 0.7-0.1 4.3l0 4.1 1.7 0c1.6 0 1.7 0 2 0.1 0.4 0.2 0.6 0.4 0.9 0.7 0.3 0.4 0.4 0.7 0.4 1.5l0 0.7 2 0 2 0 0-0.7c0-0.8 0.1-1.1 0.4-1.5 0.3-0.3 0.5-0.5 0.9-0.7 0.3-0.1 0.4-0.1 2-0.1l1.7 0 0-4.1c0-3.9 0-4.1-0.1-4.3-0.1-0.3-0.3-0.4-0.5-0.5-0.2-0.1-0.9-0.1-6.4-0.1-5.9 0-6.2 0-6.4 0.1" stroke="none" fill="black" fill-rule="evenodd"></path><path fill-opacity="0.951" d="M5.6 3c-0.4 0.1-0.9 0.3-1.2 0.5-0.3 0.2-0.8 0.7-1 1-0.4 0.7-0.4 0.2-0.4 7.7 0 4.6 0 6.8 0.1 7.1 0.1 0.9 0.7 1.5 1.6 1.6 0.2 0.1 2.9 0.1 7.3 0.1 4.4 0 7.1 0 7.3-0.1 0.8-0.1 1.4-0.6 1.6-1.4 0.1-0.3 0.1-13.8 0-14.2-0.1-0.5-0.4-1-0.7-1.4-0.4-0.4-0.7-0.5-1.2-0.7l-0.4-0.2-6.4 0c-3.5 0-6.5 0-6.6 0m0 2.1c-0.2 0.1-0.4 0.3-0.5 0.5-0.1 0.1-0.1 0.3-0.1 4.3l0 4.1 1.5 0c0.8 0 1.6 0 1.8 0.1 0.6 0.1 1.2 0.5 1.5 1 0.1 0.4 0.2 0.8 0.2 1.4l0 0.5 2 0 2 0 0-0.5c0-0.6 0.1-1 0.2-1.4 0.3-0.5 0.9-0.9 1.5-1 0.2-0.1 1-0.1 1.8-0.1l1.5 0 0-4.1c0-3.7 0-4.2-0.1-4.3-0.1-0.2-0.2-0.4-0.5-0.5-0.1-0.1-0.3-0.1-6.4-0.1-5.6 0-6.3 0-6.4 0.1" stroke="none" fill="black" fill-rule="evenodd"></path></svg>