<?xml version="1.0"?><svg xmlns="http://www.w3.org/2000/svg" width="24" height="24" viewBox="0 0 24 24" version="1.1"><rect x="0" y="0" width="24" height="24" fill="#00000000"></rect><path fill-opacity="0.439" d="M5.7 7c-0.8 0.2-1.2 0.3-1.7 0.6-1.3 0.7-2.1 1.8-2.5 3.3-0.2 0.4-0.2 1.8 0 2.3 0.4 1.5 1.3 2.6 2.6 3.3 1.5 0.7 3.2 0.7 4.6-0.1 0.2-0.1 0.4-0.2 0.4-0.2 0.1 0 0.4-0.3 0.8-0.7l0.7-0.7-0.7-0.7-0.7-0.7-0.6 0.5c-0.8 0.8-1.3 1.1-2.2 1.1-0.9 0-1.5-0.3-2.2-0.9-1.1-1.2-1.1-3 0-4.2 0.9-0.8 2-1.1 3.1-0.7 0.2 0 0.5 0.2 0.6 0.2 0.1 0.1 1.5 1.4 3.6 3.5 1.8 1.8 3.3 3.3 3.4 3.3 0 0 0.2 0.1 0.4 0.2 1.4 0.8 3.3 0.8 4.7 0 1.3-0.7 2.2-1.8 2.5-3.2 0.1-0.3 0.1-0.6 0.1-1.2 0-0.8 0-0.9-0.1-1.3-0.4-1.2-1-2.1-1.9-2.8-0.4-0.3-1.1-0.6-1.7-0.7-0.4-0.2-0.6-0.2-1.2-0.2-0.7 0-0.9 0-1.3 0.2-0.3 0-0.7 0.2-1 0.3-0.3 0.2-0.5 0.3-0.5 0.3-0.1 0-0.4 0.3-0.8 0.7l-0.7 0.7 0.7 0.7 0.7 0.7 0.5-0.5c0.6-0.6 0.9-0.8 1.5-0.9 1.1-0.4 2.2-0.1 3 0.7 1.1 1.2 1.1 3 0 4.2-0.7 0.6-1.3 0.9-2.2 0.9-0.5 0-0.6-0.1-0.9-0.2-0.2-0.1-0.5-0.2-0.7-0.3-0.1 0-1.7-1.6-3.5-3.4-1.8-1.8-3.3-3.3-3.4-3.3 0 0-0.2-0.1-0.5-0.3-0.7-0.3-1.3-0.5-2.1-0.5-0.4 0-0.7 0-0.8 0" stroke="none" fill="black" fill-rule="evenodd"></path><path fill-opacity="0.119" d="M5.5 7.1c-2 0.4-3.5 1.7-4 3.7-0.2 0.6-0.2 1.8 0 2.4 0.5 1.8 1.8 3.2 3.6 3.6 0.6 0.2 1.6 0.2 2.3 0.1 0.4-0.1 1.1-0.4 1.5-0.6 0.1-0.1 0.2-0.1 0.2-0.1 0.1 0 1.5-1.3 1.5-1.4 0 0-0.4-0.3-0.7-0.7l-0.7-0.7-0.6 0.5c-0.4 0.5-0.6 0.6-0.9 0.8-1.9 0.9-4.2-0.4-4.3-2.5-0.1-1.5 0.9-2.8 2.3-3.1 0.7-0.2 1.4-0.1 2 0.2 0.4 0.2 0.5 0.4 3.8 3.6 1.8 1.8 3.4 3.3 3.4 3.3 0 0 0.1 0 0.2 0.1 0.4 0.2 1.1 0.5 1.5 0.6 0.7 0.1 1.7 0.1 2.3-0.1 1.8-0.4 3.1-1.7 3.6-3.5 0.1-0.5 0.1-0.6 0.1-1.3 0-0.7 0-0.8-0.1-1.2-0.3-0.9-0.6-1.6-1.2-2.2-1.2-1.3-3.1-1.9-4.8-1.5-0.5 0.2-1.1 0.4-1.4 0.6-0.1 0-0.2 0.1-0.2 0.1-0.1 0-1.4 1.3-1.4 1.4 0 0 0.3 0.3 0.6 0.7l0.7 0.7 0.6-0.5c0.4-0.5 0.6-0.6 0.9-0.8 1.5-0.7 3.4-0.1 4.1 1.5 0.4 1 0.3 2.2-0.4 3.1-0.9 1.1-2.4 1.4-3.7 0.8-0.4-0.2-0.5-0.4-3.7-3.6-1.9-1.8-3.5-3.3-3.5-3.3 0 0-0.1-0.1-0.3-0.1-0.8-0.5-2.3-0.8-3.3-0.6" stroke="none" fill="black" fill-rule="evenodd"></path><path fill-opacity="0.357" d="M5.6 7.1c-2.2 0.3-3.8 1.9-4.2 4.1-0.3 2 0.7 4.2 2.6 5.2 0.6 0.3 1 0.4 1.7 0.5 0.5 0.1 0.7 0.1 1.1 0.1 0.7-0.1 1.3-0.3 1.8-0.6 0.3-0.1 0.5-0.2 0.5-0.2 0.1 0 1.5-1.3 1.5-1.4 0 0-1.4-1.3-1.4-1.3 0 0-0.3 0.2-0.6 0.5-0.5 0.4-0.6 0.5-1 0.7-0.5 0.2-0.9 0.3-1.4 0.3-1.3-0.1-2.3-0.9-2.7-2-0.2-0.5-0.2-1.4 0-1.9 0.4-1.2 1.4-2 2.6-2.1 0.6 0 1 0.1 1.6 0.3l0.4 0.2 3.3 3.4c1.9 1.8 3.4 3.3 3.5 3.3 0 0 0.2 0.1 0.5 0.2 0.5 0.3 1.1 0.5 1.8 0.6 0.4 0 0.6 0 1.1-0.1 0.7-0.1 1.1-0.2 1.7-0.5 1.8-0.9 2.9-3.1 2.6-5.2-0.4-1.9-1.7-3.5-3.6-4-0.2 0-0.6-0.1-0.9-0.2-0.8-0.1-1.9 0.1-2.8 0.6-0.2 0.1-0.4 0.2-0.5 0.2 0 0-1.3 1.3-1.3 1.4 0 0 1.3 1.4 1.3 1.4 0 0 0.3-0.3 0.6-0.6 0.5-0.4 0.6-0.5 1-0.7 1.4-0.7 3-0.2 3.8 1.1 0.3 0.5 0.4 0.9 0.4 1.6 0 0.5 0 0.7-0.1 1-0.4 1.1-1.4 1.9-2.7 2-0.5 0-0.9-0.1-1.4-0.3l-0.5-0.2-3.3-3.4c-1.9-1.8-3.4-3.3-3.4-3.3-0.1 0-0.3-0.1-0.5-0.2-0.5-0.3-1.2-0.5-1.8-0.5-0.5-0.1-0.8-0.1-1.3 0" stroke="none" fill="black" fill-rule="evenodd"></path><path fill-opacity="0.975" d="M5.8 7.1c-1.1 0.1-2.2 0.6-3 1.4-1.4 1.5-1.8 3.7-1 5.6 1.2 2.6 4.4 3.6 7 2.2 0.2-0.1 0.3-0.1 0.4-0.1 0 0 0.3-0.3 0.7-0.7l0.7-0.7-0.7-0.7-0.7-0.6-0.5 0.4c-0.9 0.8-1.3 1-2.2 1.1-0.5 0-0.6 0-1-0.1-1.3-0.4-2.1-1.5-2.1-2.9 0-0.5 0-0.8 0.3-1.3 0.3-0.8 1.2-1.5 2-1.6 0.7-0.2 1.4-0.1 2 0.2 0.4 0.2 0.9 0.6 4.2 3.9 1.6 1.7 2.9 3 2.9 3 0.1 0 0.2 0 0.4 0.1 1.4 0.8 3.2 0.9 4.6 0.2 1-0.5 1.8-1.3 2.3-2.3 1-1.9 0.6-4.2-0.9-5.7-1.3-1.3-3.2-1.8-4.9-1.3-0.5 0.2-1 0.4-1.3 0.6 0 0-0.1 0-0.1 0-0.1 0-0.4 0.3-0.8 0.7l-0.7 0.7 0.7 0.7 0.7 0.6 0.5-0.4c0.8-0.7 1.1-0.9 1.7-1 1-0.3 2 0 2.8 0.8 0.3 0.3 0.4 0.4 0.5 0.8 0.3 0.5 0.4 0.8 0.4 1.3 0 1.4-0.9 2.5-2.2 2.9-0.4 0.1-0.5 0.1-1 0.1-0.6 0-1-0.2-1.5-0.5-0.2-0.1-1.3-1.2-3.5-3.4-1.8-1.8-3.3-3.3-3.4-3.3 0 0-0.1 0-0.1 0-0.8-0.6-2.1-0.9-3.2-0.7" stroke="none" fill="black" fill-rule="evenodd"></path></svg>