<?xml version="1.0"?><svg xmlns="http://www.w3.org/2000/svg" width="24" height="24" viewBox="0 0 24 24" version="1.1"><rect x="0" y="0" width="24" height="24" fill="#00000000"></rect><path fill-opacity="0.392" d="M2.4 4.1c-0.4 0.1-0.6 0.3-0.9 0.6-0.2 0.3-0.3 0.4-0.4 0.7-0.1 0.4-0.1 12.8 0 13.2 0.2 0.6 0.7 1.2 1.4 1.3 0.4 0.1 18.6 0.1 19 0 0.7-0.1 1.2-0.7 1.4-1.3 0.1-0.4 0.1-12.7 0-13.1-0.1-0.5-0.5-1.1-1-1.3-0.4-0.2-0.1-0.2-9.9-0.2-8.7 0-9.4 0-9.6 0.1m0.6 7.9l0 6 9 0 9 0 0-6 0-6-9 0-9 0 0 6m10 1.5l0 2.5 3 0 3 0 0-2.5 0-2.5-3 0-3 0 0 2.5" stroke="none" fill="black" fill-rule="evenodd"></path><path fill-opacity="0.310" d="M2.5 4.1c-0.6 0.1-1 0.5-1.3 1.1l-0.2 0.3 0 6.5 0 6.5 0.2 0.3c0.2 0.4 0.6 0.8 1 1l0.3 0.2 9.5 0 9.5 0 0.3-0.2c0.4-0.2 0.8-0.6 1-1l0.2-0.3 0-6.5 0-6.5-0.2-0.3c-0.1-0.4-0.4-0.7-0.7-0.9-0.6-0.3 0.1-0.3-10.1-0.3-7.6 0-9.3 0-9.5 0.1m0.5 7.9l0 6 9 0 9 0 0-6 0-6-9 0-9 0 0 6m10 1.5l0 2.5 3 0 3 0 0-2.5 0-2.5-3 0-3 0 0 2.5" stroke="none" fill="black" fill-rule="evenodd"></path><path fill-opacity="0.448" d="M2.6 4.1c-0.4 0-0.7 0.2-1 0.5-0.3 0.3-0.5 0.6-0.5 1.1-0.1 0.2-0.1 2.2-0.1 6.5l0 6.2 0.1 0.3c0.3 0.5 0.7 1 1.3 1.2 0.2 0.1 0.7 0.1 9.6 0.1 8.9 0 9.4 0 9.7-0.1 0.5-0.2 0.9-0.7 1.2-1.2l0.1-0.3 0-6.2c0-4.3 0-6.3-0.1-6.5-0.1-0.9-0.7-1.5-1.5-1.6-0.4-0.1-18.5-0.1-18.8 0m0.4 7.9l0 6 9 0 9 0 0-6 0-6-9 0-9 0 0 6m10 1.5l0 2.5 3 0 3 0 0-2.5 0-2.5-3 0-3 0 0 2.5" stroke="none" fill="black" fill-rule="evenodd"></path><path fill-opacity="0.983" d="M2.7 4.1c-0.4 0-0.8 0.2-1.1 0.5-0.3 0.3-0.5 0.7-0.5 1.1-0.1 0.4-0.1 12.2 0 12.6 0.1 0.9 0.8 1.5 1.6 1.6 0.5 0.1 18.1 0.1 18.6 0 0.8-0.1 1.5-0.7 1.6-1.6 0.1-0.4 0.1-12.2 0-12.6 0-0.4-0.2-0.8-0.5-1.1-0.3-0.3-0.7-0.5-1.1-0.5-0.4-0.1-18.3-0.1-18.6 0m0.3 7.9l0 6 9 0 9 0 0-6 0-6-9 0-9 0 0 6m10 1.5l0 2.5 3 0 3 0 0-2.5 0-2.5-3 0-3 0 0 2.5" stroke="none" fill="black" fill-rule="evenodd"></path></svg>