<?xml version="1.0"?><svg xmlns="http://www.w3.org/2000/svg" width="24" height="24" viewBox="0 0 24 24" version="1.1"><rect x="0" y="0" width="24" height="24" fill="#00000000"></rect><path fill-opacity="0.345" d="M6 0.1c0 0.1 0.1 0.5 0.3 0.6 0 0.1 0.2 0.2 0.3 0.2 0.2 0.1 0.4 0.1 5.4 0.1 5 0 5.2 0 5.4-0.1 0.1 0 0.3-0.1 0.3-0.2 0.2-0.1 0.3-0.5 0.3-0.6 0-0.1 0-0.1-6-0.1-6 0-6 0-6 0.1m5.2 3.9c-1.2 0.2-1.9 0.4-2.8 0.9-2.7 1.3-4.4 4.1-4.4 7.1 0 2.5 1.2 4.9 3.2 6.4 2.9 2.1 6.8 2.1 9.6 0 4-3 4.3-9.1 0.5-12.4-1.1-0.9-2.5-1.6-3.9-1.9-0.4-0.1-1.9-0.1-2.2-0.1m0.1 2.1c-2.3 0.2-4.3 1.9-5 4-0.2 0.7-0.3 1.1-0.3 1.9 0 1 0.2 1.8 0.7 2.7 0.6 1.2 1.5 2.1 2.7 2.7 1.7 0.8 3.5 0.8 5.2 0 1.8-0.9 2.9-2.4 3.3-4.3 0.1-0.5 0.1-1.6 0-2.1-0.4-2.3-2-4-4.1-4.7-0.8-0.2-1.7-0.3-2.5-0.2m0.3 2c-0.3 0.1-0.4 0.3-0.5 0.5-0.1 0.2-0.1 0.4-0.1 1.3l0 1.1-1.1 0c-1.2 0-1.3 0-1.6 0.3-0.4 0.3-0.4 1.1 0 1.4 0.3 0.3 0.4 0.3 1.6 0.3l1.1 0 0 1.1c0 1.2 0 1.4 0.3 1.6 0.5 0.5 1.3 0.3 1.6-0.3 0.1-0.2 0.1-0.3 0.1-1.3l0-1.1 1.1 0c1.2 0 1.3 0 1.6-0.3 0.4-0.3 0.4-1.1 0-1.4-0.3-0.3-0.4-0.3-1.6-0.3l-1.1 0 0-1.1c0-1 0-1.1-0.1-1.3-0.2-0.5-0.8-0.7-1.3-0.5" stroke="none" fill="black" fill-rule="evenodd"></path><path fill-opacity="0.311" d="M6 0.2c0.1 0.3 0.3 0.5 0.5 0.7l0.3 0.1 5.2 0 5.2 0 0.3-0.1c0.2-0.2 0.4-0.4 0.5-0.7l0-0.2-6 0-6 0 0 0.2m5.1 3.9c-1.8 0.1-3.5 1-4.8 2.3-2.4 2.4-3 6.1-1.5 9.1 2.4 4.9 9 6 12.9 2.1 3.1-3.1 3.1-8.1 0-11.2-0.5-0.5-1.1-1-1.7-1.3-1.4-0.9-3.2-1.2-4.9-1m0.1 2c-1.7 0.2-3.2 1.2-4.2 2.6-1.2 1.8-1.3 4.1-0.4 6 0.4 0.7 0.8 1.2 1.3 1.6 1.6 1.5 3.8 2.1 5.9 1.4 1.5-0.5 2.7-1.5 3.5-2.9 1.6-3.1 0.3-6.9-3-8.3-0.7-0.3-1.3-0.5-2.1-0.5-0.4 0-0.9 0-1 0.1m0.4 2c-0.2 0.1-0.5 0.3-0.5 0.6-0.1 0.1-0.1 0.7-0.1 1.2l0 1.1-1.2 0c-1.3 0-1.3 0-1.6 0.4-0.2 0.2-0.2 0.3-0.2 0.6 0 0.3 0 0.4 0.2 0.6 0.1 0.1 0.2 0.2 0.3 0.3 0.3 0.1 0.3 0.1 1.4 0.1l1.1 0 0 1.2 0 1.1 0.2 0.3c0.3 0.4 0.8 0.5 1.3 0.3 0.1-0.1 0.2-0.2 0.3-0.3l0.2-0.3 0-1.1 0-1.2 1.1 0c1.1 0 1.1 0 1.4-0.1 0.1-0.1 0.2-0.2 0.3-0.3 0.2-0.2 0.2-0.3 0.2-0.6 0-0.3 0-0.4-0.2-0.6-0.3-0.4-0.3-0.4-1.6-0.4l-1.2 0 0-1.2 0-1.1-0.2-0.3c-0.1-0.1-0.2-0.2-0.3-0.3-0.2-0.1-0.6-0.1-0.9 0" stroke="none" fill="black" fill-rule="evenodd"></path><path fill-opacity="0.644" d="M6 0.2c0.1 0.3 0.3 0.5 0.6 0.7l0.2 0.1 5.2 0 5.2 0 0.2-0.1c0.3-0.2 0.5-0.4 0.6-0.7l0-0.2-6 0-6 0 0 0.2m5.5 3.8c-2 0.2-3.8 1-5.2 2.4-3.1 3.1-3 8.2 0.1 11.3 0.6 0.6 1.2 1 2 1.4 1.1 0.5 1.9 0.8 3 0.9 0.7 0 1.5 0 2.2-0.2 1-0.2 2.3-0.7 3.1-1.3 2.2-1.6 3.5-4.4 3.3-7.2-0.3-3.2-2.5-5.9-5.6-6.9-0.8-0.3-2.1-0.4-2.9-0.4m-0.5 2.1c-0.8 0.1-1.6 0.5-2.4 0.9-0.4 0.3-1.3 1.2-1.6 1.6-1 1.6-1.3 3.5-0.7 5.3 0.5 1.5 1.6 2.8 3.1 3.5 2.9 1.4 6.5 0.2 8-2.7 0.9-2 0.8-4.2-0.4-6.1-0.3-0.4-1.2-1.3-1.6-1.6-0.8-0.5-1.6-0.8-2.4-0.9-0.6-0.1-1.5-0.1-2 0m0.8 1.9c-0.3 0.1-0.5 0.3-0.7 0.6-0.1 0.2-0.1 0.2-0.1 1.3l0 1.1-1.1 0c-1.2 0-1.2 0-1.4 0.2-0.3 0.1-0.5 0.5-0.5 0.9 0.1 0.3 0.3 0.6 0.6 0.8 0.2 0.1 0.2 0.1 1.3 0.1l1.1 0 0 1.1c0 1.2 0 1.2 0.2 1.4 0.1 0.3 0.5 0.5 0.8 0.5 0.3 0 0.7-0.2 0.8-0.5 0.2-0.2 0.2-0.2 0.2-1.4l0-1.1 1.1 0c1.1 0 1.1 0 1.3-0.1 0.7-0.4 0.8-1.4 0.1-1.8-0.2-0.1-0.3-0.1-1.4-0.1l-1.1 0 0-1.1c0-1.2 0-1.2-0.2-1.4-0.2-0.4-0.6-0.6-1-0.5" stroke="none" fill="black" fill-rule="evenodd"></path><path fill-opacity="0.951" d="M6.1 0.2c0 0.3 0.2 0.5 0.4 0.7l0.2 0.1 5.3 0 5.3 0 0.2-0.1c0.2-0.2 0.4-0.4 0.4-0.7l0.1-0.2-6 0-6 0 0.1 0.2m5.5 3.8c-2 0.2-3.7 0.9-5.1 2.3-1.5 1.3-2.3 3.1-2.4 5.1-0.3 3.3 1.5 6.4 4.5 7.8 2.1 1 4.7 1 6.8 0 1.7-0.8 3.1-2.2 3.8-3.8 0.9-1.8 1-4 0.4-5.8-0.8-2.7-3-4.7-5.7-5.3-0.6-0.2-1.7-0.3-2.3-0.3m-0.6 2.1c-2.4 0.4-4.2 2.1-4.8 4.4-0.2 0.6-0.2 1.7-0.2 2.4 0.4 2.3 2.1 4.2 4.4 4.9 0.7 0.2 1 0.2 1.9 0.2 0.9 0 1.6-0.2 2.4-0.6 1.6-0.8 2.7-2.3 3.2-4 0.1-0.4 0.1-0.6 0.1-1.4 0-0.9 0-1-0.2-1.5-0.4-1.5-1.4-2.9-2.8-3.7-0.4-0.3-1.1-0.5-1.6-0.7-0.5-0.1-1.9-0.1-2.4 0m0.7 2c-0.1 0-0.3 0.1-0.4 0.2-0.3 0.3-0.3 0.5-0.3 1.7l0 1-1 0c-0.5 0-1.1 0-1.2 0.1-0.9 0.1-1 1.3-0.3 1.8 0.2 0.1 0.3 0.1 1.4 0.1l1.1 0 0 1c0 1 0 1.3 0.2 1.6 0.4 0.5 1.2 0.5 1.6 0 0.2-0.3 0.2-0.6 0.2-1.6l0-1 1.1 0c1.1 0 1.2 0 1.4-0.1 0.7-0.5 0.6-1.7-0.3-1.8-0.1-0.1-0.7-0.1-1.2-0.1l-1 0 0-1c0-0.5 0-1.1-0.1-1.2-0.1-0.6-0.6-0.9-1.2-0.7" stroke="none" fill="black" fill-rule="evenodd"></path></svg>