<?xml version="1.0"?><svg xmlns="http://www.w3.org/2000/svg" width="24" height="24" viewBox="0 0 24 24" version="1.1"><rect x="0" y="0" width="24" height="24" fill="#00000000"></rect><path fill-opacity="0.471" d="M5.6 1.1c-0.8 0.4-0.8 1.5 0 1.8 0.2 0.1 0.9 0.1 6.4 0.1 6.7 0 6.4 0 6.7-0.3 0.2-0.1 0.3-0.4 0.3-0.7 0-0.3-0.1-0.6-0.3-0.7-0.3-0.3 0-0.3-6.7-0.3-5.9 0-6.2 0-6.4 0.1m6 6c-0.3 0.1-0.4 0.3-0.5 0.5-0.1 0.2-0.1 0.5-0.1 1.8l0 1.6-1.6 0c-1.5 0-1.6 0-1.8 0.1-0.3 0.1-0.4 0.3-0.5 0.5-0.2 0.5 0 1.1 0.5 1.3 0.2 0.1 0.3 0.1 1.8 0.1l1.6 0 0 1.6c0 1.5 0 1.6 0.1 1.8 0.1 0.3 0.3 0.4 0.5 0.5 0.5 0.2 1.1 0 1.3-0.5 0.1-0.2 0.1-0.3 0.1-1.8l0-1.6 1.6 0c1.5 0 1.6 0 1.8-0.1 0.3-0.1 0.4-0.3 0.5-0.5 0.2-0.5 0-1.1-0.5-1.3-0.2-0.1-0.3-0.1-1.8-0.1l-1.6 0 0-1.6c0-1.5 0-1.6-0.1-1.8-0.2-0.5-0.8-0.7-1.3-0.5" stroke="none" fill="black" fill-rule="evenodd"></path><path fill-opacity="0.162" d="M5.6 1.1c-0.1 0-0.2 0.1-0.3 0.2-0.5 0.5-0.3 1.3 0.2 1.6l0.3 0.1 6.2 0 6.2 0 0.3-0.1c0.1-0.1 0.2-0.2 0.3-0.3 0.2-0.2 0.2-0.3 0.2-0.6 0-0.3 0-0.4-0.2-0.6-0.1-0.1-0.2-0.2-0.3-0.3-0.2-0.1-0.2-0.1-6.4-0.1-5.3 0-6.3 0-6.5 0.1m6 6c-0.2 0.1-0.5 0.3-0.5 0.6-0.1 0.1-0.1 0.9-0.1 1.7l0 1.6-1.7 0c-1.8 0-1.8 0-2.1 0.4-0.2 0.2-0.2 0.3-0.2 0.6 0 0.3 0 0.4 0.2 0.6 0.1 0.1 0.2 0.2 0.3 0.3 0.3 0.1 0.3 0.1 1.9 0.1l1.6 0 0 1.7 0 1.6 0.2 0.3c0.4 0.5 1.2 0.5 1.6 0l0.2-0.3 0-1.6 0-1.7 1.6 0c1.6 0 1.6 0 1.9-0.1 0.1-0.1 0.2-0.2 0.3-0.3 0.2-0.2 0.2-0.3 0.2-0.6 0-0.3 0-0.4-0.2-0.6-0.3-0.4-0.3-0.4-2.1-0.4l-1.7 0 0-1.7 0-1.6-0.2-0.3c-0.1-0.1-0.2-0.2-0.3-0.3-0.2-0.1-0.6-0.1-0.9 0" stroke="none" fill="black" fill-rule="evenodd"></path><path fill-opacity="0.637" d="M5.8 1c-0.9 0.3-1.1 1.5-0.2 1.9l0.2 0.1 6.2 0 6.2 0 0.2-0.1c0.7-0.4 0.8-1.4 0.1-1.8l-0.2-0.1-6.2 0c-3.4 0-6.2 0-6.3 0m6 6c-0.3 0.1-0.5 0.3-0.7 0.5-0.1 0.2-0.1 0.2-0.1 1.9l0 1.6-1.6 0-1.7 0-0.2 0.2c-0.7 0.3-0.6 1.3 0.1 1.7l0.2 0.1 1.6 0 1.6 0 0 1.6 0 1.7 0.2 0.2c0.1 0.3 0.5 0.5 0.8 0.5 0.3 0 0.7-0.2 0.8-0.5l0.2-0.2 0-1.7 0-1.6 1.6 0 1.6 0 0.2-0.1c0.7-0.4 0.8-1.4 0.1-1.7l-0.2-0.2-1.7 0-1.6 0 0-1.6 0-1.7-0.2-0.2c-0.2-0.4-0.6-0.6-1-0.5" stroke="none" fill="black" fill-rule="evenodd"></path><path fill-opacity="0.951" d="M5.7 1.1c-0.8 0.2-0.9 1.3-0.2 1.8l0.2 0.1 6.3 0 6.3 0 0.2-0.1c0.7-0.5 0.6-1.7-0.3-1.8-0.4-0.1-12.1-0.1-12.5 0m6 6c-0.1 0-0.3 0.1-0.4 0.2-0.3 0.3-0.3 0.5-0.3 2.2l0 1.5-1.5 0c-0.9 0-1.5 0-1.7 0.1-0.9 0.1-1 1.3-0.3 1.8 0.2 0.1 0.3 0.1 1.9 0.1l1.6 0 0 1.5c0 0.8 0 1.6 0.1 1.7 0.1 0.5 0.4 0.8 0.9 0.8 0.5 0 0.8-0.3 0.9-0.8 0.1-0.1 0.1-0.9 0.1-1.7l0-1.5 1.6 0c1.6 0 1.7 0 1.9-0.1 0.7-0.5 0.6-1.7-0.3-1.8-0.2-0.1-0.8-0.1-1.7-0.1l-1.5 0 0-1.5c0-0.9 0-1.5-0.1-1.7-0.1-0.6-0.6-0.9-1.2-0.7" stroke="none" fill="black" fill-rule="evenodd"></path></svg>