<?xml version="1.0"?><svg xmlns="http://www.w3.org/2000/svg" width="24" height="24" viewBox="0 0 24 24" version="1.1"><rect x="0" y="0" width="24" height="24" fill="#00000000"></rect><path fill-opacity="0.424" d="M7.2 4.1c-1.2 0.2-2.2 1-2.8 2.1-0.4 0.9-0.4 0.5-0.4 5.8l0 4.7 0.1 0.4c0.4 1.3 1.5 2.3 2.8 2.8l0.4 0.1 4.7 0 4.7 0 0.4-0.1c1.3-0.5 2.4-1.5 2.8-2.8l0.1-0.4 0-4.7c0-4.3 0-4.7-0.1-5-0.2-0.8-0.8-1.6-1.4-2.1-0.4-0.3-0.9-0.6-1.4-0.8l-0.4-0.1-4.6 0c-3.9 0-4.6 0-4.9 0.1m0.4 2c-0.8 0.1-1.4 0.8-1.6 1.6 0 0.2 0 2 0 4.5l0 4.2 0.1 0.3c0.3 0.5 0.7 1 1.3 1.2 0.2 0.1 0.5 0.1 4.6 0.1 4.1 0 4.4 0 4.7-0.1 0.5-0.2 0.9-0.7 1.2-1.2l0.1-0.3 0-4.4 0-4.4-0.1-0.3c-0.1-0.2-0.2-0.4-0.3-0.5-0.3-0.3-0.6-0.5-0.9-0.7l-0.3-0.1-4.2 0c-2.4 0-4.4 0-4.6 0.1m4 2c-0.3 0.1-0.4 0.3-0.5 0.5-0.1 0.2-0.1 0.4-0.1 1.3l0 1.1-1.1 0c-1.2 0-1.3 0-1.6 0.3-0.4 0.3-0.4 1.1 0 1.4 0.3 0.3 0.4 0.3 1.6 0.3l1.1 0 0 1.1c0 1.2 0 1.4 0.3 1.6 0.5 0.5 1.3 0.3 1.6-0.3 0.1-0.2 0.1-0.3 0.1-1.3l0-1.1 1.1 0c1.2 0 1.3 0 1.6-0.3 0.4-0.3 0.4-1.1 0-1.4-0.3-0.3-0.4-0.3-1.6-0.3l-1.1 0 0-1.1c0-1 0-1.1-0.1-1.3-0.2-0.5-0.8-0.7-1.3-0.5m-5 15c-0.1 0-0.3 0.1-0.3 0.2-0.2 0.1-0.3 0.5-0.3 0.6 0 0.1 0 0.1 6 0.1 6 0 6 0 6-0.1 0-0.1-0.1-0.5-0.3-0.6 0-0.1-0.2-0.2-0.3-0.2-0.2-0.1-0.4-0.1-5.4-0.1-5 0-5.2 0-5.4 0.1" stroke="none" fill="black" fill-rule="evenodd"></path><path fill-opacity="0.319" d="M7.3 4.1c-0.2 0-0.5 0.1-0.7 0.1-1 0.4-1.9 1.3-2.3 2.4-0.3 0.7-0.3 0.7-0.3 5.4 0 4.7 0 4.7 0.3 5.5 0.4 1.1 1.5 2 2.7 2.4 0.3 0.1 0.7 0.1 5 0.1 4.3 0 4.7 0 5-0.1 1.5-0.4 2.6-1.7 2.9-3.2 0.1-0.5 0.1-8.9 0-9.4-0.1-0.8-0.5-1.5-1.1-2.1-0.2-0.2-0.4-0.4-0.5-0.4-0.2-0.2-0.7-0.5-1.2-0.6l-0.4-0.2-4.6 0c-3.7 0-4.6 0-4.8 0.1m0.3 2c-0.6 0.1-1.1 0.5-1.4 1.1l-0.2 0.3 0 4.5 0 4.5 0.2 0.3c0.3 0.6 0.8 1 1.4 1.1 0.4 0.1 8.4 0.1 8.8 0 0.6-0.1 1.1-0.5 1.4-1.1l0.2-0.3 0-4.5 0-4.5-0.2-0.3c-0.3-0.6-0.8-1-1.4-1.1-0.3-0.1-8.5-0.1-8.8 0m4 2c-0.2 0.1-0.5 0.3-0.5 0.6-0.1 0.1-0.1 0.7-0.1 1.2l0 1.1-1.2 0c-1.3 0-1.3 0-1.6 0.4-0.2 0.2-0.2 0.3-0.2 0.6 0 0.3 0 0.4 0.2 0.6 0.1 0.1 0.2 0.2 0.3 0.3 0.3 0.1 0.3 0.1 1.4 0.1l1.1 0 0 1.2 0 1.1 0.2 0.3c0.3 0.4 0.8 0.5 1.3 0.3 0.1-0.1 0.2-0.2 0.3-0.3l0.2-0.3 0-1.1 0-1.2 1.1 0c1.1 0 1.1 0 1.4-0.1 0.1-0.1 0.2-0.2 0.3-0.3 0.2-0.2 0.2-0.3 0.2-0.6 0-0.3 0-0.4-0.2-0.6-0.3-0.4-0.3-0.4-1.6-0.4l-1.2 0 0-1.2 0-1.1-0.2-0.3c-0.1-0.1-0.2-0.2-0.3-0.3-0.2-0.1-0.6-0.1-0.9 0m-5 15c-0.3 0.1-0.5 0.4-0.6 0.7l0 0.2 6 0 6 0 0-0.2c-0.1-0.2-0.3-0.5-0.5-0.7-0.2-0.1-0.2-0.1-5.4-0.1-4.4 0-5.3 0-5.5 0.1" stroke="none" fill="black" fill-rule="evenodd"></path><path fill-opacity="0.410" d="M7.2 4.1c-1.2 0.3-2.2 1-2.7 2.1-0.5 0.9-0.5 0.6-0.5 5.8 0 4.2 0 4.6 0.1 4.9 0.4 1.4 1.5 2.5 2.9 3l0.4 0.1 4.6 0 4.6 0 0.4-0.1c1.1-0.4 2-1.1 2.5-2.1 0.5-0.9 0.5-0.6 0.5-5.8 0-5.2 0-4.9-0.5-5.8-0.2-0.4-0.3-0.6-0.6-0.9-0.5-0.6-1.1-0.9-1.9-1.2-0.4-0.1-0.4-0.1-4.9-0.1-4.2 0-4.5 0-4.9 0.1m0.2 2c-0.6 0.1-1.2 0.7-1.3 1.4-0.1 0.4-0.1 8.7 0 9.1 0.2 0.6 0.7 1.2 1.4 1.3 0.4 0.1 8.6 0.1 9 0 0.7-0.1 1.2-0.7 1.4-1.4 0.1-0.2 0.1-0.7 0.1-4.5 0-4.7 0-4.6-0.3-5-0.3-0.5-0.7-0.8-1.2-0.9-0.3-0.1-8.7-0.1-9.1 0m4.3 1.9c-0.2 0.1-0.4 0.3-0.6 0.6-0.1 0.2-0.1 0.2-0.1 1.3l0 1.1-1.1 0-1.2 0-0.2 0.2c-0.3 0.1-0.5 0.5-0.5 0.9 0.1 0.3 0.3 0.6 0.6 0.8 0.2 0.1 0.2 0.1 1.3 0.1l1.1 0 0 1.1c0 1.2 0 1.2 0.2 1.4 0.1 0.3 0.5 0.5 0.8 0.5 0.3 0 0.7-0.2 0.8-0.5 0.2-0.2 0.2-0.2 0.2-1.4l0-1.1 1.1 0c1.1 0 1.1 0 1.3-0.1 0.7-0.4 0.8-1.4 0.1-1.8-0.2-0.1-0.3-0.1-1.4-0.1l-1.1 0 0-1.1c0-1.2 0-1.2-0.2-1.4 0-0.1-0.2-0.3-0.3-0.3-0.2-0.2-0.6-0.2-0.8-0.2m-5 15c-0.2 0.1-0.4 0.3-0.6 0.6 0 0.1-0.1 0.3-0.1 0.3 0 0.1 0.3 0.1 6 0.1l6 0 0-0.2c-0.1-0.2-0.3-0.5-0.5-0.6l-0.2-0.2-5.2 0c-2.9 0-5.3 0-5.4 0" stroke="none" fill="black" fill-rule="evenodd"></path><path fill-opacity="0.966" d="M7.5 4.1c-1.5 0.2-2.8 1.2-3.3 2.7-0.2 0.6-0.2 1.1-0.2 5.6 0 4.1 0 4.2 0.1 4.6 0.5 1.6 1.8 2.8 3.4 2.9 0.6 0.1 8.4 0.1 9 0 1.6-0.1 2.9-1.3 3.4-2.9 0.1-0.4 0.1-0.5 0.1-4.6 0-2.6 0-4.4 0-4.7-0.1-1-0.5-1.8-1.1-2.4-0.5-0.6-1.1-0.9-1.9-1.2-0.4-0.1-0.4-0.1-4.8-0.1-2.4 0-4.5 0-4.7 0.1m-0.1 2c-0.5 0.1-1 0.6-1.2 1.1l-0.2 0.3 0 4.5 0 4.5 0.2 0.3c0.1 0.4 0.5 0.8 0.9 1l0.4 0.2 4.5 0 4.5 0 0.4-0.2c0.4-0.2 0.8-0.6 0.9-1l0.2-0.3 0-4.5 0-4.5-0.2-0.3c-0.1-0.4-0.6-0.9-1-1l-0.3-0.2-4.4 0c-3.5 0-4.5 0-4.7 0.1m4.3 2c-0.1 0-0.3 0.1-0.4 0.2-0.3 0.3-0.3 0.5-0.3 1.7l0 1-1 0c-0.5 0-1.1 0-1.2 0.1-0.9 0.1-1 1.3-0.3 1.8 0.2 0.1 0.3 0.1 1.4 0.1l1.1 0 0 1c0 1 0 1.3 0.2 1.6 0.4 0.5 1.2 0.5 1.6 0 0.2-0.3 0.2-0.6 0.2-1.6l0-1 1.1 0c1.1 0 1.2 0 1.4-0.1 0.7-0.5 0.6-1.7-0.3-1.8-0.1-0.1-0.7-0.1-1.2-0.1l-1 0 0-1c0-0.5 0-1.1-0.1-1.2-0.1-0.6-0.6-0.9-1.2-0.7m-5 15c-0.3 0.1-0.5 0.3-0.6 0.6-0.1 0.2-0.1 0.3-0.1 0.3 0 0 2.7 0 6 0l6 0-0.1-0.3c-0.1-0.3-0.3-0.6-0.7-0.6-0.4-0.1-10.1-0.1-10.5 0" stroke="none" fill="black" fill-rule="evenodd"></path></svg>