<?xml version="1.0"?><svg xmlns="http://www.w3.org/2000/svg" width="24" height="24" viewBox="0 0 24 24" version="1.1"><rect x="0" y="0" width="24" height="24" fill="#00000000"></rect><path fill-opacity="0.482" d="M5 0.1c-2.2 0.4-4.1 2-4.7 4.1-0.3 0.9-0.3 0.7-0.3 7.8 0 5.6 0 6.6 0.1 7 0.2 1.3 0.8 2.4 1.7 3.3 0.7 0.7 1.4 1.1 2.3 1.4 1 0.3 0.7 0.3 7.9 0.3 7.2 0 6.9 0 7.9-0.3 0.9-0.3 1.6-0.7 2.2-1.4 1-0.9 1.6-2.1 1.8-3.3 0-0.2 0.1-0.3 0.1-0.4 0.1 0 0.1-13.3 0-13.3 0 0-0.1-0.1-0.1-0.2 0-0.2-0.1-0.5-0.1-0.7-0.7-2.3-2.5-3.9-4.8-4.3-0.7-0.1-13.4-0.1-14 0m0.5 2c-1.3 0.1-2.5 0.9-3.1 2.1-0.4 1-0.4 0.3-0.4 7.8l0 6.6 0.2 0.5c0.2 0.7 0.5 1.2 1 1.7 0.4 0.4 0.5 0.5 1 0.7 1 0.5 0.5 0.5 7.8 0.5 7.3 0 6.8 0 7.8-0.5 0.5-0.2 0.6-0.3 1-0.7 0.5-0.5 0.8-1 1-1.7l0.2-0.5 0-6.6 0-6.6-0.2-0.5c-0.2-0.7-0.5-1.2-1-1.7-0.4-0.4-0.5-0.5-1-0.7-1-0.5-0.3-0.5-7.6-0.5-3.5 0-6.6 0-6.7 0.1m12.1 3c-0.8 0.4-0.8 1.5 0 1.8 0.4 0.2 0.8 0.1 1.1-0.2 0.4-0.3 0.4-1.1 0-1.4-0.3-0.3-0.8-0.4-1.1-0.2m-17.6 6.9c0 3.7 0 5.2 0 3.3 0-1.8 0-4.8 0-6.6 0-1.9 0-0.4 0 3.3m11.1-4.9c-1.9 0.3-3.4 1.7-4 3.7-0.1 0.5-0.1 1.9 0 2.4 0.2 0.5 0.4 1.1 0.7 1.6 0.4 0.5 1.1 1.2 1.6 1.5 1.7 1 3.7 0.9 5.3-0.1 2.1-1.4 2.9-4 1.9-6.2-0.6-1.4-1.9-2.5-3.4-2.9-0.5-0.1-1.6-0.1-2.1 0m0.4 2c-0.7 0.1-1.3 0.4-1.7 0.9-0.5 0.6-0.8 1.2-0.8 2 0 0.8 0.3 1.4 0.8 2 0.6 0.7 1.3 1 2.2 1 0.9 0 1.6-0.3 2.2-1 0.5-0.6 0.8-1.2 0.8-2 0-0.9-0.3-1.5-0.9-2.1-0.4-0.4-0.6-0.6-1.1-0.7-0.4-0.2-1.1-0.2-1.5-0.1" stroke="none" fill="black" fill-rule="evenodd"></path><path fill-opacity="0.145" d="M5.3 0c-1.7 0.3-3.1 1.1-4.1 2.4-0.4 0.5-0.8 1.3-0.9 1.9-0.3 0.9-0.3 0.9-0.3 7.7 0 6.9 0 6.8 0.3 7.7 0 0.2 0.2 0.6 0.3 0.9 0.7 1.5 2 2.6 3.5 3.1 1 0.3 0.7 0.3 7.9 0.3 7.2 0 6.9 0 7.9-0.3 1.2-0.4 2.2-1.1 2.9-2.1 0.6-0.8 1-1.9 1.1-2.8 0-0.2 0.1-0.3 0.1-0.3 0 0 0.1-2.9 0.1-6.5 0-4.4-0.1-6.5-0.1-6.5 0 0 0-0.1 0-0.1 0-0.1-0.1-0.4-0.1-0.6-0.4-2-1.9-3.8-3.9-4.4-1-0.4-0.5-0.4-7.9-0.4-3.7 0-6.7 0-6.8 0m0.1 2.1c-1.6 0.2-2.8 1.3-3.3 2.9l-0.1 0.4 0 6.6 0 6.6 0.1 0.4c0.5 1.6 1.7 2.7 3.3 3 0.5 0 13.3 0 13.5-0.1 0.9-0.3 1.4-0.6 1.9-1.1 0.6-0.5 1-1.3 1.1-2.1 0.1-0.3 0.1-1.1 0.1-6.9 0-6.1 0-6.5-0.1-6.8-0.2-0.7-0.6-1.3-1.1-1.8-0.5-0.5-1-0.8-1.7-1l-0.4-0.2-6.5 0c-3.6 0-6.7 0-6.8 0.1m12.2 3c-0.5 0.2-0.8 1-0.4 1.5 0.4 0.5 1.2 0.5 1.6 0 0.2-0.2 0.2-0.3 0.2-0.6 0-0.3 0-0.4-0.2-0.6-0.1-0.1-0.2-0.2-0.3-0.3-0.2-0.1-0.6-0.1-0.9 0m-17.6 6.9c0 3.6 0 5.1 0 3.3 0-1.8 0-4.8 0-6.6 0-1.8 0-0.3 0 3.3m11.4-5c-1 0.2-1.9 0.6-2.6 1.2-1.6 1.3-2.2 3.5-1.5 5.4 0.4 1.2 1.4 2.3 2.5 2.9 1.4 0.7 3 0.7 4.4 0 1.7-0.8 2.9-2.8 2.8-4.8-0.1-2.2-1.7-4.1-3.9-4.6-0.3-0.1-1.4-0.1-1.7-0.1m0 2.1c-0.2 0-0.5 0.1-0.7 0.2-0.5 0.3-1.1 0.8-1.4 1.4-0.4 0.8-0.4 1.8 0 2.7 0.3 0.5 0.9 1.1 1.4 1.3 1.2 0.6 2.5 0.3 3.4-0.6 0.8-0.7 1-1.7 0.8-2.8-0.1-0.5-0.3-0.9-0.8-1.4-0.3-0.3-0.5-0.4-0.8-0.6-0.6-0.3-1.3-0.4-1.9-0.2" stroke="none" fill="black" fill-rule="evenodd"></path><path fill-opacity="0.637" d="M5.1 0.1c-0.8 0.1-1.7 0.5-2.5 1-0.5 0.3-1.2 1-1.6 1.6-0.4 0.7-0.8 1.5-0.9 2.3-0.1 0.5-0.1 13.5 0 14 0.3 1.9 1.5 3.5 3.3 4.4 0.5 0.2 1.2 0.4 1.8 0.5 0.8 0.1 12.8 0.1 13.6 0 1.8-0.2 3.4-1.3 4.3-2.8 0.4-0.7 0.8-1.7 0.8-2.4 0.1-0.2 0.1-0.4 0.1-0.4 0 0 0.1-2.8 0.1-6.3 0-3.5-0.1-6.3-0.1-6.3 0 0 0-0.2-0.1-0.4 0-0.8-0.4-1.9-0.9-2.6-0.4-0.6-1.1-1.3-1.6-1.6-0.8-0.5-1.7-0.9-2.6-1-0.7-0.1-12.9-0.1-13.7 0m0.2 2c-1.2 0.2-2.3 1-2.9 2.2-0.4 0.8-0.4 0.2-0.4 7.7 0 7.5 0 6.9 0.4 7.7 0.4 0.8 1 1.5 1.9 1.9 0.8 0.4 0.2 0.4 7.7 0.4 7.5 0 6.9 0 7.7-0.4 1.2-0.6 2-1.7 2.2-3 0.1-0.2 0.1-2.2 0.1-6.8 0-7.3 0-6.7-0.4-7.5-0.5-1-1.4-1.8-2.5-2.2l-0.4-0.1-6.5 0c-3.7 0-6.7 0-6.9 0.1m12.4 2.9c-0.4 0.2-0.7 0.7-0.7 1.1 0.1 0.3 0.3 0.6 0.6 0.8 0.3 0.1 0.5 0.1 0.8 0 0.9-0.5 0.7-1.8-0.3-1.9-0.1 0-0.3 0-0.4 0m-17.7 7c0 3.5 0 4.9 0 3.2 0-1.8 0-4.6 0-6.4 0-1.7 0-0.3 0 3.2m11.4-4.9c-2.1 0.2-3.7 1.7-4.2 3.7-0.1 0.4-0.2 0.6-0.2 1.2 0 0.6 0.1 0.8 0.2 1.2 0.4 1.7 1.7 3.1 3.4 3.6 1.8 0.5 3.6 0 4.9-1.3 2.5-2.4 1.7-6.5-1.4-8-0.8-0.4-1.9-0.6-2.7-0.4m0 1.9c-1 0.3-2 1.1-2.3 2.1-0.1 0.5-0.1 1.3 0 1.8 0.3 0.9 1.1 1.7 1.9 2 0.3 0.1 0.5 0.1 1 0.1 0.5 0 0.7 0 1-0.1 0.8-0.3 1.6-1.1 1.9-2 0.1-0.5 0.1-1.3 0-1.8-0.3-0.9-1-1.6-1.9-1.9-0.3-0.1-0.4-0.2-0.9-0.2-0.3 0-0.6 0-0.7 0" stroke="none" fill="black" fill-rule="evenodd"></path><path fill-opacity="0.951" d="M5.4 0.1c-1.9 0.1-3.8 1.4-4.7 3.1-0.3 0.6-0.4 1-0.6 1.6-0.1 0.5-0.1 0.5-0.1 6.7 0 6.5 0 7.2 0.2 7.9 0.4 1.8 1.6 3.2 3.2 4 0.4 0.2 1.2 0.4 1.7 0.5 0.5 0.1 13.3 0.1 13.8 0 1.9-0.3 3.5-1.5 4.4-3.1 0.1-0.2 0.3-0.6 0.3-0.8 0.2-0.4 0.4-1.2 0.4-1.6 0-0.1 0-0.3 0-0.3 0 0 0.1-2.1 0.1-6.2 0-4-0.1-6.1-0.1-6.1 0 0 0-0.1 0-0.2 0-0.4-0.2-1.2-0.4-1.6-0.3-0.9-0.8-1.6-1.4-2.3-1-0.9-2.3-1.5-3.7-1.6-0.7-0.1-12.4-0.1-13.1 0m-0.2 2c-1.3 0.3-2.4 1.2-2.9 2.4-0.3 0.8-0.3 0.4-0.3 7.7l0 6.6 0.1 0.3c0.5 1.3 1.3 2.2 2.4 2.6 0.7 0.3 0.4 0.3 7.5 0.3 7.1 0 6.8 0 7.5-0.3 1.1-0.4 2-1.4 2.4-2.6l0.1-0.4 0-6.7 0-6.7-0.1-0.4c-0.5-1.5-1.6-2.5-3.1-2.8-0.5-0.1-13.1-0.1-13.6 0m12.5 3c-0.8 0.2-0.9 1.3-0.2 1.8 0.4 0.2 1 0.1 1.3-0.3 0.5-0.8-0.2-1.8-1.1-1.5m-17.7 6.9c0 3.4 0 4.8 0 3.1 0-1.7 0-4.5 0-6.2 0-1.7 0-0.3 0 3.1m11.7-5c-1.8 0.2-3.4 1.2-4.1 2.8-0.7 1.3-0.7 2.8-0.2 4.1 0.8 1.9 2.6 3.1 4.6 3.1 2 0 3.8-1.2 4.6-3.1 0.9-2.2 0.1-4.8-1.9-6.1-0.9-0.5-2.1-0.8-3-0.8m-0.5 2.1c-1 0.3-1.9 1.2-2.1 2.2-0.1 0.4-0.1 1 0 1.4 0.2 1.1 1.1 2 2.1 2.2 0.2 0.1 0.5 0.1 0.8 0.1 0.3 0 0.6 0 0.8-0.1 0.9-0.2 1.7-1 2.1-1.9 0.1-0.4 0.1-1.3 0-1.7-0.2-1.1-1.1-1.9-2.1-2.2-0.4-0.1-1.2-0.1-1.6 0" stroke="none" fill="black" fill-rule="evenodd"></path></svg>