<?xml version="1.0"?><svg xmlns="http://www.w3.org/2000/svg" width="24" height="24" viewBox="0 0 24 24" version="1.1"><rect x="0" y="0" width="24" height="24" fill="#00000000"></rect><path fill-opacity="0.498" d="M14.6 8l-4.6 4.6 0-1.8 0-1.8-1 0-1 0 0 3.5 0 3.5 3.5 0 3.5 0 0-1 0-1-1.8 0-1.8 0 4.6-4.6 4.7-4.6-0.7-0.7c-0.4-0.4-0.7-0.7-0.7-0.7-0.1 0-2.2 2-4.7 4.6m-10.6 4l0 8 8 0 8 0 0-4 0-4-1 0-1 0 0 3 0 3-6 0-6 0 0-6 0-6 3 0 3 0 0-1 0-1-4 0-4 0 0 8" stroke="none" fill="black" fill-rule="evenodd"></path><path fill-opacity="0.063" d="M14.6 8l-4.6 4.6 0-1.8 0-1.8-1 0-1 0 0 3.5 0 3.5 3.5 0 3.5 0 0-1 0-1-1.8 0-1.8 0 4.6-4.6 4.6-4.6-0.6-0.7c-0.4-0.4-0.7-0.7-0.7-0.7-0.1 0-2.2 2-4.7 4.6m-10.6 4l0 8 8 0 8 0 0-4 0-4-1 0-1 0 0 3 0 3-6 0-6 0 0-6 0-6 3 0 3 0 0-1 0-1-4 0-4 0 0 8" stroke="none" fill="black" fill-rule="evenodd"></path><path fill-opacity="0.608" d="M14.6 8l-4.6 4.6 0-1.8 0-1.8-1 0-1 0 0 3.5 0 3.5 3.5 0 3.5 0 0-1 0-1-1.8 0-1.8 0 4.6-4.6 4.7-4.6-0.8-0.7-0.7-0.7-4.6 4.6m-10.6 4l0 8 8 0 8 0 0-4 0-4-1 0-1 0 0 3 0 3-6 0-6 0 0-6 0-6 3 0 3 0 0-1 0-1-4 0-4 0 0 8m6 2c0 0 0 0 0.1 0 0 0 0 0 0 0 0-0.1-0.1-0.1-0.1-0.1 0 0 0 0 0 0.1" stroke="none" fill="black" fill-rule="evenodd"></path><path fill-opacity="0.979" d="M14.6 8l-4.6 4.6 0-1.8 0-1.8-1 0-1 0 0 3.5 0 3.5 3.5 0 3.5 0 0-1 0-1-1.8 0-1.8 0 4.6-4.6 4.6-4.6-0.6-0.7c-0.4-0.4-0.7-0.7-0.7-0.7-0.1 0-2.2 2.1-4.7 4.6m-10.6 4l0 8 8 0 8 0 0-4 0-4-1 0-1 0 0 3 0 3-6 0-6 0 0-6 0-6 3 0 3 0 0-1 0-1-4 0-4 0 0 8m6 2c0 0 0 0 0.1 0 0 0 0 0 0 0 0-0.1-0.1-0.1-0.1-0.1 0 0 0 0 0 0.1" stroke="none" fill="black" fill-rule="evenodd"></path></svg>