<?xml version="1.0"?><svg xmlns="http://www.w3.org/2000/svg" width="24" height="24" viewBox="0 0 24 24" version="1.1"><rect x="0" y="0" width="24" height="24" fill="#00000000"></rect><path fill-opacity="0.337" d="M0.4 5.1c-0.1 0-0.2 0.1-0.3 0.1l-0.1 0.1 0 6.7 0 6.8 0.2 0.1 0.3 0.1 11.3 0c12.2 0 11.8 0 12.1-0.2l0.2-0.1 0-6.7c0-5.4-0.1-6.8-0.1-6.8 0 0-0.2 0-0.3-0.1-0.2-0.1-0.7-0.1-11.6-0.1-9.1 0-11.5 0-11.7 0.1m-0.4 6.9c0 3.7 0 5.3 0 3.4 0-1.9 0-4.9 0-6.8 0-1.9 0-0.3 0 3.4m1 0l0 5 11 0 11 0 0-5 0-5-11 0-11 0 0 5m2-2l0 1 1 0 1 0 0-1 0-1-1 0-1 0 0 1m4 0l0 1 1 0 1 0 0-1 0-1-1 0-1 0 0 1m4 0l0 1 1 0 1 0 0-1 0-1-1 0-1 0 0 1m4 0l0 1 1 0 1 0 0-1 0-1-1 0-1 0 0 1m4 0l0 1 1 0 1 0 0-1 0-1-1 0-1 0 0 1m-16 4l0 1 1 0 1 0 0-1 0-1-1 0-1 0 0 1m4 0l0 1 5 0 5 0 0-1 0-1-5 0-5 0 0 1m12 0l0 1 1 0 1 0 0-1 0-1-1 0-1 0 0 1" stroke="none" fill="black" fill-rule="evenodd"></path><path fill-opacity="0.237" d="M0.4 5.1l-0.4 0.1 0 6.8 0 6.8 0.4 0.1 0.3 0.1 11.4 0 11.4 0 0.3-0.2 0.3-0.1 0-6.8c0-4.6-0.1-6.7-0.1-6.7 0 0-0.1 0-0.1 0-0.1 0-0.2-0.1-0.4-0.1-0.2-0.1-1.6-0.1-11.5-0.1l-11.3 0-0.3 0.1m-0.4 6.9c0 3.7 0 5.3 0 3.4 0-1.9 0-4.9 0-6.8 0-1.9 0-0.3 0 3.4m1 0l0 5 11 0 11 0 0-5 0-5-11 0-11 0 0 5m2-2l0 1 1 0 1 0 0-1 0-1-1 0-1 0 0 1m4 0l0 1 1 0 1 0 0-1 0-1-1 0-1 0 0 1m4 0l0 1 1 0 1 0 0-1 0-1-1 0-1 0 0 1m4 0l0 1 1 0 1 0 0-1 0-1-1 0-1 0 0 1m4 0l0 1 1 0 1 0 0-1 0-1-1 0-1 0 0 1m-16 4l0 1 1 0 1 0 0-1 0-1-1 0-1 0 0 1m4 0l0 1 5 0 5 0 0-1 0-1-5 0-5 0 0 1m12 0l0 1 1 0 1 0 0-1 0-1-1 0-1 0 0 1" stroke="none" fill="black" fill-rule="evenodd"></path><path fill-opacity="0.442" d="M0.6 5c-0.1 0.1-0.3 0.1-0.4 0.2l-0.2 0.1 0 6.7 0 6.7 0.3 0.2 0.2 0.1 11.5 0 11.4 0 0.3-0.2 0.3-0.1 0-6.7c0-3.8 0-6.8 0-6.8 0 0-0.2 0-0.3-0.1l-0.3-0.1-11.3 0c-6.3 0-11.5 0-11.5 0m-0.6 7c0 3.7 0 5.3 0 3.4 0-1.9 0-4.9 0-6.8 0-1.9 0-0.3 0 3.4m1 0l0 5 11 0 11 0 0-5 0-5-11 0-11 0 0 5m2-2l0 1 1 0 1 0 0-1 0-1-1 0-1 0 0 1m4 0l0 1 1 0 1 0 0-1 0-1-1 0-1 0 0 1m4 0l0 1 1 0 1 0 0-1 0-1-1 0-1 0 0 1m4 0l0 1 1 0 1 0 0-1 0-1-1 0-1 0 0 1m4 0l0 1 1 0 1 0 0-1 0-1-1 0-1 0 0 1m-16 4l0 1 1 0 1 0 0-1 0-1-1 0-1 0 0 1m4 0l0 1 5 0 5 0 0-1 0-1-5 0-5 0 0 1m12 0l0 1 1 0 1 0 0-1 0-1-1 0-1 0 0 1" stroke="none" fill="black" fill-rule="evenodd"></path><path fill-opacity="0.972" d="M0.6 5.1c-0.1 0-0.3 0-0.4 0.1l-0.2 0.1 0 6.7 0 6.7 0.3 0.2 0.3 0.1 11.2 0c7.7 0 11.2 0 11.5-0.1 0.2 0 0.4-0.1 0.5-0.1l0.3-0.1 0-6.8c0-3.7-0.1-6.7-0.1-6.7 0 0-0.2 0-0.3-0.1l-0.3-0.1-11.3 0c-6.2 0-11.4 0-11.5 0.1m-0.6 6.9c0 3.7 0 5.3 0 3.4 0-1.9 0-4.9 0-6.8 0-1.9 0-0.3 0 3.4m1 0l0 5 11 0 11 0 0-5 0-5-11 0-11 0 0 5m2-2l0 1 1 0 1 0 0-1 0-1-1 0-1 0 0 1m4 0l0 1 1 0 1 0 0-1 0-1-1 0-1 0 0 1m4 0l0 1 1 0 1 0 0-1 0-1-1 0-1 0 0 1m4 0l0 1 1 0 1 0 0-1 0-1-1 0-1 0 0 1m4 0l0 1 1 0 1 0 0-1 0-1-1 0-1 0 0 1m-16 4l0 1 1 0 1 0 0-1 0-1-1 0-1 0 0 1m4 0l0 1 5 0 5 0 0-1 0-1-5 0-5 0 0 1m12 0l0 1 1 0 1 0 0-1 0-1-1 0-1 0 0 1" stroke="none" fill="black" fill-rule="evenodd"></path></svg>