<?xml version="1.0"?><svg xmlns="http://www.w3.org/2000/svg" width="24" height="24" viewBox="0 0 24 24" version="1.1"><rect x="0" y="0" width="24" height="24" fill="#00000000"></rect><path fill-opacity="0.392" d="M4.4 6.1c-0.4 0.1-0.6 0.3-0.9 0.6-0.2 0.3-0.3 0.4-0.4 0.7-0.1 0.4-0.1 8.8 0 9.2 0.2 0.6 0.7 1.2 1.4 1.3 0.4 0.1 14.6 0.1 15 0 0.7-0.1 1.2-0.7 1.4-1.3 0.1-0.4 0.1-8.7 0-9.1-0.1-0.5-0.5-1.1-1-1.3-0.4-0.2-0.2-0.2-7.9-0.2-6.8 0-7.4 0-7.6 0.1m0.6 5.9l0 4 7 0 7 0 0-4 0-4-7 0-7 0 0 4m-3.4 7.1c-0.8 0.4-0.8 1.5 0 1.8 0.2 0.1 1.3 0.1 10.4 0.1 11.1 0 10.4 0 10.7-0.3 0.4-0.3 0.4-1.1 0-1.4-0.3-0.3 0.4-0.3-10.7-0.3-9.8 0-10.2 0-10.4 0.1" stroke="none" fill="black" fill-rule="evenodd"></path><path fill-opacity="0.329" d="M4.5 6.1c-0.6 0.1-1 0.5-1.3 1.1l-0.2 0.3 0 4.5 0 4.5 0.2 0.3c0.2 0.4 0.6 0.8 1 1l0.3 0.2 7.5 0 7.5 0 0.3-0.2c0.4-0.2 0.8-0.6 1-1l0.2-0.3 0-4.5 0-4.5-0.2-0.3c-0.1-0.4-0.4-0.7-0.7-0.9-0.6-0.3-0.1-0.3-8.1-0.3-6 0-7.3 0-7.5 0.1m0.5 5.9l0 4 7 0 7 0 0-4 0-4-7 0-7 0 0 4m-3.4 7.1c-0.8 0.3-0.8 1.4-0.1 1.8l0.3 0.1 10.2 0 10.2 0 0.3-0.1c0.1-0.1 0.2-0.2 0.3-0.3 0.2-0.2 0.2-0.3 0.2-0.6 0-0.3 0-0.4-0.2-0.6-0.1-0.1-0.2-0.2-0.3-0.3-0.2-0.1-0.2-0.1-10.4-0.1-8.6 0-10.3 0-10.5 0.1" stroke="none" fill="black" fill-rule="evenodd"></path><path fill-opacity="0.644" d="M4.6 6.1c-0.6 0.1-1.1 0.5-1.4 1-0.2 0.4-0.2 0.6-0.2 5.1l0 4.2 0.1 0.3c0.3 0.5 0.7 1 1.3 1.2 0.2 0.1 0.6 0.1 7.6 0.1 7 0 7.4 0 7.7-0.1 0.5-0.2 0.9-0.7 1.2-1.2l0.1-0.3 0-4.4 0-4.4-0.1-0.3c-0.3-0.5-0.7-0.9-1.2-1.2l-0.3-0.1-7.3 0c-4 0-7.4 0-7.5 0.1m0.4 5.9l0 4 7 0 7 0 0-4 0-4-7 0-7 0 0 4m-3.3 7c-0.4 0.2-0.7 0.6-0.7 1.1 0.1 0.3 0.3 0.6 0.6 0.8l0.2 0.1 10.2 0 10.2 0 0.2-0.1c0.7-0.4 0.8-1.4 0.1-1.8l-0.2-0.1-10.2 0c-5.6 0-10.3 0-10.4 0" stroke="none" fill="black" fill-rule="evenodd"></path><path fill-opacity="0.946" d="M4.7 6.1c-0.8 0.1-1.5 0.8-1.6 1.6-0.1 0.4-0.1 8.2 0 8.6 0.1 0.9 0.8 1.5 1.6 1.6 0.5 0.1 14.1 0.1 14.6 0 0.4 0 0.7-0.2 1.1-0.5 0.3-0.3 0.5-0.7 0.5-1.1 0.1-0.5 0.1-8.1 0-8.6 0-0.4-0.2-0.8-0.5-1.1-0.4-0.3-0.7-0.5-1.1-0.5-0.5-0.1-14.2-0.1-14.6 0m0.3 5.9l0 4 7 0 7 0 0-4 0-4-7 0-7 0 0 4m-3.3 7.1c-0.8 0.2-0.9 1.3-0.2 1.8l0.2 0.1 10.3 0 10.3 0 0.2-0.1c0.7-0.5 0.6-1.7-0.3-1.8-0.4-0.1-20.1-0.1-20.5 0" stroke="none" fill="black" fill-rule="evenodd"></path></svg>