<?xml version="1.0"?><svg xmlns="http://www.w3.org/2000/svg" width="24" height="24" viewBox="0 0 24 24" version="1.1"><rect x="0" y="0" width="24" height="24" fill="#00000000"></rect><path fill-opacity="0.376" d="M10.9 3.1c-2 0.3-3.6 1-4.9 2.2l-0.2 0.2 6.4 6.3 6.3 6.4 0.4-0.4c1-1.2 1.7-2.7 2-4.2 0.1-0.8 0.1-2.4 0-3.2-0.8-4.3-4.6-7.4-8.9-7.4-0.5 0-0.9 0-1.1 0.1m-6 3.3c-0.2 0.3-0.6 0.9-0.8 1.2l-0.1 0.3 6 6.1 6.1 6 0.3-0.1c0.3-0.2 1-0.7 1.2-0.9l0.2-0.1-6.3-6.4-6.4-6.3-0.2 0.2m-1.4 2.6c-0.1 0.4-0.3 1.1-0.4 1.6l-0.1 0.6 4.9 4.9 4.9 4.9 0.6-0.1c0.5-0.1 1.6-0.4 1.7-0.4 0-0.1-2.6-2.7-5.8-5.8l-5.7-5.8-0.1 0.1m-0.5 3.8c0.2 1.2 0.5 2.2 1 3.3l0.3 0.6 1.5 1.5 1.5 1.5 0.7 0.3c0.3 0.2 0.9 0.4 1.2 0.6 0.7 0.2 1.7 0.4 2 0.3 0.1 0 0.1 0-4-4.1l-4.2-4.2 0 0.2" stroke="none" fill="black" fill-rule="evenodd"></path><path fill-opacity="0.214" d="M11 3.1c-1.6 0.1-3.2 0.8-4.4 1.7-0.2 0.2-0.5 0.4-0.6 0.5l-0.2 0.2 6.4 6.3 6.3 6.4 0.3-0.4c2.6-3 2.9-7.4 0.7-10.7-0.5-0.9-1.4-1.8-2.3-2.4-0.5-0.4-1.8-1-2.4-1.2-1.2-0.4-2.6-0.6-3.8-0.4m-6.2 3.5c-0.3 0.4-0.7 1.1-0.8 1.3 0 0 1.9 1.9 6 6.1l6.1 6 0.3-0.1c0.3-0.2 1-0.7 1.2-0.9l0.2-0.1-6.3-6.4-6.4-6.3-0.3 0.4m-1.3 2.4c-0.1 0.3-0.3 1.3-0.4 1.7l-0.1 0.5 4.9 4.9 4.9 4.9 0.4-0.1c0.5-0.1 1.4-0.3 1.7-0.4l0.2-0.1-5.8-5.7-5.7-5.8-0.1 0.1m-0.4 4c0.1 0.9 0.4 2 0.9 3.1l0.3 0.6 1.5 1.5 1.5 1.5 0.6 0.3c0.7 0.3 1.3 0.6 1.9 0.7 0.5 0.1 1.3 0.3 1.5 0.2 0 0-1.2-1.2-4.1-4.1l-4.2-4.2 0.1 0.4" stroke="none" fill="black" fill-rule="evenodd"></path><path fill-opacity="0.336" d="M11.2 3c-1.8 0.2-3.6 1-5 2.1l-0.4 0.4 6.4 6.3 6.3 6.4 0.2-0.2c1.2-1.3 2-3 2.2-4.8 0.1-0.5 0.1-1.9 0-2.4-0.3-2.1-1.2-3.8-2.6-5.2-1.6-1.6-3.7-2.5-6-2.6-0.4 0-0.9 0-1.1 0m-6.4 3.6c-0.2 0.3-0.4 0.7-0.6 0.9l-0.2 0.4 6 6.1 6.1 6 0.4-0.2c0.5-0.3 1.3-0.8 1.3-0.9 0-0.1-2.9-2.9-6.4-6.4l-6.3-6.3-0.3 0.4m-1.4 2.7c-0.1 0.5-0.2 0.9-0.3 1.5l-0.1 0.4 4.9 4.9 4.9 4.9 0.7-0.1c0.3-0.1 0.9-0.2 1.1-0.3l0.5-0.2-5.8-5.7c-3.1-3.2-5.7-5.8-5.7-5.8 0 0-0.1 0.2-0.2 0.4m-0.3 3.5c0 0.2 0.1 1.1 0.2 1.5 0.2 0.6 0.4 1.2 0.7 1.8l0.3 0.5 1.5 1.6 1.5 1.5 0.7 0.3c0.3 0.2 0.9 0.4 1.2 0.5 0.6 0.2 1.8 0.5 2 0.4 0.1 0-0.4-0.6-4-4.1-3.6-3.6-4.1-4.2-4.1-4" stroke="none" fill="black" fill-rule="evenodd"></path><path fill-opacity="0.976" d="M11.3 3c-1.8 0.2-3.6 0.9-5.1 2.1-0.2 0.2-0.3 0.3-0.3 0.4-0.1 0 12.5 12.7 12.6 12.6 0.1 0 0.2-0.1 0.3-0.2 1.3-1.6 2-3.3 2.1-5.3 0.3-3.6-1.6-7-4.8-8.6-1.5-0.7-3.2-1.1-4.8-1m-6.5 3.6c-0.2 0.2-0.4 0.6-0.5 0.8l-0.3 0.5 6.1 6 6 6.1 0.3-0.2c0.3-0.2 0.8-0.5 1.1-0.7 0.1-0.1 0.2-0.2 0.2-0.2 0.1 0-12.6-12.7-12.6-12.6 0 0-0.1 0.1-0.3 0.3m-1.4 2.7c-0.1 0.4-0.3 1.1-0.3 1.7l-0.1 0.2 4.9 4.9 4.9 4.9 0.7-0.2c0.3 0 0.8-0.1 1.1-0.2l0.5-0.2-5.8-5.7-5.7-5.8-0.2 0.4m-0.3 3.7c0.1 1 0.4 2 0.9 3l0.3 0.7 1.5 1.5 1.6 1.5 0.6 0.3c0.3 0.2 0.9 0.4 1.3 0.5 0.6 0.2 1.8 0.5 2 0.4 0 0-1.5-1.5-4.1-4.1l-4.2-4.2 0.1 0.4" stroke="none" fill="black" fill-rule="evenodd"></path></svg>