<?xml version="1.0"?><svg xmlns="http://www.w3.org/2000/svg" width="24" height="24" viewBox="0 0 24 24" version="1.1"><rect x="0" y="0" width="24" height="24" fill="#00000000"></rect><path fill-opacity="0.416" d="M14.7 3.5c-0.5 0.1-0.9 0.3-1.5 0.5-0.6 0.4-0.9 0.7-2.2 1.9l-1.1 1.2 0.7 0.7 0.7 0.7 1.3-1.3c1.3-1.3 1.5-1.4 2.2-1.6 0.3-0.1 1-0.1 1.4 0 1.3 0.2 2.3 1.4 2.3 2.8 0 0.6-0.1 1-0.3 1.5-0.2 0.3-0.4 0.5-1.4 1.6l-1.3 1.2 0.7 0.7 0.8 0.7 1.2-1.2c1.3-1.3 1.5-1.6 1.8-2.2 0.8-1.7 0.7-3.5-0.3-5-0.5-0.7-1.3-1.4-2.1-1.8-0.9-0.4-2-0.5-2.9-0.4m-0.9 5.4c-0.2 0.1-0.4 0.2-2.5 2.3-1.3 1.3-2.3 2.4-2.3 2.5-0.4 0.7 0.4 1.7 1.2 1.4 0.2-0.1 0.6-0.4 2.5-2.3 1.3-1.4 2.2-2.4 2.3-2.5 0.3-0.6-0.1-1.3-0.7-1.4-0.1 0-0.3 0-0.5 0m-8 2.3c-0.7 0.7-1.4 1.4-1.5 1.5-0.8 1.3-1 2.7-0.7 4.1 0.6 2.1 2.4 3.6 4.6 3.7 1.1 0.1 2.4-0.3 3.3-1 0.2-0.1 0.8-0.8 1.5-1.4l1.1-1.2-0.7-0.7-0.7-0.7-1.2 1.3c-0.7 0.6-1.4 1.2-1.5 1.3-0.1 0.1-0.4 0.2-0.6 0.3-0.6 0.2-1.3 0.2-1.8 0-1.3-0.4-2.1-1.5-2.1-2.8 0-0.6 0.1-1 0.3-1.5 0.2-0.3 0.4-0.5 1.4-1.6l1.3-1.2-0.7-0.7c-0.4-0.4-0.7-0.7-0.8-0.7 0 0-0.5 0.6-1.2 1.3" stroke="none" fill="black" fill-rule="evenodd"></path><path fill-opacity="0.349" d="M14.9 3.5c-0.7 0.1-1.5 0.4-2.2 0.8-0.2 0.2-0.8 0.7-1.6 1.5l-1.2 1.2 0.7 0.8 0.7 0.7 1.3-1.3c1.1-1.1 1.3-1.3 1.6-1.4 0.4-0.2 1-0.3 1.3-0.3 0.4 0 1 0.1 1.4 0.3 0.7 0.4 1.3 1 1.5 1.9 0.2 0.4 0.1 1.2 0 1.6-0.2 0.7-0.3 0.9-1.6 2.2l-1.3 1.2 0.7 0.7 0.8 0.7 1.2-1.2c1.3-1.3 1.6-1.7 1.9-2.4 0.9-1.9 0.4-4.2-1.1-5.6-0.8-0.8-1.8-1.3-2.9-1.4-0.5-0.1-0.7-0.1-1.2 0m-1.2 5.5c-0.3 0.1-4.6 4.5-4.7 4.7-0.1 0.2-0.1 0.6 0 0.8 0 0.2 0.3 0.4 0.5 0.5 0.2 0.2 0.6 0.1 0.9 0 0.1-0.1 1.2-1.1 2.4-2.4 2.4-2.4 2.3-2.3 2.3-2.8 0-0.3-0.2-0.6-0.4-0.8-0.3-0.1-0.7-0.1-1 0m-7.9 2.1c-1.3 1.3-1.6 1.7-1.9 2.4-0.3 0.7-0.5 1.7-0.4 2.5 0.1 0.6 0.1 0.9 0.4 1.4 0.5 1.4 1.7 2.5 3.2 2.9 1.3 0.4 2.7 0.2 3.9-0.5 0.5-0.2 1-0.7 2.2-1.9l0.9-1-0.7-0.7-0.7-0.7-1.3 1.3c-1.3 1.3-1.5 1.4-2.1 1.6-0.4 0.2-1.2 0.2-1.6 0-1.1-0.3-1.8-1.1-2.1-2.1-0.2-0.4-0.1-1.1 0-1.6 0.2-0.7 0.3-0.8 1.6-2.2l1.3-1.2-0.7-0.7c-0.4-0.4-0.7-0.7-0.8-0.7 0 0-0.5 0.6-1.2 1.2" stroke="none" fill="black" fill-rule="evenodd"></path><path fill-opacity="0.330" d="M15.1 3.5c-0.5 0.1-1 0.2-1.5 0.4-0.8 0.3-1.1 0.6-2.5 1.9l-1.2 1.3 0.7 0.7 0.7 0.6 1.1-1.1c1.3-1.2 1.4-1.3 1.9-1.6 0.9-0.4 2-0.3 2.9 0.3 0.6 0.4 0.9 0.8 1.2 1.5 0.2 0.6 0.2 1.3 0 1.8-0.2 0.7-0.4 0.9-1.7 2.2l-1.1 1.2 0.6 0.7 0.7 0.7 1.3-1.3c1.1-1.1 1.4-1.4 1.6-1.7 0.5-0.8 0.7-1.7 0.7-2.6 0-1.1-0.3-2-0.9-2.9-0.7-1.1-2.2-2-3.5-2.1-0.2 0-0.4 0-0.5 0-0.1 0-0.3 0-0.5 0m-1.4 5.5c-0.2 0.1-4.4 4.2-4.6 4.6-0.4 0.6 0 1.4 0.7 1.5 0.5 0 0.4 0.1 2.8-2.3 1.2-1.2 2.3-2.3 2.3-2.4 0.2-0.2 0.2-0.6 0.2-0.8-0.1-0.3-0.4-0.5-0.6-0.6-0.2-0.1-0.6-0.1-0.8 0m-7.9 2.2c-1.1 1.1-1.4 1.4-1.6 1.7-0.8 1.3-0.9 3-0.4 4.3 0.6 1.6 1.7 2.6 3.2 3.1 1.1 0.3 2.3 0.3 3.4-0.2 0.7-0.3 1-0.5 2.4-1.9l1.3-1.3-0.7-0.7-0.7-0.6-1.1 1.1c-0.6 0.6-1.2 1.2-1.3 1.2-0.5 0.4-1.1 0.6-1.6 0.6-1.4 0.1-2.6-0.7-3.1-2-0.2-0.6-0.2-1.3 0-1.8 0.2-0.7 0.4-0.9 1.7-2.2l1.1-1.2-0.6-0.7-0.7-0.7-1.3 1.3" stroke="none" fill="black" fill-rule="evenodd"></path><path fill-opacity="0.969" d="M15.2 3.5c-0.9 0.1-2 0.5-2.6 1-0.2 0.1-0.9 0.8-1.5 1.4l-1.2 1.2 0.7 0.6 0.7 0.7 1.2-1.2c0.8-0.7 1.3-1.2 1.5-1.3 1.2-0.7 2.7-0.5 3.7 0.4 0.4 0.5 0.6 0.9 0.8 1.4 0.1 0.8 0.1 1.4-0.3 2.1-0.2 0.5-0.2 0.5-1.4 1.7l-1.2 1.2 0.7 0.7 0.6 0.7 1.2-1.2c1.3-1.3 1.6-1.6 1.9-2.3 1.7-3.4-1-7.4-4.8-7.1m-1.4 5.5c-0.2 0-4.7 4.5-4.8 4.7-0.3 0.7 0.2 1.4 0.9 1.4 0.1 0 0.3 0 0.4-0.1 0.3-0.1 4.6-4.5 4.7-4.8 0.3-0.7-0.4-1.5-1.2-1.2m-8 2.2c-1.3 1.3-1.5 1.6-1.9 2.3-0.7 1.6-0.5 3.7 0.7 5.1 1.4 1.9 4 2.4 6.1 1.4 0.6-0.3 0.9-0.6 2.1-1.8l1.3-1.3-0.7-0.6-0.7-0.7-1.2 1.1c-1.2 1.3-1.5 1.5-2.1 1.7-0.3 0.1-0.5 0.1-1 0.1-0.5 0-0.6 0-0.9-0.1-0.5-0.2-0.9-0.4-1.2-0.8-0.9-1-1.1-2.3-0.4-3.6 0.1-0.2 0.4-0.5 1.3-1.5l1.2-1.2-0.7-0.7c-0.3-0.3-0.6-0.6-0.7-0.6 0 0-0.5 0.5-1.2 1.2" stroke="none" fill="black" fill-rule="evenodd"></path></svg>