<?xml version="1.0"?><svg xmlns="http://www.w3.org/2000/svg" width="24" height="24" viewBox="0 0 24 24" version="1.1"><rect x="0" y="0" width="24" height="24" fill="#00000000"></rect><path fill-opacity="0.408" d="M3.4 2c-1 0.3-1.9 1-2.3 2l-0.1 0.4 0 7.6 0 7.6 0.1 0.3c0.3 0.9 1.1 1.7 1.9 2l0.4 0.1 8.6 0 8.6 0 0.4-0.1c0.8-0.3 1.6-1.1 1.9-2l0.1-0.3 0-7.6 0-7.6-0.1-0.3c-0.3-0.9-1-1.6-1.9-2l-0.3-0.1-8.6 0c-4.7 0-8.6 0-8.7 0m0.1 2.1c-0.2 0.2-0.2 0.2-0.4 0.4l-0.1 0.3 0 7.2 0 7.3 0.1 0.2c0.1 0.1 0.3 0.3 0.4 0.3l0.2 0.2 8.3 0 8.3 0 0.2-0.2c0.1 0 0.3-0.2 0.4-0.3l0.1-0.2 0-7.3 0-7.3-0.2-0.2c-0.1-0.2-0.2-0.3-0.4-0.4l-0.2-0.1-8.2 0-8.2 0-0.3 0.1m2.5 3.9l0 1 1 0 1 0 0-1 0-1-1 0-1 0 0 1m4.6-0.9c-0.8 0.4-0.8 1.5 0 1.8 0.2 0.1 0.6 0.1 3.4 0.1 3 0 3.2 0 3.4-0.1 0.5-0.2 0.7-0.8 0.5-1.3-0.1-0.2-0.2-0.4-0.5-0.5-0.2-0.1-0.4-0.1-3.4-0.1-3 0-3.2 0-3.4 0.1m-4.6 4.9l0 1 1 0 1 0 0-1 0-1-1 0-1 0 0 1m4.6-0.9c-0.8 0.4-0.8 1.5 0 1.8 0.2 0.1 0.6 0.1 3.4 0.1 3 0 3.2 0 3.4-0.1 0.5-0.2 0.7-0.8 0.5-1.3-0.1-0.2-0.2-0.4-0.5-0.5-0.2-0.1-0.4-0.1-3.4-0.1-3 0-3.2 0-3.4 0.1m-4.6 4.9l0 1 1 0 1 0 0-1 0-1-1 0-1 0 0 1m4.6-0.9c-0.8 0.4-0.8 1.5 0 1.8 0.2 0.1 0.6 0.1 3.4 0.1 3 0 3.2 0 3.4-0.1 0.5-0.2 0.7-0.8 0.5-1.3-0.1-0.2-0.2-0.4-0.5-0.5-0.2-0.1-0.4-0.1-3.4-0.1-3 0-3.2 0-3.4 0.1" stroke="none" fill="black" fill-rule="evenodd"></path><path fill-opacity="0.238" d="M3.4 2.1c-0.2 0-0.5 0.1-0.7 0.2-0.3 0.2-0.5 0.3-0.8 0.6-0.5 0.5-0.7 0.9-0.8 1.4-0.1 0.5-0.1 14.9 0 15.4 0.1 0.5 0.3 0.9 0.8 1.4 0.5 0.5 0.9 0.7 1.4 0.8 0.5 0.1 16.9 0.1 17.4 0 0.5-0.1 0.9-0.3 1.4-0.8 0.4-0.4 0.7-0.9 0.8-1.4 0.1-0.5 0.1-14.9 0-15.4-0.1-0.5-0.3-0.9-0.8-1.4-0.3-0.3-0.5-0.4-0.8-0.6-0.2-0.1-0.6-0.2-0.7-0.2-0.4-0.1-16.9-0.1-17.2 0m0.1 2c-0.1 0.1-0.2 0.2-0.3 0.3l-0.2 0.3 0 7.3 0 7.3 0.2 0.3c0.1 0.1 0.2 0.2 0.3 0.3l0.3 0.1 8.2 0 8.2 0 0.3-0.1c0.1-0.1 0.2-0.2 0.3-0.3l0.2-0.3 0-7.3 0-7.3-0.2-0.3c-0.1-0.1-0.2-0.2-0.3-0.3l-0.3-0.1-8.2 0-8.2 0-0.3 0.1m2.5 3.9l0 1 1 0 1 0 0-1 0-1-1 0-1 0 0 1m4.6-0.9c-0.1 0-0.2 0.1-0.3 0.2-0.5 0.5-0.3 1.3 0.2 1.6l0.3 0.1 3.2 0 3.2 0 0.3-0.1c0.1-0.1 0.2-0.2 0.3-0.3 0.2-0.2 0.2-0.3 0.2-0.6 0-0.3 0-0.4-0.2-0.6-0.1-0.1-0.2-0.2-0.3-0.3-0.2-0.1-0.2-0.1-3.4-0.1-2.7 0-3.3 0-3.5 0.1m-4.6 4.9l0 1 1 0 1 0 0-1 0-1-1 0-1 0 0 1m4.6-0.9c-0.1 0-0.2 0.1-0.3 0.2-0.5 0.5-0.3 1.3 0.2 1.6l0.3 0.1 3.2 0 3.2 0 0.3-0.1c0.1-0.1 0.2-0.2 0.3-0.3 0.2-0.2 0.2-0.3 0.2-0.6 0-0.3 0-0.4-0.2-0.6-0.1-0.1-0.2-0.2-0.3-0.3-0.2-0.1-0.2-0.1-3.4-0.1-2.7 0-3.3 0-3.5 0.1m-4.6 4.9l0 1 1 0 1 0 0-1 0-1-1 0-1 0 0 1m4.6-0.9c-0.1 0-0.2 0.1-0.3 0.2-0.5 0.5-0.3 1.3 0.2 1.6l0.3 0.1 3.2 0 3.2 0 0.3-0.1c0.1-0.1 0.2-0.2 0.3-0.3 0.2-0.2 0.2-0.3 0.2-0.6 0-0.3 0-0.4-0.2-0.6-0.1-0.1-0.2-0.2-0.3-0.3-0.2-0.1-0.2-0.1-3.4-0.1-2.7 0-3.3 0-3.5 0.1" stroke="none" fill="black" fill-rule="evenodd"></path><path fill-opacity="0.644" d="M3.4 2.1c-0.9 0.2-1.7 0.8-2.1 1.6-0.3 0.7-0.3 0.2-0.3 8.5 0 7 0 7.4 0.1 7.7 0.3 0.7 0.9 1.4 1.6 1.8 0.7 0.3 0.1 0.3 9.3 0.3 7.1 0 8.3 0 8.6-0.1 1.1-0.2 2-1 2.3-2.1 0.1-0.3 0.1-0.6 0.1-7.8l0-7.5-0.1-0.4c-0.4-1-1.2-1.8-2.3-2-0.5-0.1-16.8-0.1-17.2 0m0.2 2c-0.3 0.1-0.4 0.3-0.5 0.5-0.1 0.2-0.1 1-0.1 7.4 0 6.4 0 7.2 0.1 7.4 0.1 0.2 0.2 0.4 0.5 0.5 0.1 0.1 0.4 0.1 8.4 0.1l8.3 0 0.2-0.1c0.1-0.1 0.2-0.2 0.3-0.3l0.2-0.3 0-7.2c0-5 0-7.3 0-7.4-0.1-0.3-0.3-0.5-0.6-0.6-0.2-0.1-0.5-0.1-8.4-0.1-7.9 0-8.2 0-8.4 0.1m2.4 3.9l0 1 1 0 1 0 0-1 0-1-1 0-1 0 0 1m4.7-1c-0.4 0.2-0.7 0.6-0.7 1.1 0.1 0.3 0.3 0.6 0.6 0.8l0.2 0.1 3.2 0 3.2 0 0.2-0.1c0.7-0.4 0.8-1.4 0.1-1.7l-0.2-0.2-3.2 0c-1.8 0-3.3 0-3.4 0m-4.7 5l0 1 1 0 1 0 0-1 0-1-1 0-1 0 0 1m4.7-1c-0.4 0.2-0.7 0.6-0.7 1.1 0.1 0.3 0.3 0.6 0.6 0.8l0.2 0.1 3.2 0 3.2 0 0.2-0.1c0.7-0.4 0.8-1.4 0.1-1.7l-0.2-0.2-3.2 0c-1.8 0-3.3 0-3.4 0m-4.7 5l0 1 1 0 1 0 0-1 0-1-1 0-1 0 0 1m4.7-1c-0.4 0.2-0.7 0.6-0.7 1.1 0.1 0.3 0.3 0.6 0.6 0.8l0.2 0.1 3.2 0 3.2 0 0.2-0.1c0.7-0.4 0.8-1.4 0.1-1.7l-0.2-0.2-3.2 0c-1.8 0-3.3 0-3.4 0" stroke="none" fill="black" fill-rule="evenodd"></path><path fill-opacity="0.951" d="M3.6 2.1c-0.4 0-0.9 0.2-1.2 0.4-0.4 0.2-0.9 0.7-1 1.1-0.4 0.7-0.4 0.1-0.4 8.1 0 4.5 0 7.4 0 7.6 0.1 0.6 0.3 1 0.5 1.4 0.4 0.6 1 1 1.7 1.2 0.3 0.1 0.7 0.1 8.8 0.1 8.1 0 8.5 0 8.8-0.1 0.7-0.2 1.3-0.6 1.7-1.2 0.2-0.4 0.4-0.8 0.5-1.4 0-0.2 0-3.1 0-7.6 0-8 0-7.4-0.4-8.1-0.3-0.6-0.9-1.2-1.7-1.4l-0.4-0.2-8.3 0c-4.6 0-8.5 0-8.6 0.1m-0.1 2c-0.1 0.1-0.2 0.2-0.3 0.3l-0.2 0.2 0 7.4 0 7.4 0.2 0.2c0.1 0.1 0.2 0.2 0.3 0.3l0.1 0.1 8.4 0 8.4 0 0.1-0.1c0.1-0.1 0.2-0.2 0.3-0.3l0.2-0.2 0-7.4 0-7.4-0.2-0.2c-0.1-0.1-0.2-0.2-0.3-0.3l-0.2-0.1-8.3 0-8.3 0-0.2 0.1m2.5 3.9l0 1 1 0 1 0 0-1 0-1-1 0-1 0 0 1m4.7-0.9c-0.8 0.2-0.9 1.3-0.2 1.8l0.2 0.1 3.3 0 3.3 0 0.2-0.1c0.7-0.5 0.6-1.7-0.3-1.8-0.4-0.1-6.1-0.1-6.5 0m-4.7 4.9l0 1 1 0 1 0 0-1 0-1-1 0-1 0 0 1m4.7-0.9c-0.8 0.2-0.9 1.3-0.2 1.8l0.2 0.1 3.3 0 3.3 0 0.2-0.1c0.7-0.5 0.6-1.7-0.3-1.8-0.4-0.1-6.1-0.1-6.5 0m-4.7 4.9l0 1 1 0 1 0 0-1 0-1-1 0-1 0 0 1m4.7-0.9c-0.8 0.2-0.9 1.3-0.2 1.8l0.2 0.1 3.3 0 3.3 0 0.2-0.1c0.7-0.5 0.6-1.7-0.3-1.8-0.4-0.1-6.1-0.1-6.5 0" stroke="none" fill="black" fill-rule="evenodd"></path></svg>