<?xml version="1.0"?><svg xmlns="http://www.w3.org/2000/svg" width="24" height="24" viewBox="0 0 24 24" version="1.1"><rect x="0" y="0" width="24" height="24" fill="#00000000"></rect><path fill-opacity="0.373" d="M11.4 2.4c0 0.2 0.1 0.7 0.1 1l0 0.6 0.7 0c0.3 0 0.8 0.1 1.1 0.1 0.2 0.1 0.5 0.1 0.5 0.1 0-0.1 0.4-1.9 0.4-2-0.1 0-1.1-0.2-1.9-0.2l-0.9 0 0 0.4m-2.7 0.2c-0.5 0.1-1.5 0.6-1.5 0.7 0 0 0.7 1.3 0.9 1.6l0 0.1 0.5-0.2c0.2-0.1 0.6-0.3 0.8-0.3 0.3-0.2 0.4-0.2 0.4-0.3-0.1 0-0.2-0.5-0.3-0.9-0.1-0.5-0.2-0.9-0.2-0.9 0 0-0.3 0-0.6 0.2m7.2 1.3c-0.3 0.4-0.4 0.9-0.4 0.9 0 0 0.1 0.1 0.4 0.2 0.2 0.2 0.6 0.4 0.7 0.5 0.2 0.1 0.3 0.2 0.3 0.2 0.1 0 1.3-1.5 1.2-1.6 0-0.1-1.6-1.1-1.8-1.1 0 0-0.2 0.4-0.4 0.9m-11 1.1c-0.4 0.4-1 1.1-1 1.1 0 0.1 1.5 1.2 1.6 1.2 0 0 0.2-0.1 0.3-0.3 0.1-0.2 0.4-0.5 0.6-0.7l0.3-0.3-0.6-0.7c-0.4-0.4-0.7-0.7-0.7-0.7-0.1 0-0.3 0.1-0.5 0.4m14.1 1.3c-0.4 0.4-0.8 0.7-0.8 0.7 0 0 0.2 0.2 0.3 0.4 0.2 0.2 0.4 0.5 0.5 0.7 0.1 0.2 0.2 0.4 0.2 0.4 0 0 1.8-0.9 1.8-0.9 0-0.2-1.1-1.9-1.2-1.9-0.1 0-0.4 0.3-0.8 0.6m-8-0.2c-2.9 0.5-5 3-5 5.9 0 2.3 1.3 4.4 3.3 5.4 2.7 1.3 5.9 0.5 7.6-1.9 2.3-3.3 0.8-7.9-3-9.2-0.9-0.3-2-0.4-2.9-0.2m0.5 1.9c-1.3 0.2-2.5 1-3.1 2.2-0.3 0.7-0.4 1.1-0.4 1.8 0 0.5 0.1 0.7 0.2 1.1 0.2 0.7 0.5 1.2 1 1.7 0.4 0.4 0.5 0.5 1 0.7 0.6 0.3 1.2 0.5 1.8 0.5 0.6 0 1.2-0.2 1.8-0.5 0.5-0.2 0.6-0.3 1-0.7 0.5-0.5 0.8-1 1-1.7 0.1-0.4 0.2-0.6 0.2-1.1 0-0.5-0.1-0.7-0.2-1.1-0.2-0.7-0.5-1.2-1-1.7-0.4-0.4-0.5-0.5-1-0.7-0.3-0.2-0.7-0.3-0.8-0.4-0.5-0.1-1.1-0.1-1.5-0.1m-8.9 0.7c-0.2 0.6-0.5 1.5-0.4 1.5 0 0 0.4 0.1 0.9 0.2 0.4 0.1 0.9 0.2 0.9 0.2 0.1 0 0.1 0 0.2-0.4 0.1-0.2 0.2-0.6 0.3-0.9l0.1-0.4-0.9-0.4c-0.5-0.2-0.9-0.4-0.9-0.4 0 0-0.1 0.3-0.2 0.6m8.6 0.4c-1.3 0.3-2.2 1.5-2.2 2.9 0 1.7 1.3 3 3 3 2.2 0 3.7-2.3 2.7-4.3-0.6-1.3-2.1-2-3.5-1.6m9.5 0.8c-0.5 0.1-0.9 0.2-0.9 0.2 0 0 0 0.2 0 0.4 0.1 0.1 0.1 0.5 0.1 0.8 0.1 0.3 0.1 0.6 0.1 0.6 0 0 0.5 0 1 0l1-0.1 0-0.2c0-0.6-0.2-2-0.3-1.9 0 0-0.5 0.1-1 0.2m-8.9 1.1c-0.9 0.3-1.1 1.5-0.2 1.9 0.3 0.1 0.5 0.1 0.8 0 0.9-0.5 0.7-1.7-0.3-1.9-0.1 0-0.2 0-0.3 0m-9.2 1.4c-0.4 0-0.6 0-0.6 0.1 0 0.1 0.2 1.9 0.3 2.1 0.1 0.1 2-0.5 2-0.6 0 0-0.1-0.2-0.1-0.4-0.1-0.2-0.1-0.6-0.1-0.8l-0.1-0.4-0.4 0c-0.2 0-0.6 0-1 0m17.2 1.4c-0.1 0.3-0.4 1.3-0.5 1.4l0 0.1 0.9 0.5c0.8 0.3 0.9 0.4 0.9 0.3 0.1-0.1 0.4-0.8 0.5-1.4 0.2-0.7 0.2-0.6 0.1-0.7-0.3 0-1.8-0.3-1.8-0.3-0.1 0-0.1 0-0.1 0.1m-15.7 2.4c-0.5 0.2-0.9 0.5-0.9 0.5 0 0.1 0.7 1.2 1 1.6l0.2 0.2 0.8-0.6 0.7-0.7-0.3-0.4c-0.1-0.2-0.4-0.6-0.5-0.7-0.1-0.2-0.2-0.3-0.2-0.3 0 0-0.4 0.2-0.8 0.4m14.1 0.9c-0.1 0.1-0.4 0.4-0.6 0.6-0.4 0.4-0.5 0.5-0.4 0.5 0.3 0.4 1.2 1.4 1.2 1.4 0.1 0.1 1.1-0.9 1.5-1.4l0-0.1-0.7-0.6c-0.4-0.3-0.7-0.6-0.8-0.6 0 0-0.1 0-0.2 0.2m-11.6 2.1c-0.3 0.5-0.5 0.8-0.5 0.9 0.1 0.1 1.9 1.1 1.9 1 0 0 0.2-0.4 0.4-0.9l0.4-0.9-0.5-0.2c-0.2-0.1-0.5-0.3-0.7-0.4-0.2-0.2-0.3-0.3-0.4-0.3 0 0-0.3 0.4-0.6 0.8m8.6 0.1c-0.2 0.1-0.6 0.2-0.8 0.3-0.2 0.1-0.4 0.1-0.4 0.2 0 0.1 0.5 1.8 0.5 1.9 0.1 0 2.1-0.7 2.1-0.8 0-0.1-1-1.8-1-1.8 0 0-0.2 0.1-0.4 0.2m-4.8 0.8c-0.1 0.7-0.3 1.7-0.3 1.7 0.1 0.1 1.2 0.2 1.6 0.2l0.6 0 0-1c0-0.5-0.1-1-0.1-1 0 0-0.3 0-0.7 0-0.4-0.1-0.8-0.1-0.9-0.1-0.1-0.1-0.1-0.1-0.2 0.2" stroke="none" fill="black" fill-rule="evenodd"></path><path fill-opacity="0.418" d="M11.4 2c0 0.1 0.1 2 0.1 2 0 0 0.4 0 0.8 0 0.4 0 0.8 0.1 1.1 0.1 0.2 0.1 0.3 0.1 0.4 0.1 0-0.1 0.1-0.5 0.2-0.9 0.1-0.5 0.2-0.9 0.2-1 0-0.1-0.1-0.1-0.6-0.2-0.6-0.1-2.1-0.1-2.2-0.1m-2.7 0.6c-0.5 0.1-1.5 0.6-1.5 0.6 0 0.1 0.3 0.7 0.7 1.4l0.3 0.4 0.4-0.2c0.3-0.1 0.6-0.3 0.8-0.4 0.2 0 0.4-0.1 0.4-0.1 0-0.2-0.6-1.9-0.6-1.9-0.1 0-0.3 0.1-0.5 0.2m7.2 1.3c-0.4 0.7-0.4 0.9-0.4 0.9 0 0 0.3 0.2 0.5 0.3 0.3 0.1 0.6 0.3 0.7 0.4 0.1 0.1 0.2 0.2 0.2 0.2 0.1 0 1.2-1.5 1.2-1.6 0-0.1-1.6-1.1-1.8-1.1 0 0-0.2 0.4-0.4 0.9m-11.1 1.2c-0.6 0.6-0.9 1-0.9 1.1 0.1 0.1 1.6 1.1 1.6 1.1 0 0 0.1-0.1 0.2-0.3 0.2-0.1 0.4-0.4 0.6-0.6l0.4-0.4-0.7-0.7c-0.3-0.4-0.6-0.8-0.6-0.8-0.1 0-0.3 0.3-0.6 0.6m14.2 1.2l-0.8 0.7 0.2 0.3c0.3 0.3 0.7 1 0.7 1 0 0.2 0.2 0.1 1-0.3 0.4-0.2 0.8-0.4 0.8-0.4 0.1-0.1-0.9-1.6-1.1-1.9 0 0-0.4 0.3-0.8 0.6m-8-0.2c-1.9 0.3-3.5 1.6-4.4 3.3-0.8 1.6-0.8 3.5 0 5.1 0.6 1.4 1.8 2.5 3.2 3.1 0.8 0.3 1.3 0.4 2.2 0.4 0.9 0 1.3-0.1 2.1-0.4 3-1.1 4.6-4.5 3.6-7.5-1-2.8-3.8-4.5-6.7-4m0.4 2c-1.6 0.2-2.8 1.3-3.3 2.9-0.1 0.5-0.1 1.5 0 2 0.6 1.8 2.1 3 3.9 3 2.3 0 4.1-2 4-4.2-0.1-1.4-0.9-2.6-2.1-3.3-0.7-0.4-1.8-0.6-2.5-0.4m-8.6 0.1c-0.2 0.3-0.7 2-0.6 2 0 0 1.8 0.4 1.9 0.4 0 0 0.1-0.2 0.1-0.4 0.1-0.3 0.2-0.6 0.3-0.8 0-0.3 0.1-0.5 0.1-0.5 0 0-0.2-0.1-0.4-0.2-1.5-0.6-1.4-0.6-1.4-0.5m8.5 0.9c-0.6 0.1-1 0.4-1.4 0.8-0.3 0.3-0.4 0.5-0.6 0.8-0.4 0.9-0.4 1.9 0.1 2.7 0.2 0.4 0.7 0.9 1 1.1 0.6 0.4 0.9 0.5 1.6 0.5 0.6 0 0.8-0.1 1.4-0.4 0.4-0.2 1-0.8 1.2-1.2 0.5-0.9 0.5-1.8 0.1-2.7-0.2-0.5-0.8-1.1-1.3-1.3-0.6-0.4-1.4-0.5-2.1-0.3m9.5 0.8c-0.6 0.1-1 0.2-1 0.2 0 0 0 0.3 0.1 0.5 0 0.3 0.1 0.7 0.1 0.9l0 0.4 0.3 0c0.2 0 0.7 0 1 0l0.7 0 0-0.5c-0.1-0.6-0.2-1.7-0.3-1.7 0 0-0.4 0.1-0.9 0.2m-9.1 1.2c-0.3 0-0.6 0.4-0.7 0.6-0.1 0.5 0.1 1 0.5 1.2 0.5 0.2 1 0.1 1.3-0.3 0.2-0.2 0.2-0.3 0.2-0.6 0-0.4-0.2-0.6-0.5-0.8-0.2-0.2-0.6-0.2-0.8-0.1m-8.9 1.3c-0.4 0-0.8 0-0.8 0.1-0.1 0 0.3 2 0.4 2.1 0 0 0.6-0.1 1.6-0.4l0.3-0.1-0.1-0.3c0-0.1-0.1-0.4-0.1-0.7-0.1-0.8-0.1-0.8-0.4-0.7-0.1 0-0.5 0-0.9 0m16.9 1.7c0 0.2-0.2 0.6-0.3 0.8l-0.1 0.4 0.9 0.4c0.5 0.3 0.9 0.4 0.9 0.4 0.1 0 0.4-0.9 0.5-1.2 0.1-0.4 0.2-0.8 0.2-0.8 0 0-0.5-0.1-1-0.2-0.5-0.2-1-0.2-1-0.2 0 0 0 0.1-0.1 0.4m-15.6 2.1c-0.5 0.3-0.9 0.5-0.9 0.5-0.1 0 0.7 1.2 1 1.6l0.2 0.2 0.8-0.6c0.4-0.4 0.7-0.7 0.7-0.7 0 0-0.1-0.2-0.3-0.4-0.2-0.3-0.4-0.6-0.5-0.8-0.1-0.1-0.2-0.2-0.2-0.2 0 0-0.4 0.2-0.8 0.4m14.1 0.9c-0.1 0.1-0.4 0.4-0.6 0.6l-0.5 0.4 0.7 0.8c0.3 0.4 0.6 0.7 0.6 0.7 0.1 0.1 0.8-0.7 1.2-1.1l0.3-0.4-0.1-0.1c-0.1-0.1-0.5-0.4-0.8-0.7l-0.6-0.4-0.2 0.2m-11.4 2c-0.3 0.3-0.6 0.7-0.6 0.8l-0.2 0.1 0.5 0.4c0.5 0.2 1.4 0.8 1.5 0.7 0 0 0.8-1.7 0.8-1.8 0 0-0.3-0.1-0.5-0.2-0.3-0.2-0.6-0.4-0.8-0.5-0.1-0.1-0.2-0.2-0.3-0.2 0 0-0.2 0.3-0.4 0.7m8.6 0.1c-0.2 0.1-0.5 0.2-0.8 0.4-0.3 0.1-0.6 0.2-0.6 0.2 0 0 0.1 0.4 0.2 0.9 0.2 0.8 0.3 0.9 0.4 0.9 0.2 0.1 2-0.6 1.9-0.7 0-0.2-0.9-1.8-0.9-1.8 0 0-0.1 0.1-0.2 0.1m-5.1 1.6c-0.1 0.5-0.2 1-0.2 1 0 0.1 0.7 0.2 1.5 0.2l0.7 0 0-0.4c0-0.2 0-0.6 0-1l0-0.6-0.8 0c-0.5-0.1-0.9-0.1-0.9-0.1-0.1-0.1-0.1 0-0.3 0.9" stroke="none" fill="black" fill-rule="evenodd"></path><path fill-opacity="0.559" d="M11.5 2.8c0 0.4 0 0.8 0 1l0.1 0.2 0.7 0c0.4 0 0.9 0.1 1.1 0.1 0.3 0.1 0.4 0.1 0.4 0 0.2-1.1 0.4-1.8 0.3-1.9-0.1 0-1.2-0.2-1.9-0.2l-0.8 0 0.1 0.8m-2.6-0.3c-0.4 0.1-1.6 0.6-1.7 0.7 0 0 0.9 1.7 0.9 1.7 0 0.1 0.3 0 0.6-0.2 0.2-0.1 0.6-0.2 0.7-0.3 0.2 0 0.3-0.1 0.3-0.1 0.1 0-0.4-1.9-0.5-1.9 0 0-0.1 0-0.3 0.1m7 1.4c-0.3 0.5-0.4 0.9-0.4 0.9 0 0 0.1 0.1 0.3 0.2 0.2 0.1 0.5 0.3 0.8 0.4l0.3 0.3 0.5-0.6c0.6-0.7 0.8-0.9 0.8-1 0 0-1.7-1.1-1.9-1.1 0 0-0.2 0.4-0.4 0.9m-11.1 1.1c-0.4 0.5-0.9 1.1-0.9 1.2 0.1 0 1.5 1.1 1.6 1.1 0 0 0.1-0.1 0.2-0.2 0.1-0.2 0.3-0.4 0.6-0.7l0.4-0.4-0.7-0.7c-0.3-0.4-0.6-0.7-0.6-0.7-0.1 0-0.3 0.2-0.6 0.4m14.2 1.3c-0.4 0.3-0.7 0.6-0.7 0.7 0 0 0 0.1 0.2 0.3 0.1 0.1 0.3 0.5 0.4 0.7l0.3 0.4 0.9-0.4c0.7-0.3 0.8-0.4 0.8-0.5 0-0.2-0.6-1.1-0.9-1.4l-0.2-0.4-0.8 0.6m-7.9-0.2c-0.8 0.1-1.7 0.5-2.5 1-0.5 0.3-1.2 1-1.6 1.6-0.4 0.7-0.8 1.5-0.9 2.3-0.1 0.5-0.1 1.5 0 2 0.3 1.9 1.5 3.5 3.3 4.4 0.7 0.3 1.8 0.6 2.6 0.6 0.5 0 1.3-0.1 1.8-0.3 2.3-0.8 3.9-2.7 4.1-5.1 0.3-2.5-1-4.9-3.3-6-0.5-0.2-1.2-0.4-1.8-0.5-0.6-0.1-1-0.1-1.7 0m0.2 1.9c-1.3 0.3-2.3 1.1-2.9 2.3-0.3 0.6-0.4 0.9-0.4 1.7 0 0.8 0.1 1.1 0.4 1.7 0.4 0.8 1 1.5 1.9 1.9 0.6 0.3 0.9 0.4 1.7 0.4 0.8 0 1.1-0.1 1.7-0.4 1.5-0.7 2.4-2.2 2.3-3.8-0.1-0.6-0.1-1-0.4-1.5-0.5-1-1.4-1.9-2.5-2.1-0.4-0.2-1.4-0.2-1.8-0.2m-8.6 0.2c-0.2 0.6-0.5 1.7-0.5 1.9 0 0.1 0.1 0.1 1 0.3 0.5 0.1 0.9 0.2 0.9 0.1 0 0 0.1-0.1 0.1-0.3 0-0.1 0.1-0.5 0.2-0.8 0.1-0.3 0.2-0.5 0.2-0.5 0 0-0.4-0.2-0.9-0.4l-0.9-0.4-0.1 0.1m8.7 0.9c-0.5 0.1-1.1 0.4-1.5 0.8-0.4 0.4-0.6 0.7-0.8 1.2-0.1 0.5-0.1 1.3 0 1.8 0.2 0.5 0.4 0.8 0.8 1.2 1.6 1.6 4.2 0.9 4.9-1.2 0.2-0.5 0.2-1.3 0.1-1.8-0.4-1.1-1.3-1.8-2.3-2-0.5-0.1-0.8-0.1-1.2 0m9.4 0.8c-0.6 0.1-1 0.2-1 0.2 0 0 0 0.2 0.1 0.5 0 0.2 0.1 0.6 0.1 0.8l0 0.5 1 0 1 0 0-0.5c-0.1-0.5-0.2-1.7-0.3-1.7 0 0-0.4 0.1-0.9 0.2m-9.2 1.2c-0.8 0.3-0.8 1.4-0.1 1.8 0.7 0.3 1.4-0.1 1.5-0.8 0-0.6-0.4-1.1-1-1.1-0.1 0-0.3 0-0.4 0.1m-8.7 1.3c-0.5 0-0.9 0.1-0.9 0.1 0 0 0.3 1.9 0.3 2 0.1 0.1 0.3 0.1 1-0.1 0.4-0.2 0.9-0.3 0.9-0.3 0 0 0-0.1 0-0.4-0.1-0.2-0.1-0.6-0.2-0.8l0-0.5-0.2 0c-0.1 0-0.5 0-0.9 0m16.9 1.3c0 0 0 0.1-0.1 0.3 0 0.2-0.1 0.5-0.2 0.7-0.1 0.3-0.2 0.5-0.2 0.6 0 0 0.2 0.1 0.9 0.5 0.5 0.2 0.9 0.4 0.9 0.4 0 0 0.3-0.8 0.5-1.4 0.1-0.5 0.2-0.7 0.1-0.7 0 0-1.7-0.4-1.8-0.4 0 0-0.1 0-0.1 0m-15.7 2.5c-0.5 0.2-0.8 0.5-0.9 0.5-0.1 0 0.6 1.1 1.1 1.6l0.1 0.2 0.8-0.6c0.4-0.4 0.7-0.7 0.7-0.7 0 0-0.1-0.2-0.3-0.4-0.1-0.2-0.3-0.5-0.4-0.6-0.1-0.2-0.2-0.3-0.2-0.4-0.1 0-0.2 0-0.9 0.4m14 1c-0.2 0.2-0.5 0.5-0.6 0.7l-0.4 0.2 0.7 0.8 0.6 0.8 0.1-0.1c0.3-0.2 1.4-1.4 1.4-1.5 0-0.1-0.4-0.3-0.8-0.7l-0.7-0.5-0.3 0.3m-11.3 1.9c-0.3 0.3-0.5 0.7-0.6 0.8l-0.1 0.1 0.4 0.3c0.4 0.3 1.3 0.8 1.4 0.8 0.1 0 0.9-1.7 0.9-1.8 0 0-0.2-0.1-0.3-0.1-0.2-0.1-0.5-0.3-0.8-0.4-0.2-0.2-0.5-0.3-0.5-0.3 0 0-0.2 0.2-0.4 0.6m8.5 0.2c-0.2 0.1-0.5 0.2-0.8 0.3-0.4 0.1-0.5 0.2-0.5 0.2 0.1 0.3 0.5 1.8 0.5 1.8 0.1 0.1 1.2-0.3 1.7-0.5l0.4-0.2-0.5-0.9c-0.2-0.4-0.4-0.8-0.5-0.8 0 0-0.1 0-0.3 0.1m-5 1.5c-0.1 0.5-0.2 1-0.2 1 0.1 0.1 0.9 0.2 1.6 0.2l0.6 0 0-0.9c-0.1-0.5-0.1-1-0.1-1 0-0.1-0.1-0.1-0.3-0.1-0.3 0-1.1-0.1-1.3-0.1-0.1 0-0.1 0-0.3 0.9" stroke="none" fill="black" fill-rule="evenodd"></path><path fill-opacity="0.951" d="M11.6 2l-0.2 0.1 0.1 0.5c0 0.4 0 0.8 0 1l0.1 0.4 0.5 0c0.3 0 0.8 0 1.1 0.1 0.3 0 0.5 0 0.5 0 0.1 0 0.2-0.4 0.3-0.9 0.2-0.9 0.2-0.9 0.1-1-0.5-0.1-2.2-0.2-2.5-0.2m-2.9 0.6c-0.3 0.1-0.7 0.3-1 0.4-0.5 0.2-0.5 0.3-0.4 0.4 0 0 0.2 0.4 0.4 0.8 0.2 0.4 0.4 0.7 0.5 0.7 0 0 0.1 0 0.3-0.1 0.2-0.1 0.5-0.2 0.8-0.3 0.2-0.1 0.4-0.2 0.4-0.2 0.1 0-0.4-1.8-0.5-1.9 0 0-0.2 0.1-0.5 0.2m7.3 0.9c-0.1 0.3-0.3 0.7-0.4 0.9l-0.1 0.4 0.1 0c0.2 0.1 0.9 0.5 1.1 0.7l0.2 0.2 0.6-0.7c0.3-0.4 0.6-0.7 0.6-0.8 0.1 0 0.1-0.1 0-0.1-0.3-0.3-1-0.7-1.4-0.9l-0.4-0.2-0.3 0.5m-11.1 1.5c-0.3 0.3-0.6 0.6-0.7 0.8l-0.3 0.4 0.8 0.5c0.4 0.3 0.8 0.6 0.8 0.6 0 0 0.1-0.1 0.2-0.2 0-0.1 0.3-0.4 0.5-0.6l0.5-0.5-0.6-0.6c-0.2-0.3-0.5-0.6-0.6-0.7l-0.1-0.2-0.5 0.5m14.2 1.3c-0.3 0.2-0.7 0.5-0.7 0.6l-0.1 0.1 0.2 0.4c0.2 0.2 0.4 0.5 0.5 0.7l0.2 0.3 0.8-0.4c0.5-0.2 0.9-0.4 0.9-0.5 0-0.1-1-1.7-1.1-1.7-0.1 0-0.4 0.2-0.7 0.5m-7.7-0.2c-1.6 0.1-3.2 1-4.2 2.3-1.6 2.1-1.6 5.1 0 7.2 0.9 1.2 2.4 2.1 3.8 2.3 0.5 0.1 1.5 0.1 2 0 1.1-0.2 2.3-0.8 3.2-1.6 0.6-0.7 1-1.2 1.3-2 0.9-2.1 0.5-4.5-1-6.2-0.8-1-1.8-1.6-3-1.9-0.4-0.1-1.4-0.2-1.6-0.2 0 0-0.3 0-0.5 0.1m-0.2 2c-1.5 0.3-2.6 1.3-3.1 2.8-0.1 0.3-0.1 0.5-0.1 1.1 0 0.8 0.1 1.2 0.4 1.8 0.6 1.1 1.6 1.9 2.8 2.1 0.7 0.2 1.6 0.1 2.3-0.2 1.2-0.5 2-1.4 2.4-2.6 0.1-0.3 0.1-0.5 0.1-1.1 0-0.8-0.1-1.2-0.4-1.8-0.6-1.1-1.6-1.9-2.8-2.1-0.4-0.1-1.2-0.1-1.6 0m-8.5 0.3c-0.2 0.3-0.4 1.4-0.5 1.6l0 0.2 0.9 0.2c0.5 0.1 0.9 0.1 1 0.1 0 0 0.1-0.2 0.1-0.4 0.1-0.2 0.2-0.6 0.3-0.8 0-0.2 0.1-0.4 0.1-0.4-0.1-0.1-1.7-0.7-1.8-0.7 0 0 0 0.1-0.1 0.2m8.8 0.7c-1.1 0.2-2 0.9-2.3 2-0.2 0.5-0.2 1.2-0.1 1.7 0.3 1 1.1 1.8 2.1 2.1 0.4 0.1 1.2 0.1 1.6 0 1-0.3 1.8-1.1 2.1-2.1 0.1-0.4 0.1-1.2 0-1.6-0.4-1.1-1.3-1.9-2.4-2.1-0.5-0.1-0.6-0.1-1 0m9.2 0.8c-0.8 0.2-0.9 0.2-0.9 0.3 0 0.1 0.1 0.4 0.1 0.6 0.1 0.3 0.1 0.7 0.1 0.8l0 0.3 1 0 1 0 0-0.2c0-0.1-0.1-0.4-0.1-0.6 0-0.3 0-0.7-0.1-0.9-0.1-0.4-0.1-0.5-0.2-0.5 0 0-0.5 0.1-0.9 0.2m-9.1 1.2c-0.7 0.3-0.8 1.1-0.3 1.6 0.2 0.2 0.4 0.3 0.7 0.3 1.1 0 1.4-1.5 0.4-1.9-0.2-0.1-0.6-0.1-0.8 0m-8.4 1.3c-0.4 0-0.8 0-0.9 0l-0.3 0.1 0.1 0.4c0 0.4 0.2 1.6 0.3 1.7 0 0 1.8-0.5 1.8-0.5 0.1 0 0-0.2 0-0.4-0.1-0.1-0.1-0.5-0.2-0.8 0-0.3 0-0.5-0.1-0.5 0 0-0.3 0-0.7 0m16.6 1.3c0 0 0 0.2-0.1 0.5 0 0.2-0.2 0.5-0.2 0.7-0.1 0.2-0.2 0.4-0.2 0.4 0 0 1.5 0.7 1.7 0.8 0.1 0 0.1 0 0.3-0.4 0.1-0.4 0.5-1.4 0.5-1.6 0 0-0.3-0.1-0.7-0.2-0.4 0-0.8-0.1-1-0.2-0.2 0-0.3 0-0.3 0m-15.7 2.5c-0.4 0.2-0.8 0.5-0.8 0.5-0.1 0 0.3 0.7 0.8 1.3 0.3 0.5 0.3 0.5 0.4 0.4 0.2-0.1 1.2-1 1.3-1.1 0.1-0.1 0.1-0.1-0.2-0.5-0.1-0.2-0.3-0.5-0.5-0.7-0.1-0.1-0.2-0.3-0.2-0.3 0 0-0.4 0.2-0.8 0.4m14.1 0.9c-0.1 0.1-0.4 0.4-0.6 0.6l-0.4 0.4 0.6 0.8 0.6 0.8 0.3-0.3c0.2-0.2 1.2-1.2 1.2-1.3 0-0.1-1.5-1.2-1.5-1.2-0.1 0-0.1 0.1-0.2 0.2m-11.6 2.1l-0.5 0.8 0.4 0.3c0.5 0.3 1.4 0.8 1.5 0.8 0 0 0.8-1.8 0.7-1.8 0 0-0.2-0.1-0.4-0.2-0.3-0.1-0.6-0.3-0.8-0.5-0.1-0.1-0.3-0.1-0.3-0.1 0 0-0.2 0.3-0.6 0.7m8.7 0.1c-0.2 0.1-0.5 0.2-0.8 0.3l-0.5 0.2 0.2 0.9c0.2 0.5 0.3 0.9 0.3 0.9 0.1 0.1 1.1-0.3 1.6-0.5l0.4-0.2-0.4-0.9c-0.2-0.4-0.5-0.8-0.5-0.8 0 0-0.2 0-0.3 0.1m-5 1.5c-0.1 0.6-0.2 1-0.1 1 0 0.1 0.8 0.1 1.5 0.2l0.6 0 0-0.7c0-0.4-0.1-0.8-0.1-1l0-0.3-0.6 0c-0.4 0-0.7-0.1-0.9-0.1l-0.2 0-0.2 0.9" stroke="none" fill="black" fill-rule="evenodd"></path></svg>