<?xml version="1.0"?><svg xmlns="http://www.w3.org/2000/svg" width="24" height="24" viewBox="0 0 24 24" version="1.1"><rect x="0" y="0" width="24" height="24" fill="#00000000"></rect><path fill-opacity="0.294" d="M4.4 10.1c-0.6 0.2-1.1 0.7-1.3 1.3-0.3 1.1 0.3 2.2 1.4 2.5 0.2 0.1 1 0.1 7.3 0.1 3.9 0 7.2 0 7.4 0 0.7-0.1 1.3-0.6 1.6-1.2 0.1-0.2 0.1-0.3 0.1-0.8 0-0.5 0-0.6-0.1-0.8-0.3-0.6-0.9-1-1.6-1.1-0.2-0.1-2.9-0.1-7.4-0.1-5.9 0-7.2 0-7.4 0.1" stroke="none" fill="black" fill-rule="evenodd"></path><path fill-opacity="0.461" d="M4.4 10.1c-0.5 0.2-0.9 0.5-1.2 1.1-0.2 0.3-0.2 0.4-0.2 0.8 0 0.5 0 0.5 0.2 0.9 0.2 0.4 0.5 0.7 1 0.9l0.3 0.2 4.3 0c3.2 0 4.4 0 4.7-0.1 0.5-0.1 1.1-0.6 1.4-1.1 0.1-0.4 0.1-1.2 0-1.6-0.2-0.3-0.6-0.8-0.9-1-0.5-0.2-0.4-0.2-5-0.2-3.6 0-4.4 0-4.6 0.1" stroke="none" fill="black" fill-rule="evenodd"></path><path fill-opacity="0.526" d="M4.6 10.1c-1 0.2-1.7 1.2-1.6 2.2 0.2 0.9 0.8 1.5 1.6 1.6 0.4 0.1 8.4 0.1 8.8 0 1-0.1 1.7-1.2 1.6-2.2-0.2-0.9-0.8-1.5-1.6-1.6-0.3-0.1-8.5-0.1-8.8 0" stroke="none" fill="black" fill-rule="evenodd"></path><path fill-opacity="0.957" d="M4.7 10.1c-0.7 0.1-1.4 0.6-1.6 1.3-0.3 1.1 0.4 2.3 1.6 2.5 0.4 0.1 8.2 0.1 8.6 0 1.1-0.1 1.8-1.1 1.6-2.2-0.1-0.9-0.8-1.5-1.6-1.6-0.4-0.1-8.3-0.1-8.6 0" stroke="none" fill="black" fill-rule="evenodd"></path></svg>