<?xml version="1.0"?><svg xmlns="http://www.w3.org/2000/svg" width="24" height="24" viewBox="0 0 24 24" version="1.1"><rect x="0" y="0" width="24" height="24" fill="#00000000"></rect><path fill-opacity="0.753" d="M7 12.6l0 5.4 1 0 1 0 0-5.4 0-5.4-1 0-1 0 0 5.4m4 2.5l0 2.9 1 0 1 0 0-2.9 0-2.9-1 0-1 0 0 2.9m4 1.9l0 1 1 0 1 0 0-1 0-1-1 0-1 0 0 1" stroke="none" fill="black" fill-rule="evenodd"></path><path fill-opacity="1.000" d="M7 12.6l0 5.4 1 0 1 0 0-5.4 0-5.4-1 0-1 0 0 5.4m4 2.5l0 2.9 1 0 1 0 0-2.9 0-2.9-1 0-1 0 0 2.9m4 1.9l0 1 1 0 1 0 0-1 0-1-1 0-1 0 0 1" stroke="none" fill="black" fill-rule="evenodd"></path></svg>