<?xml version="1.0"?><svg xmlns="http://www.w3.org/2000/svg" width="24" height="24" viewBox="0 0 24 24" version="1.1"><rect x="0" y="0" width="24" height="24" fill="#00000000"></rect><path fill-opacity="0.369" d="M4.4 10.1c-1.6 0.5-1.9 2.7-0.5 3.6 0.5 0.3 0.5 0.3 4.6 0.3 4.1 0 4.1 0 4.6-0.3 0.3-0.2 0.5-0.5 0.7-0.9 0.2-0.3 0.2-0.4 0.2-0.8 0-0.4 0-0.5-0.2-0.8-0.3-0.6-0.7-0.9-1.2-1.1-0.3-0.1-0.8-0.1-4.1-0.1-3.5 0-3.8 0-4.1 0.1" stroke="none" fill="black" fill-rule="evenodd"></path><path fill-opacity="0.285" d="M4.5 10.1c-0.8 0.2-1.3 0.8-1.5 1.5-0.1 0.9 0.3 1.8 1.2 2.2l0.3 0.2 3.8 0c2.7 0 3.9 0 4.1-0.1 1-0.2 1.7-1.2 1.6-2.2-0.2-0.8-0.7-1.4-1.5-1.6-0.4-0.1-7.7-0.1-8 0" stroke="none" fill="black" fill-rule="evenodd"></path><path fill-opacity="0.478" d="M4.6 10.1c-0.4 0-0.7 0.2-1 0.5-1.1 1.2-0.5 3.1 1.1 3.4 0.2 0 1.7 0 4 0 3.7 0 3.7 0 4-0.1 0.5-0.3 1-0.7 1.2-1.2 0.1-0.4 0.1-1 0-1.4-0.2-0.5-0.6-0.9-1.2-1.2-0.3-0.1-0.3-0.1-4.1-0.1-2.1 0-3.9 0-4 0.1" stroke="none" fill="black" fill-rule="evenodd"></path><path fill-opacity="0.967" d="M4.7 10.1c-1.1 0.1-1.8 1.2-1.6 2.2 0.1 0.9 0.7 1.5 1.6 1.6 0.4 0.1 7.2 0.1 7.6 0 1.3-0.2 2-1.5 1.5-2.8-0.3-0.5-0.9-0.9-1.5-1-0.4-0.1-7.3-0.1-7.6 0" stroke="none" fill="black" fill-rule="evenodd"></path></svg>