<?xml version="1.0"?><svg xmlns="http://www.w3.org/2000/svg" width="24" height="24" viewBox="0 0 24 24" version="1.1"><rect x="0" y="0" width="24" height="24" fill="#00000000"></rect><path fill-opacity="0.447" d="M11 9.1c-2.2 0.4-4.1 2-4.7 4.1-0.3 0.8-0.3 1.1-0.3 3.5l0 2.3-0.4 0c-1.6 0.2-3 1.3-3.5 3 0 0.2-0.1 0.5-0.1 1.1l0 0.9 1 0 1 0 0-0.7c0-0.5 0.1-0.8 0.1-0.9 0.2-0.6 0.7-1.1 1.3-1.3 0.2-0.1 0.6-0.1 6.6-0.1 6 0 6.4 0 6.6 0.1 0.6 0.2 1.1 0.7 1.3 1.3 0 0.1 0.1 0.4 0.1 0.9l0 0.7 1 0 1 0 0-0.9c0-0.9-0.1-1.2-0.4-1.8-0.4-1-1.4-1.8-2.5-2.2l-0.4-0.1-5.3 0-5.4 0 0-2.3c0-2.6 0-2.6 0.4-3.5 0.2-0.4 0.4-0.6 0.7-0.9 0.8-0.9 1.7-1.3 2.9-1.3 0.7 0 1.1 0.1 1.8 0.5 0.5 0.2 0.6 0.3 1 0.7 0.4 0.4 0.5 0.6 0.7 0.9 0.2 0.4 0.4 1.1 0.5 1.6l0 0.3 1 0 1 0 0-0.3c0-0.3-0.1-1-0.3-1.4-0.7-2.6-3.1-4.3-5.7-4.3-0.4 0-0.8 0-1 0.1" stroke="none" fill="black" fill-rule="evenodd"></path><path fill-opacity="0.092" d="M11 9.1c-1.9 0.3-3.5 1.6-4.4 3.3-0.5 1.1-0.6 1.6-0.6 4.4l0 2.2-0.4 0c-0.8 0.1-1.6 0.5-2.2 0.9-0.6 0.6-0.9 1.1-1.2 1.9-0.2 0.4-0.2 0.5-0.2 1.3l0 0.9 1 0 1 0 0-0.5c0-0.3 0-0.7 0.1-0.9 0.1-0.8 0.7-1.4 1.5-1.5 0.4-0.1 12.4-0.1 12.8 0 0.8 0.1 1.4 0.7 1.5 1.5 0.1 0.2 0.1 0.6 0.1 0.9l0 0.5 1 0 1 0 0-0.8c0-0.7-0.1-1-0.1-1.2-0.3-0.9-0.7-1.5-1.3-2-0.4-0.4-0.8-0.6-1.4-0.8l-0.5-0.2-5.3 0-5.4 0 0-2.3c0-2.1 0-2.4 0.1-2.7 0.4-1.4 1.4-2.4 2.8-2.8 0.4-0.1 0.5-0.2 1.1-0.2 0.6 0 0.7 0.1 1.1 0.2 0.6 0.1 1.1 0.4 1.6 0.9 0.8 0.7 1.2 1.5 1.3 2.6l0 0.3 1 0 1 0 0-0.2c0-0.7-0.3-1.7-0.6-2.4-1-2.1-3.2-3.4-5.4-3.4-0.3 0-0.8 0-1 0.1" stroke="none" fill="black" fill-rule="evenodd"></path><path fill-opacity="0.438" d="M11.2 9.1c-0.2 0-0.5 0.1-0.8 0.1-2.3 0.7-4 2.6-4.3 5-0.1 0.4-0.1 1.1-0.1 2.7l0 2.1-0.3 0c-1 0.1-1.9 0.5-2.6 1.2-0.8 0.9-1.1 1.8-1.1 3.2l0 0.6 1 0 1 0 0-0.7c0-0.7 0-0.8 0.2-1.1 0.3-0.6 0.7-1 1.3-1.1 0.2-0.1 1.1-0.1 6.6-0.1l6.4 0 0.3 0.2c0.5 0.2 0.8 0.5 1 1 0.2 0.3 0.2 0.4 0.2 1.1l0 0.7 1 0 1 0 0-0.6c0-1.5-0.4-2.4-1.3-3.3-0.6-0.6-1.3-0.9-2.2-1-0.2-0.1-2.5-0.1-5.4-0.1l-5.1 0 0-2.2c0-2.4 0-2.7 0.3-3.4 0.5-1.1 1.5-1.9 2.6-2.3 0.5-0.1 1.6-0.1 2.1 0 1.6 0.5 2.8 1.8 3 3.4l0 0.5 1 0 1 0 0-0.4c-0.2-1.6-0.7-2.8-1.8-3.8-0.8-0.9-1.9-1.4-3-1.7-0.5-0.1-1.5-0.1-2 0" stroke="none" fill="black" fill-rule="evenodd"></path><path fill-opacity="0.972" d="M11.4 9.1c-2.4 0.2-4.5 2-5.2 4.4-0.2 0.7-0.2 1.3-0.2 3.5l0 2-0.1 0c-0.1 0-0.2 0-0.3 0-0.3 0.1-0.9 0.2-1.3 0.4-0.8 0.4-1.5 1.1-1.9 1.9-0.3 0.6-0.4 1-0.4 1.9l0 0.8 1 0 1 0 0-0.7c0-0.9 0.1-1.2 0.5-1.7 0.3-0.2 0.6-0.4 0.9-0.5 0.4-0.1 12.8-0.1 13.2 0 0.3 0.1 0.6 0.2 0.9 0.5 0.4 0.5 0.5 0.8 0.5 1.7l0 0.7 1 0 1 0 0-0.8c0-0.9-0.1-1.4-0.4-1.9-0.5-1.1-1.4-1.8-2.6-2.2l-0.4-0.1-5.3 0-5.3 0 0-2.4c0-2.3 0-2.4 0.1-2.7 0.5-1.4 1.5-2.3 2.8-2.8 0.3-0.1 0.5-0.1 1.1-0.1 0.7 0 0.8 0 1.3 0.2 0.8 0.3 1.5 0.8 1.9 1.4 0.5 0.6 0.7 1.3 0.8 2l0 0.4 1 0 1 0 0-0.2c0-0.1-0.1-0.4-0.1-0.5-0.1-1.1-0.6-2.4-1.4-3.2-0.5-0.6-1-1-1.6-1.3-0.8-0.5-1.5-0.7-2.4-0.7-0.3-0.1-0.6-0.1-0.6-0.1 0 0-0.3 0-0.5 0.1" stroke="none" fill="black" fill-rule="evenodd"></path></svg>