<?xml version="1.0"?><svg xmlns="http://www.w3.org/2000/svg" width="24" height="24" viewBox="0 0 24 24" version="1.1"><rect x="0" y="0" width="24" height="24" fill="#00000000"></rect><path fill-opacity="0.510" d="M10.8 6.6c-1.4 0.3-2.8 1.1-3.6 2.1-0.6 0.8-0.9 1.5-1.1 2.3-0.1 0.5-0.1 0.7-0.1 2.5l0 2-0.1 0c-0.1 0-0.2 0-0.3 0-0.5 0.1-1.4 0.4-1.9 0.8-0.7 0.5-1.2 1.2-1.5 2l-0.2 0.5 0 2.6 0 2.6 1 0 1 0 0-2.3c0-1.3 0-2.3 0.1-2.5 0.1-0.7 0.6-1.3 1.3-1.6 0.3 0 0.6 0 6.6 0 6 0 6.3 0 6.6 0 0.7 0.3 1.2 0.9 1.3 1.6 0.1 0.2 0.1 1.2 0.1 2.5l0 2.3 1 0 1 0 0-2.6 0-2.6-0.2-0.5c-0.5-1.4-1.5-2.3-2.8-2.6-0.2-0.1-0.5-0.2-0.6-0.2-0.1 0-0.2 0-0.3 0l-0.1 0 0-2c0-1.8 0-2-0.1-2.5-0.4-2-2-3.7-4.3-4.3-0.4-0.1-0.6-0.1-1.4-0.1-0.7 0-1.1 0-1.4 0m0.3 2c-1.4 0.3-2.5 1.2-2.9 2.4l-0.2 0.5 0 2 0 2 4 0 4 0 0-2 0-2-0.2-0.4c-0.2-0.5-0.4-1-0.8-1.4-0.6-0.5-1.3-0.9-2.1-1.1-0.5-0.1-1.4-0.1-1.8 0" stroke="none" fill="black" fill-rule="evenodd"></path><path fill-opacity="0.128" d="M11.2 6.6c-0.6 0.1-0.8 0.1-1.2 0.2-1.7 0.6-3.2 2-3.7 3.6-0.3 0.7-0.3 1.1-0.3 3.2l0 1.9-0.4 0.1c-1.4 0.1-2.6 0.9-3.2 2.3-0.4 0.7-0.4 0.7-0.4 3.5l0 2.6 1 0 1 0 0-2.4c0-2.1 0-2.4 0.1-2.6 0.2-0.6 0.5-1 1.1-1.3l0.3-0.1 3.2-0.1c1.8 0 4.8 0 6.6 0l3.2 0.1 0.4 0.1c0.3 0.2 0.6 0.5 0.8 0.8 0.3 0.5 0.3 0.6 0.3 3.2l0 2.3 1 0 1 0 0-2.6c0-2.8 0-2.7-0.3-3.4-0.6-1.4-1.9-2.3-3.3-2.4l-0.4-0.1 0-1.9c0-2.1 0-2.5-0.3-3.2-0.6-1.8-2.1-3.2-4.1-3.7-0.5-0.1-0.7-0.1-1.4-0.1-0.5 0-1 0-1 0m0.4 2c-0.6 0-1.1 0.2-1.7 0.4-0.6 0.4-1.3 1-1.5 1.6-0.4 0.7-0.4 0.9-0.4 3l0 2 4 0 4 0 0-2c0-2.1 0-2.3-0.4-3-0.1-0.4-0.2-0.5-0.6-0.9-0.4-0.3-0.6-0.5-1-0.7-0.7-0.4-1.5-0.5-2.4-0.4" stroke="none" fill="black" fill-rule="evenodd"></path><path fill-opacity="0.504" d="M11 6.6c-0.8 0.1-2.1 0.6-2.8 1.1-1 0.9-1.8 2-2.1 3.3 0 0.3-0.1 0.8-0.1 2.4l0 2.1-0.4 0.1c-1.6 0.1-2.9 1.2-3.4 2.8l-0.2 0.5 0 2.5 0 2.6 1 0 1 0 0-2.4c0-2 0-2.4 0.1-2.6 0.2-0.8 0.8-1.3 1.6-1.4 0.4-0.1 12.2-0.1 12.6 0 0.8 0.1 1.4 0.6 1.6 1.4 0.1 0.2 0.1 0.6 0.1 2.6l0 2.4 1 0 1 0 0-2.6c0-2.4 0-2.5-0.1-2.9-0.5-1.6-1.9-2.8-3.5-2.9l-0.4-0.1 0-2.1c0-1.6-0.1-2.1-0.1-2.4-0.4-1.7-1.5-3-3.1-3.8-0.6-0.3-1.3-0.5-1.9-0.6-0.4-0.1-1.5-0.1-1.9 0m0.4 2c-0.5 0-1.2 0.3-1.6 0.5-0.5 0.3-1.2 1-1.4 1.4-0.4 0.7-0.4 0.6-0.4 3l0 2.1 4 0 4 0 0-2.1c0-2.4 0-2.3-0.4-3-0.2-0.4-0.9-1.1-1.4-1.4-0.4-0.3-1.1-0.5-1.6-0.5-0.5-0.1-0.7-0.1-1.2 0" stroke="none" fill="black" fill-rule="evenodd"></path><path fill-opacity="0.963" d="M11.1 6.6c-2.2 0.3-4 1.7-4.8 3.7-0.2 0.7-0.3 0.9-0.3 3.2l0 2-0.4 0.1c-1.7 0.1-3 1.3-3.5 3.1-0.1 0.2-0.1 0.7-0.1 2.8l0 2.5 1 0 1 0 0-2.5 0-2.5 0.2-0.3c0.3-0.6 0.8-1 1.4-1.1 0.4-0.1 12.4-0.1 12.8 0 0.6 0.1 1.1 0.5 1.4 1.1l0.2 0.3 0 2.5 0 2.5 1 0 1 0 0-2.2c0-2.3 0-2.9-0.2-3.4-0.5-1.6-1.8-2.7-3.4-2.8l-0.4-0.1 0-1.7c0-2.5-0.1-3-0.5-3.9-0.3-0.7-0.6-1.1-1.1-1.6-0.9-0.8-1.9-1.4-3.1-1.6-0.4-0.1-1.8-0.2-2.2-0.1m0.3 1.9c-1.4 0.3-2.6 1.1-3.1 2.2-0.3 0.6-0.3 0.7-0.3 2.9l0 2 4 0 4 0 0-2c0-2.2 0-2.3-0.3-2.9-0.5-1-1.4-1.8-2.6-2.1-0.4-0.1-1.4-0.1-1.7-0.1" stroke="none" fill="black" fill-rule="evenodd"></path></svg>