<?xml version="1.0"?><svg xmlns="http://www.w3.org/2000/svg" width="24" height="24" viewBox="0 0 24 24" version="1.1"><rect x="0" y="0" width="24" height="24" fill="#00000000"></rect><path fill-opacity="0.373" d="M11.6 4.1c-0.3 0.1-0.4 0.3-0.5 0.5-0.1 0.2-0.1 0.6-0.1 3.4 0 3 0 3.2 0.1 3.4 0.3 0.8 1.5 0.8 1.8 0 0.1-0.2 0.1-0.4 0.1-3.4 0-3 0-3.2-0.1-3.4-0.2-0.5-0.8-0.7-1.3-0.5m-5.5 2.5c-0.4 0.5-0.7 0.9-1 1.3-2.2 3.7-1 8.6 2.7 10.9 1.4 0.8 2.9 1.3 4.5 1.2 0.8-0.1 1.4-0.2 2.1-0.4 3.4-1.1 5.6-4.1 5.6-7.6 0-2-0.7-3.9-2.1-5.4l-0.3-0.3-0.7 0.7-0.7 0.7 0.3 0.4c0.4 0.5 0.7 0.9 1 1.4 0.5 1.3 0.6 2.7 0.3 4.1-0.7 2.4-2.7 4.1-5.2 4.4-1.5 0.1-3-0.3-4.2-1.2-1.9-1.5-2.8-4-2.2-6.3 0.3-1 0.7-1.7 1.3-2.4l0.3-0.4-0.7-0.7c-0.4-0.4-0.7-0.7-0.7-0.7 0 0-0.2 0.2-0.3 0.3" stroke="none" fill="black" fill-rule="evenodd"></path><path fill-opacity="0.224" d="M11.6 4.1c-0.2 0.1-0.4 0.2-0.5 0.5-0.1 0.2-0.1 0.3-0.1 3.4l0 3.2 0.1 0.3c0.1 0.1 0.2 0.2 0.3 0.3 0.2 0.2 0.3 0.2 0.6 0.2 0.3 0 0.4 0 0.6-0.2 0.1-0.1 0.2-0.2 0.3-0.3l0.1-0.3 0-3.3 0-3.2-0.2-0.3c-0.1-0.1-0.2-0.2-0.3-0.3-0.2-0.1-0.6-0.1-0.9 0m-5.5 2.5c-1.2 1.4-1.9 2.9-2.1 4.7-0.2 2.3 0.7 4.7 2.4 6.4 3.1 3.1 8.1 3.1 11.2 0 1.7-1.7 2.6-4 2.4-6.4-0.2-1.8-0.9-3.4-2.2-4.8l-0.2-0.2-0.7 0.7-0.7 0.7 0.3 0.4c1 1.1 1.5 2.4 1.5 3.9 0 1.4-0.4 2.5-1.2 3.6-1.3 1.8-3.6 2.7-5.7 2.3-2.5-0.4-4.5-2.2-5-4.7-0.1-0.6-0.1-1.8 0-2.3 0.2-1.1 0.7-2 1.4-2.8l0.3-0.4-0.7-0.7c-0.4-0.4-0.7-0.7-0.7-0.7 0 0-0.2 0.1-0.3 0.3" stroke="none" fill="black" fill-rule="evenodd"></path><path fill-opacity="0.605" d="M11.7 4c-0.2 0.1-0.4 0.3-0.6 0.6l-0.1 0.2 0 3.2 0 3.2 0.1 0.3c0.2 0.2 0.2 0.2 0.4 0.4 0.4 0.1 0.6 0.1 1 0 0.2-0.2 0.2-0.2 0.4-0.4l0.1-0.3 0-3.2 0-3.2-0.1-0.2c-0.2-0.4-0.8-0.7-1.2-0.6m-5.6 2.6c-2 2.3-2.6 5.3-1.6 8.1 1 2.7 3.4 4.8 6.3 5.2 0.5 0.1 1.9 0.1 2.4 0 2-0.3 3.9-1.5 5.1-3 1.1-1.5 1.7-3.1 1.7-4.9 0-0.8-0.1-1.2-0.3-1.9-0.3-1.3-0.9-2.5-1.8-3.5l-0.3-0.3-0.7 0.7-0.7 0.7 0.2 0.2c0.2 0.2 0.7 0.9 0.9 1.4 1.7 3.3 0.1 7.2-3.4 8.4-3.5 1.2-7.2-1.1-7.8-4.8-0.3-1.7 0.3-3.7 1.5-4.9l0.2-0.3-0.7-0.7-0.7-0.7-0.3 0.3" stroke="none" fill="black" fill-rule="evenodd"></path><path fill-opacity="0.959" d="M11.7 4.1c-0.2 0-0.5 0.2-0.6 0.5-0.1 0.1-0.1 0.4-0.1 3.2 0 1.7 0 3.1 0 3.3 0.1 0.5 0.5 0.9 1 0.9 0.5 0 0.9-0.4 1-0.9 0-0.2 0-1.6 0-3.3 0-2.5 0-3.1-0.1-3.2-0.2-0.4-0.7-0.7-1.2-0.5m-5.6 2.5c-0.8 0.9-1.4 2-1.8 3.2-0.4 1.4-0.4 3 0 4.4 0.8 2.7 2.9 4.8 5.7 5.5 0.7 0.2 1.2 0.3 2 0.3 0.8 0 1.3-0.1 2-0.3 1.5-0.4 2.7-1.1 3.7-2.2 1.2-1.1 1.9-2.6 2.2-4.2 0.1-0.7 0.1-1.9 0-2.5-0.2-1-0.5-2-1-2.8-0.3-0.5-0.8-1.2-1.1-1.5l-0.2-0.2-0.7 0.7-0.7 0.7 0.2 0.2c0.7 0.8 1.3 1.8 1.5 2.8 0.1 0.6 0.1 1.7 0 2.3-0.1 0.8-0.4 1.6-0.9 2.4-0.3 0.4-1.2 1.3-1.6 1.6-0.5 0.3-1 0.5-1.5 0.7-2 0.7-4.3 0.2-5.9-1.2-1-0.9-1.7-2.1-1.9-3.5-0.1-0.6-0.1-1.7 0-2.3 0.2-1 0.8-2 1.5-2.8l0.2-0.2-0.7-0.7c-0.4-0.3-0.7-0.6-0.7-0.6 0 0-0.1 0.1-0.3 0.2" stroke="none" fill="black" fill-rule="evenodd"></path></svg>