<?xml version="1.0"?><svg xmlns="http://www.w3.org/2000/svg" width="24" height="24" viewBox="0 0 24 24" version="1.1"><rect x="0" y="0" width="24" height="24" fill="#00000000"></rect><path fill-opacity="0.404" d="M10.4 4.1c-0.1 0-0.3 0.1-0.4 0.1-0.2 0.2-0.6 0.6-0.8 0.8-0.2 0.5-0.2 0.3-0.2 7 0 6.7 0 6.5 0.2 7 0.2 0.2 0.5 0.6 0.8 0.7 0.4 0.3 0.6 0.3 2.9 0.3l2.1 0 0-1 0-1-2 0-2 0 0-6 0-6 2 0 2 0 0-1 0-1-2.2 0c-1.6 0-2.2 0-2.4 0.1m5.7 5.1l-2.8 2.8 2.9 2.8 2.8 2.9 0.7-0.7 0.7-0.7-1.6-1.7-1.6-1.6 3.4 0 3.4 0 0-1 0-1-3.4 0-3.4 0 1.6-1.6 1.6-1.6-0.7-0.7c-0.4-0.4-0.7-0.7-0.7-0.7 0 0-1.3 1.2-2.9 2.8" stroke="none" fill="black" fill-rule="evenodd"></path><path fill-opacity="0.355" d="M10.4 4.1c-0.6 0.2-1.1 0.7-1.3 1.4-0.1 0.2-0.1 0.9-0.1 6.6l0 6.4 0.2 0.3c0.2 0.4 0.4 0.7 0.7 0.9 0.5 0.3 0.6 0.3 3 0.3l2.1 0 0-1 0-1-2 0-2 0 0-6 0-6 2 0 2 0 0-1 0-1-2.2 0c-1.9 0-2.2 0-2.4 0.1m5.7 5.1l-2.8 2.8 2.9 2.8 2.8 2.9 0.7-0.7 0.7-0.7-1.6-1.7-1.6-1.6 3.4 0 3.4 0 0-1 0-1-3.4 0-3.4 0 1.6-1.6 1.6-1.6-0.7-0.7c-0.4-0.4-0.7-0.7-0.7-0.7 0 0-1.3 1.2-2.9 2.8" stroke="none" fill="black" fill-rule="evenodd"></path><path fill-opacity="0.184" d="M10.5 4.1c-0.3 0-0.7 0.3-1 0.5-0.1 0.2-0.2 0.4-0.3 0.6l-0.2 0.3 0 6.5 0 6.5 0.2 0.3c0.2 0.4 0.6 0.8 1 1l0.3 0.2 2.3 0 2.2 0 0-1 0-1-2 0-2 0 0-6 0-6 2 0 2 0 0-1 0-1-2.1 0c-1.2 0-2.3 0-2.4 0.1m5.6 5.1l-2.8 2.8 2.9 2.8 2.8 2.9 0.7-0.8 0.7-0.7-1.6-1.6-1.6-1.6 3.4 0 3.4 0 0-1 0-1-3.4 0-3.4 0 1.6-1.6 1.6-1.6-0.7-0.7c-0.4-0.4-0.7-0.8-0.7-0.8 0 0-1.3 1.3-2.9 2.9" stroke="none" fill="black" fill-rule="evenodd"></path><path fill-opacity="0.975" d="M10.5 4.1c-0.7 0.2-1.3 0.8-1.4 1.5-0.1 0.2-0.1 2.5-0.1 6.4 0 6.6 0 6.4 0.2 6.9 0.2 0.3 0.6 0.7 0.9 0.9 0.4 0.2 0.7 0.2 2.9 0.2l2 0 0-1 0-1-2 0-2 0 0-6 0-6 2 0 2 0 0-1 0-1-2.1 0c-1.5 0-2.2 0-2.4 0.1m5.7 5.1l-2.9 2.8 0.6 0.5c0.2 0.3 1.5 1.6 2.8 2.8l2.3 2.3 0.7-0.7 0.7-0.7-1.6-1.6-1.6-1.6 3.4 0 3.4 0 0-1 0-1-3.4 0-3.4 0 1.6-1.6 1.6-1.6-0.7-0.7c-0.4-0.4-0.7-0.7-0.7-0.7 0 0-1.3 1.3-2.8 2.8" stroke="none" fill="black" fill-rule="evenodd"></path></svg>