<?xml version="1.0"?><svg xmlns="http://www.w3.org/2000/svg" width="24" height="24" viewBox="0 0 24 24" version="1.1"><rect x="0" y="0" width="24" height="24" fill="#00000000"></rect><path fill-opacity="0.431" d="M5 2.5l0 1.5 2 0 2 0 0-1.5 0-1.5-2 0-2 0 0 1.5m10 0l0 1.5 2 0 2 0 0-1.5 0-1.5-2 0-2 0 0 1.5m-10 6.3c0 2.8 0 3.1 0.2 3.9 0.7 2.8 3.1 4.9 6 5.2 3.5 0.5 6.7-1.8 7.6-5.2 0.2-0.8 0.2-1.1 0.2-3.9l0-2.8-2 0-2 0 0 2.8 0 2.7-0.2 0.4c-0.3 1-1 1.7-2 2-0.4 0.1-1.3 0.1-1.7 0-0.9-0.4-1.6-1-1.9-2l-0.2-0.4 0-2.7 0-2.8-2 0-2 0 0 2.8" stroke="none" fill="black" fill-rule="evenodd"></path><path fill-opacity="0.145" d="M5 2.5l0 1.5 2 0 2 0 0-1.5 0-1.5-2 0-2 0 0 1.5m10 0l0 1.5 2 0 2 0 0-1.5 0-1.5-2 0-2 0 0 1.5m-10 6.2c0 2.1 0 2.9 0.1 3.3 0.4 2.6 2.2 4.8 4.7 5.6 0.7 0.3 1.3 0.4 2.2 0.4 1.2 0 2-0.2 3.1-0.7 1.8-0.9 3.2-2.6 3.7-4.6 0.2-0.8 0.2-1.2 0.2-4l0-2.7-2 0-2 0 0 2.6c0 2.2 0 2.7-0.1 3-0.3 1.4-1.5 2.4-2.9 2.4-1.4 0-2.6-1-2.9-2.4-0.1-0.3-0.1-0.8-0.1-3l0-2.6-2 0-2 0 0 2.7" stroke="none" fill="black" fill-rule="evenodd"></path><path fill-opacity="0.387" d="M5 8.9c0 2.8 0 3 0.1 3.5 0.4 1.7 1.3 3.1 2.6 4.1 0.9 0.7 2 1.2 3.1 1.4 0.6 0.1 1.8 0.1 2.4 0 2.9-0.5 5-2.6 5.7-5.5 0.1-0.5 0.1-0.7 0.1-3.5l0-2.9-2 0-2 0 0 2.8c0 2.7 0 2.8-0.1 3.1-0.2 0.6-0.4 0.8-0.8 1.2-0.3 0.3-0.5 0.4-0.8 0.6-0.9 0.4-1.7 0.4-2.5 0-0.8-0.3-1.3-0.9-1.7-1.8-0.1-0.3-0.1-0.4-0.1-3.1l0-2.8-2 0-2 0 0 2.9" stroke="none" fill="black" fill-rule="evenodd"></path><path fill-opacity="0.974" d="M5 8.5c0 2.6 0 3.3 0.2 4.1 0.6 2.3 2.3 4.2 4.5 5 4 1.3 8.1-1 9.1-5 0.2-0.8 0.2-1.5 0.2-4.1l0-2.5-2 0-2 0 0 2.8c0 2.9 0 2.9-0.1 3.2-0.4 0.8-1.1 1.6-1.9 1.9-0.5 0.1-1.5 0.1-2 0-0.8-0.3-1.5-1.1-1.9-1.9-0.1-0.3-0.1-0.3-0.1-3.2l0-2.8-2 0-2 0 0 2.5" stroke="none" fill="black" fill-rule="evenodd"></path></svg>