<?xml version="1.0"?><svg xmlns="http://www.w3.org/2000/svg" width="24" height="24" viewBox="0 0 24 24" version="1.1"><rect x="0" y="0" width="24" height="24" fill="#00000000"></rect><path fill-opacity="0.447" d="M6.5 2.5c-2.5 2.6-3 3.1-3.2 3.5-0.3 0.5-0.3 0.2-0.3 6 0 5.6 0 5.5 0.2 5.9 0.2 0.5 0.8 0.9 1.3 1 0.4 0.1 14.6 0.1 15 0 0.6-0.1 1.1-0.6 1.4-1.1l0.1-0.3 0-5.5 0-5.5-0.2-0.3c-0.1-0.2-0.3-0.5-0.5-0.7-0.2-0.2-1.5-1.6-2.8-3l-2.6-2.5-2.9 0-2.9 0-2.6 2.5m5.1-2.1c-0.2 0.1-1.3 1.2-3.2 3.1-2.7 2.7-2.9 3-3 3.2-0.1 0.3 0 0.6 0.1 0.8 0.1 0.1 1.5 1.5 3.1 3.1 2.6 2.7 2.9 2.9 3.1 3 0.3 0.1 0.6 0 0.8-0.1 0.1-0.1 1.5-1.5 3.1-3.1 3.1-3 3-3 3-3.4 0-0.4 0.1-0.4-3-3.5-2-2-3-3-3.2-3.1-0.2-0.1-0.6-0.1-0.8 0m-6.6 13.1l0 3.5 7 0 7 0 0-3.5 0-3.6-2.5 2.6c-2.7 2.6-2.9 2.8-3.5 3-0.5 0.2-1.5 0.2-2 0-0.6-0.2-0.8-0.4-3.5-3l-2.5-2.6 0 3.6" stroke="none" fill="black" fill-rule="evenodd"></path><path fill-opacity="0.177" d="M6.6 2.5c-3.2 3.2-3.4 3.4-3.5 4.1-0.1 0.2-0.1 2.1-0.1 5.6l0 5.3 0.2 0.4c0.3 0.6 0.8 0.9 1.4 1 0.4 0.1 14.4 0.1 14.8 0 0.6-0.1 1.1-0.4 1.4-1l0.2-0.4 0-5.3c0-3.5 0-5.4-0.1-5.6-0.1-0.7-0.3-0.9-3.5-4.1l-2.5-2.5-2.9 0-2.9 0-2.5 2.5m5-2.1c-0.3 0.2-6.1 6-6.2 6.2-0.1 0.2-0.1 0.6 0 0.8 0.1 0.2 5.9 6 6.2 6.2 0.2 0.1 0.6 0.1 0.8 0 0.3-0.2 6.1-6 6.2-6.2 0.1-0.2 0.1-0.6 0-0.8-0.1-0.2-5.9-6-6.2-6.2-0.1 0-0.3 0-0.4 0-0.1 0-0.3 0-0.4 0m-6.6 13.1l0 3.5 7 0 7 0 0-3.5 0-3.6-0.9 0.9c-0.5 0.5-1.7 1.7-2.6 2.6-1.7 1.6-1.9 1.8-2.2 1.9-0.8 0.4-1.8 0.4-2.6 0-0.4-0.1-0.5-0.3-4.6-4.3l-1.1-1.1 0 3.6" stroke="none" fill="black" fill-rule="evenodd"></path><path fill-opacity="0.371" d="M6.4 2.7c-1.4 1.5-2.7 2.8-2.9 3-0.1 0.2-0.3 0.4-0.4 0.6l-0.1 0.3 0 5.4 0 5.5 0.2 0.3c0.3 0.6 0.8 1 1.5 1.2 0.4 0 14.2 0 14.6 0 0.8-0.2 1.5-0.8 1.6-1.6 0.1-0.2 0.1-1.6 0.1-5.5l0-5.3-0.1-0.3c-0.1-0.2-0.3-0.4-0.4-0.6-0.2-0.2-1.5-1.5-2.9-3l-2.7-2.7-2.9 0-2.9 0-2.7 2.7m5.2-2.3c-0.2 0.1-6 5.9-6.2 6.2-0.1 0.2-0.1 0.5 0 0.8 0.1 0.2 5.9 6 6.2 6.2 0.2 0.1 0.6 0.1 0.8 0 0.3-0.2 6.1-6 6.2-6.2 0-0.1 0.1-0.3 0.1-0.4 0-0.1-0.1-0.3-0.1-0.4-0.1-0.2-5.9-6-6.2-6.2-0.2-0.1-0.6-0.1-0.8 0m-6.6 13l0 3.6 7 0 7 0 0-3.6 0-3.5-2.6 2.6c-2.5 2.5-2.7 2.6-3 2.8-0.9 0.4-1.9 0.4-2.7 0-0.4-0.2-0.6-0.3-3.1-2.8l-2.6-2.6 0 3.5" stroke="none" fill="black" fill-rule="evenodd"></path><path fill-opacity="0.973" d="M6.5 2.6c-1.4 1.4-2.7 2.7-2.8 2.9-0.4 0.4-0.6 0.8-0.7 1.2 0 0.4 0 10.3 0.1 10.7 0.1 0.8 0.8 1.4 1.6 1.5 0.4 0.1 14.2 0.1 14.6 0 0.8-0.1 1.5-0.7 1.6-1.5 0.1-0.4 0.1-10.2 0.1-10.6-0.1-0.5-0.3-0.9-0.7-1.3-0.1-0.2-1.4-1.5-2.8-2.9l-2.6-2.6-2.9 0-2.9 0-2.6 2.6m5.2-2.2c-0.2 0-0.4 0.2-3.2 3-1.7 1.7-3 3.1-3.1 3.2-0.1 0.2-0.1 0.6 0 0.8 0.1 0.1 1.5 1.5 3.1 3.2 2.9 2.9 3 3 3.3 3 0.1 0.1 0.3 0.1 0.4 0 0.3 0 0.4-0.1 3.3-3 1.6-1.7 3-3.1 3.1-3.2 0.1-0.2 0.1-0.6 0-0.8-0.1-0.1-1.4-1.5-3.1-3.2-2.6-2.5-3.1-3-3.2-3-0.1 0-0.2-0.1-0.2-0.1-0.1 0-0.2 0-0.4 0.1m-6.7 13l0 3.6 7 0 7 0 0-3.6 0-3.5-2.6 2.6c-2.8 2.8-2.9 2.8-3.6 3-0.4 0.1-1.2 0.1-1.6 0-0.7-0.2-0.8-0.2-3.6-3l-2.6-2.6 0 3.5" stroke="none" fill="black" fill-rule="evenodd"></path></svg>