<?xml version="1.0"?><svg xmlns="http://www.w3.org/2000/svg" width="24" height="24" viewBox="0 0 24 24" version="1.1"><rect x="0" y="0" width="24" height="24" fill="#00000000"></rect><path fill-opacity="0.314" d="M16.3 6.5c-0.4 0.3-0.7 0.6-0.7 0.7 0 0 0.4 0.4 0.9 0.9l0.9 0.9-4.6 0-4.5 0-0.4 0.1c-1.1 0.4-2.1 1.2-2.5 2.2-0.3 0.7-0.4 0.8-0.4 2.3l0 1.4 1 0 1 0 0-1.2c0-1.1 0-1.3 0.1-1.5 0.3-0.5 0.7-1 1.2-1.2 0.3-0.1 0.6-0.1 4.7-0.1l4.4 0-0.9 0.9c-0.5 0.5-0.9 0.9-0.9 0.9 0 0.1 0.3 0.4 0.7 0.7l0.7 0.7 1.5-1.4c0.8-0.8 1.8-1.8 2.1-2.2l0.7-0.6-2.1-2.1c-1.2-1.2-2.2-2.1-2.2-2.1 0 0-0.3 0.3-0.7 0.7" stroke="none" fill="black" fill-rule="evenodd"></path><path fill-opacity="0.308" d="M16.3 6.5l-0.7 0.7 0.9 0.9 0.9 0.9-4.6 0-4.5 0-0.5 0.2c-1.2 0.4-2.2 1.3-2.6 2.5-0.2 0.5-0.2 0.9-0.2 2.1l0 1.2 1 0 1 0 0-1.2c0-1.1 0-1.2 0.1-1.5 0.3-0.5 0.7-0.9 1.2-1.2l0.3-0.1 4.4 0 4.4 0-0.9 0.9-0.9 0.9 0.7 0.7 0.7 0.7 2.1-2.1c1.2-1.1 2.2-2.1 2.2-2.1 0 0-4.3-4.2-4.3-4.2 0 0-0.3 0.3-0.7 0.7" stroke="none" fill="black" fill-rule="evenodd"></path><path fill-opacity="0.422" d="M16.3 6.5l-0.7 0.7 0.9 0.9 0.9 0.9-4.5 0c-4.6 0-4.6 0-4.9 0.1-1.6 0.5-2.7 1.7-2.9 3.2-0.1 0.3-0.1 0.8-0.1 1.6l0 1.1 1 0 1 0 0-1.2 0-1.3 0.2-0.3c0.3-0.6 0.7-0.9 1.3-1.1 0.2-0.1 0.8-0.1 4.6-0.1l4.3 0-0.9 0.9-0.9 0.9 0.7 0.7 0.7 0.7 2.1-2.1 2.1-2.1-2.1-2.1c-1.1-1.2-2.1-2.1-2.1-2.1 0 0-0.3 0.3-0.7 0.7" stroke="none" fill="black" fill-rule="evenodd"></path><path fill-opacity="0.971" d="M16.3 6.5l-0.7 0.7 0.9 0.9 0.9 0.9-4.5 0c-4.4 0-4.5 0-4.9 0.1-1.4 0.5-2.5 1.5-2.9 2.9 0 0.4-0.1 0.6-0.1 1.7l0 1.3 1 0 1 0 0-1.2c0-1.2 0-1.4 0.2-1.8 0.2-0.2 0.6-0.6 0.8-0.8 0.5-0.2 0.4-0.2 5-0.2l4.4 0-0.9 0.9-0.9 0.9 0.7 0.7 0.7 0.7 2.1-2.1 2.1-2.1-2.1-2.1c-1.1-1.2-2.1-2.1-2.1-2.1 0 0-0.3 0.3-0.7 0.7" stroke="none" fill="black" fill-rule="evenodd"></path></svg>