<?xml version="1.0"?><svg xmlns="http://www.w3.org/2000/svg" width="24" height="24" viewBox="0 0 24 24" version="1.1"><rect x="0" y="0" width="24" height="24" fill="#00000000"></rect><path fill-opacity="0.447" d="M4.4 5.1c-0.4 0.1-0.6 0.3-0.9 0.6-0.2 0.3-0.3 0.4-0.4 0.7-0.1 0.4-0.1 10.8 0 11.2 0.2 0.6 0.7 1.2 1.4 1.3 0.4 0.1 14.6 0.1 15 0 0.7-0.1 1.2-0.7 1.4-1.3 0.1-0.4 0.1-10.7 0-11.1-0.1-0.5-0.5-1.1-1-1.3-0.4-0.2-0.2-0.2-7.9-0.2-6.8 0-7.4 0-7.6 0.1m1 2.1c0 0.1 0.1 0.3 0.1 0.4 0.1 0 1.5 1.4 3.1 3 3 3.1 3 3 3.4 3 0.4 0 0.4 0.1 3.4-3 1.6-1.6 3-3 3.1-3 0-0.1 0.1-0.3 0.1-0.4l0.1-0.2-6.7 0-6.7 0 0.1 0.2m-0.4 6.3l0 3.5 7 0 7 0 0-3.5 0-3.6-2.5 2.6c-2.7 2.6-2.9 2.8-3.5 3-0.5 0.2-1.5 0.2-2 0-0.6-0.2-0.8-0.4-3.5-3l-2.5-2.6 0 3.6" stroke="none" fill="black" fill-rule="evenodd"></path><path fill-opacity="0.241" d="M4.6 5.1c-0.6 0.1-1.1 0.5-1.4 1.1l-0.2 0.3 0 5.5 0 5.5 0.2 0.3c0.3 0.6 0.8 1 1.4 1.1 0.4 0.1 14.4 0.1 14.8 0 0.6-0.1 1.1-0.5 1.4-1.1l0.2-0.3 0-5.5 0-5.5-0.2-0.3c-0.3-0.6-0.8-1-1.4-1.1-0.3-0.1-14.5-0.1-14.8 0m0.8 2c0 0.3 0.1 0.5 3 3.4 2 2 3 3 3.2 3.1 0.2 0.1 0.5 0.1 0.8 0 0.2-0.1 6-5.9 6.2-6.2 0-0.1 0.1-0.2 0.1-0.3l0-0.1-6.7 0-6.6 0 0 0.1m-0.4 6.3l0 3.6 7 0 7 0 0-3.6 0-3.5-2.7 2.6c-2.4 2.5-2.7 2.7-3 2.8-0.8 0.4-1.8 0.4-2.6 0-0.3-0.1-0.6-0.3-3-2.8l-2.7-2.6 0 3.5" stroke="none" fill="black" fill-rule="evenodd"></path><path fill-opacity="0.552" d="M4.6 5.1c-0.4 0-0.7 0.2-1 0.5-0.3 0.3-0.5 0.6-0.5 1.1-0.1 0.2-0.1 1.9-0.1 5.5l0 5.2 0.1 0.3c0.3 0.5 0.7 1 1.3 1.2 0.2 0.1 0.6 0.1 7.6 0.1 7 0 7.4 0 7.7-0.1 0.5-0.2 0.9-0.7 1.2-1.2l0.1-0.3 0-5.2c0-3.6 0-5.3-0.1-5.5-0.1-0.9-0.7-1.5-1.5-1.6-0.4-0.1-14.5-0.1-14.8 0m0.8 2c0 0.1 0 0.2 0 0.3 0.2 0.3 6 6.1 6.2 6.2 0.2 0.1 0.6 0.1 0.8 0 0.2-0.1 6-5.9 6.2-6.2 0-0.1 0-0.2 0-0.3l0.1-0.1-6.7 0-6.6 0 0 0.1m-0.4 6.3l0 3.6 7 0 7 0 0-3.6 0-3.5-2.6 2.6c-2.5 2.5-2.7 2.6-3 2.8-0.9 0.4-1.9 0.4-2.7 0-0.4-0.2-0.6-0.3-3.1-2.8l-2.6-2.6 0 3.5" stroke="none" fill="black" fill-rule="evenodd"></path><path fill-opacity="0.979" d="M4.7 5.1c-0.4 0-0.8 0.2-1.1 0.5-0.3 0.3-0.5 0.7-0.6 1.1 0 0.4 0 10.2 0 10.6 0.2 0.8 0.8 1.5 1.7 1.6 0.4 0.1 14.1 0.1 14.6 0 0.8-0.1 1.5-0.7 1.6-1.6 0.1-0.4 0.1-10.2 0-10.6 0-0.4-0.2-0.8-0.5-1.1-0.3-0.3-0.7-0.5-1.1-0.5-0.4-0.1-14.3-0.1-14.6 0m0.7 2c0 0.1 0 0.2 0 0.3 0.1 0.1 1.5 1.5 3.1 3.2 2.9 2.9 3 3 3.3 3 0.1 0.1 0.3 0.1 0.4 0 0.3 0 0.4-0.1 3.3-3 1.6-1.7 3-3.1 3.1-3.2 0-0.1 0.1-0.2 0.1-0.3l0-0.1-6.7 0-6.6 0 0 0.1m-0.4 6.3l0 3.6 7 0 7 0 0-3.6 0-3.5-2.6 2.6c-2.8 2.8-2.9 2.8-3.6 3-0.4 0.1-1.2 0.1-1.6 0-0.7-0.2-0.8-0.2-3.6-3l-2.6-2.6 0 3.5" stroke="none" fill="black" fill-rule="evenodd"></path></svg>