<?xml version="1.0"?><svg xmlns="http://www.w3.org/2000/svg" width="24" height="24" viewBox="0 0 24 24" version="1.1"><rect x="0" y="0" width="24" height="24" fill="#00000000"></rect><path fill-opacity="0.329" d="M4.8 7.9l-2.1 2.1 1.3 1.3c0.7 0.7 1.7 1.7 2.2 2.1l0.8 0.8 0.7-0.7 0.7-0.7-0.9-0.9-0.9-0.9 4.4 0c4.1 0 4.4 0 4.7 0.1 0.5 0.2 0.9 0.7 1.2 1.2 0.1 0.2 0.1 0.4 0.1 1.5l0 1.2 1 0 1 0 0-1.4c0-1.5-0.1-1.6-0.4-2.3-0.4-1-1.4-1.8-2.5-2.2l-0.4-0.1-4.5 0-4.6 0 0.9-0.9 0.9-0.9-0.7-0.7c-0.4-0.4-0.7-0.7-0.7-0.7 0 0-1 0.9-2.2 2.1" stroke="none" fill="black" fill-rule="evenodd"></path><path fill-opacity="0.305" d="M4.9 7.9l-2.2 2.1 0.6 0.6c0.3 0.3 1.3 1.2 2.1 2.1l1.6 1.5 0.7-0.7 0.7-0.7-0.9-0.9-0.9-0.9 4.4 0 4.4 0 0.3 0.1c0.5 0.3 0.9 0.7 1.2 1.2 0.1 0.3 0.1 0.4 0.1 1.5l0 1.2 1 0 1 0 0-1.3c0-1.2 0-1.4-0.1-1.7-0.2-0.6-0.5-1.1-0.8-1.5-0.5-0.6-1.1-1-1.9-1.3l-0.5-0.2-4.5 0-4.6 0 0.9-0.9 0.9-0.9-0.7-0.7c-0.4-0.4-0.7-0.7-0.7-0.7 0 0-1 0.9-2.1 2.1" stroke="none" fill="black" fill-rule="evenodd"></path><path fill-opacity="0.395" d="M4.9 7.9l-2.1 2.1 2.1 2.1 2.1 2.1 0.7-0.7 0.7-0.7-0.9-0.9-0.9-0.9 4.3 0c3.8 0 4.4 0 4.6 0.1 0.6 0.2 1 0.5 1.3 1.1l0.2 0.3 0 1.3 0 1.2 1 0 1 0 0-1.1c0-1.3-0.1-1.8-0.3-2.4-0.5-1.2-1.5-2-2.8-2.4-0.2-0.1-0.8-0.1-4.8-0.1l-4.5 0 0.9-0.9 0.9-0.9-0.7-0.7c-0.4-0.4-0.7-0.7-0.7-0.7 0 0-1 0.9-2.1 2.1" stroke="none" fill="black" fill-rule="evenodd"></path><path fill-opacity="0.972" d="M4.9 7.9l-2.1 2.1 2.1 2.1 2.1 2.1 0.7-0.7 0.7-0.7-0.9-0.9-0.9-0.9 4.4 0c4.6 0 4.5 0 5 0.2 0.2 0.2 0.6 0.6 0.8 0.8 0.2 0.4 0.2 0.6 0.2 1.8l0 1.2 1 0 1 0 0-1.3c0-1.1-0.1-1.3-0.1-1.7-0.5-1.6-1.8-2.8-3.5-3-0.3 0-2.3 0-4.6 0l-4.2 0 0.9-0.9 0.9-0.9-0.7-0.7c-0.4-0.4-0.7-0.7-0.7-0.7 0 0-1 0.9-2.1 2.1" stroke="none" fill="black" fill-rule="evenodd"></path></svg>