<?xml version="1.0"?><svg xmlns="http://www.w3.org/2000/svg" width="24" height="24" viewBox="0 0 24 24" version="1.1"><rect x="0" y="0" width="24" height="24" fill="#00000000"></rect><path fill-opacity="0.314" d="M11.7 11.8c0 0.1 0 0.1 0.1 0.1 0 0 0.1-0.1 0.1-0.1 0 0-0.1-0.1-0.1-0.1-0.1 0-0.1 0-0.1 0.1m0.3 0.2c-0.2 0.1-0.3 0.3-0.3 0.3 0.1 0 0.6-0.5 0.6-0.6 0 0-0.1 0-0.3 0.3m0.1 0.2c0 0 0 0.1 0.1 0.1 0.1 0 0.1 0 0.1-0.1 0-0.1-0.1-0.1-0.2 0" stroke="none" fill="black" fill-rule="evenodd"></path><path fill-opacity="0.291" d="M11.7 11.8c0 0.1 0.2 0.1 0.2 0 0 0-0.1-0.1-0.1-0.1-0.1 0-0.1 0-0.1 0.1m0.3 0.2c-0.2 0.1-0.3 0.3-0.3 0.3 0.1 0 0.6-0.5 0.6-0.6 0 0-0.1 0-0.3 0.3m0.1 0.1c0 0.1 0 0.2 0.1 0.2 0.1 0 0.1 0 0.1-0.1 0-0.1-0.1-0.1-0.2-0.1" stroke="none" fill="black" fill-rule="evenodd"></path><path fill-opacity="0.605" d="M11.7 11.8c0 0.1 0.1 0.1 0.2 0 0 0 0 0 0-0.1-0.1 0-0.2 0-0.2 0.1m0.3 0.2c-0.2 0.1-0.3 0.3-0.3 0.3 0.1 0 0.6-0.5 0.6-0.6 0 0-0.1 0-0.3 0.3m0.1 0.2c0 0 0 0.1 0.1 0.1 0.1 0 0.1 0 0.1-0.1-0.1-0.1-0.1-0.1-0.2 0" stroke="none" fill="black" fill-rule="evenodd"></path><path fill-opacity="1.000" d="M11.7 11.7c0 0.1 0 0.2 0.1 0.2 0 0 0.1-0.1 0.1-0.1 0-0.1-0.1-0.1-0.2-0.1m0.3 0.2c-0.2 0.2-0.3 0.3-0.2 0.3 0 0.1 0.1 0 0.2-0.1 0.2-0.2 0.3-0.3 0.2-0.3 0-0.1-0.1 0-0.2 0.1m0.2 0.3c0 0.1 0.1 0.1 0.1 0 0 0 0 0-0.1 0 0 0 0 0 0 0" stroke="none" fill="black" fill-rule="evenodd"></path></svg>