<?xml version="1.0"?><svg xmlns="http://www.w3.org/2000/svg" width="24" height="24" viewBox="0 0 24 24" version="1.1"><rect x="0" y="0" width="24" height="24" fill="#00000000"></rect><path fill-opacity="0.365" d="M3 6l0 3 1 0 1 0 0-1.3 0-1.3 2.1 2.1c1.1 1.1 2 2.1 2.1 2.1 0 0 1.4-1.4 1.4-1.4 0-0.1-1-1-2.1-2.1l-2.1-2.1 1.3 0 1.3 0 0-1 0-1-3 0-3 0 0 3m12-2l0 1 1.3 0 1.3 0-2.1 2.1c-1.1 1.1-2 2-2 2.1 0 0 1.3 1.4 1.3 1.4 0.1 0 1-1 2.1-2.1l2.1-2.1 0 1.3 0 1.3 1 0 1 0 0-3 0-3-3 0-3 0 0 1m-7.9 11.5l-2.1 2.1 0-1.3 0-1.3-1 0-1 0 0 3 0 3 3 0 3 0 0-1 0-1-1.3 0-1.3 0 2.1-2.1c1.1-1.1 2.1-2 2.1-2.1 0 0-1.4-1.3-1.4-1.3-0.1 0-1 0.9-2.1 2m7-1.4c-0.4 0.4-0.6 0.7-0.6 0.7 0 0.1 0.9 1 2 2.1l2.1 2.1-1.3 0-1.3 0 0 1 0 1 3 0 3 0 0-3 0-3-1 0-1 0 0 1.3 0 1.3-2.1-2.1c-1.1-1.1-2-2-2.1-2 0 0-0.3 0.2-0.7 0.6" stroke="none" fill="black" fill-rule="evenodd"></path><path fill-opacity="0.037" d="M3 6l0 3 1 0 1 0 0-1.3 0-1.3 2.1 2.1c1.1 1.1 2 2.1 2.1 2.1 0 0 0.3-0.4 0.7-0.7l0.7-0.7-2.1-2.1-2.1-2.1 1.3 0 1.3 0 0-1 0-1-3 0-3 0 0 3m12-2l0 1 1.3 0 1.3 0-2.1 2.1c-1.1 1.1-2 2.1-2 2.1 0 0 1.3 1.4 1.3 1.4 0.1 0 1-1 2.1-2.1l2.1-2.1 0 1.3 0 1.3 1 0 1 0 0-3 0-3-3 0-3 0 0 1m-7.9 11.5l-2.1 2.1 0-1.3 0-1.3-1 0-1 0 0 3 0 3 3 0 3 0 0-1 0-1-1.3 0-1.3 0 2-2.1c1.2-1.1 2.1-2 2.1-2.1 0.1 0-1.2-1.3-1.3-1.3-0.1 0-1 0.9-2.1 2m7-1.4l-0.7 0.7 2.1 2.1 2.1 2.1-1.3 0-1.3 0 0 1 0 1 3 0 3 0 0-3 0-3-1 0-1 0 0 1.3 0 1.3-2.1-2.1c-1.1-1.1-2-2-2.1-2 0 0-0.3 0.3-0.7 0.6" stroke="none" fill="black" fill-rule="evenodd"></path><path fill-opacity="0.083" d="M3 6l0 3 1 0 1 0 0-1.3 0-1.3 2.1 2.1c1.1 1.1 2 2.1 2.1 2.1 0 0 0.3-0.4 0.7-0.7l0.7-0.7-2.1-2.1-2.1-2.1 1.3 0 1.3 0 0-1 0-1-3 0-3 0 0 3m12-2l0 1 1.3 0 1.3 0-2.1 2.1-2.1 2.1 0.7 0.7c0.4 0.3 0.7 0.7 0.7 0.7 0.1 0 1-1 2.1-2.1l2.1-2.1 0 1.3 0 1.3 1 0 1 0 0-3 0-3-3 0-3 0 0 1m-7.9 11.5l-2.1 2.1 0-1.3 0-1.3-1 0-1 0 0 3 0 3 3 0 3 0 0-1 0-1-1.3 0-1.3 0 2.1-2.1 2.1-2.1-0.7-0.7c-0.4-0.3-0.7-0.6-0.7-0.6-0.1 0-1 0.9-2.1 2m7-1.4l-0.7 0.7 2.1 2.1 2.1 2.1-1.3 0-1.3 0 0 1 0 1 3 0 3 0 0-3 0-3-1 0-1 0 0 1.3 0 1.3-2.1-2.1c-1.1-1.1-2.1-2-2.1-2 0 0-0.3 0.3-0.7 0.6" stroke="none" fill="black" fill-rule="evenodd"></path><path fill-opacity="1.000" d="M3 6l0 3 1 0 1 0 0-1.3 0-1.3 2.1 2.1c1.1 1.1 2 2.1 2.1 2.1 0 0 0.3-0.4 0.7-0.7l0.7-0.7-2.1-2.1-2.1-2.1 1.3 0 1.3 0 0-1 0-1-3 0-3 0 0 3m12-2l0 1 1.3 0 1.3 0-2.1 2.1-2.1 2.1 0.7 0.7c0.4 0.3 0.7 0.6 0.7 0.6 0 0 1-0.9 2.1-2.1l2.1-2 0 1.3 0 1.3 1 0 1 0 0-3 0-3-3 0-3 0 0 1m-7.9 11.5l-2.1 2.1 0-1.3 0-1.3-1 0-1 0 0 3 0 3 3 0 3 0 0-1 0-1-1.3 0-1.3 0 2.1-2.1 2.1-2.1-0.7-0.7c-0.4-0.3-0.7-0.6-0.7-0.6-0.1 0-1 0.9-2.1 2m7-1.4l-0.7 0.7 2.1 2.1 2.1 2.1-1.3 0-1.3 0 0 1 0 1 3 0 3 0 0-3 0-3-1 0-1 0 0 1.3 0 1.3-2.1-2.1c-1.1-1.1-2.1-2-2.1-2 0 0-0.3 0.3-0.7 0.6" stroke="none" fill="black" fill-rule="evenodd"></path></svg>