<?xml version="1.0"?><svg xmlns="http://www.w3.org/2000/svg" width="24" height="24" viewBox="0 0 24 24" version="1.1"><rect x="0" y="0" width="24" height="24" fill="#00000000"></rect><path fill-opacity="0.325" d="M11 1c-1.6 0.2-2.7 0.6-3.9 1.2-1.7 0.8-3.2 2.1-4.3 3.7-0.4 0.7-1 1.9-1.2 2.6-1.3 3.9-0.3 8.3 2.6 11.2 1.3 1.4 2.9 2.3 4.8 2.9 1 0.3 1.7 0.4 3 0.4 1 0 1.3 0 1.8-0.1 3.1-0.6 5.7-2.3 7.4-4.8 0.4-0.7 1-1.9 1.2-2.6 1-2.8 0.7-5.7-0.5-8.3-1-1.9-2.4-3.5-4.2-4.6-1.1-0.7-2.6-1.3-4-1.5-0.5-0.1-2.3-0.1-2.7-0.1m0.4 2c-3.7 0.3-6.7 2.7-7.9 6.2-1.2 3.4-0.1 7.3 2.7 9.6 1.1 1 2.3 1.6 3.8 1.9 1.2 0.3 2.8 0.3 4 0 2.3-0.5 4.2-1.8 5.5-3.7 1.5-2.3 1.9-5.3 1-8-1.1-3.1-3.9-5.4-7.2-5.9-0.4-0.1-1.5-0.1-1.9-0.1m-0.2 2c-0.1 0-0.4 0.1-0.6 0.2-1.4 0.2-2.5 0.9-3.6 1.9-0.9 0.9-1.6 2.1-1.9 3.5-0.1 0.7-0.1 2.1 0 2.8 0.7 2.8 2.8 4.9 5.6 5.5 0.6 0.1 2 0.1 2.7 0 2.7-0.6 4.8-2.7 5.5-5.5 0.1-0.7 0.1-2.1 0-2.7-0.5-2.3-2-4.2-4.1-5.1-0.9-0.4-1.6-0.6-2.7-0.6-0.4 0-0.9 0-0.9 0m0.2 2.1c-1.1 0.1-2.1 0.6-2.9 1.4-2 1.9-2 5.1 0 7 1.7 1.7 4.3 2 6.3 0.6 1.5-1 2.4-2.9 2.2-4.6-0.2-1.2-0.7-2.2-1.5-3-0.8-0.8-1.8-1.3-3-1.4-0.5-0.1-0.6-0.1-1.1 0m0 1.9c-1.1 0.3-1.9 1-2.3 2-0.1 0.5-0.1 1.4 0 1.9 0.3 0.9 1.1 1.7 1.9 2 0.3 0.1 0.5 0.1 1 0.1 0.5 0 0.7 0 1-0.1 0.8-0.3 1.6-1.1 1.9-2 0.1-0.5 0.1-1.3 0-1.8-0.3-0.9-1.1-1.7-1.9-2-0.2 0-0.5-0.1-0.9-0.1-0.3 0-0.6 0-0.7 0m0.1 2.1c-0.2 0.2-0.2 0.2-0.4 0.5-0.1 0.2-0.1 0.3-0.1 0.5 0.1 0.3 0.2 0.6 0.5 0.7 0.1 0.2 0.2 0.2 0.5 0.2 0.3 0 0.4 0 0.5-0.2 0.7-0.4 0.6-1.3-0.1-1.7-0.3-0.1-0.5-0.1-0.9 0" stroke="none" fill="black" fill-rule="evenodd"></path><path fill-opacity="0.413" d="M11.2 1c0 0-0.3 0.1-0.6 0.1-1.1 0.1-2.3 0.5-3.5 1.1-4 1.9-6.5 6.3-6 10.8 0.4 5.1 4.3 9.1 9.3 9.9 0.8 0.1 2.4 0.1 3.2 0 2.4-0.4 4.6-1.5 6.3-3.3 0.8-0.8 1.4-1.7 2-2.8 1.5-3 1.5-6.6 0-9.6-0.7-1.4-1.7-2.6-2.9-3.7-1.5-1.2-3.5-2.1-5.4-2.4-0.4 0-2.1-0.1-2.4-0.1m0.1 2c-1.3 0.2-2.3 0.5-3.3 1-2.7 1.3-4.4 3.7-4.9 6.7-0.1 0.5-0.1 2.1 0 2.6 0.5 3.3 2.7 6 5.7 7.1 1.1 0.4 2 0.6 3.2 0.6 0.9 0 1.4-0.1 2.2-0.3 3.2-0.8 5.7-3.3 6.5-6.5 0.2-0.8 0.3-1.3 0.3-2.2 0-0.9-0.1-1.4-0.3-2.2-0.9-3.5-3.7-6.1-7.3-6.7-0.4-0.1-1.8-0.1-2.1-0.1m-0.3 2.1c-1.6 0.2-2.8 0.8-3.8 1.8-0.7 0.7-1.2 1.4-1.6 2.3-0.9 2.1-0.8 4.5 0.4 6.4 0.5 0.8 1.3 1.7 2.1 2.2 0.7 0.5 1.7 0.9 2.6 1.1 0.6 0.1 2 0.1 2.6 0 0.9-0.2 1.9-0.6 2.6-1.1 0.5-0.3 1.3-1 1.6-1.5 1.9-2.5 2-5.7 0.3-8.2-0.4-0.6-1.2-1.4-1.7-1.8-0.6-0.4-1.4-0.8-2-1-1-0.3-2.2-0.4-3.1-0.2m0.5 1.9c-1.1 0.2-1.9 0.5-2.6 1.1-2.7 2.1-2.5 6.1 0.3 8.1 0.8 0.5 1.9 0.8 2.8 0.8 0.2 0 0.5 0 0.8-0.1 1.2-0.2 2.3-0.8 3.1-1.8 1.2-1.5 1.4-3.6 0.6-5.3-0.9-1.7-2.7-2.8-4.6-2.8-0.2 0-0.4 0-0.4 0m-0.1 2.1c-0.2 0-0.5 0.1-0.7 0.2-0.3 0.2-0.5 0.3-0.8 0.6-0.6 0.6-0.9 1.3-0.9 2.1 0 0.8 0.3 1.5 0.9 2.1 0.5 0.5 0.9 0.7 1.4 0.8 1.1 0.2 2 0 2.8-0.8 0.8-0.7 1.1-1.7 0.8-2.8-0.1-0.5-0.3-0.9-0.8-1.4-0.3-0.3-0.5-0.4-0.8-0.6-0.6-0.3-1.3-0.4-1.9-0.2m0.1 2c-0.1 0.1-0.2 0.2-0.3 0.3-0.2 0.2-0.2 0.3-0.2 0.6 0 0.3 0 0.4 0.2 0.6 0.4 0.5 1.2 0.5 1.6 0 0.2-0.2 0.2-0.3 0.2-0.6 0-0.3 0-0.4-0.2-0.6-0.2-0.2-0.5-0.4-0.8-0.4-0.1 0-0.3 0-0.5 0.1" stroke="none" fill="black" fill-rule="evenodd"></path><path fill-opacity="0.466" d="M11.2 1c-2.7 0.3-5 1.3-6.8 3.1-2 1.9-3.1 4.3-3.4 7.2-0.2 2.6 0.7 5.5 2.5 7.6 0.4 0.6 1.3 1.5 1.9 1.9 2.1 1.6 4.8 2.4 7.4 2.2 2.1-0.2 4.1-1 5.8-2.2 0.6-0.4 1.5-1.3 1.9-1.9 0.4-0.4 0.9-1.2 1.1-1.6 0.6-1.1 1.1-2.6 1.3-3.9 0.1-0.6 0.1-2.2 0-2.8-0.3-1.9-0.9-3.6-2-5.1-0.5-0.6-1.7-1.8-2.3-2.3-1.5-1.1-3.2-1.8-5-2.1-0.5-0.1-2-0.1-2.4-0.1m-0.4 2.1c-3.7 0.5-6.6 3.1-7.5 6.6-0.7 2.6-0.2 5.3 1.4 7.6 0.4 0.6 1.4 1.6 2.1 2 1.1 0.8 2.3 1.3 3.7 1.6 0.7 0.1 2.3 0.1 3 0 2.5-0.5 4.6-1.8 6-3.9 2-3 2-7 0.1-9.9-1.5-2.2-3.8-3.6-6.5-4-0.6-0.1-1.7-0.1-2.3 0m0.4 2c-2.4 0.2-4.4 1.7-5.5 3.8-0.8 1.7-0.9 3.5-0.3 5.2 0.3 1.1 0.8 2 1.7 2.8 1 1 2.1 1.7 3.5 2 0.7 0.1 2.1 0.1 2.8 0 1.4-0.3 2.5-1 3.5-2 1.1-1 1.7-2.3 2-3.7 0.1-0.6 0.1-1.8 0-2.4-0.3-1.7-1.3-3.3-2.6-4.3-1.5-1.1-3.3-1.7-5.1-1.4m-0.1 2c-3.3 0.6-5.1 4.2-3.5 7.2 1.1 2.2 3.7 3.3 6.1 2.4 1.7-0.6 3-2.2 3.3-4 0-0.5 0-1.4-0.1-1.9-0.5-1.7-1.7-3-3.3-3.6-0.7-0.2-1.7-0.3-2.5-0.1m0.3 2c-1.4 0.3-2.4 1.5-2.4 2.9 0 1.6 1.4 3 3 3 1.3 0 2.5-0.9 2.9-2.1 0.5-1.7-0.6-3.5-2.3-3.8-0.4-0.1-0.8-0.1-1.2 0m0.2 2c-1 0.4-0.7 1.9 0.4 1.9 0.8 0 1.3-1 0.8-1.7-0.2-0.2-0.5-0.3-0.8-0.3-0.1 0-0.3 0-0.4 0.1" stroke="none" fill="black" fill-rule="evenodd"></path><path fill-opacity="0.963" d="M11.5 1c-1.6 0.1-3 0.5-4.3 1.1-3.4 1.7-5.6 4.8-6.1 8.6-0.1 0.6-0.1 2.2 0 2.8 0.3 1.9 1 3.7 2.2 5.2 0.4 0.6 1.5 1.6 2.1 2.1 3.1 2.3 7.2 2.8 10.8 1.3 5.8-2.4 8.4-9.1 5.7-14.8-1.4-3-4.1-5.1-7.2-5.9-1-0.3-2.4-0.4-3.2-0.4m-0.8 2.1c-1.5 0.2-3 0.8-4.2 1.7-0.4 0.4-1.2 1.1-1.5 1.5-0.8 1-1.4 2.3-1.8 3.6-0.3 1.2-0.3 2.9 0 4.2 0.4 1.3 1 2.6 1.8 3.6 0.4 0.4 1.1 1.2 1.5 1.5 3.3 2.4 7.8 2.4 11.1-0.1 0.5-0.4 1.4-1.3 1.8-1.9 0.5-0.8 1.1-2.1 1.4-3.1 0.3-1.3 0.3-2.9 0-4.2-0.4-1.3-1-2.6-1.8-3.6-0.3-0.4-1.1-1.1-1.5-1.5-1.2-0.9-2.7-1.5-4.3-1.7-0.6-0.1-1.9-0.1-2.5 0m0.7 2c-1.5 0.1-2.9 0.7-4 1.7-1.2 1-2 2.4-2.3 4-0.1 0.6-0.1 1.8 0 2.4 0.5 2.9 2.8 5.2 5.7 5.7 0.6 0.1 1.8 0.1 2.4 0 2.2-0.4 4.2-1.9 5.1-4 0.5-0.9 0.7-1.8 0.7-2.9 0-1.1-0.2-2-0.7-2.9-0.5-1.1-1.3-2.1-2.2-2.7-0.5-0.4-1.5-0.9-2.1-1.1-0.9-0.2-1.8-0.3-2.6-0.2m-0.1 1.9c0 0-0.2 0.1-0.4 0.1-0.9 0.2-1.8 0.7-2.5 1.4-0.6 0.7-1 1.3-1.2 2.2-0.2 0.4-0.2 0.5-0.2 1.3 0 0.8 0 0.9 0.2 1.3 0.4 1.6 1.6 2.9 3.1 3.4 0.6 0.2 0.8 0.3 1.7 0.3 0.6 0 0.9 0 1.2-0.1 1-0.3 1.7-0.7 2.4-1.4 0.6-0.6 1-1.3 1.2-2.2 0.2-0.4 0.2-0.5 0.2-1.3 0-0.8 0-0.9-0.2-1.3-0.2-0.9-0.6-1.5-1.2-2.2-0.7-0.7-1.4-1.1-2.4-1.4-0.3-0.1-1.6-0.1-1.9-0.1m0.3 2c-0.4 0.1-0.9 0.3-1.2 0.5-0.3 0.2-0.8 0.7-1 1.1-0.4 0.7-0.5 1.6-0.2 2.4 0.2 0.6 0.8 1.3 1.4 1.6 0.4 0.3 0.8 0.4 1.4 0.4 0.6 0 1-0.1 1.4-0.4 1.8-0.9 2.1-3.3 0.7-4.7-0.3-0.4-0.6-0.5-1.1-0.7-0.4-0.2-1-0.2-1.4-0.2m-0.1 2.1c-0.1 0.1-0.2 0.2-0.3 0.3-0.2 0.2-0.2 0.2-0.2 0.6 0 0.4 0 0.4 0.2 0.6 0.2 0.3 0.4 0.4 0.6 0.4 0.4 0 0.6 0 0.8-0.2 0.3-0.3 0.4-0.5 0.4-0.9 0-0.2-0.1-0.3-0.2-0.5-0.2-0.3-0.5-0.4-0.8-0.4-0.2 0-0.3 0-0.5 0.1" stroke="none" fill="black" fill-rule="evenodd"></path></svg>