<?xml version="1.0"?><svg xmlns="http://www.w3.org/2000/svg" width="24" height="24" viewBox="0 0 24 24" version="1.1"><rect x="0" y="0" width="24" height="24" fill="#00000000"></rect><path fill-opacity="0.318" d="M10.8 1.1c-2 0.2-4 1-5.6 2.2-0.5 0.4-1.3 1.2-1.7 1.8-0.8 0.9-1.6 2.3-1.9 3.4-1.2 3.4-0.6 7.2 1.6 10.1 0.4 0.5 1 1.2 1.1 1.2 0 0 0.3-0.3 0.7-0.7l0.7-0.7-0.4-0.4c-1.5-1.7-2.3-3.7-2.3-6 0-1.6 0.3-2.8 1-4.1 1.4-2.6 3.8-4.3 6.6-4.8 0.8-0.1 2-0.1 2.8 0 3.9 0.6 6.9 3.6 7.5 7.6 0.1 0.6 0.1 2 0 2.7-0.3 1.7-1 3.3-2.2 4.6l-0.4 0.4 0.7 0.7c0.4 0.4 0.7 0.7 0.7 0.7 0.1 0 0.2-0.2 0.4-0.4 2.7-3 3.6-7.1 2.3-10.9-0.2-0.7-0.8-1.9-1.2-2.6-1.9-2.7-4.8-4.5-8.1-4.8-0.5-0.1-1.8-0.1-2.3 0m0.2 4c-2.9 0.4-5.1 2.5-5.8 5.2-0.6 2.3 0 4.6 1.6 6.4l0.3 0.3 0.7-0.7 0.7-0.7-0.1-0.2c-0.5-0.5-0.7-0.8-0.9-1.2-0.9-1.9-0.5-4.2 0.9-5.7 0.8-0.8 1.9-1.3 3.1-1.5 1.2-0.1 2.5 0.3 3.4 1 2 1.4 2.6 4 1.6 6.2-0.2 0.4-0.4 0.7-0.9 1.2l-0.1 0.2 0.7 0.7 0.7 0.7 0.3-0.3c1.2-1.4 1.9-3.1 1.8-4.9-0.1-1.8-0.8-3.4-2-4.7-1.6-1.6-3.9-2.4-6-2m0.2 4c-1.8 0.5-2.7 2.5-1.9 4.2 0.2 0.3 0.5 0.8 0.6 0.8 0 0.1 0.4-0.2 0.7-0.6l0.7-0.7-0.1-0.3c-0.3-0.4-0.2-1 0.2-1.3 0.9-0.6 2 0.4 1.4 1.3l-0.1 0.3 0.6 0.7c0.4 0.3 0.7 0.7 0.8 0.7 0.1 0 0.4-0.6 0.6-0.9 0.8-1.7-0.1-3.7-1.9-4.2-0.5-0.1-1.1-0.1-1.6 0" stroke="none" fill="black" fill-rule="evenodd"></path><path fill-opacity="0.258" d="M10.9 1.1c-1.1 0.1-2.5 0.5-3.5 0.9-3.6 1.7-6 5-6.3 8.9-0.3 2.5 0.4 5.1 1.7 7.1 0.5 0.7 1.4 1.8 1.5 1.8 0 0 0.3-0.3 0.7-0.7 0.5-0.5 0.7-0.7 0.6-0.7 0-0.1-0.2-0.3-0.4-0.5-1.1-1.3-1.8-2.8-2.1-4.6-0.1-0.6-0.1-2.1 0-2.7 0.3-1.7 1-3.2 2.1-4.5 0.8-0.9 1.7-1.6 2.9-2.2 1.3-0.6 2.4-0.9 3.9-0.9 1.1 0 1.8 0.1 2.9 0.5 0.5 0.2 1.6 0.7 2.1 1 2 1.4 3.4 3.6 3.9 6 0.1 0.8 0.1 2.1 0 2.9-0.3 1.7-1 3.2-2.1 4.5-0.2 0.2-0.4 0.4-0.4 0.5-0.1 0 0.1 0.2 0.6 0.7 0.4 0.4 0.7 0.7 0.7 0.7 0.1 0 1-1.1 1.5-1.8 2.6-3.9 2.3-9.2-0.6-12.9-2.3-2.9-6.1-4.4-9.7-4m0.2 4c-1.6 0.2-2.9 0.8-4 1.9-1.6 1.6-2.3 3.8-2 6 0.2 1.4 0.8 2.7 1.8 3.8l0.2 0.2 0.7-0.7 0.7-0.7-0.3-0.4c-1.5-1.8-1.6-4.2-0.3-6.1 0.5-0.6 1.3-1.3 2.1-1.7 0.7-0.3 1.2-0.4 2-0.4 0.6 0 0.8 0.1 1.2 0.2 1.2 0.3 2.1 0.9 2.8 1.8 1.4 1.9 1.3 4.3-0.2 6.2l-0.3 0.4 0.7 0.7 0.7 0.7 0.2-0.2c0.1-0.1 0.3-0.3 0.4-0.5 2-2.6 2-6 0-8.5-0.8-1.2-1.9-2-3.3-2.4-0.9-0.3-2.2-0.5-3.1-0.3m0.3 4c-1.7 0.3-2.7 2-2.3 3.6 0.1 0.5 0.3 0.9 0.6 1.2l0.2 0.3 0.7-0.7 0.7-0.7-0.1-0.2c-0.2-0.2-0.2-0.3-0.2-0.6 0-0.3 0-0.4 0.2-0.6 0.2-0.2 0.4-0.4 0.8-0.4 0.4 0 0.6 0.2 0.8 0.4 0.2 0.2 0.2 0.3 0.2 0.6 0 0.2 0 0.3-0.2 0.5l-0.1 0.3 0.7 0.7 0.7 0.7 0.2-0.3c0.4-0.4 0.7-1.2 0.7-1.9 0-0.4-0.1-1-0.3-1.4-0.6-1.2-2-1.8-3.3-1.5" stroke="none" fill="black" fill-rule="evenodd"></path><path fill-opacity="0.279" d="M11.2 1c-1.5 0.2-2.4 0.4-3.5 0.9-1.3 0.5-2.4 1.3-3.4 2.3-1.7 1.7-2.8 3.7-3.2 6.2-0.1 0.8-0.1 2.5 0 3.3 0.4 2.2 1.4 4.3 2.8 5.7l0.4 0.4 0.7-0.7 0.7-0.7-0.4-0.4c-1.1-1.3-1.9-2.8-2.2-4.6-0.1-0.7-0.1-2.1 0-2.8 0.3-1.9 1.1-3.5 2.4-4.8 0.7-0.8 1.4-1.3 2.4-1.8 1.4-0.7 2.5-1 4.1-1 1.6 0 2.7 0.3 4.1 1 1 0.5 1.7 1 2.4 1.8 1.3 1.3 2.1 2.9 2.4 4.8 0.1 0.7 0.1 2.1 0 2.8-0.3 1.8-1.1 3.3-2.2 4.6l-0.4 0.4 0.7 0.7 0.7 0.7 0.4-0.4c1.4-1.5 2.4-3.6 2.8-5.8 0.1-0.8 0.1-2.4 0-3.1-0.3-2.1-1.1-3.8-2.4-5.4-0.3-0.5-1.2-1.3-1.6-1.7-1.5-1.2-3.3-2-5.3-2.3-0.5-0.1-2-0.1-2.4-0.1m0.1 4.1c-1 0.1-2.1 0.4-3 1-1.1 0.6-2.1 1.8-2.7 3-0.4 1-0.6 1.8-0.6 2.9 0 0.9 0.1 1.5 0.4 2.3 0.3 0.8 0.9 1.8 1.4 2.4l0.3 0.3 0.7-0.7 0.7-0.7-0.3-0.4c-2.1-2.4-1.4-6.1 1.5-7.6 0.6-0.4 1.6-0.6 2.3-0.6 1.7 0 3.4 0.9 4.3 2.4 1.1 1.9 0.9 4.3-0.6 5.9l-0.2 0.3 0.7 0.7 0.7 0.7 0.3-0.3c0.8-0.9 1.4-2.1 1.7-3.4 0.1-0.7 0.1-1.9 0-2.6-0.4-1.8-1.3-3.2-2.6-4.2-0.5-0.4-0.7-0.5-1.2-0.8-1.2-0.5-2.6-0.8-3.8-0.6m0.1 4c-1.4 0.3-2.4 1.5-2.4 2.9 0 0.7 0.3 1.4 0.7 1.9l0.2 0.3 0.7-0.7 0.7-0.7-0.1-0.2c-0.5-0.7 0-1.6 0.8-1.6 0.8 0 1.3 0.9 0.8 1.6l-0.1 0.2 0.7 0.7 0.7 0.7 0.2-0.3c0.5-0.5 0.7-1.3 0.7-2.1-0.1-1.8-1.8-3.1-3.6-2.7" stroke="none" fill="black" fill-rule="evenodd"></path><path fill-opacity="0.979" d="M11.1 1.1c-2.5 0.2-4.9 1.2-6.7 3-1.5 1.4-2.6 3.3-3.1 5.3-0.2 0.9-0.3 1.5-0.3 2.6 0 1.1 0.1 1.7 0.3 2.6 0.5 1.8 1.4 3.6 2.6 4.8l0.4 0.4 0.7-0.7 0.7-0.7-0.4-0.4c-2.2-2.4-2.9-6.1-1.7-9.3 0.7-1.7 2-3.3 3.5-4.3 1.5-0.9 3.2-1.4 4.9-1.4 1.7 0 3.3 0.5 4.8 1.4 0.7 0.4 1.1 0.8 1.7 1.4 1.6 1.7 2.5 3.9 2.5 6.2 0 2.2-0.8 4.4-2.3 6l-0.4 0.4 0.7 0.7 0.7 0.7 0.4-0.4c1.2-1.2 2.1-3 2.6-4.8 0.2-0.9 0.3-1.6 0.3-2.6 0-1.3-0.2-2.2-0.6-3.4-1.4-4.3-5.1-7.2-9.6-7.6-0.7 0-1 0-1.7 0.1m0.3 4c-2.7 0.2-5 2-5.9 4.5-0.8 2-0.5 4.3 0.7 6.2 0.1 0.3 0.6 0.9 0.8 1.1l0.1 0.1 0.7-0.7 0.7-0.7-0.3-0.3c-0.5-0.6-0.9-1.4-1.1-2.1-0.1-0.6-0.1-1.8 0-2.3 0.6-2.3 2.6-3.9 4.9-3.9 2.3 0 4.2 1.4 4.8 3.7 0.2 0.4 0.2 0.5 0.2 1.3 0 0.8 0 0.9-0.2 1.3-0.2 0.8-0.6 1.5-1.1 2l-0.2 0.3 0.7 0.7 0.7 0.7 0.1-0.1c0.1-0.1 0.2-0.3 0.4-0.5 2.5-3.1 2-7.5-1.1-9.9-1.4-1.1-3.2-1.6-4.9-1.4m0.1 4c-0.7 0.1-1.3 0.4-1.7 0.9-0.3 0.3-0.5 0.6-0.6 1.1-0.2 0.5-0.2 1.2-0.1 1.7 0.1 0.4 0.4 0.9 0.6 1.2l0.2 0.2 0.7-0.7c0.7-0.7 0.7-0.8 0.6-0.8-0.3-0.4-0.3-1.1 0.1-1.4 0.4-0.4 1-0.4 1.4 0 0.4 0.3 0.4 1 0.1 1.4-0.1 0-0.1 0.1 0.6 0.8l0.7 0.7 0.2-0.3c0.3-0.4 0.6-1 0.7-1.6 0-0.6-0.2-1.4-0.6-2-0.6-0.9-1.8-1.4-2.9-1.2" stroke="none" fill="black" fill-rule="evenodd"></path></svg>