<?xml version="1.0"?><svg xmlns="http://www.w3.org/2000/svg" width="24" height="24" viewBox="0 0 24 24" version="1.1"><rect x="0" y="0" width="24" height="24" fill="#00000000"></rect><path fill-opacity="0.471" d="M2.6 5.1c-0.8 0.4-0.8 1.5 0 1.8 0.2 0.1 0.7 0.1 4.4 0.1 4 0 4.2 0 4.4-0.1 0.8-0.3 0.8-1.5 0-1.8-0.2-0.1-0.4-0.1-4.4-0.1-4 0-4.2 0-4.4 0.1m0 6c-0.8 0.4-0.8 1.5 0 1.8 0.2 0.1 1.2 0.1 9.4 0.1 10 0 9.4 0 9.7-0.3 0.4-0.3 0.4-1.1 0-1.4-0.3-0.3 0.3-0.3-9.7-0.3-8.9 0-9.2 0-9.4 0.1m0 6c-0.8 0.4-0.8 1.5 0 1.8 0.2 0.1 0.9 0.1 6.4 0.1 6.7 0 6.4 0 6.7-0.3 0.2-0.1 0.3-0.4 0.3-0.7 0-0.3-0.1-0.6-0.3-0.7-0.3-0.3 0-0.3-6.7-0.3-5.9 0-6.2 0-6.4 0.1" stroke="none" fill="black" fill-rule="evenodd"></path><path fill-opacity="0.162" d="M2.6 5.1c-0.1 0-0.2 0.1-0.3 0.2-0.5 0.5-0.3 1.3 0.2 1.6l0.3 0.1 4.2 0 4.2 0 0.3-0.1c0.1-0.1 0.2-0.2 0.3-0.3 0.2-0.2 0.2-0.3 0.2-0.6 0-0.3 0-0.4-0.2-0.6-0.1-0.1-0.2-0.2-0.3-0.3-0.2-0.1-0.2-0.1-4.4-0.1-3.6 0-4.3 0-4.5 0.1m0 6c-0.1 0-0.2 0.1-0.3 0.2-0.5 0.5-0.3 1.3 0.2 1.6l0.3 0.1 9.2 0 9.2 0 0.3-0.1c0.1-0.1 0.2-0.2 0.3-0.3 0.2-0.2 0.2-0.3 0.2-0.6 0-0.3 0-0.4-0.2-0.6-0.1-0.1-0.2-0.2-0.3-0.3-0.2-0.1-0.2-0.1-9.4-0.1-7.9 0-9.3 0-9.5 0.1m0 6c-0.1 0-0.2 0.1-0.3 0.2-0.5 0.5-0.3 1.3 0.2 1.6l0.3 0.1 6.2 0 6.2 0 0.3-0.1c0.1-0.1 0.2-0.2 0.3-0.3 0.2-0.2 0.2-0.3 0.2-0.6 0-0.3 0-0.4-0.2-0.6-0.1-0.1-0.2-0.2-0.3-0.3-0.2-0.1-0.2-0.1-6.4-0.1-5.3 0-6.3 0-6.5 0.1" stroke="none" fill="black" fill-rule="evenodd"></path><path fill-opacity="0.637" d="M2.8 5c-0.9 0.3-1.1 1.5-0.2 1.9l0.2 0.1 4.2 0 4.2 0 0.2-0.1c0.7-0.4 0.8-1.4 0.1-1.7l-0.2-0.2-4.2 0c-2.3 0-4.2 0-4.3 0m0 6c-0.9 0.3-1.1 1.5-0.2 1.9l0.2 0.1 9.2 0 9.2 0 0.2-0.1c0.7-0.4 0.8-1.4 0.1-1.8l-0.2-0.1-9.2 0c-5 0-9.2 0-9.3 0m0 6c-0.9 0.3-1.1 1.5-0.2 1.9l0.2 0.1 6.2 0 6.2 0 0.2-0.1c0.7-0.4 0.8-1.4 0.1-1.8l-0.2-0.1-6.2 0c-3.4 0-6.2 0-6.3 0" stroke="none" fill="black" fill-rule="evenodd"></path><path fill-opacity="0.951" d="M2.7 5.1c-0.8 0.2-0.9 1.3-0.2 1.8l0.2 0.1 4.3 0 4.3 0 0.2-0.1c0.7-0.5 0.6-1.7-0.3-1.8-0.4-0.1-8.1-0.1-8.5 0m0 6c-0.8 0.2-0.9 1.3-0.2 1.8l0.2 0.1 9.3 0 9.3 0 0.2-0.1c0.7-0.5 0.6-1.7-0.3-1.8-0.4-0.1-18.1-0.1-18.5 0m0 6c-0.8 0.2-0.9 1.3-0.2 1.8l0.2 0.1 6.3 0 6.3 0 0.2-0.1c0.7-0.5 0.6-1.7-0.3-1.8-0.4-0.1-12.1-0.1-12.5 0" stroke="none" fill="black" fill-rule="evenodd"></path></svg>