<?xml version="1.0"?><svg xmlns="http://www.w3.org/2000/svg" width="24" height="24" viewBox="0 0 24 24" version="1.1"><rect x="0" y="0" width="24" height="24" fill="#00000000"></rect><path fill-opacity="0.333" d="M11.6 5.1c-0.3 0.1-0.4 0.3-0.5 0.5-0.1 0.2-0.1 0.9-0.1 6.4 0 6.7 0 6.4 0.3 6.7 0.3 0.4 1.1 0.4 1.4 0 0.3-0.3 0.3 0 0.3-6.7 0-5.9 0-6.2-0.1-6.4-0.2-0.5-0.8-0.7-1.3-0.5m-7.3 3.4c-0.4 0.3-0.7 0.6-0.7 0.7 0 0 0.6 0.6 1.4 1.4l1.4 1.4-1.4 1.4c-0.8 0.8-1.4 1.4-1.4 1.4 0 0.1 0.3 0.4 0.7 0.7l0.7 0.7 1.5-1.4c0.8-0.8 1.8-1.8 2.1-2.2l0.7-0.6-2.1-2.1c-1.2-1.2-2.2-2.1-2.2-2.1 0 0-0.3 0.3-0.7 0.7m12.5 1.4l-2.1 2.1 1.3 1.3c0.7 0.7 1.7 1.7 2.2 2.1l0.8 0.8 0.7-0.7 0.7-0.7-1.4-1.4-1.4-1.4 1.4-1.4 1.4-1.4-0.7-0.7c-0.4-0.4-0.7-0.7-0.7-0.7 0 0-1 0.9-2.2 2.1" stroke="none" fill="black" fill-rule="evenodd"></path><path fill-opacity="0.324" d="M11.6 5.1c-0.2 0.1-0.4 0.2-0.5 0.5-0.1 0.2-0.1 0.3-0.1 6.4l0 6.2 0.1 0.3c0.1 0.1 0.2 0.2 0.3 0.3 0.2 0.2 0.3 0.2 0.6 0.2 0.3 0 0.4 0 0.6-0.2 0.1-0.1 0.2-0.2 0.3-0.3l0.1-0.3 0-6.3 0-6.2-0.2-0.3c-0.1-0.1-0.2-0.2-0.3-0.3-0.2-0.1-0.6-0.1-0.9 0m-7.3 3.4l-0.7 0.7 1.4 1.4 1.4 1.4-1.4 1.4-1.4 1.4 0.7 0.7 0.7 0.7 2.1-2.1c1.2-1.1 2.2-2.1 2.2-2.1 0 0-4.3-4.2-4.3-4.2 0 0-0.3 0.3-0.7 0.7m12.6 1.4l-2.2 2.1 0.6 0.6c0.3 0.3 1.3 1.2 2.1 2.1l1.6 1.5 0.7-0.7 0.7-0.7-1.4-1.4-1.4-1.4 1.4-1.4 1.4-1.4-0.7-0.7c-0.4-0.4-0.7-0.7-0.7-0.7 0 0-1 0.9-2.1 2.1" stroke="none" fill="black" fill-rule="evenodd"></path><path fill-opacity="0.643" d="M11.7 5c-0.3 0.1-0.4 0.3-0.6 0.6l-0.1 0.2 0 6.3 0 6.2 0.2 0.2c0.1 0.3 0.5 0.5 0.8 0.5 0.3 0 0.7-0.2 0.8-0.5l0.2-0.2 0-6.3 0-6.3-0.2-0.2c-0.2-0.4-0.7-0.6-1.1-0.5m-7.4 3.5l-0.7 0.7 1.4 1.4 1.4 1.4-1.4 1.4-1.4 1.4 0.7 0.7 0.7 0.7 2.1-2.1 2.1-2.1-2.1-2.1c-1.1-1.2-2.1-2.1-2.1-2.1 0 0-0.3 0.3-0.7 0.7m12.6 1.4l-2.1 2.1 2.1 2.1 2.1 2.1 0.7-0.7 0.7-0.7-1.4-1.4-1.4-1.4 1.4-1.4 1.4-1.4-0.7-0.7c-0.4-0.4-0.7-0.7-0.7-0.7 0 0-1 0.9-2.1 2.1" stroke="none" fill="black" fill-rule="evenodd"></path><path fill-opacity="0.951" d="M11.7 5.1c-0.3 0.1-0.6 0.3-0.6 0.7-0.1 0.4-0.1 12 0 12.4 0.1 0.5 0.4 0.8 0.9 0.8 0.5 0 0.8-0.3 0.9-0.8 0.1-0.3 0.1-12.1 0-12.4-0.1-0.6-0.6-0.9-1.2-0.7m-7.4 3.4l-0.7 0.7 1.4 1.4 1.4 1.4-1.4 1.4-1.4 1.4 0.7 0.7 0.7 0.7 2.1-2.1 2.1-2.1-2.1-2.1c-1.1-1.2-2.1-2.1-2.1-2.1 0 0-0.3 0.3-0.7 0.7m12.6 1.4l-2.1 2.1 2.1 2.1 2.1 2.1 0.7-0.7 0.7-0.7-1.4-1.4-1.4-1.4 1.4-1.4 1.4-1.4-0.7-0.7c-0.4-0.4-0.7-0.7-0.7-0.7 0 0-1 0.9-2.1 2.1" stroke="none" fill="black" fill-rule="evenodd"></path></svg>