<?xml version="1.0"?><svg xmlns="http://www.w3.org/2000/svg" width="24" height="24" viewBox="0 0 24 24" version="1.1"><rect x="0" y="0" width="24" height="24" fill="#00000000"></rect><path fill-opacity="0.373" d="M8 5.4l0 5.3 0.1 0.4c0.5 1.3 1.5 2.3 2.8 2.8 0.3 0.1 0.5 0.1 1.1 0.1 0.6 0 0.8 0 1.1-0.1 1.3-0.5 2.3-1.5 2.8-2.8l0.1-0.4 0-5.3 0-5.4-1 0-1 0 0 5.2 0 5.2-0.1 0.3c-0.3 0.5-0.7 1-1.2 1.2-0.4 0.1-1 0.1-1.3 0-0.6-0.2-1-0.7-1.3-1.2l-0.1-0.3 0-5.2 0-5.2-1 0-1 0 0 5.4m-4 2.9c0 2.7 0 3.2 0.4 4.3 1.1 2.9 3.5 4.9 6.5 5.3 0.3 0.1 0.4 0.1 0.3 0.1l-0.2 0 0 2 0 2-2 0-2 0 0 1 0 1 5 0 5 0 0-1 0-1-2 0-2 0 0-2 0-2-0.2 0-0.2 0 0.2 0c0.5-0.1 1.1-0.2 1.6-0.4 3-0.9 5.1-3.4 5.5-6.5 0.1-0.4 0.1-1.1 0.1-2.8l0-2.3-1 0-1 0 0 2.1c0 1.1 0 2.2-0.1 2.5-0.3 2.9-2.5 5.1-5.3 5.4-2.9 0.3-5.6-1.6-6.4-4.5-0.2-0.7-0.2-1.2-0.2-3.4l0-2.1-1 0-1 0 0 2.3" stroke="none" fill="black" fill-rule="evenodd"></path><path fill-opacity="0.218" d="M8 5.2c0 5.6 0 5.5 0.3 6.3 0.2 0.5 0.5 0.9 0.9 1.3 1.6 1.6 4 1.6 5.6 0 0.4-0.4 0.7-0.8 0.9-1.3 0.3-0.8 0.3-0.7 0.3-6.3l0-5.2-1 0-1 0 0 5.1c0 3.5 0 5.1-0.1 5.3-0.2 1.1-1.2 1.7-2.2 1.6-0.7-0.2-1.2-0.6-1.5-1.2l-0.2-0.3 0-5.3 0-5.2-1 0-1 0 0 5.2m-4 2.9c0 1.2 0 2.4 0.1 2.7 0.2 2.5 1.6 4.7 3.7 6 1 0.6 2.3 1 3.3 1.1 0.4 0.1 0.4 0.1 0.2 0.1l-0.3 0 0 2 0 2-2 0-2 0 0 1 0 1 5 0 5 0 0-1 0-1-2 0-2 0 0-2 0-2-0.3 0c-0.2 0-0.2 0 0.2-0.1 3-0.3 5.8-2.5 6.7-5.5 0.3-1 0.4-1.6 0.4-4.2l0-2.2-1 0-1 0 0 2.4c0 2.6 0 2.7-0.3 3.6-0.9 2.6-3.8 4.4-6.6 3.9-2.5-0.4-4.4-2.2-5-4.7-0.1-0.3-0.1-0.7-0.1-2.8l0-2.4-1 0-1 0 0 2.1" stroke="none" fill="black" fill-rule="evenodd"></path><path fill-opacity="0.672" d="M8 5.3c0 5.3 0 5.3 0.1 5.7 0.2 0.5 0.4 1 0.7 1.4 0.5 0.6 1.3 1.2 2.2 1.5 0.5 0.1 1.5 0.1 2 0 1.4-0.4 2.5-1.5 2.9-2.9 0.1-0.4 0.1-0.4 0.1-5.7l0-5.3-1 0-1 0 0 5.1c0 5.7 0 5.4-0.3 6-0.8 1.2-2.6 1.2-3.4 0-0.3-0.5-0.3-0.3-0.3-5.9l0-5.2-1 0-1 0 0 5.3m-4 3.2c0 2.5 0.1 2.6 0.3 3.5 0.5 2 1.7 3.7 3.5 4.8 1 0.6 2.3 1.1 3.5 1.1l0.4 0.1-0.3 0-0.4 0 0 2 0 2-2 0-2 0 0 1 0 1 5 0 5 0 0-1 0-1-2 0-2 0 0-2 0-2-0.4 0-0.3 0 0.4-0.1c1.2 0 2.5-0.5 3.5-1.1 1.8-1.1 3-2.8 3.5-4.8 0.2-0.9 0.3-1 0.3-3.5l0-2.5-1 0-1 0 0 2.3c0 2.4 0 2.7-0.3 3.5-0.5 1.5-1.6 2.9-3 3.6-2.3 1.1-5 0.7-6.9-1.1-0.9-0.9-1.5-2-1.7-3.3-0.1-0.4-0.1-0.9-0.1-2.7l0-2.3-1 0-1 0 0 2.5" stroke="none" fill="black" fill-rule="evenodd"></path><path fill-opacity="0.951" d="M8 5.3l0 5.3 0.1 0.4c0.8 2.6 3.6 3.8 5.9 2.4 0.9-0.5 1.6-1.3 1.9-2.4l0.1-0.4 0-5.3 0-5.3-1 0-1 0 0 5.3 0 5.2-0.2 0.3c-0.1 0.4-0.5 0.8-0.9 1-0.4 0.2-0.4 0.2-0.9 0.2-0.5 0-0.5 0-0.9-0.2-0.4-0.2-0.8-0.6-0.9-1l-0.2-0.3 0-5.2 0-5.3-1 0-1 0 0 5.3m-4 3.1c0 1.8 0.1 2.5 0.1 2.8 0.5 3 2.5 5.4 5.3 6.3 0.7 0.3 1.5 0.4 2.2 0.5 0.2 0 0.2 0-0.1 0l-0.5 0 0 2 0 2-2 0-2 0 0 1 0 1 5 0 5 0 0-1 0-1-2 0-2 0 0-2 0-2-0.5 0c-0.3 0-0.3 0-0.1 0 2-0.1 4-1.1 5.5-2.6 0.8-0.9 1.5-2.2 1.8-3.4 0.2-0.8 0.3-1.2 0.3-3.6l0-2.4-1 0-1 0 0 2.3c0 2.5 0 2.8-0.3 3.6-0.3 1-0.8 1.7-1.6 2.5-1.1 1-2.5 1.6-4.1 1.6-1.1 0-2.2-0.3-3.1-0.8-1.2-0.8-2.2-2-2.6-3.3-0.3-0.8-0.3-1.1-0.3-3.6l0-2.3-1 0-1 0 0 2.4" stroke="none" fill="black" fill-rule="evenodd"></path></svg>