<?xml version="1.0"?><svg xmlns="http://www.w3.org/2000/svg" width="24" height="24" viewBox="0 0 24 24" version="1.1"><rect x="0" y="0" width="24" height="24" fill="#00000000"></rect><path fill-opacity="0.349" d="M6.2 5c-0.1 0-0.4 0.1-0.6 0.2-1.4 0.2-2.5 0.9-3.6 1.9-0.9 0.9-1.6 2.1-1.9 3.5-0.1 0.7-0.1 2.1 0 2.8 0.7 2.8 2.8 4.9 5.6 5.5 0.3 0.1 0.8 0.1 6.3 0.1 5.5 0 6 0 6.4-0.1 2.7-0.6 4.9-2.7 5.4-5.5 0.1-0.2 0.1-0.5 0.1-0.6 0 0 0.1-0.1 0.1-0.1 0 0 0.1-0.3 0.1-0.8 0-0.4-0.1-0.6-0.1-0.6 0 0-0.1-0.1-0.1-0.1 0-0.3-0.1-1.1-0.3-1.5-0.3-1-0.9-1.9-1.6-2.6-1-1-2.1-1.6-3.6-2l-0.4-0.1-5.9 0c-3.2 0-5.9 0-5.9 0m0.3 3c-0.6 0.2-0.8 0.2-1.1 0.3-1 0.5-1.9 1.5-2.3 2.7-0.1 0.5-0.1 1.5 0 2 0.4 1.4 1.5 2.5 2.9 2.9l0.4 0.1 5.6 0 5.6 0 0.4-0.1c1.4-0.4 2.5-1.5 2.9-2.9 0.1-0.5 0.1-1.5 0-2-0.2-0.7-0.6-1.4-1.2-1.9-0.5-0.5-1-0.7-1.7-1-0.4-0.1-0.4-0.1-5.9-0.1-3 0-5.5 0-5.6 0m-0.1 2.1c-0.9 0.3-1.4 1.1-1.4 2 0 0.3 0.1 0.5 0.2 0.8 0.8 1.5 2.8 1.5 3.6 0 0.2-0.4 0.2-0.4 0.2-0.9 0-0.4 0-0.5-0.2-0.8-0.4-1-1.4-1.4-2.4-1.1m10 0c-0.9 0.3-1.4 1.1-1.4 2 0 0.3 0.1 0.5 0.2 0.8 0.8 1.5 2.8 1.5 3.6 0 0.2-0.4 0.2-0.4 0.2-0.9 0-0.4 0-0.5-0.2-0.8-0.4-1-1.4-1.4-2.4-1.1m-16.4 1.9c0 0.4 0 0.6 0 0.4 0-0.2 0-0.6 0-0.8 0-0.2 0 0 0 0.4" stroke="none" fill="black" fill-rule="evenodd"></path><path fill-opacity="0.301" d="M6 5.1c-1.6 0.2-2.8 0.8-3.8 1.8-0.7 0.7-1.2 1.4-1.6 2.3-0.9 2.1-0.8 4.5 0.4 6.4 0.5 0.8 1.3 1.7 2.1 2.2 0.7 0.5 1.7 0.9 2.6 1.1 0.4 0.1 0.8 0.1 6.3 0.1 5.5 0 5.9 0 6.3-0.1 1.4-0.3 2.6-0.9 3.5-1.8 1.2-1.2 1.9-2.6 2.1-4 0-0.3 0.1-0.5 0.1-0.6 0.1-0.1 0.1-1.2 0-1.1 0 0.1 0 0 0-0.1-0.1-0.5-0.3-1.6-0.7-2.3-0.4-0.8-0.7-1.3-1.3-1.9-0.6-0.6-1.2-1-1.9-1.4-0.7-0.3-1-0.4-1.7-0.6l-0.5-0.1-5.7 0c-4.7 0-5.9 0-6.2 0.1m0.3 3c-0.5 0.1-0.8 0.2-1.2 0.4-0.4 0.2-0.5 0.3-0.9 0.7-1.3 1.3-1.6 3.3-0.6 4.9 0.6 0.9 1.5 1.5 2.5 1.8 0.4 0.1 11.4 0.1 11.8 0 2.1-0.5 3.4-2.5 3-4.6-0.1-0.5-0.3-1.1-0.6-1.5-0.2-0.3-0.6-0.8-1-1-0.2-0.2-0.7-0.5-1.2-0.6l-0.4-0.2-5.6 0c-4.6 0-5.6 0-5.8 0.1m0.2 2c-1 0.2-1.6 1.2-1.5 2.2 0.2 1.1 1.3 1.9 2.3 1.7 0.9-0.2 1.5-0.8 1.7-1.7 0.1-0.8-0.3-1.7-1-2-0.5-0.3-1-0.4-1.5-0.2m10 0c-1 0.2-1.6 1.2-1.5 2.2 0.2 1.1 1.3 1.9 2.3 1.7 0.9-0.2 1.5-0.8 1.7-1.7 0.1-0.8-0.3-1.7-1-2-0.5-0.3-1-0.4-1.5-0.2m-16.5 1.9c0 0.3 0 0.4 0 0.3 0-0.2 0-0.5 0-0.6 0-0.2 0-0.1 0 0.3" stroke="none" fill="black" fill-rule="evenodd"></path><path fill-opacity="0.655" d="M6.2 5.1c-3.3 0.3-5.8 2.9-6.2 6.2-0.1 1.6 0.3 3.3 1.2 4.6 0.4 0.6 1.3 1.5 1.9 1.9 1 0.6 2 1 3.2 1.1 0.6 0.1 10.8 0.1 11.4 0 1.7-0.1 3.1-0.8 4.2-2 0.9-0.8 1.4-1.7 1.7-2.8 0.2-0.5 0.4-1.2 0.4-1.5 0-0.1 0-0.3 0-0.3 0 0 0-0.2 0-0.4 0-0.3 0-0.4 0-0.3 0 0.1 0 0 0-0.2-0.1-0.6-0.4-1.7-0.7-2.5-0.6-1.2-1.6-2.3-2.8-2.9-0.8-0.5-1.8-0.8-2.8-0.9-0.5-0.1-11-0.1-11.5 0m0.2 2.9c-0.7 0.2-1.4 0.5-1.9 0.9-0.6 0.5-1.1 1.3-1.4 2-0.1 0.6-0.1 1.6 0 2.2 0.4 1.3 1.5 2.3 2.8 2.8l0.4 0.1 5.7 0 5.7 0 0.4-0.1c1.3-0.5 2.4-1.5 2.8-2.8 0.1-0.4 0.1-0.5 0.1-1.1 0-0.8-0.1-1.2-0.5-1.8-0.5-1-1.3-1.7-2.4-2.1l-0.4-0.1-5.6 0c-3.1 0-5.6 0-5.7 0m0.2 2.1c-1 0.1-1.7 1.2-1.6 2.2 0.3 1.3 1.7 2.1 2.9 1.5 1.2-0.6 1.4-2.2 0.5-3.2-0.3-0.3-0.7-0.5-1.1-0.6-0.3 0-0.3 0-0.7 0.1m10 0c-1 0.1-1.7 1.2-1.6 2.2 0.3 1.3 1.7 2.1 2.9 1.5 1.2-0.6 1.4-2.2 0.5-3.2-0.3-0.3-0.7-0.5-1.1-0.6-0.3 0-0.3 0-0.7 0.1m-16.6 1.9c0 0.2 0 0.3 0 0.2 0-0.2 0-0.3 0-0.4 0-0.1 0 0 0 0.2" stroke="none" fill="black" fill-rule="evenodd"></path><path fill-opacity="0.950" d="M6.4 5.1c-3 0.2-5.4 2.3-6.2 5.2-0.9 3.5 1.1 7.2 4.6 8.3 1.1 0.4 0.8 0.4 7.2 0.4 5.3 0 5.8 0 6.2-0.1 2.9-0.6 5.2-2.8 5.7-5.7 0-0.3 0.1-0.6 0.1-0.8 0-0.1 0-0.3 0-0.3 0 0 0.1-0.1 0.1-0.2 0 0-0.1-0.1-0.1-0.1 0 0 0-0.1 0-0.2 0-0.7-0.3-1.8-0.7-2.5-0.9-2.1-2.8-3.5-5.1-4-0.4-0.1-1.1-0.1-5.9-0.1-3 0-5.7 0-5.9 0.1m-0.2 3c-1.5 0.3-2.6 1.3-3.1 2.8-0.1 0.3-0.1 0.5-0.1 1.1 0 0.6 0 0.8 0.1 1.1 0.4 1.2 1.1 2 2.3 2.6 0.7 0.3 0.4 0.3 6.6 0.3 6.2 0 5.9 0 6.7-0.4 1.1-0.5 1.8-1.3 2.1-2.4 0.2-0.4 0.2-0.5 0.2-1.2 0-0.6 0-0.8-0.1-1.1-0.5-1.5-1.6-2.5-3.1-2.8-0.5-0.1-11.2-0.1-11.6 0m0.6 1.9c-0.5 0.1-0.9 0.3-1.2 0.6-0.4 0.4-0.6 0.9-0.6 1.4 0 0.6 0.2 1 0.6 1.4 0.4 0.4 0.8 0.6 1.4 0.6 0.8 0 1.4-0.4 1.8-1.1 0.4-1 0.1-2.1-0.8-2.6-0.3-0.2-0.9-0.3-1.2-0.3m10 0c-0.5 0.1-0.9 0.3-1.2 0.6-0.4 0.4-0.6 0.9-0.6 1.4 0 0.6 0.2 1 0.6 1.4 0.4 0.4 0.8 0.6 1.4 0.6 0.8 0 1.4-0.4 1.8-1.1 0.4-1 0.1-2.1-0.8-2.6-0.3-0.2-0.9-0.3-1.2-0.3m-16.8 2c0 0.1 0 0.1 0 0.1 0-0.1 0-0.1 0-0.2 0 0 0 0 0 0.1" stroke="none" fill="black" fill-rule="evenodd"></path></svg>