<?xml version="1.0"?><svg xmlns="http://www.w3.org/2000/svg" width="24" height="24" viewBox="0 0 24 24" version="1.1"><rect x="0" y="0" width="24" height="24" fill="#00000000"></rect><path fill-opacity="0.294" d="M17.5 5.1l-2.9 2.9 0-1.3 0-1.3-1.1 0.1-1 0 0 2.9c0 1.7 0 3 0 3.1 0.1 0 1.4 0 3.1 0l3-0.1 0-1 0-0.9-1.3 0-1.3 0 2.9-3 3-3-0.7-0.7-0.7-0.7-3 3m-10 7.4l-2 0.1 0 1 0 1 1.2 0 1.3 0-2.9 2.9-3 3 0.7 0.7 0.7 0.7 3-3 3-2.9 0 1.3 0 1.3 0.9 0 1 0 0.1-3c0-1.7 0-3 0-3.1 0 0-0.5 0-1 0-0.6 0-1.9 0-3 0" stroke="none" fill="black" fill-rule="evenodd"></path><path fill-opacity="0.295" d="M17.5 5.1l-2.9 2.9 0-1.3 0-1.2-1 0-1 0-0.1 2.9c0 1.7 0 3 0 3.1 0.1 0 1.4 0 3.1 0l3-0.1 0-1 0-0.9-1.3 0-1.3 0 2.9-3 3-3-0.7-0.7-0.7-0.7-3 3m-10 7.4l-2 0.1 0 1 0 1 1.2 0 1.3 0-2.9 2.9-3 3 0.7 0.7 0.7 0.7 3-3 3-2.9 0 1.3 0 1.3 0.9 0 1 0 0.1-3c0-1.7 0-3 0-3.1 0 0-0.5 0-1 0-0.6 0-1.9 0-3 0" stroke="none" fill="black" fill-rule="evenodd"></path><path fill-opacity="0.433" d="M17.5 5.1l-2.9 2.9 0-1.3-0.1-1.2-1 0-0.9-0.1 0 3 0 3.1 3 0 3 0-0.1-1 0-1-1.2 0-1.3-0.1 2.9-2.9 3-3-0.7-0.7-0.7-0.7-3 3m-12 8.4l0 1 1.2 0.1 1.3 0-2.9 2.9-3 3 0.7 0.7 0.7 0.7 3-3 2.9-2.9 0.1 1.3 0 1.2 1 0 1 0.1 0-3 0-3-3.1 0-3 0 0.1 0.9" stroke="none" fill="black" fill-rule="evenodd"></path><path fill-opacity="1.000" d="M17.5 5.1c-1.6 1.6-2.9 3-3 3 0 0 0-0.6 0-1.3l0-1.3-1 0-0.9 0 0 3 0 3 2.9 0 3 0 0-1 0-1-1.3 0c-0.7 0-1.2 0-1.2 0 0-0.1 1.3-1.4 2.9-3l3-3-0.7-0.7c-0.4-0.3-0.7-0.7-0.7-0.7 0 0-1.4 1.4-3 3m-12 8.4l0 1 1.3 0c0.7 0 1.3 0 1.3 0 0 0.1-1.4 1.4-3 3l-3 3 0.7 0.7 0.7 0.7 3-3c1.6-1.6 2.9-2.9 3-2.9 0 0 0 0.5 0 1.2l0 1.3 1 0 1 0 0-3 0-2.9-3 0-3 0 0 0.9" stroke="none" fill="black" fill-rule="evenodd"></path></svg>