<?xml version="1.0"?><svg xmlns="http://www.w3.org/2000/svg" width="24" height="24" viewBox="0 0 24 24" version="1.1"><rect x="0" y="0" width="24" height="24" fill="#00000000"></rect><path fill-opacity="0.298" d="M15.5 4.9c-0.5 0.1-1.2 0.4-1.5 0.7-0.2 0.2-1.2 1.6-3.2 4.4-1.6 2.3-3 4.3-3.1 4.4-1 1.6-0.2 3.9 1.7 4.5 0.4 0.1 1.2 0.1 1.7 0 0.4-0.1 0.9-0.4 1.3-0.7 0.3-0.4 5.9-8.4 6.3-9 0.6-1.2 0.3-2.7-0.7-3.6-0.4-0.3-1-0.6-1.5-0.7-0.4-0.1-0.6-0.1-1 0m-8.7 0.1c-0.6 0.1-1.2 0.4-1.5 0.8-0.2 0.2-1.4 1.9-2.8 3.8l-2.5 3.6 0 2.7 0 2.7 0.2 0.1c0.5 0.3 0.8 0.4 1.3 0.4 0.6 0 1-0.1 1.5-0.3 0.7-0.4 0.8-0.5 3.9-5 1.6-2.3 3-4.2 3.1-4.4 0.4-0.6 0.5-1.4 0.3-2.1-0.2-1.1-1.1-2-2.2-2.3-0.3-0.1-1-0.1-1.3 0m12 8.1c-0.6 0.1-1.4 0.6-1.8 1.2-0.1 0.2-0.2 0.5-0.3 0.7-0.1 0.4-0.2 0.6-0.2 1 0 0.8 0.3 1.5 0.9 2.1 0.6 0.6 1.3 0.9 2.1 0.9 1.4 0 2.5-0.9 2.9-2.2 0.1-0.2 0.1-0.5 0.1-0.8 0-0.4 0-0.6-0.1-1-0.2-0.5-0.5-0.9-0.9-1.2-0.7-0.7-1.7-0.9-2.7-0.7" stroke="none" fill="black" fill-rule="evenodd"></path><path fill-opacity="0.341" d="M15.7 4.9c-0.7 0-1.4 0.4-1.8 0.8-0.4 0.4-6.2 8.7-6.4 9.1-0.5 1.1-0.2 2.5 0.7 3.4 0.6 0.5 1.3 0.8 2.1 0.8 0.8 0 1.5-0.3 2-0.8 0.4-0.4 6.2-8.6 6.4-9.1 0.4-0.9 0.4-1.8-0.1-2.6-0.5-1.1-1.7-1.8-2.9-1.6m-8.9 0.1c-0.5 0.1-1.1 0.4-1.4 0.7-0.3 0.2-0.9 1.2-2.9 3.9l-2.5 3.6 0 2.7 0 2.7 0.2 0.1c0.8 0.5 1.9 0.5 2.8 0.1 0.7-0.4 0.8-0.5 3.9-5 1.6-2.3 3-4.2 3.1-4.4 0.2-0.3 0.3-0.8 0.4-1.3 0.1-1.4-0.9-2.8-2.4-3.1-0.3-0.1-0.8-0.1-1.2 0m12.1 8.1c-1.1 0.2-2 1.1-2.3 2.2-0.1 0.3-0.1 1.1 0 1.5 0.6 2.2 3.4 2.9 5 1.3 0.6-0.6 0.9-1.2 0.9-2.1 0-0.9-0.3-1.5-0.9-2.1-0.7-0.8-1.7-1-2.7-0.8" stroke="none" fill="black" fill-rule="evenodd"></path><path fill-opacity="0.652" d="M15.3 4.9c-0.5 0.2-1 0.4-1.4 0.8-0.3 0.3-6.1 8.5-6.3 9-0.8 1.6 0 3.6 1.7 4.2 0.5 0.1 1.4 0.1 1.9 0 0.4-0.2 0.9-0.5 1.1-0.8 0.3-0.2 6-8.3 6.3-8.8 0.6-1.1 0.5-2.4-0.3-3.4-0.3-0.4-0.8-0.7-1.3-0.9-0.5-0.1-1.3-0.2-1.7-0.1m-8.5 0.1c-0.6 0.1-1.2 0.4-1.6 0.8-0.1 0.2-1.3 1.9-2.7 3.9l-2.5 3.5 0 2.7 0 2.7 0.2 0.1c0.2 0.2 0.8 0.3 1.3 0.4 0.4 0 1-0.1 1.5-0.3 0.7-0.4 0.8-0.5 4-5.1 1.7-2.4 3-4.3 3.1-4.5 0.7-1.5 0.1-3.2-1.3-3.9-0.6-0.4-1.3-0.5-2-0.3m12.1 8.1c-0.5 0.1-1.1 0.4-1.4 0.7-0.4 0.4-0.7 0.8-0.8 1.2-0.2 0.5-0.2 1.5 0 2 0.3 0.9 1.2 1.7 2.2 1.9 0.7 0.2 1.3 0.1 2-0.2 0.7-0.4 1.2-1 1.5-1.7 0.1-0.5 0.1-1.5 0-2-0.3-0.7-0.8-1.3-1.5-1.6-0.7-0.4-1.3-0.5-2-0.3" stroke="none" fill="black" fill-rule="evenodd"></path><path fill-opacity="0.951" d="M15.3 5c-0.5 0.1-1 0.4-1.4 0.7-0.3 0.3-6.1 8.5-6.3 9-0.2 0.4-0.3 0.8-0.3 1.3 0 0.9 0.3 1.5 0.9 2.1 0.9 1 2.3 1.2 3.5 0.5 0.6-0.3 0.8-0.5 3.9-5 1.6-2.3 3-4.3 3.1-4.4 0.2-0.5 0.3-0.9 0.3-1.4 0-0.9-0.4-1.6-1-2.2-0.7-0.6-1.8-0.9-2.7-0.6m-8.3 0c-0.7 0.1-1.5 0.5-1.9 1-0.1 0.1-1.3 1.8-2.6 3.7l-2.5 3.6 0 2.6 0 2.7 0.4 0.2c0.4 0.2 0.8 0.3 1.3 0.3 0.7 0 1.5-0.3 2-0.9 0.4-0.3 6.1-8.4 6.4-9 0.1-0.2 0.2-0.5 0.2-0.6 0.1-0.4 0.1-1.1 0-1.5-0.4-1.4-1.9-2.4-3.3-2.1m12.1 8.1c-1.5 0.2-2.5 1.4-2.5 2.9 0 0.8 0.3 1.7 1 2.3 0.2 0.2 0.7 0.5 1 0.6 0.5 0.1 1.3 0.1 1.8 0 1.2-0.4 2-1.5 2.1-2.7 0-0.5-0.1-1-0.3-1.5-0.4-0.8-1.2-1.4-1.9-1.6-0.4-0.1-0.9-0.1-1.2 0" stroke="none" fill="black" fill-rule="evenodd"></path></svg>