<?xml version="1.0"?><svg xmlns="http://www.w3.org/2000/svg" width="24" height="24" viewBox="0 0 24 24" version="1.1"><rect x="0" y="0" width="24" height="24" fill="#00000000"></rect><path fill-opacity="0.431" d="M10.7 2.1c-1.1 0.1-2.1 0.4-3.1 1-2 0.9-3.6 2.5-4.6 4.5-1.3 2.8-1.3 6 0 8.8 0.6 1.1 1.2 1.9 2.1 2.8 0.6 0.6 0.8 0.7 1.4 1.1 1.2 0.8 2.7 1.4 4.2 1.6 0.6 0.1 2 0.1 2.6 0 2.9-0.4 5.5-2 7-4.4 1.1-1.5 1.7-3.6 1.7-5.2l0-0.4-1 0-1 0-0.4 0.2c-1.4 0.8-2.8 1.2-4.2 1.2-2.4 0-4.1-1.3-4.6-3.6 0-0.4-0.1-0.6 0-1.3 0-1.4 0.3-2.5 1-3.8l0.3-0.6 0-1 0-1-0.4 0c-0.3 0-0.7 0-1 0.1m-1.6 2.5c-1.5 0.6-2.6 1.4-3.5 2.6-1.8 2.5-2.1 5.8-0.7 8.5 1.3 2.5 3.7 4 6.5 4.3 1.4 0.1 2.8-0.2 4.1-0.8 1.6-0.8 2.8-2 3.6-3.6 0.3-0.5 0.5-1.2 0.5-1.2 0 0-0.2 0-0.5 0.1-0.5 0.2-1.3 0.5-2 0.6-0.5 0.1-0.8 0.1-1.7 0.1-0.9 0-1.2 0-1.6-0.1-0.9-0.2-1.9-0.6-2.6-1.1-1-0.8-1.8-2-2.2-3.3-0.5-1.7-0.3-3.9 0.5-5.9 0.1-0.2 0.2-0.4 0.2-0.4-0.1 0-0.3 0-0.6 0.2" stroke="none" fill="black" fill-rule="evenodd"></path><path fill-opacity="0.132" d="M11.2 2c-1.6 0.2-2.4 0.4-3.6 1-4.9 2.4-7 8.4-4.6 13.4 1.5 2.9 4.2 4.9 7.6 5.5 0.5 0.1 2.4 0.1 2.9 0 2.9-0.5 5.2-2 6.8-4.4 0.4-0.6 0.9-1.6 1.2-2.3 0.3-0.9 0.5-2.2 0.5-3l0-0.3-1 0-1 0-0.6 0.3c-1 0.5-1.8 0.8-2.8 1-0.6 0.1-1.6 0.1-2.1 0-1.9-0.3-3.3-1.6-3.7-3.4-0.1-0.6-0.1-1.6 0-2.2 0.1-1 0.5-2.1 1-3.1l0.3-0.5 0-1-0.1-1-0.3 0c-0.2 0-0.4 0-0.5 0m-1.9 2.5c-1.1 0.4-2.1 1-2.9 1.8-2.2 2.2-2.9 5.4-2 8.2 0.4 1.3 1.1 2.3 2 3.2 1.6 1.6 4 2.5 6.3 2.3 3.1-0.3 5.7-2.3 6.8-5.3 0.1-0.2 0.2-0.4 0.2-0.4 0 0-0.2 0.1-0.4 0.2-1.3 0.5-2.9 0.8-4.2 0.7-3.3-0.1-5.6-2-6.2-5-0.1-0.7-0.2-1.9-0.1-2.5 0.1-1 0.4-2.2 0.7-3 0.1-0.2 0.2-0.3 0.2-0.3-0.1 0-0.2 0-0.4 0.1" stroke="none" fill="black" fill-rule="evenodd"></path><path fill-opacity="0.524" d="M11.3 2c-4.2 0.4-7.7 3.1-8.9 7.2-1 3.4-0.1 7.2 2.5 9.8 2 2.1 4.9 3.2 7.8 3 3.6-0.3 6.7-2.4 8.3-5.6 0.3-0.7 0.7-1.7 0.8-2.5 0.1-0.5 0.2-1.9 0.2-1.9 0 0-0.5 0-1-0.1l-1 0-0.8 0.4c-2.6 1.2-4.9 1.3-6.6 0.2-2.2-1.5-2.5-4.8-0.7-8.1l0.2-0.4 0-1-0.1-1-0.2 0c-0.2 0-0.4 0-0.5 0m-2.1 2.5c-1.2 0.5-2 1-2.8 1.8-1.6 1.6-2.4 3.6-2.4 5.7 0 3.9 2.8 7.2 6.6 7.9 0.6 0.1 2.2 0.1 2.8 0 2.5-0.5 4.7-2.1 5.8-4.4 0.2-0.4 0.5-1.1 0.4-1.2 0 0-0.2 0.1-0.4 0.2-2.4 0.9-4.7 1-6.6 0.2-2.3-0.9-3.6-2.8-3.8-5.5-0.1-1.3 0.2-3.1 0.8-4.6 0.1-0.3 0.1-0.3-0.4-0.1" stroke="none" fill="black" fill-rule="evenodd"></path><path fill-opacity="0.967" d="M11.2 2.1c-2.8 0.2-5.4 1.6-7.1 3.8-2.5 3.3-2.8 7.8-0.6 11.3 1.5 2.5 4.1 4.2 7 4.7 0.7 0.1 2.3 0.1 3 0 3.3-0.6 6-2.5 7.4-5.5 0.6-1.2 1-2.5 1.1-4l0-0.4-1 0-1 0-0.7 0.3c-1 0.5-1.7 0.7-2.6 0.9-0.6 0.1-1.8 0.1-2.3 0-1.7-0.3-2.9-1.3-3.4-2.9-0.6-1.6-0.2-3.8 0.8-5.8l0.3-0.4 0-1.1 0-1-0.2 0c-0.1 0-0.4 0-0.7 0.1m0.1 1.9c0.1 0 0.3 0 0.4 0 0.1 0 0 0-0.2 0-0.2 0-0.3 0-0.2 0m-0.4 0.1c0 0 0.1 0 0.1 0 0 0 0 0 0 0-0.1 0-0.1 0-0.1 0m-0.4 0c0.1 0 0.1 0 0.2 0 0 0 0 0-0.1 0-0.1 0-0.1 0-0.1 0m-1.3 0.4c-3.9 1.5-6 5.5-5 9.5 0.4 1.3 1 2.5 2 3.5 2.6 2.7 6.7 3.3 9.9 1.4 1.6-1 2.8-2.4 3.4-4.2 0.1-0.3 0.2-0.5 0.2-0.5 0 0 0 0 0 0 0 0.1-0.9 0.4-1.5 0.6-3.1 0.9-5.8 0.4-7.6-1.4-1.8-1.8-2.3-4.6-1.4-7.7 0.2-0.7 0.5-1.3 0.6-1.4 0.1-0.1-0.2 0-0.6 0.2m10.8 8c0 0.2 0 0.3 0 0.2 0-0.1 0-0.3 0-0.4 0-0.1 0 0 0 0.2m-0.1 0.6c0 0 0 0 0 0 0 0 0-0.1 0-0.1 0 0 0 0 0 0.1m0 0.3c0 0.1 0 0.1 0 0 0 0 0-0.1 0-0.1 0 0 0 0 0 0.1" stroke="none" fill="black" fill-rule="evenodd"></path></svg>