<?xml version="1.0"?><svg xmlns="http://www.w3.org/2000/svg" width="24" height="24" viewBox="0 0 24 24" version="1.1"><rect x="0" y="0" width="24" height="24" fill="#00000000"></rect><path fill-opacity="0.412" d="M4.4 9c-1.1 0.3-1.9 1-2.3 2-0.1 0.5-0.1 1.4 0 1.9 0.3 0.9 1.1 1.7 1.9 2 0.3 0.1 0.5 0.1 1 0.1 0.5 0 0.7 0 1-0.1 0.8-0.3 1.6-1.1 1.9-2 0.1-0.5 0.1-1.3 0-1.8-0.3-0.9-1.1-1.7-1.9-2-0.2 0-0.5-0.1-0.9-0.1-0.3 0-0.6 0-0.7 0m7 0c-1.1 0.3-1.9 1-2.3 2-0.1 0.5-0.1 1.4 0 1.9 0.3 0.9 1.1 1.7 1.9 2 0.3 0.1 0.5 0.1 1 0.1 0.5 0 0.7 0 1-0.1 0.8-0.3 1.6-1.1 1.9-2 0.1-0.5 0.1-1.3 0-1.8-0.3-0.9-1.1-1.7-1.9-2-0.2 0-0.5-0.1-0.9-0.1-0.3 0-0.6 0-0.7 0m7 0c-1.1 0.3-1.9 1-2.3 2-0.1 0.5-0.1 1.4 0 1.9 0.3 0.9 1.1 1.7 1.9 2 0.3 0.1 0.5 0.1 1 0.1 0.5 0 0.7 0 1-0.1 0.8-0.3 1.6-1.1 1.9-2 0.1-0.5 0.1-1.3 0-1.8-0.3-0.9-1.1-1.7-1.9-2-0.2 0-0.5-0.1-0.9-0.1-0.3 0-0.6 0-0.7 0m-13.9 2.1c-0.2 0.2-0.2 0.2-0.4 0.5-0.1 0.2-0.1 0.3-0.1 0.5 0.1 0.3 0.2 0.6 0.5 0.7 0.1 0.2 0.2 0.2 0.5 0.2 0.3 0 0.4 0 0.5-0.2 0.7-0.4 0.6-1.3-0.1-1.7-0.3-0.1-0.5-0.1-0.9 0m7 0c-0.2 0.2-0.2 0.2-0.4 0.5-0.1 0.2-0.1 0.3-0.1 0.5 0.1 0.3 0.2 0.6 0.5 0.7 0.1 0.2 0.2 0.2 0.5 0.2 0.3 0 0.4 0 0.5-0.2 0.7-0.4 0.6-1.3-0.1-1.7-0.3-0.1-0.5-0.1-0.9 0m7 0c-0.2 0.2-0.2 0.2-0.4 0.5-0.1 0.2-0.1 0.3-0.1 0.5 0.1 0.3 0.2 0.6 0.5 0.7 0.1 0.2 0.2 0.2 0.5 0.2 0.3 0 0.4 0 0.5-0.2 0.7-0.4 0.6-1.3-0.1-1.7-0.3-0.1-0.5-0.1-0.9 0" stroke="none" fill="black" fill-rule="evenodd"></path><path fill-opacity="0.213" d="M4.4 9.1c-0.6 0.1-1.1 0.4-1.6 0.9-0.9 0.9-1 2.2-0.5 3.3 0.2 0.5 0.9 1.2 1.4 1.4 0.8 0.4 1.8 0.4 2.6 0 0.5-0.2 1.2-0.9 1.4-1.4 0.4-0.8 0.4-1.8 0-2.6-0.1-0.3-0.3-0.5-0.6-0.8-0.3-0.3-0.5-0.4-0.8-0.6-0.6-0.3-1.3-0.4-1.9-0.2m7 0c-0.6 0.1-1.1 0.4-1.6 0.9-0.9 0.9-1 2.2-0.5 3.3 0.2 0.5 0.9 1.2 1.4 1.4 0.8 0.4 1.8 0.4 2.6 0 0.5-0.2 1.2-0.9 1.4-1.4 0.4-0.8 0.4-1.8 0-2.6-0.1-0.3-0.3-0.5-0.6-0.8-0.3-0.3-0.5-0.4-0.8-0.6-0.6-0.3-1.3-0.4-1.9-0.2m7 0c-0.6 0.1-1.1 0.4-1.6 0.9-0.9 0.9-1 2.2-0.5 3.3 0.2 0.5 0.9 1.2 1.4 1.4 0.8 0.4 1.8 0.4 2.6 0 0.5-0.2 1.2-0.9 1.4-1.4 0.4-0.8 0.4-1.8 0-2.6-0.1-0.3-0.3-0.5-0.6-0.8-0.3-0.3-0.5-0.4-0.8-0.6-0.6-0.3-1.3-0.4-1.9-0.2m-13.9 2c-0.1 0.1-0.2 0.2-0.3 0.3-0.2 0.2-0.2 0.3-0.2 0.6 0 0.3 0 0.4 0.2 0.6 0.4 0.5 1.2 0.5 1.6 0 0.2-0.2 0.2-0.3 0.2-0.6 0-0.3 0-0.4-0.2-0.6-0.2-0.2-0.5-0.4-0.8-0.4-0.1 0-0.3 0-0.5 0.1m7 0c-0.1 0.1-0.2 0.2-0.3 0.3-0.2 0.2-0.2 0.3-0.2 0.6 0 0.3 0 0.4 0.2 0.6 0.4 0.5 1.2 0.5 1.6 0 0.2-0.2 0.2-0.3 0.2-0.6 0-0.3 0-0.4-0.2-0.6-0.2-0.2-0.5-0.4-0.8-0.4-0.1 0-0.3 0-0.5 0.1m7 0c-0.1 0.1-0.2 0.2-0.3 0.3-0.2 0.2-0.2 0.3-0.2 0.6 0 0.3 0 0.4 0.2 0.6 0.4 0.5 1.2 0.5 1.6 0 0.2-0.2 0.2-0.3 0.2-0.6 0-0.3 0-0.4-0.2-0.6-0.2-0.2-0.5-0.4-0.8-0.4-0.1 0-0.3 0-0.5 0.1" stroke="none" fill="black" fill-rule="evenodd"></path><path fill-opacity="0.602" d="M4.4 9.1c-0.9 0.2-1.7 0.8-2.1 1.6-0.4 0.8-0.4 1.8 0.1 2.7 0.2 0.5 0.8 1 1.3 1.3 1.2 0.6 2.5 0.3 3.4-0.6 0.6-0.6 0.9-1.2 0.9-2.1 0-0.9-0.3-1.6-1-2.2-0.7-0.7-1.7-0.9-2.6-0.7m7 0c-0.9 0.2-1.7 0.8-2.1 1.6-0.4 0.8-0.4 1.8 0.1 2.7 0.2 0.5 0.8 1 1.3 1.3 1.2 0.6 2.5 0.3 3.4-0.6 0.6-0.6 0.9-1.2 0.9-2.1 0-0.9-0.3-1.6-1-2.2-0.7-0.7-1.7-0.9-2.6-0.7m7 0c-0.9 0.2-1.7 0.8-2.1 1.6-0.4 0.8-0.4 1.8 0.1 2.7 0.2 0.5 0.8 1 1.3 1.3 1.2 0.6 2.5 0.3 3.4-0.6 0.6-0.6 0.9-1.2 0.9-2.1 0-0.9-0.3-1.6-1-2.2-0.7-0.7-1.7-0.9-2.6-0.7m-13.8 2c-1 0.4-0.7 1.9 0.4 1.9 0.8 0 1.3-1 0.8-1.7-0.2-0.2-0.5-0.3-0.8-0.3-0.1 0-0.3 0-0.4 0.1m7 0c-1 0.4-0.7 1.9 0.4 1.9 0.8 0 1.3-1 0.8-1.7-0.2-0.2-0.5-0.3-0.8-0.3-0.1 0-0.3 0-0.4 0.1m7 0c-1 0.4-0.7 1.9 0.4 1.9 0.8 0 1.3-1 0.8-1.7-0.2-0.2-0.5-0.3-0.8-0.3-0.1 0-0.3 0-0.4 0.1" stroke="none" fill="black" fill-rule="evenodd"></path><path fill-opacity="0.957" d="M4.6 9.1c-0.4 0-0.9 0.2-1.2 0.4-0.3 0.2-0.8 0.7-1 1-0.4 0.8-0.5 1.7-0.2 2.5 0.1 0.4 0.5 0.9 0.8 1.2 0.6 0.5 1.2 0.8 2 0.8 1.1 0 1.9-0.5 2.5-1.3 0.6-1 0.6-2.2 0.1-3.2-0.6-1-1.8-1.6-3-1.4m7 0c-0.4 0-0.9 0.2-1.2 0.4-0.3 0.2-0.8 0.7-1 1-0.4 0.8-0.5 1.7-0.2 2.5 0.1 0.4 0.5 0.9 0.8 1.2 0.6 0.5 1.2 0.8 2 0.8 1.1 0 1.9-0.5 2.5-1.3 0.6-1 0.6-2.2 0.1-3.2-0.6-1-1.8-1.6-3-1.4m7 0c-0.4 0-0.9 0.2-1.2 0.4-0.3 0.2-0.8 0.7-1 1-0.4 0.8-0.5 1.7-0.2 2.5 0.1 0.4 0.5 0.9 0.8 1.2 0.6 0.5 1.2 0.8 2 0.8 1.1 0 1.9-0.5 2.5-1.3 0.6-1 0.6-2.2 0.1-3.2-0.6-1-1.8-1.6-3-1.4m-14.1 2c-0.1 0.1-0.2 0.2-0.3 0.3-0.2 0.2-0.2 0.2-0.2 0.6 0 0.4 0 0.4 0.2 0.6 0.3 0.3 0.4 0.4 0.8 0.4 0.4 0 0.5-0.1 0.8-0.4 0.2-0.2 0.2-0.2 0.2-0.6 0-0.4 0-0.4-0.2-0.6-0.3-0.4-0.9-0.5-1.3-0.3m7 0c-0.1 0.1-0.2 0.2-0.3 0.3-0.2 0.2-0.2 0.2-0.2 0.6 0 0.4 0 0.4 0.2 0.6 0.3 0.3 0.4 0.4 0.8 0.4 0.4 0 0.5-0.1 0.8-0.4 0.2-0.2 0.2-0.2 0.2-0.6 0-0.4 0-0.4-0.2-0.6-0.2-0.3-0.5-0.4-0.8-0.4-0.2 0-0.3 0-0.5 0.1m7 0c-0.1 0.1-0.2 0.2-0.3 0.3-0.2 0.2-0.2 0.2-0.2 0.6 0 0.4 0 0.4 0.2 0.6 0.3 0.3 0.4 0.4 0.8 0.4 0.4 0 0.5-0.1 0.8-0.4 0.2-0.2 0.2-0.2 0.2-0.6 0-0.4 0-0.4-0.2-0.6-0.2-0.3-0.5-0.4-0.8-0.4-0.2 0-0.3 0-0.5 0.1" stroke="none" fill="black" fill-rule="evenodd"></path></svg>