<?xml version="1.0"?><svg xmlns="http://www.w3.org/2000/svg" width="24" height="24" viewBox="0 0 24 24" version="1.1"><rect x="0" y="0" width="24" height="24" fill="#00000000"></rect><path fill-opacity="0.392" d="M11.2 0c-1.2 0.2-1.9 0.4-2.8 0.9-2.3 1.1-3.9 3.3-4.3 6-0.1 0.7-0.1 9.5 0 10.2 0.3 2.1 1.4 4 3.1 5.3 2.9 2.1 6.8 2.1 9.6 0 1.4-1.1 2.5-2.7 2.9-4.3 0.3-1 0.3-1.1 0.3-6.1 0-5 0-5.1-0.3-6.1-0.8-2.9-3.3-5.2-6.3-5.8-0.4-0.1-1.9-0.1-2.2-0.1m0.1 2.1c-2.3 0.2-4.3 1.9-5 4-0.3 0.9-0.3 0.8-0.3 5.9 0 4.3 0 4.7 0.1 5.1 0.3 1.6 1.1 2.8 2.3 3.7 0.5 0.4 1.5 0.8 2 1 1.5 0.4 2.9 0.2 4.2-0.4 1.8-0.9 2.9-2.3 3.3-4.3 0.1-0.4 0.1-0.8 0.1-5.1 0-4.9 0-4.8-0.3-5.7-0.5-1.9-2-3.4-3.9-4-0.8-0.2-1.7-0.3-2.5-0.2m0.3 3c-0.3 0.1-0.4 0.3-0.5 0.5-0.1 0.2-0.1 0.5-0.1 2.4 0 2.1 0 2.2 0.1 2.4 0.3 0.8 1.5 0.8 1.8 0 0.1-0.2 0.1-0.3 0.1-2.4 0-2.1 0-2.2-0.1-2.4-0.2-0.5-0.8-0.7-1.3-0.5" stroke="none" fill="black" fill-rule="evenodd"></path><path fill-opacity="0.258" d="M11.1 0.1c-1.8 0.1-3.5 1-4.8 2.3-1.2 1.2-2 2.8-2.2 4.6-0.1 0.7-0.1 9.1 0 9.8 0.2 2.6 1.6 4.7 3.8 6.1 0.8 0.4 1.8 0.8 2.8 1 0.6 0.1 2 0.1 2.6 0 3.6-0.6 6.3-3.5 6.6-7.1 0.1-0.6 0.1-9 0-9.6-0.3-2.9-2-5.3-4.6-6.5-1.3-0.6-2.7-0.8-4.2-0.6m0.1 2c-1.7 0.2-3.2 1.2-4.2 2.6-0.5 0.7-0.8 1.5-0.9 2.4-0.1 0.7-0.1 9.1 0 9.8 0.1 1 0.5 1.9 1.1 2.7 0.7 0.9 1.8 1.7 3 2.1 2.1 0.7 4.3 0.1 5.9-1.3 0.9-0.8 1.5-1.9 1.8-3.2 0.1-0.3 0.1-0.8 0.1-4.9 0-3.3 0-4.7-0.1-5-0.3-2.5-2.1-4.5-4.5-5.1-0.6-0.2-1.7-0.2-2.2-0.1m0.4 3c-0.2 0.1-0.5 0.4-0.6 0.6 0 0.1 0 1 0 2.4l0 2.2 0.2 0.3c0.4 0.5 1.2 0.5 1.6 0l0.2-0.3 0-2.3 0-2.3-0.2-0.3c-0.1-0.1-0.2-0.2-0.3-0.3-0.2-0.1-0.6-0.1-0.9 0" stroke="none" fill="black" fill-rule="evenodd"></path><path fill-opacity="0.644" d="M11.5 0c-2 0.2-3.8 1-5.2 2.4-1.3 1.3-2.1 3.1-2.3 5 0 0.4 0 2.2 0 5.1 0 4.6 0 4.5 0.3 5.5 0.1 0.5 0.4 1.3 0.7 1.8 0.5 1 1.4 2 2.3 2.7 0.8 0.6 2.1 1.1 3.1 1.3 1 0.2 2.2 0.2 3.2 0 1-0.2 2.3-0.7 3.1-1.3 0.6-0.5 1.4-1.2 1.8-1.8 0.5-0.8 1-1.8 1.2-2.7 0.3-0.9 0.3-0.9 0.3-5.5 0-4.8 0-5.4-0.2-6.3-0.7-2.8-2.7-5-5.4-5.8-0.9-0.3-2.1-0.4-2.9-0.4m-0.5 2.1c-1.3 0.2-2.3 0.8-3.2 1.7-1 0.9-1.5 2-1.7 3.3-0.1 0.4-0.1 1-0.1 5.1 0 4.3 0 4.8 0.1 5.1 0.4 1.3 0.9 2.2 1.7 3 2.1 2 5.2 2.3 7.6 0.7 1.3-0.9 2.3-2.4 2.5-4.1 0.1-0.6 0.1-9.2 0-9.8-0.2-1.3-0.7-2.4-1.7-3.3-0.9-0.9-1.9-1.5-3.2-1.7-0.6-0.1-1.5-0.1-2 0m0.8 2.9c-0.3 0.1-0.5 0.3-0.7 0.5l-0.1 0.2 0 2.3 0 2.3 0.2 0.2c0.1 0.3 0.5 0.5 0.8 0.5 0.3 0 0.7-0.2 0.8-0.5l0.2-0.2 0-2.3 0-2.3-0.1-0.2c-0.3-0.3-0.7-0.6-1.1-0.5" stroke="none" fill="black" fill-rule="evenodd"></path><path fill-opacity="0.951" d="M11.6 0c-2 0.2-3.7 0.9-5.1 2.3-1.3 1.1-2 2.6-2.4 4.4-0.1 0.6-0.1 0.6-0.1 5.3 0 4.7 0 4.7 0.1 5.3 0.5 2.7 2.1 4.8 4.5 5.9 2.1 1 4.7 1 6.8 0 2.2-1 3.9-3.1 4.4-5.5 0.2-0.9 0.2-1.8 0.2-6.2 0-4.1 0-4.4-0.1-4.9-0.6-3.1-2.9-5.6-6-6.3-0.6-0.2-1.7-0.3-2.3-0.3m-0.6 2.1c-2.4 0.4-4.2 2.1-4.8 4.4l-0.2 0.5 0 4.8c0 3.3 0 4.8 0.1 5.1 0.3 2.3 2 4.2 4.3 4.9 0.7 0.2 1 0.2 1.9 0.2 0.9 0 1.6-0.2 2.4-0.6 1.6-0.8 2.7-2.3 3.2-4l0.1-0.5 0-4.9 0-5-0.2-0.5c-0.4-1.6-1.4-2.9-2.8-3.7-0.4-0.3-1.1-0.5-1.6-0.7-0.5-0.1-1.9-0.1-2.4 0m0.7 3c-0.1 0-0.3 0.1-0.4 0.2-0.3 0.3-0.3 0.4-0.3 2.7 0 1.2 0 2.1 0.1 2.2 0.1 0.5 0.4 0.8 0.9 0.8 0.5 0 0.8-0.3 0.9-0.8 0.1-0.3 0.1-4.1 0-4.4-0.1-0.6-0.6-0.9-1.2-0.7" stroke="none" fill="black" fill-rule="evenodd"></path></svg>