<?xml version="1.0"?><svg xmlns="http://www.w3.org/2000/svg" width="24" height="24" viewBox="0 0 24 24" version="1.1"><rect x="0" y="0" width="24" height="24" fill="#00000000"></rect><path fill-opacity="0.314" d="M7 12l0 4 1 0 1 0 0-4 0-4-1 0-1 0 0 4m4 1l0 5-1 0-1 0 1.5 2.5c0.8 1.4 1.5 2.5 1.5 2.5 0 0 0.7-1.1 1.5-2.5l1.5-2.5-1 0-1 0 0-5 0-5-1 0-1 0 0 5m4-1l0 4 1 0 1 0 0-4 0-4-1 0-1 0 0 4" stroke="none" fill="black" fill-rule="evenodd"></path><path fill-opacity="0.303" d="M7 12l0 4 1 0 1 0 0-4 0-4-1 0-1 0 0 4m4 1l0 5-1 0-1 0 1.5 2.5c0.8 1.3 1.5 2.4 1.5 2.4 0 0 0.7-1.1 1.5-2.4l1.5-2.5-1 0-1 0 0-5 0-5-1 0-1 0 0 5m4-1l0 4 1 0 1 0 0-4 0-4-1 0-1 0 0 4" stroke="none" fill="black" fill-rule="evenodd"></path><path fill-opacity="0.393" d="M7 12l0 4 1 0 1 0 0-4 0-4-1 0-1 0 0 4m4 1l0 5-1 0-1 0 1.5 2.5c0.8 1.3 1.5 2.5 1.5 2.5 0 0 0.7-1.2 1.5-2.5l1.5-2.5-1 0-1 0 0-5 0-5-1 0-1 0 0 5m4-1l0 4 1 0 1 0 0-4 0-4-1 0-1 0 0 4" stroke="none" fill="black" fill-rule="evenodd"></path><path fill-opacity="1.000" d="M7 12l0 4 1 0 1 0 0-4 0-4-1 0-1 0 0 4m4 1l0 5-1 0c-0.6 0-1 0-0.9 0 0 0.1 2.9 4.9 2.9 4.9 0 0 2.9-4.8 2.9-4.9 0.1 0-0.3 0-0.9 0l-1 0 0-5 0-5-1 0-1 0 0 5m4-1l0 4 1 0 1 0 0-4 0-4-1 0-1 0 0 4" stroke="none" fill="black" fill-rule="evenodd"></path></svg>