<?xml version="1.0"?><svg xmlns="http://www.w3.org/2000/svg" width="24" height="24" viewBox="0 0 24 24" version="1.1"><rect x="0" y="0" width="24" height="24" fill="#00000000"></rect><path fill-opacity="0.298" d="M8 8l0 1 4 0 4 0 0-1 0-1-4 0-4 0 0 1m-4.5 2.5c-1.4 0.8-2.5 1.5-2.5 1.5 0 0 1.1 0.7 2.5 1.5l2.5 1.5 0-1 0-1 5 0 5 0 0-1 0-1-5 0-5 0 0-1 0-1-2.5 1.5m4.5 5.5l0 1 4 0 4 0 0-1 0-1-4 0-4 0 0 1" stroke="none" fill="black" fill-rule="evenodd"></path><path fill-opacity="0.335" d="M8 8l0 1 4 0 4 0 0-1 0-1-4 0-4 0 0 1m-4.5 2.5c-1.3 0.8-2.4 1.5-2.4 1.5 0 0 1.1 0.7 2.4 1.5l2.5 1.5 0-1 0-1 5 0 5 0 0-1 0-1-5 0-5 0 0-1 0-1-2.5 1.5m4.5 5.5l0 1 4 0 4 0 0-1 0-1-4 0-4 0 0 1" stroke="none" fill="black" fill-rule="evenodd"></path><path fill-opacity="0.395" d="M8 8l0 1 4 0 4 0 0-1 0-1-4 0-4 0 0 1m-4.5 2.5c-1.3 0.8-2.4 1.5-2.4 1.5 0 0 1.1 0.7 2.4 1.5l2.5 1.5 0-1 0-1 5 0 5 0 0-1 0-1-5 0-5 0 0-1 0-1-2.5 1.5m4.5 5.5l0 1 4 0 4 0 0-1 0-1-4 0-4 0 0 1" stroke="none" fill="black" fill-rule="evenodd"></path><path fill-opacity="1.000" d="M8 8l0 1 4 0 4 0 0-1 0-1-4 0-4 0 0 1m-4.5 2.5c-1.4 0.8-2.4 1.5-2.4 1.5 0 0 4.8 2.9 4.9 2.9 0 0.1 0-0.3 0-0.9l0-1 5 0 5 0 0-1 0-1-5 0-5 0 0-1c0-0.5 0-0.9 0-0.9-0.1 0-1.2 0.6-2.5 1.4m4.5 5.5l0 1 4 0 4 0 0-1 0-1-4 0-4 0 0 1" stroke="none" fill="black" fill-rule="evenodd"></path></svg>