<?xml version="1.0"?><svg xmlns="http://www.w3.org/2000/svg" width="24" height="24" viewBox="0 0 24 24" version="1.1"><rect x="0" y="0" width="24" height="24" fill="#00000000"></rect><path fill-opacity="0.314" d="M10.5 3.5l-1.5 2.5 1 0 1 0 0 5 0 5 1 0 1 0 0-5 0-5 1 0 1 0-1.5-2.5c-0.8-1.4-1.5-2.5-1.5-2.5 0 0-0.7 1.1-1.5 2.5m-3.5 8.5l0 4 1 0 1 0 0-4 0-4-1 0-1 0 0 4m8 0l0 4 1 0 1 0 0-4 0-4-1 0-1 0 0 4" stroke="none" fill="black" fill-rule="evenodd"></path><path fill-opacity="0.303" d="M10.5 3.5l-1.5 2.5 1 0 1 0 0 5 0 5 1 0 1 0 0-5 0-5 1 0 1 0-1.5-2.5c-0.8-1.3-1.5-2.4-1.5-2.4 0 0-0.7 1.1-1.5 2.4m-3.5 8.5l0 4 1 0 1 0 0-4 0-4-1 0-1 0 0 4m8 0l0 4 1 0 1 0 0-4 0-4-1 0-1 0 0 4" stroke="none" fill="black" fill-rule="evenodd"></path><path fill-opacity="0.393" d="M10.5 3.5l-1.5 2.5 1 0 1 0 0 5 0 5 1 0 1 0 0-5 0-5 1 0 1 0-1.5-2.5c-0.8-1.3-1.5-2.4-1.5-2.4 0 0-0.7 1.1-1.5 2.4m-3.5 8.5l0 4 1 0 1 0 0-4 0-4-1 0-1 0 0 4m8 0l0 4 1 0 1 0 0-4 0-4-1 0-1 0 0 4" stroke="none" fill="black" fill-rule="evenodd"></path><path fill-opacity="1.000" d="M10.5 3.5c-0.8 1.3-1.4 2.4-1.4 2.5-0.1 0 0.3 0 0.9 0l1 0 0 5 0 5 1 0 1 0 0-5 0-5 1 0c0.6 0 1 0 0.9 0 0-0.1-2.9-4.9-2.9-4.9 0 0-0.7 1-1.5 2.4m-3.5 8.5l0 4 1 0 1 0 0-4 0-4-1 0-1 0 0 4m8 0l0 4 1 0 1 0 0-4 0-4-1 0-1 0 0 4" stroke="none" fill="black" fill-rule="evenodd"></path></svg>