<?xml version="1.0"?><svg xmlns="http://www.w3.org/2000/svg" width="24" height="24" viewBox="0 0 24 24" version="1.1"><rect x="0" y="0" width="24" height="24" fill="#00000000"></rect><path fill-opacity="0.392" d="M6.4 1c-1 0.3-1.9 1-2.3 2l-0.1 0.4 0 8.6 0 8.6 0.1 0.3c0.3 0.9 1.1 1.7 1.9 2l0.4 0.1 5.6 0 5.6 0 0.4-0.1c0.8-0.3 1.6-1.1 1.9-2l0.1-0.3 0-8.6 0-8.6-0.1-0.3c-0.3-0.9-1-1.6-1.9-2l-0.3-0.1-5.6 0c-3.1 0-5.6 0-5.7 0m0.1 2.1c-0.2 0.2-0.2 0.2-0.4 0.4l-0.1 0.3 0 8.2 0 8.3 0.1 0.2c0.1 0.1 0.3 0.3 0.4 0.3l0.2 0.2 5.3 0 5.3 0 0.2-0.2c0.1 0 0.3-0.2 0.4-0.3l0.1-0.2 0-8.3 0-8.3-0.2-0.2c-0.1-0.2-0.2-0.3-0.4-0.4l-0.2-0.1-5.2 0-5.2 0-0.3 0.1m4.9 2c-0.4 0.1-0.6 0.3-0.9 0.6-0.4 0.4-0.5 0.8-0.5 1.3 0 1.7 2 2.6 3.3 1.5 0.9-0.8 0.9-2.2 0-3-0.1-0.1-0.3-0.2-0.4-0.3-0.4-0.2-1.1-0.3-1.5-0.1m-0.2 6c-1.2 0.2-2.2 1-2.8 2.1-0.3 0.7-0.4 1-0.4 1.8 0 0.6 0 0.7 0.1 1.1 0.4 1.3 1.5 2.3 2.8 2.8 0.3 0.1 0.5 0.1 1.1 0.1 0.6 0 0.8 0 1.1-0.1 1.3-0.5 2.4-1.5 2.8-2.8 0.1-0.5 0.1-1.6 0-2.1-0.2-0.8-0.8-1.6-1.4-2.1-0.4-0.3-0.9-0.6-1.4-0.8-0.5-0.1-1.4-0.1-1.9 0m0.4 2c-0.8 0.1-1.4 0.8-1.6 1.6-0.2 1.3 1 2.5 2.3 2.3 1.6-0.3 2.2-2.3 1.1-3.4-0.3-0.3-0.7-0.5-1.1-0.6-0.3 0-0.3 0-0.7 0.1" stroke="none" fill="black" fill-rule="evenodd"></path><path fill-opacity="0.213" d="M6.4 1.1c-0.2 0-0.5 0.1-0.7 0.2-0.3 0.2-0.5 0.3-0.8 0.6-0.5 0.5-0.7 0.9-0.8 1.4-0.1 0.5-0.1 16.9 0 17.4 0.1 0.5 0.3 0.9 0.8 1.4 0.5 0.5 0.9 0.7 1.4 0.8 0.5 0.1 10.9 0.1 11.4 0 0.5-0.1 0.9-0.3 1.4-0.8 0.4-0.4 0.7-0.9 0.8-1.4 0.1-0.5 0.1-16.9 0-17.4-0.1-0.5-0.3-0.9-0.8-1.4-0.3-0.3-0.5-0.4-0.8-0.6-0.2-0.1-0.6-0.2-0.7-0.2-0.4-0.1-10.9-0.1-11.2 0m0.1 2c-0.1 0.1-0.2 0.2-0.3 0.3l-0.2 0.3 0 8.3 0 8.3 0.2 0.3c0.1 0.1 0.2 0.2 0.3 0.3l0.3 0.1 5.2 0 5.2 0 0.3-0.1c0.1-0.1 0.2-0.2 0.3-0.3l0.2-0.3 0-8.3 0-8.3-0.2-0.3c-0.1-0.1-0.2-0.2-0.3-0.3l-0.3-0.1-5.2 0-5.2 0-0.3 0.1m5 2c-0.6 0.1-1.1 0.5-1.3 1.1-0.2 0.3-0.2 0.4-0.2 0.8 0 0.4 0 0.5 0.2 0.8 0.7 1.6 2.9 1.6 3.6 0 0.2-0.3 0.2-0.4 0.2-0.8 0-0.4 0-0.5-0.2-0.8-0.4-0.9-1.4-1.4-2.3-1.1m-0.2 6c-1.6 0.3-2.6 1.2-3.1 2.7-0.2 0.5-0.2 0.5-0.2 1.2 0 0.7 0 0.7 0.2 1.2 0.3 0.8 0.6 1.3 1.2 1.8 1.4 1.2 3.3 1.3 4.8 0.3 1.2-0.8 1.9-2.1 1.8-3.5-0.1-1.4-0.9-2.7-2.1-3.3-0.7-0.4-1.9-0.6-2.6-0.4m0.2 2c-0.6 0.1-1 0.5-1.3 1.1-0.2 0.3-0.2 0.4-0.2 0.8 0 0.4 0 0.5 0.2 0.8 0.8 1.8 3.4 1.5 3.7-0.4 0.2-0.8-0.2-1.7-0.9-2.1-0.5-0.3-1-0.4-1.5-0.2" stroke="none" fill="black" fill-rule="evenodd"></path><path fill-opacity="0.656" d="M6.4 1.1c-1.2 0.2-2.1 1.2-2.3 2.3-0.1 0.5-0.1 16.7 0 17.2 0.2 1.1 1.2 2.1 2.3 2.3 0.5 0.1 10.7 0.1 11.2 0 1.1-0.2 1.9-1 2.3-2 0.1-0.3 0.1-0.7 0.1-8.7 0-7.4 0-8.5-0.1-8.8-0.2-1.1-1.1-2.1-2.3-2.3-0.5-0.1-10.8-0.1-11.2 0m0.2 2c-0.3 0.1-0.5 0.3-0.6 0.6 0 0.1 0 2.7 0 8.4l0 8.2 0.2 0.3c0.1 0.1 0.2 0.2 0.3 0.3l0.2 0.1 5.3 0 5.3 0 0.2-0.1c0.1-0.1 0.2-0.2 0.3-0.3l0.2-0.3 0-8.2c0-5.7 0-8.3 0-8.4-0.1-0.3-0.3-0.5-0.6-0.6-0.2-0.1-0.4-0.1-5.4-0.1-5 0-5.2 0-5.4 0.1m5 2c-0.6 0.1-1.1 0.5-1.4 1-0.7 1.4 0.5 3.1 2.1 2.9 1.6-0.3 2.2-2.2 1.1-3.4-0.5-0.5-1.1-0.7-1.8-0.5m-0.4 6c-0.9 0.2-1.5 0.5-2.1 1.2-0.4 0.5-0.8 1-1 1.7 0 0.3-0.1 0.5-0.1 1 0 0.7 0.1 1.2 0.4 1.8 0.5 1 1.5 1.7 2.6 2.1 0.5 0.1 1.5 0.1 2 0 1.5-0.4 2.5-1.6 2.9-3 0.1-0.5 0.1-1.4 0-1.9-0.4-1.2-1.3-2.2-2.3-2.7-0.5-0.2-1.2-0.3-1.6-0.3-0.2 0-0.6 0-0.8 0.1m0.2 2c-1.3 0.4-1.8 1.9-1.1 3 0.8 1.2 2.6 1.2 3.4 0 0.5-0.8 0.4-1.9-0.3-2.6-0.6-0.4-1.3-0.6-2-0.4" stroke="none" fill="black" fill-rule="evenodd"></path><path fill-opacity="0.952" d="M6.6 1c-0.4 0.1-0.9 0.3-1.2 0.5-0.3 0.2-0.8 0.7-1 1.1-0.4 0.7-0.4-0.1-0.4 9.1 0 5.2 0 8.4 0 8.6 0.1 0.6 0.3 1 0.5 1.4 0.4 0.6 1 1 1.7 1.2 0.3 0.1 0.6 0.1 5.8 0.1 5.2 0 5.5 0 5.8-0.1 0.7-0.2 1.3-0.6 1.7-1.2 0.2-0.4 0.4-0.8 0.5-1.4 0-0.2 0-3.4 0-8.6 0-7.6 0-8.2-0.1-8.5-0.3-1-1-1.7-1.9-2l-0.4-0.2-5.4 0c-3 0-5.5 0-5.6 0m-0.1 2.1c-0.1 0.1-0.2 0.2-0.3 0.3l-0.2 0.2 0 8.4 0 8.4 0.2 0.2c0.1 0.1 0.2 0.2 0.3 0.3 0.1 0.1 0.1 0.1 5.4 0.1 2.9 0 5.3 0 5.4 0 0.2-0.1 0.5-0.3 0.6-0.6 0.1-0.1 0.1-0.3 0.1-8.5l0-8.3-0.2-0.2c-0.1-0.1-0.2-0.2-0.3-0.3l-0.2-0.1-5.3 0-5.3 0-0.2 0.1m5.2 2c-0.8 0.1-1.5 0.8-1.6 1.6-0.3 1.3 0.9 2.4 2.2 2.2 0.8-0.1 1.5-0.8 1.6-1.6 0.3-1.3-0.9-2.5-2.2-2.2m-0.2 6c-0.9 0.1-1.8 0.5-2.4 1.2-1.5 1.6-1.4 4.1 0.2 5.6 1.5 1.4 3.9 1.4 5.4 0 2.1-1.9 1.5-5.3-1-6.5-0.6-0.3-1.5-0.4-2.2-0.3m-0.1 2c-0.5 0.1-1 0.6-1.2 1.1-0.2 0.2-0.2 0.3-0.2 0.8 0 0.5 0 0.5 0.2 0.9 0.2 0.4 0.6 0.8 1 0.9 0.2 0.2 0.3 0.2 0.8 0.2 0.5 0 0.5 0 0.9-0.2 0.4-0.2 0.8-0.6 0.9-1 0.2-0.2 0.2-0.3 0.2-0.8 0-0.5 0-0.6-0.2-0.8-0.2-0.4-0.6-0.9-1-1-0.2-0.1-0.4-0.2-0.7-0.2-0.3 0-0.6 0-0.7 0.1" stroke="none" fill="black" fill-rule="evenodd"></path></svg>