<?xml version="1.0"?><svg xmlns="http://www.w3.org/2000/svg" width="24" height="24" viewBox="0 0 24 24" version="1.1"><rect x="0" y="0" width="24" height="24" fill="#00000000"></rect><path fill-opacity="0.325" d="M15.3 3.1c-0.3 0.1-6.2 1.7-6.6 1.8-0.7 0.2-1.5 0.7-2.1 1.3-0.7 0.7-1.2 1.6-1.5 2.5-0.1 0.4-0.1 0.4-0.1 4.6l0 4.1-0.1 0c-0.4-0.1-1-0.2-1.7-0.1-0.9 0-1.2 0.1-1.7 0.4-0.4 0.2-0.9 0.8-1.2 1.2-0.2 0.5-0.3 0.8-0.3 1.9 0 0.6 0 1 0.1 1.2 0.1 0.7 0.6 1.4 1.3 1.8l0.3 0.2 1.8 0 1.8 0 0.3-0.2c0.7-0.4 1.2-1.1 1.3-1.8 0.1-0.3 0.1-1.2 0.1-6.5 0-6.8 0-6.6 0.3-7.2 0.2-0.6 0.7-1 1.3-1.3 0.1-0.1 1.7-0.5 3.4-1 3.2-0.8 3.3-0.9 3.7-0.8 0.4 0 0.7 0.1 0.9 0.4 0.4 0.4 0.4 0.2 0.4 4.6l0 4-0.1 0c-0.4-0.1-0.8-0.2-1.6-0.1-0.8 0-1 0-1.3 0.1-0.5 0.2-0.8 0.4-1.2 0.8-0.4 0.4-0.6 0.8-0.7 1.3-0.1 0.4-0.1 0.5-0.1 1.4 0 0.9 0 1.1 0.1 1.3 0.4 1 1.2 1.7 2.1 2 0.4 0.1 2.2 0.1 2.6 0 0.9-0.3 1.7-1 2.1-2l0.1-0.3 0-6.6 0-6.6-0.1-0.4c-0.4-1.3-1.5-2.1-2.9-2-0.2 0-0.5 0-0.7 0m-0.6 13c-0.3 0.1-0.6 0.4-0.6 0.7-0.1 0.2-0.1 1.3 0 1.5 0 0.3 0.2 0.5 0.4 0.6 0.2 0.1 0.3 0.2 1 0.2 0.7 0 0.8-0.1 1-0.2 0.1 0 0.2-0.2 0.3-0.3 0.2-0.3 0.2-0.3 0.2-0.9 0-0.8 0-1.1-0.3-1.3-0.2-0.2-0.3-0.3-0.5-0.3-0.3-0.1-1.2-0.1-1.5 0m-12.2 3.3c-0.1 0.1-0.2 0.2-0.3 0.3l-0.2 0.3 0 0.8c0 0.9 0.1 1 0.4 1.3l0.2 0.1 0.9 0 0.9 0 0.2-0.1c0.3-0.3 0.4-0.4 0.4-1.2 0-0.7 0-1-0.2-1.2-0.3-0.3-0.5-0.4-1.3-0.4-0.7 0-0.8 0-1 0.1" stroke="none" fill="black" fill-rule="evenodd"></path><path fill-opacity="0.251" d="M15.4 3.1c-0.2 0.1-1.8 0.5-3.6 1-3.9 1-4 1.1-5.1 2.1-0.8 0.7-1.2 1.5-1.5 2.5l-0.2 0.4 0 4.2 0 4.1-0.2 0c-0.4-0.2-2.2-0.2-2.6 0-0.7 0.2-1.5 0.8-1.8 1.4-0.3 0.6-0.4 1-0.4 2 0 0.9 0.1 1.4 0.3 1.8 0.2 0.4 0.6 0.9 1 1.1l0.4 0.3 1.8 0 1.8 0 0.4-0.2c0.5-0.4 1-1 1.2-1.6 0.1-0.3 0.1-0.7 0.1-6.8l0-6.5 0.2-0.4c0.2-0.6 0.8-1.2 1.4-1.5 0.1-0.1 1.7-0.5 3.4-1 3.6-1 3.7-1 4.2-0.7 0.3 0.2 0.6 0.4 0.7 0.8 0.1 0.4 0.1 0.5 0.1 4.2l0 3.9-0.1 0c-0.6-0.2-1.9-0.2-2.5-0.1-0.9 0.2-1.7 0.8-2.1 1.7-0.3 0.5-0.3 0.9-0.3 2 0 0.7 0.1 0.9 0.1 1.2 0.3 0.9 1.2 1.8 2.2 2 0.5 0.1 2.3 0.1 2.7-0.1 0.8-0.3 1.6-1.1 1.9-1.9l0.1-0.4 0-6.5c0-6.3 0-6.6-0.1-6.9-0.3-0.9-0.9-1.6-1.6-1.9-0.5-0.2-1.3-0.3-1.9-0.2m-0.7 13c-0.2 0.1-0.5 0.3-0.6 0.5-0.1 0.3-0.1 0.3-0.1 1 0 0.8 0 0.8 0.2 1 0.1 0.1 0.2 0.3 0.3 0.3 0.2 0.1 0.3 0.1 1 0.1 0.7 0 0.8 0 1-0.1 0.1 0 0.2-0.2 0.3-0.3 0.2-0.2 0.2-0.2 0.2-1 0-0.7 0-0.7-0.1-1-0.2-0.2-0.4-0.4-0.7-0.5-0.2-0.1-1.3-0.1-1.5 0m-12.1 3.3c-0.1 0-0.2 0.1-0.3 0.2-0.3 0.2-0.3 0.4-0.3 1.2 0 0.7 0 0.9 0.3 1.2 0.2 0.2 0.3 0.3 1.2 0.3 0.9 0 1-0.1 1.2-0.4 0.3-0.2 0.3-0.4 0.3-1.2 0-0.6 0-0.7-0.1-0.8-0.1-0.2-0.2-0.3-0.3-0.4l-0.2-0.2-0.8 0c-0.7 0-0.9 0-1 0.1" stroke="none" fill="black" fill-rule="evenodd"></path><path fill-opacity="0.496" d="M15.5 3.1c-0.4 0.1-6.7 1.8-7.1 1.9-0.8 0.3-1.8 1.1-2.4 2-0.3 0.5-0.7 1.3-0.9 1.8-0.1 0.4-0.1 0.5-0.1 4.5l0 4.1-0.3 0c-0.3-0.1-2.1-0.1-2.4 0-1 0.2-1.8 1-2.1 1.9-0.1 0.3-0.2 0.5-0.2 1.3 0 1 0 1.4 0.3 1.9 0.2 0.5 0.7 1.1 1.2 1.4l0.2 0.1 1.8 0 1.8 0 0.2-0.1c0.5-0.3 1-0.9 1.2-1.4 0.3-0.6 0.3-0.5 0.3-7.2 0-6.9 0-6.5 0.3-7.1 0.2-0.5 0.8-1 1.3-1.2 0.2-0.1 1.2-0.4 3.5-1 3.3-0.9 3.4-0.9 3.9-0.8 0.3 0.1 0.8 0.5 0.9 0.9 0.1 0.3 0.1 0.3 0.1 4.2l0 3.9-0.2 0c-0.2-0.1-0.5-0.1-1.3-0.1-1 0-1 0-1.4 0.1-1 0.4-1.8 1.2-2 2.2-0.1 0.5-0.1 1.8 0 2.3 0.1 0.6 0.5 1.2 1 1.7 0.6 0.5 1.1 0.7 2.4 0.7 1.4 0 1.9-0.2 2.6-0.9 0.3-0.3 0.4-0.5 0.6-0.8 0.3-0.7 0.3-0.4 0.3-7.5l0-6.4-0.2-0.4c-0.3-1-1-1.6-1.9-1.9-0.3-0.1-1-0.2-1.4-0.1m-0.9 13.1c-0.2 0.1-0.3 0.2-0.4 0.3-0.2 0.2-0.2 0.2-0.2 1 0 0.8 0 1 0.3 1.3 0.3 0.2 0.4 0.3 1.3 0.2l0.8 0 0.2-0.1c0.1-0.1 0.2-0.3 0.3-0.4 0.1-0.2 0.1-0.3 0.1-1 0-0.8 0-0.8-0.2-1-0.1-0.1-0.2-0.2-0.4-0.3-0.2-0.1-0.3-0.1-0.9-0.1-0.6 0-0.7 0-0.9 0.1m-11.7 3.1c-0.1 0-0.1 0-0.2 0-0.2 0.1-0.5 0.3-0.6 0.6-0.1 0.1-0.1 0.3-0.1 0.9 0 0.8 0.1 1 0.4 1.2 0.2 0.3 0.3 0.3 1.1 0.3 0.8 0 0.9 0 1.1-0.3 0.3-0.2 0.4-0.4 0.4-1.2 0-0.8 0-1-0.3-1.2-0.2-0.3-0.4-0.3-1.1-0.3-0.4 0-0.7 0-0.7 0" stroke="none" fill="black" fill-rule="evenodd"></path><path fill-opacity="0.969" d="M15.6 3.1c-0.2 0-1.8 0.4-3.6 0.9-2.9 0.8-3.4 0.9-3.8 1.1-1.5 0.7-2.6 2.1-3 3.7l-0.2 0.5 0 4.1c0 3.8 0 4.1-0.1 4-0.5-0.1-2-0.2-2.6 0-0.5 0.1-0.9 0.3-1.4 0.8-0.4 0.4-0.6 0.7-0.8 1.3-0.1 0.4-0.1 2.1 0 2.6 0.2 0.7 0.7 1.3 1.4 1.7l0.2 0.2 1.8 0 1.8 0 0.3-0.2c0.6-0.4 1-1 1.3-1.6l0.1-0.4 0-6.5c0-4.6 0-6.5 0.1-6.6 0.3-0.9 1-1.6 1.7-1.8 0.1-0.1 1.6-0.5 3.4-1 2.8-0.7 3.2-0.8 3.4-0.8 0.6 0.1 1.1 0.4 1.3 0.9 0.1 0.3 0.1 0.4 0.1 4.3l0 3.9-0.3 0c-0.3-0.1-2.1-0.1-2.4 0-1 0.2-1.8 1-2.1 1.9-0.2 0.4-0.2 0.5-0.2 1.4 0 0.8 0 1.1 0.1 1.3 0.1 0.5 0.4 0.9 0.7 1.3 0.4 0.4 0.7 0.6 1.2 0.8 0.4 0.1 0.4 0.1 1.5 0.1 1.1 0 1.1 0 1.5-0.1 0.9-0.4 1.6-1.1 1.9-2.1 0.1-0.3 0.1-0.7 0.1-6.7 0-6 0-6.5-0.1-6.8-0.2-0.7-0.6-1.4-1.2-1.8-0.6-0.3-1.4-0.5-2.1-0.4m-1 13c-0.5 0.3-0.6 0.5-0.6 1.5 0 0.8 0 0.9 0.3 1.2 0.3 0.3 0.4 0.3 1.2 0.3 0.8 0 0.9 0 1.2-0.3 0.3-0.3 0.3-0.4 0.3-1.2 0-0.8 0-1-0.3-1.2-0.2-0.3-0.4-0.3-1.2-0.3-0.6 0-0.8 0-0.9 0m-12 3.2c-0.2 0.2-0.4 0.4-0.5 0.6-0.1 0.1-0.1 0.4-0.1 0.9 0 0.7 0 0.8 0.1 0.9 0.1 0.2 0.2 0.3 0.3 0.4l0.3 0.2 0.8 0 0.8 0 0.3-0.2c0.1-0.1 0.2-0.2 0.3-0.4 0.1-0.1 0.1-0.2 0.1-0.9 0-0.8 0-1-0.3-1.2-0.3-0.3-0.5-0.3-1.2-0.3-0.5 0-0.7 0-0.9 0" stroke="none" fill="black" fill-rule="evenodd"></path></svg>