<?xml version="1.0"?><svg xmlns="http://www.w3.org/2000/svg" width="24" height="24" viewBox="0 0 24 24" version="1.1"><rect x="0" y="0" width="24" height="24" fill="#00000000"></rect><path fill-opacity="0.416" d="M19.2 0.2c-0.6 0.1-6.4 1.7-6.7 1.8-0.4 0.2-1 0.8-1.2 1.2-0.3 0.6-0.3 0.3-0.3 6.6 0 3.1 0 5.7 0 5.7 0 0-0.2-0.1-0.3-0.1-0.4-0.2-0.9-0.4-1.5-0.4-1.6-0.1-3.1 0.8-3.8 2.2-0.3 0.7-0.4 1-0.4 1.8 0 0.6 0 0.7 0.1 1.1 0.4 1.3 1.5 2.3 2.8 2.8 0.3 0.1 0.5 0.1 1.1 0.1 0.6 0 0.8 0 1.1-0.1 1.3-0.5 2.3-1.5 2.8-2.8l0.1-0.4 0-5.9c0-3.3 0-6 0-6 0 0 1.4-0.4 3.1-0.8 1.8-0.5 3.2-0.9 3.4-1 0.6-0.3 1.3-1.1 1.4-1.8 0.1-0.4 0.1-2.7 0-3.1-0.2-0.7-0.9-1.1-1.7-0.9m-3.2 2.8c-1.6 0.4-3 0.8-3 0.8 0 0 0 0.5 0 1l0 1 3-0.8c1.6-0.4 3-0.8 3-0.8 0 0 0-0.5 0-1l0-1-3 0.8m-7.4 14.1c-0.8 0.1-1.4 0.8-1.6 1.6-0.2 1.3 1 2.5 2.3 2.3 1.6-0.3 2.2-2.3 1.1-3.4-0.3-0.3-0.7-0.5-1.1-0.6-0.3 0-0.3 0-0.7 0.1" stroke="none" fill="black" fill-rule="evenodd"></path><path fill-opacity="0.342" d="M19.1 0.2c-0.7 0.1-6.2 1.6-6.4 1.7-0.5 0.2-1.1 0.7-1.4 1.3-0.3 0.6-0.3 0.4-0.3 6.6 0 3.2 0 5.7 0 5.7 0 0-0.1 0-0.2-0.1-0.2-0.1-0.4-0.2-0.7-0.2-0.4-0.2-0.5-0.2-1.1-0.2-0.6 0-0.7 0-1.1 0.2-1.5 0.4-2.5 1.6-2.8 3.1-0.2 0.7-0.1 1.4 0.2 2.2 0.4 1.1 1.5 2 2.7 2.4 0.4 0.1 1.6 0.1 2 0 1.2-0.4 2.3-1.3 2.7-2.5 0.3-0.7 0.3-0.6 0.3-6.8 0-5.5 0-5.8 0.1-5.8 0 0 1.4-0.4 3-0.8 1.6-0.4 3-0.8 3.1-0.9 0.7-0.2 1.4-0.9 1.7-1.7 0.1-0.3 0.1-0.3 0.1-1.7 0-1.4 0-1.5-0.1-1.7-0.2-0.4-0.5-0.7-0.8-0.8-0.3 0-0.8-0.1-1 0m-3.1 2.8c-1.6 0.4-3 0.8-3 0.8 0 0 0 0.5 0 1 0 0.9 0 1 0.1 1 0 0 1.3-0.4 2.9-0.8 1.6-0.4 2.9-0.8 2.9-0.8 0.1 0 0.1-0.1 0.1-1 0-0.6 0-1 0-1-0.1 0-1.4 0.4-3 0.8m-7.4 14.1c-0.6 0.1-1.1 0.5-1.4 1.1-0.2 0.3-0.2 0.4-0.2 0.8 0 0.4 0 0.5 0.2 0.8 0.3 0.6 0.8 1 1.5 1.2 0.9 0.1 1.7-0.4 2.1-1.2 0.2-0.3 0.2-0.4 0.2-0.8 0-0.4 0-0.5-0.2-0.8-0.4-0.9-1.3-1.3-2.2-1.1" stroke="none" fill="black" fill-rule="evenodd"></path><path fill-opacity="0.337" d="M19.1 0.2c-0.9 0.2-6.3 1.7-6.5 1.8-0.8 0.3-1.4 1.2-1.5 2-0.1 0.2-0.1 2.4-0.1 5.9l0 5.6-0.3-0.1c-0.4-0.2-1-0.4-1.5-0.4-0.5 0-1.3 0.1-1.8 0.3-1 0.5-1.9 1.5-2.3 2.7-0.1 0.5-0.1 1.4 0 1.9 0.4 1.4 1.5 2.6 2.9 3 0.5 0.1 1.5 0.1 2 0 1.4-0.4 2.5-1.5 2.9-2.9 0.1-0.4 0.1-0.4 0.1-6.3l0-5.9 3.1-0.8c1.7-0.5 3.2-0.9 3.3-1 0.4-0.2 0.8-0.5 1-0.8 0.5-0.7 0.6-1.1 0.6-2.7 0-1.2 0-1.3-0.1-1.5-0.3-0.5-0.8-0.9-1.3-0.8-0.2 0-0.4 0-0.5 0m-3.1 2.8l-3 0.8 0 1c0 0.5 0 1 0 1 0.1 0 1.4-0.4 3-0.8l3-0.8 0-1c0-0.8 0-1-0.1-1 0 0-1.3 0.4-2.9 0.8m-7.6 14.1c-1.2 0.3-1.8 1.9-1.1 3 0.8 1.2 2.6 1.2 3.4 0 0.6-1 0.3-2.2-0.7-2.8-0.4-0.3-1.1-0.4-1.6-0.2" stroke="none" fill="black" fill-rule="evenodd"></path><path fill-opacity="0.969" d="M19.2 0.2c-0.3 0-6 1.6-6.3 1.7-0.8 0.2-1.5 0.9-1.8 1.7-0.1 0.3-0.1 0.4-0.1 6.1l0 5.8-0.3-0.1c-1.1-0.5-2.3-0.5-3.4 0-1.5 0.7-2.4 2.4-2.2 4 0.3 2.9 3.4 4.5 5.9 3 0.9-0.5 1.6-1.3 1.9-2.4l0.1-0.4 0-5.9 0-5.9 3.1-0.8c2.3-0.6 3.1-0.9 3.4-1 0.6-0.3 1.1-1 1.4-1.6 0-0.3 0.1-0.5 0.1-1.4 0-1.3 0-1.8-0.2-2.1-0.3-0.6-1-0.8-1.6-0.7m-3.2 2.8l-3 0.8 0 1 0 1 0.1 0c0.1 0 1.5-0.4 3-0.8l2.9-0.8 0-1c0-0.8 0-1-0.1-1 0 0-1.3 0.4-2.9 0.8m-7.6 14.1c-0.5 0.1-1 0.6-1.2 1.1-0.2 0.2-0.2 0.3-0.2 0.8 0 0.5 0 0.5 0.2 0.9 0.2 0.4 0.6 0.8 1 0.9 0.2 0.2 0.3 0.2 0.8 0.2 0.5 0 0.5 0 0.9-0.2 0.4-0.2 0.8-0.6 0.9-1 0.2-0.2 0.2-0.3 0.2-0.8 0-0.5 0-0.6-0.2-0.8-0.2-0.4-0.6-0.9-1-1-0.2-0.1-0.4-0.2-0.7-0.2-0.3 0-0.6 0-0.7 0.1" stroke="none" fill="black" fill-rule="evenodd"></path></svg>