<?xml version="1.0"?><svg xmlns="http://www.w3.org/2000/svg" width="24" height="24" viewBox="0 0 24 24" version="1.1"><rect x="0" y="0" width="24" height="24" fill="#00000000"></rect><path fill-opacity="0.427" d="M7 6.1c-1.3 0.2-2.3 0.8-3.2 1.7-1.3 1.2-1.9 2.7-1.8 4.4 0.1 1 0.2 1.6 0.6 2.5 0.9 1.7 2.5 2.9 4.4 3.2 0.7 0.1 9.3 0.1 10 0 1.9-0.3 3.5-1.5 4.4-3.2 0.4-0.9 0.5-1.5 0.6-2.5 0.1-1.7-0.5-3.2-1.8-4.4-0.9-1-2-1.5-3.2-1.7-0.6-0.1-9.4-0.1-10 0m0.6 4c-0.5 0.1-1.1 0.5-1.4 1-0.5 1.3 0.2 2.6 1.5 2.9 0.2 0 1.9 0 4.5 0 4.7 0 4.4 0 4.9-0.4 0.6-0.4 0.9-0.9 0.9-1.6 0-0.9-0.5-1.5-1.3-1.9l-0.3-0.1-4.2 0c-2.4 0-4.4 0-4.6 0.1" stroke="none" fill="black" fill-rule="evenodd"></path><path fill-opacity="0.343" d="M7 6.1c-1.2 0.2-2.5 0.9-3.4 1.8-1.3 1.5-1.9 3.5-1.5 5.4 0.6 2.4 2.5 4.2 5 4.6 0.7 0.1 9.1 0.1 9.8 0 2-0.3 3.6-1.5 4.5-3.3 0.9-1.9 0.8-4.1-0.4-5.9-0.9-1.4-2.5-2.4-4.1-2.6-0.7-0.1-9.2-0.1-9.9 0m0.5 4c-0.6 0.1-1 0.5-1.3 1.1-0.2 0.3-0.2 0.4-0.2 0.8 0 0.4 0 0.5 0.2 0.8 0.3 0.6 0.8 1 1.4 1.1 0.4 0.1 8.4 0.1 8.8 0 0.8-0.1 1.4-0.7 1.5-1.5 0.3-1.1-0.4-2.1-1.5-2.3-0.4-0.1-8.5-0.1-8.9 0" stroke="none" fill="black" fill-rule="evenodd"></path><path fill-opacity="0.167" d="M7.3 6.1c-0.5 0-1.2 0.2-1.8 0.5-1.5 0.6-2.7 2-3.2 3.6-0.7 2.1-0.1 4.5 1.5 6 0.8 0.9 1.7 1.4 3.1 1.7 0.3 0.1 0.8 0.1 4.8 0.1 4.7 0 5 0 5.9-0.2 1.7-0.5 3.2-1.8 3.9-3.5 0.7-1.8 0.6-3.7-0.3-5.3-1-1.6-2.7-2.7-4.5-2.9-0.6-0.1-8.9-0.1-9.4 0m0.1 4c-1.3 0.4-1.8 1.9-1.1 3 0.3 0.4 0.7 0.7 1.2 0.8 0.4 0.1 8.6 0.1 9 0 0.5-0.1 0.9-0.4 1.2-0.8 0.7-1.1 0.1-2.6-1.1-3-0.3-0.1-0.8-0.1-4.6-0.1-4 0-4.3 0-4.6 0.1" stroke="none" fill="black" fill-rule="evenodd"></path><path fill-opacity="0.975" d="M7.4 6.1c-2.5 0.2-4.6 2-5.2 4.5-0.3 1.2-0.2 2.7 0.3 3.8 0.7 1.5 2 2.7 3.6 3.3 1 0.3 0.8 0.3 5.9 0.3 5.1 0 4.9 0 5.9-0.3 1.9-0.7 3.4-2.3 3.9-4.3 0.5-2.1-0.1-4.1-1.6-5.7-1-0.9-2.2-1.5-3.7-1.6-0.6-0.1-8.5-0.1-9.1 0m0 4c-0.5 0.1-1 0.6-1.2 1.1-0.2 0.2-0.2 0.3-0.2 0.8 0 0.5 0 0.5 0.2 0.9 0.2 0.4 0.6 0.8 1 0.9l0.3 0.2 4.5 0 4.5 0 0.3-0.2c0.4-0.1 0.8-0.5 1-0.9 0.2-0.4 0.2-0.4 0.2-0.9 0-0.5 0-0.6-0.2-0.8-0.1-0.4-0.6-0.9-1-1l-0.3-0.2-4.4 0c-3.5 0-4.5 0-4.7 0.1" stroke="none" fill="black" fill-rule="evenodd"></path></svg>