<?xml version="1.0"?><svg xmlns="http://www.w3.org/2000/svg" width="24" height="24" viewBox="0 0 24 24" version="1.1"><rect x="0" y="0" width="24" height="24" fill="#00000000"></rect><path fill-opacity="1.000" d="M6 12l0 9 9 0 9 0 0-1 0-1-3 0-3 0 0-1 0-1 1 0 1 0 0-1 0-1-1 0-1 0 0-1 0-1 1 0 1 0 0-1 0-1-1 0-1 0 0-1 0-1 3 0 3 0 0-1 0-1-3 0-3 0 0-2 0-2-6 0-6 0 0 9m2-6l0 1 1.5 0 1.5 0 0-1 0-1-1.5 0-1.5 0 0 1m5 0l0 1 1.5 0 1.5 0 0-1 0-1-1.5 0-1.5 0 0 1m-5 4l0 1 1.5 0 1.5 0 0-1 0-1-1.5 0-1.5 0 0 1m5 0l0 1 1.5 0 1.5 0 0-1 0-1-1.5 0-1.5 0 0 1m9 2l0 1 1 0 1 0 0-1 0-1-1 0-1 0 0 1m-14 2l0 1 1.5 0 1.5 0 0-1 0-1-1.5 0-1.5 0 0 1m5 0l0 1 1.5 0 1.5 0 0-1 0-1-1.5 0-1.5 0 0 1m9 2l0 1 1 0 1 0 0-1 0-1-1 0-1 0 0 1m-14 2l0 1 1.5 0 1.5 0 0-1 0-1-1.5 0-1.5 0 0 1m5 0l0 1 1.5 0 1.5 0 0-1 0-1-1.5 0-1.5 0 0 1" stroke="none" fill="black" fill-rule="evenodd"></path></svg>