<?xml version="1.0"?><svg xmlns="http://www.w3.org/2000/svg" width="24" height="24" viewBox="0 0 24 24" version="1.1"><rect x="0" y="0" width="24" height="24" fill="#00000000"></rect><path fill-opacity="0.463" d="M2 12.3c0 0.7 0.2 2 0.5 2.8 0.8 2.5 2.7 4.7 5.1 5.9 0.8 0.4 1.9 0.7 3 0.9 0.5 0.1 2.3 0.1 2.9 0 1-0.2 2.1-0.5 2.9-0.9 2.8-1.4 4.8-4 5.4-6.9 0.1-0.6 0.2-1.5 0.2-1.9l0-0.2-10 0-10 0 0 0.3" stroke="none" fill="black" fill-rule="evenodd"></path><path fill-opacity="0.255" d="M2 12.4c0.1 1.6 0.5 2.8 1.1 4.1 1.3 2.5 3.6 4.4 6.4 5.1 0.9 0.3 1.4 0.4 2.5 0.4 1.1 0 1.6-0.1 2.5-0.4 1.8-0.4 3.3-1.3 4.5-2.5 1.8-1.8 2.8-4 3-6.7l0-0.4-10 0-10 0 0 0.4" stroke="none" fill="black" fill-rule="evenodd"></path><path fill-opacity="0.382" d="M4 12.5c0.1 2.1 1.2 4.3 2.9 5.7 3 2.4 7.2 2.4 10.2 0 1.7-1.4 2.8-3.6 2.9-5.7l0-0.5-8 0-8 0 0 0.5" stroke="none" fill="black" fill-rule="evenodd"></path><path fill-opacity="0.968" d="M4 12.1c0 0.2 0.1 1.2 0.2 1.6 0.2 1 0.8 2.2 1.5 3.2 1.2 1.5 3.1 2.7 5.1 3 0.5 0.1 1.9 0.1 2.4 0 2.3-0.3 4.5-1.8 5.6-3.7 0.5-0.8 0.9-1.8 1-2.5 0.1-0.4 0.2-1.4 0.2-1.6 0-0.1-0.4-0.1-8-0.1-7.6 0-8 0-8 0.1" stroke="none" fill="black" fill-rule="evenodd"></path></svg>