<?xml version="1.0"?><svg xmlns="http://www.w3.org/2000/svg" width="24" height="24" viewBox="0 0 24 24" version="1.1"><rect x="0" y="0" width="24" height="24" fill="#00000000"></rect><path fill-opacity="0.467" d="M5.3 3.1c-2.1 0.3-3.7 1-5 2.2l-0.3 0.3 0 1.7 0 1.7 0.3-0.4c0.4-0.9 1.1-1.7 1.9-2.2 0.4-0.4 1.3-0.8 1.9-1 2.1-0.7 4.6-0.4 6.4 1 0 0-1.2 1.2-2.8 2.8l-2.8 2.8 2.8 2.8c2.7 2.7 2.8 2.8 2.7 2.9-0.2 0.1-0.8 0.5-1 0.6-2 0.9-4.1 0.9-6 0-1.3-0.5-2.4-1.6-3.2-2.9l-0.2-0.4 0 1.7 0 1.7 0.2 0.2c0.2 0.1 0.5 0.4 0.8 0.7 1.1 0.7 2.4 1.3 3.7 1.6 0.9 0.1 2.4 0.1 3.3 0 1.1-0.3 2.4-0.8 3.3-1.4 0.3-0.2 0.6-0.4 0.7-0.4 0-0.1 0.4-0.4 0.7-0.8l0.7-0.7-2.8-2.8-2.8-2.8 2.8-2.8 2.8-2.8-0.7-0.7c-0.4-0.4-0.7-0.7-0.7-0.7 0 0-0.2-0.1-0.3-0.3-0.4-0.2-0.8-0.5-1.4-0.8-0.9-0.4-1.7-0.7-2.7-0.8-0.6-0.1-1.9-0.1-2.3 0m0.7 3.7c-0.8 0.3-0.9 1.5 0 1.9 0.4 0.2 0.9 0 1.2-0.4 0.1-0.2 0.1-0.3 0.1-0.5 0-0.3 0-0.4-0.1-0.6-0.3-0.4-0.8-0.5-1.2-0.4" stroke="none" fill="black" fill-rule="evenodd"></path><path fill-opacity="0.198" d="M5.4 3.1c-1 0.1-2 0.3-2.9 0.8-0.9 0.4-1.5 0.8-2.2 1.5l-0.3 0.2 0 1.7 0 1.7 0.2-0.3c0.6-1.2 1.6-2.2 2.7-2.8 2.1-1.1 4.5-1.2 6.6-0.1 0.5 0.2 1 0.5 1 0.6 0 0-1.3 1.3-2.8 2.8l-2.8 2.8 2.8 2.8 2.8 2.8-0.1 0.1c-0.6 0.5-1.8 1-2.8 1.2-1.9 0.3-3.9-0.1-5.4-1.2-0.7-0.6-1.5-1.5-2-2.4l-0.2-0.3 0 1.7 0 1.7 0.4 0.3c1.3 1.2 2.8 1.9 4.5 2.2 0.8 0.1 2.2 0.1 3 0 1.2-0.3 2.6-0.8 3.6-1.5 0.2-0.2 0.5-0.3 0.5-0.3 0 0 0.3-0.4 0.7-0.8l0.7-0.7-2.8-2.8-2.8-2.8 2.8-2.8 2.8-2.8-0.7-0.7c-0.3-0.4-0.7-0.7-0.7-0.8-0.1 0-0.4-0.2-0.6-0.3-1.7-1.2-3.9-1.8-6-1.5m0.7 3.7c-0.2 0.1-0.4 0.2-0.6 0.4-0.1 0.2-0.1 0.3-0.1 0.6 0 0.2 0 0.3 0.1 0.5 0.3 0.5 0.9 0.6 1.4 0.3 0.2-0.2 0.5-0.6 0.4-0.8 0-0.4-0.2-0.8-0.5-0.9-0.2-0.1-0.5-0.2-0.7-0.1" stroke="none" fill="black" fill-rule="evenodd"></path><path fill-opacity="0.624" d="M5.6 3c-2 0.2-3.9 1.1-5.3 2.4l-0.3 0.2 0 1.7 0 1.7 0.2-0.4c1.6-2.8 5-4.2 8.1-3.3 0.2 0 0.6 0.2 0.9 0.3 0.4 0.2 1.2 0.7 1.3 0.8 0 0-1.2 1.2-2.8 2.8l-2.8 2.8 2.8 2.8 2.8 2.8-0.1 0.1c-0.1 0.1-0.3 0.2-0.5 0.4-1.4 0.7-2.9 1-4.4 0.8-2.2-0.2-4.1-1.5-5.3-3.5l-0.2-0.4 0 1.7 0 1.7 0.3 0.3c1.4 1.2 2.9 1.9 4.7 2.2 0.7 0.1 2 0.1 2.7 0 1.3-0.2 2.7-0.7 3.7-1.5 0.2-0.1 0.4-0.3 0.5-0.3 0.1-0.1 0.5-0.4 0.8-0.8l0.7-0.6-2.8-2.9-2.9-2.8 2.9-2.8 2.8-2.9-0.7-0.7c-0.4-0.3-0.7-0.6-0.7-0.6 0 0-0.3-0.2-0.6-0.4-1.5-1-3-1.5-4.7-1.6-0.4 0-0.9 0-1.1 0m0.5 3.8c-0.9 0.2-1 1.5-0.2 1.8 0.3 0.2 0.6 0.2 0.9 0 0.4-0.2 0.6-0.6 0.5-1.1-0.1-0.2-0.3-0.5-0.5-0.6-0.1-0.1-0.5-0.1-0.7-0.1" stroke="none" fill="black" fill-rule="evenodd"></path><path fill-opacity="0.951" d="M5.7 3.1c-2 0.1-3.9 0.9-5.4 2.3l-0.3 0.2 0 1.7 0 1.7 0.2-0.3c1.2-2.3 3.6-3.7 6.2-3.7 1.1 0 2.1 0.2 3.1 0.7 0.4 0.3 1.1 0.6 1.1 0.7 0 0-1.3 1.3-2.9 2.8l-2.8 2.8 2.8 2.8c1.6 1.5 2.9 2.8 2.9 2.8 0 0.1-0.7 0.5-1.1 0.7-1 0.5-2 0.7-3.2 0.7-2.3 0-4.4-1.1-5.7-3-0.1-0.2-0.3-0.5-0.4-0.7l-0.2-0.3 0 1.7 0 1.7 0.4 0.3c1.1 1 2.4 1.7 3.8 2 1.4 0.4 3.2 0.3 4.6-0.1 1-0.3 2.1-0.8 2.8-1.3 0.2-0.2 0.3-0.2 0.3-0.2 0.1 0 0.5-0.4 1-0.9l0.5-0.6-2.9-2.8-2.8-2.8 2.8-2.8 2.9-2.8-0.6-0.6c-0.7-0.8-1.3-1.3-2.4-1.8-1.5-0.7-3-1.1-4.7-0.9m0.3 3.8c-1 0.4-0.7 1.8 0.4 1.8 0.3 0 0.5-0.1 0.7-0.4 0.3-0.3 0.2-1-0.1-1.3-0.2-0.2-0.7-0.3-1-0.1" stroke="none" fill="black" fill-rule="evenodd"></path></svg>