<?xml version="1.0"?><svg xmlns="http://www.w3.org/2000/svg" width="24" height="24" viewBox="0 0 24 24" version="1.1"><rect x="0" y="0" width="24" height="24" fill="#00000000"></rect><path fill-opacity="0.369" d="M0 7l0 1 12 0 12 0 0-1 0.1-1-12.1 0-12 0 0 1m0 0c0 0.6 0 0.8 0 0.5 0-0.3 0-0.7 0-1 0-0.3 0-0.1 0 0.5m2.4 3.1c-0.9 0.3-1.4 1.1-1.4 2 0 0.3 0.1 0.5 0.2 0.8 0.8 1.5 2.8 1.5 3.6 0 0.2-0.4 0.2-0.4 0.2-0.9 0-0.4 0-0.5-0.2-0.8-0.4-1-1.4-1.4-2.4-1.1m6 0c-0.9 0.3-1.4 1.1-1.4 2 0 0.3 0.1 0.5 0.2 0.8 0.8 1.5 2.8 1.5 3.6 0 0.2-0.4 0.2-0.4 0.2-0.9 0-0.4 0-0.5-0.2-0.8-0.4-1-1.4-1.4-2.4-1.1m6 0c-0.9 0.3-1.4 1.1-1.4 2 0 0.3 0.1 0.5 0.2 0.8 0.8 1.5 2.8 1.5 3.6 0 0.2-0.4 0.2-0.4 0.2-0.9 0-0.4 0-0.5-0.2-0.8-0.4-1-1.4-1.4-2.4-1.1m4.6 2.9l0 1 2 0 2 0 0-1 0-1-2 0-2 0 0 1m-19 4l0 1 12 0 12 0 0-1 0.1-1-12.1 0-12 0 0 1m0 0c0 0.6 0 0.8 0 0.5 0-0.3 0-0.7 0-1 0-0.3 0-0.1 0 0.5" stroke="none" fill="black" fill-rule="evenodd"></path><path fill-opacity="0.285" d="M0 7l0 1 12 0 12 0 0-1 0.1-1-12.1 0-12 0 0 1m0 0c0 0.6 0 0.8 0 0.5 0-0.3 0-0.7 0-1 0-0.3 0-0.1 0 0.5m2.5 3.1c-1.2 0.3-1.8 1.6-1.3 2.7 0.6 1.3 2.2 1.6 3.2 0.6 0.8-0.8 0.8-1.9 0.1-2.8-0.5-0.5-1.3-0.7-2-0.5m6 0c-1.2 0.3-1.8 1.6-1.3 2.7 0.6 1.3 2.2 1.6 3.2 0.6 0.8-0.8 0.8-1.9 0.1-2.8-0.5-0.5-1.3-0.7-2-0.5m6 0c-1.2 0.3-1.8 1.6-1.3 2.7 0.6 1.3 2.2 1.6 3.2 0.6 0.8-0.8 0.8-1.9 0.1-2.8-0.5-0.5-1.3-0.7-2-0.5m4.5 2.9l0 1 2 0 2 0 0-1 0-1-2 0-2 0 0 1m-19 4l0 1 12 0 12 0 0-1 0.1-1-12.1 0-12 0 0 1m0 0c0 0.6 0 0.8 0 0.5 0-0.3 0-0.7 0-1 0-0.3 0-0.1 0 0.5" stroke="none" fill="black" fill-rule="evenodd"></path><path fill-opacity="0.478" d="M0 7l0 1 12 0 12 0 0-1 0.1-1-12.1 0-12 0 0 1m0 0c0 0.6 0 0.8 0 0.5 0-0.3 0-0.7 0-1 0-0.3 0-0.1 0 0.5m2.6 3.1c-0.6 0.1-1.1 0.5-1.4 1-0.7 1.5 0.5 3.1 2.1 2.9 1.6-0.3 2.2-2.2 1.1-3.4-0.5-0.5-1.1-0.7-1.8-0.5m6 0c-0.6 0.1-1.1 0.5-1.4 1-0.7 1.5 0.5 3.1 2.1 2.9 1.6-0.3 2.2-2.2 1.1-3.4-0.5-0.5-1.1-0.7-1.8-0.5m6 0c-0.6 0.1-1.1 0.5-1.4 1-0.7 1.5 0.5 3.1 2.1 2.9 1.6-0.3 2.2-2.2 1.1-3.4-0.5-0.5-1.1-0.7-1.8-0.5m4.4 2.9l0 1 2 0 2 0 0-1 0-1-2 0-2 0 0 1m-19 4l0 1 12 0 12 0 0-1 0.1-1-12.1 0-12 0 0 1m0 0c0 0.6 0 0.8 0 0.5 0-0.3 0-0.7 0-1 0-0.3 0-0.1 0 0.5" stroke="none" fill="black" fill-rule="evenodd"></path><path fill-opacity="0.967" d="M0 7l0 1 12 0 12 0 0-1 0.1-1-12.1 0-12 0 0 1m0 0c0 0.6 0 0.8 0 0.5 0-0.3 0-0.7 0-1 0-0.3 0-0.1 0 0.5m2.7 3.1c-1.1 0.1-1.8 1.2-1.6 2.2 0.2 1.6 2.1 2.2 3.3 1.1 0.6-0.6 0.7-1.5 0.4-2.3-0.4-0.8-1.3-1.2-2.1-1m6 0c-1.1 0.1-1.8 1.2-1.6 2.2 0.2 1.6 2.1 2.2 3.3 1.1 0.6-0.6 0.7-1.5 0.4-2.3-0.4-0.8-1.3-1.2-2.1-1m6 0c-1.1 0.1-1.8 1.2-1.6 2.2 0.2 1.6 2.1 2.2 3.3 1.1 0.6-0.6 0.7-1.5 0.4-2.3-0.4-0.8-1.3-1.2-2.1-1m4.3 2.9l0 1 2 0 2 0 0-1 0-1-2 0-2 0 0 1m-19 4l0 1 12 0 12 0 0-1 0.1-1-12.1 0-12 0 0 1m0 0c0 0.6 0 0.8 0 0.5 0-0.3 0-0.7 0-1 0-0.3 0-0.1 0 0.5" stroke="none" fill="black" fill-rule="evenodd"></path></svg>