<?xml version="1.0"?><svg xmlns="http://www.w3.org/2000/svg" width="24" height="24" viewBox="0 0 24 24" version="1.1"><rect x="0" y="0" width="24" height="24" fill="#00000000"></rect><path fill-opacity="0.498" d="M5 10l0 5 2 0 2 0 0 2 0 2 5 0 5 0 0-5 0-5-2 0-2 0 0-2 0-2-5 0-5 0 0 5m2 0l0 3 1 0 1 0 0-2 0-2 2 0 2 0 0-1 0-1-3 0-3 0 0 3m8 3l0 2-2 0-2 0 0 1 0 1 3 0 3 0 0-3 0-3-1 0-1 0 0 2" stroke="none" fill="black" fill-rule="evenodd"></path><path fill-opacity="1.000" d="M9 14l0 5 5 0 5 0 0-5 0-5-5 0-5 0 0 5m6-1l0 2-2 0-2 0 0 1 0 1 3 0 3 0 0-3 0-3-1 0-1 0 0 2" stroke="none" fill="black" fill-rule="evenodd"></path></svg>