<?xml version="1.0"?><svg xmlns="http://www.w3.org/2000/svg" width="24" height="24" viewBox="0 0 24 24" version="1.1"><rect x="0" y="0" width="24" height="24" fill="#00000000"></rect><path fill-opacity="0.349" d="M9.7 12l0 8 2 0 2 0 0-8 0-8-2 0-2 0 0 8m11.1-7.9c-1.2 0.2-2.4 0.8-3.3 1.7-1.2 1.1-1.8 2.5-1.8 4.2 0 0.8 0.1 1.3 0.3 2 0.6 1.5 1.8 2.8 3.2 3.4 1.4 0.7 2.9 0.8 4.3 0.3l0.5-0.2 0-5.5 0-5.5-0.5-0.2c-0.9-0.3-1.8-0.4-2.7-0.2" stroke="none" fill="black" fill-rule="evenodd"></path><path fill-opacity="0.012" d="M9.7 12l0 8 2 0 2 0 0-8 0-8-2 0-2 0 0 8m11.5-8c-0.9 0.1-1.4 0.3-2.2 0.6-1.8 1-3 2.7-3.3 4.9-0.2 2.5 1.3 5.1 3.7 6 1.5 0.6 2.9 0.6 4.3 0.1l0.3-0.1 0-5.5 0-5.5-0.5-0.2c-0.2-0.1-0.6-0.2-0.7-0.2-0.4-0.1-1.3-0.1-1.6-0.1" stroke="none" fill="black" fill-rule="evenodd"></path><path fill-opacity="0.165" d="M9.7 12l0 8 2 0 2 0 0-8 0-8-2 0-2 0 0 8m11.4-7.9c-0.8 0-1.5 0.2-2.2 0.7-2.7 1.4-3.9 4.7-2.7 7.5 0.3 0.7 0.5 1.1 1 1.7 1.3 1.4 3.2 2.1 5 1.9 0.6 0 0.8 0 1.4-0.2l0.4-0.2 0-5.5 0-5.5-0.3-0.1c-0.5-0.2-0.9-0.3-1.5-0.3-0.3-0.1-0.6-0.1-0.6-0.1 0 0-0.3 0-0.5 0.1" stroke="none" fill="black" fill-rule="evenodd"></path><path fill-opacity="0.116" d="M9.7 12l0 8 2 0 2 0 0-8 0-8-2 0-2 0 0 8m11.5-7.9c-1.1 0-2.3 0.5-3.1 1.2-0.4 0.3-1.1 1-1.4 1.4-0.4 0.7-0.8 1.6-0.9 2.4-0.1 0.4-0.1 1.4 0 1.8 0.2 1.2 0.7 2.3 1.6 3.2 0.8 0.9 1.7 1.4 2.9 1.7 1.1 0.3 2.6 0.2 3.5-0.2l0.2-0.1 0-5.5 0-5.5-0.4-0.2c-0.7-0.2-1.5-0.3-2.4-0.2" stroke="none" fill="black" fill-rule="evenodd"></path></svg>