<?xml version="1.0"?><svg xmlns="http://www.w3.org/2000/svg" width="24" height="24" viewBox="0 0 24 24" version="1.1"><rect x="0" y="0" width="24" height="24" fill="#00000000"></rect><path fill-opacity="0.447" d="M18.1 3.3c-0.2 0-0.3 0.1-0.8 0.5l-0.5 0.5-0.2-0.1c-0.5-0.2-1.2-0.2-1.8-0.1-0.9 0.3-0.6 0-6.5 6l-5.5 5.4 2.8 2.9 2.9 2.8 5.3-5.4c5.7-5.6 5.8-5.7 6-6.4 0.2-0.6 0.2-1.5 0-2l-0.1-0.2 0.5-0.6c0.4-0.4 0.5-0.5 0.5-0.7 0.1-0.3 0.1-0.4 0-0.5 0-0.2-0.1-0.4-0.8-1.1-1.1-1.1-1.3-1.2-1.8-1m-2.9 2.8c-0.1 0-0.3 0.2-0.6 0.5l-0.5 0.4 1.4 1.5 1.4 1.4 0.4-0.4c0.6-0.5 0.7-0.9 0.6-1.3-0.1-0.2-0.2-0.3-0.9-1.1-0.5-0.5-0.9-0.9-1-0.9-0.2-0.1-0.5-0.2-0.8-0.1m-6 5.9l-3.6 3.5 1.5 1.4 1.4 1.4 3.5-3.5 3.5-3.5-1.4-1.4c-0.7-0.8-1.4-1.4-1.4-1.4 0 0-1.6 1.6-3.5 3.5m-7.1 4.3c-0.1 0.1-2.1 7.7-2.1 7.7 0 0 7.6-2 7.7-2.1 0 0-1.2-1.3-2.8-2.8-1.5-1.6-2.8-2.8-2.8-2.8" stroke="none" fill="black" fill-rule="evenodd"></path><path fill-opacity="0.312" d="M17.9 3.3c-0.1 0.1-0.4 0.3-0.6 0.6l-0.5 0.4-0.3-0.1c-0.9-0.3-1.8-0.2-2.6 0.3-0.2 0.2-2.1 2-5.7 5.6l-5.4 5.4 2.8 2.8c1.6 1.6 2.8 2.9 2.9 2.9 0 0 2.5-2.5 5.5-5.5l5.4-5.4 0.2-0.4c0.4-0.8 0.4-1.6 0.2-2.4l-0.1-0.3 0.4-0.5c0.3-0.2 0.5-0.5 0.6-0.6 0.1-0.3 0.1-0.6 0-0.9-0.2-0.3-1.7-1.8-1.9-1.9-0.3-0.1-0.7-0.1-0.9 0m-2.7 2.8c-0.1 0.1-0.4 0.2-0.6 0.5l-0.5 0.5 1.4 1.4 1.4 1.4 0.4-0.4c0.5-0.4 0.6-0.6 0.6-0.9 0.1-0.4 0-0.5-0.9-1.5-1-1-1.3-1.2-1.8-1m-6.1 5.9l-3.5 3.6 1.5 1.3 1.4 1.4 3.5-3.5 3.5-3.5-1.4-1.4c-0.7-0.8-1.4-1.4-1.4-1.4 0 0-1.6 1.6-3.6 3.5m-7 4.4c-0.2 0.5-2.1 7.6-2.1 7.6 0 0 7.6-2 7.7-2.1 0 0-1-1.1-2.8-2.8l-2.8-2.9 0 0.2" stroke="none" fill="black" fill-rule="evenodd"></path><path fill-opacity="0.175" d="M17.9 3.3c0 0.1-0.3 0.3-0.6 0.6l-0.5 0.4-0.3-0.1c-1-0.3-2-0.1-2.9 0.5-0.3 0.3-10.7 10.8-10.7 10.8 0 0.1 1.2 1.3 2.7 2.9l2.8 2.8 4.1-4c6.4-6.4 6.8-6.8 7-7.2 0.3-0.5 0.4-0.9 0.4-1.5 0-0.5 0-0.6-0.1-0.9l-0.1-0.4 0.4-0.5c0.3-0.3 0.5-0.6 0.6-0.7 0.1-0.2 0.1-0.6 0-0.8-0.1-0.2-1.7-1.8-1.9-1.9-0.2-0.1-0.6-0.1-0.9 0m-2.8 2.8c-0.1 0.1-0.4 0.3-0.6 0.6l-0.4 0.4 1.4 1.4 1.4 1.4 0.5-0.4c0.6-0.6 0.7-1 0.4-1.4-0.1-0.3-1.4-1.6-1.7-1.9-0.3-0.2-0.7-0.2-1-0.1m-5.9 5.9l-3.6 3.6 1.4 1.4 1.5 1.4 3.5-3.6 3.6-3.5-1.5-1.4-1.4-1.4-3.5 3.5m-7.1 4.4c-0.1 0.2-0.6 1.9-1.1 3.9-0.6 2-1 3.7-1 3.7 0 0 7.6-2.1 7.7-2.1 0 0-1.3-1.3-2.8-2.9l-2.8-2.8 0 0.2" stroke="none" fill="black" fill-rule="evenodd"></path><path fill-opacity="0.975" d="M18 3.3c-0.1 0-0.3 0.2-0.7 0.6l-0.5 0.4-0.2 0c-0.2-0.1-0.5-0.2-0.7-0.2-0.4-0.1-0.5-0.1-0.9 0-0.2 0.1-0.6 0.2-0.8 0.3-0.4 0.2-0.5 0.3-5.9 5.7l-5.5 5.4 2.8 2.9 2.9 2.8 5.4-5.5c5.4-5.4 5.5-5.5 5.7-5.9 0.3-0.5 0.3-0.8 0.3-1.4 0-0.4 0-0.6-0.1-0.9l-0.1-0.3 0.4-0.5c0.3-0.3 0.5-0.6 0.6-0.7 0.1-0.2 0.1-0.5 0-0.7-0.1-0.2-1.7-1.8-1.9-2-0.2-0.1-0.5-0.1-0.8 0m-2.9 2.8c-0.1 0.1-0.4 0.3-0.6 0.6l-0.4 0.4 1.4 1.4 1.4 1.4 0.5-0.4c0.2-0.3 0.4-0.6 0.5-0.7 0.1-0.2 0.1-0.5 0-0.7-0.2-0.3-1.7-1.8-1.9-2-0.3-0.1-0.6-0.1-0.9 0m-5.9 5.9l-3.6 3.6 1.4 1.4 1.5 1.4 3.5-3.6 3.6-3.5-1.5-1.4-1.4-1.4-3.5 3.5m-7.1 4.4c-0.1 0.2-2.1 7.6-2.1 7.6 0 0 7.5-2 7.6-2.1 0.1 0-0.4-0.6-2.7-2.8-2.4-2.4-2.8-2.8-2.8-2.7" stroke="none" fill="black" fill-rule="evenodd"></path></svg>