<?xml version="1.0"?><svg xmlns="http://www.w3.org/2000/svg" width="24" height="24" viewBox="0 0 24 24" version="1.1"><rect x="0" y="0" width="24" height="24" fill="#00000000"></rect><path fill-opacity="0.424" d="M5 12l0 7 1.1 0.6c0.6 0.3 2.2 1.2 3.5 2 1.3 0.8 2.4 1.4 2.4 1.4 0 0 1.2-0.6 2.5-1.4 1.4-0.8 3-1.7 3.5-2l1-0.6 0-7 0-7-1.2 0.6c-3.8 2.3-5.7 3.4-5.8 3.4 0 0-1.5-0.9-5.4-3.1-0.7-0.5-1.4-0.9-1.5-0.9l-0.1-0.1 0 7.1m2 1.1l0 5 2.5 1.4 2.5 1.5 0.2-0.1c0.1 0 1.2-0.7 2.5-1.4l2.3-1.4 0-5 0-5-0.2 0.2c-1.8 1-4.7 2.7-4.7 2.7-0.1 0-1.2-0.6-2.5-1.4-1.4-0.8-2.5-1.4-2.5-1.4-0.1-0.1-0.1 0.7-0.1 4.9" stroke="none" fill="black" fill-rule="evenodd"></path><path fill-opacity="0.244" d="M5 12l0 7 1 0.5c0.5 0.3 0.9 0.6 1 0.6 0 0 1.1 0.6 2.4 1.4 1.3 0.8 2.5 1.4 2.5 1.4 0.1 0.1 0.4 0 2.5-1.3 1.3-0.7 2.4-1.4 2.5-1.4 0.2-0.1 0.7-0.4 1.2-0.7l0.9-0.5 0-7c0-3.9 0-7 0-7 0 0-0.5 0.3-1 0.6-6 3.4-5.9 3.4-6.1 3.3-0.1 0-1.7-1-5.8-3.3-0.6-0.4-1-0.6-1.1-0.6 0 0 0 3.1 0 7m2 1.1l0 5 1.4 0.8c0.8 0.4 1.9 1.1 2.5 1.5l1.1 0.6 2.5-1.4 2.5-1.5 0-5c0-2.7 0-4.9 0-4.9 0 0-1.1 0.6-2.5 1.4l-2.5 1.4-1-0.6c-0.6-0.4-1.8-1-2.6-1.5l-1.4-0.8 0 5" stroke="none" fill="black" fill-rule="evenodd"></path><path fill-opacity="0.676" d="M5 12l0 7 1 0.5c0.6 0.4 2.1 1.3 3.5 2 1.4 0.8 2.5 1.5 2.5 1.5 0.1 0 1.2-0.7 2.6-1.5 1.4-0.8 2.9-1.7 3.4-2l1-0.5 0-7c0-3.9 0-7 0-7 0 0-0.8 0.4-1.7 1-2.5 1.4-5.2 3-5.2 3-0.1 0-5.4-3-6.9-4l-0.2-0.1 0 7.1m2 1.1l0 5 2.5 1.5c1.3 0.7 2.5 1.4 2.5 1.4 0 0 1.2-0.6 2.5-1.4l2.5-1.5 0-5c0-2.7 0-4.9 0-4.9 0 0-1.1 0.6-2.5 1.4-1.3 0.7-2.4 1.4-2.5 1.4 0 0-3.9-2.2-5-2.9 0 0 0 2.3 0 5" stroke="none" fill="black" fill-rule="evenodd"></path><path fill-opacity="0.944" d="M5 11.9l0 7 1 0.6c0.5 0.3 1.5 0.9 2.3 1.3 0.7 0.4 1.8 1.1 2.5 1.5l1.2 0.7 2.5-1.5c1.4-0.7 3-1.6 3.5-2l1-0.5 0-7 0-7-0.1 0.1c-0.1 0-0.6 0.3-1.1 0.6-4.7 2.7-5.8 3.3-5.8 3.3-0.1 0-1-0.6-2.2-1.3-1.2-0.7-2.4-1.4-2.7-1.6-0.4-0.1-1-0.5-1.4-0.7l-0.7-0.4 0 6.9m2 1.2l0 5 1 0.6c0.6 0.4 1.7 1 2.6 1.5l1.4 0.8 2.5-1.4 2.5-1.4 0-5c0-4.3 0-5.1-0.1-5 0 0-1.1 0.6-2.4 1.4-1.3 0.7-2.4 1.4-2.4 1.4-0.1 0-1.2-0.7-2.6-1.4-1.3-0.8-2.4-1.5-2.5-1.5 0 0 0 2.3 0 5" stroke="none" fill="black" fill-rule="evenodd"></path></svg>