<?xml version="1.0"?><svg xmlns="http://www.w3.org/2000/svg" width="24" height="24" viewBox="0 0 24 24" version="1.1"><rect x="0" y="0" width="24" height="24" fill="#00000000"></rect><path fill-opacity="0.298" d="M5.3 6c0 0 0.2 0.5 0.5 1 1.9 3.3 2.9 5 2.9 5 0 0-3 5.3-3.4 5.8l-0.1 0.2 7.1 0 7 0 0.6-1.1c0.4-0.6 1.2-2 1.7-3 0.6-1 1.1-1.9 1.1-1.9 0 0-0.5-0.9-1.1-1.9-0.6-1-1.1-2-1.2-2.2-0.1-0.1-0.4-0.6-0.6-1.1l-0.5-0.8-7 0c-3.9 0-7 0-7 0m4.3 4c0.6 1.1 1.1 2 1.1 2 0 0-0.5 0.9-1.1 1.9-0.5 1-1.1 1.9-1.1 2l-0.1 0.1 5 0 5 0 1.2-2c0.6-1 1.1-1.9 1.1-2 0 0-0.5-0.9-1.2-2l-1.1-2-5 0-5 0 1.2 2" stroke="none" fill="black" fill-rule="evenodd"></path><path fill-opacity="0.514" d="M5.3 6.1c0 0.1 0.3 0.5 0.6 1 1.6 2.9 2.8 4.8 2.8 4.9 0 0-0.5 1-1.2 2.1-0.7 1.2-1.4 2.5-1.7 3l-0.5 0.9 7 0 7 0 0.6-1c0.3-0.6 1.1-1.9 1.7-3 0.6-1.1 1.1-2 1.1-2 0-0.1-0.6-1-1.2-2.1-0.6-1.1-1.4-2.4-1.7-2.9l-0.5-1-7 0-7.1 0 0.1 0.1m3.2 2.1c0.2 0.3 2.2 3.7 2.2 3.8 0 0-0.5 0.9-1.1 2-0.6 1.1-1.1 2-1.1 2 0 0 2.2 0 4.9 0l5 0 1.2-2c0.6-1.1 1.1-2 1.1-2 0 0-0.5-0.9-1.1-2l-1.2-2-5 0-5 0 0.1 0.2" stroke="none" fill="black" fill-rule="evenodd"></path><path fill-opacity="0.368" d="M5.3 6c0 0.1 0.2 0.5 0.6 1.1 0.3 0.5 1 1.8 1.7 2.9l1.1 2-1.1 2c-0.6 1-1.4 2.4-1.7 2.9-0.3 0.5-0.6 1-0.6 1 0 0.1 1.1 0.1 7 0.1l7 0 0.6-1.1c0.4-0.7 1.2-2 1.7-3 0.6-1 1.1-1.9 1.1-1.9 0 0-0.5-0.9-1.2-2-0.6-1.1-1.4-2.5-1.7-3l-0.5-1-7 0c-3.9 0-7 0-7 0m3.1 2c0 0.1 0.5 1 1.2 2 0.6 1.1 1.1 2 1.1 2 0 0-0.5 0.9-1.1 1.9-0.6 1.1-1.1 2-1.1 2-0.1 0.1 0.6 0.1 4.9 0.1l5 0 1.2-2 1.1-2-1.1-2-1.2-2-5 0c-2.7 0-5 0-5 0" stroke="none" fill="black" fill-rule="evenodd"></path><path fill-opacity="0.982" d="M5.3 6.2c0.1 0.1 0.3 0.5 0.6 0.9 0.2 0.3 0.9 1.6 1.6 2.8 0.7 1.1 1.2 2.1 1.2 2.1 0 0.1-1 1.8-2.6 4.6-0.4 0.7-0.8 1.4-0.8 1.4 0 0 3.1 0 7 0l7 0 1.2-2.2c0.7-1.2 1.5-2.6 1.8-3l0.4-0.8-1.1-1.9c-0.6-1-1.1-1.9-1.2-2.1-0.1-0.2-0.4-0.7-0.7-1.1l-0.5-0.9-7 0-7 0 0.1 0.2m3.1 1.8c0 0 0.5 0.9 1.2 2l1.1 2-0.4 0.8c-0.3 0.4-0.8 1.3-1.2 2l-0.7 1.2 5 0 5.1 0 1.1-2c0.6-1 1.1-1.9 1.1-2 0 0-0.5-0.9-1.1-2l-1.2-2-5 0c-2.7 0-5 0-5 0" stroke="none" fill="black" fill-rule="evenodd"></path></svg>