<?xml version="1.0"?><svg xmlns="http://www.w3.org/2000/svg" width="24" height="24" viewBox="0 0 24 24" version="1.1"><rect x="0" y="0" width="24" height="24" fill="#00000000"></rect><path fill-opacity="0.424" d="M10.3 6c-0.9 0.5-2.5 1.4-3.5 2l-1.8 1 0 7 0 7.1 0.1-0.1c0.1 0 0.8-0.4 1.5-0.9 3.9-2.2 5.4-3.1 5.4-3.1 0.1 0 2 1.1 5.8 3.4l1.2 0.6 0-7 0-7-1-0.6c-0.5-0.3-2.1-1.2-3.5-2-1.3-0.8-2.5-1.4-2.5-1.4 0 0-0.8 0.4-1.7 1m-0.8 2.5l-2.5 1.4 0 5c0 4.2 0 5 0.1 4.9 0 0 1.1-0.6 2.5-1.4 1.3-0.8 2.4-1.4 2.5-1.4 0 0 2.9 1.7 4.7 2.7l0.2 0.2 0-5 0-5-2.3-1.4c-1.3-0.7-2.4-1.4-2.5-1.4l-0.2-0.1-2.5 1.5" stroke="none" fill="black" fill-rule="evenodd"></path><path fill-opacity="0.244" d="M9.7 6.4c-1.3 0.7-2.5 1.4-2.6 1.5-0.8 0.4-2.1 1.1-2.1 1.2 0 0 0 3.2 0 7l0 6.9 1-0.5c2.7-1.6 5.8-3.4 5.9-3.4 0.2-0.1 0.1-0.1 6.1 3.3 0.5 0.3 1 0.6 1 0.6 0 0 0-3.1 0-7l0-7-0.9-0.5c-0.5-0.3-1-0.6-1.2-0.7-0.1 0-1.2-0.7-2.5-1.4-1.3-0.8-2.4-1.4-2.4-1.4 0 0-1 0.6-2.3 1.4m-0.1 2c-1.4 0.8-2.5 1.5-2.6 1.5 0 0 0 2.3 0 5l0 5 1.6-0.9c0.8-0.5 2-1.2 2.5-1.5l0.9-0.5 2.5 1.4c1.4 0.8 2.5 1.5 2.5 1.5 0 0 0-2.3 0-5l0-5-2.5-1.5c-1.3-0.7-2.4-1.4-2.4-1.4-0.1 0-1.2 0.6-2.5 1.4" stroke="none" fill="black" fill-rule="evenodd"></path><path fill-opacity="0.676" d="M9.6 6.4c-1.4 0.8-2.9 1.7-3.5 2-0.6 0.4-1.1 0.6-1.1 0.7 0 0 0 3.2 0 7l0 6.9 1-0.5c4.1-2.4 6-3.5 6.1-3.5 0 0 2.7 1.6 5.2 3 0.9 0.6 1.7 1 1.7 1 0 0 0-3.1 0-7l0-7-1-0.5c-0.5-0.3-2-1.2-3.3-2-1.4-0.8-2.5-1.4-2.6-1.4-0.1-0.1-0.4 0.1-2.5 1.3m-0.1 2l-2.5 1.5 0 5c0 2.7 0 5 0 5 1.1-0.7 5-2.9 5-2.9 0.1 0 1.2 0.7 2.5 1.4 1.4 0.8 2.5 1.5 2.5 1.5 0 0 0-2.3 0-5l0-5-2.5-1.5c-1.3-0.8-2.5-1.4-2.5-1.4 0 0-1.1 0.7-2.5 1.4" stroke="none" fill="black" fill-rule="evenodd"></path><path fill-opacity="0.944" d="M9.5 6.5c-1.3 0.7-2.9 1.7-3.5 2l-1 0.6 0 7 0 7 0.1-0.1c0.2-0.1 2.7-1.6 4.9-2.8 1-0.7 1.9-1.2 2-1.2 0 0 1.1 0.6 5.8 3.3 0.5 0.3 1 0.6 1.1 0.6l0.1 0.1 0-7 0-7-1-0.6c-1-0.5-5.5-3.1-5.8-3.3l-0.2-0.1-2.5 1.5m2.4 0.6c-0.1 0-1.2 0.7-2.5 1.4l-2.4 1.4 0 5c0 2.7 0 5 0 5 0.1 0 1.2-0.7 2.5-1.5 1.4-0.7 2.5-1.4 2.6-1.4 0 0 1.1 0.7 2.4 1.4 1.3 0.8 2.4 1.4 2.4 1.4 0.1 0.1 0.1-0.7 0.1-5l0-5-1.6-0.9c-0.8-0.5-1.9-1.1-2.5-1.4l-0.9-0.5-0.1 0.1" stroke="none" fill="black" fill-rule="evenodd"></path></svg>