<?xml version="1.0"?><svg xmlns="http://www.w3.org/2000/svg" width="24" height="24" viewBox="0 0 24 24" version="1.1"><rect x="0" y="0" width="24" height="24" fill="#00000000"></rect><path fill-opacity="0.400" d="M8.3 6.8c-0.3 0.5-0.6 1-0.7 1.1-0.1 0.2-0.6 1.2-1.2 2.2-0.6 1-1.1 1.9-1.1 1.9 0 0 0.5 0.9 1.1 1.9 0.6 1.1 1.3 2.4 1.7 3l0.6 1.1 7 0 7.1 0-0.1-0.2c-0.1-0.1-0.3-0.5-0.6-0.9-0.3-0.5-1-1.7-1.6-2.8-0.7-1.2-1.2-2.1-1.2-2.1 0 0 0.9-1.6 2.9-5 0.3-0.5 0.6-1 0.6-1 0 0-3.2 0-7.1 0l-7 0-0.4 0.8m0.2 3.2c-0.7 1.1-1.2 2-1.2 2 0 0.1 0.5 1 1.2 2l1.1 2 5 0 5 0-0.1-0.1c0-0.1-0.6-1-1.1-2-0.6-1-1.1-1.9-1.1-1.9 0 0 0.5-0.9 1.1-2l1.2-2-5 0-5 0-1.1 2" stroke="none" fill="black" fill-rule="evenodd"></path><path fill-opacity="0.431" d="M8.7 6.1c-0.1 0.1-0.4 0.7-0.9 1.5-0.4 0.8-1.1 2-1.6 2.8-0.5 0.8-0.9 1.5-0.9 1.6 0 0 0.5 0.9 1.1 2 0.6 1.1 1.4 2.4 1.7 3l0.6 1 7 0 7.1 0-0.1-0.1c-0.1-0.2-1.5-2.5-2.5-4.4-0.8-1.2-0.9-1.5-0.9-1.6 0.1 0 0.6-1 1.3-2.1 1.9-3.3 2-3.6 2.1-3.7l0.1-0.1-7 0-7 0-0.1 0.1m0.6 2.4c-1.5 2.6-2 3.5-2 3.6 0.1 0 0.6 0.9 1.2 2l1.1 1.9 5 0c2.7 0 5 0 5 0 0 0-0.6-0.9-1.2-2-0.6-1.1-1.1-2-1.1-2 0-0.1 2-3.5 2.2-3.8l0.1-0.2-5 0-5 0-0.3 0.5" stroke="none" fill="black" fill-rule="evenodd"></path><path fill-opacity="0.207" d="M8.5 6.5c-0.2 0.2-0.5 0.8-0.7 1.2-0.3 0.4-0.9 1.6-1.5 2.5-1 1.8-1 1.8-0.9 1.9 0.4 0.8 2.3 4.1 2.7 4.9l0.6 1 7 0c5.9 0 7 0 7-0.1 0 0-0.3-0.4-0.6-1-0.3-0.5-1-1.8-1.7-2.9l-1.1-2 1.1-2c0.7-1.1 1.4-2.4 1.7-2.9 0.4-0.6 0.6-1 0.6-1.1 0 0-3.1 0-6.9 0l-7 0-0.3 0.5m1 1.7c-0.1 0.1-0.6 1-1.2 2l-1 1.8 1.1 2 1.2 2 5 0c4.2 0 5 0 4.9-0.1 0 0-0.5-0.9-1.1-1.9-0.6-1.1-1.1-2-1.1-2 0 0 0.5-0.9 1.1-2 0.7-1 1.2-1.9 1.2-2 0 0-2.2 0-5 0l-5 0-0.1 0.2" stroke="none" fill="black" fill-rule="evenodd"></path><path fill-opacity="1.000" d="M8.3 6.9c-0.3 0.4-0.6 0.9-0.7 1.1-0.1 0.2-0.6 1.1-1.2 2.1l-1.1 1.9 0.4 0.8c0.3 0.4 1.1 1.8 1.8 3l1.2 2.2 7 0c3.9 0 7 0 7 0 0 0-0.1-0.2-2.2-3.9-0.7-1.1-1.2-2-1.2-2.1 0 0 0.5-1 1.2-2.1 0.7-1.2 1.4-2.5 1.6-2.8 0.3-0.4 0.5-0.8 0.6-0.9l0.1-0.2-7 0-7 0-0.5 0.9m0.1 3.1c-0.6 1.1-1.1 2-1.1 2 0 0.1 0.5 1 1.1 2l1.2 2 5 0 5 0-0.7-1.2c-0.4-0.7-0.9-1.6-1.2-2l-0.4-0.8 1.1-2c0.7-1.1 1.2-2 1.2-2 0 0-2.3 0-5 0l-5 0-1.2 2" stroke="none" fill="black" fill-rule="evenodd"></path></svg>