<?xml version="1.0"?><svg xmlns="http://www.w3.org/2000/svg" width="24" height="24" viewBox="0 0 24 24" version="1.1"><rect x="0" y="0" width="24" height="24" fill="#00000000"></rect><path fill-opacity="0.376" d="M9 12l0 7 3.5 0 3.5 0 0-2 0-2.1 0.4-0.1c1.7-0.5 3-1.8 3.5-3.6 0.1-0.5 0.1-1.9 0-2.4-0.5-1.8-1.8-3.1-3.6-3.6l-0.5-0.2-3.4 0-3.4 0 0 7m2 0l0 5 1.5 0 1.5 0 0-2 0-2 0.8 0c0.5 0 0.9-0.1 1.1-0.1 0.6-0.2 1.2-0.7 1.6-1.3 0.6-0.9 0.6-2.3 0-3.2-0.4-0.7-1.1-1.2-1.9-1.3-0.3-0.1-0.8-0.1-2.5-0.1l-2.1 0 0 5" stroke="none" fill="black" fill-rule="evenodd"></path><path fill-opacity="0.315" d="M9 12l0 7 3.5 0 3.5 0 0-2 0-2.1 0.2-0.1c1.1-0.2 2.1-0.9 2.8-1.8 1.5-2 1.3-4.8-0.5-6.6-0.6-0.6-1.3-1-2.3-1.3-0.4-0.1-0.5-0.1-3.8-0.1l-3.4 0 0 7m2 0l0 5 1.5 0 1.5 0 0-2 0-2 0.7 0c1.1 0 1.7-0.2 2.4-0.9 0.9-0.9 1.2-2.2 0.6-3.4-0.3-0.6-0.8-1.1-1.3-1.4-0.7-0.3-0.9-0.3-3.3-0.3l-2.1 0 0 5" stroke="none" fill="black" fill-rule="evenodd"></path><path fill-opacity="0.404" d="M9 12l0 7 3.5 0 3.5 0 0-2.1c0-1.6 0-2 0.1-2 1.6-0.5 2.8-1.4 3.4-2.8 0.3-0.7 0.5-1.3 0.5-2.1 0-0.6-0.1-0.8-0.2-1.2-0.4-1.7-1.7-3-3.3-3.5-0.7-0.3-1.1-0.3-4.4-0.3l-3.1 0 0 7m2 0l0 5 1.5 0 1.5 0 0-2 0-2 0.7 0c0.8 0 1.1-0.1 1.6-0.3 1-0.5 1.6-1.4 1.7-2.5 0.1-1.2-0.6-2.3-1.6-2.8-0.6-0.4-0.8-0.4-3.3-0.4l-2.1 0 0 5" stroke="none" fill="black" fill-rule="evenodd"></path><path fill-opacity="0.969" d="M9 12l0 7 3.5 0 3.5 0 0-2.1 0-2 0.4-0.1c1-0.3 2.1-1.1 2.7-2 1-1.5 1.1-3.3 0.4-4.9-0.5-1.2-1.7-2.3-3.1-2.7-0.7-0.2-1.3-0.2-4.4-0.2l-3 0 0 7m2 0l0 5 1.5 0 1.5 0 0-2 0-2 0.8 0c0.7 0 0.9-0.1 1.2-0.1 0.8-0.4 1.6-1.1 1.9-1.9 0.1-0.5 0.1-1.5 0-2-0.4-1-1.2-1.7-2.2-1.9-0.2-0.1-0.9-0.1-2.5-0.1l-2.2 0 0 5" stroke="none" fill="black" fill-rule="evenodd"></path></svg>