<?xml version="1.0"?><svg xmlns="http://www.w3.org/2000/svg" width="24" height="24" viewBox="0 0 24 24" version="1.1"><rect x="0" y="0" width="24" height="24" fill="#00000000"></rect><path fill-opacity="0.325" d="M2 3.1c-0.4 0.1-0.6 0.2-0.9 0.5-0.3 0.3-0.5 0.7-0.6 1.1 0 0.4 0 14.2 0 14.6 0.1 0.6 0.6 1.2 1.2 1.5l0.3 0.2 10 0 10 0 0.4-0.2c0.6-0.3 1-0.9 1.1-1.5 0.1-0.4 0.1-14.2 0-14.6-0.1-0.6-0.5-1.2-1.1-1.5l-0.4-0.2-9.9 0c-7.9 0-10 0-10.1 0.1m0.6 8.9l0 7 1.9 0 2 0 0-3 0-3-0.5 0-0.5 0 0-4 0-4-1.5 0-1.4 0 0 7m6-3l0 4-0.5 0-0.5 0 0 3 0 3 1.9 0 2 0 0-3 0-3-0.5 0-0.5 0 0-4 0-4-1 0-0.9 0 0 4m5 0l0 4-0.5 0-0.5 0 0 3 0 3 1.9 0 2 0 0-3 0-3-0.5 0-0.5 0 0-4 0-4-1 0-0.9 0 0 4m5 0l0 4-0.5 0-0.5 0 0 3 0 3 1.9 0 2 0 0-7 0-7-1.5 0-1.4 0 0 4" stroke="none" fill="black" fill-rule="evenodd"></path><path fill-opacity="0.251" d="M2 3.1c-0.4 0.1-0.6 0.2-0.9 0.5-0.3 0.3-0.5 0.7-0.5 1.1-0.1 0.5-0.1 14.1-0.1 14.5 0.1 0.6 0.5 1.2 1 1.5 0.5 0.3 0 0.3 10.5 0.3 6.3 0 9.7 0 9.9-0.1 0.8-0.1 1.5-0.8 1.6-1.7 0.1-0.4 0.1-14 0-14.5-0.1-0.4-0.3-0.8-0.6-1.1-0.3-0.3-0.5-0.4-0.9-0.5-0.3-0.1-19.7-0.1-20 0m0.6 8.9l0 7 1.9 0 2 0 0-3 0-3-0.5 0-0.5 0 0-4 0-4-1.5 0-1.4 0 0 7m6-3l0 4-0.5 0-0.5 0 0 3 0 3 1.9 0 2 0 0-3 0-3-0.5 0-0.5 0 0-4 0-4-1 0-0.9 0 0 4m5 0l0 4-0.5 0-0.5 0 0 3 0 3 1.9 0 2 0 0-3 0-3-0.5 0-0.5 0 0-4 0-4-1 0-0.9 0 0 4m5 0l0 4-0.5 0-0.5 0 0 3 0 3 1.9 0 2 0 0-7 0-7-1.5 0-1.4 0 0 4" stroke="none" fill="black" fill-rule="evenodd"></path><path fill-opacity="0.651" d="M2.1 3.1c-0.6 0.1-1.1 0.5-1.4 1.1l-0.1 0.3 0 7.5 0 7.5 0.1 0.4c0.3 0.5 0.9 1 1.5 1.1 0.4 0 19.3 0 19.7 0 0.6-0.1 1.1-0.6 1.4-1.1l0.2-0.4 0-7.5 0-7.5-0.2-0.3c-0.2-0.6-0.8-1-1.4-1.1-0.3-0.1-19.5-0.1-19.8 0m0.4 8.9l0 7 2 0 2.1 0 0-3 0-3-0.5 0-0.5 0 0-4 0-4-1.6 0-1.5 0 0 7m6-3l0 4-0.5 0-0.5 0 0 3 0 3 2 0 2.1 0 0-3 0-3-0.5 0-0.5 0 0-4 0-4-1.1 0-1 0 0 4m5 0l0 4-0.5 0-0.5 0 0 3 0 3 2 0 2.1 0 0-3 0-3-0.5 0-0.5 0 0-4 0-4-1.1 0-1 0 0 4m5 0l0 4-0.5 0-0.5 0 0 3 0 3 2 0 2.1 0 0-7 0-7-1.6 0-1.5 0 0 4" stroke="none" fill="black" fill-rule="evenodd"></path><path fill-opacity="0.956" d="M2.2 3.1c-0.7 0.1-1.4 0.6-1.6 1.4 0 0.2 0 1.4 0 7.5 0 6.5 0 7.3 0 7.6 0.2 0.5 0.7 1 1.2 1.3l0.3 0.1 9.9 0 9.9 0 0.3-0.1c0.6-0.3 1-0.8 1.2-1.3 0.1-0.3 0.1-1.1 0.1-7.6 0-8 0-7.6-0.3-8-0.3-0.6-0.8-0.9-1.4-1-0.4 0-19.2 0-19.6 0.1m0.3 8.9l0 7 2 0 2.1 0 0-3 0-3-0.5 0-0.5 0 0-4 0-4-1.6 0-1.5 0 0 7m6-3l0 4-0.5 0-0.5 0 0 3 0 3 2 0 2.1 0 0-3 0-3-0.5 0-0.5 0 0-4 0-4-1.1 0-1 0 0 4m5 0l0 4-0.5 0-0.5 0 0 3 0 3 2 0 2.1 0 0-3 0-3-0.5 0-0.5 0 0-4 0-4-1.1 0-1 0 0 4m5 0l0 4-0.5 0-0.5 0 0 3 0 3 2 0 2.1 0 0-7 0-7-1.6 0-1.5 0 0 4" stroke="none" fill="black" fill-rule="evenodd"></path></svg>