<?xml version="1.0"?><svg xmlns="http://www.w3.org/2000/svg" width="24" height="24" viewBox="0 0 24 24" version="1.1"><rect x="0" y="0" width="24" height="24" fill="#00000000"></rect><path fill-opacity="0.322" d="M11.5 5.4c-0.5 0.1-1.3 0.4-1.7 0.7-0.7 0.3-1.2 0.9-5.4 5l-4.4 4.4 0 4.3 0 4.2 4.2 0 4.3 0 4.4-4.4c2.6-2.6 4.5-4.6 4.7-4.8 0.4-0.6 0.8-1.3 1-2.1 0.1-0.7 0.1-1.8 0-2.4-0.4-2.5-2.3-4.4-4.7-4.9-0.7-0.1-1.7-0.1-2.4 0m0.6 2c-0.4 0-0.9 0.2-1.3 0.4-0.4 0.2-0.6 0.3-2.8 2.6l-2.3 2.3 2.8 2.8 2.8 2.8 2.2-2.2c1.3-1.2 2.4-2.4 2.5-2.5 0.2-0.4 0.4-0.9 0.6-1.3 0-0.3 0.1-0.6 0.1-1 0-0.6-0.1-0.7-0.2-1.1-0.6-2-2.5-3.2-4.4-2.8" stroke="none" fill="black" fill-rule="evenodd"></path><path fill-opacity="0.202" d="M11.7 5.4c-0.9 0.1-1.9 0.6-2.6 1.1-0.2 0.1-2.3 2.2-4.7 4.6l-4.4 4.4 0 4.3 0 4.2 4.2 0 4.3 0 4.5-4.5c4.6-4.7 4.6-4.7 5.1-5.5 0.9-1.8 0.8-4-0.2-5.7-0.9-1.5-2.3-2.6-4.1-2.9-0.5-0.1-1.6-0.1-2.1 0m0.2 2c-0.4 0.1-1 0.3-1.4 0.6-0.3 0.2-1 0.8-2.6 2.5l-2.3 2.2 2.9 2.8 2.8 2.9 2.2-2.3c2.6-2.6 2.7-2.7 3-3.7 0.2-0.4 0.2-0.5 0.2-1.1 0-0.8-0.1-1.1-0.4-1.7-0.8-1.7-2.6-2.6-4.4-2.2" stroke="none" fill="black" fill-rule="evenodd"></path><path fill-opacity="0.746" d="M11.7 5.4c-0.5 0.1-1.2 0.3-1.6 0.5-0.9 0.5-0.9 0.5-5.6 5.2l-4.5 4.4 0 4.3 0 4.2 4.2 0 4.3 0 4.4-4.5c4.7-4.6 4.7-4.7 5.2-5.5 0.6-1.3 0.8-2.9 0.4-4.2-0.6-2.3-2.5-4-4.8-4.4-0.6-0.1-1.5-0.1-2 0m0.3 2c-0.6 0.1-1.3 0.4-1.8 0.8-0.2 0.2-1.3 1.2-2.5 2.4l-2.1 2.1 2.9 2.8 2.8 2.9 2.1-2.1c2.3-2.3 2.6-2.6 2.8-3.1 0.4-0.7 0.5-1.1 0.5-1.9 0-0.6 0-0.8-0.1-1.1-0.5-1.3-1.4-2.3-2.8-2.8-0.4-0.1-1.4-0.1-1.8 0" stroke="none" fill="black" fill-rule="evenodd"></path><path fill-opacity="0.943" d="M11.9 5.4c-0.8 0.1-2.1 0.6-2.8 1.1-0.2 0.1-2.3 2.2-4.7 4.6l-4.4 4.4 0 4.3 0 4.2 4.2 0 4.3 0 4.4-4.4c2.4-2.4 4.5-4.5 4.6-4.7 0.4-0.5 0.8-1.5 1-2 0.6-2.3-0.1-4.6-1.8-6.1-0.7-0.6-1.3-0.9-2.1-1.2-0.9-0.3-1.8-0.4-2.7-0.2m0.6 1.9c-0.8 0.1-1.5 0.3-2.1 0.7-0.2 0.2-1.1 1.1-2.5 2.5l-2.3 2.2 2.9 2.8 2.8 2.9 2.3-2.3c2.3-2.3 2.5-2.6 2.8-3.2 0.3-0.8 0.4-1.7 0.2-2.5-0.2-1.2-1.2-2.4-2.5-2.8-0.5-0.2-1.2-0.4-1.6-0.3" stroke="none" fill="black" fill-rule="evenodd"></path></svg>