<?xml version="1.0"?><svg xmlns="http://www.w3.org/2000/svg" width="24" height="24" viewBox="0 0 24 24" version="1.1"><rect x="0" y="0" width="24" height="24" fill="#00000000"></rect><path fill-opacity="0.333" d="M7.3 0.3c-0.5 0.6-0.9 1.4-1.1 2.3-0.2 0.4-0.2 0.6-0.2 1.4 0 0.9 0.1 1.1 0.3 1.8 0.5 1.6 1.6 2.8 3.1 3.6 0.4 0.2 1.1 0.4 1.4 0.5l0.2 0 0 3.1 0 3-1.6 0c-1.5 0-1.6 0-1.8 0.1-0.8 0.3-0.8 1.5 0 1.8 0.2 0.1 0.4 0.1 4.4 0.1 4 0 4.2 0 4.4-0.1 0.8-0.3 0.8-1.5 0-1.8-0.2-0.1-0.3-0.1-1.8-0.1l-1.6 0 0-3 0-3.1 0.2 0c0.3-0.1 1-0.3 1.4-0.5 1.2-0.6 2.2-1.6 2.8-2.7 0.4-1 0.6-1.6 0.6-2.7 0-0.8 0-1-0.2-1.4-0.2-0.9-0.6-1.7-1.1-2.3l-0.2-0.3-2.1 0c-1.1 0-2 0-1.9 0 0.5 0.1 0.8 0.2 1.1 0.3 1 0.5 1.9 1.5 2.3 2.7 0.1 0.5 0.1 1.5 0 2-0.4 1.4-1.5 2.5-2.9 2.9-0.5 0.1-1.5 0.1-2 0-1.4-0.4-2.5-1.5-2.9-2.9-0.1-0.5-0.1-1.5 0-2 0.4-1.2 1.3-2.2 2.3-2.7 0.3-0.1 0.6-0.2 1.1-0.3 0.1 0-0.8 0-1.9 0l-2.1 0-0.2 0.3m4.1 1.8c-0.4 0.1-0.6 0.3-0.9 0.6-0.4 0.4-0.5 0.8-0.5 1.3 0 1.7 2 2.6 3.3 1.5 0.9-0.8 0.9-2.2 0-3-0.1-0.1-0.3-0.2-0.4-0.3-0.4-0.2-1.1-0.3-1.5-0.1" stroke="none" fill="black" fill-rule="evenodd"></path><path fill-opacity="0.365" d="M7.4 0.2c-1.2 1.4-1.6 3.3-1.3 5.1 0.5 2.2 2.3 4 4.6 4.6l0.3 0 0 3.1 0 3-1.7 0c-1.8 0-1.8 0-2.1 0.4-0.2 0.2-0.2 0.3-0.2 0.6 0 0.3 0 0.4 0.2 0.6 0.1 0.1 0.2 0.2 0.3 0.3l0.3 0.1 4.2 0 4.2 0 0.3-0.1c0.1-0.1 0.2-0.2 0.3-0.3 0.2-0.2 0.2-0.3 0.2-0.6 0-0.3 0-0.4-0.2-0.6-0.3-0.4-0.3-0.4-2.1-0.4l-1.7 0 0-3 0-3.1 0.3 0c0.7-0.2 1.6-0.6 2.2-1 1.8-1.3 2.8-3.6 2.4-5.8-0.2-1.1-0.6-2-1.3-2.9l-0.1-0.2-2 0c-1.9 0-2 0-1.8 0.1 0.7 0.1 1.3 0.4 1.6 0.7 0.4 0.2 0.8 0.7 1 1 1.5 2.3 0.3 5.4-2.4 6.1-0.4 0.1-1.4 0.1-1.8 0-1.6-0.4-2.7-1.6-3-3.2-0.3-1.3 0.2-2.6 1.1-3.5 0.4-0.4 0.5-0.5 0.9-0.7 0.4-0.2 0.7-0.3 1.2-0.4 0.2-0.1 0.1-0.1-1.8-0.1l-2 0-0.1 0.2m4.1 1.9c-0.6 0.1-1.1 0.5-1.3 1.1-0.2 0.3-0.2 0.4-0.2 0.8 0 0.4 0 0.5 0.2 0.8 0.7 1.6 2.9 1.6 3.6 0 0.2-0.3 0.2-0.4 0.2-0.8 0-0.4 0-0.5-0.2-0.8-0.4-0.9-1.4-1.4-2.3-1.1" stroke="none" fill="black" fill-rule="evenodd"></path><path fill-opacity="0.639" d="M7.2 0.4c-1.7 2.3-1.6 5.3 0.3 7.5 0.7 0.9 1.8 1.6 3 1.9l0.5 0.1 0 3.1 0 3-1.6 0-1.7 0-0.2 0.2c-0.3 0.1-0.5 0.5-0.5 0.9 0.1 0.3 0.3 0.6 0.6 0.8l0.2 0.1 4.2 0 4.2 0 0.2-0.1c0.7-0.4 0.8-1.4 0.1-1.7l-0.2-0.2-1.7 0-1.6 0 0-3 0-3.1 0.5-0.1c1.8-0.5 3.3-1.8 4-3.5 0.8-2 0.5-4.2-0.8-6l-0.2-0.3-2 0c-1.1 0-2 0-1.9 0 0.7 0.1 1.4 0.5 1.9 0.9 0.6 0.5 1.1 1.3 1.4 2 0.1 0.6 0.1 1.6 0 2.2-0.4 1.3-1.5 2.3-2.8 2.8-0.3 0.1-0.5 0.1-1.1 0.1-0.6 0-0.8 0-1.1-0.1-1.3-0.5-2.4-1.5-2.8-2.8-0.1-0.6-0.1-1.6 0-2.2 0.3-0.7 0.8-1.5 1.4-2 0.5-0.4 1.2-0.8 1.9-0.9 0.1 0-0.8 0-1.9 0l-2 0-0.3 0.4m4.4 1.7c-0.6 0.1-1.1 0.5-1.4 1-0.7 1.4 0.5 3.1 2.1 2.9 1.6-0.3 2.2-2.2 1.1-3.4-0.5-0.5-1.1-0.7-1.8-0.5" stroke="none" fill="black" fill-rule="evenodd"></path><path fill-opacity="0.949" d="M7.4 0.2c-1 1.1-1.5 2.7-1.3 4.3 0.1 2.1 1.4 3.9 3.3 4.9 0.3 0.1 0.8 0.3 1.4 0.5l0.2 0 0 3.1 0 3-1.5 0c-0.9 0-1.5 0-1.7 0.1-0.9 0.1-1 1.3-0.3 1.8l0.2 0.1 4.3 0 4.3 0 0.2-0.1c0.7-0.5 0.6-1.7-0.3-1.8-0.2-0.1-0.8-0.1-1.7-0.1l-1.5 0 0-3 0-3.1 0.2 0c0.6-0.2 1.1-0.4 1.4-0.5 1.1-0.6 2-1.4 2.6-2.4 1.2-2.1 1-4.8-0.5-6.7l-0.2-0.3-2 0c-1.8 0-1.9 0-1.7 0.1 1.5 0.3 2.6 1.3 3.1 2.8 0.1 0.3 0.1 0.5 0.1 1.1 0 0.7 0 0.8-0.2 1.2-0.3 1.1-1 1.9-2.1 2.4-0.6 0.3-1 0.4-1.7 0.4-0.7 0-1.1-0.1-1.6-0.3-1.2-0.6-1.9-1.4-2.3-2.6-0.1-0.3-0.1-0.5-0.1-1.1 0-0.6 0-0.8 0.1-1.1 0.5-1.5 1.6-2.5 3.1-2.8 0.2-0.1 0.1-0.1-1.7-0.1l-1.9 0-0.2 0.2m4.3 1.9c-0.9 0.1-1.5 0.8-1.6 1.6-0.2 1.1 0.5 2.1 1.6 2.2 1.3 0.2 2.4-0.9 2.2-2.2-0.1-1.1-1.1-1.8-2.2-1.6" stroke="none" fill="black" fill-rule="evenodd"></path></svg>