<?xml version="1.0"?><svg xmlns="http://www.w3.org/2000/svg" width="24" height="24" viewBox="0 0 24 24" version="1.1"><rect x="0" y="0" width="24" height="24" fill="#00000000"></rect><path fill-opacity="0.333" d="M7.6 6.1c-0.8 0.4-0.8 1.5 0 1.8 0.2 0.1 0.5 0.1 1.8 0.1l1.6 0 0 3 0 3.1-0.2 0c-0.6 0.1-1.5 0.5-2.2 0.9-0.4 0.3-1.3 1.2-1.6 1.6-0.7 1.2-1 2.3-1 3.6 0.1 1 0.2 1.6 0.6 2.5 0.2 0.4 0.6 0.9 0.8 1.2l0.1 0.1 2.1 0c1.2 0 1.9 0 1.8-0.1-1.6-0.2-2.9-1.4-3.3-2.9-0.1-0.5-0.1-1.5 0-2 0.3-1.1 1.2-2.2 2.3-2.6 1-0.5 2.2-0.5 3.2 0 1.1 0.4 2 1.4 2.3 2.6 0.1 0.5 0.1 1.5 0 2-0.4 1.5-1.7 2.7-3.3 2.9-0.1 0.1 0.6 0.1 1.8 0.1l2.1 0 0.1-0.1c0.2-0.3 0.6-0.8 0.8-1.2 0.4-0.9 0.5-1.5 0.6-2.5 0-1.3-0.3-2.4-1-3.6-0.3-0.4-1.2-1.3-1.6-1.6-0.7-0.4-1.6-0.8-2.2-0.9l-0.2 0 0-3.1 0-3 1.6 0c1.5 0 1.6 0 1.8-0.1 0.3-0.1 0.4-0.3 0.5-0.5 0.2-0.5 0-1.1-0.5-1.3-0.2-0.1-0.4-0.1-4.4-0.1-4 0-4.2 0-4.4 0.1m3.8 12c-0.4 0.1-0.6 0.3-0.9 0.6-0.4 0.4-0.5 0.8-0.5 1.3 0 1.2 1.1 2.2 2.3 2 1.2-0.2 1.9-1.4 1.6-2.5-0.1-0.5-0.5-1.1-1-1.3-0.4-0.2-1.1-0.3-1.5-0.1" stroke="none" fill="black" fill-rule="evenodd"></path><path fill-opacity="0.394" d="M7.6 6.1c-0.1 0-0.2 0.1-0.3 0.2-0.5 0.5-0.3 1.3 0.2 1.6 0.3 0.1 0.3 0.1 1.9 0.1l1.6 0 0 3 0 3.1-0.3 0c-0.8 0.2-1.7 0.7-2.4 1.2-1.8 1.4-2.6 3.7-2.2 6 0.2 0.8 0.6 1.6 1.1 2.3l0.3 0.4 2 0c1.4 0 2 0 1.8-0.1-1.3-0.2-2.5-1.2-3-2.5-0.5-1.2-0.4-2.4 0.3-3.5 0.2-0.3 0.7-0.9 1.1-1.1 0.2-0.2 0.7-0.5 1.2-0.6 0.4-0.2 0.5-0.2 1.1-0.2 0.6 0 0.7 0 1.1 0.2 0.5 0.1 1 0.4 1.2 0.6 0.6 0.4 1.1 1.1 1.4 1.7 0.8 2-0.2 4.4-2.2 5.2-0.3 0.1-0.5 0.2-1 0.3 0 0 0.8 0 2 0l2 0 0.3-0.4c1.5-2.1 1.6-4.8 0.2-6.9-0.7-1.1-1.7-1.8-2.9-2.3-0.3-0.1-0.6-0.2-0.8-0.3l-0.3 0 0-3.1 0-3 1.6 0c1.6 0 1.6 0 1.9-0.1 0.1-0.1 0.2-0.2 0.3-0.3 0.2-0.2 0.2-0.3 0.2-0.6 0-0.3 0-0.4-0.2-0.6-0.1-0.1-0.2-0.2-0.3-0.3-0.2-0.1-0.2-0.1-4.4-0.1-3.6 0-4.3 0-4.5 0.1m3.9 12c-0.6 0.1-1.1 0.5-1.3 1.1-0.2 0.3-0.2 0.4-0.2 0.8 0 0.4 0 0.5 0.2 0.8 0.7 1.6 2.9 1.6 3.6 0 0.2-0.3 0.2-0.4 0.2-0.8 0-0.4 0-0.5-0.2-0.8-0.4-0.9-1.4-1.4-2.3-1.1" stroke="none" fill="black" fill-rule="evenodd"></path><path fill-opacity="0.622" d="M7.7 6c-0.4 0.2-0.7 0.6-0.7 1.1 0.1 0.3 0.3 0.6 0.6 0.8l0.2 0.1 1.6 0 1.6 0 0 3.1c0 2.5 0 3-0.1 3-0.1 0-1 0.3-1.4 0.4-2.3 1.1-3.7 3.6-3.5 6 0.2 1.2 0.6 2.3 1.3 3.2l0.2 0.3 2 0c1.8 0 1.9 0 1.7-0.1-1.5-0.3-2.6-1.4-3.1-2.8-0.1-0.6-0.1-1.6 0-2.2 0.4-1.3 1.5-2.4 2.8-2.8 0.6-0.1 1.6-0.1 2.2 0 1.3 0.4 2.4 1.5 2.8 2.8 0.1 0.6 0.1 1.6 0 2.2-0.4 1.4-1.6 2.5-3.1 2.8-0.2 0.1-0.1 0.1 1.7 0.1l2 0 0.2-0.3c0.3-0.4 0.6-0.9 0.8-1.4 1.1-2.7 0.2-5.6-2.2-7.3-0.5-0.4-1.5-0.8-2.1-0.9l-0.2 0 0-3.1 0-3 1.6 0 1.6 0 0.2-0.1c0.7-0.4 0.8-1.4 0.1-1.7l-0.2-0.2-4.2 0c-2.3 0-4.3 0-4.4 0m3.9 12.1c-0.6 0.1-1.1 0.5-1.4 1-0.7 1.4 0.5 3.1 2.1 2.9 1.6-0.3 2.2-2.2 1.1-3.4-0.5-0.5-1.1-0.7-1.8-0.5" stroke="none" fill="black" fill-rule="evenodd"></path><path fill-opacity="0.949" d="M7.7 6.1c-0.8 0.2-0.9 1.3-0.2 1.8 0.2 0.1 0.3 0.1 1.9 0.1l1.6 0 0 3 0 3.1-0.4 0.1c-2.1 0.5-3.8 2.2-4.4 4.2-0.4 1.9 0 3.9 1.1 5.3l0.2 0.3 2 0c1.8 0 1.9 0 1.6-0.1-0.4-0.1-1-0.4-1.4-0.6-0.7-0.5-1.3-1.3-1.6-2.2-0.1-0.3-0.1-0.5-0.1-1.1 0-0.6 0-0.8 0.1-1.1 0.6-1.8 2.1-2.9 3.9-2.9 1.8 0 3.3 1.1 3.9 2.9 0.1 0.3 0.1 0.5 0.1 1.1 0 0.7 0 0.8-0.2 1.2-0.3 1.1-1 1.9-2.1 2.4-0.2 0.1-0.6 0.3-0.8 0.3-0.3 0.1-0.2 0.1 1.6 0.1l2 0 0.2-0.3c0.9-1.1 1.4-2.7 1.2-4.2-0.2-2.6-2-4.7-4.5-5.3l-0.4-0.1 0-3.1 0-3 1.6 0c1.6 0 1.7 0 1.9-0.1 0.7-0.5 0.6-1.7-0.3-1.8-0.4-0.1-8.1-0.1-8.5 0m4 12c-0.9 0.1-1.5 0.8-1.6 1.6-0.2 1.1 0.5 2.1 1.6 2.2 1.3 0.2 2.4-0.9 2.2-2.2-0.1-1.1-1.1-1.8-2.2-1.6" stroke="none" fill="black" fill-rule="evenodd"></path></svg>