<?xml version="1.0"?><svg xmlns="http://www.w3.org/2000/svg" width="24" height="24" viewBox="0 0 24 24" version="1.1"><rect x="0" y="0" width="24" height="24" fill="#00000000"></rect><path fill-opacity="0.667" d="M6 8l0 1 6 0 6 0 0-1 0-1-6 0-6 0 0 1m0 4l0 1 6 0 6 0 0-1 0-1-6 0-6 0 0 1m9.2 3.2l-0.7 0.7 1 1 1.1 1.1-1.1 1.1-1 1 0.7 0.7 0.7 0.7 1-1 1.1-1.1 1.1 1.1 1 1 0.7-0.7 0.7-0.7-1-1-1.1-1.1 1.1-1.1 1-1-0.7-0.7-0.7-0.7-1 1-1.1 1.1-1.1-1.1-1-1-0.7 0.7m-9.2 0.8l0 1 4 0 4 0 0-1 0-1-4 0-4 0 0 1" stroke="none" fill="black" fill-rule="evenodd"></path><path fill-opacity="0.046" d="M6 8l0 1 6 0 6 0 0-1 0-1-6 0-6 0 0 1m0 4l0 1 6 0 6 0 0-1 0-1-6 0-6 0 0 1m9.2 3.2c-0.4 0.3-0.7 0.6-0.7 0.7 0 0 0.5 0.5 1 1.1l1.1 1-1.1 1c-0.5 0.6-1 1.1-1 1.1 0 0.1 1.3 1.4 1.4 1.4 0 0 0.5-0.5 1.1-1l1-1.1 1 1.1c0.6 0.5 1.1 1 1.1 1 0.1 0 1.4-1.3 1.4-1.4 0 0-0.5-0.5-1-1.1l-1.1-1 1.1-1c0.5-0.6 1-1.1 1-1.1 0-0.1-1.3-1.4-1.4-1.4 0 0-0.5 0.5-1.1 1l-1 1.1-1-1.1c-0.6-0.5-1.1-1-1.1-1-0.1 0-0.4 0.3-0.7 0.7m-9.2 0.8l0 1 4 0 4 0 0-1 0-1-4 0-4 0 0 1" stroke="none" fill="black" fill-rule="evenodd"></path><path fill-opacity="0.247" d="M6 8l0 1 6 0 6 0 0-1 0-1-6 0-6 0 0 1m0 4l0 1 6 0 6 0 0-1 0-1-6 0-6 0 0 1m9.2 3.2l-0.7 0.7 1 1 1.1 1.1-1.1 1.1-1 1 0.7 0.7 0.7 0.7 1-1 1.1-1.1 1 1.1 1.1 1 0.7-0.7 0.7-0.7-1-1-1.1-1.1 1.1-1.1 1-1-0.7-0.7-0.7-0.7-1 1-1.1 1.1-1-1.1c-0.6-0.5-1.1-1-1.1-1 0 0-0.3 0.3-0.7 0.7m-9.2 0.8l0 1 4 0 4 0 0-1 0-1-4 0-4 0 0 1" stroke="none" fill="black" fill-rule="evenodd"></path><path fill-opacity="1.000" d="M6 8l0 1 6 0 6 0 0-1 0-1-6 0-6 0 0 1m0 4l0 1 6 0 6 0 0-1 0-1-6 0-6 0 0 1m9.2 3.2l-0.7 0.7 1.1 1 1 1.1-1 1.1-1.1 1 0.7 0.7 0.7 0.7 1-1 1.1-1.1 1 1.1 1.1 1 0.7-0.7 0.7-0.7-1.1-1-1-1.1 1-1.1 1.1-1-0.7-0.7-0.7-0.7-1.1 1-1 1.1-1-1.1c-0.6-0.5-1.1-1-1.1-1 0 0-0.3 0.3-0.7 0.7m-9.2 0.8l0 1 4 0 4 0 0-1 0-1-4 0-4 0 0 1" stroke="none" fill="black" fill-rule="evenodd"></path></svg>