<?xml version="1.0"?><svg xmlns="http://www.w3.org/2000/svg" width="24" height="24" viewBox="0 0 24 24" version="1.1"><rect x="0" y="0" width="24" height="24" fill="#00000000"></rect><path fill-opacity="0.310" d="M3.5 12c0 4.2 0 5 0.1 5 0.1-0.1 5.9-5 5.9-5 0 0-5.8-4.9-5.9-5-0.1 0-0.1 0.8-0.1 5m7 0l0 5 1.5 0 1.6 0 0-5 0-5-1.6 0-1.5 0 0 5m-10.5 0l0 2.1 0.3-0.2c0.1-0.1 0.7-0.6 1.2-1 0.6-0.5 1-0.9 1-0.9 0 0-0.4-0.4-1-0.9-0.5-0.4-1.1-0.9-1.2-1l-0.3-0.2 0 2.1" stroke="none" fill="black" fill-rule="evenodd"></path><path fill-opacity="0.267" d="M10.5 12l0 5 1.5 0 1.6 0 0-5 0-5-1.6 0-1.5 0 0 5m-7 0c0 2.9 0 4.9 0 4.9 0.1 0 6-4.8 6-4.9 0-0.1-5.9-4.9-6-4.9 0 0 0 2 0 4.9m-3.5 0l0 2.1 0.9-0.7c1.5-1.3 1.6-1.4 1.6-1.4 0 0-0.1-0.1-1.6-1.4l-0.9-0.7 0 2.1" stroke="none" fill="black" fill-rule="evenodd"></path><path fill-opacity="0.620" d="M10.6 12l0 5 1.4 0 1.5 0 0-5 0-5-1.5 0-1.4 0 0 5m-7 0c0 4.7 0 5 0 4.9 0.6-0.5 5.9-4.9 5.9-4.9 0 0-5.3-4.4-5.9-4.9 0-0.1 0 0.2 0 4.9m-3.6 0c0 1.1 0 2.1 0 2.1 0.1 0 2.5-2.1 2.5-2.1 0 0-2.4-2-2.5-2 0 0 0 0.9 0 2" stroke="none" fill="black" fill-rule="evenodd"></path><path fill-opacity="1.000" d="M10.6 12l0 5 1.4 0 1.5 0 0-5 0-5-1.5 0-1.4 0 0 5m-7 0l0 5 0.2-0.3c0.2-0.1 1.5-1.2 3-2.4 1.4-1.3 2.7-2.3 2.7-2.3 0 0-1.3-1-2.7-2.3-1.5-1.2-2.8-2.3-3-2.4l-0.2-0.3 0 5m-3.6 0c0 2 0 2.1 0.1 2 0.4-0.3 2.4-2 2.4-2 0 0-2-1.7-2.4-2-0.1-0.1-0.1 0-0.1 2" stroke="none" fill="black" fill-rule="evenodd"></path></svg>