<?xml version="1.0"?><svg xmlns="http://www.w3.org/2000/svg" width="24" height="24" viewBox="0 0 24 24" version="1.1"><rect x="0" y="0" width="24" height="24" fill="#00000000"></rect><path fill-opacity="0.310" d="M10.5 12l0 5 1.5 0 1.6 0 0-5 0-5-1.6 0-1.5 0 0 5m7-2.5c-1.6 1.3-2.9 2.5-2.9 2.5 0 0 1.3 1.2 2.9 2.5l3 2.5 0-2.5c0-1.4 0-3.6 0-5l0-2.5-3 2.5" stroke="none" fill="black" fill-rule="evenodd"></path><path fill-opacity="0.273" d="M10.5 12l0 5 1.5 0 1.6 0 0-5 0-5-1.6 0-1.5 0 0 5m7-2.5c-1.6 1.4-2.9 2.5-2.9 2.5 0 0.1 5.8 4.9 5.9 4.9 0 0 0.1-2 0.1-4.9 0-2.9-0.1-4.9-0.1-4.9 0 0-1.4 1.1-3 2.4" stroke="none" fill="black" fill-rule="evenodd"></path><path fill-opacity="0.617" d="M10.6 12l0 5 1.4 0 1.5 0 0-5 0-5-1.5 0-1.4 0 0 5m6.9-2.5c-1.6 1.4-2.9 2.5-2.9 2.5 0 0 1.3 1.1 2.9 2.5l3 2.5 0-2.5c0-1.4 0-3.6 0-5l0-2.5-3 2.5" stroke="none" fill="black" fill-rule="evenodd"></path><path fill-opacity="1.000" d="M10.6 12l0 5 1.4 0 1.5 0 0-5 0-5-1.5 0-1.4 0 0 5m7-2.5c-1.7 1.3-3 2.5-3 2.5 0 0 1.3 1.2 3 2.5l2.9 2.4 0-2.4c0-1.4 0-3.6 0-5l0-2.4-2.9 2.4" stroke="none" fill="black" fill-rule="evenodd"></path></svg>