<?xml version="1.0"?><svg xmlns="http://www.w3.org/2000/svg" width="24" height="24" viewBox="0 0 24 24" version="1.1"><rect x="0" y="0" width="24" height="24" fill="#00000000"></rect><path fill-opacity="0.408" d="M4.2 1.1c-1.2 0.2-2.2 1-2.8 2.1-0.4 0.9-0.4 0.1-0.4 8.8l0 7.7 0.1 0.4c0.4 1.3 1.5 2.3 2.8 2.8l0.4 0.1 7.7 0 7.7 0 0.4-0.1c1.3-0.5 2.4-1.5 2.8-2.8l0.1-0.4 0-7.7c0-7.2 0-7.7-0.1-8-0.2-0.8-0.8-1.6-1.4-2.1-0.4-0.3-0.9-0.6-1.4-0.8l-0.4-0.1-7.6 0c-6.6 0-7.6 0-7.9 0.1m0.4 2c-0.8 0.1-1.4 0.8-1.6 1.6 0 0.2 0 3.1 0 7.5l0 7.2 0.1 0.3c0.3 0.5 0.7 1 1.3 1.2 0.2 0.1 0.6 0.1 7.6 0.1 7 0 7.4 0 7.7-0.1 0.5-0.2 0.9-0.7 1.2-1.2l0.1-0.3 0-7.4 0-7.4-0.1-0.3c-0.2-0.5-0.7-1-1.2-1.2l-0.3-0.1-7.2 0c-4.1 0-7.4 0-7.6 0.1m4 5c-0.3 0.1-0.4 0.3-0.5 0.5-0.1 0.2-0.1 0.6-0.1 3.4 0 3 0 3.2 0.1 3.4 0.1 0.3 0.3 0.4 0.5 0.5 0.5 0.2 1.1 0 1.3-0.5 0.1-0.2 0.1-0.4 0.1-3.4 0-3 0-3.2-0.1-3.4-0.2-0.5-0.8-0.7-1.3-0.5m4.9 1.9c-1.4 1.1-2.5 2-2.5 2 0 0 1.1 0.9 2.5 2l2.5 2 0-2c0-1.1 0-2.9 0-4l0-2-2.5 2" stroke="none" fill="black" fill-rule="evenodd"></path><path fill-opacity="0.338" d="M4.3 1.1c-0.2 0-0.5 0.1-0.7 0.1-1 0.4-1.9 1.3-2.3 2.4-0.3 0.7-0.3 0.5-0.3 8.4 0 8 0 7.7 0.3 8.5 0.4 1.1 1.5 2 2.7 2.4 0.3 0.1 0.8 0.1 8 0.1 7.2 0 7.7 0 8-0.1 1.2-0.4 2.3-1.3 2.7-2.5 0.3-0.7 0.3-0.4 0.3-8.4 0-8 0-7.7-0.3-8.4-0.2-0.7-0.8-1.4-1.4-1.8-0.2-0.2-0.7-0.5-1.2-0.6l-0.4-0.2-7.6 0c-6.3 0-7.6 0-7.8 0.1m0.3 2c-0.6 0.1-1.1 0.5-1.4 1.1l-0.2 0.3 0 7.5 0 7.5 0.2 0.3c0.3 0.6 0.8 1 1.4 1.1 0.4 0.1 14.4 0.1 14.8 0 0.6-0.1 1.1-0.5 1.4-1.1l0.2-0.3 0-7.5 0-7.5-0.2-0.3c-0.3-0.6-0.8-1-1.4-1.1-0.3-0.1-14.5-0.1-14.8 0m4 5c-0.2 0.1-0.5 0.4-0.6 0.6 0 0.1 0 1.3 0 3.4l0 3.2 0.2 0.3c0.4 0.5 1.2 0.5 1.6 0l0.2-0.3 0-3.3 0-3.3-0.2-0.3c-0.1-0.1-0.2-0.2-0.3-0.3-0.2-0.1-0.6-0.1-0.9 0m4.9 1.9c-1.3 1.1-2.4 2-2.4 2 0 0 1.1 0.9 2.4 2l2.5 2 0-4c0-2.2 0-4 0-4 0 0-1.1 0.9-2.5 2" stroke="none" fill="black" fill-rule="evenodd"></path><path fill-opacity="0.420" d="M4.2 1.1c-1.2 0.3-2.2 1-2.7 2.1-0.5 0.9-0.5 0.2-0.5 8.8 0 7.1 0 7.6 0.1 7.9 0.4 1.5 1.4 2.5 2.9 3l0.4 0.1 7.6 0 7.6 0 0.4-0.1c1.1-0.4 2-1.1 2.5-2.1 0.5-0.9 0.5-0.2 0.5-8.8 0-8.6 0-7.9-0.5-8.8-0.2-0.4-0.3-0.6-0.6-0.9-0.5-0.6-1.1-0.9-1.9-1.2l-0.4-0.1-7.5 0c-7.1 0-7.5 0-7.9 0.1m0.3 2c-0.5 0.1-0.9 0.4-1.2 0.9-0.3 0.4-0.3 0-0.3 8 0 8 0 7.6 0.3 8 0.3 0.5 0.7 0.8 1.2 0.9 0.4 0.1 14.6 0.1 15 0 0.7-0.1 1.3-0.7 1.4-1.4 0.1-0.4 0.1-14.7 0-15-0.1-0.7-0.7-1.3-1.4-1.4-0.3-0.1-14.7-0.1-15 0m4.3 4.9c-0.3 0.1-0.5 0.3-0.7 0.6l-0.1 0.2 0 3.3 0 3.2 0.2 0.2c0.1 0.3 0.5 0.5 0.8 0.5 0.3 0 0.7-0.2 0.8-0.5l0.2-0.2 0-3.3 0-3.3-0.1-0.2c-0.3-0.3-0.7-0.6-1.1-0.5m4.7 2c-1.3 1.1-2.4 2-2.4 2 0 0 4.8 3.9 4.9 3.9 0 0.1 0-1.7 0-3.9 0-2.2 0-3.9 0-3.9-0.1 0-1.2 0.8-2.5 1.9" stroke="none" fill="black" fill-rule="evenodd"></path><path fill-opacity="0.965" d="M4.5 1.1c-0.9 0.1-1.8 0.5-2.4 1.2-0.6 0.6-1 1.4-1.1 2.3 0 0.4 0 3 0 7.8l0 7.2 0.1 0.4c0.5 1.6 1.8 2.8 3.4 2.9 0.6 0.1 14.4 0.1 15 0 1.6-0.1 2.9-1.3 3.4-2.9l0.1-0.4 0-7.2c0-4.6 0-7.4 0-7.7-0.1-1-0.5-1.8-1.1-2.4-0.5-0.6-1.1-0.9-1.9-1.2l-0.4-0.1-7.4 0c-4.1 0-7.5 0-7.7 0.1m-0.1 2c-0.5 0.1-1 0.6-1.2 1.1l-0.2 0.3 0 7.5 0 7.5 0.2 0.3c0.1 0.4 0.5 0.8 0.9 1l0.4 0.2 7.5 0 7.5 0 0.4-0.2c0.4-0.2 0.8-0.6 0.9-1l0.2-0.3 0-7.5 0-7.5-0.2-0.3c-0.1-0.4-0.6-0.9-1-1l-0.3-0.2-7.4 0c-5.9 0-7.5 0-7.7 0.1m4.3 5c-0.1 0-0.3 0.1-0.4 0.2-0.3 0.3-0.3 0.3-0.3 3.7 0 1.8 0 3.1 0.1 3.2 0.1 0.5 0.4 0.8 0.9 0.8 0.5 0 0.8-0.3 0.9-0.8 0.1-0.3 0.1-6.1 0-6.4-0.1-0.6-0.6-0.9-1.2-0.7m4.8 1.9c-1.3 1.1-2.4 2-2.4 2 0 0 1.1 0.9 2.4 2l2.5 2 0-2c0-1.1 0-2.9 0-4l0-2-2.5 2" stroke="none" fill="black" fill-rule="evenodd"></path></svg>