<?xml version="1.0"?><svg xmlns="http://www.w3.org/2000/svg" width="24" height="24" viewBox="0 0 24 24" version="1.1"><rect x="0" y="0" width="24" height="24" fill="#00000000"></rect><path fill-opacity="0.329" d="M6 8l0 1 6 0 6 0 0-1 0-1-6 0-6 0 0 1m0 4l0 1 6 0 6 0 0-1 0-1-6 0-6 0 0 1m14.5 2.7l-2.1 2.1-1-1.1-1.1-1.1-0.7 0.8-0.7 0.7 1.8 1.7 1.7 1.8 2.8-2.8c1.5-1.5 2.8-2.8 2.8-2.9 0 0-0.2-0.2-0.6-0.7-0.4-0.4-0.7-0.6-0.7-0.6-0.1 0-1 0.9-2.2 2.1m-14.5 1.3l0 1 4 0 4 0 0-1 0-1-4 0-4 0 0 1" stroke="none" fill="black" fill-rule="evenodd"></path><path fill-opacity="0.269" d="M6 8l0 1 6 0 6 0 0-1 0-1-6 0-6 0 0 1m0 4l0 1 6 0 6 0 0-1 0-1-6 0-6 0 0 1m14.6 2.7l-2.1 2.1-1.1-1.1-1.1-1.1-0.7 0.8-0.7 0.7 1.8 1.7 1.7 1.8 2.8-2.8c1.5-1.5 2.8-2.8 2.8-2.9 0 0-0.2-0.2-0.6-0.7-0.4-0.4-0.7-0.6-0.7-0.6 0 0-1 0.9-2.1 2.1m-14.6 1.3l0 1 4 0 4 0 0-1 0-1-4 0-4 0 0 1" stroke="none" fill="black" fill-rule="evenodd"></path><path fill-opacity="0.352" d="M6 8l0 1 6 0 6 0 0-1 0-1-6 0-6 0 0 1m0 4l0 1 6 0 6 0 0-1 0-1-6 0-6 0 0 1m14.6 2.7l-2.1 2.1-1.1-1.1-1.1-1.1-0.7 0.8-0.7 0.7 1.8 1.7 1.7 1.8 2.8-2.8c1.8-1.8 2.8-2.8 2.8-2.9 0 0-0.2-0.3-0.6-0.7-0.4-0.4-0.7-0.6-0.7-0.6 0 0-1 0.9-2.1 2.1m-14.6 1.3l0 1 4 0 4 0 0-1 0-1-4 0-4 0 0 1" stroke="none" fill="black" fill-rule="evenodd"></path><path fill-opacity="1.000" d="M6 8l0 1 6 0 6 0 0-1 0-1-6 0-6 0 0 1m0 4l0 1 6 0 6 0 0-1 0-1-6 0-6 0 0 1m14.5 2.7l-2.1 2.1-1-1.1-1.1-1-0.7 0.7-0.7 0.6 1.8 1.8 1.7 1.8 2.8-2.8c1.5-1.5 2.8-2.8 2.8-2.9 0 0-0.3-0.3-0.7-0.7l-0.6-0.6-2.2 2.1m-14.5 1.3l0 1 4 0 4 0 0-1 0-1-4 0-4 0 0 1" stroke="none" fill="black" fill-rule="evenodd"></path></svg>