<?xml version="1.0"?><svg xmlns="http://www.w3.org/2000/svg" width="24" height="24" viewBox="0 0 24 24" version="1.1"><rect x="0" y="0" width="24" height="24" fill="#00000000"></rect><path fill-opacity="0.392" d="M4.4 2.1c-0.4 0.1-0.6 0.3-0.9 0.6-0.2 0.3-0.3 0.4-0.4 0.7-0.1 0.4-0.1 16.8 0 17.2 0.2 0.6 0.7 1.2 1.4 1.3 0.4 0.1 14.6 0.1 15 0 0.7-0.1 1.2-0.7 1.4-1.3 0.1-0.4 0.1-16.7 0-17.1-0.1-0.5-0.5-1.1-1-1.3-0.4-0.2-0.2-0.2-7.9-0.2-6.8 0-7.4 0-7.6 0.1m0.6 7.4l0 5.5 7 0 7 0 0-5.5 0-5.5-7 0-7 0 0 5.5" stroke="none" fill="black" fill-rule="evenodd"></path><path fill-opacity="0.310" d="M4.5 2.1c-0.6 0.1-1 0.5-1.3 1.1l-0.2 0.3 0 8.5 0 8.5 0.2 0.3c0.2 0.4 0.6 0.8 1 1l0.3 0.2 7.5 0 7.5 0 0.3-0.2c0.4-0.2 0.8-0.6 1-1l0.2-0.3 0-8.5 0-8.5-0.2-0.3c-0.1-0.4-0.4-0.7-0.7-0.9-0.6-0.3-0.1-0.3-8.1-0.3-6 0-7.3 0-7.5 0.1m0.5 7.4l0 5.5 7 0 7 0 0-5.5 0-5.5-7 0-7 0 0 5.5" stroke="none" fill="black" fill-rule="evenodd"></path><path fill-opacity="0.448" d="M4.6 2.1c-0.4 0-0.7 0.2-1 0.5-0.3 0.3-0.5 0.6-0.5 1.1-0.1 0.2-0.1 2.7-0.1 8.5l0 8.2 0.1 0.3c0.3 0.5 0.7 1 1.3 1.2 0.2 0.1 0.6 0.1 7.6 0.1 7 0 7.4 0 7.7-0.1 0.5-0.2 0.9-0.7 1.2-1.2l0.1-0.3 0-8.2c0-5.8 0-8.3-0.1-8.5-0.1-0.9-0.7-1.5-1.5-1.6-0.4-0.1-14.5-0.1-14.8 0m0.4 7.4l0 5.5 7 0 7 0 0-5.5 0-5.5-7 0-7 0 0 5.5" stroke="none" fill="black" fill-rule="evenodd"></path><path fill-opacity="0.983" d="M4.7 2.1c-0.4 0-0.8 0.2-1.1 0.5-0.3 0.3-0.5 0.7-0.5 1.1-0.1 0.4-0.1 16.2 0 16.6 0.1 0.9 0.8 1.5 1.6 1.6 0.5 0.1 14.1 0.1 14.6 0 0.8-0.1 1.5-0.7 1.6-1.6 0.1-0.4 0.1-16.2 0-16.6 0-0.4-0.2-0.8-0.5-1.1-0.3-0.3-0.7-0.5-1.1-0.5-0.4-0.1-14.3-0.1-14.6 0m0.3 7.4l0 5.5 7 0 7 0 0-5.5 0-5.5-7 0-7 0 0 5.5" stroke="none" fill="black" fill-rule="evenodd"></path></svg>