<?xml version="1.0"?><svg xmlns="http://www.w3.org/2000/svg" width="24" height="24" viewBox="0 0 24 24" version="1.1"><rect x="0" y="0" width="24" height="24" fill="#00000000"></rect><path fill-opacity="0.314" d="M4.2 2.1c-1 0.3-1.9 1.2-2.1 2.2-0.1 0.5-0.1 14.9 0 15.4 0.2 1.1 1.1 2 2.2 2.2 0.5 0.1 14.9 0.1 15.4 0 1.1-0.2 2-1.1 2.2-2.2 0.1-0.5 0.1-14.9 0-15.4-0.2-1.1-1.1-1.9-2.1-2.2-0.4-0.1-0.7-0.1-7.8-0.1-7.2 0-7.4 0-7.8 0.1m0.6 1.9c-0.3 0.1-0.5 0.3-0.7 0.5l-0.1 0.2 0 7.3 0 7.3 0.2 0.2c0.1 0.2 0.2 0.3 0.4 0.4l0.2 0.1 7.2 0 7.2 0 0.2-0.1c0.2-0.1 0.3-0.2 0.4-0.4l0.2-0.2 0-7.3 0-7.3-0.2-0.2c0-0.1-0.2-0.3-0.3-0.4l-0.2-0.1-7.2 0c-3.9 0-7.2 0-7.3 0m6.2 8l0 5 1 0 1 0 0-5 0-5-1 0-1 0 0 5m-4 1.5l0 3.5 1 0 1 0 0-3.5 0-3.5-1 0-1 0 0 3.5m8 1.5l0 2 1 0 1 0 0-2 0-2-1 0-1 0 0 2" stroke="none" fill="black" fill-rule="evenodd"></path><path fill-opacity="0.520" d="M4.4 2.1c-1.2 0.2-2.1 1.2-2.3 2.3-0.1 0.5-0.1 14.7 0 15.2 0.2 1 0.9 1.8 1.9 2.2l0.4 0.2 7.6 0 7.6 0 0.4-0.2c1-0.4 1.7-1.2 1.9-2.2 0.1-0.5 0.1-14.7 0-15.2-0.2-1.2-1.1-2.1-2.3-2.3-0.5-0.1-14.8-0.1-15.2 0m0.2 2c-0.2 0.1-0.5 0.4-0.6 0.6 0 0.1 0 2.7 0 7.4l0 7.2 0.2 0.3c0.1 0.1 0.2 0.2 0.3 0.3l0.3 0.1 7.2 0 7.2 0 0.3-0.1c0.1-0.1 0.2-0.2 0.3-0.3l0.2-0.3 0-7.3 0-7.3-0.2-0.3c-0.1-0.1-0.2-0.2-0.3-0.3-0.2-0.1-0.2-0.1-7.4-0.1-6.2 0-7.3 0-7.5 0.1m6.4 7.9l0 5 1 0 1 0 0-5 0-5-1 0-1 0 0 5m-4 1.5l0 3.5 1 0 1 0 0-3.5 0-3.5-1 0-1 0 0 3.5m8 1.5l0 2 1 0 1 0 0-2 0-2-1 0-1 0 0 2" stroke="none" fill="black" fill-rule="evenodd"></path><path fill-opacity="0.536" d="M4.4 2.1c-1 0.2-1.9 1-2.2 2l-0.2 0.4 0 7.5 0 7.5 0.2 0.4c0.3 1 0.9 1.6 1.9 2l0.3 0.1 7.6 0 7.6 0 0.3-0.1c1-0.4 1.6-1 1.9-2l0.2-0.4 0-7.5 0-7.5-0.2-0.4c-0.3-1.1-1.2-1.8-2.2-2-0.4-0.1-1.2-0.1-7.6-0.1-6.2 0-7.3 0-7.6 0.1m0.2 2c-0.3 0.1-0.4 0.3-0.5 0.5-0.1 0.2-0.1 1-0.1 7.4 0 6.4 0 7.2 0.1 7.4 0.1 0.2 0.2 0.4 0.5 0.5 0.2 0.1 0.5 0.1 7.4 0.1 6.9 0 7.2 0 7.4-0.1 0.3-0.1 0.4-0.3 0.5-0.5 0.1-0.2 0.1-1 0.1-7.4 0-6.9 0-7.2-0.1-7.4-0.1-0.3-0.3-0.4-0.5-0.5-0.2-0.1-1-0.1-7.4-0.1-6.9 0-7.2 0-7.4 0.1m6.4 7.9l0 5 1 0 1 0 0-5 0-5-1 0-1 0 0 5m-4 1.5l0 3.5 1 0 1 0 0-3.5 0-3.5-1 0-1 0 0 3.5m8 1.5l0 2 1 0 1 0 0-2 0-2-1 0-1 0 0 2" stroke="none" fill="black" fill-rule="evenodd"></path><path fill-opacity="0.949" d="M4.6 2.1c-1.2 0.1-2.1 0.9-2.5 2.1-0.1 0.3-0.1 0.7-0.1 7.8 0 7.1 0 7.5 0.1 7.8 0.3 1 1.1 1.8 2.1 2.1 0.3 0.1 0.7 0.1 7.8 0.1 7.1 0 7.5 0 7.8-0.1 1-0.3 1.8-1.1 2.1-2.1 0.1-0.3 0.1-0.7 0.1-7.8 0-7.1 0-7.5-0.1-7.8-0.3-1-1.1-1.8-2.1-2.1-0.3-0.1-0.8-0.1-7.6-0.1-4 0-7.5 0-7.6 0.1m0 2c-0.2 0.1-0.3 0.2-0.4 0.3l-0.2 0.2 0 7.3c0 4 0 7.3 0 7.4 0.1 0.2 0.4 0.5 0.6 0.6 0.1 0.1 1.1 0.1 7.4 0.1 7.9 0 7.4 0 7.7-0.3 0.3-0.3 0.3 0.3 0.3-7.7 0-7 0-7.3-0.1-7.4-0.1-0.3-0.3-0.4-0.5-0.5-0.2-0.1-1-0.1-7.4-0.1l-7.2 0-0.2 0.1m6.4 7.9l0 5 1 0 1 0 0-5 0-5-1 0-1 0 0 5m-4 1.5l0 3.5 1 0 1 0 0-3.5 0-3.5-1 0-1 0 0 3.5m8 1.5l0 2 1 0 1 0 0-2 0-2-1 0-1 0 0 2" stroke="none" fill="black" fill-rule="evenodd"></path></svg>