<?xml version="1.0"?><svg xmlns="http://www.w3.org/2000/svg" width="24" height="24" viewBox="0 0 24 24" version="1.1"><rect x="0" y="0" width="24" height="24" fill="#00000000"></rect><path fill-opacity="1.000" d="M6 5l0 2-2 0-2 0 0 6 0 6 2 0 2 0 0 2 0 2 6 0 6 0 0-2 0-2 2 0 2 0 0-6 0-6-2 0-2 0 0-2 0-2-6 0-6 0 0 2m2 1l0 1 4 0 4 0 0-1 0-1-4 0-4 0 0 1m-4 7l0 4 1 0 1 0 0-1 0-1 6 0 6 0 0 1 0 1 1 0 1 0 0-4 0-4-8 0-8 0 0 4m2-1l0 1 1 0 1 0 0-1 0-1-1 0-1 0 0 1m2 7l0 2 4 0 4 0 0-2 0-2-4 0-4 0 0 2" stroke="none" fill="black" fill-rule="evenodd"></path></svg>