<?xml version="1.0"?><svg xmlns="http://www.w3.org/2000/svg" width="24" height="24" viewBox="0 0 24 24" version="1.1"><rect x="0" y="0" width="24" height="24" fill="#00000000"></rect><path fill-opacity="0.302" d="M10.8 3.1c-4.5 0.6-7.8 4.4-7.8 8.9 0 3.1 1.5 5.9 4.1 7.5 1 0.7 2.3 1.2 3.6 1.4 0.5 0.1 2.1 0.1 2.6 0 1.3-0.2 2.6-0.7 3.6-1.4 3.3-2.1 4.8-6 3.8-9.8-0.9-3.5-3.9-6.1-7.5-6.6-0.6-0.1-1.8-0.1-2.4 0m0.5 2c-3.2 0.3-5.6 2.6-6.2 5.7-0.1 0.6-0.1 1.8 0 2.4 0.3 1.4 0.9 2.7 2 3.7 0.8 0.8 1.6 1.3 2.6 1.7 1.5 0.5 3.1 0.5 4.6 0 1-0.4 1.8-0.9 2.6-1.7 1.4-1.3 2.1-3 2.1-4.9 0-1.5-0.4-2.7-1.2-3.9-0.4-0.6-1.3-1.5-1.9-1.9-1.4-0.9-3-1.3-4.6-1.1m-2.3 6.9l0 4 1 0 1 0 0-1 0-1 1.2 0c0.9 0 1.3 0 1.5-0.1 1.3-0.3 2.3-1.5 2.3-2.9 0-1.4-0.9-2.6-2.2-2.9-0.4-0.1-0.6-0.1-2.6-0.1l-2.2 0 0 4m2-1l0 1 1.1 0c1 0 1.1 0 1.3-0.1 0.7-0.4 0.8-1.4 0.1-1.8-0.2-0.1-0.3-0.1-1.4-0.1l-1.1 0 0 1" stroke="none" fill="black" fill-rule="evenodd"></path><path fill-opacity="0.281" d="M11.3 3c-0.1 0-0.4 0.1-0.6 0.1-0.9 0.1-1.7 0.4-2.6 0.8-2.2 1-3.8 2.9-4.6 5.2-0.7 1.9-0.7 3.9 0 5.8 1 2.9 3.3 5.1 6.3 5.8 0.8 0.2 1.3 0.3 2.2 0.3 1.6 0 2.8-0.3 4.2-1 0.8-0.5 1.4-0.9 2.1-1.7 0.8-0.7 1.2-1.3 1.7-2.1 1.1-2.3 1.3-4.8 0.5-7.1-1.1-3.2-3.8-5.5-7.2-6-0.3-0.1-1.8-0.1-2-0.1m-0.3 2.1c-1.6 0.3-2.7 0.8-3.8 1.8-0.8 0.8-1.3 1.5-1.6 2.4-0.8 1.8-0.8 3.8 0 5.6 1.2 2.5 3.7 4.1 6.4 4.1 3.2 0 6-2.2 6.8-5.3 0.6-2.5-0.1-5-2-6.8-1-0.9-2-1.5-3.4-1.8-0.6-0.1-1.9-0.1-2.4 0m-2 6.9l0 4 1 0 1 0 0-1 0-1 1.3 0c1.2 0 1.4 0 1.6-0.1 1.1-0.4 1.7-1.1 2-2.2 0.3-1.3-0.3-2.7-1.5-3.4-0.7-0.3-0.8-0.3-3.2-0.3l-2.2 0 0 4m2-1l0 1 1.1 0c1.2 0 1.3 0 1.6-0.3 0.5-0.5 0.3-1.3-0.2-1.6-0.2-0.1-0.3-0.1-1.4-0.1l-1.1 0 0 1" stroke="none" fill="black" fill-rule="evenodd"></path><path fill-opacity="0.516" d="M11.2 3.1c-1.8 0.1-3.6 0.9-5 2.1-1.7 1.3-2.8 3.4-3.1 5.6-0.1 0.5-0.1 1.8 0 2.4 0.4 2.6 1.8 4.8 3.9 6.3 1.1 0.7 2.4 1.2 3.8 1.4 0.5 0.1 1.9 0.1 2.4 0 2.7-0.4 5.1-2 6.5-4.3 1.5-2.5 1.7-5.7 0.4-8.4-1-2.2-2.9-3.9-5.2-4.7-1.2-0.4-2.5-0.6-3.7-0.4m-0.1 2c-1.7 0.2-3 0.9-4.1 2-1 1-1.6 2.2-1.9 3.6-0.1 0.6-0.1 2 0 2.6 0.6 2.8 2.7 4.9 5.5 5.6 0.7 0.1 2.1 0.1 2.8 0 3.4-0.8 5.7-3.8 5.6-7.2-0.1-1.7-0.8-3.3-2-4.6-1.1-1.1-2.4-1.8-4.1-2-0.4-0.1-1.5-0.1-1.8 0m-2.1 6.9l0 4 1 0 1 0 0-1 0-1 1.1 0c0.8 0 1.3 0 1.5-0.1 1-0.2 1.9-1 2.2-2 0.2-0.3 0.2-0.5 0.2-0.9 0-0.6-0.1-1-0.4-1.5-0.2-0.4-0.8-1-1.3-1.2-0.6-0.3-0.8-0.3-3.2-0.3l-2.1 0 0 4m2-1l0 1 1.1 0c1 0 1.1 0 1.3-0.1 0.8-0.4 0.8-1.6-0.1-1.8-0.1-0.1-0.7-0.1-1.2-0.1l-1.1 0 0 1" stroke="none" fill="black" fill-rule="evenodd"></path><path fill-opacity="0.968" d="M11.3 3.1c-1.1 0-2.3 0.4-3.3 0.9-2.6 1.3-4.4 3.7-4.9 6.7-0.1 0.6-0.1 2 0 2.6 0.4 2.3 1.6 4.4 3.4 5.8 1.6 1.2 3.5 1.9 5.5 1.9 2.9 0 5.5-1.3 7.2-3.6 0.9-1.2 1.4-2.6 1.7-4.1 0.1-0.7 0.1-2 0-2.7-0.3-1.5-0.9-2.8-1.7-4-1.9-2.4-4.8-3.8-7.9-3.5m-0.4 2c-3.1 0.5-5.3 2.8-5.8 5.9-0.1 0.6-0.1 1.8 0 2.4 0.6 2.5 2.4 4.5 4.8 5.3 0.7 0.2 1.3 0.3 2.1 0.3 1.1 0 2.1-0.2 3.1-0.7 2-1 3.3-2.7 3.8-4.9 0.1-0.7 0.1-2.1 0-2.7-0.6-2.9-2.7-4.9-5.5-5.6-0.5-0.1-2-0.1-2.5 0m-1.9 6.9l0 4 1 0 1 0 0-1 0-1 1.3 0c1 0 1.3-0.1 1.5-0.1 1-0.3 1.8-1.1 2.1-2.1 0.1-0.4 0.1-1.2 0-1.6-0.3-0.8-0.8-1.5-1.6-1.8-0.6-0.4-0.8-0.4-3.2-0.4l-2.1 0 0 4m2-1l0 1 1.1 0c1.2 0 1.3 0 1.6-0.3 0.4-0.3 0.4-1.1 0-1.4-0.3-0.3-0.4-0.3-1.6-0.3l-1.1 0 0 1" stroke="none" fill="black" fill-rule="evenodd"></path></svg>