<?xml version="1.0"?><svg xmlns="http://www.w3.org/2000/svg" width="24" height="24" viewBox="0 0 24 24" version="1.1"><rect x="0" y="0" width="24" height="24" fill="#00000000"></rect><path fill-opacity="0.412" d="M2 11.2c0 5.4 0 5.3 0.2 5.8 0.2 0.4 0.8 0.8 1.3 0.9 0.3 0.1 16.7 0.1 17 0 0.6-0.1 1.1-0.6 1.4-1.1l0.1-0.3 0-5.3 0-5.2-1 0-1 0 0 5 0 5-8 0-8 0 0-5 0-5-1 0-1 0 0 5.2m4-2.2l0 1 6 0 6 0 0-1 0-1-6 0-6 0 0 1m0 4l0 1 6 0 6 0 0-1 0-1-6 0-6 0 0 1" stroke="none" fill="black" fill-rule="evenodd"></path><path fill-opacity="0.280" d="M2 11.2l0 5.3 0.2 0.3c0.3 0.6 0.7 1 1.3 1.1 0.4 0.1 16.6 0.1 17 0 0.6-0.1 1-0.5 1.3-1.1l0.2-0.3 0-5.3 0-5.2-1 0-1 0 0 5 0 5-8 0-8 0 0-5 0-5-1 0-1 0 0 5.2m4-2.2l0 1 6 0 6 0 0-1 0-1-6 0-6 0 0 1m0 4l0 1 6 0 6 0 0-1 0-1-6 0-6 0 0 1" stroke="none" fill="black" fill-rule="evenodd"></path><path fill-opacity="0.509" d="M2 11.2l0 5.3 0.2 0.3c0.2 0.4 0.6 0.8 1 1l0.3 0.2 8.5 0 8.5 0 0.3-0.2c0.4-0.2 0.8-0.5 1-0.9 0.2-0.4 0.2-0.3 0.2-5.8l0-5.1-1 0-1 0 0 5 0 5-8 0-8 0 0-5 0-5-1 0-1 0 0 5.2m4-2.2l0 1 6 0 6 0 0-1 0-1-6 0-6 0 0 1m0 4l0 1 6 0 6 0 0-1 0-1-6 0-6 0 0 1" stroke="none" fill="black" fill-rule="evenodd"></path><path fill-opacity="0.962" d="M2 11.2l0 5.2 0.1 0.3c0.3 0.5 0.7 1 1.3 1.2 0.2 0.1 0.6 0.1 8.6 0.1 7.9 0 8.4 0 8.6-0.1 0.6-0.2 1.1-0.7 1.3-1.2 0.1-0.3 0.1-0.6 0.1-5.5l0-5.2-1 0-1 0 0 5 0 5-8 0-8 0 0-5 0-5-1 0-1 0 0 5.2m4-2.2l0 1 6 0 6 0 0-1 0-1-6 0-6 0 0 1m0 4l0 1 6 0 6 0 0-1 0-1-6 0-6 0 0 1" stroke="none" fill="black" fill-rule="evenodd"></path></svg>