<?xml version="1.0"?><svg xmlns="http://www.w3.org/2000/svg" width="24" height="24" viewBox="0 0 24 24" version="1.1"><rect x="0" y="0" width="24" height="24" fill="#00000000"></rect><path fill-opacity="0.631" d="M23 12l0 6 0.5 0 0.5 0 0-6 0-6-0.5 0-0.5 0 0 6m-7.7-4.9l-0.7 0.7 1.6 1.6 1.6 1.6-6.9 0-6.9 0 0 1 0 1 6.9 0 6.9 0-1.6 1.6-1.6 1.7 0.7 0.7 0.7 0.7 2.8-2.9 2.9-2.8-2.8-2.8c-1.6-1.6-2.9-2.8-2.9-2.8 0 0-0.3 0.3-0.7 0.7" stroke="none" fill="black" fill-rule="evenodd"></path><path fill-opacity="0.150" d="M23 12l0 6 0.5 0 0.5 0 0-6 0-6-0.5 0-0.5 0 0 6m-7.7-4.9l-0.7 0.7 1.6 1.6 1.6 1.6-6.9 0-6.9 0 0 1 0 1 6.9 0 6.9 0-1.6 1.6-1.6 1.6 0.7 0.7 0.7 0.8 2.8-2.9 2.9-2.8-2.8-2.8c-1.6-1.6-2.9-2.8-2.9-2.8 0 0-0.3 0.3-0.7 0.7" stroke="none" fill="black" fill-rule="evenodd"></path><path fill-opacity="0.137" d="M23 12l0 6 0.5 0 0.5 0 0-6 0-6-0.5 0-0.5 0 0 6m-7.7-4.9l-0.7 0.7 1.6 1.6 1.6 1.6-6.9 0-6.9 0 0 1 0 1 6.9 0 6.9 0-1.6 1.6-1.6 1.6 0.7 0.7 0.7 0.8 2.8-2.9 2.8-2.8-2.8-2.8c-1.5-1.6-2.8-2.8-2.8-2.8 0 0-0.3 0.3-0.7 0.7" stroke="none" fill="black" fill-rule="evenodd"></path><path fill-opacity="1.000" d="M23 12l0 6 0.5 0 0.5 0 0-6 0-6-0.5 0-0.5 0 0 6m-7.7-4.9l-0.7 0.7 1.6 1.6 1.6 1.6-6.9 0-6.9 0 0 1 0 1 6.9 0 6.9 0-1.6 1.6-1.6 1.6 0.7 0.7 0.7 0.7 2.3-2.3c1.3-1.2 2.6-2.5 2.8-2.8l0.6-0.5-2.8-2.8c-1.6-1.5-2.9-2.8-2.9-2.8 0 0-0.3 0.3-0.7 0.7" stroke="none" fill="black" fill-rule="evenodd"></path></svg>