<?xml version="1.0"?><svg xmlns="http://www.w3.org/2000/svg" width="24" height="24" viewBox="0 0 24 24" version="1.1"><rect x="0" y="0" width="24" height="24" fill="#00000000"></rect><path fill-opacity="0.561" d="M10.4 8.5l-3.5 3.5 3.6 3.5 3.5 3.6 0.7-0.7 0.7-0.8-2.8-2.8-2.8-2.8 2.8-2.8 2.8-2.8-0.7-0.7c-0.4-0.4-0.7-0.7-0.7-0.7 0 0-1.6 1.5-3.6 3.5m-7.4 3.5l0 7 1 0 1 0 0-7 0-7-1 0-1 0 0 7" stroke="none" fill="black" fill-rule="evenodd"></path><path fill-opacity="0.705" d="M10.4 8.5l-3.5 3.5 3.6 3.5 3.5 3.6 0.7-0.7 0.7-0.7-2.8-2.9-2.9-2.8 2.9-2.8 2.8-2.9-0.7-0.7c-0.4-0.3-0.7-0.6-0.7-0.6 0 0-1.6 1.5-3.6 3.5m-7.4 3.5l0 7 1 0 1 0 0-7 0-7-1 0-1 0 0 7" stroke="none" fill="black" fill-rule="evenodd"></path><path fill-opacity="0.092" d="M10.5 8.5l-3.5 3.5 3.5 3.5 3.5 3.6 0.7-0.7 0.7-0.7-2.8-2.9-2.9-2.8 2.9-2.8 2.8-2.9-0.7-0.7c-0.4-0.3-0.7-0.6-0.7-0.6 0 0-1.6 1.5-3.5 3.5m-7.5 3.5l0 7 1 0 1 0 0-7 0-7-1 0-1 0 0 7" stroke="none" fill="black" fill-rule="evenodd"></path><path fill-opacity="0.933" d="M3 12l0 7 1 0 1 0 0-7 0-7-1 0-1 0 0 7m7.5-3.5l-3.6 3.5 3.6 3.5c1.9 1.9 3.5 3.5 3.5 3.5 0 0 0.3-0.3 0.7-0.7l0.7-0.7-2.9-2.8-2.8-2.8 2.8-2.8 2.9-2.8-0.7-0.7c-0.4-0.4-0.7-0.7-0.7-0.7 0 0-1.6 1.6-3.5 3.5" stroke="none" fill="black" fill-rule="evenodd"></path></svg>