<?xml version="1.0"?><svg xmlns="http://www.w3.org/2000/svg" width="24" height="24" viewBox="0 0 24 24" version="1.1"><rect x="0" y="0" width="24" height="24" fill="#00000000"></rect><path fill-opacity="0.392" d="M3.4 3.1c-0.4 0.1-0.6 0.3-0.9 0.6-0.2 0.3-0.3 0.4-0.4 0.7-0.1 0.4-0.1 14.8 0 15.2 0.2 0.6 0.7 1.2 1.4 1.3 0.4 0.1 16.6 0.1 17 0 0.7-0.1 1.2-0.7 1.4-1.3 0.1-0.4 0.1-14.7 0-15.1-0.1-0.5-0.5-1.1-1-1.3-0.4-0.2-0.2-0.2-8.9-0.2-7.8 0-8.4 0-8.6 0.1m0.6 8.9l0 7 8 0 8 0 0-7 0-7-8 0-8 0 0 7m4 0c-0.6 1.6-1.1 2.9-1.1 3 0 0 0.7 0 1.5 0l1.5 0 1.1-3c0.6-1.6 1.1-2.9 1.1-3 0 0-0.7 0-1.5 0l-1.5 0-1.1 3m5 0c-0.6 1.6-1.1 2.9-1.1 3 0 0 0.7 0 1.5 0l1.5 0 1.1-3c0.6-1.6 1.1-2.9 1.1-3 0 0-0.7 0-1.5 0l-1.5 0-1.1 3" stroke="none" fill="black" fill-rule="evenodd"></path><path fill-opacity="0.310" d="M3.5 3.1c-0.6 0.1-1.1 0.5-1.3 1.1l-0.2 0.3 0 7.5 0 7.5 0.2 0.3c0.3 0.6 0.8 1 1.4 1.1 0.4 0.1 16.4 0.1 16.8 0 0.6-0.1 1.1-0.5 1.4-1.1l0.2-0.3 0-7.5 0-7.5-0.2-0.3c-0.2-0.6-0.7-1-1.3-1.1-0.4-0.1-16.6-0.1-17 0m0.5 8.9l0 7 8 0 8 0 0-7 0-7-8 0-8 0 0 7m5.1-2.9c-0.1 0-0.5 1.4-1.1 3l-1.1 2.9 1.5 0c0.8 0 1.5 0 1.5 0 0-0.1 0.5-1.3 1.1-2.9 0.5-1.6 1-2.9 1-3l0.1-0.1-1.5 0c-1.4 0-1.5 0-1.5 0.1m5 0c-0.1 0-0.5 1.4-1.1 3l-1.1 2.9 1.5 0c0.8 0 1.5 0 1.5 0 0-0.1 0.5-1.3 1.1-2.9 0.5-1.6 1-2.9 1-3l0.1-0.1-1.5 0c-1.4 0-1.5 0-1.5 0.1" stroke="none" fill="black" fill-rule="evenodd"></path><path fill-opacity="0.598" d="M3.6 3.1c-0.3 0-0.7 0.2-1 0.5-0.3 0.3-0.5 0.6-0.5 1.1-0.1 0.2-0.1 2.4-0.1 7.5l0 7.2 0.1 0.3c0.3 0.5 0.7 1 1.3 1.2 0.2 0.1 0.6 0.1 8.6 0.1 8 0 8.4 0 8.7-0.1 0.5-0.2 0.9-0.7 1.2-1.2l0.1-0.3 0-7.4 0-7.4-0.1-0.3c-0.3-0.5-0.7-0.9-1.2-1.2l-0.3-0.1-8.2 0c-4.6 0-8.4 0-8.6 0.1m0.4 8.9l0 7 8 0 8 0 0-7 0-7-8 0-8 0 0 7m5.1-2.9c0 0-0.5 1.3-1.1 3l-1.1 2.9 1.5 0 1.5 0 1.1-2.9c0.5-1.6 1-2.9 1-3l0.1-0.1-1.5 0c-1.2 0-1.5 0-1.5 0.1m5 0c0 0-0.5 1.3-1.1 3l-1.1 2.9 1.5 0 1.5 0 1.1-2.9c0.5-1.6 1-2.9 1-3l0.1-0.1-1.5 0c-1.2 0-1.5 0-1.5 0.1" stroke="none" fill="black" fill-rule="evenodd"></path><path fill-opacity="0.977" d="M3.7 3.1c-0.9 0.1-1.5 0.8-1.6 1.6-0.1 0.5-0.1 14.2 0 14.6 0.1 0.9 0.8 1.5 1.6 1.6 0.5 0.1 16.1 0.1 16.6 0 0.4 0 0.8-0.2 1.1-0.5 0.3-0.3 0.5-0.7 0.5-1.1 0.1-0.4 0.1-14.1 0-14.6-0.1-0.8-0.7-1.5-1.6-1.6-0.4-0.1-16.3-0.1-16.6 0m0.3 8.9l0 7 8 0 8 0 0-7 0-7-8 0-8 0 0 7m5.1-2.9c-0.2 0.4-2.1 5.8-2.1 5.9 0 0 0.6 0 1.4 0 1.1 0 1.5 0 1.5-0.1 0.2-0.4 2.2-5.8 2.2-5.9 0 0-0.7 0-1.5 0-1.1 0-1.5 0-1.5 0.1m5 0c-0.2 0.4-2.1 5.8-2.1 5.9 0 0 0.6 0 1.4 0 1.1 0 1.5 0 1.5-0.1 0.2-0.4 2.2-5.8 2.2-5.9 0 0-0.7 0-1.5 0-1.1 0-1.5 0-1.5 0.1" stroke="none" fill="black" fill-rule="evenodd"></path></svg>