<?xml version="1.0"?><svg xmlns="http://www.w3.org/2000/svg" width="24" height="24" viewBox="0 0 24 24" version="1.1"><rect x="0" y="0" width="24" height="24" fill="#00000000"></rect><path fill-opacity="0.376" d="M8 12c-0.6 1.6-1.1 2.9-1.1 3 0 0 0.7 0 1.5 0l1.5 0 1.1-3c0.6-1.6 1.1-2.9 1.1-3 0 0-0.7 0-1.5 0l-1.5 0-1.1 3m5 0c-0.6 1.6-1.1 2.9-1.1 3 0 0 0.7 0 1.5 0l1.5 0 1.1-3c0.6-1.6 1.1-2.9 1.1-3 0 0-0.7 0-1.5 0l-1.5 0-1.1 3" stroke="none" fill="black" fill-rule="evenodd"></path><path fill-opacity="0.403" d="M9.1 9.1c-0.1 0-0.5 1.4-1.1 3l-1.1 2.9 1.5 0c0.8 0 1.5 0 1.5 0 0-0.1 0.5-1.3 1.1-2.9 0.5-1.6 1-2.9 1-3l0.1-0.1-1.5 0c-1.4 0-1.5 0-1.5 0.1m5 0c-0.1 0-0.5 1.4-1.1 3l-1.1 2.9 1.5 0c0.8 0 1.5 0 1.5 0 0-0.1 0.5-1.3 1.1-2.9 0.5-1.6 1-2.9 1-3l0.1-0.1-1.5 0c-1.4 0-1.5 0-1.5 0.1" stroke="none" fill="black" fill-rule="evenodd"></path><path fill-opacity="0.505" d="M9.1 9.1c0 0-0.5 1.3-1.1 3l-1.1 2.9 1.5 0 1.5 0 1.1-2.9c0.5-1.6 1-2.9 1-3l0.1-0.1-1.5 0c-1.2 0-1.5 0-1.5 0.1m5 0c0 0-0.5 1.3-1.1 3l-1.1 2.9 1.5 0 1.5 0 1.1-2.9c0.5-1.6 1-2.9 1-3l0.1-0.1-1.5 0c-1.2 0-1.5 0-1.5 0.1" stroke="none" fill="black" fill-rule="evenodd"></path><path fill-opacity="0.979" d="M9.1 9.1c-0.2 0.4-2.1 5.8-2.1 5.9 0 0 0.6 0 1.4 0 1.1 0 1.5 0 1.5-0.1 0.2-0.4 2.2-5.8 2.2-5.9 0 0-0.7 0-1.5 0-1.1 0-1.5 0-1.5 0.1m5 0c-0.2 0.4-2.1 5.8-2.1 5.9 0 0 0.6 0 1.4 0 1.1 0 1.5 0 1.5-0.1 0.2-0.4 2.2-5.8 2.2-5.9 0 0-0.7 0-1.5 0-1.1 0-1.5 0-1.5 0.1" stroke="none" fill="black" fill-rule="evenodd"></path></svg>