<?xml version="1.0"?><svg xmlns="http://www.w3.org/2000/svg" width="24" height="24" viewBox="0 0 24 24" version="1.1"><rect x="0" y="0" width="24" height="24" fill="#00000000"></rect><path fill-opacity="0.439" d="M11 2.1c-1.6 0.1-3.2 0.7-4.5 1.5-2.7 1.8-4.4 4.7-4.5 8.1 0 1.6 0.3 3.2 1 4.7 0.6 1.1 1.2 1.9 2 2.7 2.7 2.7 6.7 3.6 10.3 2.3 1.4-0.4 2.7-1.2 3.7-2.3 1.6-1.5 2.5-3.4 2.9-5.7 0.1-0.5 0.1-2.3 0-2.8-0.3-2.1-1.1-3.8-2.5-5.3-2.1-2.4-5.2-3.6-8.4-3.2m0.5 1.9c-2 0.2-3.8 1-5.2 2.4-3.1 3.1-3 8.2 0.1 11.3 0.6 0.6 1.2 1 2 1.4 1.1 0.5 1.9 0.8 3 0.9 1.4 0.1 2.8-0.2 4.1-0.9 3.3-1.5 5-5.1 4.3-8.7-0.3-1.5-1.1-3-2.1-4-1.2-1.2-2.9-2-4.4-2.3-0.5-0.1-1.4-0.1-1.8-0.1m-0.2 4c-1.3 0.3-2.4 1.1-2.9 2.3-0.3 0.6-0.4 0.9-0.4 1.7 0 0.8 0.1 1.1 0.4 1.8 0.4 0.8 1 1.3 1.8 1.7 0.6 0.4 1 0.5 1.8 0.5 0.6 0 0.8 0 1.1-0.1 1.4-0.5 2.4-1.5 2.8-2.9 0.1-0.5 0.1-1.5 0-2-0.4-1.4-1.5-2.5-2.8-2.8-0.4-0.2-1.4-0.2-1.8-0.2" stroke="none" fill="black" fill-rule="evenodd"></path><path fill-opacity="0.406" d="M11.3 2c-0.6 0.1-1.4 0.2-1.8 0.3-1.8 0.5-3.4 1.4-4.7 2.8-0.8 0.8-1.3 1.6-1.8 2.6-1.9 3.9-1 8.5 2.1 11.5 1 1 2.2 1.7 3.5 2.2 1.2 0.4 2 0.6 3.4 0.6 1 0 1.5-0.1 2.3-0.3 1.9-0.5 3.5-1.4 4.9-2.8 1.5-1.5 2.4-3.4 2.7-5.6 0.1-0.6 0.1-2 0-2.6-0.3-1.8-0.9-3.4-2-4.8-0.3-0.4-1.2-1.3-1.6-1.7-1.4-1.1-3.1-1.8-4.8-2.1-0.5-0.1-1.8-0.1-2.2-0.1m-0.3 2.1c-2.4 0.3-4.6 1.7-5.9 3.8-1.5 2.5-1.5 5.7 0 8.2 1.2 2 3.2 3.4 5.6 3.8 0.6 0.1 2 0.1 2.6 0 2.3-0.4 4.4-1.8 5.6-3.8 1.5-2.5 1.5-5.7 0-8.2-0.8-1.4-2.1-2.5-3.6-3.2-1.4-0.6-2.8-0.8-4.3-0.6m0.4 3.9c-0.7 0.2-1.6 0.6-2 1-0.6 0.5-1 1.1-1.2 1.8-0.2 0.4-0.2 0.5-0.2 1.2 0 0.5 0 0.7 0.1 1 0.3 0.8 0.7 1.5 1.3 2 1.6 1.4 3.9 1.3 5.4-0.2 0.6-0.5 0.8-1 1.1-1.8 0.1-0.5 0.1-1.5 0-2-0.4-1.4-1.4-2.4-2.7-2.8-0.5-0.2-1.3-0.2-1.8-0.2" stroke="none" fill="black" fill-rule="evenodd"></path><path fill-opacity="0.376" d="M11.4 2c-2.6 0.2-4.9 1.3-6.6 3.1-1.5 1.5-2.3 3.3-2.7 5.5-0.1 0.7-0.1 2.1 0 2.8 0.4 2.3 1.4 4.3 3 5.8 1.5 1.5 3.3 2.3 5.4 2.7 0.7 0.1 2.3 0.1 3 0 3.7-0.6 6.6-3 7.9-6.5 0.4-1.1 0.6-2.1 0.6-3.4 0-1-0.1-1.6-0.3-2.5-0.9-3.5-3.7-6.3-7.3-7.2-0.7-0.2-2.2-0.3-3-0.3m-0.2 2c-1.9 0.3-3.5 1-4.8 2.3-3.2 3.2-3.2 8.2-0.1 11.4 1 0.9 1.9 1.4 3.1 1.9 0.7 0.2 1.1 0.3 1.9 0.4 1.1 0.1 2.2-0.1 3.3-0.4 1.2-0.5 2.1-1 3.1-1.9 3.1-3.2 3.1-8.2-0.1-11.4-1.1-1.1-2.6-1.9-4.2-2.2-0.4-0.1-1.8-0.1-2.2-0.1m0.3 4.1c-1 0.1-1.7 0.5-2.4 1.2-0.3 0.3-0.5 0.5-0.7 0.9-0.3 0.7-0.4 1.1-0.4 1.8 0 0.7 0.1 1.1 0.5 1.8 0.2 0.5 0.3 0.6 0.7 1 0.5 0.5 1.1 0.9 1.8 1.1 0.5 0.1 1.5 0.1 2 0 0.8-0.3 1.4-0.6 1.9-1.2 0.3-0.3 0.5-0.5 0.7-0.9 0.3-0.7 0.4-1.1 0.4-1.8 0-0.7-0.1-1.1-0.4-1.8-0.5-1-1.5-1.8-2.6-2-0.4-0.2-1.1-0.2-1.5-0.1" stroke="none" fill="black" fill-rule="evenodd"></path><path fill-opacity="0.962" d="M11.6 2c-0.6 0.1-1.6 0.2-2 0.3-2.5 0.7-4.5 2.1-5.9 4.2-1.1 1.6-1.7 3.5-1.7 5.5 0 1.6 0.3 2.9 1 4.4 1.5 3 4.4 5.1 7.7 5.5 0.6 0.1 2 0.1 2.6 0 3.3-0.4 6.2-2.5 7.7-5.5 0.7-1.5 1-2.8 1-4.4 0-1.6-0.4-3.1-1.1-4.5-1.3-2.6-3.6-4.4-6.5-5.2-0.7-0.2-2.1-0.3-2.8-0.3m-0.5 2c-0.1 0-0.3 0.1-0.6 0.1-0.8 0.2-1.8 0.6-2.6 1-3.3 2-4.7 6-3.4 9.6 0.8 2.3 2.7 4.2 5.1 4.9 1.5 0.5 3.3 0.5 4.8 0 3.4-1 5.6-4.1 5.6-7.6 0-2.7-1.3-5.1-3.6-6.7-0.8-0.5-2-1-2.9-1.2-0.5-0.1-2.1-0.1-2.4-0.1m0.5 4.1c-0.5 0-1 0.2-1.4 0.3-2.4 1.3-2.9 4.5-1 6.4 1.6 1.6 4 1.6 5.6 0 1.6-1.6 1.6-4.2-0.1-5.7-0.8-0.8-2-1.2-3.1-1" stroke="none" fill="black" fill-rule="evenodd"></path></svg>