<?xml version="1.0"?><svg xmlns="http://www.w3.org/2000/svg" width="24" height="24" viewBox="0 0 24 24" version="1.1"><rect x="0" y="0" width="24" height="24" fill="#00000000"></rect><path fill-opacity="0.306" d="M3.5 3.6c-1.2 0.2-1.9 0.9-2.3 1.9l-0.2 0.4 0 5.5c0 6.1 0 5.8 0.3 6.5 0.3 0.5 0.8 1 1.3 1.3 0.8 0.3 0.5 0.3 4.4 0.3 3.1 0 3.6 0 3.8-0.1l0.2 0 0 0.2c0 0.3 0.2 0.6 0.5 0.8 0.3 0.2 0.7 0.2 1 0 0.3-0.2 0.5-0.5 0.5-0.8l0-0.2 0.2 0c0.2 0.1 0.6 0.1 3.7 0.1 3.3 0 3.6 0 3.9-0.1 0.5-0.1 0.9-0.4 1.3-0.7 0.4-0.5 0.7-0.9 0.8-1.4 0.1-0.4 0.1-0.6 0.1-5.8 0-5.1 0-5.3-0.1-5.7-0.3-1.1-1.1-1.9-2.1-2.2-0.3-0.1-0.6-0.1-2.5-0.1-2.3 0-2.9 0-3.6 0.2-1 0.2-1.9 0.8-2.5 1.6l-0.2 0.2-0.2-0.2c-0.7-0.9-1.6-1.4-2.8-1.7-0.3-0.1-0.7-0.1-2.8-0.1-1.9 0-2.5 0-2.7 0.1m0 2.1c-0.1 0-0.2 0.2-0.3 0.3l-0.2 0.2 0 5.2c0 5.7 0 5.5 0.3 5.8 0.3 0.3 0.1 0.3 3.7 0.3 3.1 0 3.3 0 3.4-0.1 0.3-0.1 0.5-0.4 0.5-0.7 0.1-0.2 0.1-1.4 0.1-4.5 0-3.9 0-4.2-0.1-4.5-0.2-0.6-0.6-1.1-1-1.5-0.4-0.3-0.7-0.4-1.1-0.6-0.4 0-0.6 0-2.7 0-2.3 0-2.3 0-2.6 0.1m11.7-0.1c-0.4 0.2-0.6 0.3-1 0.6-0.6 0.4-1 1-1.1 1.7-0.1 0.6-0.1 8.6 0 9 0.1 0.2 0.2 0.4 0.5 0.5 0.1 0.1 0.3 0.1 3.4 0.1 3.1 0 3.3 0 3.4-0.1 0.3-0.1 0.5-0.4 0.5-0.7 0.1-0.2 0.1-1.7 0.1-5.4l0-5.1-0.2-0.2c-0.1-0.1-0.2-0.3-0.3-0.3-0.3-0.1-0.3-0.1-2.6-0.1-2.1 0-2.4 0-2.7 0m-10.2 2.9l0 1.1 2 0 2 0 0-1.1 0-1-2 0-2 0 0 1m10 0l0 1.1 2 0 2 0 0-1.1 0-1-2 0-2 0 0 1m-10 3l0 1.1 2 0 2 0 0-1.1 0-1-2 0-2 0 0 1m10 0l0 1.1 2 0 2 0 0-1.1 0-1-2 0-2 0 0 1m-10 3l0 1.1 2 0 2 0 0-1.1 0-1-2 0-2 0 0 1m10 0l0 1.1 2 0 2 0 0-1.1 0-1-2 0-2 0 0 1" stroke="none" fill="black" fill-rule="evenodd"></path><path fill-opacity="0.277" d="M3.7 3.5c-0.8 0.1-1.3 0.4-1.8 0.9-0.4 0.4-0.7 0.8-0.8 1.4-0.1 0.4-0.1 0.5-0.1 5.7 0 4.5 0 5.4 0.1 5.7 0.2 1 1 1.9 2.1 2.2 0.3 0.1 0.6 0.1 3.8 0.1 3.1 0 3.6 0 3.8-0.1l0.2 0 0 0.2c0 0.3 0.2 0.6 0.5 0.8 0.1 0.1 0.5 0.1 0.8 0.1 0.3-0.1 0.7-0.6 0.7-1l0-0.1 0.2 0c0.2 0.1 0.7 0.1 3.8 0.1 3.2 0 3.5 0 3.8-0.1 1.1-0.3 1.9-1.2 2.1-2.2 0.1-0.5 0.1-10.8 0-11.3-0.2-1.1-1.1-2-2.1-2.3-0.3-0.1-0.6-0.1-2.9-0.1-2.1 0-2.5 0-2.8 0.1-1.2 0.3-2.2 0.8-2.8 1.6-0.2 0.2-0.3 0.3-0.3 0.3 0 0-0.1-0.1-0.2-0.3-0.6-0.6-1.3-1.1-2-1.3-0.9-0.4-1-0.4-3.5-0.4-1.3 0-2.5 0-2.6 0m-0.1 2.1c-0.3 0.2-0.4 0.3-0.5 0.6-0.1 0.1-0.1 0.8-0.1 5.3 0 3.4 0 5.2 0.1 5.3 0 0.3 0.2 0.5 0.5 0.6 0.1 0.1 0.3 0.1 3.4 0.1 3.1 0 3.3 0 3.4-0.1 0.3-0.1 0.5-0.3 0.5-0.6 0.1-0.1 0.1-1.6 0.1-4.3 0-4.7 0-4.6-0.4-5.3-0.3-0.8-1.1-1.4-1.9-1.6-0.2 0-1.1 0-2.6 0-2.2 0-2.3 0-2.5 0m11.7 0c-0.8 0.2-1.6 0.8-1.9 1.6-0.4 0.7-0.4 0.6-0.4 5.3 0 2.7 0 4.2 0.1 4.3 0 0.3 0.2 0.5 0.5 0.6 0.1 0.1 0.3 0.1 3.4 0.1 3.1 0 3.3 0 3.4-0.1 0.3-0.1 0.5-0.3 0.5-0.6 0.1-0.1 0.1-1.9 0.1-5.3 0-4.5 0-5.2-0.1-5.3-0.1-0.3-0.2-0.4-0.5-0.6-0.2 0-0.3 0-2.5 0-1.8 0-2.4 0-2.6 0m-10.3 2.9l0 1.1 2 0 2 0 0-1.1 0-1-2 0-2 0 0 1m10 0l0 1.1 2 0 2 0 0-1.1 0-1-2 0-2 0 0 1m-10 3l0 1.1 2 0 2 0 0-1.1 0-1-2 0-2 0 0 1m10 0l0 1.1 2 0 2 0 0-1.1 0-1-2 0-2 0 0 1m-10 3l0 1.1 2 0 2 0 0-1.1 0-1-2 0-2 0 0 1m10 0l0 1.1 2 0 2 0 0-1.1 0-1-2 0-2 0 0 1" stroke="none" fill="black" fill-rule="evenodd"></path><path fill-opacity="0.492" d="M3.3 3.6c-1.1 0.3-2 1.2-2.2 2.3-0.1 0.5-0.1 10.7 0 11.2 0.2 1.1 1 2 2.1 2.3 0.3 0.1 0.4 0.1 3.8 0.1 2.9 0 3.5 0 3.7-0.1 0.2 0 0.3 0 0.3 0 0 0 0 0 0 0.1 0 0.6 0.4 1 1 1 0.6 0 1-0.4 1-1 0-0.1 0-0.1 0-0.1 0 0 0.1 0 0.3 0 0.2 0.1 0.8 0.1 3.7 0.1l3.5 0 0.4-0.1c0.5-0.2 1.1-0.5 1.3-0.9 0.3-0.3 0.6-0.9 0.7-1.4 0.1-0.5 0.1-10.7 0-11.2-0.2-0.8-0.8-1.7-1.5-2-0.7-0.4-0.7-0.4-3.6-0.3-2.6 0-2.7 0-3.1 0.1-0.9 0.2-1.7 0.7-2.3 1.4l-0.4 0.4-0.3-0.4c-0.5-0.4-0.9-0.8-1.5-1.1-1-0.4-0.9-0.4-4-0.4-2.2 0-2.7 0-2.9 0m0.5 2c-0.3 0-0.5 0.2-0.7 0.5l-0.1 0.2 0 5.2c0 2.8 0 5.2 0 5.3 0 0.1 0.1 0.2 0.2 0.3 0.4 0.4 0.1 0.4 3.7 0.4 3.6 0.1 3.5 0.1 3.8-0.3 0.1-0.1 0.3-0.3 0.3-0.4 0-0.1 0-2.1 0-4.4 0-4.1 0-4.2-0.1-4.6-0.3-1-1.1-1.9-2.1-2.2-0.3-0.1-0.6-0.1-2.6-0.1-1.3 0-2.3 0-2.4 0.1m11.8 0c-1.2 0.1-2.2 1-2.5 2.2-0.1 0.4-0.1 0.5-0.1 4.6 0 2.3 0 4.3 0 4.4 0 0.1 0.1 0.2 0.2 0.3 0.4 0.4 0.1 0.4 3.7 0.4 3.6 0.1 3.5 0.1 3.8-0.3 0.1-0.1 0.3-0.3 0.3-0.4 0-0.1 0-2.5 0-5.3l0-5.2-0.1-0.2c-0.2-0.3-0.4-0.5-0.7-0.5-0.3-0.1-4.2-0.1-4.6 0m-10.6 2.9l0 1 2 0 2 0 0-1 0-0.9-2 0-2 0 0 0.9m10 0l0 1 2 0 2 0 0-1 0-0.9-2 0-2 0 0 0.9m-10 3l0 1 2 0 2 0 0-1 0-0.9-2 0-2 0 0 0.9m10 0l0 1 2 0 2 0 0-1 0-0.9-2 0-2 0 0 0.9m-10 3l0 1 2 0 2 0 0-1 0-0.9-2 0-2 0 0 0.9m10 0l0 1 2 0 2 0 0-1 0-0.9-2 0-2 0 0 0.9" stroke="none" fill="black" fill-rule="evenodd"></path><path fill-opacity="0.969" d="M3.3 3.6c-0.5 0.1-0.9 0.4-1.4 0.8-0.4 0.5-0.7 0.9-0.8 1.5-0.1 0.4-0.1 10.9 0 11.3 0.3 1.1 1.2 2 2.2 2.2 0.3 0.1 0.9 0.1 3.7 0.1 3.1 0 3.5 0 3.9-0.1 0.1 0 0.1 0 0.1 0.2 0.1 0.6 0.5 0.9 1 0.9 0.5 0 0.9-0.3 1-0.9 0-0.2 0-0.2 0.1-0.2 0.4 0.1 0.8 0.1 3.9 0.1 3.7 0 3.7 0 4.4-0.3 0.5-0.3 1-0.8 1.3-1.3 0.3-0.7 0.3-0.4 0.3-6.4 0-5.9 0-5.6-0.3-6.3-0.3-0.5-0.9-1.1-1.4-1.3-0.6-0.3-0.7-0.4-3.5-0.3l-2.6 0-0.5 0.1c-0.9 0.3-1.8 0.8-2.4 1.5l-0.3 0.3-0.3-0.3c-0.5-0.6-1.5-1.2-2.4-1.5l-0.5-0.1-2.6 0c-2 0-2.6 0-2.9 0m0.4 2c-0.3 0.1-0.5 0.2-0.6 0.5-0.1 0.2-0.1 0.2-0.1 5.4l0 5.3 0.1 0.2c0.1 0.1 0.2 0.3 0.4 0.4l0.2 0.1 3.3 0 3.3 0 0.2-0.1c0.2-0.1 0.3-0.3 0.4-0.4l0.1-0.2 0-4.3c0-2.9 0-4.4-0.1-4.6 0-0.2-0.1-0.5-0.2-0.7-0.4-0.8-1.2-1.5-2.1-1.6-0.5-0.1-4.6-0.1-4.9 0m11.7 0c-0.9 0.2-1.7 0.8-2.1 1.6-0.1 0.2-0.2 0.5-0.2 0.7-0.1 0.2-0.1 1.7-0.1 4.6l0 4.3 0.1 0.2c0.1 0.1 0.2 0.3 0.4 0.4l0.2 0.1 3.3 0 3.3 0 0.2-0.1c0.2-0.1 0.3-0.3 0.4-0.4l0.1-0.2 0-5.3 0-5.2-0.1-0.3c-0.1-0.1-0.2-0.2-0.4-0.3l-0.2-0.2-2.3 0c-1.8 0-2.4 0-2.6 0.1m-10.4 2.9l0 1 2 0 2 0 0-1 0-0.9-2 0-2 0 0 0.9m10 0l0 1 2 0 2 0 0-1 0-0.9-2 0-2 0 0 0.9m-10 3l0 1 2 0 2 0 0-1 0-0.9-2 0-2 0 0 0.9m10 0l0 1 2 0 2 0 0-1 0-0.9-2 0-2 0 0 0.9m-10 3l0 1 2 0 2 0 0-1 0-0.9-2 0-2 0 0 0.9m10 0l0 1 2 0 2 0 0-1 0-0.9-2 0-2 0 0 0.9" stroke="none" fill="black" fill-rule="evenodd"></path></svg>