<?xml version="1.0"?><svg xmlns="http://www.w3.org/2000/svg" width="24" height="24" viewBox="0 0 24 24" version="1.1"><rect x="0" y="0" width="24" height="24" fill="#00000000"></rect><path fill-opacity="0.325" d="M5.4 6.6c-0.5 0-1.3 0.3-1.8 0.5-1.4 0.8-2.4 2.3-2.6 3.9l0 0.3-0.1-0.2c-0.1-0.3-0.4-0.5-0.7-0.6l-0.2 0 0 1 0 1.1 0.2-0.1c0.1 0 0.3-0.1 0.5-0.2 0.1-0.1 0.2-0.4 0.3-0.5 0 0 0 0.1 0 0.3 0.3 1.9 1.4 3.3 3 4 0.8 0.4 1.6 0.5 2.5 0.4 2-0.2 3.6-1.5 4.3-3.5 0-0.2 0.1-0.4 0.2-0.4 0 0 0-0.3 0-0.6l0-0.5 1 0 1 0 0 0.5c0 0.3 0 0.6 0 0.6 0.1 0 0.2 0.2 0.2 0.4 0.5 1.4 1.5 2.5 2.8 3.1 0.6 0.2 0.9 0.3 1.5 0.4 1.5 0.2 3-0.4 4.1-1.5 0.7-0.8 1.3-1.9 1.4-2.9 0-0.2 0-0.3 0-0.3 0.1 0.2 0.3 0.4 0.4 0.5 0.2 0.2 0.5 0.3 0.6 0.2 0 0 0.1-0.4 0.1-1l0-1-0.2 0c-0.5 0.2-0.6 0.3-0.8 0.6-0.1 0.1-0.1 0.1-0.1-0.2-0.4-2.7-2.8-4.6-5.5-4.3-0.6 0-1.4 0.3-1.9 0.5-0.8 0.5-1.6 1.3-2 2.1l-0.2 0.3-1.4 0-1.4 0-0.2-0.3c-0.4-0.8-1.2-1.6-2-2.1-0.5-0.2-1.3-0.5-1.9-0.5-0.3-0.1-0.5-0.1-0.6-0.1 0 0-0.3 0-0.5 0.1m-0.1 2c-1.2 0.3-2.1 1.3-2.3 2.5-0.1 0.7 0.1 1.5 0.5 2 0.6 0.9 1.5 1.4 2.5 1.4 1.3 0 2.4-0.8 2.8-2 0.6-1.7-0.4-3.4-2.1-3.9-0.3-0.1-1.1-0.1-1.4 0m12 0c-1.2 0.3-2.1 1.3-2.3 2.5-0.1 0.7 0.1 1.5 0.5 2 0.6 0.9 1.5 1.4 2.5 1.4 1.3 0 2.4-0.8 2.8-2 0.6-1.7-0.4-3.4-2.1-3.9-0.3-0.1-1.1-0.1-1.4 0m-17.3 2.9c0 0.6 0 0.8 0 0.5 0-0.3 0-0.7 0-1 0-0.3 0-0.1 0 0.5" stroke="none" fill="black" fill-rule="evenodd"></path><path fill-opacity="0.378" d="M5.5 6.6c-2.3 0.2-4.2 2-4.5 4.4l0 0.3-0.1-0.2c-0.2-0.3-0.5-0.5-0.8-0.5l-0.1 0 0 0.9 0 1 0.2 0c0.3 0 0.5-0.3 0.7-0.5l0.1-0.2 0 0.2c0.2 1.1 0.6 2.2 1.4 3 0.4 0.4 0.8 0.7 1.4 1 1.4 0.7 3 0.7 4.4 0 1.2-0.6 2.2-1.7 2.6-3 0-0.2 0.1-0.4 0.1-0.4 0.1-0.1 0.1-0.2 0.1-0.6l0-0.5 1 0 1 0 0 0.5c0 0.4 0 0.5 0.1 0.6 0 0 0.1 0.2 0.1 0.4 0.3 1 1 2 1.9 2.6 1.5 1 3.5 1.2 5.1 0.4 0.6-0.3 1-0.6 1.4-1 0.8-0.8 1.2-1.9 1.4-3l0-0.3 0.1 0.2c0.1 0.3 0.4 0.5 0.6 0.6 0.4 0 0.4 0.1 0.4-1l0-1-0.3 0.1c-0.3 0-0.5 0.2-0.7 0.5l-0.1 0.2 0-0.3c-0.4-2.7-2.7-4.7-5.5-4.4-1.6 0.1-3.1 1.1-3.9 2.6l-0.2 0.4-1.4 0-1.4 0-0.2-0.4c-0.8-1.5-2.3-2.5-3.8-2.6-0.3 0-0.5-0.1-0.5-0.1-0.1 0-0.3 0-0.6 0.1m-0.4 2c-0.4 0.2-0.9 0.5-1.2 0.8-1.6 1.6-1 4.2 1.1 5 0.4 0.1 0.5 0.1 1 0.1 0.5 0 0.6 0 1-0.1 1.2-0.5 2-1.6 2-2.9 0-1.3-0.9-2.5-2.2-2.9-0.4-0.1-1.3-0.1-1.7 0m12 0c-0.4 0.2-0.9 0.5-1.2 0.8-1.6 1.6-1 4.2 1.1 5 0.4 0.1 0.5 0.1 1 0.1 0.5 0 0.6 0 1-0.1 1.2-0.5 2-1.6 2-2.9 0-1.3-0.9-2.5-2.2-2.9-0.4-0.1-1.3-0.1-1.7 0m-17.1 2.9c0 0.6 0 0.8 0 0.5 0-0.2 0-0.7 0-1 0-0.2 0 0 0 0.5" stroke="none" fill="black" fill-rule="evenodd"></path><path fill-opacity="0.561" d="M5.2 6.6c-2.2 0.4-3.8 2.1-4.1 4.2-0.1 0.5-0.1 0.7-0.1 0.5 0-0.3-0.6-0.7-0.9-0.7l-0.1 0 0 0.9 0 1 0.1 0c0.3 0 0.7-0.3 0.8-0.6 0.1-0.1 0.1-0.2 0.1-0.2 0 0.1 0 0.3 0.1 0.6 0.3 2.1 1.9 3.8 4 4.1 0.5 0.1 1.3 0.1 1.8 0 1.8-0.3 3.3-1.6 3.8-3.4 0.1-0.2 0.2-0.4 0.2-0.4 0.1-0.1 0.1-0.2 0.1-0.6l0-0.5 1 0 1 0 0 0.5c0 0.4 0 0.5 0.1 0.6 0 0 0.1 0.2 0.1 0.4 0.6 1.8 2.1 3.1 3.9 3.4 0.5 0.1 1.3 0.1 1.8 0 1.5-0.2 2.9-1.2 3.5-2.6 0.3-0.5 0.5-1.1 0.5-1.5 0-0.2 0.1-0.4 0.1-0.5l0-0.1 0.1 0.2c0.1 0.3 0.5 0.6 0.8 0.6l0.1 0 0-1 0.1-1-0.3 0.1c-0.1 0-0.2 0-0.3 0.1-0.2 0.1-0.4 0.4-0.5 0.6 0 0.2 0-0.1-0.1-0.5 0-0.7-0.4-1.6-0.9-2.2-0.7-0.9-1.5-1.5-2.7-1.9-0.4-0.1-0.5-0.1-1.3-0.1-0.8 0-0.9 0-1.3 0.1-0.9 0.3-1.7 0.8-2.3 1.4-0.4 0.4-0.8 1-0.9 1.3l-0.1 0.2-1.4 0-1.4 0-0.1-0.2c-0.1-0.3-0.5-0.9-0.9-1.3-0.6-0.6-1.4-1.1-2.3-1.4-0.3-0.1-0.6-0.1-1.1-0.1-0.4 0-0.9 0-1 0m0.4 1.9c-1.2 0.2-2.3 1.2-2.5 2.3-0.2 1.1 0 2.1 0.8 2.8 0.4 0.4 0.6 0.6 1.2 0.8 0.3 0.1 0.4 0.1 0.9 0.1 0.5 0 0.6 0 0.9-0.1 0.6-0.2 0.8-0.4 1.2-0.8 0.9-0.9 1.2-2.2 0.6-3.4-0.6-1.2-1.9-1.8-3.1-1.7m12 0c-1.2 0.2-2.3 1.2-2.5 2.3-0.2 1.1 0 2.1 0.8 2.8 0.4 0.4 0.6 0.6 1.2 0.8 0.3 0.1 0.4 0.1 0.9 0.1 0.5 0 0.6 0 0.9-0.1 0.6-0.2 0.8-0.4 1.2-0.8 0.9-0.9 1.2-2.2 0.6-3.4-0.6-1.2-1.9-1.8-3.1-1.7m-17.6 3c0 0.6 0 0.8 0 0.5 0-0.2 0-0.7 0-1 0-0.2 0 0 0 0.5" stroke="none" fill="black" fill-rule="evenodd"></path><path fill-opacity="0.957" d="M5.3 6.6c-1.3 0.2-2.5 0.9-3.3 1.9-0.5 0.7-0.9 1.6-0.9 2.4-0.1 0.4-0.1 0.7-0.1 0.5-0.1-0.2-0.2-0.5-0.3-0.6-0.2-0.1-0.5-0.2-0.6-0.2-0.1 0-0.1 0-0.1 0.9l0 1 0.2 0c0.4-0.1 0.7-0.5 0.8-0.8 0-0.3 0 0 0.1 0.4 0 0.8 0.4 1.8 1 2.6 0.8 0.9 1.9 1.5 3 1.7 2.5 0.5 4.8-1 5.6-3.3 0.1-0.2 0.2-0.5 0.2-0.5 0.1-0.1 0.1-0.2 0.1-0.6l0-0.5 1 0 1 0 0 0.5c0 0.4 0 0.6 0.1 0.6 0 0 0.1 0.2 0.2 0.4 0.5 1.7 2 3.1 3.8 3.4 2.2 0.4 4.4-0.7 5.4-2.7 0.2-0.6 0.4-1.1 0.4-1.6 0.1-0.4 0.1-0.7 0.1-0.4 0.1 0.2 0.2 0.5 0.4 0.6 0.1 0.1 0.5 0.2 0.6 0.2 0 0 0.1-0.2 0.1-1l0-1-0.3 0.1c-0.1 0-0.3 0.1-0.4 0.1-0.1 0.1-0.3 0.4-0.3 0.6-0.1 0.2-0.1 0.1-0.2-0.3 0-0.6-0.2-1.1-0.4-1.7-0.7-1.3-1.8-2.2-3.2-2.6-0.5-0.1-0.6-0.1-1.3-0.1-0.9 0-1.3 0.1-2 0.4-1 0.4-1.9 1.3-2.4 2.2l-0.2 0.4-1.4-0.1-1.4 0-0.2-0.3c-0.4-0.9-1.3-1.7-2.2-2.1-0.7-0.4-1.2-0.5-2-0.5-0.4 0-0.8 0-0.9 0m0.1 2c-0.6 0.1-1.1 0.4-1.5 0.8-0.6 0.6-0.9 1.3-0.9 2.1 0 0.9 0.2 1.5 0.9 2.1 0.3 0.4 0.5 0.5 0.8 0.6 0.8 0.4 1.8 0.4 2.6 0 0.5-0.2 1.1-0.8 1.3-1.2 0.3-0.4 0.4-0.9 0.4-1.5 0-0.8-0.3-1.5-0.9-2.1-0.7-0.7-1.7-1-2.7-0.8m12 0c-0.6 0.1-1.1 0.4-1.5 0.8-0.6 0.6-0.9 1.3-0.9 2.1 0 0.9 0.2 1.5 0.9 2.1 0.3 0.4 0.5 0.5 0.8 0.6 0.8 0.4 1.8 0.4 2.6 0 0.5-0.2 1.1-0.8 1.3-1.2 0.3-0.4 0.4-0.9 0.4-1.5 0-0.8-0.3-1.5-0.9-2.1-0.7-0.7-1.7-1-2.7-0.8m-17.4 2.9c0 0.6 0 0.8 0 0.5 0-0.2 0-0.7 0-1 0-0.2 0 0 0 0.5" stroke="none" fill="black" fill-rule="evenodd"></path></svg>