<?xml version="1.0"?><svg xmlns="http://www.w3.org/2000/svg" width="24" height="24" viewBox="0 0 24 24" version="1.1"><rect x="0" y="0" width="24" height="24" fill="#00000000"></rect><path fill-opacity="0.631" d="M14.1 7.2l-2.8 2.8 2.9 2.8 2.8 2.9 0.7-0.7 0.7-0.7-2.1-2.2-2.1-2.1 2.1-2.1 2.1-2.1-0.7-0.7c-0.4-0.4-0.7-0.7-0.7-0.7 0 0-1.3 1.2-2.9 2.8m-7.8 1.9l-0.7 0.7 2.1 2.1 2.1 2.1-2.1 2.1-2.1 2.2 0.7 0.7 0.7 0.7 2.8-2.9 2.9-2.8-2.8-2.8c-1.6-1.6-2.9-2.9-2.9-2.9 0 0-0.3 0.4-0.7 0.8" stroke="none" fill="black" fill-rule="evenodd"></path><path fill-opacity="0.150" d="M14.1 7.2l-2.8 2.8 2.9 2.8 2.8 2.9 0.7-0.7 0.7-0.8-2.1-2.1-2.1-2.1 2.1-2.1 2.1-2.1-0.7-0.7c-0.4-0.4-0.7-0.8-0.7-0.8 0 0-1.3 1.3-2.9 2.9m-7.8 1.9l-0.7 0.7 2.1 2.1 2.1 2.1-2.1 2.1-2.1 2.1 0.7 0.7 0.7 0.8 2.8-2.9 2.9-2.8-2.8-2.8c-1.6-1.6-2.9-2.9-2.9-2.9 0 0-0.3 0.4-0.7 0.8" stroke="none" fill="black" fill-rule="evenodd"></path><path fill-opacity="0.137" d="M14.2 7.2l-2.8 2.8 2.8 2.8 2.8 2.9 0.7-0.8 0.7-0.7-2.1-2.1-2.1-2.1 2.1-2.1 2.1-2.1-0.7-0.7c-0.4-0.4-0.7-0.7-0.7-0.7 0 0-1.3 1.2-2.8 2.8m-7.9 1.9l-0.7 0.7 2.1 2.1 2.1 2.1-2.1 2.1-2.1 2.1 0.7 0.7 0.7 0.8 2.8-2.9 2.8-2.8-2.8-2.8c-1.5-1.6-2.8-2.8-2.8-2.8 0 0-0.3 0.3-0.7 0.7" stroke="none" fill="black" fill-rule="evenodd"></path><path fill-opacity="1.000" d="M14.2 7.2l-2.9 2.8 0.6 0.5c0.2 0.3 1.5 1.6 2.8 2.8l2.3 2.3 0.7-0.7 0.7-0.7-2.1-2.1-2.1-2.1 2.1-2.1 2.1-2.1-0.7-0.7c-0.4-0.4-0.7-0.7-0.7-0.7 0 0-1.3 1.3-2.8 2.8m-7.9 1.9l-0.7 0.7 2.1 2.1 2.1 2.1-2.1 2.1-2.1 2.1 0.7 0.7 0.7 0.7 2.3-2.3c1.3-1.2 2.6-2.5 2.8-2.8l0.6-0.5-2.8-2.8c-1.6-1.5-2.9-2.8-2.9-2.8 0 0-0.3 0.3-0.7 0.7" stroke="none" fill="black" fill-rule="evenodd"></path></svg>