<?xml version="1.0"?><svg xmlns="http://www.w3.org/2000/svg" width="24" height="24" viewBox="0 0 24 24" version="1.1"><rect x="0" y="0" width="24" height="24" fill="#00000000"></rect><path fill-opacity="0.294" d="M5.7 7c-0.2 0.1-0.4 0.3-0.5 0.5-0.1 0.1-0.2 0.2-0.2 0.5 0 0.2 0.1 0.3 0.2 0.5 0.1 0.2 0.2 0.3 0.3 0.4 0.2 0.1 0.3 0.1 4.5 0.1 4.2 0 4.3 0 4.5-0.1 0.1-0.1 0.2-0.2 0.3-0.4 0.3-0.5 0.2-1.1-0.3-1.4l-0.2-0.1-4.2 0c-2.3 0-4.3 0-4.4 0m13.6 2.1c-0.9 0.2-1.6 0.8-2 1.6l-0.2 0.3-5.6 0c-6.2 0-5.9 0-6.2 0.3-0.4 0.3-0.4 1.1 0 1.4 0.3 0.3 0 0.3 6.2 0.3l5.6 0 0.2 0.3c0.4 0.8 1.1 1.4 2 1.6 0.4 0.1 1.3 0.1 1.7 0 0.8-0.3 1.6-1.1 1.9-2 0.1-0.5 0.1-1.3 0-1.8-0.3-0.9-1.1-1.7-1.9-2-0.4-0.1-1.3-0.1-1.7 0m0.2 2c-0.2 0.2-0.2 0.2-0.4 0.5-0.1 0.2-0.1 0.3-0.1 0.5 0.1 0.3 0.2 0.6 0.5 0.7 0.1 0.2 0.2 0.2 0.5 0.2 0.3 0 0.4 0 0.5-0.2 0.7-0.4 0.6-1.3-0.1-1.7-0.3-0.1-0.5-0.1-0.9 0m-13.8 3.9c-0.2 0.1-0.4 0.3-0.5 0.5-0.1 0.1-0.2 0.2-0.2 0.5 0 0.2 0.1 0.3 0.2 0.5 0.1 0.2 0.2 0.3 0.3 0.4 0.2 0.1 0.3 0.1 4.5 0.1 4.2 0 4.3 0 4.5-0.1 0.1-0.1 0.2-0.2 0.3-0.4 0.3-0.5 0.2-1.1-0.3-1.4l-0.2-0.1-4.2 0c-2.3 0-4.3 0-4.4 0m0 4c-0.2 0.1-0.4 0.3-0.5 0.5-0.1 0.1-0.2 0.2-0.2 0.5 0 0.2 0.1 0.3 0.2 0.5 0.1 0.2 0.2 0.3 0.3 0.4 0.2 0.1 0.3 0.1 4.5 0.1 4.2 0 4.3 0 4.5-0.1 0.1-0.1 0.2-0.2 0.3-0.4 0.3-0.5 0.2-1.1-0.3-1.4l-0.2-0.1-4.2 0c-2.3 0-4.3 0-4.4 0m0 4c-0.4 0.2-0.6 0.4-0.7 0.8l0 0.2 5 0 5 0 0-0.2c-0.1-0.3-0.3-0.5-0.5-0.7l-0.2-0.1-4.2 0c-2.3 0-4.3 0-4.4 0" stroke="none" fill="black" fill-rule="evenodd"></path><path fill-opacity="0.278" d="M5.7 7.1c-0.8 0.2-0.9 1.3-0.2 1.8l0.2 0.1 4.3 0 4.3 0 0.2-0.1c0.7-0.5 0.6-1.7-0.3-1.8-0.4-0.1-8.1-0.1-8.5 0m13.6 2c-0.2 0-0.4 0.1-0.6 0.2-0.5 0.2-1.2 0.9-1.4 1.4l-0.2 0.3-5.7 0c-5.7 0-5.7 0-5.9 0.1-0.1 0.1-0.2 0.2-0.3 0.3-0.2 0.2-0.2 0.3-0.2 0.6 0 0.3 0 0.4 0.2 0.6 0.1 0.1 0.2 0.2 0.3 0.3l0.3 0.1 5.7 0 5.6 0 0.2 0.3c0.2 0.5 0.8 1 1.2 1.3 0.9 0.5 2.1 0.5 3 0 0.4-0.3 1-0.8 1.2-1.3 0.4-0.8 0.4-1.8 0-2.6-0.2-0.5-0.9-1.2-1.4-1.4-0.6-0.3-1.4-0.4-2-0.2m0.2 2c-0.3 0.2-0.5 0.5-0.5 0.9 0 0.3 0 0.4 0.2 0.6 0.4 0.5 1.2 0.5 1.6 0 0.2-0.2 0.2-0.3 0.2-0.6 0-0.4-0.2-0.7-0.6-0.9-0.3-0.1-0.6-0.1-0.9 0m-13.8 4c-0.8 0.2-0.9 1.3-0.2 1.8l0.2 0.1 4.3 0 4.3 0 0.2-0.1c0.7-0.5 0.6-1.7-0.3-1.8-0.4-0.1-8.1-0.1-8.5 0m0 4c-0.8 0.2-0.9 1.3-0.2 1.8l0.2 0.1 4.3 0 4.3 0 0.2-0.1c0.7-0.5 0.6-1.7-0.3-1.8-0.4-0.1-8.1-0.1-8.5 0m0 4c-0.3 0.1-0.5 0.3-0.6 0.6-0.1 0.2-0.1 0.3-0.1 0.3 0 0 2.3 0 5 0l5 0-0.1-0.3c-0.1-0.3-0.3-0.6-0.7-0.6-0.4-0.1-8.1-0.1-8.5 0" stroke="none" fill="black" fill-rule="evenodd"></path><path fill-opacity="0.638" d="M19.4 9.1c-0.9 0.2-1.7 0.8-2.1 1.5l-0.1 0.4-5.7 0-5.8 0-0.2 0.2c-0.2 0.1-0.3 0.2-0.4 0.4-0.1 0.3-0.1 0.5 0 0.9 0.2 0.2 0.2 0.2 0.4 0.4l0.3 0.1 5.7 0 5.7 0 0.1 0.4c0.3 0.5 0.8 1 1.4 1.3 1.2 0.6 2.5 0.3 3.4-0.6 1.2-1.2 1.2-3 0-4.2-0.7-0.7-1.7-1-2.7-0.8m0.2 2c-0.8 0.3-0.8 1.4-0.1 1.8 0.7 0.3 1.4-0.1 1.5-0.8 0-0.6-0.4-1.1-1-1.1-0.1 0-0.3 0-0.4 0.1" stroke="none" fill="black" fill-rule="evenodd"></path><path fill-opacity="0.957" d="M19.6 9c-0.4 0.1-0.9 0.3-1.2 0.5-0.4 0.2-0.9 0.7-1 1.1l-0.2 0.4-5.6 0c-3.9 0-5.6 0-5.8 0.1-0.9 0.1-1 1.3-0.3 1.8l0.2 0.1 5.8 0 5.7 0 0 0.2c0.1 0.2 0.6 0.8 0.8 1 0.6 0.5 1.2 0.8 2 0.8 0.6 0 1-0.1 1.4-0.4 0.6-0.3 1.2-1 1.4-1.6 0.3-0.8 0.2-1.7-0.2-2.5-0.6-1-1.8-1.6-3-1.5m-0.1 2.1c-0.1 0.1-0.2 0.2-0.3 0.3-0.2 0.2-0.2 0.2-0.2 0.6 0 0.4 0 0.4 0.2 0.6 0.2 0.3 0.4 0.4 0.6 0.4 0.4 0 0.6 0 0.8-0.2 0.3-0.3 0.4-0.5 0.4-0.9 0-0.2-0.1-0.3-0.2-0.5-0.2-0.3-0.5-0.4-0.8-0.4-0.2 0-0.3 0-0.5 0.1" stroke="none" fill="black" fill-rule="evenodd"></path></svg>