<?xml version="1.0"?><svg xmlns="http://www.w3.org/2000/svg" width="24" height="24" viewBox="0 0 24 24" version="1.1"><rect x="0" y="0" width="24" height="24" fill="#00000000"></rect><path fill-opacity="0.435" d="M10.9 2.7c-1.6 0.3-3.1 0.9-4.3 2l-0.3 0.3 2.9 2.8 2.8 2.9 2.8-2.9 2.9-2.8-0.3-0.3c-1-0.9-2.2-1.5-3.5-1.8-0.8-0.2-2-0.3-3-0.2m-0.1 2.1c-0.5 0.1-1.1 0.3-1.3 0.4 0 0.1 0.1 0.2 1.2 1.3l1.3 1.3 1.3-1.3c1.1-1.1 1.2-1.2 1.2-1.3-0.2-0.1-1-0.3-1.4-0.4-0.6-0.1-1.7-0.1-2.3 0m-5.5 2.1c-1.1 1.3-1.9 2.8-2.2 4.5-0.1 0.8-0.1 2.3 0 3.1 0.6 3.7 3.6 6.7 7.3 7.4 0.8 0.1 2.4 0.1 3.2 0 3.7-0.7 6.7-3.7 7.3-7.4 0.1-0.8 0.1-2.3 0-3.1-0.2-1.1-0.7-2.3-1.4-3.3-0.3-0.5-0.8-1.1-1-1.4l-0.2-0.1-0.7 0.7-0.7 0.7 0.2 0.2c0.9 1 1.6 2.4 1.8 3.7 0.1 0.6 0.1 1.7 0 2.3-0.4 2.3-1.9 4.2-4 5.2-0.9 0.4-1.9 0.6-2.9 0.6-2.3 0-4.3-1.1-5.6-2.9-0.6-0.8-1.1-1.9-1.3-2.9-0.1-0.6-0.1-1.8 0-2.4 0.2-1.3 0.9-2.6 1.8-3.6l0.2-0.2-0.7-0.7c-0.4-0.4-0.7-0.7-0.7-0.7 0 0-0.2 0.2-0.4 0.3" stroke="none" fill="black" fill-rule="evenodd"></path><path fill-opacity="0.188" d="M11.1 2.7c-1.6 0.2-3.2 0.9-4.4 1.9-0.2 0.2-0.3 0.4-0.3 0.4 0 0 1.2 1.3 2.8 2.8l2.8 2.9 2.8-2.9c1.6-1.5 2.8-2.8 2.8-2.8 0-0.1-0.8-0.7-1.1-1-1.6-1-3.5-1.5-5.4-1.3m-0.1 2.1c-0.3 0-1.1 0.2-1.3 0.4l-0.3 0.1 1.3 1.2 1.3 1.3 1.3-1.3 1.3-1.2-0.3-0.1c-0.3-0.2-1-0.4-1.4-0.4-0.3-0.1-1.5-0.1-1.9 0m-5.7 2.2c-2.2 2.4-2.9 5.8-1.8 8.9 0.6 1.9 1.9 3.5 3.6 4.7 0.9 0.6 2.2 1.1 3.3 1.3 0.9 0.1 2.3 0.1 3.2 0 1.1-0.2 2.4-0.7 3.3-1.3 1.7-1.2 3-2.8 3.6-4.7 1-3 0.4-6.3-1.6-8.7-0.2-0.2-0.4-0.5-0.5-0.5l-0.1-0.1-0.7 0.7-0.7 0.7 0.2 0.3c1.1 1 1.7 2.5 1.9 4.1 0.1 1.4-0.2 2.9-1 4.1-0.7 1.2-1.8 2.3-3 2.8-0.5 0.3-1.1 0.4-1.7 0.6-0.7 0.1-1.9 0.1-2.6 0-1.5-0.4-2.7-1-3.7-2-1.2-1.2-1.8-2.6-2-4.3-0.1-1.9 0.6-4 1.9-5.3l0.2-0.3-0.7-0.7c-0.4-0.4-0.7-0.7-0.7-0.7 0 0-0.2 0.2-0.4 0.4" stroke="none" fill="black" fill-rule="evenodd"></path><path fill-opacity="0.256" d="M11.2 2.7c-1.7 0.2-3.4 0.9-4.6 2l-0.2 0.3 2.8 2.8 2.8 2.8 2.8-2.8 2.8-2.8-0.3-0.3c-0.9-0.9-2.3-1.6-3.7-1.9-0.4-0.1-1.3-0.2-1.7-0.1-0.1 0-0.4 0-0.7 0m0.2 2c-0.2 0-0.6 0.1-0.8 0.1-0.4 0.1-1.1 0.4-1.1 0.4 0 0.1 0.5 0.7 1.2 1.4l1.3 1.2 1.3-1.3c1-1 1.2-1.2 1.2-1.3-0.1-0.1-0.7-0.3-1.1-0.4-0.3 0-1.4-0.2-1.5-0.1 0 0-0.2 0-0.5 0m-6.1 2.3c-1.1 1.3-1.9 2.8-2.2 4.5-0.1 0.9-0.1 2.1 0 3 0.6 3.5 3.3 6.3 6.6 7.2 1.5 0.4 3.1 0.4 4.6 0 2.8-0.7 5.2-3 6.2-5.8 1-3.1 0.4-6.4-1.8-8.9l-0.4-0.4-0.7 0.7c-0.3 0.4-0.7 0.7-0.7 0.7 0 0 0.2 0.2 0.3 0.3 0.3 0.4 0.5 0.6 0.8 1.2 1.3 2.1 1.3 4.9 0 7-0.3 0.6-0.6 1-1.1 1.5-2 1.9-4.8 2.5-7.4 1.5-2.1-0.8-3.7-2.6-4.3-4.8-0.6-2.2 0-4.7 1.5-6.3 0.2-0.2 0.4-0.4 0.4-0.4 0 0-0.4-0.3-0.7-0.7l-0.7-0.7-0.4 0.4" stroke="none" fill="black" fill-rule="evenodd"></path><path fill-opacity="0.977" d="M11.6 2.7c-1.5 0.1-2.9 0.5-4.1 1.4-0.3 0.1-0.6 0.4-0.8 0.6l-0.3 0.3 2.8 2.8 2.8 2.8 2.8-2.8 2.8-2.8-0.3-0.3c-1.1-1-2.7-1.7-4.2-1.9-0.4-0.1-1.2-0.1-1.5-0.1m-0.4 2c-0.5 0.1-1.5 0.4-1.7 0.5-0.1 0 0.2 0.3 1.2 1.3l1.3 1.3 1.3-1.3c1-1 1.3-1.3 1.2-1.3-0.2-0.1-1.2-0.4-1.7-0.5-0.6-0.1-1-0.1-1.6 0m-5.8 2.2c-1.6 1.8-2.4 3.8-2.4 6.1 0 3.2 1.6 6 4.3 7.7 2.8 1.7 6.6 1.7 9.4 0 2.7-1.7 4.3-4.5 4.3-7.7 0-2.3-0.8-4.4-2.4-6.1l-0.3-0.3-0.7 0.7-0.7 0.7 0.3 0.3c1 1.1 1.5 2.4 1.8 3.8 0 0.5 0 1.8-0.1 2.3-0.7 2.9-3 5.1-5.9 5.5-1.6 0.3-3.3-0.1-4.6-0.9-1.4-0.9-2.5-2.2-3-3.8-0.3-0.8-0.4-1.2-0.4-2.2 0-0.7 0-1 0.1-1.3 0.3-1.3 0.9-2.4 1.7-3.4l0.3-0.3-0.7-0.7-0.7-0.7-0.3 0.3" stroke="none" fill="black" fill-rule="evenodd"></path></svg>