<?xml version="1.0"?><svg xmlns="http://www.w3.org/2000/svg" width="24" height="24" viewBox="0 0 24 24" version="1.1"><rect x="0" y="0" width="24" height="24" fill="#00000000"></rect><path fill-opacity="0.294" d="M5.6 7.1c-0.8 0.4-0.8 1.5 0 1.8 0.2 0.1 0.9 0.1 6.4 0.1 6.7 0 6.4 0 6.7-0.3 0.2-0.1 0.3-0.4 0.3-0.7 0-0.3-0.1-0.6-0.3-0.7-0.3-0.3 0-0.3-6.7-0.3-5.9 0-6.2 0-6.4 0.1m0.1 3.9c-0.2 0.1-0.4 0.3-0.5 0.5-0.1 0.1-0.2 0.2-0.2 0.5 0 0.2 0.1 0.3 0.2 0.5 0.1 0.2 0.2 0.3 0.3 0.4 0.2 0.1 0.3 0.1 4.5 0.1 4.2 0 4.3 0 4.5-0.1 0.1-0.1 0.2-0.2 0.3-0.4 0.3-0.5 0.2-1.1-0.3-1.4l-0.2-0.1-4.2 0c-2.3 0-4.3 0-4.4 0m0 4c-0.2 0.1-0.4 0.3-0.5 0.5-0.1 0.1-0.2 0.2-0.2 0.5 0 0.2 0.1 0.3 0.2 0.5 0.1 0.2 0.2 0.3 0.3 0.4 0.2 0.1 0.3 0.1 4.5 0.1 4.2 0 4.3 0 4.5-0.1 0.1-0.1 0.2-0.2 0.3-0.4 0.3-0.5 0.2-1.1-0.3-1.4l-0.2-0.1-4.2 0c-2.3 0-4.3 0-4.4 0" stroke="none" fill="black" fill-rule="evenodd"></path><path fill-opacity="0.283" d="M5.6 7.1c-0.8 0.3-0.8 1.4-0.1 1.8l0.3 0.1 6.2 0 6.2 0 0.3-0.1c0.1-0.1 0.2-0.2 0.3-0.3 0.2-0.2 0.2-0.3 0.2-0.6 0-0.3 0-0.4-0.2-0.6-0.1-0.1-0.2-0.2-0.3-0.3-0.2-0.1-0.2-0.1-6.4-0.1-5.2 0-6.3 0-6.5 0.1m0.1 4c-0.8 0.2-0.9 1.3-0.2 1.8l0.2 0.1 4.3 0 4.3 0 0.2-0.1c0.7-0.5 0.6-1.7-0.3-1.8-0.4-0.1-8.1-0.1-8.5 0m0 4c-0.8 0.2-0.9 1.3-0.2 1.8l0.2 0.1 4.3 0 4.3 0 0.2-0.1c0.7-0.5 0.6-1.7-0.3-1.8-0.4-0.1-8.1-0.1-8.5 0" stroke="none" fill="black" fill-rule="evenodd"></path><path fill-opacity="0.682" d="M5.7 7c-0.2 0.1-0.4 0.3-0.6 0.6-0.1 0.3-0.1 0.5 0 0.9 0.2 0.2 0.2 0.2 0.4 0.4l0.3 0.1 6.2 0 6.2 0 0.3-0.1c0.2-0.2 0.2-0.2 0.4-0.4 0.1-0.4 0.1-0.6 0-0.9-0.1-0.2-0.2-0.3-0.4-0.4l-0.2-0.2-6.2 0c-3.4 0-6.3 0-6.4 0" stroke="none" fill="black" fill-rule="evenodd"></path><path fill-opacity="0.951" d="M5.7 7.1c-0.8 0.2-0.9 1.3-0.2 1.8l0.2 0.1 6.3 0 6.3 0 0.2-0.1c0.7-0.5 0.6-1.7-0.3-1.8-0.4-0.1-12.1-0.1-12.5 0" stroke="none" fill="black" fill-rule="evenodd"></path></svg>