<?xml version="1.0"?><svg xmlns="http://www.w3.org/2000/svg" width="24" height="24" viewBox="0 0 24 24" version="1.1"><rect x="0" y="0" width="24" height="24" fill="#00000000"></rect><path fill-opacity="0.455" d="M6 3l0 1 0.5 0 0.5 0 0 1.7c0 1.9 0 2.2 0.3 2.9 0.4 1.2 1.3 2.3 2.4 2.9 0.5 0.2 1.1 0.4 1.5 0.4 0.1 0 0.3 0.1 0.3 0.1 0 0-0.2 0.1-0.3 0.1-0.4 0-1.1 0.3-1.5 0.5-1.3 0.7-2.2 1.8-2.6 3.2-0.1 0.3-0.1 0.5-0.1 2.3l0 1.9-0.5 0-0.5 0 0 1 0 1 6 0 6 0 0-1 0-1-0.5 0-0.5 0 0-1.9c0-1.8 0-2-0.1-2.3-0.5-1.7-1.7-3-3.3-3.5-0.3-0.1-0.6-0.2-0.8-0.2-0.1 0-0.2-0.1-0.2-0.1 0 0 0.1-0.1 0.2-0.1 0.4 0 1.1-0.2 1.5-0.5 1.3-0.6 2.2-1.8 2.6-3.2 0.1-0.3 0.1-0.5 0.1-2.3l0-1.9 0.5 0 0.5 0 0-1 0-1-6 0-6 0 0 1m3 2.8c0 1.7 0 1.7 0.2 2.1 0.3 0.9 1 1.6 1.9 2 0.4 0.1 1.3 0.1 1.7 0 1-0.3 1.7-1 2-2 0.2-0.4 0.2-0.4 0.2-2.1l0-1.8-3 0-3 0 0 1.8m2 0.8c0 0.5 0 0.7 0.1 0.8 0.4 0.8 1.5 0.8 1.8 0 0.1-0.1 0.1-0.4 0.1-0.8l0-0.6-1 0-1 0 0 0.6m0.5 7.5c-1.1 0.1-2 1-2.4 2-0.1 0.3-0.1 0.4-0.1 2.1l0 1.8 3 0 3 0 0-1.8c0-2 0-2-0.4-2.6-0.2-0.4-0.7-1-1.1-1.2-0.5-0.3-1.4-0.5-2-0.3" stroke="none" fill="black" fill-rule="evenodd"></path><path fill-opacity="0.194" d="M6 3l0 1 0.5 0 0.5 0 0 1.7c0 1.8 0 2.2 0.3 2.9 0.6 1.8 2.2 3.1 3.9 3.3 0.3 0.1 0.4 0.1 0.2 0.2-0.3 0-1 0.1-1.3 0.3-1.2 0.5-2.2 1.5-2.7 2.7-0.4 0.9-0.4 0.9-0.4 3l0 1.9-0.5 0-0.5 0 0 1 0 1 6 0 6 0 0-1 0-1-0.5 0-0.5 0 0-1.9c0-1.7 0-1.9-0.1-2.3-0.4-1.4-1.2-2.4-2.3-3.1-0.6-0.3-1.5-0.6-2-0.6-0.2-0.1-0.1-0.1 0.2-0.2 1.5-0.2 2.9-1.2 3.6-2.6 0.5-1 0.6-1.4 0.6-3.6l0-1.7 0.5 0 0.5 0 0-1 0-1-6 0-6 0 0 1m3 2.6c0 1.3 0 1.8 0.1 2 0.2 1 0.9 1.9 1.9 2.2 0.3 0.2 0.5 0.2 1 0.2 0.5 0 0.7 0 1-0.2 1-0.3 1.7-1.2 1.9-2.2 0.1-0.2 0.1-0.7 0.1-2l0-1.6-3 0-3 0 0 1.6m2 1.1c0 0.6 0 0.6 0.1 0.8 0.1 0.1 0.3 0.3 0.4 0.3 0.1 0.2 0.2 0.2 0.5 0.2 0.3 0 0.4 0 0.5-0.2 0.1 0 0.3-0.2 0.4-0.3 0.1-0.2 0.1-0.2 0.1-0.8l0-0.7-1 0-1 0 0 0.7m0.4 7.4c-0.2 0-0.5 0.1-0.7 0.2-0.5 0.3-1.1 0.8-1.4 1.4-0.3 0.5-0.3 0.8-0.3 2.6l0 1.7 3 0 3 0 0-1.7c0-1.8 0-2.1-0.3-2.6-0.1-0.3-0.3-0.5-0.6-0.8-0.3-0.3-0.5-0.4-0.8-0.6-0.6-0.3-1.3-0.4-1.9-0.2" stroke="none" fill="black" fill-rule="evenodd"></path><path fill-opacity="0.589" d="M6 3l0 1 0.5 0 0.5 0 0 1.9c0 1.8 0 1.8 0.2 2.3 0.3 1.5 1.3 2.6 2.6 3.3 0.4 0.2 1.1 0.4 1.5 0.4 0.4 0.1 0.5 0.2 0.2 0.2-0.3 0-1.2 0.2-1.6 0.4-1.4 0.6-2.3 1.8-2.7 3.3-0.2 0.5-0.2 0.5-0.2 2.3l0 1.9-0.5 0-0.5 0 0 1 0 1 6 0 6 0 0-1 0-1-0.5 0-0.5 0 0-1.6c0-1.8 0-2.3-0.3-3-0.4-1.3-1.3-2.3-2.6-2.9-0.4-0.2-1.3-0.4-1.6-0.4-0.3 0-0.2-0.1 0.2-0.2 0.4 0 1.1-0.2 1.5-0.4 1.3-0.7 2.2-1.8 2.6-3.3 0.2-0.5 0.2-0.5 0.2-2.3l0-1.9 0.5 0 0.5 0 0-1 0-1-6 0-6 0 0 1m3 2.7c0 1.8 0 2 0.3 2.5 0.9 2.1 3.6 2.4 5 0.7 0.3-0.3 0.6-0.9 0.6-1.3 0.1-0.2 0.1-0.9 0.1-1.9l0-1.7-3 0-3 0 0 1.7m2 0.9c0 0.5 0 0.6 0.1 0.8 0.2 0.3 0.5 0.6 0.9 0.6 0.4 0 0.7-0.3 0.9-0.6 0.1-0.2 0.1-0.3 0.1-0.8l0-0.6-1 0-1 0 0 0.6m0.4 7.4c-0.3 0.1-0.8 0.3-1 0.5-0.6 0.3-1.1 1-1.3 1.5-0.1 0.4-0.1 0.5-0.1 2.2l0 1.8 3 0 3 0 0-1.8c0-1.7 0-1.8-0.1-2.2-0.3-0.8-1.1-1.5-1.9-1.8-0.3-0.1-0.5-0.2-0.9-0.2-0.3 0-0.6 0-0.7 0" stroke="none" fill="black" fill-rule="evenodd"></path><path fill-opacity="0.957" d="M6 3l0 1 0.5 0 0.5 0 0 1.5c0 1.6 0 2.2 0.2 2.8 0.5 1.8 2 3.2 3.8 3.6 0.2 0 0.5 0.1 0.6 0.1 0.2 0 0.3 0 0.3 0 0 0-0.1 0.1-0.3 0.1-0.3 0-1 0.1-1.4 0.3-1.4 0.5-2.5 1.7-3 3.2-0.2 0.6-0.2 1.2-0.2 2.9l0 1.5-0.5 0-0.5 0 0 1 0 1 6 0 6 0 0-1 0-1-0.5 0-0.5 0 0-1.5c0-2-0.1-2.6-0.4-3.5-0.5-1.1-1.5-2.1-2.7-2.6-0.5-0.2-1.2-0.3-1.5-0.3-0.2 0-0.2-0.1-0.2-0.1 0 0 0 0 0.2 0 0.1 0 0.4-0.1 0.6-0.1 1.8-0.4 3.3-1.8 3.8-3.6 0.2-0.6 0.2-1.2 0.2-2.8l0-1.5 0.5 0 0.5 0 0-1 0-1-6 0-6 0 0 1m3 2.8c0 2.1 0 2.2 0.5 2.9 0.6 0.8 1.5 1.3 2.5 1.3 1 0 1.9-0.5 2.5-1.3 0.5-0.7 0.5-0.8 0.5-2.9l0-1.8-3 0-3 0 0 1.8m2 0.7c0 0.6 0.1 0.9 0.3 1.2 0.4 0.4 1 0.4 1.4 0 0.2-0.3 0.3-0.6 0.3-1.2l0-0.5-1 0-1 0 0 0.5m0.2 7.6c-1 0.3-1.9 1.2-2.1 2.2-0.1 0.2-0.1 0.6-0.1 2l0 1.7 3 0 3 0 0-1.7c0-1.4 0-1.8-0.1-2-0.2-1.1-1.1-1.9-2.1-2.2-0.4-0.1-1.2-0.1-1.6 0" stroke="none" fill="black" fill-rule="evenodd"></path></svg>