<?xml version="1.0"?><svg xmlns="http://www.w3.org/2000/svg" width="24" height="24" viewBox="0 0 24 24" version="1.1"><rect x="0" y="0" width="24" height="24" fill="#00000000"></rect><path fill-opacity="0.408" d="M3 12l0 5 2.5 0 2.5 0 0-1 0-1-1.5 0-1.5 0 0-3 0-3 7 0 7 0 0 3 0 3-1.5 0-1.5 0 0 1 0 1 2.5 0 2.5 0 0-5 0-5-9 0-9 0 0 5m7 4.5l-2 2.5 2 0c1.1 0 2.9 0 4 0l2 0-2-2.5c-1.1-1.4-2-2.5-2-2.5 0 0-0.9 1.1-2 2.5" stroke="none" fill="black" fill-rule="evenodd"></path><path fill-opacity="0.344" d="M3 12l0 5 2.5 0 2.5 0 0-1 0-1-1.5 0-1.5 0 0-3 0-3 7 0 7 0 0 3 0 3-1.5 0-1.5 0 0 1 0 1 2.5 0 2.5 0 0-5 0-5-9 0-9 0 0 5m7 4.5l-2 2.5 4 0 4 0-2-2.5c-1.1-1.3-2-2.4-2-2.4 0 0-0.9 1.1-2 2.4" stroke="none" fill="black" fill-rule="evenodd"></path><path fill-opacity="0.414" d="M3 12l0 5 2.5 0 2.5 0 0-1 0-1-1.5 0-1.5 0 0-3 0-3 7 0 7 0 0 3 0 3-1.5 0-1.5 0 0 1 0 1 2.5 0 2.5 0 0-5 0-5-9 0-9 0 0 5m7 4.5c-1 1.3-1.9 2.4-1.9 2.5-0.1 0 1.7 0 3.9 0 2.2 0 4 0 3.9 0 0-0.1-3.9-4.9-3.9-4.9 0 0-0.9 1-2 2.4" stroke="none" fill="black" fill-rule="evenodd"></path><path fill-opacity="0.983" d="M3 12l0 5 2.5 0 2.5 0 0-1 0-1-1.5 0-1.5 0 0-3 0-3 7 0 7 0 0 3 0 3-1.5 0-1.5 0 0 1 0 1 2.5 0 2.5 0 0-5 0-5-9 0-9 0 0 5m7 4.5l-2 2.5 2 0c1.1 0 2.9 0 4 0l2 0-2-2.5c-1.1-1.3-2-2.4-2-2.4 0 0-0.9 1.1-2 2.4" stroke="none" fill="black" fill-rule="evenodd"></path></svg>