<?xml version="1.0"?><svg xmlns="http://www.w3.org/2000/svg" width="24" height="24" viewBox="0 0 24 24" version="1.1"><rect x="0" y="0" width="24" height="24" fill="#00000000"></rect><path fill-opacity="0.439" d="M4.6 2.1c-0.3 0.1-0.4 0.3-0.5 0.5-0.1 0.2-0.1 1.2-0.1 9.4 0 8.2 0 9.2 0.1 9.4 0.1 0.2 0.2 0.4 0.5 0.5 0.2 0.1 0.5 0.1 7.4 0.1 6.4 0 7.2 0 7.4-0.1 0.2-0.1 0.4-0.2 0.5-0.5 0.1-0.2 0.1-0.5 0.1-9.4 0-8.9 0-9.2-0.1-9.4-0.1-0.3-0.3-0.4-0.5-0.5-0.2-0.1-1-0.1-7.4-0.1-6.9 0-7.2 0-7.4 0.1m1.4 9.9l0 8 6 0 6 0 0-8 0-8-6 0-6 0 0 8m2-4l0 2 1 0 1 0 0-1 0-1 1 0 1 0 0-1 0-1-2 0-2 0 0 2m6 7l0 1-1 0-1 0 0 1 0 1 2 0 2 0 0-2 0-2-1 0-1 0 0 1" stroke="none" fill="black" fill-rule="evenodd"></path><path fill-opacity="0.196" d="M4.7 2.1c-0.3 0-0.6 0.4-0.6 0.6-0.1 0.1-0.1 3-0.1 9.4l0 9.2 0.2 0.3c0.1 0.1 0.2 0.2 0.3 0.3l0.3 0.1 7.2 0 7.2 0 0.3-0.1c0.1-0.1 0.2-0.2 0.3-0.3l0.2-0.3 0-9.3 0-9.3-0.2-0.2c0-0.1-0.2-0.3-0.3-0.4l-0.2-0.1-7.2 0c-4.5 0-7.3 0-7.4 0.1m1.3 9.9l0 8 6 0 6 0 0-8 0-8-6 0-6 0 0 8m2-4l0 2 1 0 1 0 0-1 0-1 1 0 1 0 0-1 0-1-2 0-2 0 0 2m6 7l0 1-1 0-1 0 0 1 0 1 2 0 2 0 0-2 0-2-1 0-1 0 0 1" stroke="none" fill="black" fill-rule="evenodd"></path><path fill-opacity="0.496" d="M4.8 2c-0.3 0.1-0.5 0.3-0.7 0.5l-0.1 0.2 0 9.3 0 9.3 0.2 0.2c0.1 0.2 0.2 0.3 0.4 0.4l0.2 0.1 7.2 0 7.2 0 0.2-0.1c0.2-0.1 0.3-0.2 0.4-0.4l0.2-0.2 0-9.3 0-9.3-0.2-0.2c0-0.1-0.2-0.3-0.3-0.4l-0.2-0.1-7.2 0c-3.9 0-7.2 0-7.3 0m1.2 10l0 8 6 0 6 0 0-8 0-8-6 0-6 0 0 8m2-4l0 2 1 0 1 0 0-1 0-1 1 0 1 0 0-1 0-1-2 0-2 0 0 2m6 7l0 1-1 0-1 0 0 1 0 1 2 0 2 0 0-2 0-2-1 0-1 0 0 1" stroke="none" fill="black" fill-rule="evenodd"></path><path fill-opacity="0.965" d="M4.7 2.1c-0.3 0.1-0.6 0.3-0.6 0.7-0.1 0.4-0.1 18 0 18.4 0 0.3 0.2 0.6 0.5 0.7 0.1 0.1 0.6 0.1 7.4 0.1 6.8 0 7.3 0 7.4-0.1 0.3-0.1 0.5-0.4 0.5-0.7 0.1-0.4 0.1-18 0-18.4 0-0.4-0.3-0.7-0.7-0.7-0.4-0.1-14.1-0.1-14.5 0m1.3 9.9l0 8 6 0 6 0 0-8 0-8-6 0-6 0 0 8m2-4l0 2 1 0 1 0 0-1 0-1 1 0 1 0 0-1 0-1-2 0-2 0 0 2m6 7l0 1-1 0-1 0 0 1 0 1 2 0 2 0 0-2 0-2-1 0-1 0 0 1" stroke="none" fill="black" fill-rule="evenodd"></path></svg>