<?xml version="1.0"?><svg xmlns="http://www.w3.org/2000/svg" width="24" height="24" viewBox="0 0 24 24" version="1.1"><rect x="0" y="0" width="24" height="24" fill="#00000000"></rect><path fill-opacity="0.310" d="M2.5 6.6c-1.1 0.1-2.2 1.1-2.4 2.2-0.1 0.5-0.1 6 0 6.4 0.2 1 1 1.9 2 2.2 0.3 0.1 0.6 0.1 4.6 0.1l4.3 0.1 0 0.4 0 0.5-1.1 0c-1.1 0-1.2 0-1.4 0.1-0.1 0.1-0.3 0.3-0.3 0.4-0.2 0.1-0.2 0.2-0.2 0.5 0 0.3 0 0.4 0.1 0.6 0.2 0.2 0.4 0.3 0.7 0.4 0.2 0.1 6.2 0.1 6.4 0 0.3-0.1 0.5-0.2 0.7-0.4 0.1-0.3 0.1-0.8 0-1.1-0.2-0.2-0.4-0.4-0.7-0.5-0.1 0-0.6 0-1.2 0l-1 0 0-0.5 0-0.4 4.3-0.1c4 0 4.3 0 4.6-0.1 0.7-0.2 1.4-0.8 1.8-1.5 0.1-0.3 0.2-0.6 0.2-0.7 0-0.1 0.1-0.2 0.1-0.2 0 0 0.1-1.4 0.1-3 0-1.8-0.1-3-0.1-3 0 0-0.1-0.1-0.1-0.2 0-0.3-0.4-1-0.7-1.3-0.3-0.4-0.8-0.7-1.3-0.8l-0.3-0.2-9.4 0c-5.2 0-9.6 0-9.7 0.1m0.1 2c-0.2 0.1-0.4 0.3-0.5 0.5-0.1 0.1-0.1 0.4-0.1 2.9 0 2.7 0 2.8 0.1 3 0.1 0.1 0.2 0.2 0.3 0.3l0.2 0.2 9.4 0 9.4 0 0.2-0.2c0.1-0.1 0.2-0.2 0.3-0.3 0.1-0.2 0.1-0.3 0.1-2.9 0-1.5 0-2.8-0.1-2.9 0-0.2-0.2-0.4-0.5-0.6-0.1 0-0.3 0-9.4 0-8.4 0-9.3 0-9.4 0m-2.6 3.4c0 1.7 0 2.3 0 1.5 0-0.8 0-2.2 0-3 0-0.8 0-0.1 0 1.5" stroke="none" fill="black" fill-rule="evenodd"></path><path fill-opacity="0.267" d="M2.6 6.6c-0.7 0-1.4 0.4-1.9 0.9-0.3 0.4-0.6 1-0.6 1.4-0.1 0.2-0.1 1.4-0.1 3.2 0 2.6 0 2.8 0.1 3.2 0.1 0.5 0.4 0.9 0.8 1.3 0.4 0.4 0.7 0.6 1.2 0.8l0.4 0.1 4.2 0 4.3 0.1 0 0.4 0 0.5-1 0c-0.5 0-1.1 0-1.2 0.1-0.3 0-0.5 0.2-0.7 0.5-0.2 0.4-0.1 0.8 0.2 1.1 0.2 0.2 0.3 0.2 0.5 0.3 0.4 0.1 6 0.1 6.4 0 0.8-0.2 1.1-1.2 0.4-1.7-0.2-0.3-0.5-0.3-1.6-0.3l-1 0 0-0.5 0-0.4 4.3-0.1 4.2 0 0.4-0.1c0.5-0.2 0.8-0.4 1.2-0.8 0.4-0.4 0.7-0.9 0.8-1.3 0-0.2 0.1-0.3 0.1-0.4 0.1 0 0.1-5.9 0-5.8 0 0-0.1-0.2-0.1-0.4-0.3-0.9-1-1.7-2.1-2.1-0.3-0.1-0.7-0.1-9.6-0.1-5.1 0-9.4 0-9.6 0.1m0 2c-0.3 0.1-0.4 0.3-0.5 0.6-0.1 0.1-0.1 0.5-0.1 2.9 0 2.6 0 2.7 0.1 2.9 0.1 0.1 0.2 0.2 0.3 0.3l0.3 0.2 9.3 0 9.4 0 0.2-0.2c0.1-0.1 0.2-0.2 0.3-0.3 0.1-0.2 0.1-0.3 0.1-2.9l0-2.8-0.1-0.2c-0.1-0.1-0.2-0.3-0.3-0.4l-0.2-0.1-9.3 0c-8.4 0-9.4 0-9.5 0m-2.6 3.4c0 1.6 0 2.3 0 1.5 0-0.8 0-2.2 0-3 0-0.8 0-0.1 0 1.5" stroke="none" fill="black" fill-rule="evenodd"></path><path fill-opacity="0.449" d="M2.2 6.6c-0.3 0.1-0.8 0.4-1.1 0.6-0.4 0.3-0.8 0.9-1 1.4-0.1 0.4-0.1 0.4-0.1 3.4 0 3 0 3.1 0.1 3.4 0.3 0.7 0.8 1.4 1.5 1.8 0.6 0.3 0.5 0.3 5.2 0.3l4.2 0 0 0.5 0 0.6-1.1 0c-0.9 0-1.1 0-1.3 0-0.8 0.4-0.8 1.4 0 1.8 0.1 0.1 0.3 0.1 3.4 0.1 3.1 0 3.3 0 3.4-0.1 0.6-0.3 0.8-1 0.4-1.5-0.3-0.3-0.4-0.3-1.7-0.3l-1.1 0 0-0.6 0-0.5 4.2 0c4.7 0 4.5 0 5.1-0.3 0.8-0.4 1.5-1.2 1.6-2 0-0.1 0.1-0.3 0.1-0.3 0.1-0.1 0.1-5.8 0-5.7 0 0 0-0.1-0.1-0.2-0.1-0.9-0.8-1.8-1.6-2.2-0.6-0.3 0-0.2-10.3-0.2-7.6 0-9.6 0-9.8 0m0.6 2c-0.3 0-0.4 0.1-0.6 0.4l-0.2 0.2 0 2.7c0 3.1 0 3 0.4 3.4 0.1 0.1 0.2 0.2 0.3 0.2 0.2 0 18.4 0 18.6 0 0.1 0 0.2-0.1 0.3-0.2 0.4-0.4 0.4-0.3 0.4-3.4l0-2.7-0.2-0.2c-0.2-0.3-0.3-0.4-0.6-0.5-0.2 0-18.2 0-18.4 0.1m-2.8 3.5c0 1.5 0 2.2 0 1.4 0-0.8 0-2.1 0-2.9 0-0.8 0-0.1 0 1.5" stroke="none" fill="black" fill-rule="evenodd"></path><path fill-opacity="0.972" d="M2.3 6.6c-1 0.3-1.9 1.1-2.2 2.1-0.1 0.3-0.1 0.6-0.1 3.3 0 2.8 0 3 0.1 3.3 0.3 1.1 1.1 1.9 2.2 2.1 0.2 0.1 0.9 0.1 4.5 0.1l4.2 0 0 0.5 0 0.6-1.1 0c-1.1 0-1.1 0-1.4 0.1-0.7 0.3-0.6 1.4 0.1 1.7 0.2 0.1 0.4 0.1 3.4 0.1 3 0 3.2 0 3.4-0.1 0.7-0.3 0.8-1.4 0.1-1.7-0.3-0.1-0.3-0.1-1.4-0.1l-1.1 0 0-0.6 0-0.5 4.2 0c4.6 0 4.5 0 5.1-0.3 0.9-0.4 1.7-1.5 1.7-2.3 0-0.1 0-0.2 0-0.2 0 0 0.1-0.9 0.1-2.7 0-1.8-0.1-2.7-0.1-2.7 0 0 0 0 0-0.1 0-0.3-0.2-0.7-0.3-1-0.3-0.6-0.8-1.1-1.4-1.3-0.6-0.4 0.1-0.4-10.3-0.3-5.2 0-9.6 0-9.7 0m0.3 2c-0.2 0.1-0.4 0.2-0.4 0.4l-0.2 0.2 0 2.8c0 2.7 0 2.8 0.1 3 0.1 0.1 0.2 0.3 0.3 0.4l0.3 0.1 9.3 0 9.3 0 0.3-0.1c0.1-0.1 0.2-0.3 0.3-0.4 0.1-0.2 0.1-0.3 0.1-3l0-2.8-0.2-0.2c0-0.2-0.2-0.3-0.4-0.4l-0.2-0.1-9.2 0-9.2 0-0.2 0.1m-2.6 3.5c0 1.4 0 2.1 0 1.3 0-0.7 0-2 0-2.7 0-0.8 0-0.1 0 1.4" stroke="none" fill="black" fill-rule="evenodd"></path></svg>