<?xml version="1.0"?><svg xmlns="http://www.w3.org/2000/svg" width="24" height="24" viewBox="0 0 24 24" version="1.1"><rect x="0" y="0" width="24" height="24" fill="#00000000"></rect><path fill-opacity="0.329" d="M4.5 7l0 1.5 2.8 0 2.7 0.1 0.5-1.5c0.3-0.8 0.6-1.5 0.6-1.5 0 0-1.5 0-3.3 0l-3.3 0 0 1.4m8.5-1.4c0 0-0.2 0.7-0.5 1.5-0.3 0.7-0.5 1.4-0.5 1.4 0 0 1 0 3.8 0l3.7 0 0-1.5 0.1-1.4-3.3 0c-2.6 0-3.3 0-3.3 0m-8.5 5c0 0 0 0.7 0 1.5l0 1.4 1.8 0 1.9 0 0.5-1.4c0.3-0.9 0.5-1.5 0.5-1.6 0 0-1 0-2.3 0-1.8 0-2.4 0-2.4 0.1m6.7 0c0 0-0.2 0.7-0.5 1.5-0.3 0.8-0.5 1.4-0.5 1.4 0 0 2.1 0 4.6 0l4.7 0 0-1.5 0-1.5-4.1 0c-3.3 0-4.2 0-4.2 0.1m-6.7 4.9c0 0.1 0 0.7 0 1.5l0 1.5 0.9 0 1 0 0.5-1.4c0.3-0.8 0.5-1.5 0.5-1.5 0-0.1-0.1-0.1-1.4-0.1-0.8 0-1.4 0-1.5 0m4.9 0.2c-0.1 0.2-1.1 2.8-1.1 2.8 0 0 2.6 0 5.7 0l5.6 0-0.1-1.5 0-1.5-5 0-5.1 0 0 0.2" stroke="none" fill="black" fill-rule="evenodd"></path><path fill-opacity="0.258" d="M4.5 7l0 1.5 2.7 0 2.8 0.1 0-0.2c0.1-0.2 1.1-2.8 1.1-2.8 0 0-1.5 0-3.3 0l-3.3 0 0 1.4m8.5-1.3c0 0.1-0.3 0.7-0.5 1.4-0.3 0.8-0.5 1.4-0.5 1.4 0 0 1.3 0 3.8 0l3.7 0 0-1.5 0.1-1.4-3.3 0-3.2 0-0.1 0.1m-8.5 4.9c0 0 0 0.7 0 1.5l0 1.4 1.8 0 1.9 0 0.5-1.4c0.3-0.8 0.5-1.5 0.5-1.5 0.1-0.1-0.1-0.1-2.3-0.1-1.8 0-2.4 0-2.4 0.1m6.7 0.1c-0.6 1.6-1 2.8-1 2.8 0 0 2.2 0 4.7 0l4.6 0 0-1.5 0-1.5-4.1 0-4.1 0-0.1 0.2m-6.7 4.8c0 0.1 0 0.7 0 1.5l0 1.5 0.9 0 1 0 0.5-1.4c0.3-0.8 0.5-1.5 0.5-1.5 0-0.1-0.3-0.1-1.4-0.1-0.8 0-1.4 0-1.5 0m4.9 0c0 0.1-0.2 0.7-0.5 1.5-0.3 0.7-0.5 1.4-0.5 1.4-0.1 0.1 0.2 0.1 5.5 0.1l5.7 0-0.1-1.5 0-1.5-5 0c-2.8 0-5.1 0-5.1 0" stroke="none" fill="black" fill-rule="evenodd"></path><path fill-opacity="0.378" d="M4.5 7l0 1.5 2.8 0 2.7 0 0.5-1.4c0.3-0.8 0.5-1.4 0.5-1.5 0.1 0-0.1 0-3.2 0l-3.3 0 0 1.4m8.1 0c-0.3 0.7-0.6 1.4-0.6 1.4 0 0.1 0.8 0.1 3.7 0.1l3.8 0 0-1.5 0-1.4-3.2 0-3.2 0-0.5 1.4m-8.1 5l0 1.5 1.9 0 1.8 0 0.5-1.5 0.5-1.4-2.3 0-2.4 0 0 1.4m6.7-1.4c-0.3 0.8-1 2.8-1 2.9 0 0 2.1 0 4.7 0l4.6 0 0-1.5 0-1.4-4.1 0c-3.3 0-4.2 0-4.2 0m-6.7 6.4l0 1.5 0.9 0c0.9 0 0.9 0 1-0.1 0.1-0.2 1-2.8 1-2.8 0 0-0.6 0-1.4 0l-1.5 0 0 1.4m4.5-0.3c-0.2 0.7-0.5 1.3-0.5 1.5l-0.1 0.3 5.5 0 5.6 0 0-1.5 0-1.4-5 0-5.1 0-0.4 1.1" stroke="none" fill="black" fill-rule="evenodd"></path><path fill-opacity="0.987" d="M4.5 7l0 1.5 2.8 0 2.7 0 0.4-1.2c0.2-0.6 0.5-1.3 0.5-1.4l0.1-0.3-3.2 0-3.3 0 0 1.4m8.2-0.3c-0.3 0.7-0.5 1.3-0.6 1.5l-0.1 0.3 3.8 0 3.7 0 0-1.5 0-1.4-3.2 0-3.2 0-0.4 1.1m-8.2 5.3l0 1.5 1.9 0 1.8 0 0.5-1.4c0.3-0.8 0.5-1.5 0.5-1.5 0 0-1 0-2.3 0l-2.4 0 0 1.4m6.7-1.3c0 0.1-0.3 0.7-0.5 1.4-0.3 0.8-0.5 1.4-0.5 1.4 0 0 2.1 0 4.7 0l4.6 0 0-1.5 0-1.4-4.1 0-4.1 0-0.1 0.1m-6.7 6.3l0 1.5 0.9 0 0.9 0 0.5-1.4c0.3-0.8 0.6-1.4 0.6-1.5 0 0-0.1 0-1.4 0l-1.5 0 0 1.4m4.9-1.3c0 0.1-0.3 0.7-0.5 1.5l-0.5 1.3 5.5 0 5.6 0 0-1.5 0-1.4-5 0-5.1 0 0 0.1" stroke="none" fill="black" fill-rule="evenodd"></path></svg>