<?xml version="1.0"?><svg xmlns="http://www.w3.org/2000/svg" width="24" height="24" viewBox="0 0 24 24" version="1.1"><rect x="0" y="0" width="24" height="24" fill="#00000000"></rect><path fill-opacity="0.467" d="M7 7.1l-4.9 4.9 4.9 5 5 4.9 5-4.9 4.9-5-4.9-4.9c-2.7-2.8-5-5-5-5 0 0-2.3 2.2-5 5m2.2 2.1l-2.8 2.8 2.8 2.8c1.5 1.6 2.8 2.8 2.8 2.8 0 0 1.3-1.2 2.8-2.8l2.8-2.8-2.8-2.8c-1.5-1.6-2.8-2.8-2.8-2.8 0 0-1.3 1.2-2.8 2.8" stroke="none" fill="black" fill-rule="evenodd"></path><path fill-opacity="0.036" d="M7 7.1l-4.9 4.9 4.9 5 5 4.9 5-4.9 4.9-5-4.9-4.9c-2.7-2.8-5-5-5-5 0 0-2.3 2.2-5 5m2.1 2.1l-2.8 2.8 2.9 2.8 2.8 2.9 2.8-2.9 2.9-2.8-2.8-2.8c-1.6-1.6-2.9-2.8-2.9-2.8 0 0-1.3 1.2-2.9 2.8" stroke="none" fill="black" fill-rule="evenodd"></path><path fill-opacity="0.115" d="M7 7l-4.9 5 4.9 4.9 5 5 4.9-4.9 5-5-5-4.9c-2.7-2.8-4.9-5-4.9-5 0 0-2.2 2.2-5 4.9m2.1 2.2l-2.8 2.8 2.9 2.8 2.8 2.9 2.8-2.9 2.9-2.8-2.8-2.8c-1.6-1.6-2.9-2.8-2.9-2.8 0 0-1.3 1.2-2.9 2.8" stroke="none" fill="black" fill-rule="evenodd"></path><path fill-opacity="0.983" d="M7 7.1l-4.9 4.9 5 4.9 4.9 5 4.9-5 5-4.9-4.9-4.9c-2.8-2.7-5-5-5-5 0 0-2.2 2.3-5 5m2.1 2.1l-2.8 2.8 2.9 2.8 2.8 2.9 2.8-2.9 2.9-2.8-2.8-2.8c-1.6-1.6-2.9-2.8-2.9-2.8 0 0-1.3 1.2-2.9 2.8" stroke="none" fill="black" fill-rule="evenodd"></path></svg>