<?xml version="1.0"?><svg xmlns="http://www.w3.org/2000/svg" width="24" height="24" viewBox="0 0 24 24" version="1.1"><rect x="0" y="0" width="24" height="24" fill="#00000000"></rect><path fill-opacity="0.447" d="M14.9 4.1c-0.6 0.1-1.1 0.2-1.6 0.4-3.2 1.1-5.3 4.1-5.3 7.5 0 4 3 7.4 6.9 7.9 0.3 0.1 0.7 0.1 0.8 0.1l0.3 0 0-1.5c0-1.2 0-1.5-0.1-1.5-0.2 0-1-0.1-1.3-0.2-1.3-0.4-2.5-1.4-3.1-2.6-0.9-1.9-0.5-4.2 0.9-5.7 0.6-0.6 1.3-1 2.2-1.3 0.3-0.1 1.1-0.2 1.3-0.2 0.1 0 0.1-0.3 0.1-1.5l0-1.5-0.4 0c-0.2 0-0.5 0-0.7 0.1" stroke="none" fill="black" fill-rule="evenodd"></path><path fill-opacity="0.348" d="M15.1 4.1c-1.8 0.2-3.5 1-4.7 2.3-2.2 2.1-2.9 5.2-2 8.1 1 3 3.7 5.2 6.8 5.4 0.3 0.1 0.6 0.1 0.7 0.1l0.1 0 0-1.5 0-1.5-0.4 0c-1.4-0.2-2.6-0.8-3.5-1.9-1.2-1.5-1.4-3.6-0.6-5.3 0.6-1.1 1.5-1.9 2.5-2.4 0.4-0.2 1.1-0.3 1.6-0.4l0.4 0 0-1.5 0-1.5-0.3 0c-0.1 0-0.4 0-0.6 0.1" stroke="none" fill="black" fill-rule="evenodd"></path><path fill-opacity="0.130" d="M15.2 4.1c-3 0.2-5.7 2.3-6.7 5.2-0.3 0.9-0.5 1.7-0.5 2.7 0 0.8 0.1 1.2 0.3 1.9 0.5 2.1 1.7 3.8 3.5 4.9 1.2 0.7 2.3 1.1 3.8 1.2l0.4 0 0-1.5 0-1.5-0.2 0c-0.6 0-1.5-0.2-2.1-0.6-1.3-0.6-2.1-1.7-2.5-3.1-0.2-0.5-0.2-0.6-0.2-1.3 0-0.7 0-0.8 0.2-1.3 0.3-1.1 1-2.1 1.9-2.8 0.7-0.5 1.6-0.8 2.5-0.9l0.4 0 0-1.5 0-1.5-0.2 0c-0.1 0-0.3 0-0.6 0.1" stroke="none" fill="black" fill-rule="evenodd"></path><path fill-opacity="0.975" d="M15.6 4c-3.8 0.2-6.9 3-7.5 6.8-0.1 0.6-0.1 1.8 0 2.5 0.6 3.7 3.7 6.5 7.5 6.7l0.4 0 0-1.5 0-1.5-0.2 0c-0.4 0-1.2-0.2-1.5-0.3-1.6-0.6-2.8-1.9-3.2-3.5-0.1-0.6-0.1-1.9 0-2.3 0.4-1.6 1.4-2.8 2.8-3.4 0.5-0.3 1.1-0.4 1.7-0.5l0.4 0 0-1.5c0-1.2 0-1.5-0.1-1.5 0 0-0.1 0-0.3 0" stroke="none" fill="black" fill-rule="evenodd"></path></svg>