<?xml version="1.0"?><svg xmlns="http://www.w3.org/2000/svg" width="24" height="24" viewBox="0 0 24 24" version="1.1"><rect x="0" y="0" width="24" height="24" fill="#00000000"></rect><path fill-opacity="0.380" d="M11.2 4c-1.2 0.2-1.9 0.4-2.8 0.9-1.7 0.8-3 2.2-3.8 4-1.4 3.4-0.3 7.3 2.6 9.5 2.9 2.1 6.8 2.1 9.6 0 4-3 4.3-9.1 0.5-12.4-1.1-0.9-2.5-1.6-3.9-1.9-0.4-0.1-1.9-0.1-2.2-0.1m0.2 3.1c-1.1 0.1-2.1 0.6-2.9 1.4-2 1.9-2 5.1 0 7 1.7 1.7 4.3 2 6.3 0.6 1.5-1 2.4-2.9 2.2-4.6-0.2-1.2-0.7-2.2-1.5-3-0.8-0.8-1.8-1.3-3-1.4-0.5-0.1-0.6-0.1-1.1 0" stroke="none" fill="black" fill-rule="evenodd"></path><path fill-opacity="0.443" d="M11.4 4c-1.1 0.1-1.8 0.3-2.7 0.7-2 0.9-3.5 2.6-4.2 4.6-0.8 2.1-0.6 4.3 0.3 6.2 1.8 3.6 5.9 5.3 9.7 4.1 3.5-1.2 5.8-4.6 5.5-8.3-0.3-2.6-1.7-4.9-4-6.2-1.3-0.8-3.1-1.2-4.6-1.1m0.1 3c-0.1 0-0.3 0.1-0.5 0.1-0.9 0.2-2.1 0.9-2.8 1.6-1.9 2.3-1.5 5.7 1 7.5 0.8 0.5 1.9 0.8 2.8 0.8 0.2 0 0.5 0 0.8-0.1 1.2-0.2 2.3-0.8 3.1-1.8 1.2-1.5 1.4-3.6 0.6-5.3-0.7-1.3-1.9-2.3-3.4-2.7-0.3-0.1-1.4-0.1-1.6-0.1" stroke="none" fill="black" fill-rule="evenodd"></path><path fill-opacity="0.216" d="M11.3 4.1c-0.7 0-1.1 0.1-1.7 0.3-4.8 1.6-7 6.9-4.6 11.3 0.6 1.2 1.7 2.4 2.8 3.1 2.6 1.5 5.7 1.6 8.3 0.1 0.5-0.3 1.1-0.8 1.6-1.3 3-3.1 3-8.1 0-11.2-0.9-0.9-2-1.6-3.3-2-0.9-0.3-2.2-0.4-3.1-0.3m-0.2 3c-3.3 0.6-5.1 4.2-3.5 7.2 0.6 1.3 1.7 2.2 3.2 2.6 0.3 0 0.5 0.1 1.2 0.1 0.7 0 0.9-0.1 1.2-0.1 1.5-0.4 2.6-1.3 3.2-2.6 0.5-0.8 0.6-1.6 0.6-2.6-0.1-2-1.5-3.8-3.4-4.5-0.7-0.2-1.7-0.3-2.5-0.1" stroke="none" fill="black" fill-rule="evenodd"></path><path fill-opacity="0.971" d="M11.6 4c-2 0.2-3.7 0.9-5.1 2.3-3 2.8-3.3 7.4-0.8 10.6 1 1.3 2.4 2.2 3.9 2.7 1.5 0.5 3.3 0.5 4.8 0 2.5-0.8 4.4-2.7 5.2-5.2 0.5-1.5 0.5-3.3 0-4.8-0.8-2.7-3-4.7-5.7-5.3-0.6-0.2-1.7-0.3-2.3-0.3m-0.3 3c-1.1 0.2-2.2 0.7-2.9 1.5-0.6 0.7-1 1.3-1.2 2.2-0.2 0.4-0.2 0.5-0.2 1.3 0 0.8 0 0.9 0.2 1.3 0.5 1.8 1.8 3.1 3.7 3.6 0.4 0.1 1.8 0.1 2.3 0 1.8-0.5 3.1-1.7 3.6-3.6 0.2-0.4 0.2-0.5 0.2-1.3 0-0.8 0-0.9-0.2-1.3-0.2-0.9-0.6-1.5-1.2-2.2-0.7-0.7-1.4-1.1-2.4-1.4-0.3-0.1-1.6-0.1-1.9-0.1" stroke="none" fill="black" fill-rule="evenodd"></path></svg>