<?xml version="1.0"?><svg xmlns="http://www.w3.org/2000/svg" width="24" height="24" viewBox="0 0 24 24" version="1.1"><rect x="0" y="0" width="24" height="24" fill="#00000000"></rect><path fill-opacity="0.357" d="M21.2 3.1c-0.7 0.2-1.3 0.7-1.7 1.3-0.4 0.6-0.5 1.1-0.5 1.8 0 0.5 0 0.5-0.1 0.6 0 0-1.1 0.7-2.4 1.6-1.7 1.2-2.3 1.6-2.3 1.5-0.1-0.1-0.5-0.4-0.8-0.6-0.4-0.2-0.9-0.3-1.4-0.3-2.2 0-3.7 2.3-2.7 4.3 0.5 1.1 1.6 1.7 2.9 1.7 0.7 0 1.3-0.3 1.8-0.8l0.3-0.2 2.2 1.6c1.3 0.9 2.4 1.6 2.4 1.6 0.1 0.1 0.1 0.1 0.1 0.6 0 0.6 0.1 1 0.3 1.5 0.7 1.5 2.5 2.1 4 1.4 0.2-0.1 0.4-0.2 0.5-0.3l0.2-0.2 0-2.2 0-2.2-0.2-0.2c-0.5-0.4-1.2-0.6-1.9-0.6-0.6 0-1.1 0.2-1.5 0.5l-0.3 0.2-0.1-0.1c-0.1-0.1-1.2-0.9-2.6-1.8-1.3-1-2.4-1.8-2.4-1.8 0 0 1.1-0.8 2.4-1.8 1.4-0.9 2.5-1.7 2.6-1.8l0.1-0.1 0.1 0.1c1 0.8 2.7 0.8 3.6 0l0.2-0.2 0-2.2 0-2.2-0.2-0.2c-0.6-0.5-1.7-0.7-2.6-0.5" stroke="none" fill="black" fill-rule="evenodd"></path><path fill-opacity="0.488" d="M21.4 3.1c-1.2 0.2-2.1 1.2-2.3 2.3-0.1 0.4-0.1 0.8-0.1 1.1 0.1 0.2 0.1 0.2-0.1 0.3-0.1 0-1.1 0.7-2.4 1.6l-2.3 1.6-0.2-0.2c-0.5-0.5-1.3-0.8-2-0.8-1.6 0-3 1.4-3 3 0 1 0.6 2 1.4 2.5 0.6 0.4 0.9 0.5 1.6 0.5 0.5 0 0.6 0 0.9-0.1 0.4-0.2 0.9-0.4 1.1-0.7l0.2-0.2 2.3 1.6c1.3 0.8 2.3 1.6 2.4 1.6 0.2 0.1 0.2 0.1 0.1 0.3-0.2 1.1 0.4 2.4 1.4 3 0.6 0.4 0.9 0.5 1.6 0.5 0.4 0 0.6 0 0.9-0.1 0.3-0.1 0.6-0.3 0.9-0.5l0.2-0.2 0-2.2 0-2.3-0.3-0.2c-1-0.7-2.3-0.7-3.3 0-0.3 0.2-0.3 0.2-0.4 0.1-0.1-0.1-1.2-0.9-2.6-1.8-1.5-1.1-2.4-1.8-2.4-1.8 0 0 0.9-0.7 2.4-1.8 1.4-0.9 2.5-1.7 2.6-1.8 0.1-0.1 0.1-0.1 0.4 0.1 1 0.7 2.4 0.7 3.4-0.1l0.2-0.2 0-2.2 0-2.2-0.2-0.2c-0.7-0.5-1.6-0.7-2.4-0.5" stroke="none" fill="black" fill-rule="evenodd"></path><path fill-opacity="0.535" d="M21.4 3.1c-1.4 0.3-2.3 1.5-2.4 2.8 0 0.2 0 0.5 0.1 0.6 0 0.2 0 0.2-0.2 0.3-0.1 0.1-2.6 1.8-4.4 3.1l-0.2 0.1-0.3-0.2c-0.4-0.4-0.9-0.6-1.4-0.7-0.5-0.1-0.7-0.1-1.2 0-0.8 0.1-1.5 0.6-1.9 1.3-0.6 0.9-0.6 2.3 0 3.2 0.4 0.6 0.9 1 1.6 1.3 0.5 0.1 1.3 0.1 1.8 0 0.4-0.2 0.8-0.4 1.1-0.7l0.3-0.2 0.2 0.1c1.8 1.3 4.3 3 4.4 3.1 0.2 0.1 0.2 0.1 0.2 0.3-0.1 0.1-0.1 0.4-0.1 0.6 0.1 1.2 0.9 2.3 2.1 2.8 0.5 0.1 1.3 0.1 1.8 0 0.3-0.2 0.7-0.3 0.9-0.5l0.2-0.2 0-2.2 0-2.2-0.2-0.2c-0.5-0.3-1.2-0.6-1.8-0.6-0.5 0-1.2 0.2-1.7 0.5l-0.2 0.2-0.1-0.1c-0.1-0.1-1.3-0.9-2.6-1.8-1.7-1.2-2.4-1.7-2.4-1.8 0-0.1 0.7-0.6 2.4-1.8 1.3-0.9 2.5-1.7 2.6-1.8l0.1-0.1 0.2 0.2c1.1 0.7 2.4 0.7 3.4 0l0.3-0.2 0-2.3 0-2.2-0.2-0.2c-0.3-0.2-0.8-0.4-1.2-0.5-0.5-0.1-0.8-0.1-1.2 0" stroke="none" fill="black" fill-rule="evenodd"></path><path fill-opacity="0.949" d="M21.6 3.1c-1.2 0.1-2.1 1-2.5 2.1-0.1 0.3-0.1 1.1 0 1.4 0 0.1 0 0.1-0.1 0.2-0.1 0-1.1 0.7-2.3 1.5-1.2 0.8-2.2 1.6-2.3 1.6l-0.1 0.1-0.3-0.2c-1.2-1.1-3-1-4.1 0.1-0.6 0.6-0.9 1.3-0.9 2.1 0 0.8 0.3 1.5 0.9 2.1 0.6 0.6 1.3 0.9 2.1 0.9 0.8 0 1.4-0.3 2-0.8l0.3-0.2 0.1 0.1c0.1 0 1.1 0.8 2.3 1.6 1.2 0.8 2.2 1.5 2.3 1.5 0.1 0.1 0.1 0.1 0.1 0.2-0.1 0.3-0.1 1.1 0 1.4 0.3 1 1.1 1.8 2.1 2.1 0.4 0.1 1.2 0.1 1.6 0 0.3-0.1 0.7-0.3 1-0.5l0.2-0.2 0-2.2 0-2.2-0.2-0.2c-0.6-0.4-1.1-0.6-1.8-0.6-0.6 0-1.3 0.2-1.7 0.6-0.2 0.1-0.2 0.1-0.3 0-0.1 0-1.2-0.8-2.5-1.8-2.1-1.4-2.5-1.7-2.5-1.8 0-0.1 0.4-0.4 2.5-1.8 1.3-1 2.4-1.8 2.5-1.8 0.1-0.1 0.1-0.1 0.3 0 0.8 0.6 2.1 0.8 3 0.3 0.2-0.1 0.4-0.2 0.5-0.3l0.2-0.2 0-2.2 0-2.2-0.2-0.2c-0.7-0.4-1.5-0.7-2.2-0.5" stroke="none" fill="black" fill-rule="evenodd"></path></svg>