<?xml version="1.0"?><svg xmlns="http://www.w3.org/2000/svg" width="24" height="24" viewBox="0 0 24 24" version="1.1"><rect x="0" y="0" width="24" height="24" fill="#00000000"></rect><path fill-opacity="0.325" d="M4.4 2c-1 0.3-1.9 1-2.3 2l-0.1 0.4 0 7.6 0 7.6 0.1 0.3c0.3 0.9 1.1 1.7 1.9 2l0.4 0.1 7.6 0 7.6 0 0.4-0.1c0.8-0.3 1.6-1.1 1.9-2l0.1-0.3 0-7.6 0-7.6-0.1-0.3c-0.3-0.9-1-1.6-1.9-2l-0.3-0.1-7.6 0c-4.2 0-7.6 0-7.7 0m0.1 2.1c-0.2 0.2-0.2 0.2-0.4 0.4l-0.1 0.3 0 7.2 0 7.3 0.1 0.2c0.1 0.1 0.3 0.3 0.4 0.3l0.2 0.2 7.3 0 7.3 0 0.2-0.2c0.1 0 0.3-0.2 0.4-0.3l0.1-0.2 0-7.3 0-7.3-0.2-0.2c-0.1-0.2-0.2-0.3-0.4-0.4l-0.2-0.1-7.2 0-7.2 0-0.3 0.1m2.5 2.6c0 0.8 0.1 1.4 0.3 1.9 0.5 1.5 1.7 2.6 3.1 3.1 2.7 1 5.7-0.6 6.5-3.5 0-0.3 0.1-0.6 0.1-1.3l0-0.9-1 0-1 0 0 0.8c0 0.6-0.1 0.8-0.2 1.1-0.3 1-1 1.7-2 2-0.4 0.1-1.3 0.1-1.7 0-0.9-0.4-1.6-1.1-1.9-2-0.1-0.3-0.2-0.5-0.2-1.1l0-0.8-1 0-1 0 0 0.7" stroke="none" fill="black" fill-rule="evenodd"></path><path fill-opacity="0.349" d="M4.4 2.1c-0.6 0.1-1.1 0.4-1.6 0.9-0.4 0.4-0.6 0.9-0.7 1.3-0.1 0.5-0.1 14.9 0 15.4 0.1 0.5 0.3 0.9 0.8 1.4 0.5 0.5 0.9 0.7 1.4 0.8 0.5 0.1 14.9 0.1 15.4 0 0.5-0.1 0.9-0.3 1.4-0.8 0.5-0.5 0.7-0.9 0.8-1.4 0.1-0.5 0.1-14.9 0-15.4-0.1-0.5-0.3-0.9-0.8-1.4-0.3-0.3-0.5-0.4-0.8-0.6-0.2-0.1-0.6-0.2-0.7-0.2-0.4-0.1-14.9-0.1-15.2 0m0.1 2c-0.1 0.1-0.2 0.2-0.3 0.3l-0.2 0.3 0 7.3 0 7.3 0.2 0.3c0.1 0.1 0.2 0.2 0.3 0.3l0.3 0.1 7.2 0 7.2 0 0.2-0.1c0.2-0.1 0.3-0.2 0.4-0.3l0.2-0.3 0-7.3 0-7.3-0.2-0.3c-0.1-0.1-0.2-0.2-0.3-0.3l-0.3-0.1-7.2 0-7.2 0-0.3 0.1m2.5 2.6c0 1.4 0.3 2.3 1 3.3 0.5 0.7 1.2 1.2 2 1.6 1.3 0.5 2.7 0.5 4 0 0.8-0.4 1.5-0.9 2-1.6 0.7-1 1-1.9 1-3.3l0-0.7-1 0-1 0 0 0.6c0 1.2-0.2 1.8-0.9 2.5-1.2 1.2-3.1 1.2-4.3-0.1-0.6-0.6-0.8-1.3-0.8-2.4l0-0.6-1 0-1 0 0 0.7" stroke="none" fill="black" fill-rule="evenodd"></path><path fill-opacity="0.589" d="M4.4 2.1c-1.2 0.2-2.1 1.2-2.3 2.3-0.1 0.5-0.1 14.7 0 15.2 0.2 1.1 1.2 2.1 2.3 2.3 0.5 0.1 14.7 0.1 15.2 0 1.1-0.2 1.9-1 2.3-2 0.1-0.3 0.1-0.7 0.1-7.7 0-6.5 0-7.5-0.1-7.8-0.2-1.1-1.1-2.1-2.3-2.3-0.5-0.1-14.8-0.1-15.2 0m0.2 2c-0.3 0.1-0.5 0.3-0.6 0.6 0 0.1 0 2.4 0 7.4l0 7.2 0.2 0.3c0.1 0.1 0.2 0.2 0.3 0.3l0.2 0.1 7.3 0 7.2 0 0.3-0.1c0.1-0.1 0.2-0.2 0.3-0.3l0.2-0.3 0-7.2c0-5 0-7.3 0-7.4-0.1-0.3-0.3-0.5-0.6-0.6-0.2-0.1-0.5-0.1-7.4-0.1-6.9 0-7.2 0-7.4 0.1m2.4 2.8c0 0.7 0.1 0.9 0.2 1.3 0.4 1.7 1.6 3 3.3 3.5 0.3 0.2 1.1 0.3 1.5 0.3 0.4 0 1.2-0.1 1.6-0.3 1.6-0.5 2.8-1.8 3.2-3.5 0.1-0.4 0.2-0.7 0.2-1.3l0-0.9-1 0-1 0 0 0.7c0 0.8 0 1-0.3 1.6-0.2 0.3-0.3 0.5-0.6 0.8-0.3 0.3-0.5 0.5-0.8 0.6-1.5 0.7-3.3 0.1-4-1.5-0.2-0.5-0.3-0.7-0.3-1.5l0-0.7-1 0-1 0 0 0.9" stroke="none" fill="black" fill-rule="evenodd"></path><path fill-opacity="0.957" d="M4.5 2c-0.3 0.1-0.8 0.3-1.1 0.5-0.3 0.2-0.8 0.7-1 1.1-0.4 0.6-0.4 0-0.4 8.1 0 4.5 0 7.4 0 7.6 0.1 0.6 0.3 1 0.5 1.4 0.4 0.6 1 1 1.7 1.2 0.3 0.1 0.6 0.1 7.8 0.1 7.2 0 7.5 0 7.8-0.1 0.7-0.2 1.3-0.6 1.7-1.2 0.2-0.4 0.4-0.8 0.5-1.4 0-0.2 0-3.1 0-7.6 0-8 0-7.4-0.4-8.1-0.1-0.4-0.6-0.9-1-1.1-0.1-0.1-0.4-0.2-0.6-0.3l-0.4-0.2-7.4 0c-4.1 0-7.5 0-7.7 0m0 2.1c-0.1 0.1-0.2 0.2-0.3 0.3l-0.2 0.2 0 7.4 0 7.4 0.2 0.2c0.1 0.1 0.2 0.2 0.3 0.3 0.1 0.1 0.1 0.1 7.4 0.1 4 0 7.3 0 7.4 0 0.2-0.1 0.5-0.3 0.6-0.6 0.1-0.1 0.1-0.3 0.1-7.5l0-7.3-0.2-0.2c-0.1-0.1-0.2-0.2-0.3-0.3l-0.2-0.1-7.3 0-7.3 0-0.2 0.1m2.5 2.4c0 1.4 0.3 2.4 0.9 3.3 0.9 1.4 2.4 2.2 4.1 2.2 1.7 0 3.2-0.8 4.1-2.2 0.6-0.9 0.9-1.9 0.9-3.3l0-0.5-1 0-1 0 0 0.7c0 0.8-0.1 1.1-0.3 1.6-0.3 0.7-1 1.3-1.8 1.6-1 0.3-2.2 0-3-0.8-0.3-0.2-0.6-0.7-0.8-1.1 0-0.3-0.1-0.5-0.1-1.2l0-0.8-1 0-1 0 0 0.5" stroke="none" fill="black" fill-rule="evenodd"></path></svg>