<?xml version="1.0"?><svg xmlns="http://www.w3.org/2000/svg" width="24" height="24" viewBox="0 0 24 24" version="1.1"><rect x="0" y="0" width="24" height="24" fill="#00000000"></rect><path fill-opacity="0.412" d="M4.4 2c-1 0.3-1.9 1-2.3 2l-0.1 0.4 0 7.6 0 7.6 0.1 0.3c0.3 0.9 1.1 1.7 1.9 2l0.4 0.1 7.6 0 7.6 0 0.4-0.1c0.8-0.3 1.6-1.1 1.9-2l0.1-0.3 0-7.6 0-7.6-0.1-0.3c-0.3-0.9-1-1.6-1.9-2l-0.3-0.1-7.6 0c-4.2 0-7.6 0-7.7 0m0.1 2.1c-0.2 0.2-0.2 0.2-0.4 0.4l-0.1 0.3 0 7.2 0 7.3 0.1 0.2c0.1 0.1 0.3 0.3 0.4 0.3l0.2 0.2 7.3 0 7.3 0 0.2-0.2c0.1 0 0.3-0.2 0.4-0.3l0.1-0.2 0-7.3 0-7.3-0.2-0.2c-0.1-0.2-0.2-0.3-0.4-0.4l-0.2-0.1-7.2 0-7.2 0-0.3 0.1m2.1 2c-0.3 0.1-0.4 0.3-0.5 0.5-0.1 0.2-0.1 0.5-0.1 2.4 0 2.1 0 2.2 0.1 2.4 0.2 0.5 0.5 0.6 1.3 0.6l0.6 0 0-2 0-2 2 0 2 0 0-0.6c0-0.8-0.1-1.1-0.6-1.3-0.2-0.1-0.3-0.1-2.4-0.1-2.1 0-2.2 0-2.4 0.1m9.4 7.9l0 2-2 0-2 0 0 0.6c0 0.8 0.1 1.1 0.6 1.3 0.2 0.1 0.3 0.1 2.4 0.1 1.9 0 2.2 0 2.4-0.1 0.2-0.1 0.4-0.2 0.5-0.5 0.1-0.2 0.1-0.3 0.1-2.4 0-2.4 0-2.4-0.3-2.7-0.2-0.2-0.4-0.3-1.1-0.3l-0.6 0 0 2" stroke="none" fill="black" fill-rule="evenodd"></path><path fill-opacity="0.233" d="M4.4 2.1c-0.2 0-0.5 0.1-0.7 0.2-0.3 0.2-0.5 0.3-0.8 0.6-0.5 0.5-0.7 0.9-0.8 1.4-0.1 0.5-0.1 14.9 0 15.4 0.1 0.5 0.3 0.9 0.8 1.4 0.5 0.5 0.9 0.7 1.4 0.8 0.5 0.1 14.9 0.1 15.4 0 0.5-0.1 0.9-0.3 1.4-0.8 0.4-0.4 0.7-0.9 0.8-1.4 0.1-0.5 0.1-14.9 0-15.4-0.1-0.5-0.3-0.9-0.8-1.4-0.3-0.3-0.5-0.4-0.8-0.6-0.2-0.1-0.6-0.2-0.7-0.2-0.4-0.1-14.9-0.1-15.2 0m0.1 2c-0.1 0.1-0.2 0.2-0.3 0.3l-0.2 0.3 0 7.3 0 7.3 0.2 0.3c0.1 0.1 0.2 0.2 0.3 0.3l0.3 0.1 7.2 0 7.2 0 0.3-0.1c0.1-0.1 0.2-0.2 0.3-0.3l0.2-0.3 0-7.3 0-7.3-0.2-0.3c-0.1-0.1-0.2-0.2-0.3-0.3l-0.3-0.1-7.2 0-7.2 0-0.3 0.1m2.1 2c-0.2 0.1-0.5 0.4-0.6 0.6 0 0.1 0 1 0 2.4l0 2.2 0.2 0.3c0.1 0.1 0.2 0.2 0.3 0.3 0.2 0.1 0.3 0.1 0.9 0.1l0.6 0 0-2 0-2 2 0 2 0 0-0.7c0-0.6 0-0.6-0.2-0.9-0.3-0.4-0.2-0.4-2.7-0.4-1.9 0-2.3 0-2.5 0.1m9.4 7.9l0 2-2 0-2 0 0 0.7c0 0.6 0 0.6 0.2 0.9 0.1 0.1 0.2 0.2 0.3 0.3l0.3 0.1 2.2 0 2.2 0 0.3-0.1c0.1-0.1 0.2-0.2 0.3-0.3l0.2-0.3 0-2.3 0-2.3-0.2-0.3c-0.2-0.3-0.4-0.4-1.1-0.4l-0.7 0 0 2" stroke="none" fill="black" fill-rule="evenodd"></path><path fill-opacity="0.591" d="M4.4 2.1c-0.9 0.2-1.7 0.8-2.1 1.6-0.3 0.7-0.3 0.2-0.3 8.5 0 7 0 7.4 0.1 7.7 0.3 0.7 0.9 1.4 1.6 1.8 0.7 0.3 0.2 0.3 8.3 0.3 6.2 0 7.3 0 7.6-0.1 1.1-0.2 2-1 2.3-2.1 0.1-0.3 0.1-0.6 0.1-7.8l0-7.5-0.1-0.4c-0.4-1-1.2-1.8-2.3-2-0.5-0.1-14.8-0.1-15.2 0m0.2 2c-0.3 0.1-0.4 0.3-0.5 0.5-0.1 0.2-0.1 1-0.1 7.4 0 6.4 0 7.2 0.1 7.4 0.1 0.2 0.2 0.4 0.5 0.5 0.1 0.1 0.4 0.1 7.4 0.1 7 0 7.3 0 7.4-0.1 0.3-0.1 0.4-0.3 0.5-0.5 0.1-0.2 0.1-1 0.1-7.4 0-6.9 0-7.2-0.1-7.4-0.1-0.3-0.3-0.4-0.5-0.5-0.2-0.1-1-0.1-7.4-0.1-6.9 0-7.2 0-7.4 0.1m2.2 1.9c-0.3 0.1-0.5 0.3-0.7 0.6l-0.1 0.2 0 2.3 0 2.2 0.2 0.2c0.1 0.2 0.2 0.3 0.4 0.4 0.2 0.1 0.3 0.1 0.8 0.1l0.6 0 0-2 0-2 2 0 2 0 0-0.6c0-0.6 0-0.7-0.1-0.9-0.1-0.1-0.3-0.3-0.4-0.3l-0.2-0.2-2.2 0c-1.2 0-2.2 0-2.3 0m9.2 8l0 2-2 0-2 0 0 0.6c0 0.6 0 0.7 0.2 0.9 0.1 0.2 0.2 0.3 0.4 0.4l0.2 0.1 2.2 0 2.2 0 0.2-0.1c0.2-0.1 0.3-0.2 0.4-0.4l0.2-0.2 0-2.3 0-2.3-0.1-0.2c-0.1-0.1-0.3-0.3-0.4-0.3-0.2-0.2-0.3-0.2-0.9-0.2l-0.6 0 0 2" stroke="none" fill="black" fill-rule="evenodd"></path><path fill-opacity="0.957" d="M4.6 2.1c-0.9 0.1-1.8 0.7-2.2 1.5-0.4 0.7-0.4 0.1-0.4 8.1 0 4.5 0 7.4 0 7.6 0.1 0.6 0.3 1 0.5 1.4 0.4 0.6 1 1 1.7 1.2 0.3 0.1 0.7 0.1 7.8 0.1 7.1 0 7.5 0 7.8-0.1 0.9-0.3 1.7-1 2-2l0.2-0.4 0-7.4c0-8.2 0-7.8-0.3-8.4-0.4-0.7-1-1.3-1.8-1.5l-0.4-0.2-7.3 0c-4 0-7.5 0-7.6 0.1m-0.1 2c-0.2 0.1-0.4 0.4-0.5 0.6 0 0.1 0 3.4 0 7.4l0 7.3 0.2 0.2c0.1 0.1 0.2 0.2 0.3 0.3 0.1 0.1 0.1 0.1 7.5 0.1 7.4 0 7.4 0 7.5-0.1 0.1-0.1 0.2-0.2 0.3-0.3l0.2-0.2 0-7.4 0-7.4-0.2-0.2c-0.1-0.1-0.2-0.2-0.3-0.3l-0.2-0.1-7.3 0c-7.1 0-7.3 0-7.5 0.1m2.3 2c-0.3 0-0.5 0.2-0.7 0.4-0.1 0.3-0.1 0.3-0.1 2.3 0 2.2 0 2.5 0.2 2.8 0.2 0.3 0.4 0.4 1.2 0.4l0.6 0 0-2 0-2 2 0 2 0 0-0.5c0-0.7-0.1-0.9-0.3-1.2-0.2-0.1-0.3-0.2-0.5-0.2-0.3-0.1-4.1-0.1-4.4 0m9.2 7.9l0 2-2 0-2 0 0 0.5c0 0.8 0.1 1.1 0.5 1.4l0.2 0.1 2.3 0 2.3 0 0.2-0.2c0.2-0.1 0.3-0.2 0.4-0.3 0.1-0.3 0.1-0.3 0.1-2.3 0-2.4 0-2.6-0.3-2.9-0.3-0.2-0.5-0.3-1.2-0.3l-0.5 0 0 2" stroke="none" fill="black" fill-rule="evenodd"></path></svg>