<?xml version="1.0"?><svg xmlns="http://www.w3.org/2000/svg" width="24" height="24" viewBox="0 0 24 24" version="1.1"><rect x="0" y="0" width="24" height="24" fill="#00000000"></rect><path fill-opacity="0.471" d="M15.6 4.1c-0.3 0.1-0.4 0.3-0.5 0.5-0.1 0.2-0.1 0.8-0.1 5.4 0 5 0 5.2 0.1 5.4 0.3 0.8 1.5 0.8 1.8 0 0.1-0.2 0.1-0.4 0.1-5.4 0-5 0-5.2-0.1-5.4-0.2-0.5-0.8-0.7-1.3-0.5m-4 4c-0.3 0.1-0.4 0.3-0.5 0.5-0.1 0.2-0.1 0.6-0.1 3.4 0 3 0 3.2 0.1 3.4 0.1 0.3 0.3 0.4 0.5 0.5 0.5 0.2 1.1 0 1.3-0.5 0.1-0.2 0.1-0.4 0.1-3.4 0-3 0-3.2-0.1-3.4-0.2-0.5-0.8-0.7-1.3-0.5m-4 4c-0.3 0.1-0.4 0.3-0.5 0.5-0.1 0.2-0.1 0.4-0.1 1.4 0 1.3 0 1.4 0.3 1.7 0.3 0.4 1.1 0.4 1.4 0 0.3-0.3 0.3-0.4 0.3-1.7 0-1.1 0-1.2-0.1-1.4-0.2-0.5-0.8-0.7-1.3-0.5" stroke="none" fill="black" fill-rule="evenodd"></path><path fill-opacity="0.162" d="M15.6 4.1c-0.2 0.1-0.5 0.4-0.6 0.6 0 0.1 0 2 0 5.4l0 5.2 0.2 0.3c0.4 0.5 1.2 0.5 1.6 0l0.2-0.3 0-5.3 0-5.3-0.2-0.3c-0.1-0.1-0.2-0.2-0.3-0.3-0.2-0.1-0.6-0.1-0.9 0m-4 4c-0.2 0.1-0.5 0.4-0.6 0.6 0 0.1 0 1.3 0 3.4l0 3.2 0.2 0.3c0.4 0.5 1.2 0.5 1.6 0l0.2-0.3 0-3.3 0-3.3-0.2-0.3c-0.1-0.1-0.2-0.2-0.3-0.3-0.2-0.1-0.6-0.1-0.9 0m-4 4c-0.2 0.1-0.5 0.4-0.6 0.6 0 0.1 0 0.7 0 1.4l0 1.2 0.2 0.3c0.4 0.5 1.2 0.5 1.6 0l0.2-0.3 0-1.3 0-1.3-0.2-0.3c-0.1-0.1-0.2-0.2-0.3-0.3-0.2-0.1-0.6-0.1-0.9 0" stroke="none" fill="black" fill-rule="evenodd"></path><path fill-opacity="0.637" d="M15.8 4c-0.3 0.1-0.5 0.3-0.7 0.5l-0.1 0.2 0 5.3 0 5.3 0.2 0.2c0.1 0.3 0.5 0.5 0.8 0.5 0.3 0 0.7-0.2 0.8-0.5l0.2-0.2 0-5.3 0-5.3-0.2-0.2c-0.2-0.4-0.6-0.6-1-0.5m-4 4c-0.3 0.1-0.5 0.3-0.7 0.5l-0.1 0.2 0 3.3 0 3.3 0.2 0.2c0.1 0.3 0.5 0.5 0.8 0.5 0.3 0 0.7-0.2 0.8-0.5l0.2-0.2 0-3.3 0-3.3-0.2-0.2c-0.2-0.4-0.6-0.6-1-0.5m-4 4c-0.3 0.1-0.5 0.3-0.7 0.5-0.1 0.2-0.1 0.2-0.1 1.5l0 1.3 0.2 0.2c0.1 0.3 0.5 0.5 0.8 0.5 0.3 0 0.7-0.2 0.8-0.5l0.2-0.2 0-1.3c0-1.3 0-1.3-0.1-1.5-0.3-0.3-0.7-0.6-1.1-0.5" stroke="none" fill="black" fill-rule="evenodd"></path><path fill-opacity="0.951" d="M15.7 4.1c-0.1 0-0.3 0.1-0.4 0.2-0.3 0.3-0.3 0.1-0.3 5.7 0 3.2 0 5.1 0.1 5.2 0.1 0.5 0.4 0.8 0.9 0.8 0.5 0 0.8-0.3 0.9-0.8 0.1-0.3 0.1-10.1 0-10.4-0.1-0.6-0.6-0.9-1.2-0.7m-4 4c-0.1 0-0.3 0.1-0.4 0.2-0.3 0.3-0.3 0.3-0.3 3.7 0 1.8 0 3.1 0.1 3.2 0.1 0.5 0.4 0.8 0.9 0.8 0.5 0 0.8-0.3 0.9-0.8 0.1-0.3 0.1-6.1 0-6.4-0.1-0.6-0.6-0.9-1.2-0.7m-4 4c-0.3 0.1-0.5 0.3-0.6 0.6-0.1 0.3-0.1 2.1 0 2.5 0.1 0.5 0.4 0.8 0.9 0.8 0.5 0 0.8-0.3 0.9-0.8 0.1-0.3 0.1-2.1 0-2.4-0.1-0.6-0.6-0.9-1.2-0.7" stroke="none" fill="black" fill-rule="evenodd"></path></svg>