<?xml version="1.0"?><svg xmlns="http://www.w3.org/2000/svg" width="24" height="24" viewBox="0 0 24 24" version="1.1"><rect x="0" y="0" width="24" height="24" fill="#00000000"></rect><path fill-opacity="0.471" d="M3.6 2.1c-0.5 0.2-0.7 0.8-0.5 1.3 0.3 0.8 1.5 0.8 1.8 0 0.2-0.4 0.1-0.9-0.2-1.1-0.3-0.3-0.8-0.4-1.1-0.2m4 0c-0.8 0.4-0.8 1.5 0 1.8 0.4 0.2 0.8 0.1 1.1-0.2 0.4-0.3 0.4-1.1 0-1.4-0.3-0.3-0.8-0.4-1.1-0.2m4 0c-0.8 0.4-0.8 1.5 0 1.8 0.4 0.2 0.8 0.1 1.1-0.2 0.4-0.3 0.4-1.1 0-1.4-0.3-0.3-0.8-0.4-1.1-0.2m4 0c-0.8 0.4-0.8 1.5 0 1.8 0.4 0.2 0.8 0.1 1.1-0.2 0.4-0.3 0.4-1.1 0-1.4-0.3-0.3-0.8-0.4-1.1-0.2m4 0c-0.8 0.4-0.8 1.5 0 1.8 0.4 0.2 0.8 0.1 1.1-0.2 0.4-0.3 0.4-1.1 0-1.4-0.3-0.3-0.8-0.4-1.1-0.2m-18.4 3c-0.4 0.1-0.7 0.3-1 0.5l-0.2 0.2 0 6.2 0 6.2 0.2 0.2c0.3 0.2 0.6 0.4 1 0.5 0.4 0.1 0.6 0.1 10.8 0.1 11.4 0 10.7 0 11.3-0.3 0.2-0.1 0.4-0.2 0.5-0.3l0.3-0.2 0-6.3c0-3.4-0.1-6.2-0.1-6.2 0 0-0.1 0-0.2-0.1-0.3-0.3-0.7-0.4-1.1-0.5-0.2-0.1-1.4-0.1-10.7-0.1-10.1 0-10.4 0-10.8 0.1m-1.2 6.9c0 3.5 0 4.9 0 3.1 0-1.7 0-4.5 0-6.2 0-1.8 0-0.4 0 3.1m1.5-4.9c-0.2 0.2-0.2 0.2-0.4 0.4l-0.1 0.3 0 4.2 0 4.3 0.1 0.2c0.1 0.1 0.3 0.3 0.4 0.3l0.2 0.2 10.3 0 10.3 0 0.2-0.2c0.1 0 0.3-0.2 0.4-0.3l0.1-0.2 0-4.3 0-4.3-0.2-0.2c-0.1-0.2-0.2-0.3-0.4-0.4l-0.2-0.1-10.2 0-10.2 0-0.3 0.1m2.1 2c-0.5 0.2-0.7 0.8-0.5 1.3 0.3 0.8 1.5 0.8 1.8 0 0.2-0.4 0.1-0.9-0.2-1.1-0.3-0.3-0.8-0.4-1.1-0.2m16 4c-0.8 0.4-0.8 1.5 0 1.8 0.4 0.2 0.8 0.1 1.1-0.2 0.4-0.3 0.4-1.1 0-1.4-0.3-0.3-0.8-0.4-1.1-0.2m-16 7c-0.8 0.4-0.8 1.5 0 1.8 0.4 0.2 0.8 0.1 1.1-0.2 0.3-0.2 0.4-0.7 0.2-1.1-0.2-0.5-0.8-0.7-1.3-0.5m4 0c-0.8 0.4-0.8 1.5 0 1.8 0.5 0.2 1.1 0 1.3-0.5 0.2-0.4 0.1-0.9-0.2-1.1-0.3-0.3-0.8-0.4-1.1-0.2m4 0c-0.8 0.4-0.8 1.5 0 1.8 0.4 0.2 0.8 0.1 1.1-0.2 0.4-0.3 0.4-1.1 0-1.4-0.3-0.3-0.8-0.4-1.1-0.2m4 0c-0.8 0.4-0.8 1.5 0 1.8 0.4 0.2 0.8 0.1 1.1-0.2 0.4-0.3 0.4-1.1 0-1.4-0.3-0.3-0.8-0.4-1.1-0.2m4 0c-0.8 0.4-0.8 1.5 0 1.8 0.4 0.2 0.8 0.1 1.1-0.2 0.4-0.3 0.4-1.1 0-1.4-0.3-0.3-0.8-0.4-1.1-0.2" stroke="none" fill="black" fill-rule="evenodd"></path><path fill-opacity="0.162" d="M3.6 2.1c-0.5 0.2-0.8 1-0.4 1.5 0.4 0.5 1.2 0.5 1.6 0 0.2-0.2 0.2-0.3 0.2-0.6 0-0.3 0-0.4-0.2-0.6-0.1-0.1-0.2-0.2-0.3-0.3-0.2-0.1-0.6-0.1-0.9 0m4 0c-0.5 0.2-0.8 1-0.4 1.5 0.4 0.5 1.2 0.5 1.6 0 0.2-0.2 0.2-0.3 0.2-0.6 0-0.3 0-0.4-0.2-0.6-0.1-0.1-0.2-0.2-0.3-0.3-0.2-0.1-0.6-0.1-0.9 0m4 0c-0.5 0.2-0.8 1-0.4 1.5 0.4 0.5 1.2 0.5 1.6 0 0.2-0.2 0.2-0.3 0.2-0.6 0-0.3 0-0.4-0.2-0.6-0.1-0.1-0.2-0.2-0.3-0.3-0.2-0.1-0.6-0.1-0.9 0m4 0c-0.5 0.2-0.8 1-0.4 1.5 0.4 0.5 1.2 0.5 1.6 0 0.2-0.2 0.2-0.3 0.2-0.6 0-0.3 0-0.4-0.2-0.6-0.1-0.1-0.2-0.2-0.3-0.3-0.2-0.1-0.6-0.1-0.9 0m4 0c-0.5 0.2-0.8 1-0.4 1.5 0.4 0.5 1.2 0.5 1.6 0 0.2-0.2 0.2-0.3 0.2-0.6 0-0.3 0-0.4-0.2-0.6-0.1-0.1-0.2-0.2-0.3-0.3-0.2-0.1-0.6-0.1-0.9 0m-18.3 3c-0.4 0.1-0.8 0.3-1.1 0.5l-0.2 0.2 0 6.2 0 6.2 0.2 0.2c0.3 0.2 0.7 0.4 1.1 0.5 0.4 0.1 0.6 0.1 10.7 0.1 8.7 0 10.4 0 10.7-0.1 0.4-0.1 0.8-0.3 1.1-0.5l0.3-0.2 0-6.3c0-3.4-0.1-6.2-0.1-6.2 0 0-0.1 0-0.2-0.1-0.3-0.2-0.9-0.5-1.2-0.5-0.2-0.1-3.4-0.1-10.6-0.1-9.7 0-10.4 0-10.7 0.1m-1.3 6.9c0 3.5 0 4.9 0 3.1 0-1.7 0-4.5 0-6.2 0-1.8 0-0.4 0 3.1m1.5-4.9c-0.1 0.1-0.2 0.2-0.3 0.3l-0.2 0.3 0 4.3 0 4.3 0.2 0.3c0.1 0.1 0.2 0.2 0.3 0.3l0.3 0.1 10.2 0 10.2 0 0.3-0.1c0.1-0.1 0.2-0.2 0.3-0.3l0.2-0.3 0-4.3 0-4.3-0.2-0.3c-0.1-0.1-0.2-0.2-0.3-0.3l-0.3-0.1-10.2 0-10.2 0-0.3 0.1m2.1 2c-0.5 0.2-0.8 1-0.4 1.5 0.4 0.5 1.2 0.5 1.6 0 0.2-0.2 0.2-0.3 0.2-0.6 0-0.3 0-0.4-0.2-0.6-0.1-0.1-0.2-0.2-0.3-0.3-0.2-0.1-0.6-0.1-0.9 0m16 4c-0.5 0.2-0.8 1-0.4 1.5 0.4 0.5 1.2 0.5 1.6 0 0.2-0.2 0.2-0.3 0.2-0.6 0-0.3 0-0.4-0.2-0.6-0.1-0.1-0.2-0.2-0.3-0.3-0.2-0.1-0.6-0.1-0.9 0m-16 7c-0.5 0.2-0.8 1-0.4 1.5 0.4 0.5 1.2 0.5 1.6 0 0.2-0.2 0.2-0.3 0.2-0.6 0-0.3 0-0.4-0.2-0.6-0.1-0.1-0.2-0.2-0.3-0.3-0.2-0.1-0.6-0.1-0.9 0m4 0c-0.5 0.2-0.8 1-0.4 1.5 0.4 0.5 1.2 0.5 1.6 0 0.2-0.2 0.2-0.3 0.2-0.6 0-0.3 0-0.4-0.2-0.6-0.1-0.1-0.2-0.2-0.3-0.3-0.2-0.1-0.6-0.1-0.9 0m4 0c-0.5 0.2-0.8 1-0.4 1.5 0.4 0.5 1.2 0.5 1.6 0 0.2-0.2 0.2-0.3 0.2-0.6 0-0.3 0-0.4-0.2-0.6-0.1-0.1-0.2-0.2-0.3-0.3-0.2-0.1-0.6-0.1-0.9 0m4 0c-0.5 0.2-0.8 1-0.4 1.5 0.4 0.5 1.2 0.5 1.6 0 0.2-0.2 0.2-0.3 0.2-0.6 0-0.3 0-0.4-0.2-0.6-0.1-0.1-0.2-0.2-0.3-0.3-0.2-0.1-0.6-0.1-0.9 0m4 0c-0.5 0.2-0.8 1-0.4 1.5 0.4 0.5 1.2 0.5 1.6 0 0.2-0.2 0.2-0.3 0.2-0.6 0-0.3 0-0.4-0.2-0.6-0.1-0.1-0.2-0.2-0.3-0.3-0.2-0.1-0.6-0.1-0.9 0" stroke="none" fill="black" fill-rule="evenodd"></path><path fill-opacity="0.637" d="M3.8 2c-0.9 0.3-1.1 1.5-0.2 1.9 0.3 0.1 0.5 0.1 0.8 0 0.9-0.5 0.7-1.7-0.3-1.9-0.1 0-0.2 0-0.3 0m4 0c-0.9 0.3-1.1 1.5-0.2 1.9 0.3 0.1 0.5 0.1 0.8 0 0.9-0.5 0.7-1.7-0.3-1.9-0.1 0-0.2 0-0.3 0m4 0c-0.9 0.3-1.1 1.5-0.2 1.9 0.3 0.1 0.5 0.1 0.8 0 0.9-0.5 0.7-1.7-0.3-1.9-0.1 0-0.2 0-0.3 0m4 0c-0.9 0.3-1.1 1.5-0.2 1.9 0.3 0.1 0.5 0.1 0.8 0 0.9-0.5 0.7-1.7-0.3-1.9-0.1 0-0.2 0-0.3 0m4 0c-0.9 0.3-1.1 1.5-0.2 1.9 0.3 0.1 0.5 0.1 0.8 0 0.9-0.5 0.7-1.7-0.3-1.9-0.1 0-0.2 0-0.3 0m-18.4 3.1c-0.4 0.1-0.9 0.3-1.2 0.5l-0.2 0.2 0 6.2 0 6.2 0.2 0.2c0.4 0.3 0.8 0.4 1.2 0.5 0.6 0.1 20.7 0.1 21.2 0 0.4-0.1 1-0.3 1.3-0.6l0.2-0.1 0-6.3c0-3.4-0.1-6.2-0.1-6.2 0 0-0.1 0-0.3-0.1-0.3-0.3-0.7-0.4-1.1-0.5-0.5-0.1-20.7-0.1-21.2 0m-1.4 6.9c0 3.5 0 4.9 0 3.1 0-1.7 0-4.5 0-6.2 0-1.8 0-0.4 0 3.1m1.6-4.9c-0.3 0.1-0.4 0.3-0.5 0.5-0.1 0.2-0.1 0.7-0.1 4.4 0 3.7 0 4.2 0.1 4.4 0.1 0.2 0.2 0.4 0.5 0.5 0.1 0.1 0.4 0.1 10.4 0.1 10 0 10.3 0 10.4-0.1 0.3-0.1 0.4-0.3 0.5-0.5 0.1-0.2 0.1-0.7 0.1-4.4 0-4 0-4.2-0.1-4.4-0.1-0.3-0.3-0.4-0.5-0.5-0.2-0.1-1.3-0.1-10.4-0.1-9.8 0-10.2 0-10.4 0.1m2.2 1.9c-0.9 0.3-1.1 1.5-0.2 1.9 0.3 0.1 0.5 0.1 0.8 0 0.9-0.5 0.7-1.7-0.3-1.9-0.1 0-0.2 0-0.3 0m16 4c-0.9 0.3-1.1 1.5-0.2 1.9 0.3 0.1 0.5 0.1 0.8 0 0.9-0.5 0.7-1.7-0.3-1.9-0.1 0-0.2 0-0.3 0m-16 7c-0.9 0.3-1.1 1.5-0.2 1.9 0.3 0.1 0.5 0.1 0.8 0 0.9-0.5 0.7-1.7-0.3-1.9-0.1 0-0.2 0-0.3 0m4 0c-0.9 0.3-1.1 1.5-0.2 1.9 0.3 0.1 0.5 0.1 0.8 0 0.9-0.5 0.7-1.7-0.3-1.9-0.1 0-0.2 0-0.3 0m4 0c-0.9 0.3-1.1 1.5-0.2 1.9 0.3 0.1 0.5 0.1 0.8 0 0.9-0.5 0.7-1.7-0.3-1.9-0.1 0-0.2 0-0.3 0m4 0c-0.9 0.3-1.1 1.5-0.2 1.9 0.3 0.1 0.5 0.1 0.8 0 0.9-0.5 0.7-1.7-0.3-1.9-0.1 0-0.2 0-0.3 0m4 0c-0.9 0.3-1.1 1.5-0.2 1.9 0.3 0.1 0.5 0.1 0.8 0 0.9-0.5 0.7-1.7-0.3-1.9-0.1 0-0.2 0-0.3 0" stroke="none" fill="black" fill-rule="evenodd"></path><path fill-opacity="0.951" d="M3.7 2.1c-0.6 0.1-0.9 0.9-0.5 1.5 0.4 0.5 1.2 0.5 1.6 0 0.5-0.8-0.2-1.8-1.1-1.5m4 0c-0.6 0.1-0.9 0.9-0.5 1.5 0.4 0.5 1.2 0.5 1.6 0 0.5-0.8-0.2-1.8-1.1-1.5m4 0c-0.6 0.1-0.9 0.9-0.5 1.5 0.4 0.5 1.2 0.5 1.6 0 0.5-0.8-0.2-1.8-1.1-1.5m4 0c-0.6 0.1-0.9 0.9-0.5 1.5 0.4 0.5 1.2 0.5 1.6 0 0.5-0.8-0.2-1.8-1.1-1.5m4 0c-0.6 0.1-0.9 0.9-0.5 1.5 0.4 0.5 1.2 0.5 1.6 0 0.5-0.8-0.2-1.8-1.1-1.5m-18.1 3c-0.5 0-0.9 0.2-1.3 0.4l-0.3 0.3 0 6.2 0 6.2 0.4 0.3c0.1 0.1 0.5 0.3 0.7 0.3l0.4 0.2 10.5 0c10 0 10.5 0 10.8-0.1 0.4-0.1 0.8-0.3 1.1-0.6l0.2-0.1 0-6.3c0-3.4-0.1-6.2-0.1-6.2 0 0-0.2-0.1-0.3-0.2-0.2-0.1-0.5-0.3-0.8-0.3l-0.4-0.2-10.3 0c-5.7 0-10.5 0-10.6 0.1m-1.6 6.9c0 3.5 0 4.9 0 3.1 0-1.7 0-4.5 0-6.2 0-1.8 0-0.4 0 3.1m1.5-4.9c-0.2 0.1-0.4 0.4-0.5 0.6 0 0.1 0 2.1 0 4.4l0 4.3 0.2 0.2c0.1 0.1 0.2 0.2 0.3 0.3l0.1 0.1 10.4 0 10.4 0 0.1-0.1c0.1-0.1 0.2-0.2 0.3-0.3l0.2-0.2 0-4.4 0-4.4-0.2-0.2c-0.1-0.1-0.2-0.2-0.3-0.3l-0.2-0.1-10.3 0c-10 0-10.3 0-10.5 0.1m2.2 2c-0.6 0.1-0.9 0.9-0.5 1.5 0.4 0.5 1.2 0.5 1.6 0 0.5-0.8-0.2-1.8-1.1-1.5m16 4c-0.8 0.2-0.9 1.3-0.2 1.8 0.4 0.2 1 0.1 1.3-0.3 0.5-0.8-0.2-1.8-1.1-1.5m-16 7c-0.8 0.2-0.9 1.3-0.2 1.8 0.4 0.2 1 0.1 1.3-0.3 0.5-0.8-0.2-1.8-1.1-1.5m4 0c-0.8 0.2-0.9 1.3-0.2 1.8 0.4 0.2 1 0.1 1.3-0.3 0.5-0.8-0.2-1.8-1.1-1.5m4 0c-0.8 0.2-0.9 1.3-0.2 1.8 0.4 0.2 1 0.1 1.3-0.3 0.5-0.8-0.2-1.8-1.1-1.5m4 0c-0.8 0.2-0.9 1.3-0.2 1.8 0.4 0.2 1 0.1 1.3-0.3 0.5-0.8-0.2-1.8-1.1-1.5m4 0c-0.8 0.2-0.9 1.3-0.2 1.8 0.4 0.2 1 0.1 1.3-0.3 0.5-0.8-0.2-1.8-1.1-1.5" stroke="none" fill="black" fill-rule="evenodd"></path></svg>