<?xml version="1.0"?><svg xmlns="http://www.w3.org/2000/svg" width="24" height="24" viewBox="0 0 24 24" version="1.1"><rect x="0" y="0" width="24" height="24" fill="#00000000"></rect><path fill-opacity="0.408" d="M7.6 1.1c-0.8 0.4-0.8 1.5 0 1.8 0.4 0.2 0.8 0.1 1.1-0.2 0.4-0.3 0.4-1.1 0-1.4-0.3-0.3-0.8-0.4-1.1-0.2m4 0c-0.8 0.4-0.8 1.5 0 1.8 0.4 0.2 0.8 0.1 1.1-0.2 0.4-0.3 0.4-1.1 0-1.4-0.3-0.3-0.8-0.4-1.1-0.2m4 0c-0.8 0.4-0.8 1.5 0 1.8 0.4 0.2 0.8 0.1 1.1-0.2 0.4-0.3 0.4-1.1 0-1.4-0.3-0.3-0.8-0.4-1.1-0.2m-9.2 2.9c-1 0.3-1.9 1-2.3 2l-0.1 0.4 0 5.6 0 5.6 0.1 0.3c0.3 0.9 1.1 1.7 1.9 2l0.4 0.1 5.6 0 5.6 0 0.4-0.1c0.8-0.3 1.6-1.1 1.9-2l0.1-0.3 0-5.6 0-5.6-0.1-0.3c-0.3-0.9-1-1.6-1.9-2l-0.3-0.1-5.6 0c-3.1 0-5.6 0-5.7 0m0.1 2.1c-0.2 0.2-0.2 0.2-0.4 0.4l-0.1 0.3 0 5.2 0 5.3 0.1 0.2c0.1 0.1 0.3 0.3 0.4 0.3l0.2 0.2 5.3 0 5.3 0 0.2-0.2c0.1 0 0.3-0.2 0.4-0.3l0.1-0.2 0-5.3 0-5.3-0.2-0.2c-0.1-0.2-0.2-0.3-0.4-0.4l-0.2-0.1-5.2 0-5.2 0-0.3 0.1m-4.9 1c-0.8 0.4-0.8 1.5 0 1.8 0.4 0.2 0.8 0.1 1.1-0.2 0.3-0.2 0.4-0.7 0.2-1.1-0.2-0.5-0.8-0.7-1.3-0.5m20 0c-0.8 0.4-0.8 1.5 0 1.8 0.4 0.2 0.8 0.1 1.1-0.2 0.4-0.3 0.4-1.1 0-1.4-0.3-0.3-0.8-0.4-1.1-0.2m-13.6 4.9l0 4 4 0 4 0 0-4 0-4-4 0-4 0 0 4m2 0l0 2 2 0 2 0 0-2 0-2-2 0-2 0 0 2m-8.4-0.9c-0.8 0.4-0.8 1.5 0 1.8 0.4 0.2 0.8 0.1 1.1-0.2 0.3-0.2 0.4-0.7 0.2-1.1-0.2-0.5-0.8-0.7-1.3-0.5m20 0c-0.8 0.4-0.8 1.5 0 1.8 0.4 0.2 0.8 0.1 1.1-0.2 0.4-0.3 0.4-1.1 0-1.4-0.3-0.3-0.8-0.4-1.1-0.2m-20 4c-0.8 0.4-0.8 1.5 0 1.8 0.4 0.2 0.8 0.1 1.1-0.2 0.4-0.3 0.4-1.1 0-1.4-0.3-0.3-0.8-0.4-1.1-0.2m20 0c-0.8 0.4-0.8 1.5 0 1.8 0.4 0.2 0.8 0.1 1.1-0.2 0.4-0.3 0.4-1.1 0-1.4-0.3-0.3-0.8-0.4-1.1-0.2m-14 6c-0.8 0.4-0.8 1.5 0 1.8 0.5 0.2 1.1 0 1.3-0.5 0.2-0.4 0.1-0.9-0.2-1.1-0.3-0.3-0.8-0.4-1.1-0.2m4 0c-0.8 0.4-0.8 1.5 0 1.8 0.4 0.2 0.8 0.1 1.1-0.2 0.4-0.3 0.4-1.1 0-1.4-0.3-0.3-0.8-0.4-1.1-0.2m4 0c-0.8 0.4-0.8 1.5 0 1.8 0.4 0.2 0.8 0.1 1.1-0.2 0.4-0.3 0.4-1.1 0-1.4-0.3-0.3-0.8-0.4-1.1-0.2" stroke="none" fill="black" fill-rule="evenodd"></path><path fill-opacity="0.238" d="M7.6 1.1c-0.5 0.2-0.8 1-0.4 1.5 0.4 0.5 1.2 0.5 1.6 0 0.2-0.2 0.2-0.3 0.2-0.6 0-0.3 0-0.4-0.2-0.6-0.1-0.1-0.2-0.2-0.3-0.3-0.2-0.1-0.6-0.1-0.9 0m4 0c-0.5 0.2-0.8 1-0.4 1.5 0.4 0.5 1.2 0.5 1.6 0 0.2-0.2 0.2-0.3 0.2-0.6 0-0.3 0-0.4-0.2-0.6-0.1-0.1-0.2-0.2-0.3-0.3-0.2-0.1-0.6-0.1-0.9 0m4 0c-0.5 0.2-0.8 1-0.4 1.5 0.4 0.5 1.2 0.5 1.6 0 0.2-0.2 0.2-0.3 0.2-0.6 0-0.3 0-0.4-0.2-0.6-0.1-0.1-0.2-0.2-0.3-0.3-0.2-0.1-0.6-0.1-0.9 0m-9.2 3c-0.2 0-0.5 0.1-0.7 0.2-0.3 0.2-0.5 0.3-0.8 0.6-0.5 0.5-0.7 0.9-0.8 1.4-0.1 0.5-0.1 10.9 0 11.4 0.1 0.5 0.3 0.9 0.8 1.4 0.5 0.5 0.9 0.7 1.4 0.8 0.5 0.1 10.9 0.1 11.4 0 0.5-0.1 0.9-0.3 1.4-0.8 0.4-0.4 0.7-0.9 0.8-1.4 0.1-0.5 0.1-10.9 0-11.4-0.1-0.5-0.3-0.9-0.8-1.4-0.3-0.3-0.5-0.4-0.8-0.6-0.2-0.1-0.6-0.2-0.7-0.2-0.4-0.1-10.9-0.1-11.2 0m0.1 2c-0.1 0.1-0.2 0.2-0.3 0.3l-0.2 0.3 0 5.3 0 5.3 0.2 0.3c0.1 0.1 0.2 0.2 0.3 0.3l0.3 0.1 5.2 0 5.2 0 0.3-0.1c0.1-0.1 0.2-0.2 0.3-0.3l0.2-0.3 0-5.3 0-5.3-0.2-0.3c-0.1-0.1-0.2-0.2-0.3-0.3l-0.3-0.1-5.2 0-5.2 0-0.3 0.1m-4.9 1c-0.5 0.2-0.8 1-0.4 1.5 0.4 0.5 1.2 0.5 1.6 0 0.2-0.2 0.2-0.3 0.2-0.6 0-0.3 0-0.4-0.2-0.6-0.1-0.1-0.2-0.2-0.3-0.3-0.2-0.1-0.6-0.1-0.9 0m20 0c-0.5 0.2-0.8 1-0.4 1.5 0.4 0.5 1.2 0.5 1.6 0 0.2-0.2 0.2-0.3 0.2-0.6 0-0.3 0-0.4-0.2-0.6-0.1-0.1-0.2-0.2-0.3-0.3-0.2-0.1-0.6-0.1-0.9 0m-13.6 4.9l0 4 4 0 4 0 0-4 0-4-4 0-4 0 0 4m2 0l0 2 2 0 2 0 0-2 0-2-2 0-2 0 0 2m-8.4-0.9c-0.5 0.2-0.8 1-0.4 1.5 0.4 0.5 1.2 0.5 1.6 0 0.2-0.2 0.2-0.3 0.2-0.6 0-0.3 0-0.4-0.2-0.6-0.1-0.1-0.2-0.2-0.3-0.3-0.2-0.1-0.6-0.1-0.9 0m20 0c-0.5 0.2-0.8 1-0.4 1.5 0.4 0.5 1.2 0.5 1.6 0 0.2-0.2 0.2-0.3 0.2-0.6 0-0.3 0-0.4-0.2-0.6-0.1-0.1-0.2-0.2-0.3-0.3-0.2-0.1-0.6-0.1-0.9 0m-20 4c-0.5 0.2-0.8 1-0.4 1.5 0.4 0.5 1.2 0.5 1.6 0 0.2-0.2 0.2-0.3 0.2-0.6 0-0.3 0-0.4-0.2-0.6-0.1-0.1-0.2-0.2-0.3-0.3-0.2-0.1-0.6-0.1-0.9 0m20 0c-0.5 0.2-0.8 1-0.4 1.5 0.4 0.5 1.2 0.5 1.6 0 0.2-0.2 0.2-0.3 0.2-0.6 0-0.3 0-0.4-0.2-0.6-0.1-0.1-0.2-0.2-0.3-0.3-0.2-0.1-0.6-0.1-0.9 0m-14 6c-0.5 0.2-0.8 1-0.4 1.5 0.4 0.5 1.2 0.5 1.6 0 0.2-0.2 0.2-0.3 0.2-0.6 0-0.3 0-0.4-0.2-0.6-0.1-0.1-0.2-0.2-0.3-0.3-0.2-0.1-0.6-0.1-0.9 0m4 0c-0.5 0.2-0.8 1-0.4 1.5 0.4 0.5 1.2 0.5 1.6 0 0.2-0.2 0.2-0.3 0.2-0.6 0-0.3 0-0.4-0.2-0.6-0.1-0.1-0.2-0.2-0.3-0.3-0.2-0.1-0.6-0.1-0.9 0m4 0c-0.5 0.2-0.8 1-0.4 1.5 0.4 0.5 1.2 0.5 1.6 0 0.2-0.2 0.2-0.3 0.2-0.6 0-0.3 0-0.4-0.2-0.6-0.1-0.1-0.2-0.2-0.3-0.3-0.2-0.1-0.6-0.1-0.9 0" stroke="none" fill="black" fill-rule="evenodd"></path><path fill-opacity="0.644" d="M7.8 1c-0.9 0.3-1.1 1.5-0.2 1.9 0.3 0.1 0.5 0.1 0.8 0 0.9-0.5 0.7-1.7-0.3-1.9-0.1 0-0.2 0-0.3 0m4 0c-0.9 0.3-1.1 1.5-0.2 1.9 0.3 0.1 0.5 0.1 0.8 0 0.9-0.5 0.7-1.7-0.3-1.9-0.1 0-0.2 0-0.3 0m4 0c-0.9 0.3-1.1 1.5-0.2 1.9 0.3 0.1 0.5 0.1 0.8 0 0.9-0.5 0.7-1.7-0.3-1.9-0.1 0-0.2 0-0.3 0m-9.4 3.1c-1.1 0.2-1.9 1-2.3 2l-0.1 0.4 0 5.5c0 5.2 0 5.5 0.1 5.8 0.3 0.8 0.9 1.5 1.6 1.9 0.6 0.3 0.4 0.3 6.3 0.3 4.4 0 5.3 0 5.6-0.1 1.1-0.2 2-1 2.3-2.1 0.1-0.3 0.1-0.6 0.1-5.8 0-6.2 0-5.7-0.4-6.4-0.2-0.5-0.8-1-1.3-1.3-0.6-0.3-0.4-0.3-6.3-0.3-4.4 0-5.4 0-5.6 0.1m0.2 2c-0.3 0.1-0.4 0.3-0.5 0.5-0.1 0.2-0.1 0.8-0.1 5.4 0 4.6 0 5.2 0.1 5.4 0.1 0.2 0.2 0.4 0.5 0.5 0.1 0.1 0.3 0.1 5.4 0.1 5.1 0 5.3 0 5.4-0.1 0.3-0.1 0.4-0.3 0.5-0.5 0.1-0.2 0.1-0.8 0.1-5.4 0-4.6 0-5.2-0.1-5.4-0.1-0.2-0.2-0.4-0.5-0.5-0.2-0.1-0.4-0.1-5.4-0.1-5 0-5.2 0-5.4 0.1m-4.8 0.9c-0.9 0.3-1.1 1.5-0.2 1.9 0.3 0.1 0.5 0.1 0.8 0 0.9-0.5 0.7-1.7-0.3-1.9-0.1 0-0.2 0-0.3 0m20 0c-0.9 0.3-1.1 1.5-0.2 1.9 0.3 0.1 0.5 0.1 0.8 0 0.9-0.5 0.7-1.7-0.3-1.9-0.1 0-0.2 0-0.3 0m-13.8 5l0 4 4 0 4 0 0-4 0-4-4 0-4 0 0 4m2 0l0 2 2 0 2 0 0-2 0-2-2 0-2 0 0 2m-8.2-1c-0.9 0.3-1.1 1.5-0.2 1.9 0.3 0.1 0.5 0.1 0.8 0 0.9-0.5 0.7-1.7-0.3-1.9-0.1 0-0.2 0-0.3 0m20 0c-0.9 0.3-1.1 1.5-0.2 1.9 0.3 0.1 0.5 0.1 0.8 0 0.9-0.5 0.7-1.7-0.3-1.9-0.1 0-0.2 0-0.3 0m-20 4c-0.9 0.3-1.1 1.5-0.2 1.9 0.3 0.1 0.5 0.1 0.8 0 0.9-0.5 0.7-1.7-0.3-1.9-0.1 0-0.2 0-0.3 0m20 0c-0.9 0.3-1.1 1.5-0.2 1.9 0.3 0.1 0.5 0.1 0.8 0 0.9-0.5 0.7-1.7-0.3-1.9-0.1 0-0.2 0-0.3 0m-14 6c-0.9 0.3-1.1 1.5-0.2 1.9 0.3 0.1 0.5 0.1 0.8 0 0.9-0.5 0.7-1.7-0.3-1.9-0.1 0-0.2 0-0.3 0m4 0c-0.9 0.3-1.1 1.5-0.2 1.9 0.3 0.1 0.5 0.1 0.8 0 0.9-0.5 0.7-1.7-0.3-1.9-0.1 0-0.2 0-0.3 0m4 0c-0.9 0.3-1.1 1.5-0.2 1.9 0.3 0.1 0.5 0.1 0.8 0 0.9-0.5 0.7-1.7-0.3-1.9-0.1 0-0.2 0-0.3 0" stroke="none" fill="black" fill-rule="evenodd"></path><path fill-opacity="0.951" d="M7.7 1.1c-0.6 0.1-0.9 0.9-0.5 1.5 0.4 0.5 1.2 0.5 1.6 0 0.5-0.8-0.2-1.8-1.1-1.5m4 0c-0.6 0.1-0.9 0.9-0.5 1.5 0.4 0.5 1.2 0.5 1.6 0 0.5-0.8-0.2-1.8-1.1-1.5m4 0c-0.6 0.1-0.9 0.9-0.5 1.5 0.4 0.5 1.2 0.5 1.6 0 0.5-0.8-0.2-1.8-1.1-1.5m-9.1 3c-0.9 0.1-1.8 0.7-2.2 1.5-0.4 0.7-0.4 0.3-0.4 6.1 0 3.3 0 5.4 0 5.6 0.1 0.6 0.3 1 0.5 1.4 0.4 0.6 1 1 1.7 1.2 0.3 0.1 0.7 0.1 5.8 0.1 5.5 0 5.5 0 5.9-0.1 0.9-0.3 1.6-1.1 1.9-2l0.2-0.4 0-5.4c0-4.5 0-5.6-0.1-5.8-0.2-1-1-1.8-2-2.1l-0.4-0.2-5.3 0c-2.9 0-5.5 0-5.6 0.1m-0.1 2c-0.2 0.1-0.4 0.4-0.5 0.6 0 0.1 0 2.5 0 5.4l0 5.3 0.2 0.2c0.1 0.1 0.2 0.2 0.3 0.3 0.1 0.1 0.1 0.1 5.5 0.1 5.4 0 5.4 0 5.5-0.1 0.1-0.1 0.2-0.2 0.3-0.3l0.2-0.2 0-5.4 0-5.4-0.2-0.2c-0.1-0.1-0.2-0.2-0.3-0.3l-0.2-0.1-5.3 0c-5.1 0-5.3 0-5.5 0.1m-4.8 1c-0.6 0.1-0.9 0.9-0.5 1.5 0.4 0.5 1.2 0.5 1.6 0 0.5-0.8-0.2-1.8-1.1-1.5m20 0c-0.8 0.2-0.9 1.3-0.2 1.8 0.4 0.2 1 0.1 1.3-0.3 0.5-0.8-0.2-1.8-1.1-1.5m-13.7 4.9l0 4 4 0 4 0 0-4 0-4-4 0-4 0 0 4m2 0l0 2 2 0 2 0 0-2 0-2-2 0-2 0 0 2m-8.3-0.9c-0.8 0.2-0.9 1.3-0.2 1.8 0.4 0.2 1 0.1 1.3-0.3 0.5-0.8-0.2-1.8-1.1-1.5m20 0c-0.8 0.2-0.9 1.3-0.2 1.8 0.4 0.2 1 0.1 1.3-0.3 0.5-0.8-0.2-1.8-1.1-1.5m-20 4c-0.8 0.2-0.9 1.3-0.2 1.8 0.4 0.2 1 0.1 1.3-0.3 0.5-0.8-0.2-1.8-1.1-1.5m20 0c-0.8 0.2-0.9 1.3-0.2 1.8 0.4 0.2 1 0.1 1.3-0.3 0.5-0.8-0.2-1.8-1.1-1.5m-14 6c-0.8 0.2-0.9 1.3-0.2 1.8 0.4 0.2 1 0.1 1.3-0.3 0.5-0.8-0.2-1.8-1.1-1.5m4 0c-0.8 0.2-0.9 1.3-0.2 1.8 0.4 0.2 1 0.1 1.3-0.3 0.5-0.8-0.2-1.8-1.1-1.5m4 0c-0.8 0.2-0.9 1.3-0.2 1.8 0.4 0.2 1 0.1 1.3-0.3 0.5-0.8-0.2-1.8-1.1-1.5" stroke="none" fill="black" fill-rule="evenodd"></path></svg>