<?xml version="1.0"?><svg xmlns="http://www.w3.org/2000/svg" width="24" height="24" viewBox="0 0 24 24" version="1.1"><rect x="0" y="0" width="24" height="24" fill="#00000000"></rect><path fill-opacity="0.353" d="M11 2.1c-1.6 0.1-3.2 0.7-4.5 1.5-2.7 1.8-4.4 4.7-4.5 8.1 0 1.6 0.3 3.2 1 4.7 0.6 1.1 1.2 1.9 2 2.7 2.7 2.7 6.7 3.6 10.3 2.3 1.4-0.4 2.7-1.2 3.7-2.3 1.6-1.5 2.5-3.4 2.9-5.7 0.1-0.5 0.1-2.3 0-2.8-0.3-2.1-1.1-3.8-2.5-5.3-2.1-2.4-5.2-3.6-8.4-3.2m0.5 1.9c-2 0.2-3.8 1-5.2 2.4-3.1 3.1-3 8.2 0.1 11.3 0.6 0.6 1.2 1 2 1.4 1.1 0.5 1.9 0.8 3 0.9 1.4 0.1 2.8-0.2 4.1-0.9 3.3-1.5 5-5.1 4.3-8.7-0.3-1.5-1.1-3-2.1-4-1.2-1.2-2.9-2-4.4-2.3-0.5-0.1-1.4-0.1-1.8-0.1m-2.9 5.1c-0.8 0.4-0.8 1.5 0 1.8 0.5 0.2 1.1 0 1.3-0.5 0.2-0.4 0.1-0.9-0.2-1.1-0.3-0.3-0.8-0.4-1.1-0.2m6 0c-0.8 0.4-0.8 1.5 0 1.8 0.4 0.2 0.8 0.1 1.1-0.2 0.4-0.3 0.4-1.1 0-1.4-0.3-0.3-0.8-0.4-1.1-0.2m-3.4 4c-1 0.2-1.9 0.8-2.5 1.6-0.4 0.6-0.7 1.5-0.7 2.1l0 0.2 1 0 1 0 0-0.2c0.1-0.6 0.4-1.1 0.8-1.4 0.4-0.3 0.7-0.4 1.2-0.4 1.1 0 1.8 0.7 2 1.8l0 0.2 1 0 1 0 0-0.2c0-0.3-0.1-0.9-0.3-1.3-0.5-1.3-1.6-2.2-2.9-2.4-0.4-0.1-1.2-0.1-1.6 0" stroke="none" fill="black" fill-rule="evenodd"></path><path fill-opacity="0.273" d="M11.3 2c-0.6 0.1-1.4 0.2-1.8 0.3-1.8 0.5-3.4 1.4-4.7 2.8-0.8 0.8-1.3 1.6-1.8 2.6-1.9 3.9-1 8.5 2.1 11.5 1 1 2.2 1.7 3.5 2.2 1.2 0.4 2 0.6 3.4 0.6 1 0 1.5-0.1 2.3-0.3 1.9-0.5 3.5-1.4 4.9-2.8 1.5-1.5 2.4-3.4 2.7-5.6 0.1-0.6 0.1-2 0-2.6-0.3-1.8-0.9-3.4-2-4.8-0.3-0.4-1.2-1.3-1.6-1.7-1.4-1.1-3.1-1.8-4.8-2.1-0.5-0.1-1.8-0.1-2.2-0.1m-0.3 2.1c-2.4 0.3-4.6 1.7-5.9 3.8-1.5 2.5-1.5 5.7 0 8.2 1.2 2 3.2 3.4 5.6 3.8 0.6 0.1 2 0.1 2.6 0 2.3-0.4 4.4-1.8 5.6-3.8 1.5-2.5 1.5-5.7 0-8.2-0.8-1.4-2.1-2.5-3.6-3.2-1.4-0.6-2.8-0.8-4.3-0.6m-2.4 5c-0.5 0.2-0.8 1-0.4 1.5 0.4 0.5 1.2 0.5 1.6 0 0.2-0.2 0.2-0.3 0.2-0.6 0-0.3 0-0.4-0.2-0.6-0.1-0.1-0.2-0.2-0.3-0.3-0.2-0.1-0.6-0.1-0.9 0m6 0c-0.5 0.2-0.8 1-0.4 1.5 0.4 0.5 1.2 0.5 1.6 0 0.2-0.2 0.2-0.3 0.2-0.6 0-0.3 0-0.4-0.2-0.6-0.1-0.1-0.2-0.2-0.3-0.3-0.2-0.1-0.6-0.1-0.9 0m-3.2 3.9c-0.5 0.1-1.1 0.3-1.4 0.5-0.7 0.5-1.2 1.1-1.5 1.6-0.2 0.4-0.4 1.1-0.5 1.5l0 0.4 1 0 1 0 0-0.3c0.2-1.1 1.3-1.9 2.3-1.7 0.9 0.2 1.5 0.8 1.7 1.7l0 0.3 1 0 1 0 0-0.2c0-0.3-0.1-0.9-0.3-1.3-0.4-1.1-1.4-2-2.6-2.4-0.3-0.1-1.4-0.1-1.7-0.1" stroke="none" fill="black" fill-rule="evenodd"></path><path fill-opacity="0.508" d="M11.4 2c-2.6 0.2-4.9 1.3-6.6 3.1-1.5 1.5-2.3 3.3-2.7 5.5-0.1 0.7-0.1 2.1 0 2.8 0.4 2.2 1.2 3.9 2.7 5.5 1.5 1.6 3.5 2.6 5.7 3 0.6 0.1 2.2 0.1 2.8 0 1.4-0.2 2.9-0.7 3.9-1.4 1-0.6 2.1-1.6 2.8-2.5 1-1.3 1.6-2.9 1.9-4.5 0.1-0.8 0.1-2.2 0-2.9-0.7-4.1-3.5-7.3-7.5-8.3-0.7-0.2-2.2-0.3-3-0.3m-0.2 2c-2.1 0.3-3.5 1-4.8 2.3-2.3 2.3-3 5.7-1.8 8.6 1.3 3.3 4.6 5.4 8.1 5.1 0.8-0.1 1.2-0.2 1.9-0.4 1.2-0.5 2.1-1 3.1-1.9 3.1-3.2 3.1-8.2-0.1-11.4-1.1-1.1-2.6-1.9-4.2-2.2-0.4-0.1-1.9-0.1-2.2-0.1m-2.5 5c-0.4 0.2-0.7 0.7-0.7 1.1 0.1 0.3 0.3 0.6 0.6 0.8 0.3 0.1 0.5 0.1 0.8 0 0.9-0.5 0.7-1.8-0.3-1.9-0.1 0-0.3 0-0.4 0m6 0c-0.4 0.2-0.7 0.7-0.7 1.1 0.1 0.3 0.3 0.6 0.6 0.8 0.3 0.1 0.5 0.1 0.8 0 0.9-0.5 0.7-1.8-0.3-1.9-0.1 0-0.3 0-0.4 0m-3.4 4c-1.8 0.4-3.1 1.8-3.3 3.7l0 0.3 1 0 1 0 0-0.3c0.1-0.9 1-1.7 2-1.7 1 0 1.9 0.8 2 1.7l0 0.3 1 0 1 0 0-0.3c-0.1-0.6-0.2-1-0.4-1.5-0.5-1-1.4-1.7-2.5-2-0.4-0.2-1.4-0.2-1.8-0.2" stroke="none" fill="black" fill-rule="evenodd"></path><path fill-opacity="0.966" d="M11.6 2c-0.6 0.1-1.6 0.2-2 0.3-4 1.1-6.9 4.2-7.5 8.3-0.1 0.7-0.1 2.1 0 2.8 0.5 2.9 2 5.4 4.5 7 1.1 0.7 2.7 1.3 4.2 1.5 0.5 0.1 1.9 0.1 2.5 0 2.2-0.3 4.2-1.3 5.8-2.8 1.5-1.6 2.4-3.5 2.8-5.7 0.1-0.7 0.1-2.1 0-2.8-0.5-2.9-2-5.4-4.5-7-0.8-0.5-1.9-1-3-1.3-0.7-0.2-2.1-0.3-2.8-0.3m-0.5 2c-0.1 0-0.3 0.1-0.6 0.1-1.3 0.3-2.9 1-4 2.1-2.3 2.1-3.1 5.5-2 8.5 1.3 3.8 5.3 6 9.2 5.1 1.1-0.2 2.2-0.7 3.1-1.4 2.8-2.1 3.9-5.8 2.7-9.1-0.9-2.6-3.3-4.7-6-5.2-0.5-0.1-2.1-0.1-2.4-0.1m-2.4 5.1c-0.8 0.2-0.9 1.3-0.2 1.8 0.4 0.2 1 0.1 1.3-0.3 0.5-0.8-0.2-1.8-1.1-1.5m6 0c-0.8 0.2-0.9 1.3-0.2 1.8 0.4 0.2 1 0.1 1.3-0.3 0.5-0.8-0.2-1.8-1.1-1.5m-3.3 3.9c-0.9 0.2-1.6 0.6-2.2 1.2-0.4 0.4-0.5 0.6-0.7 1-0.3 0.4-0.4 1-0.5 1.5l0 0.3 1 0 1 0 0-0.2c0-0.2 0.1-0.5 0.2-0.8 0.2-0.3 0.6-0.7 1-0.8 0.2-0.2 0.3-0.2 0.8-0.2 0.5 0 0.6 0 0.8 0.2 0.4 0.1 0.8 0.5 1 0.8 0.1 0.3 0.2 0.6 0.2 0.8l0 0.2 1 0 1 0 0-0.3c-0.1-0.5-0.2-1.1-0.5-1.5-0.2-0.4-0.3-0.6-0.7-1-0.8-0.8-1.6-1.1-2.6-1.2-0.3 0-0.7 0-0.8 0" stroke="none" fill="black" fill-rule="evenodd"></path></svg>