<?xml version="1.0"?><svg xmlns="http://www.w3.org/2000/svg" width="24" height="24" viewBox="0 0 24 24" version="1.1"><rect x="0" y="0" width="24" height="24" fill="#00000000"></rect><path fill-opacity="0.412" d="M11 3.4l0 3.4-1.6-1.6-1.7-1.6-0.7 0.7-0.7 0.7 2.9 2.8 2.8 2.9 2.8-2.9 2.9-2.8-0.7-0.7-0.7-0.7-1.7 1.6-1.6 1.6 0-3.4 0-3.4-1 0-1 0 0 3.4m-7 7.8c0 2.2 0 2.3 0.2 2.8 0.2 0.4 0.8 0.8 1.3 0.9 0.3 0.1 12.7 0.1 13 0 0.6-0.1 1.1-0.6 1.4-1.1 0.1-0.3 0.1-0.4 0.1-2.6l0-2.2-1 0-1 0 0 2 0 2-6 0-6 0 0-2 0-2-1 0-1 0 0 2.2" stroke="none" fill="black" fill-rule="evenodd"></path><path fill-opacity="0.426" d="M11 3.4l0 3.4-1.6-1.6-1.7-1.6-0.7 0.7-0.7 0.7 2.9 2.8 2.8 2.9 2.8-2.9 2.9-2.8-0.7-0.7-0.7-0.7-1.7 1.6-1.6 1.6 0-3.4 0-3.4-1 0-1 0 0 3.4m-7 7.8l0 2.3 0.2 0.3c0.3 0.6 0.7 1 1.3 1.1 0.4 0.1 12.6 0.1 13 0 0.6-0.1 1-0.5 1.3-1.1l0.2-0.3 0-2.3 0-2.2-1 0-1 0 0 2 0 2-6 0-6 0 0-2 0-2-1 0-1 0 0 2.2" stroke="none" fill="black" fill-rule="evenodd"></path><path fill-opacity="0.547" d="M11 3.4l0 3.4-1.6-1.6-1.6-1.6-0.7 0.7-0.7 0.7 2.8 2.8c1.5 1.6 2.8 2.8 2.8 2.8 0 0 1.3-1.2 2.8-2.8l2.8-2.8-0.7-0.7-0.7-0.7-1.6 1.6-1.6 1.6 0-3.4 0-3.4-1 0-1 0 0 3.4m-7 7.7c0 1.3 0 2.1 0.1 2.3 0.1 0.8 0.7 1.4 1.5 1.5 0.4 0.1 12.4 0.1 12.8 0 0.1 0 0.4-0.1 0.5-0.1 0.3-0.2 0.7-0.6 0.8-0.8 0.3-0.5 0.3-0.7 0.3-2.9l0-2.1-1 0-1 0 0 2 0 2-6 0-6 0 0-2 0-2-1 0-1 0 0 2.1" stroke="none" fill="black" fill-rule="evenodd"></path><path fill-opacity="0.949" d="M11 3.4l0 3.5-1.6-1.7-1.7-1.6-0.6 0.7-0.7 0.7 2.8 2.8c1.5 1.6 2.8 2.8 2.8 2.8 0 0 1.3-1.2 2.8-2.8l2.8-2.8-0.7-0.7-0.6-0.7-1.7 1.6-1.6 1.7 0-3.5 0-3.4-1 0-1 0 0 3.4m-7 7.8c0 2 0 2.3 0.1 2.5 0.2 0.5 0.7 1 1.3 1.2 0.2 0.1 0.6 0.1 6.6 0.1 6 0 6.4 0 6.6-0.1 0.6-0.2 1-0.7 1.3-1.2 0.1-0.3 0.1-0.4 0.1-2.5l0-2.2-1 0-1 0 0 2 0 2-6 0-6 0 0-2 0-2-1 0-1 0 0 2.2" stroke="none" fill="black" fill-rule="evenodd"></path></svg>