<?xml version="1.0"?><svg xmlns="http://www.w3.org/2000/svg" width="24" height="24" viewBox="0 0 24 24" version="1.1"><rect x="0" y="0" width="24" height="24" fill="#00000000"></rect><path fill-opacity="0.404" d="M8.8 2.5l-2.5 2.5 0.7 0.7 0.7 0.7 1.7-1.6 1.6-1.6 0 3c0 2.8 0 3 0.1 3.2 0.3 0.8 1.5 0.8 1.8 0 0.1-0.2 0.1-0.4 0.1-3.2l0-3 1.6 1.6 1.7 1.6 0.7-0.7 0.7-0.7-2.5-2.5-2.5-2.5-0.7 0-0.7 0-2.5 2.5m-4.8 8.7c0 2.2 0 2.3 0.2 2.8 0.2 0.4 0.8 0.8 1.3 0.9 0.3 0.1 12.7 0.1 13 0 0.6-0.1 1.1-0.6 1.4-1.1 0.1-0.3 0.1-0.4 0.1-2.6l0-2.2-1 0-1 0 0 2 0 2-6 0-6 0 0-2 0-2-1 0-1 0 0 2.2" stroke="none" fill="black" fill-rule="evenodd"></path><path fill-opacity="0.368" d="M8.8 2.5l-2.5 2.5 0.7 0.7 0.7 0.7 1.7-1.6 1.6-1.6 0 3.1 0 3 0.2 0.3c0.4 0.5 1.2 0.5 1.6 0l0.2-0.3 0-3 0-3.1 1.6 1.6 1.7 1.6 0.7-0.7 0.7-0.7-2.5-2.5-2.5-2.5-0.7 0-0.7 0-2.5 2.5m-4.8 8.7l0 2.3 0.2 0.3c0.3 0.6 0.7 1 1.3 1.1 0.4 0.1 12.6 0.1 13 0 0.6-0.1 1-0.5 1.3-1.1l0.2-0.3 0-2.3 0-2.2-1 0-1 0 0 2 0 2-6 0-6 0 0-2 0-2-1 0-1 0 0 2.2" stroke="none" fill="black" fill-rule="evenodd"></path><path fill-opacity="0.594" d="M8.9 2.5l-2.5 2.5 0.7 0.7 0.7 0.7 1.6-1.6 1.6-1.6 0 3 0 3.1 0.2 0.2c0.1 0.3 0.5 0.5 0.8 0.5 0.4 0 0.8-0.3 1-0.8 0-0.1 0-1.3 0-3.1l0-2.9 1.6 1.6 1.6 1.6 0.7-0.7 0.7-0.7-2.5-2.5-2.4-2.5-0.7 0-0.7 0-2.4 2.5m-4.9 8.6c0 1.3 0 2.1 0.1 2.3 0.1 0.8 0.7 1.4 1.5 1.5 0.4 0.1 12.4 0.1 12.8 0 0.6-0.1 1.1-0.5 1.3-0.9 0.3-0.5 0.3-0.7 0.3-2.9l0-2.1-1 0-1 0 0 2 0 2-6 0-6 0 0-2 0-2-1 0-1 0 0 2.1" stroke="none" fill="black" fill-rule="evenodd"></path><path fill-opacity="0.949" d="M8.9 2.5l-2.5 2.5 0.7 0.7 0.6 0.7 1.7-1.6 1.6-1.7 0 2.9c0 2 0 3 0.1 3.2 0.1 0.5 0.4 0.8 0.9 0.8 0.5 0 0.8-0.3 0.9-0.8 0.1-0.2 0.1-1.2 0.1-3.2l0-2.9 1.6 1.7 1.7 1.6 0.6-0.7 0.7-0.7-2.5-2.5-2.5-2.5-0.6 0-0.6 0-2.5 2.5m-4.9 8.7c0 2 0 2.3 0.1 2.5 0.2 0.5 0.7 1 1.3 1.2 0.2 0.1 0.6 0.1 6.6 0.1 6 0 6.4 0 6.6-0.1 0.6-0.2 1-0.7 1.3-1.2 0.1-0.3 0.1-0.4 0.1-2.5l0-2.2-1 0-1 0 0 2 0 2-6 0-6 0 0-2 0-2-1 0-1 0 0 2.2" stroke="none" fill="black" fill-rule="evenodd"></path></svg>