<?xml version="1.0"?><svg xmlns="http://www.w3.org/2000/svg" width="24" height="24" viewBox="0 0 24 24" version="1.1"><rect x="0" y="0" width="24" height="24" fill="#00000000"></rect><path fill-opacity="0.471" d="M10.6 7.1c-0.8 0.4-0.8 1.5 0 1.8 0.2 0.1 0.4 0.1 1.4 0.1 1.3 0 1.5 0 1.7-0.3 0.5-0.5 0.3-1.3-0.3-1.6-0.2-0.1-0.3-0.1-1.4-0.1-1.1 0-1.2 0-1.4 0.1m-2 4c-0.8 0.4-0.8 1.5 0 1.8 0.2 0.1 0.6 0.1 3.4 0.1 3 0 3.2 0 3.4-0.1 0.3-0.1 0.4-0.3 0.5-0.5 0.2-0.5 0-1.1-0.5-1.3-0.2-0.1-0.4-0.1-3.4-0.1-3 0-3.2 0-3.4 0.1m-2 4c-0.8 0.4-0.8 1.5 0 1.8 0.2 0.1 0.8 0.1 5.4 0.1 5 0 5.2 0 5.4-0.1 0.8-0.3 0.8-1.5 0-1.8-0.2-0.1-0.4-0.1-5.4-0.1-5 0-5.2 0-5.4 0.1" stroke="none" fill="black" fill-rule="evenodd"></path><path fill-opacity="0.162" d="M10.6 7.1c-0.1 0-0.2 0.1-0.3 0.2-0.5 0.5-0.3 1.3 0.2 1.6 0.3 0.1 0.3 0.1 1.5 0.1 1.2 0 1.2 0 1.5-0.1 0.1-0.1 0.2-0.2 0.3-0.3 0.2-0.2 0.2-0.3 0.2-0.6 0-0.3 0-0.4-0.2-0.6-0.3-0.4-0.3-0.4-1.7-0.4-1 0-1.3 0-1.5 0.1m-2 4c-0.1 0-0.2 0.1-0.3 0.2-0.5 0.5-0.3 1.3 0.2 1.6l0.3 0.1 3.2 0 3.2 0 0.3-0.1c0.1-0.1 0.2-0.2 0.3-0.3 0.2-0.2 0.2-0.3 0.2-0.6 0-0.3 0-0.4-0.2-0.6-0.1-0.1-0.2-0.2-0.3-0.3-0.2-0.1-0.2-0.1-3.4-0.1-2.7 0-3.3 0-3.5 0.1m-2 4c-0.1 0-0.2 0.1-0.3 0.2-0.5 0.5-0.3 1.3 0.2 1.6l0.3 0.1 5.2 0 5.2 0 0.3-0.1c0.1-0.1 0.2-0.2 0.3-0.3 0.2-0.2 0.2-0.3 0.2-0.6 0-0.3 0-0.4-0.2-0.6-0.1-0.1-0.2-0.2-0.3-0.3-0.2-0.1-0.2-0.1-5.4-0.1-4.4 0-5.3 0-5.5 0.1" stroke="none" fill="black" fill-rule="evenodd"></path><path fill-opacity="0.637" d="M10.8 7c-0.9 0.3-1.1 1.5-0.2 1.9 0.2 0.1 0.2 0.1 1.4 0.1 1.2 0 1.2 0 1.4-0.1 0.7-0.4 0.8-1.4 0.1-1.7-0.2-0.2-0.2-0.2-1.4-0.2-0.6 0-1.2 0-1.3 0m-2 4c-0.9 0.3-1.1 1.5-0.2 1.9l0.2 0.1 3.2 0 3.2 0 0.2-0.1c0.7-0.4 0.8-1.4 0.1-1.7l-0.2-0.2-3.2 0c-1.7 0-3.2 0-3.3 0m-2 4c-0.9 0.3-1.1 1.5-0.2 1.9l0.2 0.1 5.2 0 5.2 0 0.2-0.1c0.7-0.4 0.8-1.4 0.1-1.7l-0.2-0.2-5.2 0c-2.8 0-5.2 0-5.3 0" stroke="none" fill="black" fill-rule="evenodd"></path><path fill-opacity="0.951" d="M10.7 7.1c-0.8 0.2-0.9 1.3-0.2 1.8 0.2 0.1 0.3 0.1 1.5 0.1 1.2 0 1.3 0 1.5-0.1 0.7-0.5 0.6-1.7-0.3-1.8-0.4-0.1-2.2-0.1-2.5 0m-2 4c-0.8 0.2-0.9 1.3-0.2 1.8l0.2 0.1 3.3 0 3.3 0 0.2-0.1c0.7-0.5 0.6-1.7-0.3-1.8-0.4-0.1-6.1-0.1-6.5 0m-2 4c-0.8 0.2-0.9 1.3-0.2 1.8l0.2 0.1 5.3 0 5.3 0 0.2-0.1c0.7-0.5 0.6-1.7-0.3-1.8-0.4-0.1-10.1-0.1-10.5 0" stroke="none" fill="black" fill-rule="evenodd"></path></svg>