<?xml version="1.0"?><svg xmlns="http://www.w3.org/2000/svg" width="24" height="24" viewBox="0 0 24 24" version="1.1"><rect x="0" y="0" width="24" height="24" fill="#00000000"></rect><path fill-opacity="0.302" d="M4 9l0 4 0.6 0c1.8 0.2 3.1 0.9 4.3 2.1 1.3 1.2 1.9 2.6 2.1 4.6l0 0.3 4 0 4 0 0-0.4c0-0.9-0.2-2.3-0.5-3.3-1.3-5.4-5.4-9.4-10.8-10.8-1-0.3-2.4-0.5-3.3-0.5l-0.4 0 0 4" stroke="none" fill="black" fill-rule="evenodd"></path><path fill-opacity="0.298" d="M4 9l0 4 0.2 0c0.3 0 1 0.1 1.4 0.2 0.7 0.2 1.6 0.6 2.3 1 0.5 0.3 1.3 1.1 1.6 1.6 0.9 1 1.3 2.2 1.5 3.6l0 0.6 4 0 4 0 0-0.3c0-1.8-0.5-4.1-1.3-5.9-2.3-5.1-7.4-8.5-13-8.8l-0.7 0 0 4" stroke="none" fill="black" fill-rule="evenodd"></path><path fill-opacity="0.400" d="M4 9l0 4 0.3 0c0.6 0 1.6 0.2 2.2 0.5 2.4 0.9 4 3 4.4 5.5 0.1 0.3 0.1 0.6 0.1 0.7l0 0.3 4 0 4 0 0-0.6c-0.2-2.9-1-5.5-2.6-7.8-1-1.5-2.5-3-4-4-2.3-1.6-4.9-2.4-7.7-2.6l-0.7 0 0 4" stroke="none" fill="black" fill-rule="evenodd"></path><path fill-opacity="0.973" d="M4 9l0 4 0.5 0c1.8 0.1 3.6 1 4.8 2.4 1 1.2 1.6 2.6 1.7 4.1l0 0.5 4 0 4 0 0-0.6c-0.2-2.6-0.8-4.9-2.2-7.1-1.2-2.1-3.1-4-5.2-5.2-2.1-1.3-4.4-1.9-7-2.1l-0.6 0 0 4" stroke="none" fill="black" fill-rule="evenodd"></path></svg>