<?xml version="1.0"?><svg xmlns="http://www.w3.org/2000/svg" width="24" height="24" viewBox="0 0 24 24" version="1.1"><rect x="0" y="0" width="24" height="24" fill="#00000000"></rect><path fill-opacity="0.318" d="M11.1 2c-0.5 0.1-1.4 0.3-1.8 0.4-0.6 0.1-1.4 0.5-1.4 0.5 0 0.1 1.1 2.6 1.2 2.7 0 0 0.2 0 0.4-0.1 1-0.4 2.2-0.6 3.1-0.5 0.8 0.1 1.6 0.3 2.1 0.6 1.5 0.6 2.8 1.8 3.5 3.2 0.1 0.2 0.2 0.3 0.2 0.3 0.1 0 2.7-1.2 2.7-1.2 0-0.1-0.5-1-0.8-1.4-1.6-2.5-4.1-4-7-4.4-0.6-0.1-1.8-0.1-2.2-0.1" stroke="none" fill="black" fill-rule="evenodd"></path><path fill-opacity="0.373" d="M11.1 2c-0.7 0.1-1.9 0.4-2.7 0.7-0.4 0.1-0.5 0.2-0.5 0.3 0 0 0.3 0.6 0.6 1.3 0.5 1 0.6 1.3 0.7 1.3 1.4-0.5 1.7-0.6 2.8-0.6 0.7 0 1 0.1 1.4 0.1 1.4 0.3 2.5 0.9 3.5 2 0.6 0.5 1.1 1.2 1.4 1.8 0 0.1 0.1 0.2 0.1 0.2 0.1 0 2.6-1.2 2.7-1.2 0.1-0.1-0.7-1.3-1.2-2-0.3-0.4-1.2-1.3-1.6-1.7-2-1.6-4.6-2.4-7.2-2.2" stroke="none" fill="black" fill-rule="evenodd"></path><path fill-opacity="0.596" d="M11.3 2c-0.8 0.1-1.6 0.2-2.2 0.4-0.3 0.1-1.2 0.4-1.2 0.5 0 0 1.2 2.7 1.2 2.7 0 0 0.2 0 0.3-0.1 1.2-0.5 2.6-0.6 3.9-0.4 2 0.4 3.9 1.8 4.9 3.6 0.1 0.2 0.2 0.4 0.2 0.4 0 0 2.6-1.1 2.7-1.2 0-0.1-0.4-0.9-0.8-1.4-1.2-1.9-3.1-3.3-5.1-4-1.2-0.4-2.8-0.6-3.9-0.5" stroke="none" fill="black" fill-rule="evenodd"></path><path fill-opacity="0.955" d="M11.2 2.1c-0.6 0-1.4 0.2-2 0.3-0.5 0.2-1.3 0.5-1.3 0.5 0 0 0.3 0.6 0.6 1.4 0.5 1 0.6 1.3 0.7 1.3 0.3-0.2 1.1-0.4 1.5-0.5 0.6-0.1 2.1-0.1 2.8 0 1.8 0.5 3.4 1.5 4.4 3.2 0.2 0.2 0.3 0.5 0.4 0.6 0 0.1 0.1 0.2 0.1 0.2 0 0 2.7-1.2 2.7-1.2 0 0-0.1-0.2-0.2-0.5-0.7-1.4-1.9-2.7-3.2-3.6-0.8-0.5-2.1-1.1-2.9-1.4-1.2-0.3-2.5-0.4-3.6-0.3" stroke="none" fill="black" fill-rule="evenodd"></path></svg>