<?xml version="1.0"?><svg xmlns="http://www.w3.org/2000/svg" width="24" height="24" viewBox="0 0 24 24" version="1.1"><rect x="0" y="0" width="24" height="24" fill="#00000000"></rect><path fill-opacity="0.400" d="M11 2c-0.7 0.1-1.8 0.4-2.5 0.6-0.6 0.2-1.1 0.5-1.1 0.6 0 0 0 0.1 0.1 0.3 0 0.1 0.3 0.5 0.5 1 0.6 1.1 0.7 1.3 0.7 1.3 0.1 0 0.2-0.1 0.4-0.1 0.7-0.4 1.8-0.7 2.9-0.7 1.9 0 3.6 0.7 5 2.1 0.3 0.4 0.8 1 1 1.4 0.1 0.1 0.2 0.2 0.2 0.2 0 0.1 0.4-0.1 1.5-0.7 0.3-0.2 0.7-0.4 0.8-0.5 0.2 0 0.3-0.1 0.3-0.2 0-0.1-0.6-1.1-0.9-1.5-0.6-0.7-1.3-1.4-2-1.9-0.5-0.4-1.1-0.7-1.8-1-1.3-0.6-2.6-0.9-4.1-0.9-0.5 0-0.9 0-1 0" stroke="none" fill="black" fill-rule="evenodd"></path><path fill-opacity="0.425" d="M11.2 2c-0.1 0-0.3 0.1-0.6 0.1-0.9 0.1-2.1 0.5-2.9 0.9-0.2 0.1-0.3 0.2-0.3 0.2 0 0 1.3 2.6 1.3 2.6 0 0 0.2-0.1 0.4-0.2 0.4-0.2 0.6-0.2 1.2-0.4 0.6-0.1 0.8-0.2 1.5-0.2 1.3 0 2.5 0.3 3.7 0.9 1 0.6 2 1.7 2.6 2.7l0.1 0.2 0.4-0.2c0.2-0.2 0.7-0.5 1.3-0.7 0.5-0.3 0.9-0.5 0.9-0.5 0.1-0.1-0.4-0.8-0.8-1.4-0.3-0.5-1.1-1.3-1.6-1.7-1.5-1.2-3.4-2-5.4-2.2-0.4-0.1-1.5-0.1-1.8-0.1" stroke="none" fill="black" fill-rule="evenodd"></path><path fill-opacity="0.466" d="M11.3 2c-1.2 0.1-2.5 0.5-3.6 1l-0.4 0.1 0.3 0.6c0.2 0.2 0.4 0.7 0.6 1.1 0.2 0.3 0.4 0.7 0.4 0.8l0.2 0.2 0.2-0.1c1.7-0.9 4.1-0.9 5.9 0 1.3 0.5 2.5 1.6 3.1 2.7 0.1 0.2 0.2 0.3 0.2 0.3 0 0 0.6-0.3 1.3-0.7l1.3-0.7-0.1-0.2c-0.8-1.4-2-2.7-3.4-3.6-1.7-1.1-4.1-1.6-6-1.5" stroke="none" fill="black" fill-rule="evenodd"></path><path fill-opacity="0.957" d="M11.6 2c0 0-0.2 0.1-0.4 0.1-0.8 0-1.5 0.2-2.3 0.4-0.7 0.2-1.5 0.6-1.5 0.7 0 0 0.2 0.4 0.4 0.8 0.3 0.5 0.6 1 0.7 1.3 0.1 0.2 0.2 0.5 0.3 0.5 0 0 0.1-0.1 0.3-0.2 0.9-0.4 1.8-0.6 3-0.6 1 0 2 0.2 2.9 0.7 0.5 0.2 1.1 0.6 1.4 0.9 0.6 0.4 1.3 1.3 1.7 1.9l0.1 0.2 0.7-0.4c0.4-0.2 0.8-0.4 0.9-0.5 0.2 0 0.4-0.2 0.6-0.3 0.3-0.1 0.4-0.2 0.4-0.2 0-0.1-0.2-0.3-0.4-0.6-1.2-1.9-2.9-3.3-5-4.1-0.9-0.3-2.1-0.5-3.1-0.6-0.4 0-0.7 0-0.7 0" stroke="none" fill="black" fill-rule="evenodd"></path></svg>