<?xml version="1.0"?><svg xmlns="http://www.w3.org/2000/svg" width="24" height="24" viewBox="0 0 24 24" version="1.1"><rect x="0" y="0" width="24" height="24" fill="#00000000"></rect><path fill-opacity="0.294" d="M11.1 2c-0.5 0.1-1.4 0.3-1.8 0.4-0.5 0.1-1.4 0.4-1.4 0.5 0 0 0.3 0.6 0.6 1.4 0.5 1 0.6 1.3 0.7 1.3 0 0 0.3-0.1 0.5-0.2 1.4-0.5 3-0.5 4.5 0 1.6 0.5 3.1 1.7 4 3.3 0.1 0.2 0.2 0.4 0.2 0.4 0.1 0 2.6-1.1 2.7-1.2 0.1-0.1-0.6-1.3-1.2-2-0.3-0.4-1.1-1.3-1.6-1.6-1.4-1.2-3.2-2-5-2.2-0.6-0.1-1.8-0.1-2.2-0.1" stroke="none" fill="black" fill-rule="evenodd"></path><path fill-opacity="0.511" d="M11.2 2c-0.1 0-0.3 0.1-0.6 0.1-0.6 0.1-1.7 0.4-2.2 0.6-0.3 0.1-0.5 0.2-0.5 0.2 0 0 0.3 0.6 0.6 1.3 0.5 1.1 0.6 1.4 0.7 1.4 0 0 0.3-0.1 0.5-0.2 0.8-0.3 1.3-0.4 2.3-0.4 0.7 0 1 0.1 1.4 0.1 1.4 0.3 2.5 0.9 3.5 2 0.6 0.6 1 1.1 1.3 1.7 0.1 0.2 0.2 0.3 0.2 0.3 0 0 2.6-1.1 2.7-1.2 0.1-0.1-0.7-1.3-1.2-2-0.3-0.5-1.2-1.3-1.7-1.7-1.3-1.1-2.9-1.8-4.7-2.1-0.4-0.1-2-0.1-2.3-0.1" stroke="none" fill="black" fill-rule="evenodd"></path><path fill-opacity="0.500" d="M11.1 2c-1 0.1-1.9 0.4-2.7 0.7-0.3 0.1-0.5 0.2-0.5 0.2 0 0.1 1.2 2.7 1.2 2.7 0 0 0.2-0.1 0.4-0.1 1.4-0.6 3.2-0.6 4.7-0.1 1.7 0.5 3.2 1.8 4 3.4 0.1 0.1 0.2 0.3 0.2 0.3 0 0 2.5-1.1 2.6-1.2 0.1 0 0.1-0.1-0.1-0.5-1.1-2-2.7-3.5-4.7-4.5-0.8-0.3-1.8-0.6-2.7-0.8-0.6-0.1-1.9-0.1-2.4-0.1" stroke="none" fill="black" fill-rule="evenodd"></path><path fill-opacity="0.955" d="M11.5 2c-0.1 0-0.4 0.1-0.7 0.1-0.9 0.1-2.8 0.6-2.9 0.8 0 0.1 1.2 2.6 1.2 2.7 0 0 0.2-0.1 0.4-0.2 0.2 0 0.6-0.2 0.9-0.2 0.5-0.2 0.7-0.2 1.6-0.2 0.8 0 1 0 1.5 0.1 2 0.5 3.7 1.8 4.7 3.7l0.2 0.3 0.3-0.1c0.2-0.1 0.8-0.4 1.4-0.6 0.5-0.3 1-0.5 1-0.5 0 0-0.1-0.2-0.2-0.5-0.7-1.4-2-2.8-3.3-3.7-0.5-0.3-2.1-1.1-2.2-1.1 0 0-0.2-0.1-0.4-0.1-0.4-0.2-1.4-0.4-1.9-0.4-0.4-0.1-1.4-0.1-1.6-0.1" stroke="none" fill="black" fill-rule="evenodd"></path></svg>