<?xml version="1.0"?><svg xmlns="http://www.w3.org/2000/svg" width="24" height="24" viewBox="0 0 24 24" version="1.1"><rect x="0" y="0" width="24" height="24" fill="#00000000"></rect><path fill-opacity="0.314" d="M10.7 2.1c-1 0.1-2.2 0.5-3 0.9-0.2 0.1-0.3 0.2-0.3 0.2 0.1 0.3 1.3 2.6 1.4 2.6 0.9-0.4 1.7-0.7 2.6-0.8 2.5-0.2 5 1 6.4 3.1 0.2 0.3 0.3 0.5 0.4 0.6 0 0 0.1 0 0.7-0.3 0.4-0.2 1-0.6 1.3-0.7l0.6-0.4-0.1-0.2c-0.3-0.6-1-1.5-1.7-2.2-2.2-2.2-5.2-3.2-8.3-2.8" stroke="none" fill="black" fill-rule="evenodd"></path><path fill-opacity="0.537" d="M10.8 2.1c-1 0.1-2.1 0.4-3 0.8l-0.5 0.2 0.1 0.2c0.1 0.2 1.3 2.5 1.3 2.5 0 0 0.2-0.1 0.4-0.2 0.4-0.2 1-0.4 1.6-0.5 0.6-0.1 2-0.1 2.7 0 2 0.5 3.6 1.6 4.6 3.3 0.1 0.2 0.2 0.3 0.2 0.3 0 0 0.6-0.3 1.4-0.7l1.3-0.7-0.2-0.2c-0.4-0.8-0.9-1.4-1.5-2.1-2.2-2.2-5.3-3.3-8.4-2.9" stroke="none" fill="black" fill-rule="evenodd"></path><path fill-opacity="0.630" d="M11.1 2.1c-1.1 0.1-2.4 0.4-3.3 0.8l-0.5 0.2 0.3 0.6c0.2 0.2 0.4 0.7 0.6 1.1 0.2 0.3 0.4 0.7 0.4 0.8l0.2 0.2 0.2-0.1c1.4-0.7 3.3-0.9 4.9-0.4 1.7 0.4 3.3 1.7 4.1 3.1 0.1 0.2 0.2 0.3 0.2 0.3 0 0 2.6-1.3 2.6-1.4 0.1 0-0.5-0.9-0.8-1.3-1.1-1.5-2.7-2.7-4.6-3.4-1.2-0.5-3-0.7-4.3-0.5" stroke="none" fill="black" fill-rule="evenodd"></path><path fill-opacity="0.933" d="M11.3 2c-0.4 0.1-1.3 0.2-1.8 0.3-0.6 0.2-1.1 0.4-1.7 0.6l-0.4 0.3 0.1 0.3c1 1.8 1.2 2.2 1.2 2.2 0 0 0.3 0 0.6-0.2 0.3-0.1 0.8-0.3 1.1-0.3 0.5-0.2 0.7-0.2 1.6-0.2 1 0 1.2 0 2.1 0.3 1.5 0.5 2.9 1.5 3.8 2.9 0.1 0.2 0.2 0.4 0.3 0.4 0 0.1 0.1 0.1 1.3-0.6 0.7-0.3 1.2-0.6 1.3-0.7 0 0-0.1-0.2-0.3-0.5-0.9-1.5-2.2-2.8-3.8-3.6-1.2-0.6-2.2-0.9-3.6-1.1-0.3-0.1-1.5-0.1-1.8-0.1" stroke="none" fill="black" fill-rule="evenodd"></path></svg>