<?xml version="1.0"?><svg xmlns="http://www.w3.org/2000/svg" width="24" height="24" viewBox="0 0 24 24" version="1.1"><rect x="0" y="0" width="24" height="24" fill="#00000000"></rect><path fill-opacity="0.325" d="M10.5 3.7c-1.7 0.3-3.1 1-4.4 2.2-1.9 1.9-2.8 4.7-2.3 7.3 0.3 1.1 0.8 2.4 1.4 3.2 0.1 0 0.1 0.1 0.1 0.2 0 0 0.5 0.5 1.1 1.1l1.1 1 4.5-4.5c3.7-3.7 4.6-4.6 4.6-4.5 0.1 0.2 0.4 0.7 0.4 0.9 0.3 0.7 0.3 0.9 0.3 1.8 0 0.8 0 1-0.3 1.7-0.4 1.3-1.4 2.3-2.7 2.9-0.5 0.2-1.3 0.4-1.7 0.4l-0.3 0 0 1.5 0 1.5 0.3 0c0.4 0 1.1-0.1 1.6-0.3 0.9-0.2 1.8-0.6 2.7-1.1 0.6-0.5 1.7-1.5 2.1-2.1 1.3-2 1.7-4.3 1.1-6.6-0.2-0.9-0.7-2-1.2-2.6-0.1-0.1-0.2-0.2-0.2-0.3 0 0-0.4-0.5-1-1.1l-1.1-1-4.6 4.5c-3.6 3.7-4.5 4.6-4.6 4.5-0.1-0.2-0.3-0.7-0.4-1-0.4-1.1-0.4-2.3 0-3.4 0.4-1.1 1.4-2.2 2.4-2.7 0.5-0.3 1.3-0.5 2-0.5l0.4-0.1 0-1.5 0-1.4-0.4 0c-0.3 0-0.6 0-0.9 0" stroke="none" fill="black" fill-rule="evenodd"></path><path fill-opacity="0.262" d="M10.8 3.7c-1.2 0.1-2.3 0.5-3.3 1.1-2.4 1.5-3.8 4-3.8 6.9 0 1.6 0.4 3 1.3 4.4 0.2 0.2 0.4 0.5 0.4 0.5 0 0 0.4 0.5 1 1.1l1 1 4.6-4.6c4.1-4.1 4.5-4.5 4.6-4.4 0.1 0.2 0.5 0.9 0.6 1.3 0.1 0.4 0.1 0.5 0.1 1.4 0 0.8 0 0.9-0.1 1.3-0.2 0.5-0.5 1.2-0.8 1.6-0.4 0.6-1.1 1.2-1.8 1.5-0.6 0.3-1.5 0.6-2 0.6l-0.3 0 0 1.5 0 1.5 0.2-0.1c0.1 0 0.4 0 0.7 0 1.8-0.2 3.6-1 4.9-2.4 0.5-0.5 0.8-0.9 1.1-1.5 0.8-1.2 1.2-2.6 1.2-4.1 0-1.6-0.5-3-1.4-4.4-0.2-0.2-0.3-0.5-0.3-0.5 0 0-0.5-0.5-1-1.1l-1.1-1-4.5 4.6c-4.1 4.1-4.6 4.5-4.6 4.4-0.2-0.2-0.5-0.9-0.6-1.3-0.2-0.4-0.2-0.5-0.2-1.3 0-1 0.1-1.3 0.4-2.1 0.4-1 1.3-1.9 2.4-2.4 0.6-0.3 1.5-0.5 2.1-0.5l0.2 0 0-1.5 0-1.5-0.4 0c-0.1 0-0.4 0-0.6 0" stroke="none" fill="black" fill-rule="evenodd"></path><path fill-opacity="0.654" d="M11.2 3.7c-2 0.1-3.8 0.9-5.2 2.3-0.6 0.7-1 1.2-1.4 2-0.6 1.2-0.9 2.3-0.9 3.7 0 1.5 0.5 3.2 1.3 4.4 0.1 0.1 0.3 0.3 0.3 0.4 0.1 0.1 0.6 0.6 1.1 1.2l1 1 4.6-4.5c2.5-2.5 4.5-4.6 4.6-4.6 0 0.1 0.3 0.7 0.5 1 0.3 0.8 0.4 1.9 0.2 2.8-0.5 2.1-2.4 3.8-4.5 3.9l-0.5 0.1 0 1.5 0 1.5 0.4-0.1c1.7-0.1 2.9-0.5 4.2-1.3 2.9-2 4.2-5.8 3-9.2-0.2-0.6-0.5-1.4-0.9-1.9-0.1-0.1-0.2-0.3-0.3-0.4 0-0.1-0.5-0.6-1.1-1.2l-1-1-4.5 4.6c-2.5 2.5-4.6 4.5-4.6 4.5 0 0-0.4-0.7-0.5-1-0.3-0.8-0.4-1.9-0.2-2.8 0.4-2.1 2.3-3.8 4.5-3.9l0.5-0.1 0-1.5 0-1.4-0.2 0c-0.1 0-0.3 0-0.4 0" stroke="none" fill="black" fill-rule="evenodd"></path><path fill-opacity="0.954" d="M11.1 3.7c-1.9 0.1-3.7 1-5.1 2.3-0.8 0.9-1.4 1.9-1.9 3.1-0.5 1.6-0.5 3.5 0 5.2 0.3 0.7 0.7 1.5 1.1 2 0.1 0.1 0.2 0.2 0.2 0.3 0 0 0.4 0.5 1 1.1l1 1 4.6-4.6c2.5-2.5 4.5-4.5 4.6-4.5 0 0 0.1 0.2 0.2 0.4 0.9 1.7 0.8 3.6-0.3 5.2-0.8 1.2-2.5 2.1-3.9 2.1l-0.2 0.1 0 1.4 0 1.5 0.3 0c2.1-0.1 3.9-0.9 5.3-2.3 1.5-1.5 2.3-3.5 2.3-5.6 0-0.7 0-1.4-0.2-2-0.2-0.9-0.8-2.1-1.3-2.7 0-0.1-0.1-0.2-0.1-0.3 0 0-0.5-0.5-1-1.1l-1.1-1-4.5 4.6c-2.5 2.5-4.6 4.5-4.6 4.5-0.1 0-0.5-0.8-0.6-1.2-0.6-1.7-0.1-3.6 1.1-5 0.9-0.9 2.2-1.5 3.4-1.5l0.3 0 0-1.5c0-1.2 0-1.5-0.1-1.5 0 0-0.3 0-0.5 0" stroke="none" fill="black" fill-rule="evenodd"></path></svg>