<?xml version="1.0"?><svg xmlns="http://www.w3.org/2000/svg" width="24" height="24" viewBox="0 0 24 24" version="1.1"><rect x="0" y="0" width="24" height="24" fill="#00000000"></rect><path fill-opacity="0.498" d="M11.1 0c-0.1 0.1-0.1 0.2-0.1 2l0 2 1 0 1 0 0-2 0-1.9-0.1-0.1c-0.1 0-1.7 0-1.8 0m-7.6 3.5l-0.7 0.7 1.4 1.4 1.4 1.5 0.7-0.8 0.7-0.7-1.4-1.4-1.4-1.4-0.7 0.7m14.9 0.7l-1.5 1.4 0.8 0.7 0.7 0.7 1.4-1.4 1.4-1.4-0.7-0.7-0.7-0.7-1.4 1.4m-7.4 1.9c-2.9 0.5-5 3-5 5.9 0 2.3 1.3 4.4 3.3 5.4 2.7 1.3 5.9 0.5 7.6-1.9 2.3-3.3 0.8-7.9-3-9.2-0.9-0.3-2-0.4-2.9-0.2m0.5 1.9c-0.5 0.1-0.9 0.2-1.4 0.5-0.3 0.2-0.5 0.3-0.9 0.7-0.4 0.4-0.5 0.5-0.7 1-0.7 1.3-0.6 2.4 0 3.7 0.2 0.3 0.3 0.5 0.7 0.9 0.4 0.4 0.5 0.5 1 0.7 1.2 0.6 2.4 0.6 3.6 0 1.5-0.7 2.3-2.3 2.2-3.9-0.1-0.6-0.2-1-0.5-1.5-0.3-0.6-1-1.3-1.6-1.6-0.3-0.1-0.6-0.3-0.9-0.3-0.4-0.2-1.1-0.2-1.5-0.2m-11.5 3.1c0 0.2 0 1.6 0 1.8l0.1 0.1 1.9 0 2 0 0-1 0-1-2 0-1.9 0-0.1 0.1m20 0.9l0 1 2 0 1.9 0 0.1-0.1c0-0.2 0-1.6 0-1.8l-0.1-0.1-1.9 0-2 0 0 1m-15.8 6.4l-1.4 1.4 0.7 0.7 0.7 0.7 1.4-1.4 1.5-1.4-0.8-0.7-0.7-0.7-1.4 1.4m13.5-0.7l-0.7 0.7 1.4 1.4 1.4 1.4 0.7-0.7 0.7-0.7-1.4-1.4-1.4-1.5-0.7 0.8m-6.7 4.3l0 2 1 0 1 0 0-2 0-2-1 0-1 0 0 2" stroke="none" fill="black" fill-rule="evenodd"></path><path fill-opacity="0.398" d="M11.2 0l-0.2 0.1 0 1.9 0 2 1 0 1 0 0-2 0-1.9-0.2-0.1c-0.3 0-1.4 0-1.6 0m-7.7 3.5l-0.7 0.7 1.4 1.4 1.4 1.5 0.7-0.8 0.7-0.7-1.3-1.4c-0.8-0.7-1.4-1.3-1.5-1.3 0 0-0.3 0.3-0.7 0.6m14.8 0.7l-1.4 1.4 0.8 0.7 0.7 0.7 1.4-1.4 1.4-1.4-0.7-0.7c-0.4-0.3-0.7-0.6-0.7-0.6-0.1 0-0.7 0.6-1.5 1.3m-6.9 1.8c-1.1 0.2-1.5 0.4-2.1 0.7-0.7 0.3-1.1 0.6-1.6 1.1-1.1 1.2-1.7 2.6-1.7 4.2 0 1.1 0.2 1.8 0.7 2.8 1.1 2.2 3.7 3.5 6.2 3.1 2.5-0.4 4.5-2.2 5-4.7 0.1-0.6 0.1-1.8 0-2.3-0.5-2.4-2.3-4.2-4.7-4.8-0.4-0.1-1.6-0.1-1.8-0.1m0 2c-0.2 0.1-0.5 0.2-0.7 0.2-1.9 0.7-3 2.6-2.6 4.5 0.1 0.8 0.5 1.5 1.1 2.1 1.5 1.6 4 1.6 5.6 0 0.4-0.4 0.7-0.8 0.9-1.3 0.4-1 0.4-2 0-2.9-0.1-0.5-0.3-0.7-0.6-1.1-0.8-0.9-1.8-1.4-2.9-1.5-0.3 0-0.7 0-0.8 0m-11.4 3.2c0 0.3 0 1.3 0 1.6l0.1 0.2 1.9 0 2 0 0-1 0-1-2 0-1.9 0-0.1 0.2m20 0.8l0 1 2 0 1.9 0 0.1-0.2c0-0.2 0-0.5 0-0.8 0-0.3 0-0.6 0-0.8l-0.1-0.2-1.9 0-2 0 0 1m-15.8 6.4l-1.4 1.4 0.7 0.7c0.4 0.3 0.7 0.7 0.7 0.7 0.1 0 0.7-0.7 1.5-1.4l1.4-1.4-0.8-0.7-0.7-0.7-1.4 1.4m13.5-0.7l-0.7 0.7 1.3 1.4c0.8 0.7 1.4 1.4 1.5 1.4 0 0 0.3-0.4 0.7-0.7l0.7-0.7-1.4-1.4-1.4-1.5-0.7 0.8m-6.7 4.3l0 1.9 0.2 0.1c0.1 0 0.5 0 0.8 0 0.3 0 0.7 0 0.8 0l0.2-0.1 0-1.9 0-2-1 0-1 0 0 2" stroke="none" fill="black" fill-rule="evenodd"></path><path fill-opacity="0.286" d="M11.2 0l-0.2 0.1 0 1.9 0 2 1 0 1 0 0-2 0-1.9-0.3-0.1c-0.3 0-1.1 0-1.5 0m-7.7 3.5c-0.4 0.4-0.6 0.7-0.6 0.7 0 0.1 0.6 0.7 1.3 1.5l1.4 1.4 0.7-0.7c0.4-0.4 0.7-0.8 0.7-0.8 0 0-2.8-2.7-2.8-2.7 0 0-0.3 0.2-0.7 0.6m14.9 0.7c-0.8 0.8-1.4 1.4-1.4 1.4 0 0.1 1.3 1.4 1.4 1.4 0 0 2.8-2.7 2.8-2.8 0 0-1.4-1.4-1.4-1.3 0 0-0.7 0.6-1.4 1.3m-6.9 1.8c-0.8 0.1-1.4 0.3-2.2 0.6-1.8 1-3 2.7-3.3 4.9 0 0.9 0.1 2 0.5 3 1.1 2.3 3.6 3.7 6.1 3.5 2.9-0.4 5.1-2.6 5.4-5.5 0.1-1.1-0.2-2.5-0.8-3.4-0.4-0.7-1-1.4-1.6-1.9-0.5-0.3-1.4-0.8-2-1-0.6-0.1-1.5-0.2-2.1-0.2m-0.2 2c-1.3 0.3-2.4 1.1-2.9 2.3-0.3 0.6-0.4 0.9-0.4 1.7 0 0.8 0.1 1.1 0.4 1.8 0.4 0.7 1 1.3 1.8 1.7 0.6 0.4 1 0.5 1.8 0.5 0.6 0 0.8 0 1.1-0.1 1.4-0.5 2.4-1.5 2.8-2.9 0.1-0.5 0.1-1.5 0-2-0.4-1.4-1.5-2.5-2.8-2.8-0.4-0.2-1.4-0.2-1.8-0.2m-11.3 3.3c0 0.5 0 1 0 1.4l0.1 0.3 1.9 0 2 0 0-1 0-1-2 0-1.9 0-0.1 0.3m20 0.7l0 1 2 0 1.9 0 0.1-0.3c0-0.4 0-0.9 0-1.4l-0.1-0.3-1.9 0-2 0 0 1m-15.8 6.4c-0.7 0.7-1.3 1.3-1.3 1.4 0 0 0.3 0.3 0.6 0.7l0.7 0.7 1.4-1.4c0.8-0.8 1.4-1.4 1.4-1.4 0-0.1-1.3-1.4-1.4-1.4 0 0-0.6 0.6-1.4 1.4m13.5-0.7c-0.4 0.3-0.7 0.6-0.7 0.7 0 0 0.7 0.7 2.2 2.2l0.6 0.6 0.7-0.7c0.3-0.4 0.7-0.7 0.7-0.7 0-0.1-2.8-2.8-2.8-2.8-0.1 0-0.4 0.3-0.7 0.7m-6.7 4.3l0 1.9 0.3 0.1c0.4 0 1 0 1.4 0l0.3-0.1 0-1.9 0-2-1 0-1 0 0 2" stroke="none" fill="black" fill-rule="evenodd"></path><path fill-opacity="0.964" d="M11.3 0l-0.3 0.1 0 1.9 0 2 1 0 1 0 0-2 0-1.9-0.5-0.1c-0.3 0-0.6 0-0.6 0-0.1 0-0.4 0-0.6 0m-7.8 3.5l-0.6 0.7 1.4 1.4 1.4 1.4 0.6-0.7 0.7-0.7-1.4-1.4-1.4-1.4-0.7 0.7m14.9 0.8l-1.4 1.4 0.7 0.6 0.7 0.7 1.4-1.4 1.4-1.4-0.7-0.7-0.7-0.6-1.4 1.4m-7 1.8c-1.9 0.1-3.8 1.4-4.7 3.1-0.5 1-0.7 1.7-0.7 2.8 0 2.3 1.3 4.3 3.4 5.4 0.4 0.2 1.2 0.4 1.6 0.5 0.5 0.1 1.5 0.1 2 0 1.8-0.3 3.5-1.5 4.3-3.1 0.5-1 0.7-1.7 0.7-2.8 0-1.1-0.2-1.8-0.7-2.8-0.8-1.5-2.2-2.6-3.9-3-0.3-0.1-1.4-0.2-1.5-0.2 0 0-0.2 0-0.5 0.1m-0.2 2c-1.5 0.3-2.6 1.3-3.1 2.8-0.1 0.3-0.1 0.5-0.1 1.1 0 0.6 0 0.8 0.1 1.1 0.4 1.2 1.3 2.2 2.4 2.6 0.9 0.4 2.1 0.4 3 0 1.1-0.4 2-1.4 2.4-2.6 0.1-0.3 0.1-0.5 0.1-1.1 0-0.6 0-0.8-0.1-1.1-0.5-1.3-1.4-2.3-2.6-2.7-0.5-0.1-0.6-0.2-1.2-0.2-0.4 0-0.7 0-0.9 0.1m-11.2 3.4c0 0.3 0 0.7 0 1l0.1 0.5 1.9 0 2 0 0-1 0-1-2 0-1.9 0-0.1 0.5m20 0.5l0 1 2 0 1.9 0 0.1-0.5c0-0.3 0-0.7 0-1l-0.1-0.5-1.9 0-2 0 0 1m-15.8 6.4l-1.4 1.4 0.7 0.7 0.7 0.6 1.4-1.3 1.4-1.4-0.6-0.7c-0.4-0.4-0.7-0.7-0.7-0.7-0.1 0-0.7 0.6-1.5 1.4m13.4-0.7l-0.6 0.7 1.4 1.4 1.4 1.3 0.7-0.6 0.7-0.7-1.4-1.4c-0.8-0.8-1.4-1.4-1.5-1.4 0 0-0.3 0.3-0.7 0.7m-6.6 4.3l0 1.9 0.5 0.1c0.3 0 0.7 0 1 0l0.5-0.1 0-1.9 0-2-1 0-1 0 0 2" stroke="none" fill="black" fill-rule="evenodd"></path></svg>