<?xml version="1.0"?><svg xmlns="http://www.w3.org/2000/svg" width="24" height="24" viewBox="0 0 24 24" version="1.1"><rect x="0" y="0" width="24" height="24" fill="#00000000"></rect><path fill-opacity="0.451" d="M10.6 0.1c-2.6 0.3-5.1 1.4-7 3.3-1.6 1.6-2.7 3.5-3.2 5.6-0.3 0.9-0.3 1.6-0.4 2.6-0.1 2.9 0.7 5.4 2.6 7.8 0.4 0.6 1.5 1.7 2 2.1 1.7 1.3 3.4 2 5.5 2.4 0.5 0.1 0.7 0.1 1.9 0.1 1.4 0 1.9-0.1 3.1-0.4 2-0.5 4-1.7 5.5-3.2 0.8-0.9 1.3-1.6 1.9-2.6 0.8-1.4 1.3-3.2 1.4-4.5 0.1-0.3 0.1-0.5 0.1-0.5 0 0 0.1-0.4 0.1-0.9 0-0.4-0.1-0.8-0.1-0.8 0 0 0-0.1-0.1-0.4 0-0.2-0.1-0.7-0.1-1-0.7-3.3-2.6-6.1-5.4-7.9-1.1-0.7-2.6-1.3-3.9-1.6-1.1-0.2-2.7-0.3-3.9-0.1m0.5 2c-0.7 0-1.6 0.2-2.2 0.4-1 0.3-2.2 1-2.9 1.5l-0.3 0.3 1.8 1.7 1.7 1.8 0.5-0.3c0.3-0.1 0.8-0.3 1-0.3 0.5-0.2 0.6-0.2 1.3-0.2 0.7 0 0.8 0 1.3 0.2 0.3 0 0.7 0.2 1 0.3l0.5 0.3 1.7-1.8c1.7-1.7 1.8-1.7 1.7-1.8 0-0.1-0.3-0.3-0.7-0.5-1.2-0.8-2.6-1.4-4-1.6-0.7-0.1-1.8-0.1-2.4 0m-7.1 4c-1.2 1.6-1.8 3.2-2 5.2-0.1 1.6 0.3 3.5 1 5.1 0.3 0.5 0.9 1.4 1.1 1.7l0.2 0.2 1.7-1.8 1.8-1.7-0.2-0.4c-0.8-1.5-0.8-3.4 0-4.8l0.2-0.4-1.8-1.7c-0.9-1-1.7-1.8-1.7-1.8-0.1 0-0.2 0.2-0.3 0.4m14 1.4l-1.8 1.7 0.2 0.4c0.8 1.5 0.8 3.3 0 4.8l-0.2 0.4 1.8 1.7 1.7 1.8 0.2-0.2c0.2-0.3 0.8-1.2 1.1-1.7 0.7-1.6 1.1-3.5 1-5.1-0.2-1.6-0.6-3.1-1.4-4.4-0.3-0.5-0.8-1.2-0.9-1.2 0 0-0.8 0.8-1.7 1.8m-6.6 1.6c-1 0.2-1.8 0.9-2.2 1.8-0.5 1.4 0 3 1.3 3.7 0.5 0.3 0.9 0.4 1.5 0.4 0.6 0 1-0.1 1.5-0.4 1.5-0.8 1.9-2.8 1-4.2-0.4-0.7-1.1-1.2-1.9-1.3-0.5-0.1-0.8-0.1-1.2 0m-11.4 2.9c0 0.5 0 0.7 0 0.4 0-0.2 0-0.6 0-0.8 0-0.3 0-0.1 0 0.4m7.5 6c-1.7 1.7-1.8 1.8-1.7 1.8 0 0.1 0.3 0.3 0.7 0.5 3.3 2.2 7.7 2.2 11 0 0.4-0.2 0.7-0.4 0.7-0.5 0.1 0 0-0.1-1.7-1.8l-1.7-1.8-0.4 0.2c-1.5 0.8-3.3 0.8-4.8 0-0.2-0.1-0.4-0.2-0.4-0.2 0 0-0.8 0.8-1.7 1.8" stroke="none" fill="black" fill-rule="evenodd"></path><path fill-opacity="0.443" d="M10.9 0.1c-2.8 0.2-5.3 1.4-7.4 3.4-0.4 0.4-0.7 0.7-0.7 0.8 0 0-0.1 0.2-0.3 0.3-0.9 1.2-1.8 3-2.2 4.7-0.2 0.9-0.3 1.5-0.3 2.7 0 1.5 0.2 2.5 0.7 3.9 0.3 1.1 1.2 2.7 1.9 3.5 0.1 0.2 0.2 0.3 0.2 0.3 0 0.1 1.4 1.5 1.8 1.8 1.7 1.2 3.6 2 5.7 2.4 0.8 0.1 2.6 0.1 3.4 0 2.1-0.4 4-1.2 5.7-2.4 0.4-0.3 1.8-1.7 1.8-1.8 0 0 0.2-0.2 0.4-0.5 0.9-1.2 1.7-2.8 2.1-4.5 0.1-0.5 0.3-1.4 0.3-1.7 0-0.2 0-0.3 0-0.3 0 0 0-0.3 0-0.8 0-0.5 0-0.7 0-0.6 0 0 0 0 0-0.2-0.1-0.7-0.4-2.1-0.7-3.1-0.4-1.1-1.2-2.5-1.8-3.4-0.2-0.1-0.3-0.3-0.3-0.3 0-0.1-1.5-1.5-2-1.9-1.7-1.3-3.6-2-5.6-2.3-0.6-0.1-2.2-0.1-2.7 0m0.3 1.9c-0.1 0-0.3 0.1-0.6 0.1-1 0.1-1.9 0.4-3 0.9-0.6 0.3-1.5 0.9-1.8 1.2l-0.1 0.1 1.8 1.7 1.7 1.8 0.2-0.1c0.7-0.4 2-0.7 2.9-0.7 0.7 0.1 1.8 0.4 2.2 0.7 0.1 0.1 0.2 0.1 0.2 0.1 0.1 0 0.9-0.8 1.8-1.8l1.8-1.7-0.1-0.1c-0.3-0.3-1.2-0.9-1.8-1.2-1-0.5-1.8-0.7-2.8-0.9-0.5-0.1-2.1-0.1-2.4-0.1m-7.3 4.1c-2.2 3.1-2.5 6.9-0.9 10.3 0.3 0.6 0.9 1.5 1.2 1.8l0.1 0.1 1.7-1.8 1.8-1.7-0.2-0.5c-0.3-0.5-0.4-0.9-0.5-1.5-0.2-1.1 0-2.1 0.5-3.1l0.2-0.5-1.8-1.7c-0.9-1-1.7-1.8-1.8-1.8 0 0-0.1 0.2-0.3 0.4m14.1 1.4l-1.8 1.7 0.2 0.4c0.8 1.6 0.8 3.2 0 4.8l-0.2 0.4 1.8 1.7 1.7 1.8 0.1-0.1c0.3-0.3 0.9-1.2 1.2-1.8 1.6-3.4 1.3-7.3-0.9-10.3-0.2-0.2-0.3-0.4-0.3-0.4-0.1 0-0.9 0.8-1.8 1.8m-6.7 1.6c-0.6 0.1-1 0.4-1.4 0.8-0.4 0.4-0.7 0.8-0.8 1.4-0.2 0.7-0.1 1.5 0.3 2.1 0.2 0.4 0.8 1 1.2 1.2 0.6 0.3 0.8 0.4 1.4 0.4 0.5 0 0.7 0 1-0.2 0.5-0.1 0.8-0.4 1.2-0.8 0.8-0.9 1-2.2 0.5-3.3-0.2-0.5-0.8-1.1-1.3-1.3-0.6-0.4-1.4-0.5-2.1-0.3m-11.3 2.9c0 0.4 0 0.6 0 0.4 0-0.2 0-0.6 0-0.8 0-0.2 0 0 0 0.4m7.4 6l-1.7 1.8 0.1 0.1c0.7 0.5 2.1 1.3 2.9 1.5 1.2 0.5 2 0.6 3.3 0.6 1.3 0 2.1-0.1 3.3-0.6 0.8-0.2 2.2-1 2.9-1.5l0.1-0.1-1.8-1.8c-1.7-1.8-1.8-1.8-1.9-1.8-1.3 0.9-3.1 1-4.5 0.4-0.2-0.1-0.5-0.2-0.6-0.3-0.1 0-0.2-0.1-0.2-0.1-0.1 0-0.9 0.8-1.9 1.8" stroke="none" fill="black" fill-rule="evenodd"></path><path fill-opacity="0.231" d="M11.2 0c-1.9 0.2-3 0.5-4.5 1.2-0.7 0.4-1.5 0.9-2.1 1.4-0.2 0.1-0.4 0.3-0.4 0.3 0 0-1.3 1.3-1.3 1.3 0 0-0.2 0.2-0.3 0.4-1.1 1.4-2 3.2-2.3 5-0.2 0.9-0.3 1.4-0.3 2.4 0 1.3 0.2 2.2 0.5 3.4 0.4 1.4 1.2 2.9 2.1 4 0.1 0.2 0.3 0.4 0.3 0.4 0 0 1.3 1.4 1.3 1.4 0 0 0.2 0.1 0.3 0.2 0.9 0.7 2.3 1.5 3.4 1.9 0.6 0.2 1.7 0.5 2.5 0.6 0.7 0.1 2.5 0.1 3.3 0 0.7-0.1 1.8-0.4 2.4-0.6 1.1-0.4 2.5-1.2 3.4-1.9 0.1-0.1 0.3-0.2 0.3-0.2 0 0 1.4-1.4 1.4-1.4 0 0 0.1-0.2 0.2-0.4 1.1-1.4 1.9-3.2 2.3-4.9 0.1-0.6 0.2-1.3 0.2-1.6 0-0.2 0.1-0.3 0.1-0.3 0 0 0.1-0.3 0.1-0.6 0-0.4-0.1-0.6-0.1-0.6 0 0 0 0 0-0.2 0-0.6-0.3-1.7-0.5-2.6-0.4-1.4-1.2-2.9-2.1-4-0.1-0.2-0.2-0.4-0.2-0.4 0 0-1.4-1.3-1.4-1.3 0 0-0.2-0.2-0.4-0.3-0.9-0.7-2.2-1.5-3.3-1.9-0.7-0.2-1.7-0.5-2.5-0.6-0.6-0.1-2-0.1-2.4-0.1m-0.5 2.1c-1.7 0.2-3.2 0.8-4.6 1.8-0.2 0.2-0.4 0.3-0.4 0.4 0 0 3.5 3.5 3.5 3.5 0 0 0.3-0.1 0.5-0.2 0.5-0.3 1.2-0.5 1.8-0.6 0.9-0.1 2 0.1 2.8 0.6 0.2 0.1 0.5 0.2 0.5 0.2 0 0 3.5-3.5 3.5-3.5 0-0.2-1.1-0.9-1.9-1.3-1.7-0.8-3.7-1.2-5.7-0.9m-6.7 3.9c-0.4 0.6-0.7 1-1 1.6-1.3 2.8-1.3 6 0 8.8 0.3 0.5 0.9 1.4 1.1 1.8l0.1 0.1 1.8-1.8 1.8-1.7-0.2-0.6c-0.8-1.4-0.8-3 0-4.4l0.2-0.6-1.8-1.7c-0.9-1-1.7-1.8-1.8-1.8 0 0-0.1 0.1-0.2 0.3m14 1.5l-1.8 1.7 0.2 0.6c0.8 1.4 0.8 3 0 4.4l-0.2 0.6 1.8 1.7 1.8 1.8 0.1-0.1c0.2-0.4 0.8-1.3 1.1-1.8 1.4-2.8 1.3-6.1-0.1-8.8-0.3-0.7-1-1.8-1.1-1.9-0.1 0-0.9 0.8-1.8 1.8m-6.7 1.6c-0.6 0.1-0.9 0.3-1.4 0.8-0.6 0.6-0.9 1.3-0.9 2.1 0 0.8 0.3 1.5 0.9 2.1 0.5 0.5 0.8 0.7 1.4 0.8 0.7 0.2 1.4 0.1 2-0.2 0.5-0.2 1.2-0.9 1.4-1.4 0.4-0.8 0.4-1.8 0-2.6-0.2-0.5-0.9-1.2-1.4-1.4-0.6-0.3-1.4-0.4-2-0.2m-11.3 2.9c0 0.4 0 0.5 0 0.3 0-0.2 0-0.4 0-0.6 0-0.1 0 0 0 0.3m7.4 5.9c-0.9 1-1.7 1.8-1.7 1.8 0 0.2 1 0.8 1.8 1.2 1.5 0.8 2.9 1.1 4.5 1.1 1.6 0 3-0.3 4.5-1.1 0.6-0.3 1.7-1 1.8-1.1 0-0.1-0.5-0.7-1.7-1.9-1-0.9-1.8-1.7-1.8-1.7-0.1 0-0.3 0.1-0.5 0.2-0.5 0.3-1.1 0.5-1.8 0.6-0.9 0.1-2-0.1-2.8-0.6-0.2-0.1-0.4-0.2-0.5-0.2 0 0-0.8 0.8-1.8 1.7" stroke="none" fill="black" fill-rule="evenodd"></path><path fill-opacity="0.967" d="M11.2 0.1c-2.9 0.2-5.5 1.3-7.6 3.3-0.8 0.8-1.7 2-2.3 3.1-1.8 3.7-1.7 8.1 0.4 11.6 0.7 1.3 1.7 2.4 2.7 3.2 1.8 1.4 3.8 2.2 6 2.6 0.4 0 0.9 0.1 1.6 0.1 0.7 0 1.2-0.1 1.6-0.1 2.2-0.4 4.2-1.2 6-2.6 1.6-1.3 3.1-3.4 3.8-5.6 0.3-1 0.6-2.3 0.6-3.1 0-0.1 0-0.3 0-0.3 0 0 0-0.2 0-0.4 0-0.1 0-0.2 0-0.2 0 0 0-0.2-0.1-0.6-0.1-2.3-1-4.6-2.6-6.7-1.2-1.6-3.3-3-5.3-3.7-1.1-0.4-2-0.6-3.2-0.6-0.8-0.1-0.9-0.1-1.6 0m-0.6 2c-1.6 0.2-3.2 0.9-4.6 1.9l-0.4 0.3 1.8 1.7 1.8 1.8 0.5-0.2c1.5-0.8 3.1-0.8 4.6 0l0.5 0.2 1.8-1.8 1.8-1.7-0.4-0.3c-1.4-1.1-3-1.7-4.7-1.9-0.7-0.1-2-0.1-2.7 0m-6.5 3.8c-0.6 0.7-1.3 1.9-1.6 2.9-0.4 1.1-0.5 2-0.5 3.2 0 1.6 0.3 3 1 4.4 0.3 0.6 0.8 1.5 1.1 1.8l0.2 0.2 1.8-1.8 1.8-1.8-0.2-0.3c-0.3-0.5-0.6-1.3-0.6-2-0.1-1 0.1-2.3 0.6-3l0.2-0.3-1.8-1.8-1.8-1.8-0.2 0.3m13.8 1.5l-1.8 1.8 0.2 0.3c0.5 0.7 0.7 2 0.6 3 0 0.7-0.3 1.5-0.6 2l-0.2 0.3 1.8 1.8c1.7 1.6 1.8 1.7 1.9 1.7 0.2-0.3 0.9-1.3 1.2-1.9 0.7-1.4 1-2.8 1-4.4 0-1.6-0.3-3-1-4.4-0.3-0.6-1-1.7-1.2-1.9-0.1 0-0.1 0-1.9 1.7m-6.7 1.7c-0.5 0.1-0.8 0.3-1.3 0.8-0.6 0.6-0.9 1.2-0.9 2.1 0 0.8 0.3 1.4 0.8 2.1 0.7 0.6 1.3 0.9 2.2 0.9 0.9 0 1.6-0.3 2.2-1 0.5-0.6 0.8-1.2 0.8-2 0-0.9-0.3-1.5-0.9-2.1-0.2-0.2-0.5-0.5-0.7-0.6-0.6-0.3-1.5-0.4-2.2-0.2m-11.2 2.9c0 0.2 0 0.3 0 0.2 0-0.1 0-0.3 0-0.4 0-0.1 0 0 0 0.2m7.4 5.9l-1.8 1.8 0.3 0.2c0.5 0.5 1.7 1.1 2.5 1.4 1.2 0.5 2.3 0.7 3.6 0.7 1.3 0 2.4-0.2 3.6-0.7 0.8-0.3 2-0.9 2.5-1.4l0.3-0.2-1.8-1.8-1.8-1.7-0.4 0.2c-1.5 0.8-3.3 0.8-4.8 0l-0.4-0.2-1.8 1.7" stroke="none" fill="black" fill-rule="evenodd"></path></svg>