<?xml version="1.0"?><svg xmlns="http://www.w3.org/2000/svg" width="24" height="24" viewBox="0 0 24 24" version="1.1"><rect x="0" y="0" width="24" height="24" fill="#00000000"></rect><path fill-opacity="0.502" d="M8.5 6.5l-1.5 1.5 1 0 1 0 0 2.5 0 2.5 1 0 1 0 0-2.5 0-2.5 1 0 1 0-1.5-1.5c-0.8-0.8-1.5-1.5-1.5-1.5 0 0-0.7 0.7-1.5 1.5m4.5 7l0 2.5-1 0-1 0 1.5 1.5 1.5 1.5 1.5-1.5 1.5-1.5-1 0-1 0 0-2.5 0-2.5-1 0-1 0 0 2.5" stroke="none" fill="black" fill-rule="evenodd"></path><path fill-opacity="1.000" d="M8.5 6.5l-1.5 1.5 1 0 1 0 0 2.5 0 2.5 1 0 1 0 0-2.5 0-2.5 1 0 1 0-1.5-1.5c-0.8-0.8-1.5-1.4-1.5-1.4 0 0-0.7 0.6-1.5 1.4m4.5 7l0 2.5-1 0-1 0 1.5 1.5 1.5 1.5 1.5-1.5 1.5-1.5-1 0-1 0 0-2.5 0-2.5-1 0-1 0 0 2.5" stroke="none" fill="black" fill-rule="evenodd"></path></svg>