<?xml version="1.0"?><svg xmlns="http://www.w3.org/2000/svg" width="24" height="24" viewBox="0 0 24 24" version="1.1"><rect x="0" y="0" width="24" height="24" fill="#00000000"></rect><path fill-opacity="0.502" d="M1.5 7l0 3 3.5 0 3.6 0 0-3 0-3-3.6 0-3.5 0 0 3m9 0l0 3 6 0 6.1 0 0-3 0-3-6.1 0-6 0 0 3m-9 8l0 3 3.5 0 3.6 0 0-3 0-3-3.6 0-3.5 0 0 3m9 0l0 3 6 0 6.1 0 0-3 0-3-6.1 0-6 0 0 3" stroke="none" fill="black" fill-rule="evenodd"></path><path fill-opacity="1.000" d="M1.6 7l0 3 3.4 0 3.5 0 0-3 0-3-3.5 0-3.4 0 0 3m9 0l0 3 5.9 0 6 0 0-3 0-3-6 0-5.9 0 0 3m-9 8l0 3 3.4 0 3.5 0 0-3 0-3-3.5 0-3.4 0 0 3m9 0l0 3 5.9 0 6 0 0-3 0-3-6 0-5.9 0 0 3" stroke="none" fill="black" fill-rule="evenodd"></path></svg>