<?xml version="1.0"?><svg xmlns="http://www.w3.org/2000/svg" width="24" height="24" viewBox="0 0 24 24" version="1.1"><rect x="0" y="0" width="24" height="24" fill="#00000000"></rect><path fill-opacity="0.329" d="M10.9 3.1c-1.7 0.2-3 0.7-4.2 1.6l-0.4 0.3-1-1c-0.7-0.6-1-0.9-1-0.9-0.1 0.2-1.4 6.9-1.4 7 0 0 1-0.2 3.5-0.7l3.6-0.7-1.1-1.1c-0.7-0.6-1.1-1.1-1.1-1.1 0-0.2 1.5-1 2.2-1.2 1.7-0.5 3.4-0.3 5 0.4 0.6 0.3 1.2 0.7 1.7 1.1l0.3 0.3 0.7-0.7 0.7-0.7-0.2-0.2c-0.3-0.3-1-0.9-1.5-1.2-1.5-0.9-3-1.3-4.7-1.3-0.5 0-0.9 0-1.1 0.1m6.7 11.5l-3.5 0.7 1.1 1.1 1.1 1.1-0.2 0.2c-0.1 0-0.3 0.2-0.5 0.3-1.2 0.7-2.3 1-3.6 1-1.8 0-3.5-0.7-4.8-1.9l-0.2-0.2-0.7 0.7-0.7 0.7 0.2 0.2c0.2 0.2 0.8 0.7 1.3 1 0.9 0.6 2.1 1.2 3.3 1.4 0.5 0 0.8 0.1 1.6 0.1 0.8 0 1.1-0.1 1.6-0.1 1.4-0.3 2.9-1 4-1.8l0.1-0.1 1 1c0.7 0.6 1 0.9 1 0.9 0.1-0.2 1.4-6.9 1.4-7 0 0-1 0.2-3.5 0.7" stroke="none" fill="black" fill-rule="evenodd"></path><path fill-opacity="0.281" d="M11 3.1c-1.6 0.1-3.2 0.8-4.4 1.7l-0.3 0.2-1-0.9c-0.6-0.6-1-1-1-1-0.1 0.1-1.4 7-1.4 7 0 0 7-1.3 7-1.4 0 0-0.5-0.5-1.1-1.1l-1.1-1.1 0.4-0.3c0.7-0.5 1.6-0.9 2.6-1.1 0.7-0.1 1.9-0.1 2.6 0 1.4 0.3 2.6 0.9 3.4 1.7l0.3 0.3 0.7-0.7 0.7-0.8-0.4-0.3c-0.2-0.2-0.5-0.4-0.8-0.6-0.5-0.4-1.8-1-2.4-1.2-1.2-0.4-2.6-0.6-3.8-0.4m6.5 11.5c-1.9 0.4-3.4 0.7-3.4 0.7 0 0 0.5 0.5 1.1 1.1l1.1 1.1-0.2 0.2c-0.6 0.4-1.7 0.9-2.8 1.2-0.7 0.1-1.9 0.1-2.6 0-1.4-0.3-2.6-0.9-3.4-1.7l-0.3-0.3-0.7 0.7-0.7 0.7 0.2 0.2c0.2 0.2 1 0.8 1.4 1.1 0.9 0.6 2.1 1.1 3.2 1.3 0.9 0.1 2.3 0.1 3.2 0 0.7-0.2 1.7-0.5 2.4-0.8 0.4-0.2 1.1-0.7 1.5-1l0.2-0.2 1 1c0.7 0.7 1 1 1 0.9 0 0 1.4-6.8 1.4-6.9 0 0-0.1 0-0.1 0-0.1 0-1.6 0.3-3.5 0.7" stroke="none" fill="black" fill-rule="evenodd"></path><path fill-opacity="0.716" d="M11.2 3.1c-1.6 0.1-3.3 0.7-4.5 1.7l-0.4 0.3-1-1c-0.9-0.9-1-1-1-0.9-0.1 0.4-1.4 6.9-1.4 6.9 0 0 6.8-1.3 6.9-1.4 0.1 0-0.3-0.4-1-1.1l-1.1-1.1 0.4-0.3c0.9-0.6 1.9-1 2.9-1.1 2-0.3 4.1 0.3 5.6 1.6 0.2 0.2 0.3 0.3 0.3 0.3 0.1 0 0.4-0.3 0.8-0.7l0.7-0.7-0.4-0.3c-1.3-1.1-2.8-1.9-4.5-2.1-0.6-0.2-1.7-0.2-2.3-0.1m6.3 11.5c-1.8 0.4-3.4 0.7-3.4 0.7 0 0 0.5 0.5 1.1 1.1l1.1 1.1-0.4 0.3c-2.6 1.8-6.2 1.5-8.5-0.5-0.2-0.2-0.3-0.3-0.3-0.3-0.1 0-0.4 0.3-0.8 0.7l-0.7 0.7 0.4 0.3c0.7 0.6 1.2 1 1.9 1.3 2.6 1.3 5.6 1.3 8.2 0 0.4-0.2 0.9-0.5 1.3-0.8l0.3-0.3 1 1c0.9 0.9 1 1 1 0.9 0.1-0.1 1.4-6.9 1.4-6.9 0 0-0.4 0.1-3.6 0.7" stroke="none" fill="black" fill-rule="evenodd"></path><path fill-opacity="0.943" d="M11.4 3.1c-0.9 0-1.6 0.2-2.4 0.5-0.7 0.2-1.8 0.7-2.3 1.1l-0.4 0.4-1-1-1-1 0 0.3c-0.3 1.4-1.4 6.7-1.4 6.7 0 0 6.6-1.3 6.9-1.4 0.1 0 0-0.1-1-1.1l-1.1-1.1 0.2-0.2c0.6-0.4 1.5-0.9 2.3-1.1 1.4-0.3 2.9-0.3 4.2 0.2 0.8 0.3 1.5 0.7 2.2 1.3l0.4 0.3 0.7-0.7 0.6-0.7-0.3-0.2c-0.9-1-2.4-1.7-3.8-2.1-0.9-0.2-1.9-0.3-2.8-0.2m6.2 11.5c-1.9 0.4-3.5 0.7-3.5 0.7 0 0 0.5 0.5 1.1 1.1l1.1 1.1-0.2 0.2c-1.2 0.8-2.6 1.3-4.1 1.3-1.8 0-3.3-0.6-4.7-1.8l-0.3-0.2-0.6 0.7-0.7 0.7 0.3 0.3c1.4 1.3 3.4 2.1 5.4 2.2 2.1 0.2 4.3-0.4 5.9-1.7l0.4-0.3 1 1c0.6 0.6 1 1 1 1 0 0 1.3-6.7 1.4-6.9 0-0.1 0-0.1-0.1-0.1 0 0-1.6 0.3-3.4 0.7" stroke="none" fill="black" fill-rule="evenodd"></path></svg>