<?xml version="1.0"?><svg xmlns="http://www.w3.org/2000/svg" width="24" height="24" viewBox="0 0 24 24" version="1.1"><rect x="0" y="0" width="24" height="24" fill="#00000000"></rect><path fill-opacity="0.384" d="M13.2 5c-6 0-8.3 0-8.5 0.1-0.3 0.1-0.9 0.4-1.2 0.7-0.4 0.3-0.6 0.7-0.8 1.2l-0.1 0.4 0 4.6c-0.1 5-0.1 4.7 0.3 5.4 0.2 0.5 0.8 1 1.3 1.3 0.7 0.3 0 0.3 9.1 0.3l8.3 0 1.2-1.2 1.2-1.2 0-1.4 0-1.4-1.6 1.6-1.6 1.6-7.7 0c-5.1 0-7.7 0-7.9-0.1-0.2 0-0.4-0.2-0.6-0.5 0-0.2 0-0.4 0-4.4-0.1-4.6-0.1-4.4 0.2-4.7 0.3-0.3 0-0.3 8.3-0.3l7.7 0 1.6 1.6 1.6 1.6 0-1.4 0-1.4-1.2-1.2-1.3-1.2-8.3 0m4.6 4.1c-1 0.2-1.9 1.1-2.2 2.1-0.3 1 0 2.1 0.8 2.9 0.6 0.6 1.3 0.9 2.1 0.9 0.9 0 1.5-0.3 2.2-0.9 0.6-0.6 0.8-1.3 0.8-2.1 0-0.9-0.2-1.5-0.9-2.1-0.6-0.6-1.3-0.9-2.1-0.9-0.2 0-0.5 0-0.7 0.1m0.4 2c-0.6 0.2-0.8 0.8-0.6 1.3 0.5 1 1.9 0.7 1.9-0.4 0-0.7-0.7-1.2-1.3-0.9" stroke="none" fill="black" fill-rule="evenodd"></path><path fill-opacity="0.191" d="M13.2 5c-7.9 0-8.3 0-8.5 0.1-1 0.3-1.8 1.2-2.1 2.1 0 0.3 0 0.9 0 4.8 0 3.9 0 4.5 0 4.8 0.3 1 1.1 1.8 2.2 2.1 0.4 0.1 0.5 0.1 8.6 0.1l8.2 0 1.2-1.2 1.2-1.2 0-1.4 0-1.4-1.6 1.6-1.6 1.6-7.8 0-7.7 0-0.2-0.1c-0.1-0.1-0.3-0.2-0.4-0.3l-0.1-0.2 0-4.3c-0.1-2.9 0-4.3 0-4.5 0.1-0.2 0.4-0.5 0.6-0.5 0.2-0.1 2.6-0.1 7.9-0.1l7.7 0 1.6 1.6 1.6 1.6 0-1.4 0-1.4-1.2-1.2-1.3-1.2-8.3 0m4.8 4c-1.1 0.2-2 1.1-2.3 2.1-0.2 0.5-0.2 1.3 0 1.8 0.3 0.9 1 1.6 1.9 2 0.3 0.1 0.4 0.1 0.9 0.1 0.5 0 0.7 0 1-0.1 0.9-0.4 1.6-1.1 1.9-2 0.2-0.5 0.2-1.3 0-1.8-0.3-0.9-1-1.6-1.9-2-0.3-0.1-1.2-0.1-1.5-0.1m0.1 2.1c-0.7 0.3-0.8 1.3-0.1 1.8 0.2 0.1 0.8 0.1 1 0 0.4-0.3 0.6-0.7 0.5-1.2-0.1-0.3-0.6-0.7-1-0.7-0.1 0-0.3 0-0.4 0.1" stroke="none" fill="black" fill-rule="evenodd"></path><path fill-opacity="0.481" d="M13.3 5l-8.3 0-0.4 0.2c-0.8 0.2-1.4 0.8-1.7 1.5-0.4 0.6-0.4 0.4-0.3 5.4l0 4.6 0.1 0.3c0.3 0.9 1 1.5 1.9 1.9l0.3 0.1 8.3 0 8.4 0 1.2-1.2 1.2-1.2 0-1.4 0-1.4-1.6 1.6-1.6 1.6-7.8 0-7.7 0-0.2-0.1c-0.3-0.2-0.5-0.4-0.5-0.7-0.1-0.3-0.1-8.1 0-8.4 0-0.3 0.2-0.6 0.5-0.7 0.2-0.1 0.6-0.1 7.9-0.1l7.8 0 1.6 1.6 1.6 1.6 0-1.4 0-1.4-1.2-1.2-1.3-1.2-8.2 0m4.6 4.1c-1.1 0.2-2 1.1-2.3 2.1-0.1 0.4-0.1 1.1 0 1.5 0.2 1 1.1 1.9 2 2.2 0.5 0.1 1.3 0.1 1.8 0 0.7-0.3 1.4-0.9 1.8-1.6 0.4-0.7 0.4-1.9 0-2.6-0.6-1.3-2-1.9-3.3-1.6m0.2 2c-0.4 0.2-0.6 0.5-0.6 0.9 0 0.3 0.1 0.5 0.4 0.7 0.2 0.2 0.3 0.3 0.6 0.3 0.3 0 0.5-0.1 0.7-0.3 0.2-0.2 0.4-0.6 0.3-0.8 0 0 0-0.1 0-0.2-0.1-0.2-0.3-0.5-0.6-0.6-0.2-0.1-0.6-0.1-0.8 0" stroke="none" fill="black" fill-rule="evenodd"></path><path fill-opacity="0.970" d="M13.3 5c-9.2 0-8.5 0-9.2 0.4-0.6 0.3-1.1 0.9-1.4 1.7l-0.1 0.3 0 4.4c-0.1 3.2 0 4.6 0 4.8 0.1 0.6 0.5 1.2 1 1.6 0.2 0.3 0.7 0.5 1.1 0.7l0.3 0.1 8.3 0 8.3 0 1.2-1.2 1.2-1.2 0-1.4 0-1.4-1.6 1.6-1.6 1.6-7.8 0c-7.7 0-7.7 0-7.9-0.1-0.3-0.1-0.5-0.4-0.6-0.7 0-0.1 0-1.7 0-4.2 0-4.5 0-4.3 0.3-4.7 0.2-0.3-0.3-0.3 8.2-0.3l7.8 0 1.6 1.6 1.6 1.6 0-1.4 0-1.4-1.2-1.2-1.3-1.2-8.2 0m4.8 4c-1 0.2-1.8 0.8-2.2 1.7-0.5 0.8-0.4 2.1 0.1 2.8 0.4 0.7 1 1.2 1.7 1.4 0.4 0.1 1.2 0.1 1.6 0 1.1-0.3 1.8-1.1 2.1-2.1 0.2-0.7 0.1-1.6-0.2-2.2-0.1-0.2-0.4-0.5-0.6-0.7-0.4-0.4-0.7-0.6-1.2-0.8-0.4-0.1-1-0.1-1.3-0.1m0 2.1c-0.3 0.2-0.6 0.5-0.6 0.8 0 0.4 0.2 0.8 0.5 1 0.5 0.3 1.1 0.1 1.4-0.4 0.2-0.3 0.2-0.6 0-0.9-0.2-0.4-0.4-0.6-0.8-0.6-0.3 0-0.4 0-0.5 0.1" stroke="none" fill="black" fill-rule="evenodd"></path></svg>