<?xml version="1.0"?><svg xmlns="http://www.w3.org/2000/svg" width="24" height="24" viewBox="0 0 24 24" version="1.1"><rect x="0" y="0" width="24" height="24" fill="#00000000"></rect><path fill-opacity="0.322" d="M5 2.1c-0.1 0.1-0.2 0.2-0.3 0.3-0.1 0.2-1.2 6.9-1.2 7.2 0 0.1 0 0.2 0.1 0.3 0.1 0.1 0.2 0.1 1.2 0.1 1.1 0 1.2 0 1.4-0.1 0-0.1 0.2-0.2 0.2-0.3 0-0.1 1.3-7.1 1.3-7.2 0-0.1-0.1-0.2-0.1-0.2l-0.2-0.2-1.1 0c-1.1 0-1.2 0-1.3 0.1m5 0c-0.1 0.1-0.2 0.2-0.3 0.3-0.1 0.2-3.4 19.2-3.4 19.3 0 0.1 0.1 0.1 0.2 0.2 0.1 0.1 0.1 0.1 1.2 0.1 1.1 0 1.2 0 1.3-0.1 0.1-0.1 0.2-0.2 0.3-0.3 0-0.1 3.4-19 3.4-19.2 0-0.1-0.1-0.2-0.1-0.2l-0.2-0.2-1.1 0c-1.1 0-1.2 0-1.3 0.1m5 0c-0.1 0.1-0.2 0.2-0.3 0.3-0.1 0.2-3.4 19.2-3.4 19.3 0 0.1 0.1 0.1 0.2 0.2 0.1 0.1 0.1 0.1 1.2 0.1 1.1 0 1.2 0 1.3-0.1 0.1-0.1 0.2-0.2 0.3-0.3 0-0.1 3.4-19 3.4-19.2 0-0.1-0.1-0.2-0.1-0.2l-0.2-0.2-1.1 0c-1.1 0-1.2 0-1.3 0.1m5 0c-0.1 0.1-0.2 0.2-0.3 0.3-0.1 0.2-1.3 6.9-1.3 7.2 0 0.1 0.1 0.2 0.2 0.3 0.1 0.1 0.2 0.1 1.2 0.1 1.1 0 1.2 0 1.4-0.1 0-0.1 0.2-0.2 0.2-0.3 0-0.1 1.3-7.1 1.3-7.2 0-0.1-0.1-0.2-0.1-0.2l-0.2-0.2-1.1 0c-1.1 0-1.2 0-1.3 0.1" stroke="none" fill="black" fill-rule="evenodd"></path><path fill-opacity="0.451" d="M5 2.1c-0.1 0.1-0.2 0.1-0.3 0.2 0 0.1-1.2 7-1.2 7.3 0 0.1 0 0.2 0.1 0.3l0.1 0.1 1.2 0c1.1 0 1.2 0 1.3-0.1 0.1-0.1 0.2-0.2 0.2-0.3 0 0 0.3-1.7 0.7-3.6 0.4-2.6 0.6-3.6 0.6-3.7-0.1-0.3-0.2-0.3-1.4-0.3-1.1 0-1.2 0-1.3 0.1m5 0c-0.1 0.1-0.2 0.1-0.3 0.2 0 0.2-3.4 19.3-3.4 19.4 0 0.1 0.1 0.1 0.2 0.2 0.1 0.1 0.2 0.1 1.2 0.1 1.2 0 1.4 0 1.5-0.3 0.1-0.2 3.5-19.3 3.5-19.4-0.1-0.3-0.2-0.3-1.4-0.3-1.1 0-1.2 0-1.3 0.1m5 0c-0.1 0.1-0.2 0.1-0.3 0.2 0 0.2-3.4 19.3-3.4 19.4 0 0.1 0.1 0.1 0.2 0.2 0.1 0.1 0.2 0.1 1.2 0.1 1.2 0 1.4 0 1.5-0.3 0.1-0.2 3.5-19.3 3.5-19.4-0.1-0.3-0.2-0.3-1.4-0.3-1.1 0-1.2 0-1.3 0.1m5 0c-0.1 0.1-0.2 0.1-0.3 0.2 0 0.1-1.2 7-1.2 7.3 0 0.1 0 0.2 0.1 0.3l0.1 0.1 1.2 0c1.1 0 1.2 0 1.3-0.1 0.1-0.1 0.2-0.2 0.2-0.3 0 0 0.3-1.7 0.7-3.6 0.4-2.6 0.6-3.6 0.6-3.7-0.1-0.3-0.2-0.3-1.4-0.3-1.1 0-1.2 0-1.3 0.1" stroke="none" fill="black" fill-rule="evenodd"></path><path fill-opacity="0.126" d="M5 2.1c-0.1 0-0.2 0.1-0.2 0.3-0.2 0.3-1.4 7.2-1.3 7.3 0.1 0.3 0.2 0.3 1.4 0.3 1.2 0 1.3 0 1.5-0.3 0.1-0.2 1.3-7 1.3-7.3 0-0.1-0.1-0.2-0.2-0.3-0.1-0.1-0.2-0.1-1.2-0.1-0.9 0-1.2 0-1.3 0.1m5 0c-0.1 0-0.2 0.1-0.2 0.2-0.1 0.2-3.4 18.9-3.4 19.3 0 0.2 0 0.2 0.1 0.3 0.1 0.1 0.2 0.1 1.3 0.1 1.3 0 1.3 0 1.5-0.4 0.1-0.3 3.4-18.9 3.4-19.2 0-0.1-0.1-0.2-0.2-0.3-0.1-0.1-0.2-0.1-1.2-0.1-0.9 0-1.2 0-1.3 0.1m5 0c-0.1 0-0.2 0.1-0.2 0.2-0.1 0.2-3.4 18.9-3.4 19.3 0 0.2 0 0.2 0.1 0.3 0.1 0.1 0.2 0.1 1.3 0.1 1.3 0 1.3 0 1.5-0.4 0.1-0.3 3.4-18.9 3.4-19.2 0-0.1-0.1-0.2-0.2-0.3-0.1-0.1-0.2-0.1-1.2-0.1-0.9 0-1.2 0-1.3 0.1m5 0c-0.1 0-0.2 0.1-0.2 0.3-0.2 0.3-1.4 7.2-1.3 7.3 0.1 0.3 0.2 0.3 1.4 0.3 1.2 0 1.3 0 1.5-0.3 0.1-0.2 1.3-7 1.3-7.3 0-0.1-0.1-0.2-0.2-0.3-0.1-0.1-0.2-0.1-1.2-0.1-0.9 0-1.2 0-1.3 0.1" stroke="none" fill="black" fill-rule="evenodd"></path><path fill-opacity="0.976" d="M5.1 2.1c-0.1 0-0.3 0.1-0.3 0.2-0.1 0.1-0.3 1.1-0.7 3.7-0.7 4-0.7 3.8-0.4 4 0.2 0 0.6 0 1.3 0 1 0 1 0 1.2-0.1 0.1-0.1 0.2-0.2 0.2-0.3 0.1-0.3 1.3-7 1.3-7.2 0-0.1-0.1-0.2-0.1-0.3-0.1-0.1-0.2-0.1-1.3-0.1-0.9 0-1.1 0-1.2 0.1m5 0c-0.1 0-0.3 0.1-0.3 0.2-0.1 0.1-0.5 2.6-1.8 9.6-0.9 5.3-1.6 9.6-1.6 9.7 0 0.1 0 0.2 0 0.3 0.1 0.1 0.1 0.1 1.3 0.1 1.3 0 1.3 0 1.5-0.3 0.1-0.1 3.5-19 3.5-19.3 0-0.1-0.1-0.2-0.1-0.3-0.1-0.1-0.2-0.1-1.3-0.1-0.9 0-1.1 0-1.2 0.1m5 0c-0.1 0-0.3 0.1-0.3 0.2-0.1 0.1-0.5 2.6-1.8 9.6-0.9 5.3-1.6 9.6-1.6 9.7 0 0.1 0 0.2 0 0.3 0.1 0.1 0.1 0.1 1.3 0.1 1.3 0 1.3 0 1.5-0.3 0.1-0.1 3.5-19 3.5-19.3 0-0.1-0.1-0.2-0.1-0.3-0.1-0.1-0.2-0.1-1.3-0.1-0.9 0-1.1 0-1.2 0.1m5 0c-0.1 0-0.3 0.1-0.3 0.2-0.1 0.1-0.3 1.1-0.7 3.7-0.7 4-0.7 3.8-0.4 4 0.2 0 0.6 0 1.3 0 1 0 1 0 1.2-0.1 0.1-0.1 0.2-0.2 0.2-0.3 0.1-0.3 1.3-7 1.3-7.2 0-0.1-0.1-0.2-0.1-0.3-0.1-0.1-0.2-0.1-1.3-0.1-0.9 0-1.1 0-1.2 0.1" stroke="none" fill="black" fill-rule="evenodd"></path></svg>