<?xml version="1.0"?><svg xmlns="http://www.w3.org/2000/svg" width="24" height="24" viewBox="0 0 24 24" version="1.1"><rect x="0" y="0" width="24" height="24" fill="#00000000"></rect><path fill-opacity="1.000" d="M3 12l0 3 9 0 9 0 0-3 0-3-9 0-9 0 0 3m2 0l0 1 7 0 7 0 0-1 0-1-7 0-7 0 0 1m-2 8.5l0 3.5 1 0 1 0 0-2.5 0-2.5 2 0 2 0 0 2.5 0 2.5 1 0 1 0 0-3.5 0-3.5-4 0-4 0 0 3.5m10-2.5l0 1 4 0 4 0 0-1 0-1-4 0-4 0 0 1m0 4l0 1 4 0 4 0 0-1 0-1-4 0-4 0 0 1" stroke="none" fill="black" fill-rule="evenodd"></path></svg>