<?xml version="1.0"?><svg xmlns="http://www.w3.org/2000/svg" width="24" height="24" viewBox="0 0 24 24" version="1.1"><rect x="0" y="0" width="24" height="24" fill="#00000000"></rect><path fill-opacity="0.353" d="M11 2.1c-1.6 0.1-3.2 0.7-4.5 1.5-2.7 1.8-4.4 4.7-4.5 8.1 0 1.6 0.3 3.2 1 4.7 0.6 1.1 1.2 1.9 2 2.7 2.7 2.7 6.7 3.6 10.3 2.3 1.4-0.4 2.7-1.2 3.7-2.3 1.6-1.5 2.5-3.4 2.9-5.7 0.1-0.5 0.1-2.3 0-2.8-0.3-2.1-1.1-3.8-2.5-5.3-2.1-2.4-5.2-3.6-8.4-3.2m-0.5 2.1c-0.5 0-1.5 0.4-2.1 0.7-1.1 0.6-2.2 1.4-2.9 2.4-0.3 0.5-0.9 1.6-1.1 2.2-0.1 0.4-0.3 1.3-0.3 1.4 0.1 0 0.8-0.1 1.4-0.3 2.2-0.8 4.1-2.5 4.9-4.7 0.2-0.4 0.4-1.2 0.5-1.6 0-0.2 0-0.2-0.4-0.1m2.4 0.1c-0.4 3.1-2.1 5.7-4.8 7.3-1 0.6-2.2 1.1-3.3 1.2-0.2 0.1-0.5 0.1-0.5 0.1l-0.2 0.1 0 0.2c0.1 1.1 0.7 2.5 1.4 3.5 0.4 0.6 1.2 1.4 1.8 1.8 0.8 0.6 2.1 1.1 3.1 1.3 0.6 0.1 0.6 0.1 0.7-0.1 0.4-2.6 1.6-4.8 3.6-6.5 1.4-1.1 3.2-1.9 5-2.1 0.2-0.1 0.2-0.1 0.1-0.7-0.5-2.4-2.1-4.4-4.2-5.5-0.7-0.4-1.6-0.7-2.1-0.7-0.5-0.1-0.5-0.1-0.6 0.1m6.4 8.9c-1 0.2-2.1 0.7-3 1.3-0.6 0.5-1.3 1.2-1.8 1.8-0.4 0.6-0.9 1.6-1.1 2.2-0.2 0.5-0.3 1.3-0.3 1.4 0.1 0 0.8-0.1 1.4-0.3 1.9-0.6 3.6-2 4.5-3.8 0.4-0.8 0.8-1.7 0.9-2.5 0-0.2 0-0.2-0.1-0.2-0.1 0-0.3 0-0.5 0.1" stroke="none" fill="black" fill-rule="evenodd"></path><path fill-opacity="0.485" d="M11.3 2c-1.1 0.1-1.7 0.3-2.7 0.6-2.4 0.9-4.5 2.7-5.6 5.1-2.2 4.5-0.7 10 3.6 12.7 1.1 0.7 2.7 1.3 4 1.5 0.2 0 0.9 0.1 1.4 0.1 1 0 1.5-0.1 2.3-0.3 1.9-0.5 3.5-1.4 4.9-2.8 1.5-1.5 2.4-3.4 2.7-5.6 0.1-0.6 0.1-2 0-2.6-0.3-1.8-0.9-3.4-2-4.8-0.3-0.4-1.2-1.3-1.6-1.7-1.4-1.1-3.1-1.8-4.8-2.1-0.5-0.1-1.8-0.1-2.2-0.1m1.6 2.2c-0.2 1.3-0.4 2.1-0.9 3.1-0.4 1-1 1.8-1.8 2.6-1.6 1.7-3.5 2.6-6 3-0.2 0.1-0.2 0 0 0.8 0.4 2.1 1.8 4 3.7 5.2 0.8 0.4 1.9 0.8 2.7 1l0.4 0 0.1-0.1c0.2-1.4 0.4-2.1 0.9-3.2 0.5-0.9 1-1.7 1.8-2.5 0.9-0.9 1.7-1.6 2.9-2.1 0.9-0.5 1.9-0.7 3.1-0.9 0.2-0.1 0.2 0 0-0.7-0.5-2.5-2.2-4.6-4.5-5.7-0.7-0.3-1.4-0.5-2-0.6l-0.3 0-0.1 0.1m-2.7 0c-3.1 0.8-5.4 3.1-6 6.2-0.1 0.3-0.1 0.5-0.1 0.5 0.1 0 0.6-0.1 1.1-0.2 2.5-0.7 4.5-2.6 5.3-5 0.2-0.4 0.4-1.3 0.4-1.5 0-0.1-0.1-0.1-0.7 0m9 9c-2.4 0.6-4.4 2.2-5.5 4.4-0.3 0.8-0.7 2.2-0.6 2.3 0.1 0 0.6-0.1 1.1-0.2 2.5-0.7 4.5-2.6 5.3-5 0.2-0.4 0.4-1.3 0.4-1.5 0-0.1-0.1-0.1-0.7 0" stroke="none" fill="black" fill-rule="evenodd"></path><path fill-opacity="0.341" d="M11.4 2c-2.6 0.2-4.9 1.3-6.6 3.1-1.5 1.5-2.3 3.3-2.7 5.5-0.1 0.7-0.1 2.1 0 2.8 0.4 2.3 1.4 4.3 3 5.8 1.5 1.5 3.3 2.3 5.4 2.7 0.7 0.1 2.3 0.1 3 0 3.7-0.6 6.6-3 7.9-6.5 0.4-1.1 0.6-2.1 0.6-3.4 0-1-0.1-1.6-0.3-2.5-0.9-3.5-3.7-6.3-7.3-7.2-0.7-0.2-2.2-0.3-3-0.3m1.5 2.2c0 0 0 0.3-0.1 0.6-0.1 1-0.6 2.3-1.2 3.2-1.5 2.6-4.1 4.4-7.1 4.9l-0.4 0 0 0.3c0 0.3 0.2 1.2 0.4 1.7 0.5 1.1 1.1 2 1.8 2.8 1.3 1.2 2.7 1.9 4.6 2.2 0.1 0.1 0.1 0 0.2-0.1 0 0 0-0.3 0.1-0.7 0.5-2.6 2-4.9 4.3-6.4 1-0.7 2.4-1.3 3.6-1.5 0.4-0.1 0.7-0.1 0.7-0.1 0.1 0 0.1-0.1 0.1-0.3 0-0.4-0.3-1.2-0.4-1.7-0.9-2.3-2.7-4-5.1-4.7-0.4-0.2-1.3-0.4-1.4-0.4 0 0-0.1 0.1-0.1 0.2m-2.6 0c-2.7 0.6-4.8 2.4-5.7 4.9-0.3 0.5-0.4 1.1-0.5 1.6l0 0.2 0.1 0c0.1 0 0.5-0.1 0.8-0.2 3-0.7 5.3-3.2 5.9-6.2l0-0.4-0.1 0c-0.1 0-0.4 0-0.5 0.1m9.1 9c-0.6 0.1-1 0.2-1.6 0.5-2.4 1.1-4.2 3.2-4.7 5.8l0 0.4 0.1 0c0.4 0 1.5-0.3 2.2-0.7 1.8-0.8 3.3-2.4 4.1-4.3 0.2-0.6 0.4-1.5 0.4-1.7l0-0.1-0.5 0.1" stroke="none" fill="black" fill-rule="evenodd"></path><path fill-opacity="0.964" d="M11.6 2c-0.6 0.1-1.6 0.2-2 0.3-2.5 0.7-4.5 2.1-5.9 4.2-1.1 1.6-1.7 3.5-1.7 5.5 0 1.6 0.3 2.9 1 4.4 1.5 3 4.4 5.1 7.7 5.5 0.6 0.1 2 0.1 2.6 0 3.3-0.4 6.2-2.5 7.7-5.5 0.7-1.5 1-2.8 1-4.4 0-1.6-0.4-3.1-1.1-4.5-1.3-2.6-3.6-4.4-6.5-5.2-0.7-0.2-2.1-0.3-2.8-0.3m-0.3 2c0.1 0 0.3 0 0.4 0 0.1 0 0 0-0.2 0-0.2 0-0.3 0-0.2 0m1 0c0.1 0 0.3 0 0.4 0 0.1 0 0 0-0.2 0-0.2 0-0.3 0-0.2 0m-1.8 0.1c-0.8 0.2-1.9 0.6-2.6 1-1.9 1.1-3.2 3-3.7 5.1-0.1 0.3-0.2 1-0.1 0.8 0 0 0.1-0.1 0.1-0.1 0.1 0 0.3 0 0.4-0.1 0.5 0 1.1-0.2 1.6-0.5 2.4-1 4.1-3.2 4.6-5.7 0.1-0.3 0.2-0.5 0.2-0.5 0.1-0.1 0-0.1-0.5 0m2.4 0.1c0 0.1-0.1 0.4-0.1 0.8-0.6 2.6-2.1 4.9-4.4 6.4-1.1 0.7-2.8 1.3-4 1.5l-0.4 0 0.1 0.3c0.2 2 1.4 4 3.1 5.2 1 0.8 2.4 1.4 3.6 1.5l0.3 0.1 0-0.5c0.1-0.6 0.3-1.3 0.6-2 1-2.7 3.1-4.8 5.8-5.9 0.7-0.2 1.6-0.4 2.1-0.5l0.4 0-0.1-0.3c-0.2-1.8-1.3-3.8-2.8-5-1-0.8-2.4-1.5-3.6-1.7-0.6-0.1-0.6-0.1-0.6 0.1m-8.9 7.3c0 0.2 0 0.3 0 0.2 0-0.1 0-0.3 0-0.4 0-0.1 0 0 0 0.2m16 0c0 0.2 0 0.3 0 0.2 0-0.1 0-0.3 0-0.4 0-0.1 0 0 0 0.2m-16 1c0 0.2 0 0.3 0 0.2 0-0.1 0-0.3 0-0.4 0-0.1 0 0 0 0.2m16 0c0 0.2 0 0.3 0 0.2 0-0.1 0-0.3 0-0.4 0-0.1 0 0 0 0.2m-0.1 0.5c0 0-0.2 0.1-0.5 0.2-1.2 0.2-2.5 0.8-3.5 1.6-1.4 1.1-2.4 2.8-2.7 4.6-0.1 0.2-0.2 0.5-0.2 0.5-0.2 0.1 0.8-0.1 1.4-0.3 2.9-0.9 5.1-3.4 5.5-6.4 0.1-0.2 0-0.3 0-0.2m-8.5 7c0.1 0 0.3 0 0.3 0 0.1 0 0 0-0.1 0-0.2 0-0.3 0-0.2 0m0.9 0c0.1 0 0.2 0 0.3 0 0.1 0 0 0-0.2 0-0.1 0-0.2 0-0.1 0" stroke="none" fill="black" fill-rule="evenodd"></path></svg>