<?xml version="1.0"?><svg xmlns="http://www.w3.org/2000/svg" width="24" height="24" viewBox="0 0 24 24" version="1.1"><rect x="0" y="0" width="24" height="24" fill="#00000000"></rect><path fill-opacity="0.322" d="M1.4 2.1c-0.4 0.1-0.6 0.3-0.9 0.6-0.2 0.3-0.3 0.4-0.4 0.7-0.1 0.4-0.1 16.8 0 17.2 0.2 0.6 0.7 1.2 1.4 1.3 0.4 0.1 20.6 0.1 21 0 0.3-0.1 0.6-0.2 0.9-0.4 0.1-0.2 0.5-0.7 0.5-0.8 0-0.1 0-0.2 0.1-0.3 0-0.1 0-1.2 0-8.5 0-4.7 0-8.3 0-8.3 0 0 0 0-0.1-0.1 0-0.4-0.5-1-0.9-1.2-0.5-0.3 0.1-0.3-11-0.3-9.7 0-10.4 0-10.6 0.1m-1.4 9.9c0 4.6 0 6.5 0 4.2 0-2.3 0-6.1 0-8.4 0-2.3 0-0.4 0 4.2m2 0l0 8 10 0 10 0 0-8 0-8-10 0-10 0 0 8m5.3-3.5c-0.4 0.3-0.7 0.6-0.7 0.7 0 0 0.6 0.6 1.4 1.4l1.4 1.4-1.4 1.4c-0.8 0.8-1.4 1.4-1.4 1.4 0 0.1 0.3 0.4 0.7 0.7l0.7 0.7 1.5-1.4c0.8-0.8 1.8-1.8 2.1-2.2l0.7-0.6-2.1-2.1c-1.2-1.2-2.2-2.1-2.2-2.1 0 0-0.3 0.3-0.7 0.7m5.7 6.5l0 1 2 0 2 0 0-1 0-1-2 0-2 0 0 1" stroke="none" fill="black" fill-rule="evenodd"></path><path fill-opacity="0.300" d="M1.5 2.1c-0.5 0.1-0.9 0.4-1.2 0.8-0.3 0.6-0.3 0-0.3 9.2l0 8.4 0.2 0.3c0.2 0.4 0.6 0.8 1 1l0.3 0.2 10.5 0 10.5 0 0.3-0.2c0.2-0.1 0.5-0.2 0.6-0.4 0.3-0.3 0.5-0.8 0.5-1 0.1 0 0.1-0.1 0.1-0.1 0 0 0.1-2.9 0.1-8.4 0-5.5-0.1-8.2-0.1-8.2 0 0 0 0-0.1-0.1 0-0.2-0.2-0.7-0.4-1-0.3-0.2-0.6-0.4-1-0.5-0.4-0.1-20.6-0.1-21 0m-1.5 9.9c0 4.6 0 6.5 0 4.2 0-2.3 0-6.1 0-8.4 0-2.3 0-0.4 0 4.2m2 0l0 8 10 0 10 0 0-8 0-8-10 0-10 0 0 8m5.3-3.5l-0.7 0.7 1.4 1.4 1.4 1.4-1.4 1.4-1.4 1.4 0.7 0.7 0.7 0.7 2.1-2.1c1.2-1.1 2.2-2.1 2.2-2.1 0 0-4.3-4.2-4.3-4.2 0 0-0.3 0.3-0.7 0.7m5.7 6.5l0 1 2 0 2 0 0-1 0-1-2 0-2 0 0 1" stroke="none" fill="black" fill-rule="evenodd"></path><path fill-opacity="0.694" d="M1.6 2.1c-0.4 0-0.7 0.2-1 0.5-0.3 0.3-0.5 0.6-0.5 1.1-0.1 0.2-0.1 2.7-0.1 8.5l0 8.2 0.1 0.3c0.3 0.5 0.7 1 1.3 1.2 0.2 0.1 0.7 0.1 10.4 0.1 6.5 0 10.3 0 10.5 0 0.2-0.1 0.4-0.2 0.6-0.2 0.5-0.3 1-0.9 1-1.4 0.1-0.1 0.1-0.2 0.1-0.2 0 0 0-3.7 0-8.3 0-4.5 0-8.1 0-8.1 0 0 0 0-0.1-0.2 0-0.7-0.7-1.4-1.5-1.5-0.4-0.1-20.5-0.1-20.8 0m-1.6 9.9c0 4.5 0 6.4 0 4.1 0-2.2 0-6 0-8.2 0-2.3 0-0.4 0 4.1m2 0l0 8 10 0 10 0 0-8 0-8-10 0-10 0 0 8m5.3-3.5l-0.7 0.7 1.4 1.4 1.4 1.4-1.4 1.4-1.4 1.4 0.7 0.7 0.7 0.7 2.1-2.1 2.1-2.1-2.1-2.1c-1.1-1.2-2.1-2.1-2.1-2.1 0 0-0.3 0.3-0.7 0.7m5.7 6.5l0 1 2 0 2 0 0-1 0-1-2 0-2 0 0 1" stroke="none" fill="black" fill-rule="evenodd"></path><path fill-opacity="0.973" d="M1.7 2.1c-0.4 0-0.7 0.2-1.1 0.5-0.3 0.3-0.5 0.7-0.5 1.1-0.1 0.5-0.1 16.1 0 16.6 0.1 0.7 0.6 1.4 1.4 1.6 0.3 0.1 20.7 0.1 21 0 0.8-0.2 1.4-0.9 1.4-1.6 0.1-0.1 0.1-0.3 0.1-0.3 0 0 0.1-3.6 0.1-8.1 0-4.5-0.1-8-0.1-8 0 0 0-0.1-0.1-0.2 0-0.4-0.2-0.7-0.5-1.1-0.3-0.3-0.7-0.5-1.1-0.5-0.5-0.1-20.2-0.1-20.6 0m-1.7 9.9c0 4.4 0 6.3 0 4 0-2.2 0-5.8 0-8 0-2.3 0-0.4 0 4m2 0l0 8 10 0 10 0 0-8 0-8-10 0-10 0 0 8m5.3-3.5l-0.7 0.7 1.4 1.4 1.4 1.4-1.4 1.4-1.4 1.4 0.7 0.7 0.7 0.7 2.1-2.1 2.1-2.1-2.1-2.1c-1.1-1.2-2.1-2.1-2.1-2.1 0 0-0.3 0.3-0.7 0.7m5.7 6.5l0 1 2 0 2 0 0-1 0-1-2 0-2 0 0 1" stroke="none" fill="black" fill-rule="evenodd"></path></svg>