<?xml version="1.0"?><svg xmlns="http://www.w3.org/2000/svg" width="24" height="24" viewBox="0 0 24 24" version="1.1"><rect x="0" y="0" width="24" height="24" fill="#00000000"></rect><path fill-opacity="0.388" d="M9 4.4l0 4.5-0.2-0.3-0.3-0.2-0.2 0.2c-0.3 0.3-0.7 1-0.9 1.4-0.6 1.4-0.5 3 0.2 4.3 0.6 1.2 1.6 2 2.8 2.4 2.7 1 5.7-0.6 6.5-3.5 0.1-0.5 0.1-1.9 0-2.4-0.3-0.8-0.7-1.7-1.2-2.2l-0.2-0.2-0.3 0.2-0.2 0.3 0-4.5 0-4.4-1 0-1 0 0 5 0 5 0.6 0 0.7 0 0.2 0.3c0.6 1 0.6 2.4 0 3.3-0.4 0.6-1 1.1-1.7 1.3-0.4 0.1-1.3 0.1-1.7 0-0.7-0.3-1.2-0.7-1.6-1.3-0.6-0.9-0.6-2.3 0-3.3l0.2-0.3 0.7 0 0.6 0 0-5 0-5-1 0-1 0 0 4.4m2.6 6.7c-0.8 0.4-0.8 1.5 0 1.8 0.4 0.2 0.8 0.1 1.1-0.2 0.4-0.3 0.4-1.1 0-1.4-0.3-0.3-0.8-0.4-1.1-0.2" stroke="none" fill="black" fill-rule="evenodd"></path><path fill-opacity="0.289" d="M9 4.4l0 4.5-0.2-0.2c-0.1-0.2-0.3-0.2-0.3-0.2 0 0-0.1 0.1-0.3 0.2-1.5 1.9-1.6 4.4-0.2 6.3 0.7 0.9 1.7 1.6 2.8 1.9 0.7 0.1 1.7 0.1 2.4 0 1.1-0.3 2.1-1 2.8-1.9 1.4-1.9 1.3-4.4-0.2-6.3-0.2-0.1-0.3-0.2-0.3-0.2 0 0-0.2 0-0.3 0.2l-0.2 0.2 0-4.5 0-4.4-1 0-1 0 0 5 0 5 0.6 0 0.6 0 0.2 0.2c0.2 0.3 0.4 0.8 0.5 1.2 0.2 1-0.1 2-0.8 2.7-0.4 0.4-0.8 0.7-1.4 0.8-0.7 0.2-1.5 0.1-2.1-0.3-0.5-0.2-1-0.8-1.3-1.2-0.2-0.5-0.3-1-0.3-1.4 0-0.6 0.2-1.3 0.6-1.8l0.2-0.2 0.6 0 0.6 0 0-5 0-5-1 0-1 0 0 4.4m2.6 6.7c-0.6 0.2-0.8 0.9-0.4 1.5 0.4 0.6 1.3 0.5 1.7-0.1 0.2-0.5 0-1.1-0.4-1.4-0.2-0.1-0.6-0.1-0.9 0" stroke="none" fill="black" fill-rule="evenodd"></path><path fill-opacity="0.558" d="M9 4.5l0 4.4-0.3-0.2-0.2-0.3-0.2 0.3c-0.5 0.6-0.9 1.3-1.1 2.1-0.1 0.4-0.2 0.6-0.2 1.2 0 0.6 0.1 0.8 0.2 1.2 0.4 1.7 1.6 3 3.3 3.5 0.3 0.2 1.1 0.3 1.5 0.3 0.4 0 1.2-0.1 1.6-0.3 1.6-0.5 2.8-1.8 3.2-3.5 0.1-0.4 0.2-0.6 0.2-1.2 0-0.6-0.1-0.8-0.2-1.2-0.2-0.8-0.6-1.6-1.1-2.1l-0.2-0.3-0.2 0.3-0.3 0.2 0-4.4 0-4.5-1 0-1 0 0 5 0 5 0.6 0 0.6 0 0.2 0.2c0.2 0.2 0.5 0.9 0.6 1.3 0.1 1-0.2 1.9-0.9 2.6-0.6 0.6-1.3 0.9-2.1 0.9-1.3 0-2.4-0.8-2.9-2.1-0.1-0.4-0.1-1.4 0-1.8 0.2-0.4 0.3-0.7 0.5-0.9l0.2-0.2 0.6 0 0.6 0 0-5 0-5-1 0-1 0 0 4.5m2.7 6.5c-0.2 0.1-0.4 0.3-0.6 0.6-0.1 0.3-0.1 0.5 0 0.9 0.2 0.2 0.2 0.2 0.4 0.4 0.2 0 0.4 0.1 0.5 0.1 0.1 0 0.3-0.1 0.5-0.1 0.2-0.2 0.2-0.2 0.4-0.4 0.1-0.4 0.1-0.6 0-0.9-0.2-0.4-0.8-0.7-1.2-0.6" stroke="none" fill="black" fill-rule="evenodd"></path><path fill-opacity="0.959" d="M9 4.5l0 4.4-0.2-0.2-0.3-0.3-0.2 0.2c-0.2 0.3-0.7 1-0.8 1.3-0.7 1.6-0.6 3.4 0.4 4.9 0.5 0.7 1.1 1.3 1.9 1.7 1.3 0.6 3.1 0.6 4.4 0 0.5-0.3 0.9-0.5 1.3-1 1.5-1.4 1.9-3.7 1-5.6-0.1-0.3-0.6-1-0.8-1.3l-0.2-0.2-0.3 0.3-0.2 0.2 0-4.4 0-4.5-1 0-1 0 0 5 0 5 0.6 0 0.7 0 0.2 0.3c0.3 0.5 0.5 0.9 0.5 1.6 0 0.6-0.1 0.9-0.3 1.4-0.3 0.7-1 1.3-1.7 1.6-0.3 0.1-0.5 0.1-1 0.1-0.5 0-0.7 0-1-0.1-0.8-0.3-1.6-1.1-1.9-1.9-0.1-0.4-0.1-1.3 0-1.7 0.1-0.4 0.3-1 0.5-1.2 0.1-0.1 0.2-0.1 0.8-0.1l0.6 0 0-5 0-5-1 0-1 0 0 4.5m2.7 6.6c-0.6 0.1-0.9 0.9-0.5 1.5 0.4 0.5 1.2 0.5 1.6 0 0.5-0.8-0.2-1.8-1.1-1.5" stroke="none" fill="black" fill-rule="evenodd"></path></svg>