<?xml version="1.0"?><svg xmlns="http://www.w3.org/2000/svg" width="24" height="24" viewBox="0 0 24 24" version="1.1"><rect x="0" y="0" width="24" height="24" fill="#00000000"></rect><path fill-opacity="0.463" d="M10.8 1.1c-2 0.2-4 1-5.6 2.2-0.5 0.4-1.3 1.2-1.7 1.8-0.8 0.9-1.6 2.3-1.9 3.4-1.4 4-0.3 8.3 2.6 11.2 1.8 1.9 4.1 3 6.7 3.3 0.8 0 2.2 0 2.9-0.1 2.4-0.5 4.3-1.5 6-3.1 2.9-3 3.9-7.3 2.6-11.3-0.2-0.7-0.8-1.9-1.2-2.6-1.9-2.7-4.8-4.5-8.1-4.8-0.5-0.1-1.8-0.1-2.3 0m0.6 1.9c-3.2 0.3-5.9 2-7.4 4.9-0.7 1.3-1 2.5-1 4.1 0 1.2 0.2 2.1 0.6 3.2 1.1 3 3.8 5.2 7.1 5.7 0.7 0.1 1.9 0.1 2.7 0 3.5-0.6 6.3-3.1 7.3-6.5 0.2-0.9 0.3-1.5 0.3-2.4 0-1.5-0.3-2.8-1-4.1-1.6-3-4.4-4.8-7.7-4.9-0.3 0-0.7 0-0.9 0m-1.4 6.5l0 3.5 3.5 0 3.5 0 0-1 0-1-2.5 0-2.5 0 0-2.5 0-2.5-1 0-1 0 0 3.5" stroke="none" fill="black" fill-rule="evenodd"></path><path fill-opacity="0.299" d="M11.1 1c-3.5 0.4-6.3 2.1-8.3 4.9-1.3 2-2 4.7-1.7 7.1 0.3 3.8 2.7 7.2 6.1 8.9 1.6 0.7 3 1.1 4.8 1.1 1.8 0 3.2-0.4 4.8-1.1 3.4-1.7 5.8-5.1 6.1-8.9 0.5-4.5-2-8.8-6-10.9-1.5-0.7-3-1-4.7-1.1-0.5 0-1 0-1.1 0m0.2 2c-1.5 0.2-2.3 0.5-3.5 1-2.5 1.3-4.2 3.7-4.7 6.6-0.1 0.8-0.1 2.2 0 3 0.5 2.8 2.4 5.2 4.9 6.5 0.7 0.3 1.7 0.6 2.5 0.8 0.8 0.1 2.2 0.1 3 0 0.8-0.2 1.8-0.5 2.5-0.8 2.1-1.1 3.8-3 4.6-5.3 0.3-1 0.4-1.7 0.4-2.7 0-1.6-0.3-2.8-1-4.2-1.3-2.5-3.7-4.3-6.6-4.8-0.4-0.1-1.8-0.1-2.1-0.1m-1.3 6.5l0 3.5 3.5 0 3.5 0 0-1 0-1-2.5 0-2.5 0 0-2.5 0-2.5-1 0-1 0 0 3.5" stroke="none" fill="black" fill-rule="evenodd"></path><path fill-opacity="0.458" d="M11.2 1c-1.5 0.2-2.8 0.5-4.1 1.2-1.2 0.6-2 1.2-3 2.2-1.6 1.7-2.6 3.7-3 6.1-0.1 0.7-0.1 2.3 0 3 0.4 2.4 1.4 4.5 3 6.1 1.7 1.8 3.7 2.8 6.2 3.3 1 0.1 2.5 0.1 3.5-0.1 2.4-0.4 4.4-1.4 6.1-3.2 3-3 3.9-7.5 2.4-11.5-0.2-0.5-0.7-1.4-1-1.9-0.5-0.9-1.5-2.1-2.4-2.7-1.9-1.6-4.2-2.4-6.6-2.5-0.5 0-1 0-1.1 0m-0.4 2.1c-2.8 0.4-5.1 1.9-6.5 4.3-1.4 2.2-1.7 5-0.8 7.5 1 3.1 3.8 5.4 7 6 0.8 0.1 2.3 0.1 3.1 0 4.4-0.8 7.6-4.8 7.4-9.2-0.1-0.9-0.2-1.7-0.4-2.5-1.3-3.7-4.7-6.2-8.7-6.2-0.4 0-0.9 0-1.1 0.1m-0.8 6.4l0 3.5 3.5 0 3.5 0 0-1 0-1-2.5 0-2.5 0 0-2.5 0-2.5-1 0-1 0 0 3.5" stroke="none" fill="black" fill-rule="evenodd"></path><path fill-opacity="0.962" d="M11.2 1c-2.5 0.2-4.9 1.3-6.7 3-3.2 3-4.3 7.6-2.8 11.7 0.2 0.6 0.7 1.7 1.1 2.3 1.5 2.3 3.8 4 6.4 4.6 1 0.3 1.7 0.4 2.8 0.4 1.1 0 1.8-0.1 2.8-0.4 2.6-0.6 4.9-2.3 6.4-4.6 0.4-0.6 1-1.8 1.2-2.5 0.2-0.6 0.4-1.5 0.5-2.2 0.1-0.6 0.1-2 0-2.6-0.5-4.2-3.3-7.6-7.2-9-1.4-0.5-3-0.8-4.5-0.7m-0.6 2.1c-1.8 0.3-3.4 1.1-4.6 2.2-2 1.8-3 4.1-3 6.7 0 1.9 0.6 3.7 1.6 5.2 0.5 0.6 1.6 1.7 2.2 2.2 0.9 0.6 2 1.1 3 1.3 1.3 0.4 3 0.4 4.3 0.1 1-0.3 2.3-0.9 3.1-1.4 0.6-0.5 1.7-1.6 2.2-2.2 1-1.5 1.6-3.3 1.6-5.2 0-1.9-0.5-3.6-1.6-5.2-0.5-0.6-1.6-1.8-2.2-2.2-1.2-0.8-2.5-1.3-3.9-1.5-0.7-0.1-2-0.1-2.7 0m-0.6 6.4l0 3.5 3.5 0 3.5 0 0-1 0-1-2.5 0-2.5 0 0-2.5 0-2.5-1 0-1 0 0 3.5" stroke="none" fill="black" fill-rule="evenodd"></path></svg>