<?xml version="1.0"?><svg xmlns="http://www.w3.org/2000/svg" width="24" height="24" viewBox="0 0 24 24" version="1.1"><rect x="0" y="0" width="24" height="24" fill="#00000000"></rect><path fill-opacity="0.431" d="M11.1 3c-0.1 0.1-0.1 0.2-0.1 3l0 3 1 0 1 0 0-1.9c0-1.6 0-2 0.1-2 0 0 0.3 0.1 0.5 0.1 1.4 0.3 2.5 1 3.4 2 1.2 1.2 1.8 2.6 1.9 4.3 0.3 2.9-1.4 5.7-4 6.9-0.9 0.4-1.9 0.6-2.9 0.6-2.3 0-4.3-1.1-5.6-2.9-0.6-0.8-1.1-1.9-1.3-2.9-0.1-0.6-0.1-1.8 0-2.4 0.2-1.3 0.9-2.6 1.8-3.6l0.2-0.2-0.7-0.7-0.7-0.7-0.2 0.1c-0.2 0.3-0.7 0.9-1 1.4-0.6 0.9-1.2 2.2-1.4 3.3-0.1 0.8-0.1 2.3 0 3.1 0.6 3.3 2.9 6 6.1 7.1 1 0.3 1.6 0.4 2.8 0.4 1.2 0 1.8-0.1 2.8-0.4 1.8-0.6 3.3-1.7 4.4-3.2 1.6-2.2 2.2-5 1.5-7.7-0.5-2.1-1.9-4-3.7-5.2-1.5-1-3.2-1.5-5-1.5-0.5 0-0.9 0-0.9 0m-3 5.8c-0.6 0.2-0.8 0.8-0.5 1.4 0.1 0.2 3.2 2.8 3.5 3 0.4 0.2 0.9 0.1 1.2-0.3 0.3-0.4 0.3-0.9 0-1.3-0.3-0.3-3.2-2.7-3.4-2.8-0.2-0.1-0.6-0.1-0.8 0" stroke="none" fill="black" fill-rule="evenodd"></path><path fill-opacity="0.118" d="M11.2 3l-0.2 0.1 0 2.9 0 3 1 0 1 0 0-1.9c0-1.9 0-2 0.1-2 0 0 0.3 0 0.5 0.1 2.1 0.5 3.7 1.8 4.7 3.7 0.7 1.5 0.9 3.2 0.5 4.8-0.3 1.2-0.9 2.2-1.8 3.2-1 1-2.2 1.6-3.7 2-0.7 0.1-1.9 0.1-2.6 0-1.5-0.4-2.7-1-3.7-2-1.2-1.2-1.8-2.6-2-4.3-0.1-1.9 0.6-4 1.9-5.3l0.2-0.3-0.7-0.7-0.7-0.7-0.1 0.1c-0.1 0-0.3 0.3-0.5 0.5-2 2.4-2.6 5.7-1.6 8.7 1 3.1 3.7 5.4 6.9 6 0.9 0.1 2.3 0.1 3.2 0 1-0.2 2.1-0.6 2.9-1.1 2.3-1.4 3.9-3.6 4.4-6.2 0.1-0.9 0.1-2.4 0-3.2-0.5-2.7-2.3-5.1-4.7-6.3-1-0.6-1.7-0.8-2.9-1-0.6-0.1-1.4-0.1-2.1-0.1m-3 5.8c-0.1 0-0.3 0.1-0.4 0.2-0.4 0.4-0.4 0.8-0.2 1.2 0.2 0.3 3.2 2.8 3.5 3 0.4 0.2 0.8 0.1 1.1-0.2 0.3-0.3 0.4-0.8 0.2-1.1 0-0.1-0.2-0.3-0.3-0.4-0.4-0.4-3-2.6-3.2-2.7-0.2-0.1-0.5-0.1-0.7 0" stroke="none" fill="black" fill-rule="evenodd"></path><path fill-opacity="0.594" d="M11.3 3l-0.3 0.1 0 2.9 0 3 1 0 1 0 0-1.9 0-2 0.1 0c0.1 0 0.3 0 0.6 0.1 2.6 0.7 4.6 2.7 5.1 5.4 0.6 2.9-0.6 5.8-3.2 7.4-0.7 0.4-1.6 0.8-2.5 0.9-0.4 0.1-1.8 0.1-2.2 0-2.2-0.4-4.1-1.7-5.1-3.7-0.5-0.9-0.7-1.9-0.8-2.9-0.1-1.8 0.6-3.6 1.7-4.9 0.2-0.2 0.4-0.4 0.4-0.4 0 0-0.4-0.3-0.7-0.7l-0.7-0.7-0.4 0.4c-1.9 2.2-2.7 5-2.1 7.8 0.5 2.6 2.2 4.9 4.6 6.1 2.6 1.4 5.7 1.4 8.3 0.1 2.4-1.2 4.2-3.5 4.7-6.2 0.5-2.4 0-4.8-1.3-6.8-0.4-0.6-0.9-1.1-1.5-1.7-0.6-0.5-0.9-0.8-1.6-1.1-1.6-0.9-3.2-1.3-5.1-1.2m-3.1 5.7c-0.4 0.2-0.7 0.5-0.7 1 0 0.3 0.1 0.5 0.2 0.6 0.2 0.2 3.2 2.7 3.4 2.9 0.4 0.2 1 0 1.3-0.4 0.2-0.4 0.1-0.9-0.1-1.1-0.2-0.2-3.2-2.7-3.4-2.8-0.2-0.2-0.5-0.2-0.7-0.2" stroke="none" fill="black" fill-rule="evenodd"></path><path fill-opacity="0.962" d="M11.4 3l-0.4 0.1 0 2.9 0 3 1 0 1 0 0-2 0-1.9 0.1 0c0.4 0 0.9 0.2 1.3 0.3 2.5 0.9 4.2 3.1 4.6 5.8 0 0.6 0 1.7-0.1 2.2-0.7 2.9-3 5.1-5.9 5.5-3.3 0.5-6.6-1.5-7.6-4.7-0.3-0.8-0.4-1.2-0.4-2.2 0-1 0.1-1.4 0.4-2.2 0.3-0.9 0.7-1.7 1.3-2.4l0.4-0.4-0.7-0.7-0.7-0.7-0.2 0.2c-1.7 1.8-2.5 3.8-2.5 6.2 0 2.8 1.3 5.4 3.5 7.1 2.3 1.8 5.5 2.4 8.3 1.4 1.4-0.4 2.4-1.1 3.5-2.1 1.2-1.2 2-2.6 2.4-4.3 0.3-1.1 0.3-2.5 0.2-3.6-0.4-2-1.3-3.7-2.8-5.1-0.7-0.6-1.2-1-2.1-1.4-1.4-0.7-2.9-1-4.6-1m-3.5 5.9c-0.4 0.3-0.5 0.8-0.3 1.3 0.1 0.2 3.2 2.8 3.5 3 0.2 0.1 0.6 0.1 0.8 0 0.2-0.1 0.5-0.4 0.5-0.6 0.1-0.2 0.1-0.6 0-0.8-0.1-0.2-3.2-2.8-3.5-3-0.3-0.1-0.7-0.1-1 0.1" stroke="none" fill="black" fill-rule="evenodd"></path></svg>