<?xml version="1.0"?><svg xmlns="http://www.w3.org/2000/svg" width="24" height="24" viewBox="0 0 24 24" version="1.1"><rect x="0" y="0" width="24" height="24" fill="#00000000"></rect><path fill-opacity="0.392" d="M1.4 5.1c-0.4 0.1-0.6 0.3-0.9 0.6-0.2 0.3-0.3 0.4-0.4 0.7-0.1 0.4-0.1 10.8 0 11.2 0.2 0.6 0.7 1.2 1.4 1.3 0.4 0.1 20.6 0.1 21 0 0.3-0.1 0.6-0.2 0.9-0.4 0.1-0.2 0.5-0.7 0.5-0.8 0-0.1 0-0.2 0.1-0.3 0-0.1 0-0.8 0-5.5 0-3 0-5.3 0-5.3 0 0 0 0-0.1-0.1 0-0.4-0.5-1-0.9-1.2-0.5-0.3 0.1-0.3-11-0.3-9.7 0-10.4 0-10.6 0.1m-1.4 6.9c0 3 0 4.2 0 2.7 0-1.5 0-3.9 0-5.4 0-1.5 0-0.3 0 2.7m2 0l0 5 10 0 10 0 0-5 0-5-10 0-10 0 0 5m2.6-2.9c-0.3 0.1-0.4 0.3-0.5 0.5-0.1 0.2-0.1 0.5-0.1 2.4 0 2.1 0 2.2 0.1 2.4 0.1 0.3 0.3 0.4 0.5 0.5 0.2 0.1 0.5 0.1 2.4 0.1 2.1 0 2.2 0 2.4-0.1 0.3-0.1 0.4-0.3 0.5-0.5 0.1-0.3 0.1-4.5 0-4.8-0.1-0.2-0.2-0.4-0.5-0.5-0.2-0.1-0.3-0.1-2.4-0.1-2.1 0-2.2 0-2.4 0.1" stroke="none" fill="black" fill-rule="evenodd"></path><path fill-opacity="0.329" d="M1.5 5.1c-0.6 0.1-1 0.5-1.3 1.1l-0.2 0.3 0 5.5 0 5.5 0.2 0.3c0.2 0.4 0.6 0.8 1 1l0.3 0.2 10.5 0 10.5 0 0.3-0.2c0.2-0.1 0.5-0.2 0.6-0.4 0.3-0.3 0.5-0.8 0.5-1 0.1 0 0.1-0.1 0.1-0.1 0 0 0.1-1.9 0.1-5.4 0-3.5-0.1-5.2-0.1-5.2 0 0-0.1 0-0.1-0.1 0-0.2-0.2-0.6-0.4-0.9-0.1-0.1-0.3-0.3-0.4-0.4-0.6-0.3 0.2-0.3-11.1-0.3-8.5 0-10.3 0-10.5 0.1m-1.5 6.9c0 2.9 0 4.1 0 2.7 0-1.5 0-3.9 0-5.4 0-1.4 0-0.2 0 2.7m2 0l0 5 10 0 10 0 0-5 0-5-10 0-10 0 0 5m2.6-2.9c-0.2 0.1-0.4 0.2-0.5 0.5-0.1 0.2-0.1 0.3-0.1 2.5l0 2.2 0.2 0.3c0.1 0.1 0.2 0.2 0.3 0.3l0.3 0.1 2.2 0 2.2 0 0.3-0.1c0.1-0.1 0.2-0.2 0.3-0.3l0.2-0.3 0-2.3 0-2.3-0.2-0.3c-0.3-0.4-0.2-0.4-2.7-0.4-1.8 0-2.3 0-2.5 0.1" stroke="none" fill="black" fill-rule="evenodd"></path><path fill-opacity="0.644" d="M1.6 5.1c-0.4 0-0.7 0.2-1 0.5-0.3 0.3-0.5 0.6-0.5 1.1-0.1 0.2-0.1 1.9-0.1 5.5l0 5.2 0.1 0.3c0.3 0.5 0.7 1 1.3 1.2 0.2 0.1 0.7 0.1 10.4 0.1 6.5 0 10.3 0 10.5 0 0.2-0.1 0.4-0.2 0.6-0.2 0.5-0.3 1-0.9 1-1.4 0.1-0.1 0.1-0.2 0.1-0.2 0 0 0-2.4 0-5.3 0-2.8 0-5.1 0-5.1 0 0 0 0-0.1-0.2 0-0.7-0.7-1.4-1.5-1.5-0.4-0.1-20.5-0.1-20.8 0m-1.6 6.9c0 2.9 0 4 0 2.6 0-1.4 0-3.8 0-5.2 0-1.4 0-0.3 0 2.6m2 0l0 5 10 0 10 0 0-5 0-5-10 0-10 0 0 5m2.7-3c-0.2 0.1-0.4 0.3-0.6 0.6l-0.1 0.2 0 2.3 0 2.2 0.2 0.2c0.1 0.2 0.2 0.3 0.4 0.4l0.2 0.1 2.2 0 2.2 0 0.2-0.1c0.2-0.1 0.3-0.2 0.4-0.4l0.2-0.2 0-2.3 0-2.3-0.1-0.2c-0.1-0.1-0.3-0.3-0.4-0.3l-0.2-0.2-2.2 0c-1.2 0-2.3 0-2.4 0" stroke="none" fill="black" fill-rule="evenodd"></path><path fill-opacity="0.946" d="M1.7 5.1c-0.9 0.1-1.5 0.8-1.6 1.6-0.1 0.4-0.1 10.2 0 10.6 0.1 0.9 0.8 1.5 1.6 1.6 0.5 0.1 20.1 0.1 20.6 0 0.4 0 0.8-0.2 1.1-0.5 0.3-0.3 0.5-0.7 0.5-1 0.1-0.2 0.1-0.3 0.1-0.3 0 0 0-2.4 0-5.2 0-2.8 0-5 0-5 0 0 0 0-0.1-0.2 0-0.8-0.8-1.5-1.6-1.6-0.4-0.1-20.3-0.1-20.6 0m-1.7 6.9c0 2.8 0 4 0 2.6 0-1.4 0-3.8 0-5.2 0-1.4 0-0.2 0 2.6m2 0l0 5 10 0 10 0 0-5 0-5-10 0-10 0 0 5m2.7-2.9c-0.1 0-0.3 0.1-0.4 0.2-0.3 0.3-0.3 0.4-0.3 2.7 0 1.2 0 2.1 0.1 2.2 0 0.3 0.2 0.5 0.4 0.7l0.2 0.1 2.3 0 2.3 0 0.2-0.1c0.2-0.2 0.4-0.4 0.4-0.7 0.1-0.3 0.1-4.1 0-4.4 0-0.4-0.3-0.7-0.7-0.7-0.4-0.1-4.1-0.1-4.5 0" stroke="none" fill="black" fill-rule="evenodd"></path></svg>