<?xml version="1.0"?><svg xmlns="http://www.w3.org/2000/svg" width="24" height="24" viewBox="0 0 24 24" version="1.1"><rect x="0" y="0" width="24" height="24" fill="#00000000"></rect><path fill-opacity="0.392" d="M9.2 1.1c-0.6 0.2-1.2 0.6-1.6 1.1-0.3 0.4-0.6 1.2-0.6 1.6l0 0.2-2.2 0c-2.3 0-2.4 0-2.8 0.3-0.3 0.1-0.7 0.5-0.8 0.8-0.2 0.4-0.2 0.2-0.2 6.9 0 6.9 0 6.6 0.3 7 0.3 0.5 0.7 0.8 1.2 0.9 0.4 0.1 18.6 0.1 19 0 0.7-0.1 1.2-0.7 1.4-1.3 0.1-0.4 0.1-12.7 0-13.1-0.1-0.5-0.5-1.1-1-1.3-0.4-0.2-0.5-0.2-2.8-0.2l-2.1 0 0-0.2c0-0.3-0.1-0.8-0.3-1.1-0.4-0.8-1.1-1.4-1.9-1.6-0.4-0.1-0.6-0.1-2.8-0.1-2.2 0-2.5 0-2.8 0.1m0.6 1.9c-0.4 0.1-0.7 0.5-0.8 0.8l0 0.2 3 0 3 0 0-0.2c-0.1-0.4-0.4-0.7-0.8-0.8-0.2 0-4.2 0-4.4 0m-6.8 4l0 1 9 0 9 0 0-1 0-1-9 0-9 0 0 1m0 7l0 4 9 0 9 0 0-4 0-4-2 0-2 0 0 1 0 1-2 0-2 0 0-1 0-1-1 0-1 0 0 1 0 1-2 0-2 0 0-1 0-1-2 0-2 0 0 4" stroke="none" fill="black" fill-rule="evenodd"></path><path fill-opacity="0.323" d="M9.4 1.1c-1.3 0.3-2.2 1.3-2.4 2.6l0 0.3-2.1 0c-2.3 0-2.5 0-3 0.3-0.3 0.2-0.6 0.5-0.7 0.9l-0.2 0.3 0 6.5 0 6.5 0.2 0.3c0.3 0.6 0.8 1 1.4 1.1 0.4 0.1 18.4 0.1 18.8 0 0.8-0.1 1.4-0.7 1.5-1.5 0.1-0.2 0.1-2 0.1-6.6l0-6.3-0.2-0.3c-0.3-0.6-0.8-1-1.4-1.1-0.2-0.1-1-0.1-2.3-0.1l-2.1 0 0-0.3c-0.2-1.2-1-2.2-2.1-2.6-0.3-0.1-0.4-0.1-2.8-0.1-1.9 0-2.5 0-2.7 0.1m0.2 2c-0.3 0.1-0.5 0.4-0.6 0.7l0 0.2 3 0 3 0 0-0.2c-0.1-0.2-0.3-0.5-0.5-0.7-0.2-0.1-0.3-0.1-2.4-0.1-1.8 0-2.3 0-2.5 0.1m-6.6 3.9l0 1 9 0 9 0 0-1 0-1-9 0-9 0 0 1m0 7l0 4 9 0 9 0 0-4 0-4-2 0-2 0 0 1 0 1-2 0-2 0 0-1 0-1-1 0-1 0 0 1 0 1-2 0-2 0 0-1 0-1-2 0-2 0 0 4" stroke="none" fill="black" fill-rule="evenodd"></path><path fill-opacity="0.628" d="M9.4 1.1c-0.8 0.1-1.5 0.6-1.9 1.3-0.2 0.3-0.4 0.9-0.5 1.3l0 0.3-2.2 0c-2.2 0-2.2 0-2.5 0.1-0.5 0.2-0.9 0.7-1.2 1.2l-0.1 0.3 0 6.4 0 6.4 0.1 0.3c0.3 0.5 0.7 1 1.3 1.2 0.2 0.1 0.8 0.1 9.6 0.1 8.8 0 9.4 0 9.6-0.1 0.6-0.2 1.1-0.7 1.3-1.3 0.1-0.2 0.1-0.6 0.1-6.6l0-6.4-0.1-0.3c-0.3-0.5-0.7-1-1.2-1.2-0.3-0.1-0.3-0.1-2.5-0.1l-2.2 0 0-0.4c-0.2-1.3-1.2-2.3-2.4-2.5-0.6-0.1-4.7-0.1-5.2 0m0.2 2c-0.1 0-0.3 0.1-0.3 0.2-0.2 0.1-0.3 0.5-0.3 0.6 0 0.1 0 0.1 3 0.1 3 0 3 0 3-0.1 0-0.1-0.1-0.5-0.3-0.6 0-0.1-0.2-0.2-0.3-0.2-0.2-0.1-0.3-0.1-2.4-0.1-2.1 0-2.2 0-2.4 0.1m-6.6 3.9l0 1 9 0 9 0 0-1 0-1-9 0-9 0 0 1m0 7l0 4 9 0 9 0 0-4 0-4-2 0-2 0 0 1 0 1-2 0-2 0 0-1 0-1-1 0-1 0 0 1 0 1-2 0-2 0 0-1 0-1-2 0-2 0 0 4" stroke="none" fill="black" fill-rule="evenodd"></path><path fill-opacity="0.949" d="M9.6 1.1c-0.4 0-0.6 0.1-1 0.3-0.8 0.4-1.4 1.2-1.5 2 0 0.2-0.1 0.4-0.1 0.5l0 0.1-2 0c-1 0-2.1 0-2.3 0.1-0.4 0-0.8 0.2-1.1 0.5-0.3 0.4-0.5 0.7-0.5 1.1-0.1 0.5-0.1 12.1 0 12.6 0.1 0.7 0.6 1.4 1.4 1.6 0.3 0.1 18.7 0.1 19 0 0.4-0.1 0.6-0.3 0.9-0.5 0.3-0.4 0.5-0.7 0.5-1.1 0.1-0.5 0.1-12.1 0-12.6 0-0.4-0.2-0.8-0.5-1.1-0.4-0.3-0.7-0.5-1.1-0.5-0.2-0.1-1.3-0.1-2.3-0.1l-2 0 0-0.1c0-0.1-0.1-0.3-0.1-0.5-0.1-0.8-0.7-1.6-1.5-2-0.7-0.4-0.7-0.4-3.2-0.4-1.3 0-2.5 0-2.6 0.1m0 2c-0.3 0.2-0.6 0.4-0.6 0.7l0 0.2 3 0 3 0 0-0.1c0-0.2-0.2-0.5-0.3-0.6-0.3-0.3-0.3-0.3-2.7-0.3-2.2 0-2.2 0-2.4 0.1m-6.6 3.9l0 1 9 0 9 0 0-1 0-1-9 0-9 0 0 1m0 7l0 4 9 0 9 0 0-4 0-4-2 0-2 0 0 1 0 1-2 0-2 0 0-1 0-1-1 0-1 0 0 1 0 1-2 0-2 0 0-1 0-1-2 0-2 0 0 4" stroke="none" fill="black" fill-rule="evenodd"></path></svg>