<?xml version="1.0"?><svg xmlns="http://www.w3.org/2000/svg" width="24" height="24" viewBox="0 0 24 24" version="1.1"><rect x="0" y="0" width="24" height="24" fill="#00000000"></rect><path fill-opacity="0.447" d="M11.6 3.1c-0.5 0.2-0.6 0.5-0.6 1.3l0 0.7-0.1 0c-0.2 0-1 0.2-1.4 0.4-2.2 0.8-3.8 2.7-4.3 5-0.1 0.2-0.1 0.4-0.1 0.4 0 0.1-0.2 0.1-0.7 0.1-0.5 0-0.7 0-0.8 0.1-0.8 0.4-0.8 1.5 0 1.8 0.1 0.1 0.4 0.1 0.8 0.1 0.5 0 0.7 0 0.7 0.1 0 0 0 0.2 0.1 0.4 0.4 2.1 1.8 3.9 3.7 4.8 0.6 0.3 1.7 0.6 2 0.6l0.1 0 0 0.7c0 0.6 0 0.9 0.3 1.1 0.3 0.4 1.1 0.4 1.4 0 0.2-0.2 0.3-0.5 0.3-1.1l0-0.7 0.2 0c0.4-0.1 1.1-0.3 1.6-0.5 2-0.8 3.6-2.7 4-4.9 0.1-0.2 0.1-0.4 0.1-0.4 0-0.1 0.2-0.1 0.7-0.1 0.4 0 0.7 0 0.8-0.1 0.8-0.3 0.8-1.4 0.1-1.8-0.1-0.1-0.4-0.1-0.9-0.1l-0.7 0 0-0.4c-0.4-2-1.8-3.8-3.6-4.8-0.7-0.3-1.8-0.7-2.2-0.7l-0.1 0 0-0.7c0-0.5 0-0.7-0.1-0.8-0.2-0.5-0.8-0.7-1.3-0.5m-0.2 4c-3.4 0.4-5.4 4-3.9 7.1 0.6 1.2 1.8 2.2 3.1 2.6 2.3 0.7 4.8-0.4 5.9-2.6 1-2.2 0.4-4.8-1.6-6.2-0.6-0.5-1.5-0.8-2.3-0.9-0.5-0.1-0.7-0.1-1.2 0m-0.2 2c-1.3 0.3-2.2 1.5-2.2 2.9 0 1.7 1.3 3 3 3 2.2 0 3.7-2.3 2.7-4.3-0.6-1.3-2.1-2-3.5-1.6" stroke="none" fill="black" fill-rule="evenodd"></path><path fill-opacity="0.227" d="M11.6 3.1c-0.2 0.1-0.5 0.3-0.5 0.6-0.1 0.1-0.1 0.5-0.1 0.8 0 0.6 0 0.6-0.1 0.6-0.2 0-1 0.2-1.3 0.4-1 0.3-1.7 0.8-2.4 1.4-0.8 0.8-1.3 1.5-1.6 2.4-0.2 0.5-0.5 1.4-0.5 1.6 0 0.1 0 0.1-0.7 0.1-0.8 0-1 0.1-1.2 0.4-0.2 0.2-0.2 0.3-0.2 0.6 0 0.3 0 0.4 0.2 0.6 0.1 0.1 0.2 0.2 0.3 0.3 0.2 0.1 0.3 0.1 0.9 0.1l0.7 0 0 0.1c0 0.4 0.5 1.8 0.9 2.4 0.7 1.3 2 2.4 3.4 3 0.4 0.2 1.3 0.4 1.5 0.4 0.1 0 0.1 0 0.1 0.7 0 0.7 0 0.7 0.2 1 0.4 0.5 1.2 0.5 1.6 0 0.2-0.3 0.2-0.3 0.2-1 0-0.7 0-0.7 0.1-0.7 0.2 0 1.1-0.2 1.5-0.4 1.4-0.6 2.7-1.7 3.4-3 0.4-0.6 0.9-2 0.9-2.4l0-0.1 0.7 0c0.6 0 0.7 0 0.9-0.1 0.1-0.1 0.2-0.2 0.3-0.3 0.2-0.2 0.2-0.3 0.2-0.6 0-0.3 0-0.4-0.2-0.6-0.2-0.3-0.4-0.4-1.2-0.4-0.7 0-0.7 0-0.7-0.1 0-0.2-0.3-1.1-0.5-1.6-0.6-1.5-1.8-2.9-3.3-3.6-0.6-0.3-1.7-0.6-2-0.6-0.1 0-0.1 0-0.1-0.7 0-0.7 0-0.7-0.2-1-0.1-0.1-0.2-0.2-0.3-0.3-0.2-0.1-0.6-0.1-0.9 0m-0.4 4c-1.7 0.3-2.9 1.2-3.7 2.7-1.3 2.6-0.1 5.7 2.6 6.8 0.6 0.3 1.2 0.4 1.9 0.4 1 0 1.8-0.3 2.6-0.7 1.7-1.1 2.7-3.2 2.3-5.1-0.3-1.7-1.4-3.1-2.9-3.8-0.8-0.3-2-0.5-2.8-0.3m0.2 2c-0.9 0.2-1.7 0.8-2.1 1.6-0.3 0.6-0.4 1.3-0.2 2 0.1 0.5 0.4 1 0.7 1.3 0.4 0.4 0.7 0.7 1.2 0.8 0.3 0.2 0.5 0.2 1 0.2 0.5 0 0.7 0 1-0.2 0.5-0.1 0.8-0.4 1.2-0.8 0.8-0.9 1-2.2 0.5-3.3-0.3-0.6-0.8-1.1-1.3-1.4-0.7-0.3-1.4-0.4-2-0.2" stroke="none" fill="black" fill-rule="evenodd"></path><path fill-opacity="0.624" d="M11.7 3c-0.2 0.1-0.4 0.3-0.6 0.6-0.1 0.2-0.1 0.3-0.1 0.9l0 0.6-0.3 0c-0.9 0.2-2.1 0.7-2.9 1.3-0.5 0.4-1.2 1.1-1.6 1.7-0.5 0.7-0.9 1.7-1.1 2.6l0 0.3-0.7 0c-0.6 0-0.7 0-0.9 0.2-0.3 0.1-0.5 0.5-0.5 0.9 0.1 0.3 0.3 0.6 0.6 0.8 0.2 0.1 0.3 0.1 0.8 0.1l0.7 0 0.1 0.4c0.5 2.7 2.8 5 5.5 5.5l0.3 0 0 0.7c0 0.6 0 0.7 0.2 0.9 0.1 0.3 0.5 0.5 0.8 0.5 0.3 0 0.7-0.2 0.8-0.5 0.2-0.2 0.2-0.3 0.2-0.9l0-0.7 0.3 0c0.7-0.2 1.6-0.5 2.2-0.9 1.7-0.9 2.9-2.7 3.3-4.6l0.1-0.4 0.7 0c0.5 0 0.6 0 0.8-0.1 0.7-0.4 0.8-1.4 0.1-1.8-0.2-0.1-0.3-0.1-0.9-0.1l-0.7 0 0-0.3c-0.4-2.1-1.9-4-3.8-4.9-0.5-0.3-1.3-0.6-1.8-0.7l-0.3 0 0-0.7c0-0.6 0-0.7-0.2-0.9-0.2-0.4-0.7-0.6-1.1-0.5m-0.7 4.1c-0.8 0.2-1.3 0.4-1.9 0.8-0.7 0.5-1.3 1.3-1.7 2 0 0.2-0.2 0.6-0.2 0.8-0.2 0.5-0.2 0.6-0.2 1.3 0 0.7 0 0.8 0.2 1.3 0.6 2.2 2.5 3.7 4.8 3.7 2.3 0 4.2-1.5 4.8-3.7 0.2-0.5 0.2-0.6 0.2-1.3 0-0.7 0-0.8-0.2-1.2-0.5-1.9-1.8-3.2-3.5-3.6-0.7-0.2-1.6-0.2-2.3-0.1m0.4 2c-0.5 0.1-1.1 0.4-1.5 0.8-0.4 0.4-0.6 0.7-0.8 1.2-0.1 0.5-0.1 1.3 0 1.8 0.2 0.5 0.4 0.8 0.8 1.2 1.6 1.6 4.2 0.9 4.9-1.2 0.2-0.5 0.2-1.3 0.1-1.8-0.4-1.1-1.3-1.8-2.3-2-0.5-0.1-0.8-0.1-1.2 0" stroke="none" fill="black" fill-rule="evenodd"></path><path fill-opacity="0.951" d="M11.7 3.1c-0.3 0.1-0.5 0.3-0.6 0.6-0.1 0.2-0.1 0.5-0.1 0.8l0 0.6-0.2 0c-2.8 0.5-5 2.6-5.6 5.4l-0.1 0.5-0.5 0c-0.7 0-1 0.1-1.3 0.3-0.4 0.4-0.3 1.2 0.2 1.6 0.2 0.1 0.3 0.1 0.9 0.1l0.7 0 0.1 0.5c0.3 1.6 1.3 3.1 2.6 4.1 0.8 0.6 1.9 1.1 3 1.3l0.2 0 0 0.5c0 0.7 0.1 1 0.2 1.2 0.4 0.5 1.2 0.5 1.6 0 0.1-0.2 0.2-0.5 0.2-1.2l0-0.5 0.2 0c1.9-0.3 3.5-1.4 4.6-3 0.5-0.7 0.8-1.5 1-2.4l0.1-0.5 0.7 0c0.6 0 0.7 0 0.9-0.1 0.7-0.5 0.6-1.7-0.3-1.8-0.1-0.1-0.5-0.1-0.8-0.1l-0.5 0-0.1-0.5c-0.6-2.8-2.8-4.9-5.6-5.4l-0.2 0 0-0.5c0-0.3 0-0.7-0.1-0.8-0.1-0.6-0.6-0.9-1.2-0.7m-0.5 3.9c-1.6 0.3-2.9 1.3-3.6 2.6-0.4 0.8-0.6 1.4-0.6 2.4 0 0.6 0 0.9 0.1 1.2 0.3 1 0.7 1.8 1.5 2.5 0.6 0.5 1.4 0.9 2.2 1.2 0.6 0.1 1.8 0.1 2.4 0 1.4-0.4 2.6-1.3 3.2-2.5 0.4-0.8 0.6-1.4 0.6-2.4 0-1-0.2-1.6-0.6-2.4-0.5-0.9-1.4-1.8-2.3-2.2-0.7-0.3-1.2-0.4-1.9-0.4-0.4 0-0.9 0-1 0m0.4 2.1c-1.2 0.1-2.1 1-2.5 2.1-0.1 0.4-0.1 1.2 0 1.6 0.3 1 1.1 1.8 2.1 2.1 0.2 0 0.5 0.1 0.8 0.1 0.6 0 0.9-0.1 1.4-0.4 0.7-0.3 1.3-1 1.5-1.8 0.1-0.4 0.1-1.2 0-1.6-0.4-1.4-1.9-2.4-3.3-2.1" stroke="none" fill="black" fill-rule="evenodd"></path></svg>