<?xml version="1.0"?><svg xmlns="http://www.w3.org/2000/svg" width="24" height="24" viewBox="0 0 24 24" version="1.1"><rect x="0" y="0" width="24" height="24" fill="#00000000"></rect><path fill-opacity="0.404" d="M8.4 1.1c-0.3 0.1-0.6 0.2-0.8 0.5-0.5 0.5-0.6 0.8-0.6 1.7l0 0.7-1.1 0c-1.2 0-1.3 0-1.6 0.3-0.2 0.1-0.3 0.4-0.3 0.7 0 0.3 0.1 0.6 0.3 0.7 0.1 0.2 0.5 0.3 0.6 0.3 0.1 0 0.1 0 0.1 5.7 0 6.2 0 6 0.3 6.6 0.4 0.8 1.2 1.4 2 1.6 0.5 0.1 8.9 0.1 9.4 0 0.9-0.2 1.6-0.8 2-1.6 0.3-0.6 0.3-0.4 0.3-6.6l0-5.7 0.1 0c0.1 0 0.2 0 0.3-0.1 0.8-0.3 0.8-1.5 0-1.8-0.2-0.1-0.3-0.1-1.3-0.1l-1.1 0 0-0.7c0-0.9-0.1-1.2-0.5-1.7-0.3-0.3-0.6-0.4-0.9-0.5-0.4-0.1-6.9-0.1-7.2 0m0.6 2.4l0 0.5 3 0 3 0 0-0.5 0-0.5-3 0-3 0 0 0.5m-2 8.1l0 5.7 0.2 0.2c0.1 0.2 0.2 0.3 0.4 0.4l0.2 0.1 4.2 0 4.2 0 0.2-0.1c0.2-0.1 0.3-0.2 0.4-0.4l0.2-0.2 0-5.7 0-5.6-5 0-5 0 0 5.6" stroke="none" fill="black" fill-rule="evenodd"></path><path fill-opacity="0.342" d="M8.4 1.1c-0.5 0.1-0.8 0.4-1.1 0.9-0.2 0.3-0.3 0.7-0.3 1.4l0 0.6-1.2 0c-1.3 0-1.3 0-1.6 0.4-0.2 0.2-0.2 0.3-0.2 0.6 0 0.3 0 0.4 0.1 0.5 0.2 0.2 0.5 0.4 0.7 0.5l0.2 0 0 5.7c0 5.4 0 5.6 0.1 6 0.3 1 0.9 1.8 1.9 2.1l0.4 0.2 4.6 0 4.6 0 0.4-0.2c0.5-0.2 0.8-0.4 1.2-0.8 0.3-0.3 0.6-0.8 0.7-1.3 0.1-0.4 0.1-0.6 0.1-6l0-5.7 0.2 0c0.2-0.1 0.5-0.3 0.7-0.5 0.1-0.1 0.1-0.2 0.1-0.5 0-0.3 0-0.4-0.2-0.6-0.3-0.4-0.3-0.4-1.6-0.4l-1.2 0 0-0.7c0-0.7 0-0.8-0.2-1.1-0.3-0.6-0.7-0.9-1.2-1.1-0.3-0.1-0.7-0.1-3.6-0.1-3 0-3.3 0-3.6 0.1m0.6 2.4l0 0.5 3 0 3 0 0-0.5 0-0.5-3 0-3 0 0 0.5m-2 8.2l0 5.6 0.2 0.3c0.1 0.1 0.2 0.2 0.3 0.3l0.3 0.1 4.2 0 4.2 0 0.3-0.1c0.1-0.1 0.2-0.2 0.3-0.3l0.2-0.3 0-5.6 0-5.7-5 0-5 0 0 5.7" stroke="none" fill="black" fill-rule="evenodd"></path><path fill-opacity="0.440" d="M8.5 1.1c-0.7 0.2-1.3 0.8-1.4 1.5-0.1 0.1-0.1 0.5-0.1 0.8l0 0.6-1.1 0c-1.2 0-1.2 0-1.4 0.2-0.7 0.3-0.6 1.3 0.1 1.7 0.1 0 0.3 0.1 0.3 0.1 0.1 0 0.1 0.3 0.1 5.8l0 5.7 0.2 0.4c0.3 1 1 1.7 2 2 0.3 0.1 0.6 0.1 4.8 0.1 4.2 0 4.5 0 4.8-0.1 1-0.3 1.7-1 2-2l0.2-0.4 0-5.7c0-5.5 0-5.8 0.1-5.8 0 0 0.2-0.1 0.3-0.1 0.7-0.4 0.8-1.4 0.1-1.7-0.2-0.2-0.2-0.2-1.4-0.2l-1.1 0 0-0.6c0-0.3 0-0.7-0.1-0.8-0.1-0.8-0.7-1.3-1.4-1.5-0.4-0.1-6.7-0.1-7 0m0.5 2.4l0 0.5 3 0 3 0 0-0.5 0-0.5-3 0-3 0 0 0.5m-2 8.1c0 5.4 0 5.6 0.1 5.8 0.1 0.3 0.3 0.4 0.5 0.5 0.2 0.1 0.7 0.1 4.4 0.1 4 0 4.2 0 4.4-0.1 0.3-0.1 0.4-0.3 0.5-0.5 0.1-0.2 0.1-0.9 0.1-5.8l0-5.6-5 0-5 0 0 5.6" stroke="none" fill="black" fill-rule="evenodd"></path><path fill-opacity="0.964" d="M8.6 1.1c-0.4 0-0.7 0.2-1 0.5-0.5 0.5-0.6 0.9-0.6 1.9l0 0.5-1 0c-0.5 0-1.1 0-1.2 0.1-0.7 0.1-1 0.9-0.6 1.5 0.1 0.2 0.4 0.3 0.7 0.4l0.1 0 0 5.8c0 5.4 0 5.7 0.1 6 0.4 1 1.1 1.8 2.1 2.1 0.3 0.1 0.6 0.1 4.8 0.1 4.2 0 4.5 0 4.8-0.1 1-0.3 1.7-1.1 2.1-2.1 0.1-0.3 0.1-0.6 0.1-6l0-5.8 0.1 0c0.3-0.1 0.6-0.2 0.7-0.4 0.4-0.6 0.1-1.4-0.6-1.5-0.1-0.1-0.7-0.1-1.2-0.1l-1 0 0-0.7c0-0.8-0.1-1.1-0.4-1.5-0.3-0.3-0.5-0.5-0.9-0.7-0.3-0.1-0.3-0.1-3.6-0.1-1.8 0-3.4 0-3.5 0.1m0.4 2.4l0 0.5 3 0 3 0 0-0.5 0-0.5-3 0-3 0 0 0.5m-2 8.1c0 6.2 0 5.8 0.3 6.1 0.3 0.3 0.1 0.3 4.7 0.3 4.6 0 4.4 0 4.7-0.3 0.3-0.3 0.3 0.1 0.3-6.1l0-5.6-5 0-5 0 0 5.6" stroke="none" fill="black" fill-rule="evenodd"></path></svg>