<?xml version="1.0"?><svg xmlns="http://www.w3.org/2000/svg" width="24" height="24" viewBox="0 0 24 24" version="1.1"><rect x="0" y="0" width="24" height="24" fill="#00000000"></rect><path fill-opacity="0.400" d="M3.4 2.1c-0.4 0.1-0.6 0.3-0.9 0.6-0.2 0.3-0.3 0.4-0.4 0.7-0.1 0.4-0.1 16.8 0 17.2 0.2 0.6 0.7 1.2 1.4 1.3 0.4 0.1 16.6 0.1 17 0 0.7-0.1 1.2-0.7 1.4-1.3 0.1-0.4 0.1-16.7 0-17.1-0.1-0.5-0.5-1.1-1-1.3-0.4-0.2-0.2-0.2-8.9-0.2-7.8 0-8.4 0-8.6 0.1m0.6 9.9l0 8 8 0 8 0 0-8 0-8-8 0-8 0 0 8m2.6-5.9c-0.3 0.1-0.4 0.3-0.5 0.5-0.1 0.2-0.1 0.8-0.1 5.4 0 5 0 5.2 0.1 5.4 0.1 0.3 0.3 0.4 0.5 0.5 0.3 0.1 3.5 0.1 3.8 0 0.2-0.1 0.4-0.2 0.5-0.5 0.1-0.2 0.1-0.4 0.1-5.4 0-5 0-5.2-0.1-5.4-0.1-0.3-0.3-0.4-0.5-0.5-0.2-0.1-0.5-0.1-1.9-0.1-1.6 0-1.7 0-1.9 0.1m7 0c-0.3 0.1-0.4 0.3-0.5 0.5-0.1 0.2-0.1 0.6-0.1 3.4 0 3 0 3.2 0.1 3.4 0.1 0.3 0.3 0.4 0.5 0.5 0.3 0.1 3.5 0.1 3.8 0 0.2-0.1 0.4-0.2 0.5-0.5 0.1-0.2 0.1-0.4 0.1-3.4 0-3 0-3.2-0.1-3.4-0.1-0.3-0.3-0.4-0.5-0.5-0.2-0.1-0.5-0.1-1.9-0.1-1.6 0-1.7 0-1.9 0.1" stroke="none" fill="black" fill-rule="evenodd"></path><path fill-opacity="0.320" d="M3.6 2.1c-0.6 0.1-1.1 0.5-1.4 1.1l-0.2 0.3 0 8.5 0 8.5 0.2 0.3c0.3 0.6 0.8 1 1.4 1.1 0.4 0.1 16.4 0.1 16.8 0 0.6-0.1 1.1-0.5 1.4-1.1l0.2-0.3 0-8.5 0-8.5-0.2-0.3c-0.3-0.6-0.8-1-1.4-1.1-0.3-0.1-16.5-0.1-16.8 0m0.4 9.9l0 8 8 0 8 0 0-8 0-8-8 0-8 0 0 8m2.6-5.9c-0.2 0.1-0.5 0.4-0.6 0.6 0 0.1 0 2 0 5.4l0 5.2 0.2 0.3c0.1 0.1 0.2 0.2 0.3 0.3 0.3 0.1 0.3 0.1 2 0.1 1.7 0 1.7 0 2-0.1 0.1-0.1 0.2-0.2 0.3-0.3l0.2-0.3 0-5.3 0-5.3-0.2-0.3c-0.3-0.4-0.2-0.4-2.2-0.4-1.4 0-1.8 0-2 0.1m7 0c-0.2 0.1-0.5 0.4-0.6 0.6 0 0.1 0 1.3 0 3.4l0 3.2 0.2 0.3c0.1 0.1 0.2 0.2 0.3 0.3 0.3 0.1 0.3 0.1 2 0.1 1.7 0 1.7 0 2-0.1 0.1-0.1 0.2-0.2 0.3-0.3l0.2-0.3 0-3.3 0-3.3-0.2-0.3c-0.3-0.4-0.2-0.4-2.2-0.4-1.4 0-1.8 0-2 0.1" stroke="none" fill="black" fill-rule="evenodd"></path><path fill-opacity="0.644" d="M3.6 2.1c-0.8 0.1-1.4 0.8-1.6 1.6 0 0.2 0 3.4 0 8.5l0 8.2 0.1 0.3c0.3 0.5 0.7 1 1.3 1.2 0.2 0.1 0.6 0.1 8.6 0.1 8 0 8.4 0 8.7-0.1 0.5-0.2 0.9-0.7 1.2-1.2l0.1-0.3 0-8.4 0-8.4-0.1-0.3c-0.2-0.5-0.7-1-1.2-1.2l-0.3-0.1-8.2 0c-4.6 0-8.4 0-8.6 0.1m0.4 9.9l0 8 8 0 8 0 0-8 0-8-8 0-8 0 0 8m2.8-6c-0.3 0.1-0.5 0.3-0.7 0.5l-0.1 0.2 0 5.3 0 5.3 0.2 0.2c0.1 0.2 0.2 0.3 0.4 0.4l0.2 0.1 1.7 0 1.7 0 0.2-0.1c0.2-0.1 0.3-0.2 0.4-0.4l0.2-0.2 0-5.3 0-5.3-0.2-0.2c0-0.1-0.2-0.3-0.3-0.4l-0.2-0.1-1.7 0c-0.9 0-1.7 0-1.8 0m7 0c-0.3 0.1-0.5 0.3-0.7 0.5l-0.1 0.2 0 3.3 0 3.3 0.2 0.2c0.1 0.2 0.2 0.3 0.4 0.4l0.2 0.1 1.7 0 1.7 0 0.2-0.1c0.2-0.1 0.3-0.2 0.4-0.4l0.2-0.2 0-3.3 0-3.3-0.2-0.2c0-0.1-0.2-0.3-0.3-0.4l-0.2-0.1-1.7 0c-0.9 0-1.7 0-1.8 0" stroke="none" fill="black" fill-rule="evenodd"></path><path fill-opacity="0.946" d="M3.7 2.1c-0.4 0-0.7 0.2-1.1 0.5-0.3 0.3-0.5 0.7-0.5 1.1-0.1 0.5-0.1 16.1 0 16.6 0 0.4 0.2 0.8 0.5 1.1 0.4 0.3 0.7 0.5 1.2 0.6 0.2 0 3 0 8.5 0 8.7 0 8.2 0 8.7-0.3 0.2-0.1 0.6-0.5 0.8-0.8 0-0.2 0.1-0.4 0.1-0.6 0.1-0.5 0.1-16.1 0-16.6 0-0.4-0.2-0.8-0.5-1.1-0.4-0.3-0.7-0.5-1.1-0.5-0.5-0.1-16.2-0.1-16.6 0m0.3 9.9l0 8 8 0 8 0 0-8 0-8-8 0-8 0 0 8m2.7-5.9c-0.1 0-0.3 0.1-0.4 0.2-0.3 0.3-0.3 0.1-0.3 5.7 0 3.2 0 5.1 0.1 5.2 0 0.3 0.2 0.5 0.4 0.7 0.2 0.1 0.2 0.1 2 0.1 1.8 0 1.8 0 2-0.1 0.2-0.2 0.4-0.4 0.4-0.7 0.1-0.3 0.1-10.1 0-10.4 0-0.4-0.3-0.7-0.7-0.7-0.4-0.1-3.1-0.1-3.5 0m7 0c-0.1 0-0.3 0.1-0.4 0.2-0.3 0.3-0.3 0.3-0.3 3.7 0 1.8 0 3.1 0.1 3.2 0 0.3 0.2 0.5 0.4 0.7 0.2 0.1 0.2 0.1 2 0.1 1.8 0 1.8 0 2-0.1 0.2-0.2 0.4-0.4 0.4-0.7 0.1-0.3 0.1-6.1 0-6.4 0-0.4-0.3-0.7-0.7-0.7-0.4-0.1-3.1-0.1-3.5 0" stroke="none" fill="black" fill-rule="evenodd"></path></svg>