<?xml version="1.0"?><svg xmlns="http://www.w3.org/2000/svg" width="24" height="24" viewBox="0 0 24 24" version="1.1"><rect x="0" y="0" width="24" height="24" fill="#00000000"></rect><path fill-opacity="0.380" d="M21.5 3c-1.3 0.3-2.4 0.5-2.4 0.5 0 0 0.5 0.5 1 1.1l1.1 1.1-2.1 2.1-2.1 2.1-2.2-2.1-2.1-2.2-3.5 3.6-3.6 3.5 0.7 0.7 0.8 0.7 2.8-2.8 2.8-2.8 2.1 2.1 2.2 2.1 2.8-2.8 2.8-2.8 0.7 0.7 0.7 0.7 0-3 0-2.9-0.1 0c-0.1 0-1.2 0.2-2.4 0.4" stroke="none" fill="black" fill-rule="evenodd"></path><path fill-opacity="0.285" d="M21.5 3c-1.3 0.3-2.3 0.5-2.4 0.5 0 0 0.5 0.5 1 1.1l1.1 1-2.1 2.2-2.2 2.1-2.1-2.2-2.1-2.1-3.5 3.6-3.6 3.5 0.7 0.7 0.8 0.7 2.8-2.8 2.8-2.8 2.1 2.1 2.2 2.1 2.8-2.8 2.8-2.9 0.7 0.7 0.7 0.7 0-2.9 0-2.9-0.1 0c-0.1 0-1.2 0.2-2.4 0.4" stroke="none" fill="black" fill-rule="evenodd"></path><path fill-opacity="0.292" d="M21.5 3l-2.4 0.5 1 1.1 1.1 1-2.1 2.2-2.2 2.1-2.1-2.1-2.1-2.2-3.5 3.6-3.5 3.5 0.7 0.7 0.7 0.7 2.8-2.8 2.8-2.8 2.1 2.1 2.2 2.1 2.8-2.8 2.8-2.9 0.7 0.7 0.7 0.7 0-2.9c0-2.8 0-2.9-0.1-2.9 0 0-1.1 0.2-2.4 0.4" stroke="none" fill="black" fill-rule="evenodd"></path><path fill-opacity="0.975" d="M21.5 3l-2.4 0.5 1 1.1 1.1 1-2.1 2.1-2.2 2.2-2.1-2.1-2.1-2.2-3.5 3.6-3.5 3.5 0.7 0.7 0.7 0.7 2.8-2.8 2.8-2.9 2.1 2.2 2.1 2.1 2.9-2.8 2.8-2.9 0.7 0.7 0.7 0.7 0-2.9c0-2.3 0-2.9-0.1-2.9 0 0-1.1 0.2-2.4 0.4" stroke="none" fill="black" fill-rule="evenodd"></path></svg>