<?xml version="1.0"?><svg xmlns="http://www.w3.org/2000/svg" width="24" height="24" viewBox="0 0 24 24" version="1.1"><rect x="0" y="0" width="24" height="24" fill="#00000000"></rect><path fill-opacity="0.318" d="M13.1 4.7l-1.4 1.4-1.1-1.1-1.1-1.1-0.7 0.8-0.7 0.7 0.6 0.5 0.5 0.6-1.8 0-1.8 0-0.4 0.2c-0.5 0.2-0.8 0.6-1 1l-0.2 0.3 0 4 0 4 0.2 0.4c0.3 0.6 0.8 1 1.5 1.1 0.4 0.1 12.2 0.1 12.6 0 0.7-0.1 1.2-0.5 1.5-1.1l0.2-0.4 0-4 0-4-0.2-0.3c-0.2-0.4-0.5-0.8-1-1l-0.4-0.2-2.1 0-2.2 0 0.9-0.9c0.5-0.5 0.9-0.9 0.9-0.9 0-0.1-0.4-0.4-0.7-0.8l-0.7-0.6-1.4 1.4m-7.1 7.3l0 3.5 6 0 6 0 0-3.5 0-3.4-6 0-6 0 0 3.4m2 7l0 0.6 4 0 4 0 0-0.6 0-0.5-4 0-4 0 0 0.5" stroke="none" fill="black" fill-rule="evenodd"></path><path fill-opacity="0.258" d="M13 4.7l-1.3 1.4-1.1-1.1c-0.6-0.5-1-1-1.1-1 0 0-1.3 1.3-1.3 1.4 0 0 0.2 0.3 0.5 0.6l0.5 0.5-1.6 0c-0.8 0-1.7 0-1.8 0-0.8 0.2-1.5 0.7-1.7 1.5-0.1 0.3-0.1 7.6 0 8 0.1 0.4 0.2 0.6 0.5 0.9 0.3 0.3 0.7 0.5 1.1 0.6 0.5 0.1 12.1 0.1 12.6 0 0.2 0 0.4-0.1 0.6-0.2 0.3-0.1 0.7-0.5 0.9-0.8 0.2-0.5 0.2-0.5 0.2-4.5 0-3.7 0-3.8-0.1-4.1-0.3-0.7-0.9-1.2-1.7-1.4-0.1 0-1.1 0-2.2 0l-1.9 0 0.9-0.9c0.5-0.5 0.9-0.9 0.9-0.9 0-0.1-1.4-1.4-1.4-1.4-0.1 0-0.7 0.6-1.5 1.4m-7 7.3l0 3.5 6 0 6 0 0-3.5 0-3.4-6 0-6 0 0 3.4m2 7l0 0.6 4 0 4 0 0-0.6 0-0.5-4 0-4 0 0 0.5" stroke="none" fill="black" fill-rule="evenodd"></path><path fill-opacity="0.202" d="M13 4.7l-1.4 1.4-1-1-1.1-1.1-0.7 0.7c-0.3 0.3-0.6 0.6-0.6 0.7 0 0 0.2 0.3 0.5 0.6l0.6 0.5-1.9 0.1-1.9 0-0.3 0.1c-0.3 0.2-0.7 0.5-0.9 0.8-0.3 0.5-0.3 0.5-0.3 4.7l0 3.8 0.1 0.3c0.2 0.4 0.6 0.8 1 1l0.4 0.2 6.5 0 6.5 0 0.3-0.2c0.6-0.2 1-0.8 1.1-1.4 0.1-0.2 0.1-1.7 0.1-3.9 0-4 0-4-0.3-4.5-0.2-0.3-0.6-0.6-0.9-0.8l-0.3-0.1-2.2 0c-1.2 0-2.2-0.1-2.2-0.1 0 0 0.4-0.4 0.9-0.9l0.9-0.9-0.7-0.7-0.7-0.7-1.5 1.4m-7 7.3l0 3.6 6 0 6 0 0-3.6 0-3.5-6 0-6 0 0 3.5m2 7l0 0.5 4 0 4 0 0-0.5 0-0.4-4 0-4 0 0 0.4" stroke="none" fill="black" fill-rule="evenodd"></path><path fill-opacity="0.981" d="M13.1 4.7l-1.4 1.4-1.1-1-1.1-1.1-0.7 0.7-0.7 0.7 0.6 0.5c0.3 0.3 0.6 0.6 0.6 0.6 0 0-0.9 0.1-1.9 0.1l-1.9 0-0.3 0.1c-0.6 0.3-1 0.9-1.2 1.5 0 0.4 0 7.2 0 7.6 0.2 0.7 0.6 1.3 1.2 1.5l0.3 0.2 6.5 0 6.5 0 0.3-0.2c0.6-0.2 1-0.8 1.2-1.5 0-0.4 0-7.2 0-7.6-0.2-0.6-0.6-1.2-1.2-1.5l-0.3-0.1-2.3 0-2.2-0.1 0.9-0.9 1-0.9-0.7-0.7-0.7-0.7-1.4 1.4m-7.1 7.3l0 3.6 6 0 6 0 0-3.6 0-3.5-6 0-6 0 0 3.5m2 7l0 0.5 4 0 4 0 0-0.5 0-0.4-4 0-4 0 0 0.4" stroke="none" fill="black" fill-rule="evenodd"></path></svg>