<?xml version="1.0"?><svg xmlns="http://www.w3.org/2000/svg" width="24" height="24" viewBox="0 0 24 24" version="1.1"><rect x="0" y="0" width="24" height="24" fill="#00000000"></rect><path fill-opacity="0.412" d="M10.9 3c-2 0.3-3.8 1.2-5.3 2.6-0.8 0.9-1.3 1.6-1.8 2.7-0.5 1.1-0.7 2.1-0.8 3.4 0 1.5 0.2 2.7 0.8 4 0.5 1 1 1.8 1.8 2.7 1.4 1.3 2.9 2.1 4.8 2.5 0.5 0.1 0.7 0.1 1.6 0.1 1 0 1.2 0 1.8-0.2 1.1-0.2 2.2-0.7 3.1-1.3 4.4-2.9 5.4-8.8 2.3-12.9-0.4-0.5-1.3-1.4-1.8-1.8-1.1-0.8-2.4-1.4-3.7-1.7-0.6-0.1-2.2-0.1-2.8-0.1m0.4 2.1c-2.3 0.2-4.4 1.6-5.5 3.6-0.3 0.7-0.6 1.4-0.7 2.1-0.1 0.6-0.1 1.8 0 2.4 0.2 1 0.7 2.1 1.3 2.9 0 0.1 0.6-0.5 1.4-1.4 0.8-0.7 1.5-1.4 1.6-1.5 0.2-0.1 0.5-0.1 0.7 0 0.5 0.1 0.9 0.6 0.8 1.1-0.1 0.3-0.3 0.5-1.7 1.9-0.7 0.8-1.3 1.4-1.3 1.4 0 0.1 0.8 0.6 1.2 0.7 1.4 0.7 2.9 0.8 4.4 0.5 1.1-0.2 2.4-0.9 3.3-1.7 0.8-0.8 1.5-1.8 1.8-2.9 0.3-0.8 0.4-1.4 0.4-2.2 0-1.1-0.3-2.1-0.8-3.1-0.2-0.5-0.5-1-0.6-1 0 0-0.7 0.6-1.4 1.4-1.7 1.6-1.8 1.7-2.4 1.5-0.5-0.1-0.8-0.7-0.6-1.2 0-0.2 0.2-0.4 1.5-1.7 0.8-0.8 1.5-1.5 1.4-1.5-0.8-0.6-1.9-1.1-2.8-1.3-0.6-0.1-1.5-0.1-2 0" stroke="none" fill="black" fill-rule="evenodd"></path><path fill-opacity="0.433" d="M11 3.1c-2.7 0.2-5.3 1.9-6.7 4.2-2.1 3.6-1.6 8.1 1.3 11.1 1.3 1.2 2.8 2 4.7 2.4 0.6 0.2 0.7 0.2 1.7 0.2 1 0 1.1 0 1.7-0.2 1.9-0.4 3.4-1.2 4.7-2.4 3.5-3.6 3.5-9.2 0-12.8-2-1.9-4.6-2.8-7.4-2.5m0.2 2c-0.8 0-1.7 0.3-2.3 0.6-1.5 0.8-2.8 2.1-3.4 3.7-0.7 1.7-0.7 3.5 0 5.3 0.2 0.4 0.6 1 0.8 1.4l0.1 0.1 1.4-1.5c1-0.9 1.5-1.4 1.7-1.5 0.3-0.1 0.8 0 1.1 0.2 0.2 0.2 0.3 0.8 0.2 1.1-0.1 0.2-0.6 0.7-1.5 1.7l-1.5 1.4 0.2 0.1c0.3 0.2 1 0.7 1.4 0.8 2 0.8 4.3 0.6 6-0.4 1-0.6 1.8-1.3 2.4-2.2 0.4-0.6 0.4-0.7 0.7-1.3 0.7-1.7 0.7-3.6 0-5.3-0.2-0.4-0.6-1.1-0.8-1.3l-0.1-0.2-1.4 1.5c-0.8 0.7-1.5 1.4-1.6 1.5-0.4 0.1-0.9 0.1-1.2-0.2-0.3-0.3-0.4-0.8-0.1-1.2 0-0.1 0.7-0.8 1.5-1.6 0.7-0.8 1.4-1.4 1.4-1.4 0 0-0.2-0.1-0.3-0.2-0.8-0.5-1.8-0.9-2.6-1.1-0.6-0.1-1.6-0.1-2.1 0" stroke="none" fill="black" fill-rule="evenodd"></path><path fill-opacity="0.330" d="M11.1 3.1c-3.5 0.3-6.5 2.7-7.6 6.1-1.1 3.2-0.3 6.7 2.1 9.1 1.3 1.3 2.8 2.1 4.7 2.5 0.6 0.2 0.8 0.2 1.7 0.2 0.9 0 1.1 0 1.7-0.2 0.8-0.1 1.5-0.4 2.1-0.7 1.9-0.9 3.4-2.4 4.3-4.2 1.7-3.5 0.9-7.6-1.8-10.3-1.9-1.9-4.5-2.8-7.2-2.5m-0.2 2c-2.7 0.4-5 2.5-5.7 5.2-0.4 1.6-0.2 3.3 0.5 4.8 0.2 0.4 0.6 1.1 0.7 1.1 0 0 0.7-0.7 1.5-1.5 1.6-1.6 1.6-1.6 2.1-1.5 0.6 0 1 0.7 0.8 1.3-0.1 0.2-0.6 0.7-1.5 1.7-0.8 0.7-1.4 1.4-1.4 1.4 0 0.1 0.6 0.5 0.9 0.6 0.6 0.3 1.2 0.5 1.8 0.7 0.4 0 0.6 0.1 1.4 0.1 0.8 0 1-0.1 1.4-0.1 1.2-0.3 2.3-0.9 3.2-1.6 2.4-2.2 3.1-5.6 1.7-8.4-0.2-0.4-0.6-1-0.7-1 0 0-0.7 0.6-1.5 1.4-1.6 1.6-1.6 1.6-2.1 1.5-0.6 0-1-0.7-0.8-1.3 0.1-0.2 0.6-0.7 1.5-1.7 0.8-0.7 1.5-1.4 1.5-1.4 0-0.1-0.7-0.5-1.1-0.7-0.5-0.2-1.4-0.5-2.1-0.6-0.6-0.1-1.5-0.1-2.1 0" stroke="none" fill="black" fill-rule="evenodd"></path><path fill-opacity="0.965" d="M11.2 3.1c-1.6 0.1-3.3 0.7-4.6 1.8-0.5 0.3-1.3 1.1-1.7 1.6-0.8 1-1.4 2.4-1.7 3.7-0.4 2.2 0 4.6 1.2 6.5 1.3 2.2 3.6 3.8 6.2 4.2 0.7 0.1 2.1 0.1 2.8 0 1.4-0.3 2.8-0.9 4-1.8 0.5-0.3 1.4-1.2 1.7-1.7 0.8-1 1.4-2.4 1.7-3.6 0.5-2.6-0.1-5.2-1.7-7.3-1.6-2-3.9-3.2-6.4-3.4-0.7-0.1-0.8-0.1-1.5 0m-0.3 2c-1.4 0.2-2.5 0.7-3.5 1.6-1.1 1-2 2.4-2.3 4-0.1 0.6-0.1 2 0 2.7 0.2 0.8 0.5 1.5 1 2.3 0.3 0.6 0.1 0.7 1.8-1 1.6-1.6 1.6-1.6 2.1-1.5 0.4 0 0.8 0.4 0.8 0.8 0.1 0.5 0.1 0.5-1.5 2.1-1.5 1.4-1.5 1.5-1.4 1.6 0.2 0.2 0.9 0.6 1.4 0.7 0.5 0.3 1.2 0.5 1.8 0.6 0.6 0 1.7 0 2.3-0.1 2.9-0.6 5.1-3 5.6-6 0-0.5 0-1.8-0.1-2.3-0.2-0.9-0.7-2-1.3-2.8 0 0-0.6 0.6-1.5 1.4-0.8 0.8-1.5 1.5-1.6 1.6-0.1 0-0.2 0.1-0.4 0-0.5 0-0.9-0.3-0.9-0.8-0.1-0.5-0.1-0.5 1.5-2.1 1.5-1.4 1.5-1.5 1.4-1.6-0.6-0.5-1.8-1-2.7-1.2-0.5-0.1-2-0.1-2.5 0" stroke="none" fill="black" fill-rule="evenodd"></path></svg>