<?xml version="1.0"?><svg xmlns="http://www.w3.org/2000/svg" width="24" height="24" viewBox="0 0 24 24" version="1.1"><rect x="0" y="0" width="24" height="24" fill="#00000000"></rect><path fill-opacity="0.443" d="M6.9 4.1c-0.2 0.5-0.7 1.7-1.1 2.7-0.4 1-0.7 1.8-0.7 1.8 0 0.1 5.5 2.3 5.6 2.3 0-0.1 0.7-1.8 0.7-1.9-0.1 0-0.6-0.2-1.2-0.5-0.7-0.2-1.2-0.4-1.2-0.4-0.1-0.1 1-0.7 1.6-0.9 0.9-0.2 1.9-0.2 2.8 0 3 0.9 4.4 4.2 3.1 7-0.9 1.9-3 3-5 2.8-1.1-0.2-1.9-0.5-2.9-1.3l-0.2-0.2-0.7 0.7c-0.4 0.4-0.7 0.7-0.7 0.7 0 0.1 0.7 0.7 1.1 0.9 1.4 1 3.1 1.4 4.9 1.1 2.8-0.4 5.1-2.4 5.8-5.2 0.2-0.7 0.2-1.2 0.2-1.9-0.1-1.8-0.8-3.4-2-4.7-2.2-2.2-5.5-2.7-8.2-1.3-0.3 0.1-0.4 0.2-0.4 0.2 0 0 0.1-0.5 0.4-1.1 0.2-0.6 0.4-1 0.4-1.1-0.1 0-1.8-0.7-1.9-0.7 0 0-0.1 0.4-0.4 1" stroke="none" fill="black" fill-rule="evenodd"></path><path fill-opacity="0.099" d="M7.3 3.1c0 0.1-0.3 0.8-0.7 1.8-0.4 0.9-0.7 1.8-0.8 1.9-0.1 0.4-0.7 1.9-0.7 1.9 0 0 5.4 2.1 5.5 2.2 0.1 0 0.8-1.8 0.8-1.9-0.1 0-0.6-0.2-1.2-0.4-0.7-0.3-1.2-0.5-1.2-0.5-0.1-0.1 0.6-0.5 1-0.7 0.7-0.3 1.2-0.4 2-0.4 0.8 0 1.3 0.1 2 0.4 1.3 0.6 2.3 1.7 2.7 3 0.8 2.2-0.1 4.6-2.1 5.9-0.8 0.4-1.6 0.7-2.6 0.7-1.3 0-2.3-0.4-3.3-1.2l-0.3-0.3-0.7 0.7-0.7 0.7 0.3 0.2c1.9 1.8 4.7 2.4 7.3 1.4 2.9-1.1 4.7-4.2 4.3-7.3-0.2-2.1-1.4-4.1-3.2-5.2-1.3-0.7-2.9-1.1-4.3-1-1 0.1-2 0.4-2.8 0.9l-0.3 0.2 0.4-1.1c0.3-0.5 0.5-1 0.5-1.1 0 0-0.2-0.1-0.7-0.3-1.1-0.5-1.1-0.5-1.2-0.5" stroke="none" fill="black" fill-rule="evenodd"></path><path fill-opacity="0.406" d="M7.3 3.2c0 0.1-1.1 2.8-1.8 4.5-0.2 0.5-0.4 1-0.4 1 0 0 0.4 0.1 0.9 0.3 0.5 0.2 1.8 0.7 2.8 1.1 1.6 0.7 1.9 0.8 1.9 0.7 0 0 0.2-0.4 0.4-0.9 0.1-0.5 0.3-0.8 0.3-0.9-0.1 0-0.5-0.2-1-0.4-0.5-0.2-1.1-0.4-1.2-0.4l-0.3-0.2 0.3-0.1c0.4-0.3 1-0.6 1.5-0.7 0.5-0.2 0.6-0.2 1.3-0.2 0.7 0 0.8 0 1.3 0.2 0.6 0.1 1 0.3 1.5 0.7 1 0.6 1.7 1.7 2 2.8 0.2 0.5 0.2 0.6 0.2 1.3 0 0.7 0 0.8-0.2 1.3-0.7 2.8-3.6 4.3-6.4 3.4-0.6-0.1-1.3-0.6-1.8-1l-0.2-0.2-0.7 0.7-0.7 0.7 0.2 0.2c0.2 0.2 0.9 0.7 1.2 0.9 0.7 0.4 1.6 0.7 2.4 0.9 0.6 0.1 1.8 0.1 2.4 0 2.2-0.4 4.1-1.8 5.1-3.8 1.4-3 0.6-6.7-2.1-8.7-0.8-0.6-2-1.1-3-1.3-0.6-0.1-1.8-0.1-2.4 0-0.6 0.1-1.4 0.4-2 0.7-0.3 0.1-0.5 0.2-0.5 0.2 0 0 0.2-0.5 0.5-1.1 0.2-0.6 0.4-1 0.4-1 0 0-0.4-0.2-0.9-0.4-0.9-0.4-1-0.4-1-0.3" stroke="none" fill="black" fill-rule="evenodd"></path><path fill-opacity="0.974" d="M7.3 3.2c0 0-0.3 0.8-0.7 1.7-0.4 1-0.7 1.8-0.8 1.9-0.2 0.6-0.7 1.9-0.7 1.9 0.1 0 0.5 0.2 1 0.3 0.5 0.2 1.7 0.7 2.7 1.1 1.1 0.5 1.8 0.7 1.8 0.7 0.1 0 0.2-0.4 0.4-0.9l0.4-0.8-1.2-0.5c-0.7-0.3-1.2-0.5-1.2-0.5-0.1-0.1 0.2-0.3 0.6-0.5 2.2-1.2 4.9-0.6 6.5 1.5 0.2 0.3 0.6 1.1 0.7 1.6 0.2 0.4 0.2 0.5 0.2 1.3 0 0.8 0 0.9-0.2 1.3-0.4 1.4-1.2 2.5-2.4 3.1-0.5 0.3-0.9 0.4-1.4 0.5-1.6 0.3-3.3-0.1-4.4-1.2l-0.2-0.2-0.7 0.7-0.7 0.7 0.3 0.2c1 1 2.2 1.5 3.7 1.8 0.4 0.1 1.6 0.1 2 0 0.9-0.2 1.7-0.4 2.5-0.9 0.6-0.3 0.9-0.6 1.5-1.1 2.3-2.4 2.6-6.2 0.7-8.9-1-1.5-2.6-2.5-4.3-2.8-1.5-0.3-3.1-0.1-4.5 0.6-0.3 0.1-0.6 0.2-0.6 0.2 0 0 0.2-0.5 0.4-1 0.3-0.6 0.4-1.1 0.4-1.1 0-0.1-1.6-0.7-1.7-0.7 0 0-0.1 0-0.1 0" stroke="none" fill="black" fill-rule="evenodd"></path></svg>