<?xml version="1.0"?><svg xmlns="http://www.w3.org/2000/svg" width="24" height="24" viewBox="0 0 24 24" version="1.1"><rect x="0" y="0" width="24" height="24" fill="#00000000"></rect><path fill-opacity="0.369" d="M6.2 7.1c-2.3 0.4-4.1 2.3-4.2 4.6-0.1 1.7 0.7 3.3 2 4.3 0.7 0.5 1.3 0.8 2.1 0.9 0.7 0.1 11.1 0.1 11.8 0 1.9-0.3 3.4-1.7 4-3.7 0.1-0.5 0.1-1.9 0-2.4-0.5-1.8-1.8-3.1-3.6-3.6l-0.5-0.2-5.6 0c-3.2 0-5.8 0-6 0.1m0.2 2c-0.8 0.1-1.5 0.6-1.9 1.3-0.6 0.9-0.6 2.3 0 3.2 0.4 0.6 0.9 1 1.6 1.3l0.3 0.1 5.6 0c5.2 0 5.5 0 5.8-0.1 0.7-0.2 1.3-0.7 1.7-1.3 0.6-0.9 0.6-2.3 0-3.2-0.4-0.7-1.1-1.2-1.9-1.3-0.6-0.1-10.7-0.1-11.2 0m0.2 2c-0.8 0.4-0.8 1.5 0 1.8 0.2 0.1 0.8 0.1 5.4 0.1 5 0 5.2 0 5.4-0.1 0.8-0.3 0.8-1.5 0-1.8-0.2-0.1-0.4-0.1-5.4-0.1-5 0-5.2 0-5.4 0.1" stroke="none" fill="black" fill-rule="evenodd"></path><path fill-opacity="0.304" d="M6.2 7.1c-1.4 0.2-2.6 1-3.3 2.1-1.8 2.6-0.8 6.1 2.1 7.4 0.4 0.2 0.7 0.2 1.2 0.3 0.6 0.1 11 0.1 11.6 0 0.9-0.1 1.6-0.5 2.3-1 1.4-1.1 2.1-3 1.8-4.7-0.3-1.8-1.5-3.3-3.2-3.9-0.9-0.3-0.8-0.3-6.7-0.3-4.4 0-5.5 0-5.8 0.1m0.2 2c-1.2 0.2-2.1 1.2-2.3 2.3-0.2 0.9 0 1.9 0.7 2.6 0.4 0.4 0.7 0.6 1.2 0.8l0.4 0.2 5.4 0c4.9 0 5.5 0 5.8-0.1 1.4-0.3 2.4-1.5 2.4-2.9 0-1.4-1-2.6-2.4-2.9-0.5-0.1-10.8-0.1-11.2 0m0.2 2c-0.1 0-0.2 0.1-0.3 0.2-0.5 0.5-0.3 1.3 0.2 1.6l0.3 0.1 5.2 0 5.2 0 0.3-0.1c0.1-0.1 0.2-0.2 0.3-0.3 0.2-0.2 0.2-0.3 0.2-0.6 0-0.3 0-0.4-0.2-0.6-0.1-0.1-0.2-0.2-0.3-0.3-0.2-0.1-0.2-0.1-5.4-0.1-4.4 0-5.3 0-5.5 0.1" stroke="none" fill="black" fill-rule="evenodd"></path><path fill-opacity="0.437" d="M6.3 7.1c-2.1 0.3-3.6 1.7-4.1 3.7-0.1 0.4-0.2 0.6-0.2 1.2 0 0.6 0.1 0.8 0.2 1.2 0.4 1.7 1.7 3.1 3.3 3.5 0.8 0.3 0.9 0.3 6.5 0.3 5.6 0 5.7 0 6.5-0.3 1.6-0.4 2.9-1.8 3.3-3.5 0.1-0.4 0.2-0.6 0.2-1.2 0-0.6-0.1-0.8-0.2-1.2-0.4-1.7-1.7-3-3.3-3.5-0.8-0.3-0.9-0.3-6.5-0.3-4 0-5.4 0-5.7 0.1m0 2c-1.2 0.3-2.2 1.4-2.3 2.7 0 0.6 0.1 1 0.3 1.4 0.4 0.9 1.1 1.5 2 1.7 0.5 0.1 10.9 0.1 11.4 0 0.9-0.2 1.6-0.8 2-1.7 0.2-0.4 0.3-0.9 0.3-1.4-0.1-1.3-1.1-2.5-2.3-2.7-0.5-0.1-10.9-0.1-11.4 0m0.4 1.9c-0.4 0.2-0.7 0.6-0.7 1.1 0.1 0.3 0.3 0.6 0.6 0.8l0.2 0.1 5.2 0 5.2 0 0.2-0.1c0.7-0.4 0.8-1.4 0.1-1.7l-0.2-0.2-5.2 0c-2.9 0-5.3 0-5.4 0" stroke="none" fill="black" fill-rule="evenodd"></path><path fill-opacity="0.968" d="M6.5 7.1c-1.5 0.1-2.8 0.9-3.6 2.1-1.1 1.7-1.1 3.9 0 5.6 0.6 0.9 1.5 1.6 2.5 1.9 0.8 0.3 0.7 0.3 6.6 0.3 5.1 0 5.6 0 6-0.1 1.3-0.3 2.4-1 3.1-2.1 1.5-2.3 1-5.2-1.2-6.9-0.6-0.4-1.5-0.8-2.5-0.8-0.6-0.1-10.3-0.1-10.9 0m-0.2 2c-1.1 0.2-1.9 1.1-2.2 2.2-0.1 0.4-0.1 1 0 1.4 0.2 1 1 1.9 2 2.2l0.4 0.1 5.5 0 5.5 0 0.4-0.1c1-0.3 1.8-1.2 2-2.2 0.1-0.4 0.1-1 0-1.4-0.3-1.1-1.1-2-2.2-2.2-0.4-0.1-11-0.1-11.4 0m0.4 2c-0.8 0.2-0.9 1.3-0.2 1.8l0.2 0.1 5.3 0 5.3 0 0.2-0.1c0.7-0.5 0.6-1.7-0.3-1.8-0.4-0.1-10.1-0.1-10.5 0" stroke="none" fill="black" fill-rule="evenodd"></path></svg>