<?xml version="1.0"?><svg xmlns="http://www.w3.org/2000/svg" width="24" height="24" viewBox="0 0 24 24" version="1.1"><rect x="0" y="0" width="24" height="24" fill="#00000000"></rect><path fill-opacity="0.329" d="M7 2.5l0 2.5-1 0-1 0 0 5.8 0 5.8 0.1 0.4c0.3 0.8 1.1 1.6 1.9 1.9l0.4 0.1 4.6 0 4.6 0 0.4-0.1c0.8-0.3 1.6-1.1 1.9-1.9l0.1-0.4 0-5.8 0-5.8-1 0-1 0 0-2.5 0-2.5-1 0-1 0 0 2.5 0 2.5-3 0-3 0 0-2.5 0-2.5-1 0-1 0 0 2.5m3-0.5l0 1 0.5 0 0.5 0 0-1 0-1-0.5 0-0.5 0 0 1m3 0l0 1 0.5 0 0.5 0 0-1 0-1-0.5 0-0.5 0 0 1m-6 9.6l0 4.7 0.1 0.2c0.1 0.1 0.3 0.3 0.4 0.3l0.2 0.2 4.3 0 4.3 0 0.2-0.2c0.1 0 0.3-0.2 0.4-0.3l0.1-0.2 0-4.7 0-4.6-5 0-5 0 0 4.6" stroke="none" fill="black" fill-rule="evenodd"></path><path fill-opacity="0.293" d="M7 2.5l0 2.5-1 0-1 0 0 5.7c0 6.2 0 6 0.3 6.6 0.2 0.5 0.9 1.2 1.4 1.4 0.6 0.3 0.5 0.3 5.3 0.3 4.8 0 4.7 0 5.3-0.3 0.5-0.2 1.2-0.9 1.4-1.4 0.3-0.6 0.3-0.4 0.3-6.6l0-5.7-1 0-1 0 0-2.5 0-2.5-1 0-1 0 0 2.5 0 2.5-3 0-3 0 0-2.5 0-2.5-1 0-1 0 0 2.5m3-0.5l0 1 0.5 0 0.5 0 0-1 0-1-0.5 0-0.5 0 0 1m3 0l0 1 0.5 0 0.5 0 0-1 0-1-0.5 0-0.5 0 0 1m-6 9.7l0 4.6 0.2 0.3c0.1 0.1 0.2 0.2 0.3 0.3l0.3 0.1 4.2 0 4.2 0 0.2-0.1c0.2-0.1 0.3-0.2 0.4-0.3l0.2-0.3 0-4.6 0-4.7-5 0-5 0 0 4.7" stroke="none" fill="black" fill-rule="evenodd"></path><path fill-opacity="0.620" d="M7 2.5l0 2.5-1 0-1 0 0 5.6c0 4.8 0 5.7 0.1 6 0.2 1.1 1.2 2.1 2.3 2.3 0.5 0.1 8.7 0.1 9.2 0 1.1-0.2 1.9-1 2.3-2 0.1-0.3 0.1-0.7 0.1-6.1l0-5.8-1 0-1 0 0-2.5 0-2.5-1 0-1 0 0 2.5 0 2.5-3 0-3 0 0-2.5 0-2.5-1 0-1 0 0 2.5m3-0.5l0 1 0.5 0 0.5 0 0-1 0-1-0.5 0-0.5 0 0 1m3 0l0 1 0.5 0 0.5 0 0-1 0-1-0.5 0-0.5 0 0 1m-6 9.7l0 4.6 0.2 0.3c0.1 0.1 0.2 0.2 0.3 0.3l0.2 0.1 4.3 0 4.3 0 0.2-0.1c0.1-0.1 0.2-0.2 0.3-0.3l0.2-0.3 0-4.6 0-4.7-5 0-5 0 0 4.7" stroke="none" fill="black" fill-rule="evenodd"></path><path fill-opacity="0.956" d="M7 2.5l0 2.5-1 0-1 0 0 5.5c0 3.1 0 5.7 0 5.9 0.2 0.9 0.7 1.8 1.6 2.2 0.6 0.4 0.4 0.4 5.4 0.4 5 0 4.8 0 5.4-0.4 0.9-0.4 1.4-1.3 1.6-2.2 0-0.2 0-2.8 0-5.9l0-5.5-1 0-1 0 0-2.5 0-2.5-1 0-1 0 0 2.5 0 2.5-3 0-3 0 0-2.5 0-2.5-1 0-1 0 0 2.5m3-0.5l0 1 0.5 0 0.5 0 0-1 0-1-0.5 0-0.5 0 0 1m3 0l0 1 0.5 0 0.5 0 0-1 0-1-0.5 0-0.5 0 0 1m-6 9.7l0 4.7 0.2 0.2c0.1 0.1 0.2 0.2 0.3 0.3 0.1 0.1 0.1 0.1 4.5 0.1 4.4 0 4.4 0 4.5-0.1 0.1-0.1 0.2-0.2 0.3-0.3l0.2-0.2 0-4.7 0-4.7-5 0-5 0 0 4.7" stroke="none" fill="black" fill-rule="evenodd"></path></svg>