<?xml version="1.0"?><svg xmlns="http://www.w3.org/2000/svg" width="24" height="24" viewBox="0 0 24 24" version="1.1"><rect x="0" y="0" width="24" height="24" fill="#00000000"></rect><path fill-opacity="0.459" d="M5.1 7.1c-1.9 0.3-3.4 1.7-4 3.7-0.1 0.5-0.1 1.9 0 2.4 0.3 1 0.7 1.7 1.4 2.4 0.5 0.5 1.1 0.8 1.7 1.1 0.9 0.3 0.7 0.3 8 0.3l6.6 0 0.4-0.1c1.5-0.5 2.6-1.3 3.2-2.6 0.5-0.8 0.6-1.6 0.6-2.6-0.1-2.2-1.6-4-3.8-4.6-0.5-0.1-1.9-0.1-2.4 0-0.9 0.3-1.7 0.7-2.3 1.4-0.7 0.6-1.1 1.4-1.4 2.3-0.1 0.5-0.1 1.9 0 2.4 0.2 0.5 0.4 1.1 0.7 1.5l0.2 0.3-2 0-2 0 0.2-0.3c0.9-1.3 1.1-3.1 0.4-4.7-0.6-1.4-1.9-2.5-3.4-2.9-0.5-0.1-1.6-0.1-2.1 0m0.4 2c-0.7 0.1-1.3 0.4-1.7 0.9-0.5 0.6-0.8 1.2-0.8 2 0 0.8 0.3 1.4 0.8 2 0.6 0.7 1.3 1 2.2 1 0.9 0 1.6-0.3 2.2-1 0.5-0.6 0.8-1.2 0.8-2 0-0.9-0.3-1.5-0.9-2.1-0.4-0.4-0.6-0.6-1.1-0.7-0.4-0.2-1.1-0.2-1.5-0.1m12 0c-0.7 0.1-1.3 0.4-1.7 0.9-0.5 0.6-0.8 1.2-0.8 2 0 0.8 0.3 1.4 0.8 2 0.6 0.7 1.3 1 2.2 1 0.9 0 1.6-0.3 2.2-1 0.5-0.6 0.8-1.2 0.8-2 0-0.9-0.3-1.5-0.9-2.1-0.4-0.4-0.6-0.6-1.1-0.7-0.4-0.2-1.1-0.2-1.5-0.1" stroke="none" fill="black" fill-rule="evenodd"></path><path fill-opacity="0.181" d="M5.5 7c-0.1 0-0.3 0.1-0.5 0.1-0.9 0.2-2.1 0.9-2.8 1.6-1.6 1.9-1.6 4.5-0.1 6.4 0.8 1 1.9 1.6 3.1 1.8 0.7 0.1 12.9 0.1 13.6 0 1.2-0.2 2.3-0.8 3.1-1.8 0.9-1.1 1.3-2.6 1-3.9-0.3-1.6-1.2-2.9-2.6-3.6-0.8-0.4-1.4-0.6-2.3-0.6-0.9 0-1.5 0.2-2.3 0.6-2.6 1.3-3.5 4.8-1.8 7.2l0.1 0.2-2 0-2 0 0.1-0.2c0.7-1 1-2.4 0.8-3.6-0.3-2-1.8-3.6-3.8-4.1-0.3-0.1-1.4-0.1-1.6-0.1m-0.1 2.1c-0.2 0-0.5 0.1-0.7 0.2-0.3 0.2-0.5 0.3-0.8 0.6-0.6 0.6-0.9 1.3-0.9 2.1 0 0.8 0.3 1.5 0.9 2.1 0.5 0.5 0.9 0.7 1.4 0.8 1.1 0.2 2 0 2.8-0.8 0.6-0.6 0.9-1.3 0.9-2.1 0-0.8-0.3-1.5-0.9-2.1-0.3-0.3-0.5-0.4-0.8-0.6-0.6-0.3-1.3-0.4-1.9-0.2m12 0c-0.2 0-0.5 0.1-0.7 0.2-0.3 0.2-0.5 0.3-0.8 0.6-0.6 0.6-0.9 1.3-0.9 2.1 0 0.8 0.3 1.5 0.9 2.1 0.5 0.5 0.9 0.7 1.4 0.8 1.1 0.2 2 0 2.8-0.8 0.6-0.6 0.9-1.3 0.9-2.1 0-0.8-0.3-1.5-0.9-2.1-0.3-0.3-0.5-0.4-0.8-0.6-0.6-0.3-1.3-0.4-1.9-0.2" stroke="none" fill="black" fill-rule="evenodd"></path><path fill-opacity="0.593" d="M5.4 7.1c-1.1 0.1-2.1 0.6-2.9 1.4-2 1.9-2 5.1 0 7 0.8 0.8 1.8 1.3 2.9 1.4 0.3 0.1 2.7 0.1 6.6 0.1 3.9 0 6.3 0 6.6-0.1 1.1-0.1 2.1-0.6 2.9-1.3 1.1-1.1 1.6-2.7 1.5-4.1-0.2-1.2-0.7-2.2-1.5-3-1.7-1.7-4.3-2-6.3-0.6-1.5 1-2.4 2.8-2.2 4.6 0.1 0.8 0.4 1.6 0.8 2.3l0.2 0.2-1 0c-0.6 0-1.4 0-2 0l-1 0 0.2-0.2c0.2-0.4 0.5-1 0.6-1.4 0.5-1.8 0-3.6-1.3-4.9-0.8-0.8-1.8-1.3-2.9-1.4-0.5-0.1-0.7-0.1-1.2 0m0 1.9c-1.1 0.3-1.9 1-2.3 2-0.1 0.5-0.1 1.5 0 2 0.3 0.8 1.1 1.6 1.9 1.9 0.3 0.1 0.5 0.1 1 0.1 0.5 0 0.7 0 1-0.1 0.8-0.3 1.6-1.1 1.9-2 0.1-0.5 0.1-1.3 0-1.8-0.3-0.9-1.1-1.7-1.9-2-0.2 0-0.5-0.1-0.9-0.1-0.3 0-0.6 0-0.7 0m12 0c-1.1 0.3-1.9 1-2.3 2-0.1 0.5-0.1 1.5 0 2 0.3 0.8 1.1 1.6 1.9 1.9 0.3 0.1 0.5 0.1 1 0.1 0.5 0 0.7 0 1-0.1 0.8-0.3 1.6-1.1 1.9-2 0.1-0.5 0.1-1.3 0-1.8-0.3-0.9-1.1-1.7-1.9-2-0.2 0-0.5-0.1-0.9-0.1-0.3 0-0.6 0-0.7 0" stroke="none" fill="black" fill-rule="evenodd"></path><path fill-opacity="0.957" d="M5.5 7.1c-1.2 0.1-2.3 0.6-3.1 1.5-1.9 1.9-1.8 5.1 0.2 7 0.7 0.7 1.5 1.1 2.5 1.3 0.3 0.1 0.8 0.1 6.9 0.1 6.1 0 6.6 0 6.9-0.1 1-0.2 1.8-0.6 2.5-1.3 2.5-2.4 1.9-6.5-1.2-8-2.2-1.2-5-0.4-6.4 1.7-1 1.6-1 3.7 0 5.4l0.2 0.3-2 0c-1.1 0-2 0-2 0 0 0 0-0.1 0.1-0.2 0.2-0.3 0.5-0.9 0.7-1.4 0.6-2.3-0.4-4.8-2.6-5.8-0.4-0.3-1.1-0.5-1.6-0.5-0.6-0.1-0.7-0.1-1.1 0m-0.3 2c-1 0.3-1.9 1.1-2.1 2.1-0.1 0.4-0.1 1.1 0 1.5 0.2 1.1 1.1 2 2.1 2.2 0.4 0.1 1.2 0.1 1.6 0 1-0.2 1.9-1.1 2.1-2.2 0.1-0.4 0.1-1 0-1.4-0.2-1.1-1.1-1.9-2.1-2.2-0.4-0.1-1.2-0.1-1.6 0m12 0c-1 0.3-1.9 1.1-2.1 2.1-0.1 0.4-0.1 1.1 0 1.5 0.2 1.1 1.1 2 2.1 2.2 0.2 0.1 0.5 0.1 0.8 0.1 0.9 0 1.5-0.3 2.1-0.9 0.6-0.6 0.9-1.2 0.9-2.1 0-0.2 0-0.6-0.1-0.7-0.2-1.1-1.1-1.9-2.1-2.2-0.4-0.1-1.2-0.1-1.6 0" stroke="none" fill="black" fill-rule="evenodd"></path></svg>