<?xml version="1.0"?><svg xmlns="http://www.w3.org/2000/svg" width="24" height="24" viewBox="0 0 24 24" version="1.1"><rect x="0" y="0" width="24" height="24" fill="#00000000"></rect><path fill-opacity="0.443" d="M18.3 5.7l-2.3 2.3-2.4 0c-2.2 0-2.3 0-2.7 0.1-1.3 0.4-2.4 1.5-2.8 2.9-0.1 0.5-0.1 1.5 0 2 0.1 0.5 0.5 1.2 0.8 1.5 0.5 0.6 1.2 1.1 2 1.4 0.3 0.1 0.4 0.1 2.7 0.1l2.4 0 2.3 2.3c1.2 1.2 2.2 2.3 2.3 2.3 0 0 0-3.9 0-8.6 0-4.7 0-8.5 0-8.5-0.1 0-1.1 1-2.3 2.2m3.7-0.7c0 0.9 0 1 0.1 1 0.4 0 1.4 0.2 1.8 0.3 0.1 0.1 0.1 0 0.1-1l0-1-0.2-0.1c-0.3-0.1-1.2-0.2-1.5-0.2l-0.3 0 0 1m0 4l0 1 0.2 0c0.9 0.2 1.6 0.8 1.8 1.7 0 0.1 0-0.5 0-1.5l0-1.7-0.3-0.1c-0.5-0.2-0.9-0.3-1.3-0.4l-0.4 0 0 1m-4.7-0.2l-1.3 0.8 0 0.2 0 0.2-2 0c-1.1 0-2.2 0-2.3 0-1.1 0.2-1.8 1.2-1.7 2.3 0.2 0.8 0.9 1.5 1.7 1.7 0.1 0 1.2 0 2.3 0l2 0 0 0.2 0 0.2 1.3 0.8c0.7 0.4 1.3 0.7 1.3 0.7 0 0.1 0.1-1.7 0.1-3.9 0-2.2-0.1-3.9-0.1-3.9 0 0-0.6 0.3-1.3 0.7m6.6 3.6c0 0.3-0.2 0.7-0.5 1-0.3 0.3-0.7 0.5-1.2 0.6l-0.2 0 0 1 0 1 0.4 0c0.4-0.1 0.8-0.1 1.3-0.4l0.3-0.1 0-1.7c0-0.9 0-1.6 0-1.6 0 0 0 0.1-0.1 0.2m-0.4 5.4c-0.3 0.1-1.1 0.2-1.4 0.2-0.1 0-0.1 0.2-0.1 1l0 1 0.3 0c0.3 0 1.2-0.1 1.5-0.2l0.2-0.1 0-1c0-0.6 0-1 0-1-0.1 0-0.3 0-0.5 0.1" stroke="none" fill="black" fill-rule="evenodd"></path><path fill-opacity="0.120" d="M18.3 5.7l-2.3 2.3-2.4 0-2.3 0-0.5 0.2c-0.8 0.3-1.3 0.6-1.9 1.3-0.3 0.4-0.5 0.7-0.7 1.3-0.2 0.4-0.2 0.5-0.2 1.2 0 0.5 0 0.7 0.1 1 0.5 1.5 1.6 2.6 3.1 2.9 0.3 0.1 0.8 0.1 2.6 0.1l2.2 0 2.3 2.3 2.2 2.3 0-8.6c0-4.7 0-8.5 0-8.5 0 0-1 1-2.2 2.2m3.7-0.7l0 1 0.2 0c0.4 0 1.4 0.2 1.7 0.3 0.1 0.1 0.1 0 0.1-1l0-1-0.4-0.1c-0.4-0.1-1.1-0.2-1.4-0.2l-0.2 0 0 1m0 4l0 1 0.3 0c0.8 0.2 1.4 0.7 1.6 1.5 0.1 0.3 0.1 0.1 0.1-1.3l0-1.7-0.2-0.1c-0.2-0.1-1-0.3-1.4-0.4l-0.4 0 0 1m-4.7-0.2l-1.3 0.8 0 0.2 0 0.2-2.1 0c-1.3 0-2.1 0-2.3 0.1-1 0.2-1.7 1.2-1.6 2.2 0.2 0.9 0.8 1.5 1.6 1.6 0.2 0.1 1.1 0.1 2.4 0.1l2 0 0 0.2 0 0.2 1.3 0.8c0.7 0.4 1.3 0.7 1.3 0.7 0 0 0.1-1.7 0.1-3.9 0-2.2-0.1-3.9-0.1-3.9 0 0-0.6 0.3-1.3 0.7m6.6 3.6c-0.1 0.6-0.5 1.1-1 1.4-0.1 0-0.4 0.1-0.6 0.2l-0.3 0 0 1 0 1 0.2 0c0.3 0 0.9-0.1 1.3-0.3 0.6-0.2 0.5 0 0.5-1.9 0-0.9 0-1.5-0.1-1.4m-0.3 5.4c-0.3 0.1-1.1 0.2-1.4 0.2l-0.2 0 0 1 0 1 0.1 0c0.3 0 1.3-0.1 1.6-0.2l0.3-0.1 0-1c0-0.6 0-1 0-1-0.1 0-0.2 0-0.4 0.1" stroke="none" fill="black" fill-rule="evenodd"></path><path fill-opacity="0.336" d="M18.3 5.7l-2.3 2.3-2.3 0c-2.2 0-2.4 0-2.7 0.1-0.8 0.3-1.3 0.6-1.8 1.1-0.4 0.4-0.6 0.6-0.8 1-0.3 0.6-0.4 1.1-0.4 1.8 0 0.7 0.1 1.2 0.4 1.8 0.6 1.1 1.6 1.9 2.9 2.1 0.3 0.1 0.9 0.1 2.5 0.1l2.2 0 2.3 2.3 2.3 2.2 0-8.5c0-4.7-0.1-8.5-0.1-8.5 0 0-1 1-2.2 2.2m3.7-0.7l0 1 0.3 0c0.3 0 1 0.1 1.4 0.2l0.3 0.1 0-1 0-1-0.2-0.1c-0.4-0.1-0.8-0.1-1.4-0.2l-0.4 0 0 1m-4.7 3.8l-1.3 0.8 0 0.2 0 0.2-2.2 0-2.3 0-0.3 0.2c-0.5 0.2-0.8 0.5-1 0.9-0.2 0.4-0.2 0.4-0.2 0.9 0 0.4 0 0.5 0.2 0.8 0.2 0.4 0.6 0.8 1 1l0.3 0.2 2.3 0 2.2 0 0 0.2 0 0.2 1.3 0.8 1.4 0.8 0-4c0-2.2-0.1-4-0.1-4 0 0-0.6 0.4-1.3 0.8m4.7 0.2l0 1 0.3 0c0.7 0.1 1.5 0.8 1.6 1.5 0.1 0.2 0.1-0.3 0.1-1.4l0-1.6-0.3-0.1c-0.3-0.2-0.9-0.3-1.4-0.4l-0.3 0 0 1m2 3.4c-0.1 0.2-0.3 0.8-0.6 1-0.3 0.3-0.7 0.5-1.1 0.6l-0.3 0 0 1 0 1 0.2 0c0.4 0 1.6-0.3 1.7-0.5 0.1-0.1 0.1-0.6 0.1-1.7 0-0.8 0-1.5 0-1.4m-0.3 5.4c-0.4 0.1-1.1 0.2-1.4 0.2l-0.3 0 0 1 0 1 0.4 0c0.5-0.1 1.1-0.1 1.4-0.2l0.2-0.1 0-1c0-0.6 0-1 0-1 0 0-0.2 0-0.3 0.1" stroke="none" fill="black" fill-rule="evenodd"></path><path fill-opacity="0.976" d="M18.3 5.7l-2.3 2.3-2.3 0c-2.2 0-2.3 0-2.7 0.1-1.8 0.5-3 2-3 3.9 0 1.6 0.9 2.9 2.3 3.6 0.8 0.4 0.8 0.4 3.4 0.4l2.3 0 2.3 2.3 2.3 2.2 0-8.5c0-4.7-0.1-8.5-0.1-8.5 0 0-1 1-2.2 2.2m3.7-0.7l0 1 0.3 0c0.3 0 1.1 0.1 1.4 0.2l0.3 0.1 0-1 0-1-0.3-0.1c-0.3-0.1-0.9-0.1-1.3-0.2l-0.4 0 0 1m-4.7 3.8l-1.3 0.8 0 0.2 0 0.2-2.2 0c-2.3 0-2.4 0-2.8 0.3-0.3 0.2-0.7 0.6-0.9 0.9-0.1 0.4-0.1 1 0 1.3 0.1 0.5 0.5 1 0.9 1.2 0.4 0.3 0.6 0.3 2.9 0.3l2.1 0 0 0.2 0 0.2 1.3 0.8c0.7 0.4 1.4 0.8 1.4 0.8 0 0 0-1.8 0-4 0-2.2 0-4 0-4-0.1 0-0.7 0.4-1.4 0.8m4.7 0.2l0 1 0.2 0c0.1 0 0.2 0 0.4 0.1 0.6 0.2 1.1 0.6 1.3 1.3l0.1 0.2 0-1.5 0-1.6-0.3-0.1c-0.4-0.2-1-0.3-1.4-0.4l-0.3 0 0 1m1.9 3.6c-0.2 0.7-1 1.4-1.8 1.4l-0.1 0 0 1 0 1 0.3 0c0.5-0.1 0.9-0.2 1.3-0.4l0.4-0.1 0-1.6c0-0.8 0-1.5 0-1.5 0 0-0.1 0.1-0.1 0.2m-0.2 5.2c-0.4 0.1-1.1 0.2-1.4 0.2l-0.3 0 0 1 0 1 0.4 0c0.4-0.1 1-0.1 1.3-0.2l0.3-0.1 0-1c0-0.6 0-1 0-1 0 0-0.2 0-0.3 0.1" stroke="none" fill="black" fill-rule="evenodd"></path></svg>