<?xml version="1.0"?><svg xmlns="http://www.w3.org/2000/svg" width="24" height="24" viewBox="0 0 24 24" version="1.1"><rect x="0" y="0" width="24" height="24" fill="#00000000"></rect><path fill-opacity="0.353" d="M11 6.1c-2.9 0.5-5 3-5 5.9 0 2.3 1.3 4.4 3.3 5.4 0.5 0.2 1.2 0.4 1.5 0.5l0.2 0 0 1.1 0 1-2 0-2 0 0 1 0 1 5 0 5 0 0-1 0-1-2 0-2 0 0-1 0-1.1 0.2 0c0.3-0.1 1-0.3 1.5-0.5 1.4-0.7 2.5-2.1 3-3.6 1-3.1-0.7-6.4-3.8-7.5-0.9-0.3-2-0.4-2.9-0.2m0.5 1.9c-1.3 0.2-2.5 1-3.1 2.2-0.3 0.7-0.4 1.1-0.4 1.8 0 0.5 0.1 0.7 0.2 1.1 0.2 0.7 0.5 1.2 1 1.7 0.4 0.4 0.5 0.5 1 0.7 0.6 0.3 1.2 0.5 1.8 0.5 0.6 0 1.2-0.2 1.8-0.5 0.5-0.2 0.6-0.3 1-0.7 0.5-0.5 0.8-1 1-1.7 0.1-0.4 0.2-0.6 0.2-1.1 0-0.5-0.1-0.7-0.2-1.1-0.2-0.7-0.5-1.2-1-1.7-0.4-0.4-0.5-0.5-1-0.7-0.3-0.2-0.7-0.3-0.8-0.4-0.5-0.1-1.1-0.1-1.5-0.1m-0.1 2.1c-0.9 0.3-1.4 1.1-1.4 2 0 0.3 0.1 0.5 0.2 0.8 0.8 1.5 2.8 1.5 3.6 0 0.2-0.4 0.2-0.4 0.2-0.9 0-0.4 0-0.5-0.2-0.8-0.4-1-1.4-1.4-2.4-1.1" stroke="none" fill="black" fill-rule="evenodd"></path><path fill-opacity="0.285" d="M11 6.1c-1.9 0.3-3.5 1.6-4.4 3.3-0.8 1.7-0.8 3.5 0 5.2 0.8 1.7 2.3 2.8 4.1 3.3l0.3 0 0 1.1 0 1-2 0-2 0 0 1 0 1 5 0 5 0 0-1 0-1-2 0-2 0 0-1 0-1.1 0.3 0c0.5-0.2 1.1-0.4 1.5-0.6 1.2-0.6 2-1.5 2.6-2.7 0.8-1.7 0.8-3.5 0-5.2-1-2.1-3.2-3.4-5.4-3.4-0.3 0-0.8 0-1 0.1m0.4 1.9c-1.6 0.3-2.8 1.4-3.3 3.1 0 0.2-0.1 0.5-0.1 0.9 0 0.7 0.1 1 0.3 1.6 0.7 1.7 2.6 2.7 4.4 2.3 0.8-0.1 1.4-0.4 2-1 0.6-0.6 0.9-1.1 1.2-1.9 0.1-0.5 0.1-1.5 0-1.9-0.5-1.8-1.9-3-3.7-3.1-0.3 0-0.6 0-0.8 0m0.1 2.1c-1.2 0.3-1.8 1.6-1.3 2.7 0.6 1.3 2.2 1.6 3.2 0.6 0.8-0.8 0.8-1.9 0.1-2.8-0.5-0.5-1.3-0.7-2-0.5" stroke="none" fill="black" fill-rule="evenodd"></path><path fill-opacity="0.347" d="M11.2 6.1c-1.1 0.1-2.3 0.6-3.1 1.4-1.2 1-1.9 2.4-2.1 4-0.2 2.6 1.3 5.1 3.8 6.1 0.3 0.1 0.6 0.2 0.8 0.2l0.4 0.1 0 1.1 0 1-2 0-2 0 0 1 0 1 5 0 5 0 0-1 0-1-2 0-2 0 0-1 0-1.1 0.4-0.1c2.9-0.7 4.9-3.4 4.6-6.4-0.3-2.5-2-4.4-4.4-5.2-0.7-0.2-1.6-0.2-2.4-0.1m0.1 1.9c-1.2 0.3-2.3 1.1-2.9 2.2-0.3 0.6-0.3 0.9-0.4 1.6-0.1 1.6 0.8 3.1 2.3 3.8 0.6 0.3 0.9 0.4 1.7 0.4 0.8 0 1.1-0.1 1.8-0.4 1.8-0.9 2.6-3 2-4.9-0.4-1.2-1.5-2.2-2.7-2.5-0.4-0.2-1.4-0.2-1.8-0.2m0.3 2.1c-0.6 0.1-1.1 0.5-1.4 1-0.7 1.5 0.5 3.1 2.1 2.9 1.6-0.3 2.2-2.2 1.1-3.4-0.5-0.5-1.1-0.7-1.8-0.5" stroke="none" fill="black" fill-rule="evenodd"></path><path fill-opacity="0.974" d="M11.4 6.1c-2.4 0.2-4.5 2-5.2 4.4-0.4 1.7-0.1 3.7 1 5 0.9 1.2 2 2 3.5 2.3l0.3 0.1 0 1.1 0 1-2 0-2 0 0 1 0 1 5 0 5 0 0-1 0-1-2 0-2 0 0-1 0-1.1 0.3-0.1c1.5-0.3 2.6-1.1 3.5-2.3 0.9-1.1 1.3-2.6 1.1-4-0.1-1.6-0.8-2.9-1.9-4-0.7-0.6-1.6-1.1-2.5-1.3-0.4-0.1-1.4-0.2-1.6-0.2 0 0-0.3 0-0.5 0.1m-0.1 1.9c-1.5 0.3-2.7 1.4-3.2 2.9-0.1 0.3-0.1 0.5-0.1 1.1 0 0.6 0 0.8 0.1 1.1 0.4 1.2 1.3 2.1 2.4 2.6 0.9 0.4 2.1 0.4 3 0 1.1-0.5 2-1.4 2.4-2.6 0.1-0.3 0.1-0.5 0.1-1.1 0-0.6 0-0.8-0.1-1.1-0.5-1.3-1.4-2.3-2.6-2.7-0.5-0.1-0.6-0.2-1.1-0.2-0.4 0-0.8 0-0.9 0m0.4 2.1c-1.1 0.1-1.8 1.2-1.6 2.2 0.2 1.6 2.1 2.2 3.3 1.1 0.6-0.6 0.7-1.5 0.4-2.3-0.4-0.8-1.3-1.2-2.1-1" stroke="none" fill="black" fill-rule="evenodd"></path></svg>