<?xml version="1.0"?><svg xmlns="http://www.w3.org/2000/svg" width="24" height="24" viewBox="0 0 24 24" version="1.1"><rect x="0" y="0" width="24" height="24" fill="#00000000"></rect><path fill-opacity="0.475" d="M3.2 2.1c-1.1 0.3-1.9 1.2-2.1 2.3-0.1 0.2-0.1 2.2-0.1 7.3l0 6.9 0.1 0.4c0.3 0.8 1.1 1.6 1.9 1.9l0.4 0.1 8.6 0 8.6 0 0.4-0.1c0.8-0.3 1.6-1.1 1.9-1.9l0.1-0.4 0-7c0-7.7 0-7.3-0.3-7.9-0.4-0.8-1.1-1.4-1.9-1.6-0.4-0.1-0.7-0.1-8.8-0.1-8.2 0-8.4 0-8.8 0.1m0.3 3c-0.2 0.2-0.2 0.2-0.4 0.4l-0.1 0.3 0 6.2 0 6.3 0.1 0.2c0.1 0.1 0.3 0.3 0.4 0.3l0.2 0.2 8.3 0 8.3 0 0.2-0.2c0.1 0 0.3-0.2 0.4-0.3l0.1-0.2 0-6.3 0-6.3-0.2-0.2c-0.1-0.2-0.2-0.3-0.4-0.4l-0.2-0.1-8.2 0-8.2 0-0.3 0.1m2.1 2c-0.8 0.4-0.8 1.5 0 1.8 0.2 0.1 0.5 0.1 2.4 0.1 2.1 0 2.2 0 2.4-0.1 0.8-0.3 0.8-1.5 0-1.8-0.2-0.1-0.3-0.1-2.4-0.1-2.1 0-2.2 0-2.4 0.1m8 0c-0.3 0.1-0.4 0.3-0.5 0.5-0.1 0.2-0.1 0.7-0.1 4.4 0 4 0 4.2 0.1 4.4 0.1 0.3 0.3 0.4 0.5 0.5 0.3 0.1 4.5 0.1 4.8 0 0.2-0.1 0.4-0.2 0.5-0.5 0.1-0.2 0.1-0.4 0.1-4.4 0-3.7 0-4.2-0.1-4.4-0.1-0.2-0.2-0.4-0.5-0.5-0.2-0.1-0.3-0.1-2.4-0.1-2.1 0-2.2 0-2.4 0.1m1.4 4.9l0 3 1 0 1 0 0-3 0-3-1 0-1 0 0 3m-9.4-0.9c-0.8 0.4-0.8 1.5 0 1.8 0.2 0.1 0.5 0.1 2.4 0.1 2.1 0 2.2 0 2.4-0.1 0.8-0.3 0.8-1.5 0-1.8-0.2-0.1-0.3-0.1-2.4-0.1-2.1 0-2.2 0-2.4 0.1m0 4c-0.8 0.4-0.8 1.5 0 1.8 0.2 0.1 0.5 0.1 2.4 0.1 2.1 0 2.2 0 2.4-0.1 0.8-0.3 0.8-1.5 0-1.8-0.2-0.1-0.3-0.1-2.4-0.1-2.1 0-2.2 0-2.4 0.1" stroke="none" fill="black" fill-rule="evenodd"></path><path fill-opacity="0.141" d="M3.4 2.1c-0.6 0.1-1.1 0.4-1.5 0.8-0.4 0.4-0.7 0.8-0.8 1.4-0.1 0.4-0.1 0.6-0.1 7.2 0 7.5 0 7.2 0.3 7.8 0.2 0.5 0.9 1.2 1.4 1.4 0.6 0.3 0.2 0.3 9.3 0.3 9.1 0 8.7 0 9.3-0.3 0.5-0.2 1.1-0.8 1.4-1.3 0.3-0.7 0.3-0.4 0.3-7.9 0-5.8 0-6.8-0.1-7.1-0.2-1.2-1.1-2.1-2.3-2.3-0.5-0.1-16.8-0.1-17.2 0m0.1 3c-0.1 0.1-0.2 0.2-0.3 0.3l-0.2 0.3 0 6.3 0 6.3 0.2 0.3c0.1 0.1 0.2 0.2 0.3 0.3l0.3 0.1 8.2 0 8.2 0 0.3-0.1c0.1-0.1 0.2-0.2 0.3-0.3l0.2-0.3 0-6.3 0-6.3-0.2-0.3c-0.1-0.1-0.2-0.2-0.3-0.3l-0.3-0.1-8.2 0-8.2 0-0.3 0.1m2.1 2c-0.1 0-0.2 0.1-0.3 0.2-0.5 0.5-0.3 1.3 0.2 1.6l0.3 0.1 2.2 0 2.2 0 0.3-0.1c0.1-0.1 0.2-0.2 0.3-0.3 0.2-0.2 0.2-0.3 0.2-0.6 0-0.3 0-0.4-0.2-0.6-0.3-0.4-0.2-0.4-2.7-0.4-1.9 0-2.3 0-2.5 0.1m8.1 0c-0.3 0-0.6 0.4-0.6 0.6-0.1 0.1-0.1 1.5-0.1 4.4l0 4.2 0.2 0.3c0.1 0.1 0.2 0.2 0.3 0.3l0.3 0.1 2.2 0 2.2 0 0.3-0.1c0.1-0.1 0.2-0.2 0.3-0.3l0.2-0.3 0-4.3 0-4.3-0.2-0.2c0-0.1-0.2-0.3-0.3-0.4l-0.2-0.1-2.2 0c-1.4 0-2.3 0-2.4 0.1m1.3 4.9l0 3 1 0 1 0 0-3 0-3-1 0-1 0 0 3m-9.4-0.9c-0.1 0-0.2 0.1-0.3 0.2-0.5 0.5-0.3 1.3 0.2 1.6l0.3 0.1 2.2 0 2.2 0 0.3-0.1c0.1-0.1 0.2-0.2 0.3-0.3 0.2-0.2 0.2-0.3 0.2-0.6 0-0.3 0-0.4-0.2-0.6-0.3-0.4-0.2-0.4-2.7-0.4-1.9 0-2.3 0-2.5 0.1m0 4c-0.1 0-0.2 0.1-0.3 0.2-0.5 0.5-0.3 1.3 0.2 1.6l0.3 0.1 2.2 0 2.2 0 0.3-0.1c0.1-0.1 0.2-0.2 0.3-0.3 0.2-0.2 0.2-0.3 0.2-0.6 0-0.3 0-0.4-0.2-0.6-0.3-0.4-0.2-0.4-2.7-0.4-1.9 0-2.3 0-2.5 0.1" stroke="none" fill="black" fill-rule="evenodd"></path><path fill-opacity="0.678" d="M3.4 2.1c-1 0.2-1.9 1-2.2 2l-0.2 0.4 0 7c0 6.7 0 7 0.1 7.3 0.3 0.8 0.9 1.5 1.6 1.9 0.7 0.3 0.1 0.3 9.3 0.3 7.1 0 8.3 0 8.6-0.1 1.1-0.2 2-1 2.3-2.1 0.1-0.3 0.1-0.6 0.1-7.3l0-7-0.2-0.4c-0.3-1.1-1.2-1.8-2.2-2-0.4-0.1-1.3-0.1-8.6-0.1-7.1 0-8.3 0-8.6 0.1m0.2 3c-0.3 0.1-0.4 0.3-0.5 0.5-0.1 0.2-0.1 0.9-0.1 6.4 0 5.5 0 6.2 0.1 6.4 0.1 0.2 0.2 0.4 0.5 0.5 0.1 0.1 0.4 0.1 8.4 0.1 8 0 8.3 0 8.4-0.1 0.3-0.1 0.4-0.3 0.5-0.5 0.1-0.2 0.1-0.9 0.1-6.4 0-5.9 0-6.2-0.1-6.4-0.1-0.3-0.3-0.4-0.5-0.5-0.2-0.1-1.1-0.1-8.4-0.1-7.9 0-8.2 0-8.4 0.1m2.2 1.9c-0.9 0.3-1.1 1.5-0.2 1.9l0.2 0.1 2.2 0 2.2 0 0.2-0.1c0.7-0.4 0.8-1.4 0.1-1.7l-0.2-0.2-2.2 0c-1.2 0-2.2 0-2.3 0m8 0c-0.3 0.1-0.5 0.3-0.7 0.5l-0.1 0.2 0 4.3 0 4.3 0.2 0.2c0.1 0.2 0.2 0.3 0.4 0.4l0.2 0.1 2.2 0 2.2 0 0.2-0.1c0.2-0.1 0.3-0.2 0.4-0.4l0.2-0.2 0-4.3 0-4.3-0.1-0.2c-0.1-0.1-0.3-0.3-0.4-0.3l-0.2-0.2-2.2 0c-1.2 0-2.2 0-2.3 0m1.2 5l0 3 1 0 1 0 0-3 0-3-1 0-1 0 0 3m-9.2-1c-0.9 0.3-1.1 1.5-0.2 1.9l0.2 0.1 2.2 0 2.2 0 0.2-0.1c0.7-0.4 0.8-1.4 0.1-1.7l-0.2-0.2-2.2 0c-1.2 0-2.2 0-2.3 0m0 4c-0.9 0.3-1.1 1.5-0.2 1.9l0.2 0.1 2.2 0 2.2 0 0.2-0.1c0.7-0.4 0.8-1.4 0.1-1.7l-0.2-0.2-2.2 0c-1.2 0-2.2 0-2.3 0" stroke="none" fill="black" fill-rule="evenodd"></path><path fill-opacity="0.946" d="M3.6 2.1c-1.2 0.1-2.1 1-2.5 2.1-0.1 0.3-0.1 0.8-0.1 7 0 4.3 0 6.9 0 7.1 0.1 0.6 0.3 1 0.5 1.4 0.4 0.6 1 1 1.7 1.2 0.3 0.1 0.7 0.1 8.8 0.1 8.1 0 8.5 0 8.8-0.1 0.9-0.3 1.7-1 2-2l0.2-0.4 0-6.9c0-6.6 0-7-0.1-7.3-0.3-1.1-1.1-1.9-2.1-2.2-0.3-0.1-0.8-0.1-8.6-0.1-4.6 0-8.5 0-8.6 0.1m0 0.9c0.1 0 0.1 0 0.2 0 0 0 0 0-0.1 0-0.1 0-0.1 0-0.1 0m16.7 0c0 0 0.1 0 0.1 0 0 0 0 0-0.1 0-0.1 0-0.1 0 0 0m-17.3 0.2c-0.1 0 0 0 0.1 0 0.1-0.1 0.1-0.1 0.1-0.1-0.1 0-0.2 0-0.2 0.1m17.9 0c0.1 0 0.2 0 0.1 0 0-0.1-0.1-0.1-0.1-0.1-0.1 0-0.1 0 0 0.1m-18.1 0.1c-0.1 0-0.1 0-0.1 0 0.1 0 0.1 0 0.2 0 0-0.1 0-0.1 0-0.1-0.1 0-0.1 0-0.1 0.1m18.4 0c0 0 0 0 0.1 0 0 0 0 0 0 0-0.1-0.1-0.1-0.1-0.2-0.1 0 0 0 0 0.1 0.1m-19.2 0.5l-0.3 0.2 0.2-0.2c0.4-0.2 0.4-0.2 0.3-0.2 0 0-0.1 0.1-0.2 0.2m19.8-0.2c0 0 0.1 0.1 0.3 0.3 0.2 0.1 0.2 0.1 0.1 0-0.1-0.1-0.2-0.2-0.3-0.3-0.1 0-0.2 0-0.1 0m-20.3 0.6c0 0.1 0 0.1 0.1 0.1 0-0.1 0.1-0.1 0.1-0.1 0-0.1-0.1 0-0.2 0m2 0.9c-0.2 0.1-0.4 0.4-0.5 0.6 0 0.1 0 3 0 6.4l0 6.3 0.2 0.2c0.1 0.1 0.2 0.2 0.3 0.3l0.1 0.1 8.4 0 8.4 0 0.1-0.1c0.1-0.1 0.2-0.2 0.3-0.3l0.2-0.2 0-6.4 0-6.4-0.2-0.2c-0.1-0.1-0.2-0.2-0.3-0.3l-0.2-0.1-8.3 0c-8 0-8.3 0-8.5 0.1m-2.4 0.2c0 0.1 0 0.1 0 0.1 0-0.1 0-0.1 0-0.1 0-0.1 0 0 0 0m21.8 0c0 0.1 0 0.1 0 0.1 0-0.1 0-0.1 0-0.1 0-0.1 0 0 0 0m-17.2 1.8c-0.8 0.2-0.9 1.3-0.2 1.8l0.2 0.1 2.3 0 2.3 0 0.2-0.1c0.7-0.5 0.6-1.7-0.3-1.8-0.4-0.1-4.1-0.1-4.5 0m8 0c-0.3 0.1-0.6 0.3-0.6 0.7-0.1 0.4-0.1 8 0 8.4 0 0.3 0.2 0.6 0.5 0.7 0.1 0.1 0.4 0.1 2.4 0.1 2 0 2.3 0 2.4-0.1 0.3-0.1 0.5-0.4 0.5-0.7 0.1-0.4 0.1-8 0-8.4 0-0.4-0.3-0.7-0.7-0.7-0.4-0.1-4.1-0.1-4.5 0m1.3 4.9l0 3 1 0 1 0 0-3 0-3-1 0-1 0 0 3m-9.3-0.9c-0.8 0.2-0.9 1.3-0.2 1.8l0.2 0.1 2.3 0 2.3 0 0.2-0.1c0.7-0.5 0.6-1.7-0.3-1.8-0.4-0.1-4.1-0.1-4.5 0m0 4c-0.8 0.2-0.9 1.3-0.2 1.8l0.2 0.1 2.3 0 2.3 0 0.2-0.1c0.7-0.5 0.6-1.7-0.3-1.8-0.4-0.1-4.1-0.1-4.5 0" stroke="none" fill="black" fill-rule="evenodd"></path></svg>