<?xml version="1.0"?><svg xmlns="http://www.w3.org/2000/svg" width="24" height="24" viewBox="0 0 24 24" version="1.1"><rect x="0" y="0" width="24" height="24" fill="#00000000"></rect><path fill-opacity="0.486" d="M15.4 4c-2 0.1-3.7 0.2-3.9 0.2l-0.2 0.1 0 3.2 0 3.3 0.1 0c0.1 0 2 0.1 4.1 0.2 2.1 0.1 3.8 0.3 3.8 0.3 0 0 0.1-1.7 0.1-3.8l0-3.7-0.2 0c-0.1 0-1.8 0.1-3.8 0.2m-8.6 0.5l-2.6 0.2 0 2.8-0.1 2.8 0.2 0.1c0.1 0 5.5 0.3 5.8 0.3l0.2 0 0-3.2 0-3.1-0.5 0c-0.2 0-1.6 0-3 0.1m-2.6 9.7c0 1.6 0 2.8 0 2.8 0 0 1.4 0.3 3 0.6 1.7 0.3 3 0.6 3 0.6 0 0 0.1-1.5 0.1-3.2 0-3.1-0.1-3.2-0.1-3.3-0.1 0-1.4-0.1-3-0.2-1.6-0.1-3-0.2-3-0.2 0 0 0 1.2 0 2.9m7.1 0.9l0 3.2 0.1 0.1c0.1 0 7.9 1.5 7.9 1.5 0 0 0.1-1.7 0.1-3.7 0-3.5-0.1-3.7-0.1-3.8-0.1 0-1.9-0.1-4-0.2-2.1-0.2-3.9-0.3-4-0.3 0 0 0 0.1 0 3.2" stroke="none" fill="black" fill-rule="evenodd"></path><path fill-opacity="0.191" d="M15.2 4l-3.9 0.3 0 3.2-0.1 3.2 0.2 0.1c0 0 1 0 2 0.1 3 0.2 5.3 0.3 5.6 0.3l0.4 0 0-3.7 0-3.7-0.2 0c0 0-1.8 0.1-4 0.2m-8.3 0.5c-1.5 0.1-2.7 0.2-2.7 0.2 0 0 0 1.3 0 2.8l0 2.8 0.2 0.1c0.2 0 1.3 0.1 2.6 0.1 1.2 0.1 2.5 0.2 2.8 0.2l0.5 0 0-3.2 0-3.1-0.4 0c-0.2 0-1.5 0-3 0.1m-2.7 9.6c0 2.2 0 2.9 0 2.9 0 0 1.4 0.2 3 0.6 1.5 0.3 2.9 0.5 2.9 0.5l0.2 0.1 0-3.2 0-3.2-2.9-0.2c-1.5-0.2-2.9-0.3-3-0.3l-0.2 0 0 2.8m7.1 1c0 1.8 0 3.3 0 3.3 0 0 7.8 1.5 7.9 1.5l0.2 0 0-3.7 0-3.7-3.9-0.3c-2.1-0.2-3.9-0.3-4-0.3l-0.2-0.1 0 3.3" stroke="none" fill="black" fill-rule="evenodd"></path><path fill-opacity="0.462" d="M15.3 4.1c-2.2 0.1-4 0.2-4 0.2 0 0 0 1.4 0 3.2l0 3.2 0.2 0.1c0.4 0 7.8 0.4 7.8 0.4 0 0 0-1.7 0-3.7l0-3.7-4 0.3m-8.2 0.4c-1.5 0.1-2.8 0.2-2.9 0.2 0 0 0 0.2 0 2.8 0 1.6 0 2.9 0 2.9 0 0 1.3 0 3 0.1 1.7 0.1 3 0.2 3 0.2 0 0 0.1-1.4 0.1-3.2l0-3.1-0.3 0c-0.1 0-1.5 0-2.9 0.1m-2.9 9.6l0 2.9 3 0.6 3 0.5 0-3.1c0-1.7 0-3.2 0-3.2 0 0-1.2-0.1-2.7-0.2-1.5-0.1-2.9-0.3-3.1-0.3l-0.3 0 0.1 2.8m7.1 1c0 2.1 0 3.3 0 3.3 0.1 0 7.8 1.4 8 1.5 0 0 0.1-0.2 0.1-3.7l0-3.7-0.2 0c0 0-1.8-0.2-3.8-0.3-2-0.2-3.8-0.3-3.9-0.3l-0.2-0.1 0 3.3" stroke="none" fill="black" fill-rule="evenodd"></path><path fill-opacity="0.965" d="M15 4.1c-2 0.1-3.7 0.2-3.7 0.2 0 0 0 0.7 0 3.2l0 3.2 0.4 0.1c0.5 0 7.3 0.4 7.5 0.4l0.2 0 0-3.7 0-3.6-0.4 0c-0.3 0-2 0.1-4 0.2m-7.8 0.4c-1.5 0.1-2.8 0.2-2.9 0.2l-0.1 0 0 2.8c0 1.9 0 2.9 0.1 2.9 0.1 0 5.3 0.3 5.6 0.3l0.4 0 0-3.2 0-3.1-0.2 0c-0.1 0-1.4 0-2.9 0.1m-3 9.7l0 2.8 2.9 0.5c1.6 0.3 3 0.6 3 0.6l0.2 0 0-3.1 0-3.2-0.3 0c-0.4-0.1-5.4-0.4-5.6-0.4l-0.2 0 0 2.8m7.1 0.9l0 3.2 4 0.8 4 0.8 0-3.7c0-2 0-3.7 0-3.7 0 0-1.7-0.1-3.8-0.3-2.1-0.2-3.9-0.3-4-0.3l-0.2 0 0 3.2" stroke="none" fill="black" fill-rule="evenodd"></path></svg>