<?xml version="1.0"?><svg xmlns="http://www.w3.org/2000/svg" width="24" height="24" viewBox="0 0 24 24" version="1.1"><rect x="0" y="0" width="24" height="24" fill="#00000000"></rect><path fill-opacity="0.369" d="M4.7 5c-1.3 0.5-2.2 2.3-2.6 5-0.1 0.9-0.1 3.1 0 4 0.4 2.5 1.2 4.3 2.3 4.9l0.2 0.1 7.4 0 7.4 0 0.2-0.1c1.1-0.6 1.9-2.4 2.3-4.9 0.1-0.9 0.1-3.1 0-4-0.4-2.5-1.2-4.3-2.3-4.9l-0.2-0.1-7.3 0c-4.1 0-7.4 0-7.4 0m0.2 2.1c-0.6 0.4-1 3.3-0.9 6 0.1 1.7 0.3 2.9 0.6 3.5 0.2 0.4-0.5 0.4 7.4 0.4l7.1 0 0.1-0.1c0.8-0.8 1.1-6.1 0.4-8.7 0-0.3-0.2-0.7-0.2-0.8-0.2-0.4 0.5-0.4-7.4-0.4-6.3 0-7 0-7.1 0.1m6.1 4.9l0 3 0.2-0.1c1.3-1 3.8-2.9 3.8-2.9 0 0-2.5-1.9-3.8-2.9l-0.2-0.1 0 3" stroke="none" fill="black" fill-rule="evenodd"></path><path fill-opacity="0.428" d="M4.6 5.1c-0.7 0.2-1.5 1.2-1.9 2.6-1.2 3.4-0.8 8.3 0.8 10.4 0.3 0.3 0.8 0.7 1 0.8 0.3 0.1 14.7 0.1 15 0 0.2-0.1 0.7-0.5 1-0.8 0.6-0.9 1.1-2.4 1.4-4.2 0.1-0.9 0.1-2.9 0-3.8-0.4-2.8-1.3-4.7-2.5-5-0.4-0.1-14.4-0.1-14.8 0m0.2 2.1c-0.3 0.3-0.6 1.3-0.7 2.7-0.1 0.8-0.1 3.4 0 4.3 0.1 1.3 0.4 2.3 0.7 2.6l0.1 0.2 7.1 0 7.1 0 0.1-0.1c0.3-0.3 0.5-1.2 0.7-2.5 0.1-1 0.1-3.7 0-4.5-0.1-1.4-0.4-2.4-0.7-2.7l-0.1-0.2-7.1 0-7.1 0-0.1 0.2m6.2 4.8l0 3 2-1.5c1.1-0.8 2-1.5 2-1.5 0 0-0.9-0.7-2-1.5l-2-1.5 0 3" stroke="none" fill="black" fill-rule="evenodd"></path><path fill-opacity="0.500" d="M4.7 5.1c-0.4 0.1-0.6 0.2-1 0.6-0.7 0.8-1.3 2.3-1.6 4.5-0.1 0.8-0.1 2.8 0 3.7 0.4 2.6 1.2 4.4 2.3 4.9l0.3 0.2 7.1 0c7.8 0 7.5 0 8-0.3 1.6-1 2.6-5.2 2-9-0.3-1.8-0.8-3.2-1.5-4-0.4-0.4-0.6-0.5-1-0.6-0.4-0.1-14.2-0.1-14.6 0m0.1 2c-0.5 0.5-0.8 2.5-0.8 4.9 0 2.4 0.3 4.5 0.8 4.9l0.1 0.1 7.1 0 7.1 0 0.1-0.1c0.5-0.5 0.8-2.7 0.8-5.4-0.1-2.3-0.3-3.8-0.8-4.3l-0.1-0.2-7.1 0-7.1 0-0.1 0.1m6.2 4.9c0 1.6 0 3 0 3 0.1 0 3.9-3 3.9-3 0 0-3.8-2.9-3.9-2.9 0 0 0 1.3 0 2.9" stroke="none" fill="black" fill-rule="evenodd"></path><path fill-opacity="0.957" d="M4.8 5.1c-0.7 0.1-1.3 0.6-1.7 1.6-1.4 2.8-1.4 7.8 0 10.6 0.4 0.8 0.8 1.3 1.3 1.5l0.3 0.2 7.3 0 7.3 0 0.3-0.2c0.5-0.2 0.9-0.7 1.3-1.5 0.7-1.4 1.1-3.2 1.1-5.3 0-1.7-0.2-3-0.7-4.3-0.4-1.3-1-2.2-1.7-2.5l-0.3-0.2-7.2 0c-3.9 0-7.2 0-7.3 0.1m0 2c-0.5 0.5-0.8 2.4-0.8 4.9 0 2.5 0.3 4.4 0.8 4.9 0.1 0.1 0.5 0.1 7.2 0.1 6.7 0 7.1 0 7.2-0.1 0.5-0.5 0.8-2.4 0.8-4.9 0-2.5-0.3-4.4-0.8-4.9-0.1-0.1-0.5-0.1-7.2-0.1-6.7 0-7.1 0-7.2 0.1m6.2 4.9c0 2.5 0 2.9 0.1 2.9 0.1-0.1 3.8-2.9 3.8-2.9 0 0-3.7-2.8-3.8-2.9-0.1 0-0.1 0.4-0.1 2.9" stroke="none" fill="black" fill-rule="evenodd"></path></svg>