<?xml version="1.0"?><svg xmlns="http://www.w3.org/2000/svg" width="24" height="24" viewBox="0 0 24 24" version="1.1"><rect x="0" y="0" width="24" height="24" fill="#00000000"></rect><path fill-opacity="0.753" d="M7.5 12l-4.5 9 9 0 9 0-4.5-9c-2.5-4.9-4.5-8.9-4.5-8.9 0 0-2 4-4.5 8.9" stroke="none" fill="black" fill-rule="evenodd"></path><path fill-opacity="1.000" d="M7.5 12c-2.4 4.9-4.4 9-4.4 9 0 0 4 0 8.9 0 4.9 0 9 0 9 0 0-0.1-9-17.9-9-17.9 0 0-2 4-4.5 8.9" stroke="none" fill="black" fill-rule="evenodd"></path></svg>