<?xml version="1.0"?><svg xmlns="http://www.w3.org/2000/svg" width="24" height="24" viewBox="0 0 24 24" version="1.1"><rect x="0" y="0" width="24" height="24" fill="#00000000"></rect><path fill-opacity="0.380" d="M11.2 4c-1.2 0.2-1.9 0.4-2.8 0.9-2.7 1.3-4.4 4.1-4.4 7.1 0 2.5 1.2 4.9 3.2 6.4 1.9 1.4 4.3 1.9 6.6 1.4 0.7-0.2 1.7-0.6 2.3-0.9l0.2-0.2 2.1 2.2c1.9 1.8 2.2 2.1 2.4 2.2 0.8 0.3 1.6-0.6 1.2-1.4 0-0.1-1-1.1-2.1-2.2l-2-2 0.1-0.2c0.5-0.6 0.7-0.9 0.9-1.3 2.1-3.7 1-8.3-2.5-10.7-0.8-0.5-2-1-3-1.2-0.4-0.1-1.9-0.1-2.2-0.1m0.1 2.1c-2.3 0.2-4.3 1.9-5 4-0.2 0.7-0.3 1.1-0.3 1.9 0 1 0.2 1.8 0.7 2.7 0.6 1.2 1.5 2.1 2.7 2.7 1.7 0.8 3.5 0.8 5.2 0 1.8-0.9 2.9-2.4 3.3-4.3 0.1-0.5 0.1-1.6 0-2.1-0.4-2.3-2-4-4.1-4.7-0.8-0.2-1.7-0.3-2.5-0.2m-3.3 5.9l0 1 4 0 4 0 0-1 0-1-4 0-4 0 0 1" stroke="none" fill="black" fill-rule="evenodd"></path><path fill-opacity="0.424" d="M11.4 4c-1.1 0.1-1.8 0.3-2.7 0.7-2 0.9-3.5 2.6-4.2 4.6-0.8 2.1-0.6 4.3 0.3 6.2 1.9 3.8 6.4 5.5 10.4 3.8 0.2-0.1 0.6-0.2 0.8-0.4l0.3-0.2 2.1 2.1c1.2 1.2 2.2 2.2 2.3 2.2 0.2 0.1 0.6 0.1 0.8 0 0.2-0.1 0.5-0.3 0.5-0.5 0.1-0.2 0.1-0.6 0-0.8-0.1-0.2-0.8-0.9-2.1-2.2l-2-2.1 0.2-0.2c0.3-0.4 0.8-1.1 1.1-1.7 0.9-1.9 1-4.1 0.3-6.2-1-2.9-3.6-4.9-6.7-5.2-0.5-0.1-1.1-0.1-1.4-0.1m-0.2 2.1c-1.7 0.2-3.2 1.2-4.2 2.6-1.2 1.8-1.3 4.1-0.4 6 0.8 1.5 2 2.5 3.6 3 1.2 0.4 2.4 0.4 3.6 0 3.2-1 5-4.5 3.9-7.6-0.7-2-2.3-3.4-4.3-3.9-0.6-0.2-1.7-0.2-2.2-0.1m-3.2 5.9l0 1 4 0 4 0 0-1 0-1-4 0-4 0 0 1" stroke="none" fill="black" fill-rule="evenodd"></path><path fill-opacity="0.275" d="M11.3 4.1c-0.7 0-1.1 0.1-1.7 0.3-4.8 1.6-7 6.9-4.6 11.3 0.5 1 1.3 2 2.2 2.7 2.5 1.9 6.1 2.1 8.9 0.5l0.2-0.2 2.1 2.2c2.4 2.3 2.3 2.2 2.8 2.2 0.7-0.1 1.1-0.8 0.8-1.4 0-0.1-0.9-1-2.1-2.2l-2-2.1 0.2-0.2c0.7-0.8 1.4-2.2 1.7-3.4 0.8-3.6-0.9-7.2-4.2-8.9-1.3-0.7-2.9-1-4.3-0.8m-0.3 2c-0.8 0.1-1.6 0.5-2.4 0.9-0.4 0.3-1.3 1.2-1.6 1.6-1.6 2.4-1.3 5.5 0.7 7.5 1.8 2 4.7 2.4 7 1.2 3.2-1.6 4.3-5.6 2.3-8.7-0.3-0.4-1.2-1.3-1.6-1.6-0.8-0.5-1.6-0.8-2.4-0.9-0.6-0.1-1.5-0.1-2 0m-3 5.9l0 1 4 0 4 0 0-1 0-1-4 0-4 0 0 1" stroke="none" fill="black" fill-rule="evenodd"></path><path fill-opacity="0.970" d="M11.6 4c-2 0.2-3.7 0.9-5.1 2.3-3 2.8-3.3 7.4-0.8 10.6 1 1.3 2.4 2.2 3.9 2.7 1.5 0.5 3.3 0.5 4.8 0 0.5-0.2 1.3-0.5 1.6-0.7 0.2-0.1 0.3-0.1 0.3-0.1 0 0 1 0.9 2.2 2 1.1 1.2 2.1 2.2 2.2 2.2 0.6 0.3 1.4-0.2 1.4-0.9 0-0.4-0.1-0.5-2.2-2.6l-2.1-2 0.4-0.5c0.6-0.8 1.1-1.6 1.4-2.6 0.5-1.5 0.5-3.3 0-4.8-0.8-2.7-3-4.7-5.7-5.3-0.6-0.2-1.7-0.3-2.3-0.3m-0.6 2.1c-0.9 0.1-1.9 0.5-2.6 1.1-0.4 0.3-1.1 1-1.4 1.5-0.4 0.5-0.7 1.2-0.8 1.8-0.2 0.5-0.2 0.6-0.2 1.5 0 0.8 0 1 0.1 1.4 0.3 1.1 0.8 2 1.6 2.8 0.8 0.8 1.7 1.3 3.1 1.7 0.4 0.1 2 0.1 2.5 0 1.3-0.4 2.2-0.9 3-1.7 1.1-1.1 1.6-2.4 1.7-3.9 0.1-1.8-0.6-3.4-1.8-4.6-1.2-1.2-2.6-1.7-4.2-1.7-0.4 0-0.8 0-1 0.1m-3 5.9l0 1 4 0 4 0 0-1 0-1-4 0-4 0 0 1" stroke="none" fill="black" fill-rule="evenodd"></path></svg>