<svg
  width="24"
  height="24"
  viewBox="0 0 24 24"
  fill="none"
  xmlns="http://www.w3.org/2000/svg"
>
  <path
    fill-rule="evenodd"
    clip-rule="evenodd"
    d="M2 19C2 20.6569 3.34315 22 5 22H19C20.6569 22 22 20.6569 22 19V5C22 3.34315 20.6569 2 19 2H5C3.34315 2 2 3.34315 2 5V19ZM20 19C20 19.5523 19.5523 20 19 20H5C4.44772 20 4 19.5523 4 19V5C4 4.44772 4.44772 4 5 4H10V12.0111L12.395 12.0112L14.0001 9.86419L15.6051 12.0112H18.0001L18 4H19C19.5523 4 20 4.44772 20 5V19ZM16 4H12V9.33585L14.0001 6.66046L16 9.33571V4Z"
    fill="currentColor"
  />
</svg>
