<svg
  width="24"
  height="24"
  viewBox="0 0 24 24"
  fill="none"
  xmlns="http://www.w3.org/2000/svg"
>
  <path
    fill-rule="evenodd"
    clip-rule="evenodd"
    d="M11 5C11 3.89543 10.1046 3 9 3H5C3.89543 3 3 3.89543 3 5V9C3 10.1046 3.89543 11 5 11H9C10.1046 11 11 10.1046 11 9V5ZM9 5H5V9H9V5Z"
    fill="currentColor"
  />
  <path
    d="M19 13H21V21H13V19H17.5858L12.2218 13.6361C11.8313 13.2456 11.8313 12.6124 12.2218 12.2219C12.6124 11.8314 13.2455 11.8314 13.6361 12.2219L19 17.5858V13Z"
    fill="currentColor"
  />
</svg>