<svg
  width="24"
  height="24"
  viewBox="0 0 24 24"
  fill="none"
  xmlns="http://www.w3.org/2000/svg"
>
  <path
    fill-rule="evenodd"
    clip-rule="evenodd"
    d="M18 6H5C3.34315 6 2 7.34315 2 9V15C2 16.6569 3.34315 18 5 18H18C19.6569 18 21 16.6569 21 15C21.5523 15 22 14.5523 22 14V10C22 9.44772 21.5523 9 21 9C21 7.34315 19.6569 6 18 6ZM18 8H5C4.44772 8 4 8.44772 4 9V15C4 15.5523 4.44772 16 5 16H18C18.5523 16 19 15.5523 19 15V9C19 8.44772 18.5523 8 18 8Z"
    fill="currentColor"
  />
</svg>