<svg
  width="24"
  height="24"
  viewBox="0 0 24 24"
  fill="none"
  xmlns="http://www.w3.org/2000/svg"
>
  <path
    fill-rule="evenodd"
    clip-rule="evenodd"
    d="M14.364 13.1214C15.2876 14.045 15.4831 15.4211 14.9504 16.5362L16.4853 18.0711C16.8758 18.4616 16.8758 19.0948 16.4853 19.4853C16.0948 19.8758 15.4616 19.8758 15.0711 19.4853L13.5361 17.9504C12.421 18.4831 11.045 18.2876 10.1213 17.364C8.94975 16.1924 8.94975 14.2929 10.1213 13.1214C11.2929 11.9498 13.1924 11.9498 14.364 13.1214ZM12.9497 15.9498C13.3403 15.5593 13.3403 14.9261 12.9497 14.5356C12.5592 14.145 11.9261 14.145 11.5355 14.5356C11.145 14.9261 11.145 15.5593 11.5355 15.9498C11.9261 16.3403 12.5592 16.3403 12.9497 15.9498Z"
    fill="currentColor"
  />
  <path d="M8 5H16V7H8V5Z" fill="currentColor" />
  <path d="M16 9H8V11H16V9Z" fill="currentColor" />
  <path
    fill-rule="evenodd"
    clip-rule="evenodd"
    d="M4 4C4 2.34315 5.34315 1 7 1H17C18.6569 1 20 2.34315 20 4V20C20 21.6569 18.6569 23 17 23H7C5.34315 23 4 21.6569 4 20V4ZM7 3H17C17.5523 3 18 3.44772 18 4V20C18 20.5523 17.5523 21 17 21H7C6.44772 21 6 20.5523 6 20V4C6 3.44772 6.44771 3 7 3Z"
    fill="currentColor"
  />
</svg>