<svg
  width="24"
  height="24"
  viewBox="0 0 24 24"
  fill="none"
  xmlns="http://www.w3.org/2000/svg"
>
  <path
    d="M11.7249 16.5461L16.2249 13.9481L11.7249 11.35V12.9481H7.7749V14.9481H11.7249V16.5461Z"
    fill="currentColor"
  />
  <path
    d="M8 7C7.44772 7 7 7.44772 7 8C7 8.55228 7.44772 9 8 9H16C16.5523 9 17 8.55228 17 8C17 7.44772 16.5523 7 16 7H8Z"
    fill="currentColor"
  />
  <path
    fill-rule="evenodd"
    clip-rule="evenodd"
    d="M6 3C4.34315 3 3 4.34315 3 6V18C3 19.6569 4.34315 21 6 21H18C19.6569 21 21 19.6569 21 18V6C21 4.34315 19.6569 3 18 3H6ZM18 5H6C5.44772 5 5 5.44772 5 6V18C5 18.5523 5.44772 19 6 19H18C18.5523 19 19 18.5523 19 18V6C19 5.44772 18.5523 5 18 5Z"
    fill="currentColor"
  />
</svg>