<svg
  width="24"
  height="24"
  viewBox="0 0 24 24"
  fill="none"
  xmlns="http://www.w3.org/2000/svg"
>
  <path
    fill-rule="evenodd"
    clip-rule="evenodd"
    d="M4 4.5V6.5H12V7.5H3C1.34315 7.5 0 8.84315 0 10.5V16.5C0 18.1569 1.34315 19.5 3 19.5H15C16.5731 19.5 17.8634 18.2892 17.9898 16.7487L24 17.5V9.5L17.9898 10.2513C17.8634 8.71078 16.5731 7.5 15 7.5H14V5.5C14 4.94772 13.5523 4.5 13 4.5H4ZM18 12.2656V14.7344L22 15.2344V11.7656L18 12.2656ZM16 10.5C16 9.94772 15.5523 9.5 15 9.5H3C2.44772 9.5 2 9.94772 2 10.5V16.5C2 17.0523 2.44772 17.5 3 17.5H15C15.5523 17.5 16 17.0523 16 16.5V10.5Z"
    fill="currentColor"
  />
</svg>