<svg
  width="24"
  height="24"
  viewBox="0 0 24 24"
  fill="none"
  xmlns="http://www.w3.org/2000/svg"
>
  <path
    d="M13 7.75739L14.4142 9.1716L11.5858 12L14.4142 14.8284L13 16.2426L8.75736 12L13 7.75739Z"
    fill="currentColor"
  />
  <path
    fill-rule="evenodd"
    clip-rule="evenodd"
    d="M19 1C21.2091 1 23 2.79086 23 5V19C23 21.2091 21.2091 23 19 23H5C2.79086 23 1 21.2091 1 19V5C1 2.79086 2.79086 1 5 1H19ZM21 5V19C21 20.1046 20.1046 21 19 21H5C3.89543 21 3 20.1046 3 19L3 5C3 3.89543 3.89543 3 5 3L19 3C20.1046 3 21 3.89543 21 5Z"
    fill="currentColor"
  />
</svg>