<svg
  width="24"
  height="24"
  viewBox="0 0 24 24"
  fill="none"
  xmlns="http://www.w3.org/2000/svg"
>
  <path
    d="M7.75732 8.46448L9.17154 7.05026L12 9.87869L14.8284 7.05029L16.2426 8.46451L12 12.7071L7.75732 8.46448Z"
    fill="currentColor"
  />
  <path
    d="M9.17154 11.2929L7.75732 12.7071L11.9999 16.9498L16.2426 12.7071L14.8284 11.2929L12 14.1213L9.17154 11.2929Z"
    fill="currentColor"
  />
  <path
    fill-rule="evenodd"
    clip-rule="evenodd"
    d="M23 12C23 18.0751 18.0751 23 12 23C5.92487 23 1 18.0751 1 12C1 5.92487 5.92487 1 12 1C18.0751 1 23 5.92487 23 12ZM21 12C21 16.9706 16.9706 21 12 21C7.02944 21 3 16.9706 3 12C3 7.02944 7.02944 3 12 3C16.9706 3 21 7.02944 21 12Z"
    fill="currentColor"
  />
</svg>