<svg
  width="24"
  height="24"
  viewBox="0 0 24 24"
  fill="none"
  xmlns="http://www.w3.org/2000/svg"
>
  <path
    fill-rule="evenodd"
    clip-rule="evenodd"
    d="M7 4.05444C4.23858 4.05444 2 6.29302 2 9.05444C2 11.8159 4.23858 14.0544 7 14.0544C9.76142 14.0544 12 11.8159 12 9.05444C12 6.29302 9.76142 4.05444 7 4.05444ZM5 9.05444C5 10.159 5.89543 11.0544 7 11.0544C8.10457 11.0544 9 10.159 9 9.05444C9 7.94987 8.10457 7.05444 7 7.05444C5.89543 7.05444 5 7.94987 5 9.05444Z"
    fill="currentColor"
  />
  <path d="M22 10.5544H17V7.55444H22V10.5544Z" fill="currentColor" />
  <path
    d="M11.5503 16.9457C12.6786 16.9457 13.6977 16.4786 14.4249 15.7272C14.4097 15.7429 14.3943 15.7585 14.3788 15.774L16.5001 17.8954C15.2334 19.1621 13.4834 19.9457 11.5503 19.9457C9.61734 19.9457 7.86734 19.1622 6.60059 17.8954L8.72191 15.7741C9.44576 16.498 10.4458 16.9457 11.5503 16.9457Z"
    fill="currentColor"
  />
</svg>