<svg
  width="24"
  height="24"
  viewBox="0 0 24 24"
  fill="none"
  xmlns="http://www.w3.org/2000/svg"
>
  <path
    d="M16.9451 5.05518C15.8405 5.05518 14.9451 5.95061 14.9451 7.05518C14.9451 8.15975 15.8405 9.05518 16.9451 9.05518C18.0496 9.05518 18.9451 8.15975 18.9451 7.05518C18.9451 5.95061 18.0496 5.05518 16.9451 5.05518Z"
    fill="currentColor"
  />
  <path
    d="M14.9451 16.8921C14.9451 15.7875 15.8405 14.8921 16.9451 14.8921C18.0496 14.8921 18.9451 15.7875 18.9451 16.8921C18.9451 17.9967 18.0496 18.8921 16.9451 18.8921C15.8405 18.8921 14.9451 17.9967 14.9451 16.8921Z"
    fill="currentColor"
  />
  <path
    d="M7.05518 14.8921C5.95061 14.8921 5.05518 15.7875 5.05518 16.8921C5.05518 17.9967 5.95061 18.8921 7.05518 18.8921C8.15975 18.8921 9.05518 17.9967 9.05518 16.8921C9.05518 15.7875 8.15975 14.8921 7.05518 14.8921Z"
    fill="currentColor"
  />
  <path
    d="M5.05518 7.05518C5.05518 5.95061 5.95061 5.05518 7.05518 5.05518C8.15975 5.05518 9.05518 5.95061 9.05518 7.05518C9.05518 8.15975 8.15975 9.05518 7.05518 9.05518C5.95061 9.05518 5.05518 8.15975 5.05518 7.05518Z"
    fill="currentColor"
  />
  <path
    fill-rule="evenodd"
    clip-rule="evenodd"
    d="M4 1C2.34315 1 1 2.34315 1 4V20C1 21.6569 2.34315 23 4 23H20C21.6569 23 23 21.6569 23 20V4C23 2.34315 21.6569 1 20 1H4ZM20 3H4C3.44772 3 3 3.44772 3 4V20C3 20.5523 3.44772 21 4 21H20C20.5523 21 21 20.5523 21 20V4C21 3.44772 20.5523 3 20 3Z"
    fill="currentColor"
  />
</svg>