<svg
  width="24"
  height="24"
  viewBox="0 0 24 24"
  fill="none"
  xmlns="http://www.w3.org/2000/svg"
>
  <path
    fill-rule="evenodd"
    clip-rule="evenodd"
    d="M11 19V22H13V19H14C16.2091 19 18 17.2091 18 15C18 12.7909 16.2091 11 14 11H13V7H15V9H17V5H13V2H11V5H10C7.79086 5 6 6.79086 6 9C6 11.2091 7.79086 13 10 13H11V17H9V15H7V19H11ZM13 17H14C15.1046 17 16 16.1046 16 15C16 13.8954 15.1046 13 14 13H13V17ZM11 11V7H10C8.89543 7 8 7.89543 8 9C8 10.1046 8.89543 11 10 11H11Z"
    fill="currentColor"
  />
</svg>