<svg
  width="24"
  height="24"
  viewBox="0 0 24 24"
  fill="none"
  xmlns="http://www.w3.org/2000/svg"
>
  <path
    d="M19 11C18.4477 11 18 11.4477 18 12C18 12.5523 18.4477 13 19 13C19.5523 13 20 12.5523 20 12C20 11.4477 19.5523 11 19 11Z"
    fill="currentColor"
  />
  <path
    d="M14 12C14 11.4477 14.4477 11 15 11C15.5523 11 16 11.4477 16 12C16 12.5523 15.5523 13 15 13C14.4477 13 14 12.5523 14 12Z"
    fill="currentColor"
  />
  <path
    fill-rule="evenodd"
    clip-rule="evenodd"
    d="M2 8C0.895431 8 0 8.89543 0 10V14C0 15.1046 0.89543 16 2 16H22C23.1046 16 24 15.1046 24 14V10C24 8.89543 23.1046 8 22 8H2ZM22 10H2L2 14H22V10Z"
    fill="currentColor"
  />
</svg>