<svg
  width="24"
  height="24"
  viewBox="0 0 24 24"
  fill="none"
  xmlns="http://www.w3.org/2000/svg"
>
  <path
    d="M12 6C10.7785 6 9.64223 6.36502 8.69435 6.99194H12V7.99194H7.53501C7.00911 8.57742 6.59669 9.26689 6.33237 10.0258H12V11.0258H6.07869C6.02692 11.3428 6 11.6683 6 12C6 12.3379 6.02793 12.6693 6.08161 12.9919H12V13.9919H6.33857C6.60189 14.7404 7.00941 15.4208 7.52779 16H12V17H8.68221C9.63251 17.6318 10.7733 18 12 18C15.3137 18 18 15.3137 18 12C18 8.68629 15.3137 6 12 6Z"
    fill="currentColor"
  />
  <path
    fill-rule="evenodd"
    clip-rule="evenodd"
    d="M2 12C2 6.47715 6.47715 2 12 2C17.5228 2 22 6.47715 22 12C22 17.5228 17.5228 22 12 22C6.47715 22 2 17.5228 2 12ZM12 20C7.58172 20 4 16.4183 4 12C4 7.58172 7.58172 4 12 4C16.4183 4 20 7.58172 20 12C20 16.4183 16.4183 20 12 20Z"
    fill="currentColor"
  />
</svg>