<svg
  width="24"
  height="24"
  viewBox="0 0 24 24"
  fill="none"
  xmlns="http://www.w3.org/2000/svg"
>
  <path
    d="M16 7C15.4477 7 15 7.44772 15 8C15 8.55228 15.4477 9 16 9H19C19.5523 9 20 8.55228 20 8C20 7.44772 19.5523 7 19 7H16Z"
    fill="currentColor"
  />
  <path
    d="M15 12C15 11.4477 15.4477 11 16 11H19C19.5523 11 20 11.4477 20 12C20 12.5523 19.5523 13 19 13H16C15.4477 13 15 12.5523 15 12Z"
    fill="currentColor"
  />
  <path
    d="M16 15C15.4477 15 15 15.4477 15 16C15 16.5523 15.4477 17 16 17H19C19.5523 17 20 16.5523 20 16C20 15.4477 19.5523 15 19 15H16Z"
    fill="currentColor"
  />
  <path
    fill-rule="evenodd"
    clip-rule="evenodd"
    d="M3 3C1.34315 3 0 4.34315 0 6V18C0 19.6569 1.34315 21 3 21H21C22.6569 21 24 19.6569 24 18V6C24 4.34315 22.6569 3 21 3H3ZM21 5H13V19H21C21.5523 19 22 18.5523 22 18V6C22 5.44772 21.5523 5 21 5ZM3 5H11V19H3C2.44772 19 2 18.5523 2 18V6C2 5.44772 2.44772 5 3 5Z"
    fill="currentColor"
  />
</svg>