<svg
  width="24"
  height="24"
  viewBox="0 0 24 24"
  fill="none"
  xmlns="http://www.w3.org/2000/svg"
>
  <path
    d="M12.552 8C11.9997 8 11.552 8.44772 11.552 9C11.552 9.55228 11.9997 10 12.552 10H16.552C17.1043 10 17.552 9.55228 17.552 9C17.552 8.44772 17.1043 8 16.552 8H12.552Z"
    fill="currentColor"
    fill-opacity="0.5"
  />
  <path
    d="M12.552 17C11.9997 17 11.552 17.4477 11.552 18C11.552 18.5523 11.9997 19 12.552 19H16.552C17.1043 19 17.552 18.5523 17.552 18C17.552 17.4477 17.1043 17 16.552 17H12.552Z"
    fill="currentColor"
    fill-opacity="0.5"
  />
  <path
    d="M12.552 5C11.9997 5 11.552 5.44772 11.552 6C11.552 6.55228 11.9997 7 12.552 7H20.552C21.1043 7 21.552 6.55228 21.552 6C21.552 5.44772 21.1043 5 20.552 5H12.552Z"
    fill="currentColor"
    fill-opacity="0.8"
  />
  <path
    d="M12.552 14C11.9997 14 11.552 14.4477 11.552 15C11.552 15.5523 11.9997 16 12.552 16H20.552C21.1043 16 21.552 15.5523 21.552 15C21.552 14.4477 21.1043 14 20.552 14H12.552Z"
    fill="currentColor"
    fill-opacity="0.8"
  />
  <path
    d="M3.448 4.00208C2.89571 4.00208 2.448 4.44979 2.448 5.00208V10.0021C2.448 10.5544 2.89571 11.0021 3.448 11.0021H8.448C9.00028 11.0021 9.448 10.5544 9.448 10.0021V5.00208C9.448 4.44979 9.00028 4.00208 8.448 4.00208H3.448Z"
    fill="currentColor"
  />
  <path
    d="M3.448 12.9979C2.89571 12.9979 2.448 13.4456 2.448 13.9979V18.9979C2.448 19.5502 2.89571 19.9979 3.448 19.9979H8.448C9.00028 19.9979 9.448 19.5502 9.448 18.9979V13.9979C9.448 13.4456 9.00028 12.9979 8.448 12.9979H3.448Z"
    fill="currentColor"
  />
</svg>