<svg
  width="24"
  height="24"
  viewBox="0 0 24 24"
  fill="none"
  xmlns="http://www.w3.org/2000/svg"
>
  <path
    fill-rule="evenodd"
    clip-rule="evenodd"
    d="M4.70834 15.4397C5.92663 16.2928 7.3222 16.7038 8.70461 16.7063C9.17977 18.0045 10.0433 19.1753 11.2616 20.0284C14.4284 22.2458 18.7932 21.4762 21.0107 18.3093C23.2281 15.1425 22.4585 10.7777 19.2916 8.56024C18.0734 7.70719 16.6778 7.29621 15.2954 7.29371C14.8202 5.99552 13.9567 4.82467 12.7384 3.97161C9.57158 1.75417 5.20676 2.52381 2.98931 5.69064C0.771871 8.85748 1.54151 13.2223 4.70834 15.4397ZM5.8555 13.8014C6.6016 14.3239 7.44081 14.6142 8.28736 14.6875C8.20112 13.1725 8.60464 11.6187 9.54254 10.2793C10.4804 8.9398 11.8025 8.0292 13.2556 7.59209C12.8972 6.82166 12.3374 6.13235 11.5913 5.60992C9.32924 4.02603 6.21151 4.57577 4.62762 6.8378C3.04373 9.09982 3.59347 12.2176 5.8555 13.8014ZM18.1445 10.1985C17.3984 9.67611 16.5592 9.38581 15.7126 9.31251C15.7989 10.8275 15.3953 12.3813 14.4574 13.7207C13.5195 15.0602 12.1975 15.9708 10.7444 16.4079C11.1028 17.1783 11.6626 17.8676 12.4087 18.3901C14.6707 19.9739 17.7885 19.4242 19.3724 17.1622C20.9562 14.9002 20.4065 11.7824 18.1445 10.1985Z"
    fill="currentColor"
  />
</svg>