<svg
  width="24"
  height="24"
  viewBox="0 0 24 24"
  fill="none"
  xmlns="http://www.w3.org/2000/svg"
>
  <path
    d="M20.2739 9.86883L16.8325 4.95392L18.4708 3.80676L21.9122 8.72167L20.2739 9.86883Z"
    fill="currentColor"
  />
  <path
    d="M18.3901 12.4086L16.6694 9.95121L8.47783 15.687L10.1985 18.1444L8.56023 19.2916L3.97162 12.7383L5.60992 11.5912L7.33068 14.0487L15.5222 8.31291L13.8015 5.8554L15.4398 4.70825L20.0284 11.2615L18.3901 12.4086Z"
    fill="currentColor"
  />
  <path
    d="M20.7651 7.08331L22.4034 5.93616L21.2562 4.29785L19.6179 5.445L20.7651 7.08331Z"
    fill="currentColor"
  />
  <path
    d="M7.16753 19.046L3.72607 14.131L2.08777 15.2782L5.52923 20.1931L7.16753 19.046Z"
    fill="currentColor"
  />
  <path
    d="M4.38208 18.5549L2.74377 19.702L1.59662 18.0637L3.23492 16.9166L4.38208 18.5549Z"
    fill="currentColor"
  />
</svg>