<svg
  width="24"
  height="24"
  viewBox="0 0 24 24"
  fill="none"
  xmlns="http://www.w3.org/2000/svg"
>
  <path
    d="M9 8C8.44772 8 8 8.44772 8 9C8 9.55229 8.44772 10 9 10H11V12C11 12.5523 11.4477 13 12 13C12.5523 13 13 12.5523 13 12V10H15C15.5523 10 16 9.55229 16 9C16 8.44772 15.5523 8 15 8H13V6C13 5.44772 12.5523 5 12 5C11.4477 5 11 5.44772 11 6V8H9Z"
    fill="currentColor"
  />
  <path
    fill-rule="evenodd"
    clip-rule="evenodd"
    d="M4 9C4 4.58172 7.58172 1 12 1C16.4183 1 20 4.58172 20 9C20 13.4183 16.4183 17 12 17C7.58172 17 4 13.4183 4 9ZM12 15C8.68629 15 6 12.3137 6 9C6 5.68629 8.68629 3 12 3C15.3137 3 18 5.68629 18 9C18 12.3137 15.3137 15 12 15Z"
    fill="currentColor"
  />
  <path
    d="M5 20C4.44772 20 4 20.4477 4 21C4 21.5523 4.44772 22 5 22H19C19.5523 22 20 21.5523 20 21C20 20.4477 19.5523 20 19 20H5Z"
    fill="currentColor"
  />
</svg>