<svg
  width="24"
  height="24"
  viewBox="0 0 24 24"
  fill="none"
  xmlns="http://www.w3.org/2000/svg"
>
  <path
    fill-rule="evenodd"
    clip-rule="evenodd"
    d="M19 7H17C17 4.79086 15.2091 3 13 3C10.7909 3 9 4.79086 9 7V10H18C19.6569 10 21 11.3431 21 13V19C21 20.6569 19.6569 22 18 22H6C4.34315 22 3 20.6569 3 19V13C3 11.3431 4.34315 10 6 10H7V7C7 3.68629 9.68629 1 13 1C16.3137 1 19 3.68629 19 7ZM18 12H6C5.44772 12 5 12.4477 5 13V19C5 19.5523 5.44772 20 6 20H18C18.5523 20 19 19.5523 19 19V13C19 12.4477 18.5523 12 18 12Z"
    fill="currentColor"
  />
</svg>