<svg
  width="24"
  height="24"
  viewBox="0 0 24 24"
  fill="none"
  xmlns="http://www.w3.org/2000/svg"
>
  <path
    d="M6.77857 6.13915C7.7289 4.78193 9.59953 4.45209 10.9568 5.40242C12.314 6.35275 12.6438 8.22339 11.6935 9.58061L5.95771 17.7721C5.00738 19.1293 3.13674 19.4592 1.77953 18.5089C0.422312 17.5585 0.0924684 15.6879 1.0428 14.3307L6.77857 6.13915Z"
    fill="currentColor"
  />
  <path
    d="M15.2678 6.22811C16.2182 4.8709 18.0888 4.54105 19.446 5.49138C20.8032 6.44172 21.1331 8.31235 20.1827 9.66957L14.447 17.8611C13.4966 19.2183 11.626 19.5481 10.2688 18.5978C8.91158 17.6475 8.58173 15.7768 9.53207 14.4196L15.2678 6.22811Z"
    fill="currentColor"
  />
  <path
    d="M20.5 18.8596C22.1569 18.8596 23.5 17.5165 23.5 15.8596C23.5 14.2028 22.1569 12.8596 20.5 12.8596C18.8431 12.8596 17.5 14.2028 17.5 15.8596C17.5 17.5165 18.8431 18.8596 20.5 18.8596Z"
    fill="currentColor"
  />
</svg>