<svg
  width="24"
  height="24"
  viewBox="0 0 24 24"
  fill="none"
  xmlns="http://www.w3.org/2000/svg"
>
  <path d="M4 6V12H6V8L10 8V6H4Z" fill="currentColor" />
  <path d="M20 18H14V16H18V12H20V18Z" fill="currentColor" />
  <path
    fill-rule="evenodd"
    clip-rule="evenodd"
    d="M4 2C1.79086 2 0 3.79086 0 6V18C0 20.2091 1.79086 22 4 22H20C22.2091 22 24 20.2091 24 18V6C24 3.79086 22.2091 2 20 2H4ZM20 4H4C2.89543 4 2 4.89543 2 6V18C2 19.1046 2.89543 20 4 20H20C21.1046 20 22 19.1046 22 18V6C22 4.89543 21.1046 4 20 4Z"
    fill="currentColor"
  />
</svg>