<svg
  width="24"
  height="24"
  viewBox="0 0 24 24"
  fill="none"
  xmlns="http://www.w3.org/2000/svg"
>
  <path
    fill-rule="evenodd"
    clip-rule="evenodd"
    d="M3 6C1.34315 6 0 7.34315 0 9V16C0 17.6569 1.34315 19 3 19H21C22.6569 19 24 17.6569 24 16V9C24 7.34315 22.6569 6 21 6H3ZM9 8H7V13C7 13.5523 6.55228 14 6 14C5.44772 14 5 13.5523 5 13V8H3C2.44772 8 2 8.44772 2 9V16C2 16.5523 2.44772 17 3 17H21C21.5523 17 22 16.5523 22 16V9C22 8.44772 21.5523 8 21 8H19V11C19 11.5523 18.5523 12 18 12C17.4477 12 17 11.5523 17 11V8H15V13C15 13.5523 14.5523 14 14 14C13.4477 14 13 13.5523 13 13V8H11V11C11 11.5523 10.5523 12 10 12C9.44771 12 9 11.5523 9 11V8Z"
    fill="currentColor"
  />
</svg>