<svg
  width="24"
  height="24"
  viewBox="0 0 24 24"
  fill="none"
  xmlns="http://www.w3.org/2000/svg"
>
  <path
    d="M10 10C10 10.5523 9.55228 11 9 11C8.44772 11 8 10.5523 8 10C8 9.44772 8.44772 9 9 9C9.55228 9 10 9.44772 10 10Z"
    fill="currentColor"
  />
  <path
    d="M15 11C15.5523 11 16 10.5523 16 10C16 9.44772 15.5523 9 15 9C14.4477 9 14 9.44772 14 10C14 10.5523 14.4477 11 15 11Z"
    fill="currentColor"
  />
  <path
    fill-rule="evenodd"
    clip-rule="evenodd"
    d="M12 22C17.5228 22 22 17.5228 22 12C22 6.47715 17.5228 2 12 2C6.47715 2 2 6.47715 2 12C2 17.5228 6.47715 22 12 22ZM12 20C16.4183 20 20 16.4183 20 12C20 7.58172 16.4183 4 12 4C7.58172 4 4 7.58172 4 12C4 16.4183 7.58172 20 12 20Z"
    fill="currentColor"
  />
</svg>