<svg
  width="24"
  height="24"
  viewBox="0 0 24 24"
  fill="none"
  xmlns="http://www.w3.org/2000/svg"
>
  <path d="M14 10H10V14H14V10Z" fill="currentColor" />
  <path
    fill-rule="evenodd"
    clip-rule="evenodd"
    d="M5 9C5 6.79086 6.79086 5 9 5H15C17.2091 5 19 6.79086 19 9V15C19 17.2091 17.2091 19 15 19H9C6.79086 19 5 17.2091 5 15V9ZM9 8H15C15.5523 8 16 8.44772 16 9V15C16 15.5523 15.5523 16 15 16H9C8.44772 16 8 15.5523 8 15V9C8 8.44772 8.44772 8 9 8Z"
    fill="currentColor"
  />
</svg>