<svg
  width="24"
  height="24"
  viewBox="0 0 24 24"
  fill="none"
  xmlns="http://www.w3.org/2000/svg"
>
  <path
    fill-rule="evenodd"
    clip-rule="evenodd"
    d="M12.2607 21.9966C12.174 21.9988 12.0871 22 12 22C11.9128 22 11.8259 21.9988 11.7393 21.9966C7.68318 21.8928 4.22762 19.3738 2.7573 15.8242C1.74192 13.3674 1.7476 10.588 2.77433 8.13481C3.27688 6.93672 4.00599 5.85718 4.90808 4.94979L4.94983 4.90804C5.85259 4.01056 6.92574 3.28429 8.1165 2.78202C10.5894 1.74123 13.3958 1.73933 15.87 2.77633C17.0688 3.27993 18.1488 4.01042 19.0562 4.91407L19.0859 4.94373C19.9989 5.86054 20.7351 6.95351 21.2392 8.16721C21.7279 9.34662 21.9812 10.6006 21.999 11.8573C21.9997 11.9047 22 11.9523 22 12C22 12.0506 21.9996 12.1012 21.9989 12.1516C21.9376 16.2743 19.3814 19.7925 15.7731 21.2637C14.6481 21.7213 13.4566 21.9656 12.2607 21.9966ZM14.0322 15.4464L16.906 18.3202C14.0281 20.5599 9.97192 20.5599 7.09402 18.3202L9.96779 15.4464C11.2175 16.1845 12.7825 16.1845 14.0322 15.4464ZM8.55358 14.0322L5.67981 16.906C3.44007 14.0281 3.44007 9.97192 5.67981 7.09402L8.55358 9.96779C7.81548 11.2175 7.81548 12.7825 8.55358 14.0322ZM10.0824 12.5694C10.0773 12.5523 10.0725 12.5351 10.0679 12.5179C9.97738 12.179 9.97738 11.821 10.0679 11.4821C10.1556 11.1537 10.3282 10.8434 10.5858 10.5858C10.8299 10.3417 11.1213 10.1739 11.4306 10.0824C11.4477 10.0773 11.4649 10.0725 11.4821 10.0679C11.821 9.97738 12.179 9.97737 12.5179 10.0679C12.8463 10.1556 13.1566 10.3282 13.4142 10.5858C13.6583 10.8299 13.8261 11.1213 13.9176 11.4306C13.9227 11.4477 13.9275 11.4649 13.9321 11.4821C14.0226 11.821 14.0226 12.179 13.9321 12.5179C13.8444 12.8462 13.6718 13.1566 13.4142 13.4142C13.1701 13.6583 12.8787 13.8261 12.5694 13.9176C12.5523 13.9227 12.5351 13.9275 12.5179 13.9321C12.179 14.0226 11.821 14.0226 11.4821 13.9321C11.1538 13.8444 10.8434 13.6718 10.5858 13.4142C10.3417 13.1701 10.1739 12.8787 10.0824 12.5694ZM14.0322 8.55357C12.7825 7.81548 11.2175 7.81548 9.96779 8.55357L7.09402 5.6798C9.97192 3.44007 14.0281 3.44007 16.906 5.6798L14.0322 8.55357ZM18.3202 16.906C20.5599 14.0281 20.5599 9.97192 18.3202 7.09402L15.4464 9.96779C16.1845 11.2175 16.1845 12.7825 15.4464 14.0322L18.3202 16.906Z"
    fill="currentColor"
  />
</svg>