<svg
  width="24"
  height="24"
  viewBox="0 0 24 24"
  fill="none"
  xmlns="http://www.w3.org/2000/svg"
>
  <path
    fill-rule="evenodd"
    clip-rule="evenodd"
    d="M18.9999 4C20.6568 4 21.9999 5.34315 21.9999 7V17C21.9999 18.6569 20.6568 20 18.9999 20H4.99994C3.34308 20 1.99994 18.6569 1.99994 17V7C1.99994 5.34315 3.34308 4 4.99994 4H18.9999ZM19.9999 9.62479H13C12.4478 9.62479 11.8442 9.20507 11.652 8.68732L10.6542 6H4.99994C4.44765 6 3.99994 6.44772 3.99994 7V17C3.99994 17.5523 4.44765 18 4.99994 18H18.9999C19.5522 18 19.9999 17.5523 19.9999 17V9.62479Z"
    fill="currentColor"
  />
</svg>