<svg
  width="24"
  height="24"
  viewBox="0 0 24 24"
  fill="none"
  xmlns="http://www.w3.org/2000/svg"
>
  <path
    d="M12 19C12.5523 19 13 18.5523 13 18C13 17.4477 12.5523 17 12 17C11.4477 17 11 17.4477 11 18C11 18.5523 11.4477 19 12 19Z"
    fill="currentColor"
  />
  <path
    fill-rule="evenodd"
    clip-rule="evenodd"
    d="M15 13.9997C16.2144 14.9119 17 16.3642 17 18C17 20.7614 14.7614 23 12 23C9.23858 23 7 20.7614 7 18C7 16.3642 7.78555 14.9119 9 13.9997V4C9 2.34315 10.3431 1 12 1C13.6569 1 15 2.34315 15 4V13.9997ZM13 4V15.1707C14.1652 15.5826 15 16.6938 15 18C15 19.6569 13.6569 21 12 21C10.3431 21 9 19.6569 9 18C9 16.6938 9.83481 15.5826 11 15.1707V4C11 3.44772 11.4477 3 12 3C12.5523 3 13 3.44772 13 4Z"
    fill="currentColor"
  />
</svg>