<svg
  width="24"
  height="24"
  viewBox="0 0 24 24"
  fill="none"
  xmlns="http://www.w3.org/2000/svg"
>
  <path
    d="M7 15C5.34315 15 4 13.6569 4 12C4 10.3431 5.34315 9 7 9C8.65685 9 10 10.3431 10 12C10 13.6569 8.65685 15 7 15Z"
    fill="currentColor"
  />
  <path
    fill-rule="evenodd"
    clip-rule="evenodd"
    d="M24 12C24 8.13401 20.866 5 17 5H7C3.13401 5 0 8.13401 0 12C0 15.866 3.13401 19 7 19H17C20.866 19 24 15.866 24 12ZM17 7H7C4.23858 7 2 9.23858 2 12C2 14.7614 4.23858 17 7 17H17C19.7614 17 22 14.7614 22 12C22 9.23858 19.7614 7 17 7Z"
    fill="currentColor"
  />
</svg>