<svg
  width="24"
  height="24"
  viewBox="0 0 24 24"
  fill="none"
  xmlns="http://www.w3.org/2000/svg"
>
  <path
    d="M11 9C11 10.1046 10.1046 11 9 11C7.89543 11 7 10.1046 7 9C7 7.89543 7.89543 7 9 7C10.1046 7 11 7.89543 11 9Z"
    fill="currentColor"
  />
  <path
    d="M17 9C17 10.1046 16.1046 11 15 11C13.8954 11 13 10.1046 13 9C13 7.89543 13.8954 7 15 7C16.1046 7 17 7.89543 17 9Z"
    fill="currentColor"
  />
  <path
    d="M15 17C16.1046 17 17 16.1046 17 15C17 13.8954 16.1046 13 15 13C13.8954 13 13 13.8954 13 15C13 16.1046 13.8954 17 15 17Z"
    fill="currentColor"
  />
  <path
    d="M11 15C11 16.1046 10.1046 17 9 17C7.89543 17 7 16.1046 7 15C7 13.8954 7.89543 13 9 13C10.1046 13 11 13.8954 11 15Z"
    fill="currentColor"
  />
  <path
    fill-rule="evenodd"
    clip-rule="evenodd"
    d="M24 12C24 18.6274 18.6274 24 12 24C5.37258 24 0 18.6274 0 12C0 5.37258 5.37258 0 12 0C18.6274 0 24 5.37258 24 12ZM21 12C21 16.9706 16.9706 21 12 21C7.02944 21 3 16.9706 3 12C3 7.02944 7.02944 3 12 3C16.9706 3 21 7.02944 21 12Z"
    fill="currentColor"
  />
</svg>